g DoubleRollerPumpTube3
v -0.5579355 0.3386586 -6.022969
v -0.9108999 0.4851043 -6.002563
v -1.263803 0.3386586 -5.981122
v -1.409919 -0.01489264 -5.971207
v -1.263655 -0.3684438 -5.978625
v -0.9106905 -0.5148894 -5.999031
v -0.5577874 -0.3684436 -6.020472
v -0.4116715 -0.01489247 -6.030387
v -0.5579355 0.3386586 -6.022969
v -0.5482027 0.3402084 -5.813827
v -0.9017866 0.4865704 -5.812042
v -1.25525 0.3400926 -5.804659
v -1.401539 -0.01342016 -5.796004
v -1.254959 -0.366885 -5.791146
v -0.9013752 -0.513247 -5.792931
v -0.5479117 -0.3667691 -5.800313
v -0.401623 -0.01325641 -5.808969
v -0.5482027 0.3402084 -5.813827
v -0.5480527 0.344934 -5.607543
v -0.9014211 0.4909365 -5.623688
v -1.254809 0.3442182 -5.629782
v -1.401207 -0.009275252 -5.622254
v -1.254857 -0.3624721 -5.605515
v -0.9014886 -0.5084745 -5.58937
v -0.5481003 -0.3617561 -5.583277
v -0.4017025 -0.00826274 -5.590805
v -0.5480527 0.344934 -5.607543
v -0.5568377 0.3526734 -5.404145
v -0.9092603 0.4980733 -5.437369
v -1.262021 0.3509325 -5.456232
v -1.408478 -0.002556022 -5.449684
v -1.262839 -0.3553234 -5.421561
v -0.9104161 -0.5007232 -5.388337
v -0.5576549 -0.3535823 -5.369473
v -0.4111981 -9.384203E-05 -5.376022
v -0.5568377 0.3526734 -5.404145
v -0.5739014 0.3632608 -5.203635
v -0.9247668 0.5078536 -5.25296
v -1.276444 0.360139 -5.283788
v -1.422925 0.006646175 -5.278059
v -1.278403 -0.3455536 -5.239131
v -0.9275373 -0.4901463 -5.189806
v -0.5758603 -0.3424316 -5.158978
v -0.4293796 0.01106117 -5.164707
v -0.5739014 0.3632608 -5.203635
v -0.5985827 0.3765288 -5.005998
v -0.9474065 0.5201514 -5.07035
v -1.297643 0.3717449 -5.112264
v -1.444128 0.01824381 -5.107187
v -1.301052 -0.3332757 -5.058094
v -0.9522287 -0.4768983 -4.993742
v -0.6019924 -0.3284916 -4.951828
v -0.4555076 0.02500938 -4.956905
v -0.5985827 0.3765288 -5.005998
v -0.6302214 0.3923094 -4.8112
v -0.9766461 0.534841 -4.889439
v -1.325186 0.3856583 -4.94151
v -1.47167 0.0321505 -4.936911
v -1.330291 -0.3186023 -4.878336
v -0.9838663 -0.4611339 -4.800097
v -0.6353267 -0.311951 -4.748026
v -0.4888423 0.0415567 -4.752625
v -0.6302214 0.3923094 -4.8112
v -0.6681596 0.4104353 -4.61919
v -1.011951 0.5517967 -4.710136
v -1.358634 0.4017866 -4.771406
v -1.505128 0.04827883 -4.767108
v -1.365618 -0.3016465 -4.699759
v -1.021827 -0.4430079 -4.608813
v -0.6751429 -0.2929976 -4.547544
v -0.5286493 0.06051006 -4.551842
v -0.6681596 0.4104353 -4.61919
v -0.7117459 0.4307405 -4.429902
v -1.052783 0.5708919 -4.532362
v -1.397541 0.4200345 -4.601861
v -1.544067 0.06653852 -4.597686
v -1.406527 -0.2825228 -4.522284
v -1.06549 -0.4226741 -4.419823
v -0.7207316 -0.2718166 -4.350325
v -0.5742059 0.08167928 -4.354499
v -0.7117459 0.4307405 -4.429902
v -0.7603347 0.4530605 -4.243267
v -1.098601 0.5919993 -4.356042
v -1.441449 0.4403045 -4.432796
v -1.588041 0.08683685 -4.428566
v -1.452507 -0.2613471 -4.345831
v -1.11424 -0.4002858 -4.233056
v -0.7713929 -0.2485909 -4.156302
v -0.6248006 0.1048766 -4.160532
v -0.7603347 0.4530605 -4.243267
v -0.8132907 0.4772337 -4.059196
v -1.148861 0.6149899 -4.181108
v -1.48988 0.4624934 -4.264159
v -1.636584 0.1090747 -4.259698
v -1.503035 -0.2382384 -4.17034
v -1.167465 -0.3759945 -4.048428
v -0.8264454 -0.2234979 -3.965377
v -0.6797419 0.1299207 -3.969837
v -0.8132907 0.4772337 -4.059196
v -0.8699837 0.5030994 -3.87761
v -1.203012 0.639734 -4.007493
v -1.542351 0.4864966 -4.095893
v -1.689219 0.1331516 -4.091026
v -1.557583 -0.2133163 -3.995744
v -1.224554 -0.3499509 -3.865861
v -0.8852161 -0.1967133 -3.777462
v -0.7383482 0.1566316 -3.782328
v -0.8699837 0.5030994 -3.87761
v -0.9297937 0.5305001 -3.698421
v -1.260502 0.6661006 -3.835137
v -1.598358 0.5122039 -3.927958
v -1.74545 0.1589608 -3.92251
v -1.615615 -0.1867038 -3.821985
v -1.284907 -0.3223041 -3.685268
v -0.9470505 -0.1684074 -3.592448
v -0.7999579 0.1848356 -3.597896
v -0.9297937 0.5305001 -3.698421
v -0.9921059 0.559279 -3.521542
v -1.320771 0.693957 -3.663976
v -1.657388 0.5395027 -3.760305
v -1.804772 0.1863932 -3.754101
v -1.676586 -0.1585246 -3.648998
v -1.347921 -0.2932027 -3.506564
v -1.011303 -0.1387482 -3.410234
v -0.8639201 0.2143612 -3.416438
v -0.9921059 0.559279 -3.521542
v -1.056314 0.5892813 -3.34689
v -1.38326 0.7231703 -3.49395
v -1.718917 0.5682773 -3.592891
v -1.866661 0.2153363 -3.585755
v -1.739946 -0.1289045 -3.476722
v -1.413 -0.2627935 -3.329662
v -1.077344 -0.1079003 -3.230721
v -0.9295995 0.2450406 -3.237857
v -1.056314 0.5892813 -3.34689
v -1.121816 0.6203532 -3.174387
v -1.447404 0.7536066 -3.324996
v -1.782407 0.59841 -3.42566
v -1.930586 0.2456754 -3.417413
v -1.805139 -0.09796992 -3.305085
v -1.479552 -0.2312233 -3.154477
v -1.144548 -0.07602659 -3.053812
v -0.9963695 0.2767079 -3.062059
v -1.121816 0.6203532 -3.174387
v -1.188018 0.6523415 -3.003961
v -1.512636 0.7851309 -3.15705
v -1.847315 0.6297811 -3.258554
v -1.996004 0.277294 -3.249013
v -1.871603 -0.06584833 -3.134016
v -1.546985 -0.1986377 -2.980927
v -1.212306 -0.04328784 -2.879422
v -1.063617 0.3091992 -2.888963
v -1.188018 0.6523415 -3.003961
v -1.254328 0.6850944 -2.835538
v -1.578387 0.8176079 -2.990047
v -1.913084 0.6622691 -3.091506
v -2.06236 0.3100732 -3.080482
v -1.938769 -0.0326682 -2.963434
v -1.614711 -0.1651818 -2.808925
v -1.280013 -0.009842837 -2.707466
v -1.130738 0.342353 -2.71849
v -1.254328 0.6850944 -2.835538
v -1.320163 0.7184594 -2.669063
v -1.644084 0.8509021 -2.823919
v -1.979153 0.6957523 -2.924437
v -2.129091 0.3438944 -2.911735
v -2.006066 0.00144226 -2.793252
v -1.682144 -0.1310004 -2.638396
v -1.347075 0.02414961 -2.537879
v -1.197137 0.3760073 -2.550581
v -1.320163 0.7184594 -2.669063
v -1.384941 0.7522851 -2.504479
v -1.709154 0.8848776 -2.658595
v -2.04495 0.7301079 -2.757257
v -2.195624 0.3786379 -2.742669
v -2.072914 0.03635414 -2.623377
v -1.748701 -0.09623832 -2.46926
v -1.412905 0.05853149 -2.370599
v -1.262231 0.4100013 -2.385187
v -1.384941 0.7522851 -2.504479
v -1.448092 0.7864196 -2.341743
v -1.773022 0.9193982 -2.494004
v -2.109896 0.7652132 -2.589866
v -2.261377 0.4141841 -2.573174
v -2.13873 0.0719389 -2.453706
v -1.813799 -0.06103966 -2.301445
v -1.476925 0.09314547 -2.205584
v -1.325444 0.4441746 -2.222275
v -1.448092 0.7864196 -2.341743
v -1.509046 0.8207114 -2.180816
v -1.83511 0.9543279 -2.330066
v -2.173402 0.8009452 -2.422146
v -2.325755 0.4504126 -2.403118
v -2.202923 0.1080675 -2.284128
v -1.876859 -0.02554902 -2.134878
v -1.538566 0.1278339 -2.042798
v -1.386213 0.4783664 -2.061826
v -1.509046 0.8207114 -2.180816
v -1.567247 0.8550098 -2.021669
v -1.894837 0.9895303 -2.166705
v -2.234865 0.8371793 -2.253979
v -2.388147 0.487202 -2.232366
v -2.264893 0.1446103 -2.114528
v -1.937303 0.01008987 -1.969492
v -1.597275 0.162441 -1.882218
v -1.443992 0.5124182 -1.903831
v -1.567247 0.8550098 -2.021669
v -1.622146 0.889164 -1.864277
v -1.951621 1.024869 -2.003836
v -2.293672 0.8737915 -2.085222
v -2.447929 0.5244307 -2.060759
v -2.324031 0.1814375 -1.944778
v -1.994556 0.04573265 -1.805219
v -1.652505 0.1968103 -1.723834
v -1.498248 0.5461709 -1.748296
v -1.622146 0.889164 -1.864277
v -1.673206 0.923025 -1.708626
v -2.004876 1.060207 -1.841376
v -2.34919 0.9106553 -1.91573
v -2.504454 0.5619746 -1.888133
v -2.379715 0.2184176 -1.77475
v -2.048045 0.08123541 -1.642
v -1.703731 0.2307875 -1.567646
v -1.548468 0.5794681 -1.595243
v -1.673206 0.923025 -1.708626
v -1.719905 0.9564449 -1.554703
v -2.054012 1.095408 -1.679234
v -2.40077 0.9476431 -1.745345
v -2.557053 0.5997077 -1.714309
v -2.431312 0.2554182 -1.604306
v -2.097205 0.1164546 -1.479775
v -1.750447 0.2642201 -1.413664
v -1.594164 0.6121554 -1.4447
v -1.719905 0.9564449 -1.554703
v -1.761737 0.9892793 -1.402496
v -2.098435 1.130335 -1.517321
v -2.447737 0.9846223 -1.573908
v -2.605028 0.6374981 -1.539109
v -2.478169 0.2923029 -1.43331
v -2.141471 0.1512474 -1.318485
v -1.792168 0.29696 -1.261899
v -1.634877 0.6440842 -1.296697
v -1.761737 0.9892793 -1.402496
v -1.798218 1.021389 -1.251991
v -2.137544 1.164848 -1.355545
v -2.489389 1.021455 -1.401263
v -2.647647 0.6752068 -1.362362
v -2.519612 0.328931 -1.261631
v -2.180285 0.1854714 -1.158077
v -1.82844 0.3288647 -1.11236
v -1.670183 0.675113 -1.15126
v -1.798218 1.021389 -1.251991
v -1.828882 1.052638 -1.103163
v -2.170735 1.198809 -1.193816
v -2.524994 1.057997 -1.227259
v -2.684141 0.7126865 -1.183903
v -2.554949 0.3651568 -1.089144
v -2.213097 0.2189859 -0.9984922
v -1.858837 0.3597987 -0.9650489
v -1.69969 0.7051088 -1.008405
v -1.828882 1.052638 -1.103163
v -1.85329 1.082902 -0.9559708
v -2.197393 1.232077 -1.032043
v -2.553788 1.094091 -1.051771
v -2.713704 0.7497755 -1.003599
v -2.583464 0.4008259 -0.9157449
v -2.239361 0.2516519 -0.8396726
v -1.882966 0.3896377 -0.8199443
v -1.72305 0.7339529 -0.8681167
v -1.85329 1.082902 -0.9559708
v -1.87102 1.112064 -0.81034
v -2.216898 1.264505 -0.870145
v -2.574973 1.129567 -0.8747126
v -2.735489 0.7862954 -0.8213674
v -2.604418 0.4357736 -0.7413582
v -2.258539 0.2833329 -0.6815532
v -1.900465 0.418271 -0.6769856
v -1.739949 0.7615428 -0.7303308
v -1.87102 1.112064 -0.81034
v -1.881669 1.140019 -0.6661664
v -2.228625 1.295949 -0.7080455
v -2.587729 1.164243 -0.6960372
v -2.748623 0.8220511 -0.6371758
v -2.617058 0.4698257 -0.5659415
v -2.270102 0.3138953 -0.5240623
v -1.910997 0.445602 -0.5360706
v -1.750103 0.7877935 -0.5949321
v -1.881669 1.140019 -0.6661664
v -1.884843 1.166673 -0.5232887
v -2.231942 1.326258 -0.5456804
v -2.591219 1.197915 -0.5157719
v -2.752215 0.8568246 -0.4510832
v -2.62062 0.5027938 -0.389508
v -2.27352 0.3432088 -0.3671163
v -1.914243 0.4715523 -0.3970248
v -1.753248 0.8126424 -0.4617136
v -1.884843 1.166673 -0.5232887
v -1.880144 1.191946 -0.3814918
v -2.226218 1.355278 -0.3830009
v -2.584609 1.230365 -0.3340198
v -2.745376 0.8903784 -0.263241
v -2.614345 0.5344785 -0.2121256
v -2.268271 0.3711467 -0.2106165
v -1.90988 0.4960604 -0.2595976
v -1.749113 0.8360468 -0.3303764
v -1.880144 1.191946 -0.3814918
v -1.867152 1.215768 -0.240495
v -2.21082 1.382853 -0.2199737
v -2.567085 1.261359 -0.1509712
v -2.727251 0.9224566 -0.07390816
v -2.597494 0.5646697 -0.03392715
v -2.253825 0.3975854 -0.05444845
v -1.897561 0.5190792 -0.123451
v -1.737395 0.8579817 -0.200514
v -1.867152 1.215768 -0.240495
v -1.845409 1.238075 -0.09996124
v -2.18513 1.408822 -0.05658419
v -2.53789 1.290654 0.03310079
v -2.697047 0.9527925 0.1165575
v -2.569369 0.5931513 0.144898
v -2.229648 0.4224038 0.101521
v -1.876888 0.5405716 0.01183597
v -1.717731 0.8784335 -0.07162067
v -1.845409 1.238075 -0.09996124
v -1.814401 1.258801 0.04049281
v -2.148536 1.433026 0.1071712
v -2.496336 1.318006 0.217861
v -2.654064 0.9811184 0.3077216
v -2.529326 0.6197069 0.3241139
v -2.195191 0.4454818 0.2574355
v -1.847391 0.5605018 0.1467457
v -1.689662 0.8973896 0.05688509
v -1.814401 1.258801 0.04049281
v -1.773542 1.277878 0.1812804
v -2.100446 1.455305 0.2712798
v -2.441832 1.343175 0.4029215
v -2.597719 1.007174 0.4990917
v -2.476792 0.6441254 0.503455
v -2.149888 0.4666988 0.4134557
v -1.808502 0.5788283 0.2818139
v -1.652614 0.9148297 0.1856438
v -1.773542 1.277878 0.1812804
v -1.722173 1.295224 0.322814
v -2.040287 1.475501 0.4357305
v -2.373886 1.36594 0.5878975
v -2.527552 1.03072 0.6901777
v -2.411269 0.6662087 0.6826567
v -2.093155 0.4859318 0.5697402
v -1.759556 0.595493 0.4175732
v -1.60589 0.9307126 0.315293
v -1.722173 1.295224 0.322814
v -1.65957 1.310737 0.4654739
v -1.967505 1.49346 0.6005124
v -2.2921 1.3861 0.7724366
v -2.443214 1.051546 0.8805355
v -2.332325 0.6857768 0.8614862
v -2.02439 0.503054 0.7264476
v -1.699794 0.6104146 0.5545234
v -1.548681 0.9449679 0.4464246
v -1.65957 1.310737 0.4654739
v -1.584955 1.324299 0.6095912
v -1.881558 1.509034 0.765623
v -2.19615 1.403483 0.9562469
v -2.344447 1.069476 1.069798
v -2.239578 0.7026693 1.03976
v -1.942975 0.517934 0.8837278
v -1.628383 0.6234853 0.6931039
v -1.480086 0.9574924 0.5795529
v -1.584955 1.324299 0.6095912
v -1.497517 1.335768 0.7554325
v -1.781918 1.522078 0.9310768
v -2.085757 1.417943 1.139126
v -2.231048 1.084364 1.257708
v -2.132683 0.7167459 1.217359
v -1.848282 0.5304356 1.041715
v -1.544443 0.6345708 0.8336651
v -1.399151 0.9681503 0.7150833
v -1.497517 1.335768 0.7554325
v -1.396439 1.344988 0.9031892
v -1.668061 1.532453 1.096901
v -1.96066 1.429358 1.320965
v -2.102833 1.096094 1.444126
v -2.011298 0.7278833 1.394239
v -1.739676 0.540418 1.200527
v -1.447077 0.6435131 0.9764636
v -1.304904 0.9767767 0.8533022
v -1.396439 1.344988 0.9031892
v -1.280914 1.351787 1.052985
v -1.539463 1.540022 1.263144
v -1.820582 1.437623 1.50175
v -1.959597 1.104574 1.62903
v -1.875073 0.7359715 1.570426
v -1.616525 0.5477372 1.360266
v -1.335405 0.6501365 1.12166
v -1.196391 0.983185 0.9943801
v -1.280914 1.351787 1.052985
v -1.150163 1.35599 1.204883
v -1.395595 1.544651 1.429865
v -1.665221 1.442644 1.681545
v -1.801098 1.109723 1.812493
v -1.723631 0.7409078 1.746001
v -1.478199 0.5522464 1.52102
v -1.208573 0.6542537 1.26934
v -1.072696 0.987175 1.138392
v -1.150163 1.35599 1.204883
v -0.9989014 1.357464 1.3635
v -1.237186 1.546217 1.595964
v -1.50055 1.444294 1.854223
v -1.634718 1.111401 1.986993
v -1.561096 0.7425418 1.916499
v -1.322811 0.5537894 1.684035
v -1.059447 0.6557123 1.425776
v -0.9252795 0.9886053 1.293006
v -0.9989014 1.357464 1.3635
v 0 0 0
v 0 0 0
v 0 0 0
v 0 0 0
v 0 0 0
v 0 0 0
v 0 0 0
v 0 0 0
v 0 0 0
v 0 0 0
v 0 0 0
v 0 0 0
v 0 0 0
v 0 0 0
v 0 0 0
v 0 0 0
v 0 0 0
v 0 0 0
v 0 0 0
v 0 0 0
v 0 0 0
v 0 0 0
v 0 0 0
v 0 0 0
v 0 0 0
v 0 0 0
v 0 0 0
v 0 0 0
v 0 0 0
v 0 0 0
v 0 0 0
v 0 0 0
v 0 0 0
v 0 0 0
v 0 0 0
v 0 0 0
v 0 0 0
v 0 0 0
v 0 0 0
v 0 0 0
v 0 0 0
v 0 0 0
v 0 0 0
v 0 0 0
v 0 0 0
v 0 0 0
v -0.9107952 -0.01489258 -6.000797
v -1.279999 1.050003 1.639999

vn 0.2054435 0.6023067 -0.7713751
vn -0.1151821 0.4820653 -0.868531
vn -0.4250138 0.280063 -0.8607717
vn -0.5220193 -0.07096057 -0.8499767
vn -0.3523931 -0.4088543 -0.8418178
vn 0.02725789 -0.5377169 -0.8426847
vn 0.3963229 -0.340495 -0.8526378
vn 0.4980569 0.06978667 -0.8643316
vn 0.3282867 0.1553612 -0.9317139
vn 0.3823803 0.9237245 -0.02276907
vn 0.01204927 0.9997556 -0.01854022
vn -0.7025 0.7116631 0.005420923
vn -0.9996624 -0.00341503 0.02575515
vn -0.6992282 -0.7142373 0.03074038
vn 0.01038461 -0.9997685 0.01884449
vn 0.7098837 -0.7043111 -0.003323747
vn 0.9997039 -0.00451785 -0.02390968
vn 0.9232849 0.3826391 -0.03364858
vn 0.3826623 0.9236761 -0.01979997
vn 0.01191846 0.9993782 -0.03318473
vn -0.702651 0.7105718 -0.03700336
vn -0.9998074 -0.00424957 -0.01915669
vn -0.6997253 -0.7143398 0.01015468
vn 0.009715046 -0.9993601 0.03442491
vn 0.7095404 -0.7035776 0.03912632
vn 0.9997736 -0.003662073 0.02095977
vn 0.9237206 0.3830608 0.002170474
vn 0.3828105 0.9236664 -0.01721786
vn 0.01228754 0.9987993 -0.04742384
vn -0.7010565 0.7088674 -0.077632
vn -0.9980621 -0.005641364 -0.06196978
vn -0.6994291 -0.7146412 -0.009328748
vn 0.008307799 -0.9987414 0.04946312
vn 0.7074035 -0.7022999 0.07971916
vn 0.9979662 -0.002169882 0.06370756
vn 0.9226266 0.383986 0.03626396
vn 0.3828647 0.9236819 -0.01505385
vn 0.01310315 0.9980417 -0.06116477
vn -0.6979703 0.7066452 -0.1161469
vn -0.9947211 -0.007499938 -0.1023417
vn -0.6984739 -0.7151049 -0.02755417
vn 0.006265185 -0.99794 0.06384772
vn 0.7037449 -0.7005602 0.1181458
vn 0.9945776 -0.0001418738 0.1039968
vn 0.9202407 0.385338 0.06834962
vn 0.3828654 0.9237079 -0.01333044
vn 0.01430393 0.9971309 -0.07433316
vn -0.6936685 0.7040081 -0.1523041
vn -0.9901021 -0.009726264 -0.1400115
vn -0.6970031 -0.715692 -0.04440179
vn 0.003695727 -0.9969859 0.07749575
vn 0.6988568 -0.6984484 0.1541723
vn 0.9899254 0.002312983 0.1415713
vn 0.9168208 0.3870325 0.09821028
vn 0.3828529 0.9237307 -0.01206184
vn 0.01582393 0.9960938 -0.08687171
vn -0.6884375 0.7010595 -0.1859289
vn -0.9845294 -0.0122218 -0.1747933
vn -0.6951619 -0.716363 -0.05978355
vn 0.0007128011 -0.9959097 0.09035133
vn 0.6930359 -0.6960564 0.1876345
vn 0.984332 0.005083285 0.1762515
vn 0.9126307 0.3889816 0.125692
vn 0.3828648 0.9237358 -0.01125581
vn 0.01759703 0.9949576 -0.09874023
vn -0.6825557 0.6979021 -0.2169106
vn -0.9783182 -0.01488593 -0.2065721
vn -0.6930942 -0.7170755 -0.073642
vn -0.002578077 -0.9947417 0.1023839
vn 0.6865698 -0.693476 0.2184323
vn 0.9781112 0.008058014 0.2079268
vn 0.907928 0.3910978 0.1506962
vn 0.3829357 0.9237105 -0.01091434
vn 0.01955277 0.9937486 -0.109916
vn -0.6762908 0.6946287 -0.2451977
vn -0.9717643 -0.01762866 -0.2352944
vn -0.6909351 -0.7177894 -0.08594717
vn -0.00608035 -0.9935099 0.1135823
vn 0.6797259 -0.690797 0.2465201
vn 0.9715565 0.01113016 0.2365463
vn 0.9029549 0.3932971 0.1731758
vn 0.3830962 0.9236425 -0.01103715
vn 0.02163031 0.9924915 -0.1203855
vn -0.6698812 0.6913324 -0.2707743
vn -0.9651381 -0.02035445 -0.2609487
vn -0.6888101 -0.718465 -0.09668789
vn -0.009701133 -0.9922409 0.1239513
vn 0.6727545 -0.6880956 0.2718932
vn 0.9649358 0.01420978 0.262101
vn 0.8979335 0.3955008 0.1931182
vn 0.383373 0.9235205 -0.01162115
vn 0.02376692 0.9912095 -0.1301498
vn -0.6635506 0.6880857 -0.2936637
vn -0.9586794 -0.02299259 -0.2835581
vn -0.6868303 -0.7190666 -0.1058662
vn -0.01336874 -0.9909577 0.1335072
vn 0.6658657 -0.6854548 0.2945751
vn 0.9584871 0.01719598 0.284617
vn 0.8930615 0.3976362 0.210539
vn 0.3837888 0.9233341 -0.01266364
vn 0.02590631 0.9899229 -0.1392171
vn -0.6574844 0.6849645 -0.3139077
vn -0.952596 -0.02546 -0.3031709
vn -0.6850974 -0.7195551 -0.1134987
vn -0.01701693 -0.9896809 0.1422751
vn 0.6592537 -0.6829358 0.3146159
vn 0.9524163 0.02002101 0.304142
vn 0.8885101 0.3996383 0.2254751
vn 0.3843619 0.9230738 -0.01416247
vn 0.02799777 0.9886509 -0.1475995
vn -0.6518505 0.6820263 -0.3315583
vn -0.9470667 -0.02769702 -0.3198397
vn -0.6836955 -0.7199002 -0.1196002
vn -0.02059142 -0.9884287 0.1502819
vn 0.6530757 -0.6806048 0.3320682
vn 0.9469005 0.02260673 0.3207311
vn 0.8844268 0.401448 0.2379678
vn 0.3851074 0.9227309 -0.01611771
vn 0.02999687 0.9874095 -0.1553151
vn -0.6467845 0.6793283 -0.346674
vn -0.9422397 -0.02963922 -0.3336252
vn -0.6826994 -0.7200681 -0.1241908
vn -0.02405083 -0.9872166 0.1575596
vn 0.6474662 -0.6785148 0.3469946
vn 0.9420864 0.0248931 0.3344451
vn 0.8809349 0.4030123 0.2480623
vn 0.3860373 0.922297 -0.01853249
vn 0.03185986 0.9862137 -0.1623814
vn -0.6424047 0.6769152 -0.3593076
vn -0.9382377 -0.03123631 -0.3445785
vn -0.6821691 -0.7200305 -0.1272843
vn -0.02736013 -0.9860581 0.1641368
vn 0.642535 -0.6767166 0.3594486
vn 0.9380956 0.02682327 0.3453363
vn 0.8781345 0.4042836 0.2558018
vn 0.3871594 0.9217641 -0.02141242
vn 0.03355363 0.9850761 -0.1688172
vn -0.6388019 0.6748326 -0.3695038
vn -0.9351585 -0.03243394 -0.3527417
vn -0.6821572 -0.7197563 -0.1288894
vn -0.03049639 -0.9849647 0.1700425
vn 0.6383683 -0.6752564 0.369479
vn 0.935025 0.02834721 0.3534468
vn 0.8761081 0.4052182 0.2612143
vn 0.3884795 0.9211245 -0.02476892
vn 0.03504459 0.9840091 -0.1746365
vn -0.6360531 0.6731175 -0.377292
vn -0.9330787 -0.03318836 -0.3581377
vn -0.6827 -0.7192207 -0.1290049
vn -0.03343587 -0.983947 0.1753008
vn 0.6350369 -0.6741738 0.3771175
vn 0.9329501 0.02942093 0.3588016
vn 0.8749171 0.4057766 0.2643207
vn 0.3899995 0.9203703 -0.02861659
vn 0.03630788 0.983023 -0.1798539
vn -0.6342136 0.6718057 -0.382688
vn -0.9320542 -0.03345516 -0.3607711
vn -0.6838295 -0.7183947 -0.1276176
vn -0.03617172 -0.9830135 0.1799334
vn 0.6325859 -0.6735129 0.3823812
vn 0.9319258 0.02999608 0.3614064
vn 0.8746091 0.4059202 0.2651184
vn 0.3917187 0.9194939 -0.03297613
vn 0.03731452 0.9821284 -0.1844762
vn -0.633326 0.6709296 -0.3856834
vn -0.9321212 -0.03319263 -0.3606223
vn -0.685564 -0.7172524 -0.124704
vn -0.03869399 -0.9821727 0.1839552
vn 0.6310504 -0.6733084 0.3852678
vn 0.9319879 0.03003859 0.3612425
vn 0.8752123 0.4056139 0.2635925
vn 0.3936322 0.9184875 -0.03787241
vn 0.03804823 0.9813343 -0.1885081
vn -0.6334111 0.670523 -0.3862504
vn -0.9332967 -0.03235792 -0.3576454
vn -0.6879143 -0.7157656 -0.1202227
vn -0.0410038 -0.9814315 0.1873796
vn 0.6304427 -0.6735994 0.3857535
vn 0.9331529 0.0295059 0.3582669
vn 0.8767415 0.4048217 0.2596993
vn 0.3957314 0.9173433 -0.04333662
vn 0.0384869 0.9806508 -0.1919452
vn -0.6344775 0.6706148 -0.3843358
vn -0.9355769 -0.03091266 -0.3517672
vn -0.6908764 -0.7139094 -0.1141198
vn -0.04310255 -0.9807965 0.1902113
vn 0.6307614 -0.6744208 0.3837924
vn 0.935416 0.02836399 0.3524092
vn 0.8791915 0.4035106 0.2533801
vn 0.3980018 0.9160534 -0.04940419
vn 0.03862262 0.9800868 -0.194777
vn -0.6365083 0.6712399 -0.3798606
vn -0.9389353 -0.02881332 -0.3428849
vn -0.6944366 -0.7116554 -0.1063219
vn -0.04499812 -0.9802736 0.1924548
vn 0.6319847 -0.6758073 0.3793152
vn 0.938751 0.02657595 0.3435699
vn 0.8825411 0.4016458 0.244544
vn 0.4004237 0.9146101 -0.05611709
vn 0.03844184 0.9796526 -0.1969846
vn -0.6394719 0.6724245 -0.3727209
vn -0.9433183 -0.02602655 -0.3308671
vn -0.698561 -0.708981 -0.09674083
vn -0.04670177 -0.9798685 0.1941046
vn 0.6340671 -0.6777942 0.3722281
vn 0.9431042 0.02410667 0.3316225
vn 0.8867438 0.3991954 0.2330846
vn 0.4029689 0.9130067 -0.06352057
vn 0.03794516 0.9793576 -0.1985414
vn -0.6433018 0.6742024 -0.3627864
vn -0.9486405 -0.02250942 -0.3155541
vn -0.7032029 -0.7058572 -0.08527069
vn -0.0482329 -0.9795855 0.1951558
vn 0.6369397 -0.6804137 0.3624155
vn 0.9483916 0.0209249 0.3164106
vn 0.8917301 0.3961267 0.2188635
vn 0.4056 0.911237 -0.07166356
vn 0.03713454 0.9792117 -0.1994127
vn -0.6479038 0.6765973 -0.3499097
vn -0.9547761 -0.01823377 -0.296766
vn -0.708285 -0.7022664 -0.07179421
vn -0.04961164 -0.9794282 0.1955994
vn 0.6405008 -0.6836928 0.349747
vn 0.9544887 0.01700427 0.297762
vn 0.8973946 0.3924119 0.2017325
vn 0.4082687 0.9092969 -0.08059593
vn 0.03602695 0.9792245 -0.1995526
vn -0.6531398 0.679637 -0.333919
vn -0.9615542 -0.01316769 -0.2742991
vn -0.7137058 -0.698189 -0.05618051
vn -0.05086429 -0.9793992 0.1954228
vn 0.6446162 -0.6876533 0.33407
vn 0.9612284 0.01232452 0.2754777
vn 0.9035959 0.3880264 0.181521
vn 0.4109139 0.9071842 -0.09036975
vn 0.03465251 0.979405 -0.1989095
vn -0.658825 0.6833405 -0.3146355
vn -0.9687475 -0.007293724 -0.2479421
vn -0.7193269 -0.6936156 -0.03829112
vn -0.05202079 -0.9794992 0.1946154
vn 0.6491082 -0.6923082 0.3152266
vn 0.9683891 0.006873268 0.2493498
vn 0.9101474 0.3829526 0.1580477
vn 0.4134578 0.904901 -0.1010285
vn 0.0330576 0.9797603 -0.197426
vn -0.6647183 0.6877173 -0.2918815
vn -0.9760626 -0.0006087755 -0.2174888
vn -0.7249678 -0.6885478 -0.01799221
vn -0.05311411 -0.979727 0.1931679
vn 0.6537504 -0.6976568 0.2930624
vn 0.9756846 0.0006522461 0.2191784
vn 0.9168074 0.3771833 0.1311375
vn 0.4158075 0.9024541 -0.1126085
vn 0.03131101 0.980295 -0.195042
vn -0.6705109 0.6927664 -0.2654991
vn -0.9831336 0.006876257 -0.1827592
vn -0.7304033 -0.6829989 0.004835566
vn -0.05418069 -0.9800793 0.1910729
vn 0.6582662 -0.7036783 0.2674368
vn 0.9827593 -0.00631569 0.1847814
vn 0.9232739 0.3707267 0.1006329
vn 0.4178525 0.8998567 -0.1251288
vn 0.02951093 0.9810095 -0.1917012
vn -0.6758263 0.6984699 -0.2353691
vn -0.9895171 0.01512086 -0.1436218
vn -0.7353554 -0.6770048 0.03028361
vn -0.05525196 -0.9805505 0.1883297
vn 0.6623263 -0.7103276 0.2382408
vn 0.9891828 -0.0139873 0.1460192
vn 0.9291811 0.3636101 0.06640974
vn 0.419466 0.8971301 -0.1385853
vn 0.02777881 0.9818978 -0.1873629
vn -0.6802225 0.7047818 -0.2014451
vn -0.9946938 0.02404922 -0.1000304
vn -0.739495 -0.6706249 0.05839045
vn -0.0563636 -0.9811312 0.1849447
vn 0.6655418 -0.7175332 0.205427
vn 0.9944486 -0.02229451 0.1028349
vn 0.9340973 0.3558863 0.02841032
vn 0.42051 0.8943041 -0.1529426
vn 0.02626627 0.9829461 -0.1820085
vn -0.683193 0.7116339 -0.1637818
vn -0.99808 0.03355683 -0.05206182
vn -0.7424539 -0.6639429 0.08911791
vn -0.05754343 -0.9818109 0.1809316
vn 0.6674881 -0.7251823 0.1690274
vn 0.9979859 -0.03112479 0.05527643
vn 0.9375336 0.3476392 -0.01332721
vn 0.4208403 0.8914195 -0.1681218
vn 0.02515051 0.9841304 -0.1756559
vn -0.6841996 0.7189213 -0.1225687
vn -0.9990539 0.04348808 5.389994E-05
vn -0.7438306 -0.6570774 0.1223328
vn -0.05881226 -0.9825756 0.1763133
vn 0.6677056 -0.7331304 0.1291857
vn 0.9991795 -0.0403442 0.003544324
vn 0.9389616 0.338987 -0.0586422
vn 0.4203171 0.8885254 -0.1840005
vn 0.02461678 0.9854164 -0.1683698
vn -0.6827002 0.7265066 -0.07815813
vn -0.9969944 0.05364907 0.05589155
vn -0.7432242 -0.6501728 0.1577755
vn -0.06018829 -0.9834105 0.1711175
vn 0.6657338 -0.7411964 0.08617617
vn 0.9974067 -0.04977812 -0.05198169
vn 0.9378429 0.3300839 -0.1072156
vn 0.4188195 0.88568 -0.2004031
vn 0.02484679 0.98676 -0.160273
vn -0.678199 0.7342208 -0.03107778
vn -0.9913347 0.06380701 0.1148223
vn -0.7402642 -0.6433997 0.1950534
vn -0.06168558 -0.9842985 0.1653822
vn 0.661139 -0.7491733 0.04043133
vn 0.9920859 -0.05922897 -0.1107138
vn 0.9336728 0.3211166 -0.1585537
vn 0.4162597 0.8829448 -0.2171094
vn 0.02598902 0.9881089 -0.1515431
vn -0.6703043 0.7418686 0.01796987
vn -0.9816247 0.0737053 0.1760134
vn -0.7346585 -0.6369376 0.2336393
vn -0.06332635 -0.9852208 0.1591526
vn 0.6535539 -0.7568433 -0.007452168
vn 0.98274 -0.06847972 -0.1718504
vn 0.9260321 0.3122983 -0.2119767
vn 0.4125971 0.8803818 -0.2338623
vn 0.02814957 0.9894083 -0.1424041
vn -0.6587701 0.7492516 0.06814633
vn -0.96759 0.08308481 0.2384669
vn -0.7262293 -0.6309662 0.2728968
vn -0.06513106 -0.9861574 0.1524841
vn 0.64273 -0.7639887 -0.0567403
vn 0.9690581 -0.0773059 -0.2344144
vn 0.9146425 0.3038514 -0.2666523
vn 0.4078479 0.8780472 -0.2503858
vn 0.0313588 0.9906051 -0.1331095
vn -0.6435525 0.7561691 0.1185259
vn -0.9491795 0.09169687 0.3010812
vn -0.7149479 -0.6256459 0.3121167
vn -0.06713802 -0.9870851 0.1454497
vn 0.6285587 -0.7704258 -0.1065744
vn 0.9509504 -0.08550594 -0.2972912
vn 0.8994125 0.2959919 -0.3216301
vn 0.4020891 0.8759865 -0.2664057
vn 0.03557367 0.9916553 -0.123912
vn -0.6248116 0.7624495 0.16817
vn -0.9265851 0.09933735 0.362729
vn -0.7009529 -0.6210979 0.3505744
vn -0.06939039 -0.9879789 0.1381401
vn 0.6111127 -0.77601 -0.1560439
vn 0.9285777 -0.09289766 -0.3593236
vn 0.8804655 0.2889089 -0.375915
vn 0.3954528 0.874229 -0.281675
vn 0.04068149 0.9925274 -0.1150404
vn -0.6029032 0.7679603 0.2162055
vn -0.9002259 0.1058624 0.4223582
vn -0.6845376 -0.6173955 0.3875967
vn -0.07193136 -0.9888138 0.130665
vn 0.5906441 -0.7806517 -0.2042609
vn 0.9023429 -0.09934286 -0.4194141
vn 0.8581343 0.2827461 -0.4285559
vn 0.3881116 0.8727876 -0.2959918
vn 0.04651782 0.9932049 -0.1066779
vn -0.5783417 0.7726162 0.2618877
vn -0.8707089 0.1111934 0.4790636
vn -0.6661195 -0.6145594 0.4226131
vn -0.07479367 -0.9895656 0.12315
vn 0.5675648 -0.7843197 -0.2504254
vn 0.8728527 -0.1047574 -0.4766068
vn 0.8329298 0.2775912 -0.4787181
vn 0.3802625 0.8716586 -0.3092113
vn 0.05289153 0.9936857 -0.09895041
vn -0.5517391 0.7763852 0.3046472
vn -0.8387616 0.1153224 0.5321463
vn -0.6461947 -0.6125606 0.4551943
vn -0.0779909 -0.9902147 0.1157249
vn 0.5424048 -0.7870346 -0.2938938
vn 0.8408474 -0.1091112 -0.5301606
vn 0.8054851 0.2734723 -0.5257438
vn 0.3721073 0.8708241 -0.3212501
vn 0.05960429 0.9939806 -0.09192364
vn -0.5237467 0.7792801 0.3441104
vn -0.8051585 0.1183013 0.5811408
vn -0.6252871 -0.6113297 0.4850692
vn -0.081516 -0.9907471 0.1085147
vn 0.5157537 -0.7888613 -0.3342091
vn 0.8071225 -0.1124261 -0.5795806
vn 0.7764867 0.2703635 -0.5691854
vn 0.3638353 0.8702556 -0.3320826
vn 0.06647591 0.9941081 -0.08561575
vn -0.4949951 0.7813536 0.3800874
vn -0.7706556 0.1202296 0.6258073
vn -0.603899 -0.6107702 0.5121188
vn -0.08533534 -0.9911558 0.1016266
vn 0.4882102 -0.7898913 -0.3711101
vn 0.7724574 -0.1147653 -0.6246109
vn 0.7466136 0.2681948 -0.608802
vn 0.3555078 0.8699622 -0.3417309
vn 0.07517185 0.9938052 -0.08185557
vn -0.4649013 0.7845268 0.4103468
vn -0.7364191 0.1229708 0.6652554
vn -0.5824043 -0.611203 0.5359442
vn -0.08740044 -0.9918112 0.09312145
vn 0.4617845 -0.7879913 -0.4072158
vn 0.7369518 -0.1141276 -0.6662408
vn 0.7161534 0.2668625 -0.6449099
vn 0.7822931 0.3751671 0.4972596
vn 0.6783797 0.5488687 0.4884096
vn 0.35692 0.5061766 0.7851073
vn 0.15439 0.1543247 0.9758829
vn 0.2041538 -0.2904606 0.934855
vn 0.469895 -0.5471422 0.6927006
vn 0.7809395 -0.474942 0.4056644
vn 0.9621729 -0.1372916 0.2353176
vn 0.9808791 0.183296 0.06541329
vn 0 0 0
vn 0 0 0
vn 0 0 0
vn 0 0 0
vn 0 0 0
vn 0 0 0
vn 0 0 0
vn 0 0 0
vn 0 0 0
vn 0 0 0
vn 0 0 0
vn 0 0 0
vn 0 0 0
vn 0 0 0
vn 0 0 0
vn 0 0 0
vn 0 0 0
vn 0 0 0
vn 0 0 0
vn 0 0 0
vn 0 0 0
vn 0 0 0
vn 0 0 0
vn 0 0 0
vn 0 0 0
vn 0 0 0
vn 0 0 0
vn 0 0 0
vn 0 0 0
vn 0 0 0
vn 0 0 0
vn 0 0 0
vn 0 0 0
vn 0 0 0
vn 0 0 0
vn 0 0 0
vn 0 0 0
vn 0 0 0
vn 0 0 0
vn 0 0 0
vn 0 0 0
vn 0 0 0
vn 0 0 0
vn 0 0 0
vn 0 0 0
vn 0 0 0
vn -0.05917987 -0.003538197 -0.998241
vn 0.6995465 0.003058524 0.7145805

vt 0 0
vt 0 0.125
vt 0 0.25
vt 0 0.375
vt 0 0.5000001
vt 0 0.6250001
vt 0 0.7500001
vt 0 0.8750001
vt 0 1
vt 0.0222222 0
vt 0.0222222 0.125
vt 0.0222222 0.25
vt 0.0222222 0.375
vt 0.0222222 0.5000001
vt 0.0222222 0.6250001
vt 0.0222222 0.7500001
vt 0.0222222 0.8750001
vt 0.0222222 1
vt 0.0444444 0
vt 0.0444444 0.125
vt 0.0444444 0.25
vt 0.0444444 0.375
vt 0.0444444 0.5000001
vt 0.0444444 0.6250001
vt 0.0444444 0.7500001
vt 0.0444444 0.8750001
vt 0.0444444 1
vt 0.0666666 0
vt 0.0666666 0.125
vt 0.0666666 0.25
vt 0.0666666 0.375
vt 0.0666666 0.5000001
vt 0.0666666 0.6250001
vt 0.0666666 0.7500001
vt 0.0666666 0.8750001
vt 0.0666666 1
vt 0.0888888 0
vt 0.0888888 0.125
vt 0.0888888 0.25
vt 0.0888888 0.375
vt 0.0888888 0.5000001
vt 0.0888888 0.6250001
vt 0.0888888 0.7500001
vt 0.0888888 0.8750001
vt 0.0888888 1
vt 0.111111 0
vt 0.111111 0.125
vt 0.111111 0.25
vt 0.111111 0.375
vt 0.111111 0.5000001
vt 0.111111 0.6250001
vt 0.111111 0.7500001
vt 0.111111 0.8750001
vt 0.111111 1
vt 0.1333332 0
vt 0.1333332 0.125
vt 0.1333332 0.25
vt 0.1333332 0.375
vt 0.1333332 0.5000001
vt 0.1333332 0.6250001
vt 0.1333332 0.7500001
vt 0.1333332 0.8750001
vt 0.1333332 1
vt 0.1555554 0
vt 0.1555554 0.125
vt 0.1555554 0.25
vt 0.1555554 0.375
vt 0.1555554 0.5000001
vt 0.1555554 0.6250001
vt 0.1555554 0.7500001
vt 0.1555554 0.8750001
vt 0.1555554 1
vt 0.1777776 0
vt 0.1777776 0.125
vt 0.1777776 0.25
vt 0.1777776 0.375
vt 0.1777776 0.5000001
vt 0.1777776 0.6250001
vt 0.1777776 0.7500001
vt 0.1777776 0.8750001
vt 0.1777776 1
vt 0.1999998 0
vt 0.1999998 0.125
vt 0.1999998 0.25
vt 0.1999998 0.375
vt 0.1999998 0.5000001
vt 0.1999998 0.6250001
vt 0.1999998 0.7500001
vt 0.1999998 0.8750001
vt 0.1999998 1
vt 0.222222 0
vt 0.222222 0.125
vt 0.222222 0.25
vt 0.222222 0.375
vt 0.222222 0.5000001
vt 0.222222 0.6250001
vt 0.222222 0.7500001
vt 0.222222 0.8750001
vt 0.222222 1
vt 0.2444442 0
vt 0.2444442 0.125
vt 0.2444442 0.25
vt 0.2444442 0.375
vt 0.2444442 0.5000001
vt 0.2444442 0.6250001
vt 0.2444442 0.7500001
vt 0.2444442 0.8750001
vt 0.2444442 1
vt 0.2666664 0
vt 0.2666664 0.125
vt 0.2666664 0.25
vt 0.2666664 0.375
vt 0.2666664 0.5000001
vt 0.2666664 0.6250001
vt 0.2666664 0.7500001
vt 0.2666664 0.8750001
vt 0.2666664 1
vt 0.2888886 0
vt 0.2888886 0.125
vt 0.2888886 0.25
vt 0.2888886 0.375
vt 0.2888886 0.5000001
vt 0.2888886 0.6250001
vt 0.2888886 0.7500001
vt 0.2888886 0.8750001
vt 0.2888886 1
vt 0.3111108 0
vt 0.3111108 0.125
vt 0.3111108 0.25
vt 0.3111108 0.375
vt 0.3111108 0.5000001
vt 0.3111108 0.6250001
vt 0.3111108 0.7500001
vt 0.3111108 0.8750001
vt 0.3111108 1
vt 0.333333 0
vt 0.333333 0.125
vt 0.333333 0.25
vt 0.333333 0.375
vt 0.333333 0.5000001
vt 0.333333 0.6250001
vt 0.333333 0.7500001
vt 0.333333 0.8750001
vt 0.333333 1
vt 0.3555552 0
vt 0.3555552 0.125
vt 0.3555552 0.25
vt 0.3555552 0.375
vt 0.3555552 0.5000001
vt 0.3555552 0.6250001
vt 0.3555552 0.7500001
vt 0.3555552 0.8750001
vt 0.3555552 1
vt 0.3777774 0
vt 0.3777774 0.125
vt 0.3777774 0.25
vt 0.3777774 0.375
vt 0.3777774 0.5000001
vt 0.3777774 0.6250001
vt 0.3777774 0.7500001
vt 0.3777774 0.8750001
vt 0.3777774 1
vt 0.3999996 0
vt 0.3999996 0.125
vt 0.3999996 0.25
vt 0.3999996 0.375
vt 0.3999996 0.5000001
vt 0.3999996 0.6250001
vt 0.3999996 0.7500001
vt 0.3999996 0.8750001
vt 0.3999996 1
vt 0.4222218 0
vt 0.4222218 0.125
vt 0.4222218 0.25
vt 0.4222218 0.375
vt 0.4222218 0.5000001
vt 0.4222218 0.6250001
vt 0.4222218 0.7500001
vt 0.4222218 0.8750001
vt 0.4222218 1
vt 0.444444 0
vt 0.444444 0.125
vt 0.444444 0.25
vt 0.444444 0.375
vt 0.444444 0.5000001
vt 0.444444 0.6250001
vt 0.444444 0.7500001
vt 0.444444 0.8750001
vt 0.444444 1
vt 0.4666662 0
vt 0.4666662 0.125
vt 0.4666662 0.25
vt 0.4666662 0.375
vt 0.4666662 0.5000001
vt 0.4666662 0.6250001
vt 0.4666662 0.7500001
vt 0.4666662 0.8750001
vt 0.4666662 1
vt 0.4888884 0
vt 0.4888884 0.125
vt 0.4888884 0.25
vt 0.4888884 0.375
vt 0.4888884 0.5000001
vt 0.4888884 0.6250001
vt 0.4888884 0.7500001
vt 0.4888884 0.8750001
vt 0.4888884 1
vt 0.5111106 0
vt 0.5111106 0.125
vt 0.5111106 0.25
vt 0.5111106 0.375
vt 0.5111106 0.5000001
vt 0.5111106 0.6250001
vt 0.5111106 0.7500001
vt 0.5111106 0.8750001
vt 0.5111106 1
vt 0.5333328 0
vt 0.5333328 0.125
vt 0.5333328 0.25
vt 0.5333328 0.375
vt 0.5333328 0.5000001
vt 0.5333328 0.6250001
vt 0.5333328 0.7500001
vt 0.5333328 0.8750001
vt 0.5333328 1
vt 0.555555 0
vt 0.555555 0.125
vt 0.555555 0.25
vt 0.555555 0.375
vt 0.555555 0.5000001
vt 0.555555 0.6250001
vt 0.555555 0.7500001
vt 0.555555 0.8750001
vt 0.555555 1
vt 0.5777772 0
vt 0.5777772 0.125
vt 0.5777772 0.25
vt 0.5777772 0.375
vt 0.5777772 0.5000001
vt 0.5777772 0.6250001
vt 0.5777772 0.7500001
vt 0.5777772 0.8750001
vt 0.5777772 1
vt 0.5999994 0
vt 0.5999994 0.125
vt 0.5999994 0.25
vt 0.5999994 0.375
vt 0.5999994 0.5000001
vt 0.5999994 0.6250001
vt 0.5999994 0.7500001
vt 0.5999994 0.8750001
vt 0.5999994 1
vt 0.6222216 0
vt 0.6222216 0.125
vt 0.6222216 0.25
vt 0.6222216 0.375
vt 0.6222216 0.5000001
vt 0.6222216 0.6250001
vt 0.6222216 0.7500001
vt 0.6222216 0.8750001
vt 0.6222216 1
vt 0.6444438 0
vt 0.6444438 0.125
vt 0.6444438 0.25
vt 0.6444438 0.375
vt 0.6444438 0.5000001
vt 0.6444438 0.6250001
vt 0.6444438 0.7500001
vt 0.6444438 0.8750001
vt 0.6444438 1
vt 0.666666 0
vt 0.666666 0.125
vt 0.666666 0.25
vt 0.666666 0.375
vt 0.666666 0.5000001
vt 0.666666 0.6250001
vt 0.666666 0.7500001
vt 0.666666 0.8750001
vt 0.666666 1
vt 0.6888882 0
vt 0.6888882 0.125
vt 0.6888882 0.25
vt 0.6888882 0.375
vt 0.6888882 0.5000001
vt 0.6888882 0.6250001
vt 0.6888882 0.7500001
vt 0.6888882 0.8750001
vt 0.6888882 1
vt 0.7111104 0
vt 0.7111104 0.125
vt 0.7111104 0.25
vt 0.7111104 0.375
vt 0.7111104 0.5000001
vt 0.7111104 0.6250001
vt 0.7111104 0.7500001
vt 0.7111104 0.8750001
vt 0.7111104 1
vt 0.7333326 0
vt 0.7333326 0.125
vt 0.7333326 0.25
vt 0.7333326 0.375
vt 0.7333326 0.5000001
vt 0.7333326 0.6250001
vt 0.7333326 0.7500001
vt 0.7333326 0.8750001
vt 0.7333326 1
vt 0.7555548 0
vt 0.7555548 0.125
vt 0.7555548 0.25
vt 0.7555548 0.375
vt 0.7555548 0.5000001
vt 0.7555548 0.6250001
vt 0.7555548 0.7500001
vt 0.7555548 0.8750001
vt 0.7555548 1
vt 0.777777 0
vt 0.777777 0.125
vt 0.777777 0.25
vt 0.777777 0.375
vt 0.777777 0.5000001
vt 0.777777 0.6250001
vt 0.777777 0.7500001
vt 0.777777 0.8750001
vt 0.777777 1
vt 0.7999992 0
vt 0.7999992 0.125
vt 0.7999992 0.25
vt 0.7999992 0.375
vt 0.7999992 0.5000001
vt 0.7999992 0.6250001
vt 0.7999992 0.7500001
vt 0.7999992 0.8750001
vt 0.7999992 1
vt 0.8222214 0
vt 0.8222214 0.125
vt 0.8222214 0.25
vt 0.8222214 0.375
vt 0.8222214 0.5000001
vt 0.8222214 0.6250001
vt 0.8222214 0.7500001
vt 0.8222214 0.8750001
vt 0.8222214 1
vt 0.8444436 0
vt 0.8444436 0.125
vt 0.8444436 0.25
vt 0.8444436 0.375
vt 0.8444436 0.5000001
vt 0.8444436 0.6250001
vt 0.8444436 0.7500001
vt 0.8444436 0.8750001
vt 0.8444436 1
vt 0.8666658 0
vt 0.8666658 0.125
vt 0.8666658 0.25
vt 0.8666658 0.375
vt 0.8666658 0.5000001
vt 0.8666658 0.6250001
vt 0.8666658 0.7500001
vt 0.8666658 0.8750001
vt 0.8666658 1
vt 0.888888 0
vt 0.888888 0.125
vt 0.888888 0.25
vt 0.888888 0.375
vt 0.888888 0.5000001
vt 0.888888 0.6250001
vt 0.888888 0.7500001
vt 0.888888 0.8750001
vt 0.888888 1
vt 0.9111102 0
vt 0.9111102 0.125
vt 0.9111102 0.25
vt 0.9111102 0.375
vt 0.9111102 0.5000001
vt 0.9111102 0.6250001
vt 0.9111102 0.7500001
vt 0.9111102 0.8750001
vt 0.9111102 1
vt 0.9333324 0
vt 0.9333324 0.125
vt 0.9333324 0.25
vt 0.9333324 0.375
vt 0.9333324 0.5000001
vt 0.9333324 0.6250001
vt 0.9333324 0.7500001
vt 0.9333324 0.8750001
vt 0.9333324 1
vt 0.9555546 0
vt 0.9555546 0.125
vt 0.9555546 0.25
vt 0.9555546 0.375
vt 0.9555546 0.5000001
vt 0.9555546 0.6250001
vt 0.9555546 0.7500001
vt 0.9555546 0.8750001
vt 0.9555546 1
vt 0.9777768 0
vt 0.9777768 0.125
vt 0.9777768 0.25
vt 0.9777768 0.375
vt 0.9777768 0.5000001
vt 0.9777768 0.6250001
vt 0.9777768 0.7500001
vt 0.9777768 0.8750001
vt 0.9777768 1
vt 0.999999 0
vt 0.999999 0.125
vt 0.999999 0.25
vt 0.999999 0.375
vt 0.999999 0.5000001
vt 0.999999 0.6250001
vt 0.999999 0.7500001
vt 0.999999 0.8750001
vt 0.999999 1
vt 0 0
vt 0 0
vt 0 0
vt 0 0
vt 0 0
vt 0 0
vt 0 0
vt 0 0
vt 0 0
vt 0 0
vt 0 0
vt 0 0
vt 0 0
vt 0 0
vt 0 0
vt 0 0
vt 0 0
vt 0 0
vt 0 0
vt 0 0
vt 0 0
vt 0 0
vt 0 0
vt 0 0
vt 0 0
vt 0 0
vt 0 0
vt 0 0
vt 0 0
vt 0 0
vt 0 0
vt 0 0
vt 0 0
vt 0 0
vt 0 0
vt 0 0
vt 0 0
vt 0 0
vt 0 0
vt 0 0
vt 0 0
vt 0 0
vt 0 0
vt 0 0
vt 0 0
vt 0 0
vt 0 0
vt 0 0

usemtl TransparentPlastic
usemap TransparentPlastic
f 2/2/2 1/1/1 461/461/461
f 3/3/3 2/2/2 461/461/461
f 4/4/4 3/3/3 461/461/461
f 5/5/5 4/4/4 461/461/461
f 6/6/6 5/5/5 461/461/461
f 7/7/7 6/6/6 461/461/461
f 8/8/8 7/7/7 461/461/461
f 9/9/9 8/8/8 461/461/461
f 1/1/1 2/2/2 11/11/11
f 1/1/1 11/11/11 10/10/10
f 2/2/2 3/3/3 12/12/12
f 2/2/2 12/12/12 11/11/11
f 3/3/3 4/4/4 13/13/13
f 3/3/3 13/13/13 12/12/12
f 4/4/4 5/5/5 14/14/14
f 4/4/4 14/14/14 13/13/13
f 5/5/5 6/6/6 15/15/15
f 5/5/5 15/15/15 14/14/14
f 6/6/6 7/7/7 16/16/16
f 6/6/6 16/16/16 15/15/15
f 7/7/7 8/8/8 17/17/17
f 7/7/7 17/17/17 16/16/16
f 8/8/8 9/9/9 18/18/18
f 8/8/8 18/18/18 17/17/17
f 10/10/10 11/11/11 20/20/20
f 10/10/10 20/20/20 19/19/19
f 11/11/11 12/12/12 21/21/21
f 11/11/11 21/21/21 20/20/20
f 12/12/12 13/13/13 22/22/22
f 12/12/12 22/22/22 21/21/21
f 13/13/13 14/14/14 23/23/23
f 13/13/13 23/23/23 22/22/22
f 14/14/14 15/15/15 24/24/24
f 14/14/14 24/24/24 23/23/23
f 15/15/15 16/16/16 25/25/25
f 15/15/15 25/25/25 24/24/24
f 16/16/16 17/17/17 26/26/26
f 16/16/16 26/26/26 25/25/25
f 17/17/17 18/18/18 27/27/27
f 17/17/17 27/27/27 26/26/26
f 19/19/19 20/20/20 29/29/29
f 19/19/19 29/29/29 28/28/28
f 20/20/20 21/21/21 30/30/30
f 20/20/20 30/30/30 29/29/29
f 21/21/21 22/22/22 31/31/31
f 21/21/21 31/31/31 30/30/30
f 22/22/22 23/23/23 32/32/32
f 22/22/22 32/32/32 31/31/31
f 23/23/23 24/24/24 33/33/33
f 23/23/23 33/33/33 32/32/32
f 24/24/24 25/25/25 34/34/34
f 24/24/24 34/34/34 33/33/33
f 25/25/25 26/26/26 35/35/35
f 25/25/25 35/35/35 34/34/34
f 26/26/26 27/27/27 36/36/36
f 26/26/26 36/36/36 35/35/35
f 28/28/28 29/29/29 38/38/38
f 28/28/28 38/38/38 37/37/37
f 29/29/29 30/30/30 39/39/39
f 29/29/29 39/39/39 38/38/38
f 30/30/30 31/31/31 40/40/40
f 30/30/30 40/40/40 39/39/39
f 31/31/31 32/32/32 41/41/41
f 31/31/31 41/41/41 40/40/40
f 32/32/32 33/33/33 42/42/42
f 32/32/32 42/42/42 41/41/41
f 33/33/33 34/34/34 43/43/43
f 33/33/33 43/43/43 42/42/42
f 34/34/34 35/35/35 44/44/44
f 34/34/34 44/44/44 43/43/43
f 35/35/35 36/36/36 45/45/45
f 35/35/35 45/45/45 44/44/44
f 37/37/37 38/38/38 47/47/47
f 37/37/37 47/47/47 46/46/46
f 38/38/38 39/39/39 48/48/48
f 38/38/38 48/48/48 47/47/47
f 39/39/39 40/40/40 49/49/49
f 39/39/39 49/49/49 48/48/48
f 40/40/40 41/41/41 50/50/50
f 40/40/40 50/50/50 49/49/49
f 41/41/41 42/42/42 51/51/51
f 41/41/41 51/51/51 50/50/50
f 42/42/42 43/43/43 52/52/52
f 42/42/42 52/52/52 51/51/51
f 43/43/43 44/44/44 53/53/53
f 43/43/43 53/53/53 52/52/52
f 44/44/44 45/45/45 54/54/54
f 44/44/44 54/54/54 53/53/53
f 46/46/46 47/47/47 56/56/56
f 46/46/46 56/56/56 55/55/55
f 47/47/47 48/48/48 57/57/57
f 47/47/47 57/57/57 56/56/56
f 48/48/48 49/49/49 58/58/58
f 48/48/48 58/58/58 57/57/57
f 49/49/49 50/50/50 59/59/59
f 49/49/49 59/59/59 58/58/58
f 50/50/50 51/51/51 60/60/60
f 50/50/50 60/60/60 59/59/59
f 51/51/51 52/52/52 61/61/61
f 51/51/51 61/61/61 60/60/60
f 52/52/52 53/53/53 62/62/62
f 52/52/52 62/62/62 61/61/61
f 53/53/53 54/54/54 63/63/63
f 53/53/53 63/63/63 62/62/62
f 55/55/55 56/56/56 65/65/65
f 55/55/55 65/65/65 64/64/64
f 56/56/56 57/57/57 66/66/66
f 56/56/56 66/66/66 65/65/65
f 57/57/57 58/58/58 67/67/67
f 57/57/57 67/67/67 66/66/66
f 58/58/58 59/59/59 68/68/68
f 58/58/58 68/68/68 67/67/67
f 59/59/59 60/60/60 69/69/69
f 59/59/59 69/69/69 68/68/68
f 60/60/60 61/61/61 70/70/70
f 60/60/60 70/70/70 69/69/69
f 61/61/61 62/62/62 71/71/71
f 61/61/61 71/71/71 70/70/70
f 62/62/62 63/63/63 72/72/72
f 62/62/62 72/72/72 71/71/71
f 64/64/64 65/65/65 74/74/74
f 64/64/64 74/74/74 73/73/73
f 65/65/65 66/66/66 75/75/75
f 65/65/65 75/75/75 74/74/74
f 66/66/66 67/67/67 76/76/76
f 66/66/66 76/76/76 75/75/75
f 67/67/67 68/68/68 77/77/77
f 67/67/67 77/77/77 76/76/76
f 68/68/68 69/69/69 78/78/78
f 68/68/68 78/78/78 77/77/77
f 69/69/69 70/70/70 79/79/79
f 69/69/69 79/79/79 78/78/78
f 70/70/70 71/71/71 80/80/80
f 70/70/70 80/80/80 79/79/79
f 71/71/71 72/72/72 81/81/81
f 71/71/71 81/81/81 80/80/80
f 73/73/73 74/74/74 83/83/83
f 73/73/73 83/83/83 82/82/82
f 74/74/74 75/75/75 84/84/84
f 74/74/74 84/84/84 83/83/83
f 75/75/75 76/76/76 85/85/85
f 75/75/75 85/85/85 84/84/84
f 76/76/76 77/77/77 86/86/86
f 76/76/76 86/86/86 85/85/85
f 77/77/77 78/78/78 87/87/87
f 77/77/77 87/87/87 86/86/86
f 78/78/78 79/79/79 88/88/88
f 78/78/78 88/88/88 87/87/87
f 79/79/79 80/80/80 89/89/89
f 79/79/79 89/89/89 88/88/88
f 80/80/80 81/81/81 90/90/90
f 80/80/80 90/90/90 89/89/89
f 82/82/82 83/83/83 92/92/92
f 82/82/82 92/92/92 91/91/91
f 83/83/83 84/84/84 93/93/93
f 83/83/83 93/93/93 92/92/92
f 84/84/84 85/85/85 94/94/94
f 84/84/84 94/94/94 93/93/93
f 85/85/85 86/86/86 95/95/95
f 85/85/85 95/95/95 94/94/94
f 86/86/86 87/87/87 96/96/96
f 86/86/86 96/96/96 95/95/95
f 87/87/87 88/88/88 97/97/97
f 87/87/87 97/97/97 96/96/96
f 88/88/88 89/89/89 98/98/98
f 88/88/88 98/98/98 97/97/97
f 89/89/89 90/90/90 99/99/99
f 89/89/89 99/99/99 98/98/98
f 91/91/91 92/92/92 101/101/101
f 91/91/91 101/101/101 100/100/100
f 92/92/92 93/93/93 102/102/102
f 92/92/92 102/102/102 101/101/101
f 93/93/93 94/94/94 103/103/103
f 93/93/93 103/103/103 102/102/102
f 94/94/94 95/95/95 104/104/104
f 94/94/94 104/104/104 103/103/103
f 95/95/95 96/96/96 105/105/105
f 95/95/95 105/105/105 104/104/104
f 96/96/96 97/97/97 106/106/106
f 96/96/96 106/106/106 105/105/105
f 97/97/97 98/98/98 107/107/107
f 97/97/97 107/107/107 106/106/106
f 98/98/98 99/99/99 108/108/108
f 98/98/98 108/108/108 107/107/107
f 100/100/100 101/101/101 110/110/110
f 100/100/100 110/110/110 109/109/109
f 101/101/101 102/102/102 111/111/111
f 101/101/101 111/111/111 110/110/110
f 102/102/102 103/103/103 112/112/112
f 102/102/102 112/112/112 111/111/111
f 103/103/103 104/104/104 113/113/113
f 103/103/103 113/113/113 112/112/112
f 104/104/104 105/105/105 114/114/114
f 104/104/104 114/114/114 113/113/113
f 105/105/105 106/106/106 115/115/115
f 105/105/105 115/115/115 114/114/114
f 106/106/106 107/107/107 116/116/116
f 106/106/106 116/116/116 115/115/115
f 107/107/107 108/108/108 117/117/117
f 107/107/107 117/117/117 116/116/116
f 109/109/109 110/110/110 119/119/119
f 109/109/109 119/119/119 118/118/118
f 110/110/110 111/111/111 120/120/120
f 110/110/110 120/120/120 119/119/119
f 111/111/111 112/112/112 121/121/121
f 111/111/111 121/121/121 120/120/120
f 112/112/112 113/113/113 122/122/122
f 112/112/112 122/122/122 121/121/121
f 113/113/113 114/114/114 123/123/123
f 113/113/113 123/123/123 122/122/122
f 114/114/114 115/115/115 124/124/124
f 114/114/114 124/124/124 123/123/123
f 115/115/115 116/116/116 125/125/125
f 115/115/115 125/125/125 124/124/124
f 116/116/116 117/117/117 126/126/126
f 116/116/116 126/126/126 125/125/125
f 118/118/118 119/119/119 128/128/128
f 118/118/118 128/128/128 127/127/127
f 119/119/119 120/120/120 129/129/129
f 119/119/119 129/129/129 128/128/128
f 120/120/120 121/121/121 130/130/130
f 120/120/120 130/130/130 129/129/129
f 121/121/121 122/122/122 131/131/131
f 121/121/121 131/131/131 130/130/130
f 122/122/122 123/123/123 132/132/132
f 122/122/122 132/132/132 131/131/131
f 123/123/123 124/124/124 133/133/133
f 123/123/123 133/133/133 132/132/132
f 124/124/124 125/125/125 134/134/134
f 124/124/124 134/134/134 133/133/133
f 125/125/125 126/126/126 135/135/135
f 125/125/125 135/135/135 134/134/134
f 127/127/127 128/128/128 137/137/137
f 127/127/127 137/137/137 136/136/136
f 128/128/128 129/129/129 138/138/138
f 128/128/128 138/138/138 137/137/137
f 129/129/129 130/130/130 139/139/139
f 129/129/129 139/139/139 138/138/138
f 130/130/130 131/131/131 140/140/140
f 130/130/130 140/140/140 139/139/139
f 131/131/131 132/132/132 141/141/141
f 131/131/131 141/141/141 140/140/140
f 132/132/132 133/133/133 142/142/142
f 132/132/132 142/142/142 141/141/141
f 133/133/133 134/134/134 143/143/143
f 133/133/133 143/143/143 142/142/142
f 134/134/134 135/135/135 144/144/144
f 134/134/134 144/144/144 143/143/143
f 136/136/136 137/137/137 146/146/146
f 136/136/136 146/146/146 145/145/145
f 137/137/137 138/138/138 147/147/147
f 137/137/137 147/147/147 146/146/146
f 138/138/138 139/139/139 148/148/148
f 138/138/138 148/148/148 147/147/147
f 139/139/139 140/140/140 149/149/149
f 139/139/139 149/149/149 148/148/148
f 140/140/140 141/141/141 150/150/150
f 140/140/140 150/150/150 149/149/149
f 141/141/141 142/142/142 151/151/151
f 141/141/141 151/151/151 150/150/150
f 142/142/142 143/143/143 152/152/152
f 142/142/142 152/152/152 151/151/151
f 143/143/143 144/144/144 153/153/153
f 143/143/143 153/153/153 152/152/152
f 145/145/145 146/146/146 155/155/155
f 145/145/145 155/155/155 154/154/154
f 146/146/146 147/147/147 156/156/156
f 146/146/146 156/156/156 155/155/155
f 147/147/147 148/148/148 157/157/157
f 147/147/147 157/157/157 156/156/156
f 148/148/148 149/149/149 158/158/158
f 148/148/148 158/158/158 157/157/157
f 149/149/149 150/150/150 159/159/159
f 149/149/149 159/159/159 158/158/158
f 150/150/150 151/151/151 160/160/160
f 150/150/150 160/160/160 159/159/159
f 151/151/151 152/152/152 161/161/161
f 151/151/151 161/161/161 160/160/160
f 152/152/152 153/153/153 162/162/162
f 152/152/152 162/162/162 161/161/161
f 154/154/154 155/155/155 164/164/164
f 154/154/154 164/164/164 163/163/163
f 155/155/155 156/156/156 165/165/165
f 155/155/155 165/165/165 164/164/164
f 156/156/156 157/157/157 166/166/166
f 156/156/156 166/166/166 165/165/165
f 157/157/157 158/158/158 167/167/167
f 157/157/157 167/167/167 166/166/166
f 158/158/158 159/159/159 168/168/168
f 158/158/158 168/168/168 167/167/167
f 159/159/159 160/160/160 169/169/169
f 159/159/159 169/169/169 168/168/168
f 160/160/160 161/161/161 170/170/170
f 160/160/160 170/170/170 169/169/169
f 161/161/161 162/162/162 171/171/171
f 161/161/161 171/171/171 170/170/170
f 163/163/163 164/164/164 173/173/173
f 163/163/163 173/173/173 172/172/172
f 164/164/164 165/165/165 174/174/174
f 164/164/164 174/174/174 173/173/173
f 165/165/165 166/166/166 175/175/175
f 165/165/165 175/175/175 174/174/174
f 166/166/166 167/167/167 176/176/176
f 166/166/166 176/176/176 175/175/175
f 167/167/167 168/168/168 177/177/177
f 167/167/167 177/177/177 176/176/176
f 168/168/168 169/169/169 178/178/178
f 168/168/168 178/178/178 177/177/177
f 169/169/169 170/170/170 179/179/179
f 169/169/169 179/179/179 178/178/178
f 170/170/170 171/171/171 180/180/180
f 170/170/170 180/180/180 179/179/179
f 172/172/172 173/173/173 182/182/182
f 172/172/172 182/182/182 181/181/181
f 173/173/173 174/174/174 183/183/183
f 173/173/173 183/183/183 182/182/182
f 174/174/174 175/175/175 184/184/184
f 174/174/174 184/184/184 183/183/183
f 175/175/175 176/176/176 185/185/185
f 175/175/175 185/185/185 184/184/184
f 176/176/176 177/177/177 186/186/186
f 176/176/176 186/186/186 185/185/185
f 177/177/177 178/178/178 187/187/187
f 177/177/177 187/187/187 186/186/186
f 178/178/178 179/179/179 188/188/188
f 178/178/178 188/188/188 187/187/187
f 179/179/179 180/180/180 189/189/189
f 179/179/179 189/189/189 188/188/188
f 181/181/181 182/182/182 191/191/191
f 181/181/181 191/191/191 190/190/190
f 182/182/182 183/183/183 192/192/192
f 182/182/182 192/192/192 191/191/191
f 183/183/183 184/184/184 193/193/193
f 183/183/183 193/193/193 192/192/192
f 184/184/184 185/185/185 194/194/194
f 184/184/184 194/194/194 193/193/193
f 185/185/185 186/186/186 195/195/195
f 185/185/185 195/195/195 194/194/194
f 186/186/186 187/187/187 196/196/196
f 186/186/186 196/196/196 195/195/195
f 187/187/187 188/188/188 197/197/197
f 187/187/187 197/197/197 196/196/196
f 188/188/188 189/189/189 198/198/198
f 188/188/188 198/198/198 197/197/197
f 190/190/190 191/191/191 200/200/200
f 190/190/190 200/200/200 199/199/199
f 191/191/191 192/192/192 201/201/201
f 191/191/191 201/201/201 200/200/200
f 192/192/192 193/193/193 202/202/202
f 192/192/192 202/202/202 201/201/201
f 193/193/193 194/194/194 203/203/203
f 193/193/193 203/203/203 202/202/202
f 194/194/194 195/195/195 204/204/204
f 194/194/194 204/204/204 203/203/203
f 195/195/195 196/196/196 205/205/205
f 195/195/195 205/205/205 204/204/204
f 196/196/196 197/197/197 206/206/206
f 196/196/196 206/206/206 205/205/205
f 197/197/197 198/198/198 207/207/207
f 197/197/197 207/207/207 206/206/206
f 199/199/199 200/200/200 209/209/209
f 199/199/199 209/209/209 208/208/208
f 200/200/200 201/201/201 210/210/210
f 200/200/200 210/210/210 209/209/209
f 201/201/201 202/202/202 211/211/211
f 201/201/201 211/211/211 210/210/210
f 202/202/202 203/203/203 212/212/212
f 202/202/202 212/212/212 211/211/211
f 203/203/203 204/204/204 213/213/213
f 203/203/203 213/213/213 212/212/212
f 204/204/204 205/205/205 214/214/214
f 204/204/204 214/214/214 213/213/213
f 205/205/205 206/206/206 215/215/215
f 205/205/205 215/215/215 214/214/214
f 206/206/206 207/207/207 216/216/216
f 206/206/206 216/216/216 215/215/215
f 208/208/208 209/209/209 218/218/218
f 208/208/208 218/218/218 217/217/217
f 209/209/209 210/210/210 219/219/219
f 209/209/209 219/219/219 218/218/218
f 210/210/210 211/211/211 220/220/220
f 210/210/210 220/220/220 219/219/219
f 211/211/211 212/212/212 221/221/221
f 211/211/211 221/221/221 220/220/220
f 212/212/212 213/213/213 222/222/222
f 212/212/212 222/222/222 221/221/221
f 213/213/213 214/214/214 223/223/223
f 213/213/213 223/223/223 222/222/222
f 214/214/214 215/215/215 224/224/224
f 214/214/214 224/224/224 223/223/223
f 215/215/215 216/216/216 225/225/225
f 215/215/215 225/225/225 224/224/224
f 217/217/217 218/218/218 227/227/227
f 217/217/217 227/227/227 226/226/226
f 218/218/218 219/219/219 228/228/228
f 218/218/218 228/228/228 227/227/227
f 219/219/219 220/220/220 229/229/229
f 219/219/219 229/229/229 228/228/228
f 220/220/220 221/221/221 230/230/230
f 220/220/220 230/230/230 229/229/229
f 221/221/221 222/222/222 231/231/231
f 221/221/221 231/231/231 230/230/230
f 222/222/222 223/223/223 232/232/232
f 222/222/222 232/232/232 231/231/231
f 223/223/223 224/224/224 233/233/233
f 223/223/223 233/233/233 232/232/232
f 224/224/224 225/225/225 234/234/234
f 224/224/224 234/234/234 233/233/233
f 226/226/226 227/227/227 236/236/236
f 226/226/226 236/236/236 235/235/235
f 227/227/227 228/228/228 237/237/237
f 227/227/227 237/237/237 236/236/236
f 228/228/228 229/229/229 238/238/238
f 228/228/228 238/238/238 237/237/237
f 229/229/229 230/230/230 239/239/239
f 229/229/229 239/239/239 238/238/238
f 230/230/230 231/231/231 240/240/240
f 230/230/230 240/240/240 239/239/239
f 231/231/231 232/232/232 241/241/241
f 231/231/231 241/241/241 240/240/240
f 232/232/232 233/233/233 242/242/242
f 232/232/232 242/242/242 241/241/241
f 233/233/233 234/234/234 243/243/243
f 233/233/233 243/243/243 242/242/242
f 235/235/235 236/236/236 245/245/245
f 235/235/235 245/245/245 244/244/244
f 236/236/236 237/237/237 246/246/246
f 236/236/236 246/246/246 245/245/245
f 237/237/237 238/238/238 247/247/247
f 237/237/237 247/247/247 246/246/246
f 238/238/238 239/239/239 248/248/248
f 238/238/238 248/248/248 247/247/247
f 239/239/239 240/240/240 249/249/249
f 239/239/239 249/249/249 248/248/248
f 240/240/240 241/241/241 250/250/250
f 240/240/240 250/250/250 249/249/249
f 241/241/241 242/242/242 251/251/251
f 241/241/241 251/251/251 250/250/250
f 242/242/242 243/243/243 252/252/252
f 242/242/242 252/252/252 251/251/251
f 244/244/244 245/245/245 254/254/254
f 244/244/244 254/254/254 253/253/253
f 245/245/245 246/246/246 255/255/255
f 245/245/245 255/255/255 254/254/254
f 246/246/246 247/247/247 256/256/256
f 246/246/246 256/256/256 255/255/255
f 247/247/247 248/248/248 257/257/257
f 247/247/247 257/257/257 256/256/256
f 248/248/248 249/249/249 258/258/258
f 248/248/248 258/258/258 257/257/257
f 249/249/249 250/250/250 259/259/259
f 249/249/249 259/259/259 258/258/258
f 250/250/250 251/251/251 260/260/260
f 250/250/250 260/260/260 259/259/259
f 251/251/251 252/252/252 261/261/261
f 251/251/251 261/261/261 260/260/260
f 253/253/253 254/254/254 263/263/263
f 253/253/253 263/263/263 262/262/262
f 254/254/254 255/255/255 264/264/264
f 254/254/254 264/264/264 263/263/263
f 255/255/255 256/256/256 265/265/265
f 255/255/255 265/265/265 264/264/264
f 256/256/256 257/257/257 266/266/266
f 256/256/256 266/266/266 265/265/265
f 257/257/257 258/258/258 267/267/267
f 257/257/257 267/267/267 266/266/266
f 258/258/258 259/259/259 268/268/268
f 258/258/258 268/268/268 267/267/267
f 259/259/259 260/260/260 269/269/269
f 259/259/259 269/269/269 268/268/268
f 260/260/260 261/261/261 270/270/270
f 260/260/260 270/270/270 269/269/269
f 262/262/262 263/263/263 272/272/272
f 262/262/262 272/272/272 271/271/271
f 263/263/263 264/264/264 273/273/273
f 263/263/263 273/273/273 272/272/272
f 264/264/264 265/265/265 274/274/274
f 264/264/264 274/274/274 273/273/273
f 265/265/265 266/266/266 275/275/275
f 265/265/265 275/275/275 274/274/274
f 266/266/266 267/267/267 276/276/276
f 266/266/266 276/276/276 275/275/275
f 267/267/267 268/268/268 277/277/277
f 267/267/267 277/277/277 276/276/276
f 268/268/268 269/269/269 278/278/278
f 268/268/268 278/278/278 277/277/277
f 269/269/269 270/270/270 279/279/279
f 269/269/269 279/279/279 278/278/278
f 271/271/271 272/272/272 281/281/281
f 271/271/271 281/281/281 280/280/280
f 272/272/272 273/273/273 282/282/282
f 272/272/272 282/282/282 281/281/281
f 273/273/273 274/274/274 283/283/283
f 273/273/273 283/283/283 282/282/282
f 274/274/274 275/275/275 284/284/284
f 274/274/274 284/284/284 283/283/283
f 275/275/275 276/276/276 285/285/285
f 275/275/275 285/285/285 284/284/284
f 276/276/276 277/277/277 286/286/286
f 276/276/276 286/286/286 285/285/285
f 277/277/277 278/278/278 287/287/287
f 277/277/277 287/287/287 286/286/286
f 278/278/278 279/279/279 288/288/288
f 278/278/278 288/288/288 287/287/287
f 280/280/280 281/281/281 290/290/290
f 280/280/280 290/290/290 289/289/289
f 281/281/281 282/282/282 291/291/291
f 281/281/281 291/291/291 290/290/290
f 282/282/282 283/283/283 292/292/292
f 282/282/282 292/292/292 291/291/291
f 283/283/283 284/284/284 293/293/293
f 283/283/283 293/293/293 292/292/292
f 284/284/284 285/285/285 294/294/294
f 284/284/284 294/294/294 293/293/293
f 285/285/285 286/286/286 295/295/295
f 285/285/285 295/295/295 294/294/294
f 286/286/286 287/287/287 296/296/296
f 286/286/286 296/296/296 295/295/295
f 287/287/287 288/288/288 297/297/297
f 287/287/287 297/297/297 296/296/296
f 289/289/289 290/290/290 299/299/299
f 289/289/289 299/299/299 298/298/298
f 290/290/290 291/291/291 300/300/300
f 290/290/290 300/300/300 299/299/299
f 291/291/291 292/292/292 301/301/301
f 291/291/291 301/301/301 300/300/300
f 292/292/292 293/293/293 302/302/302
f 292/292/292 302/302/302 301/301/301
f 293/293/293 294/294/294 303/303/303
f 293/293/293 303/303/303 302/302/302
f 294/294/294 295/295/295 304/304/304
f 294/294/294 304/304/304 303/303/303
f 295/295/295 296/296/296 305/305/305
f 295/295/295 305/305/305 304/304/304
f 296/296/296 297/297/297 306/306/306
f 296/296/296 306/306/306 305/305/305
f 298/298/298 299/299/299 308/308/308
f 298/298/298 308/308/308 307/307/307
f 299/299/299 300/300/300 309/309/309
f 299/299/299 309/309/309 308/308/308
f 300/300/300 301/301/301 310/310/310
f 300/300/300 310/310/310 309/309/309
f 301/301/301 302/302/302 311/311/311
f 301/301/301 311/311/311 310/310/310
f 302/302/302 303/303/303 312/312/312
f 302/302/302 312/312/312 311/311/311
f 303/303/303 304/304/304 313/313/313
f 303/303/303 313/313/313 312/312/312
f 304/304/304 305/305/305 314/314/314
f 304/304/304 314/314/314 313/313/313
f 305/305/305 306/306/306 315/315/315
f 305/305/305 315/315/315 314/314/314
f 307/307/307 308/308/308 317/317/317
f 307/307/307 317/317/317 316/316/316
f 308/308/308 309/309/309 318/318/318
f 308/308/308 318/318/318 317/317/317
f 309/309/309 310/310/310 319/319/319
f 309/309/309 319/319/319 318/318/318
f 310/310/310 311/311/311 320/320/320
f 310/310/310 320/320/320 319/319/319
f 311/311/311 312/312/312 321/321/321
f 311/311/311 321/321/321 320/320/320
f 312/312/312 313/313/313 322/322/322
f 312/312/312 322/322/322 321/321/321
f 313/313/313 314/314/314 323/323/323
f 313/313/313 323/323/323 322/322/322
f 314/314/314 315/315/315 324/324/324
f 314/314/314 324/324/324 323/323/323
f 316/316/316 317/317/317 326/326/326
f 316/316/316 326/326/326 325/325/325
f 317/317/317 318/318/318 327/327/327
f 317/317/317 327/327/327 326/326/326
f 318/318/318 319/319/319 328/328/328
f 318/318/318 328/328/328 327/327/327
f 319/319/319 320/320/320 329/329/329
f 319/319/319 329/329/329 328/328/328
f 320/320/320 321/321/321 330/330/330
f 320/320/320 330/330/330 329/329/329
f 321/321/321 322/322/322 331/331/331
f 321/321/321 331/331/331 330/330/330
f 322/322/322 323/323/323 332/332/332
f 322/322/322 332/332/332 331/331/331
f 323/323/323 324/324/324 333/333/333
f 323/323/323 333/333/333 332/332/332
f 325/325/325 326/326/326 335/335/335
f 325/325/325 335/335/335 334/334/334
f 326/326/326 327/327/327 336/336/336
f 326/326/326 336/336/336 335/335/335
f 327/327/327 328/328/328 337/337/337
f 327/327/327 337/337/337 336/336/336
f 328/328/328 329/329/329 338/338/338
f 328/328/328 338/338/338 337/337/337
f 329/329/329 330/330/330 339/339/339
f 329/329/329 339/339/339 338/338/338
f 330/330/330 331/331/331 340/340/340
f 330/330/330 340/340/340 339/339/339
f 331/331/331 332/332/332 341/341/341
f 331/331/331 341/341/341 340/340/340
f 332/332/332 333/333/333 342/342/342
f 332/332/332 342/342/342 341/341/341
f 334/334/334 335/335/335 344/344/344
f 334/334/334 344/344/344 343/343/343
f 335/335/335 336/336/336 345/345/345
f 335/335/335 345/345/345 344/344/344
f 336/336/336 337/337/337 346/346/346
f 336/336/336 346/346/346 345/345/345
f 337/337/337 338/338/338 347/347/347
f 337/337/337 347/347/347 346/346/346
f 338/338/338 339/339/339 348/348/348
f 338/338/338 348/348/348 347/347/347
f 339/339/339 340/340/340 349/349/349
f 339/339/339 349/349/349 348/348/348
f 340/340/340 341/341/341 350/350/350
f 340/340/340 350/350/350 349/349/349
f 341/341/341 342/342/342 351/351/351
f 341/341/341 351/351/351 350/350/350
f 343/343/343 344/344/344 353/353/353
f 343/343/343 353/353/353 352/352/352
f 344/344/344 345/345/345 354/354/354
f 344/344/344 354/354/354 353/353/353
f 345/345/345 346/346/346 355/355/355
f 345/345/345 355/355/355 354/354/354
f 346/346/346 347/347/347 356/356/356
f 346/346/346 356/356/356 355/355/355
f 347/347/347 348/348/348 357/357/357
f 347/347/347 357/357/357 356/356/356
f 348/348/348 349/349/349 358/358/358
f 348/348/348 358/358/358 357/357/357
f 349/349/349 350/350/350 359/359/359
f 349/349/349 359/359/359 358/358/358
f 350/350/350 351/351/351 360/360/360
f 350/350/350 360/360/360 359/359/359
f 352/352/352 353/353/353 362/362/362
f 352/352/352 362/362/362 361/361/361
f 353/353/353 354/354/354 363/363/363
f 353/353/353 363/363/363 362/362/362
f 354/354/354 355/355/355 364/364/364
f 354/354/354 364/364/364 363/363/363
f 355/355/355 356/356/356 365/365/365
f 355/355/355 365/365/365 364/364/364
f 356/356/356 357/357/357 366/366/366
f 356/356/356 366/366/366 365/365/365
f 357/357/357 358/358/358 367/367/367
f 357/357/357 367/367/367 366/366/366
f 358/358/358 359/359/359 368/368/368
f 358/358/358 368/368/368 367/367/367
f 359/359/359 360/360/360 369/369/369
f 359/359/359 369/369/369 368/368/368
f 361/361/361 362/362/362 371/371/371
f 361/361/361 371/371/371 370/370/370
f 362/362/362 363/363/363 372/372/372
f 362/362/362 372/372/372 371/371/371
f 363/363/363 364/364/364 373/373/373
f 363/363/363 373/373/373 372/372/372
f 364/364/364 365/365/365 374/374/374
f 364/364/364 374/374/374 373/373/373
f 365/365/365 366/366/366 375/375/375
f 365/365/365 375/375/375 374/374/374
f 366/366/366 367/367/367 376/376/376
f 366/366/366 376/376/376 375/375/375
f 367/367/367 368/368/368 377/377/377
f 367/367/367 377/377/377 376/376/376
f 368/368/368 369/369/369 378/378/378
f 368/368/368 378/378/378 377/377/377
f 370/370/370 371/371/371 380/380/380
f 370/370/370 380/380/380 379/379/379
f 371/371/371 372/372/372 381/381/381
f 371/371/371 381/381/381 380/380/380
f 372/372/372 373/373/373 382/382/382
f 372/372/372 382/382/382 381/381/381
f 373/373/373 374/374/374 383/383/383
f 373/373/373 383/383/383 382/382/382
f 374/374/374 375/375/375 384/384/384
f 374/374/374 384/384/384 383/383/383
f 375/375/375 376/376/376 385/385/385
f 375/375/375 385/385/385 384/384/384
f 376/376/376 377/377/377 386/386/386
f 376/376/376 386/386/386 385/385/385
f 377/377/377 378/378/378 387/387/387
f 377/377/377 387/387/387 386/386/386
f 379/379/379 380/380/380 389/389/389
f 379/379/379 389/389/389 388/388/388
f 380/380/380 381/381/381 390/390/390
f 380/380/380 390/390/390 389/389/389
f 381/381/381 382/382/382 391/391/391
f 381/381/381 391/391/391 390/390/390
f 382/382/382 383/383/383 392/392/392
f 382/382/382 392/392/392 391/391/391
f 383/383/383 384/384/384 393/393/393
f 383/383/383 393/393/393 392/392/392
f 384/384/384 385/385/385 394/394/394
f 384/384/384 394/394/394 393/393/393
f 385/385/385 386/386/386 395/395/395
f 385/385/385 395/395/395 394/394/394
f 386/386/386 387/387/387 396/396/396
f 386/386/386 396/396/396 395/395/395
f 388/388/388 389/389/389 398/398/398
f 388/388/388 398/398/398 397/397/397
f 389/389/389 390/390/390 399/399/399
f 389/389/389 399/399/399 398/398/398
f 390/390/390 391/391/391 400/400/400
f 390/390/390 400/400/400 399/399/399
f 391/391/391 392/392/392 401/401/401
f 391/391/391 401/401/401 400/400/400
f 392/392/392 393/393/393 402/402/402
f 392/392/392 402/402/402 401/401/401
f 393/393/393 394/394/394 403/403/403
f 393/393/393 403/403/403 402/402/402
f 394/394/394 395/395/395 404/404/404
f 394/394/394 404/404/404 403/403/403
f 395/395/395 396/396/396 405/405/405
f 395/395/395 405/405/405 404/404/404
f 397/397/397 398/398/398 407/407/407
f 397/397/397 407/407/407 406/406/406
f 398/398/398 399/399/399 408/408/408
f 398/398/398 408/408/408 407/407/407
f 399/399/399 400/400/400 409/409/409
f 399/399/399 409/409/409 408/408/408
f 400/400/400 401/401/401 410/410/410
f 400/400/400 410/410/410 409/409/409
f 401/401/401 402/402/402 411/411/411
f 401/401/401 411/411/411 410/410/410
f 402/402/402 403/403/403 412/412/412
f 402/402/402 412/412/412 411/411/411
f 403/403/403 404/404/404 413/413/413
f 403/403/403 413/413/413 412/412/412
f 404/404/404 405/405/405 414/414/414
f 404/404/404 414/414/414 413/413/413
f 406/406/406 407/407/407 462/462/462
f 407/407/407 408/408/408 462/462/462
f 408/408/408 409/409/409 462/462/462
f 409/409/409 410/410/410 462/462/462
f 410/410/410 411/411/411 462/462/462
f 411/411/411 412/412/412 462/462/462
f 412/412/412 413/413/413 462/462/462
f 413/413/413 414/414/414 462/462/462
f 1/1/1 1/1/1 1/1/1
f 1/1/1 1/1/1 1/1/1
f 1/1/1 1/1/1 1/1/1
f 1/1/1 1/1/1 1/1/1
f 1/1/1 1/1/1 1/1/1
f 1/1/1 1/1/1 1/1/1
f 1/1/1 1/1/1 1/1/1
f 1/1/1 1/1/1 1/1/1
f 1/1/1 1/1/1 1/1/1
f 1/1/1 1/1/1 1/1/1
f 1/1/1 1/1/1 1/1/1
f 1/1/1 1/1/1 1/1/1
f 1/1/1 1/1/1 1/1/1
f 1/1/1 1/1/1 1/1/1
f 1/1/1 1/1/1 1/1/1
f 1/1/1 1/1/1 1/1/1
f 1/1/1 1/1/1 1/1/1
f 1/1/1 1/1/1 1/1/1
f 1/1/1 1/1/1 1/1/1
f 1/1/1 1/1/1 1/1/1
f 1/1/1 1/1/1 1/1/1
f 1/1/1 1/1/1 1/1/1
f 1/1/1 1/1/1 1/1/1
f 1/1/1 1/1/1 1/1/1
f 1/1/1 1/1/1 1/1/1
f 1/1/1 1/1/1 1/1/1
f 1/1/1 1/1/1 1/1/1
f 1/1/1 1/1/1 1/1/1
f 1/1/1 1/1/1 1/1/1
f 1/1/1 1/1/1 1/1/1
f 1/1/1 1/1/1 1/1/1
f 1/1/1 1/1/1 1/1/1
f 1/1/1 1/1/1 1/1/1
f 1/1/1 1/1/1 1/1/1
f 1/1/1 1/1/1 1/1/1
f 1/1/1 1/1/1 1/1/1
f 1/1/1 1/1/1 1/1/1
f 1/1/1 1/1/1 1/1/1
f 1/1/1 1/1/1 1/1/1
f 1/1/1 1/1/1 1/1/1
f 1/1/1 1/1/1 1/1/1
f 1/1/1 1/1/1 1/1/1
f 1/1/1 1/1/1 1/1/1
f 1/1/1 1/1/1 1/1/1
f 1/1/1 1/1/1 1/1/1
f 1/1/1 1/1/1 1/1/1
f 1/1/1 1/1/1 1/1/1
f 1/1/1 1/1/1 1/1/1
f 1/1/1 1/1/1 1/1/1
f 1/1/1 1/1/1 1/1/1
f 1/1/1 1/1/1 1/1/1
f 1/1/1 1/1/1 1/1/1
f 1/1/1 1/1/1 1/1/1
f 1/1/1 1/1/1 1/1/1
f 1/1/1 1/1/1 1/1/1
f 1/1/1 1/1/1 1/1/1
f 1/1/1 1/1/1 1/1/1
f 1/1/1 1/1/1 1/1/1
f 1/1/1 1/1/1 1/1/1
f 1/1/1 1/1/1 1/1/1
f 1/1/1 1/1/1 1/1/1
f 1/1/1 1/1/1 1/1/1
f 1/1/1 1/1/1 1/1/1
f 1/1/1 1/1/1 1/1/1
f 1/1/1 1/1/1 1/1/1
f 1/1/1 1/1/1 1/1/1
f 1/1/1 1/1/1 1/1/1
f 1/1/1 1/1/1 1/1/1
f 1/1/1 1/1/1 1/1/1
f 1/1/1 1/1/1 1/1/1
f 1/1/1 1/1/1 1/1/1
f 1/1/1 1/1/1 1/1/1
f 1/1/1 1/1/1 1/1/1
f 1/1/1 1/1/1 1/1/1
f 1/1/1 1/1/1 1/1/1
f 1/1/1 1/1/1 1/1/1
f 1/1/1 1/1/1 1/1/1
f 1/1/1 1/1/1 1/1/1
f 1/1/1 1/1/1 1/1/1
f 1/1/1 1/1/1 1/1/1
f 1/1/1 1/1/1 1/1/1
f 1/1/1 1/1/1 1/1/1
f 1/1/1 1/1/1 1/1/1
f 1/1/1 1/1/1 1/1/1
f 1/1/1 1/1/1 1/1/1
f 1/1/1 1/1/1 1/1/1
f 1/1/1 1/1/1 1/1/1
f 1/1/1 1/1/1 1/1/1
f 1/1/1 1/1/1 1/1/1
f 1/1/1 1/1/1 1/1/1
f 1/1/1 1/1/1 1/1/1
f 1/1/1 1/1/1 1/1/1
f 1/1/1 1/1/1 1/1/1
f 1/1/1 1/1/1 1/1/1
f 1/1/1 1/1/1 1/1/1
f 1/1/1 1/1/1 1/1/1
f 1/1/1 1/1/1 1/1/1
f 1/1/1 1/1/1 1/1/1
f 1/1/1 1/1/1 1/1/1
f 1/1/1 1/1/1 1/1/1
f 1/1/1 1/1/1 1/1/1
f 1/1/1 1/1/1 1/1/1
f 1/1/1 1/1/1 1/1/1
f 1/1/1 1/1/1 1/1/1
f 1/1/1 1/1/1 1/1/1
f 1/1/1 1/1/1 1/1/1
f 1/1/1 1/1/1 1/1/1
f 1/1/1 1/1/1 1/1/1
f 1/1/1 1/1/1 1/1/1
f 1/1/1 1/1/1 1/1/1
f 1/1/1 1/1/1 1/1/1
f 1/1/1 1/1/1 1/1/1
f 1/1/1 1/1/1 1/1/1
f 1/1/1 1/1/1 1/1/1
f 1/1/1 1/1/1 1/1/1
f 1/1/1 1/1/1 1/1/1
f 1/1/1 1/1/1 1/1/1
f 1/1/1 1/1/1 1/1/1
f 1/1/1 1/1/1 1/1/1
f 1/1/1 1/1/1 1/1/1
f 1/1/1 1/1/1 1/1/1
f 1/1/1 1/1/1 1/1/1
f 1/1/1 1/1/1 1/1/1
f 1/1/1 1/1/1 1/1/1
f 1/1/1 1/1/1 1/1/1
f 1/1/1 1/1/1 1/1/1
f 1/1/1 1/1/1 1/1/1
f 1/1/1 1/1/1 1/1/1
f 1/1/1 1/1/1 1/1/1
f 1/1/1 1/1/1 1/1/1
f 1/1/1 1/1/1 1/1/1
f 1/1/1 1/1/1 1/1/1
f 1/1/1 1/1/1 1/1/1
f 1/1/1 1/1/1 1/1/1
f 1/1/1 1/1/1 1/1/1
f 1/1/1 1/1/1 1/1/1
f 1/1/1 1/1/1 1/1/1
f 1/1/1 1/1/1 1/1/1
f 1/1/1 1/1/1 1/1/1
f 1/1/1 1/1/1 1/1/1
f 1/1/1 1/1/1 1/1/1
f 1/1/1 1/1/1 1/1/1
f 1/1/1 1/1/1 1/1/1
f 1/1/1 1/1/1 1/1/1
f 1/1/1 1/1/1 1/1/1
f 1/1/1 1/1/1 1/1/1
f 1/1/1 1/1/1 1/1/1
f 1/1/1 1/1/1 1/1/1
f 1/1/1 1/1/1 1/1/1
f 1/1/1 1/1/1 1/1/1
f 1/1/1 1/1/1 1/1/1
f 1/1/1 1/1/1 1/1/1
f 1/1/1 1/1/1 1/1/1
f 1/1/1 1/1/1 1/1/1
f 1/1/1 1/1/1 1/1/1
f 1/1/1 1/1/1 1/1/1
f 1/1/1 1/1/1 1/1/1
f 1/1/1 1/1/1 1/1/1
f 1/1/1 1/1/1 1/1/1
f 1/1/1 1/1/1 1/1/1
f 1/1/1 1/1/1 1/1/1
f 1/1/1 1/1/1 1/1/1
f 1/1/1 1/1/1 1/1/1
f 1/1/1 1/1/1 1/1/1
f 1/1/1 1/1/1 1/1/1
f 1/1/1 1/1/1 1/1/1
f 1/1/1 1/1/1 1/1/1
f 1/1/1 1/1/1 1/1/1
f 1/1/1 1/1/1 1/1/1
f 1/1/1 1/1/1 1/1/1
f 1/1/1 1/1/1 1/1/1
f 1/1/1 1/1/1 1/1/1
f 1/1/1 1/1/1 1/1/1
f 1/1/1 1/1/1 1/1/1
f 1/1/1 1/1/1 1/1/1
f 1/1/1 1/1/1 1/1/1
f 1/1/1 1/1/1 1/1/1
f 1/1/1 1/1/1 1/1/1
f 1/1/1 1/1/1 1/1/1
f 1/1/1 1/1/1 1/1/1
f 1/1/1 1/1/1 1/1/1
f 1/1/1 1/1/1 1/1/1
f 1/1/1 1/1/1 1/1/1
f 1/1/1 1/1/1 1/1/1
f 1/1/1 1/1/1 1/1/1
f 1/1/1 1/1/1 1/1/1
f 1/1/1 1/1/1 1/1/1
f 1/1/1 1/1/1 1/1/1
f 1/1/1 1/1/1 1/1/1
f 1/1/1 1/1/1 1/1/1
f 1/1/1 1/1/1 1/1/1
f 1/1/1 1/1/1 1/1/1
f 1/1/1 1/1/1 1/1/1
f 1/1/1 1/1/1 1/1/1
f 1/1/1 1/1/1 1/1/1
f 1/1/1 1/1/1 1/1/1
f 1/1/1 1/1/1 1/1/1
f 1/1/1 1/1/1 1/1/1
f 1/1/1 1/1/1 1/1/1
f 1/1/1 1/1/1 1/1/1
f 1/1/1 1/1/1 1/1/1
f 1/1/1 1/1/1 1/1/1
f 1/1/1 1/1/1 1/1/1
f 1/1/1 1/1/1 1/1/1
f 1/1/1 1/1/1 1/1/1
f 1/1/1 1/1/1 1/1/1
f 1/1/1 1/1/1 1/1/1
f 1/1/1 1/1/1 1/1/1
f 1/1/1 1/1/1 1/1/1
f 1/1/1 1/1/1 1/1/1
f 1/1/1 1/1/1 1/1/1
f 1/1/1 1/1/1 1/1/1
f 1/1/1 1/1/1 1/1/1
f 1/1/1 1/1/1 1/1/1
f 1/1/1 1/1/1 1/1/1
f 1/1/1 1/1/1 1/1/1
f 1/1/1 1/1/1 1/1/1
f 1/1/1 1/1/1 1/1/1
f 1/1/1 1/1/1 1/1/1
f 1/1/1 1/1/1 1/1/1
f 1/1/1 1/1/1 1/1/1
f 1/1/1 1/1/1 1/1/1
f 1/1/1 1/1/1 1/1/1
f 1/1/1 1/1/1 1/1/1
f 1/1/1 1/1/1 1/1/1
f 1/1/1 1/1/1 1/1/1
f 1/1/1 1/1/1 1/1/1
f 1/1/1 1/1/1 1/1/1
f 1/1/1 1/1/1 1/1/1
f 1/1/1 1/1/1 1/1/1
f 1/1/1 1/1/1 1/1/1
f 1/1/1 1/1/1 1/1/1
f 1/1/1 1/1/1 1/1/1
f 1/1/1 1/1/1 1/1/1
f 1/1/1 1/1/1 1/1/1
f 1/1/1 1/1/1 1/1/1
f 1/1/1 1/1/1 1/1/1
f 1/1/1 1/1/1 1/1/1
f 1/1/1 1/1/1 1/1/1
f 1/1/1 1/1/1 1/1/1
f 1/1/1 1/1/1 1/1/1
f 1/1/1 1/1/1 1/1/1
f 1/1/1 1/1/1 1/1/1
f 1/1/1 1/1/1 1/1/1
f 1/1/1 1/1/1 1/1/1
f 1/1/1 1/1/1 1/1/1
f 1/1/1 1/1/1 1/1/1
f 1/1/1 1/1/1 1/1/1
f 1/1/1 1/1/1 1/1/1
f 1/1/1 1/1/1 1/1/1
f 1/1/1 1/1/1 1/1/1
f 1/1/1 1/1/1 1/1/1
f 1/1/1 1/1/1 1/1/1
f 1/1/1 1/1/1 1/1/1
f 1/1/1 1/1/1 1/1/1
f 1/1/1 1/1/1 1/1/1
f 1/1/1 1/1/1 1/1/1
f 1/1/1 1/1/1 1/1/1
f 1/1/1 1/1/1 1/1/1
f 1/1/1 1/1/1 1/1/1
f 1/1/1 1/1/1 1/1/1
f 1/1/1 1/1/1 1/1/1
f 1/1/1 1/1/1 1/1/1
f 1/1/1 1/1/1 1/1/1
f 1/1/1 1/1/1 1/1/1
f 1/1/1 1/1/1 1/1/1
f 1/1/1 1/1/1 1/1/1
f 1/1/1 1/1/1 1/1/1
f 1/1/1 1/1/1 1/1/1
f 1/1/1 1/1/1 1/1/1
f 1/1/1 1/1/1 1/1/1
f 1/1/1 1/1/1 1/1/1
f 1/1/1 1/1/1 1/1/1
f 1/1/1 1/1/1 1/1/1
f 1/1/1 1/1/1 1/1/1
f 1/1/1 1/1/1 1/1/1
f 1/1/1 1/1/1 1/1/1
f 1/1/1 1/1/1 1/1/1
f 1/1/1 1/1/1 1/1/1
f 1/1/1 1/1/1 1/1/1
f 1/1/1 1/1/1 1/1/1
f 1/1/1 1/1/1 1/1/1
f 1/1/1 1/1/1 1/1/1
f 1/1/1 1/1/1 1/1/1
f 1/1/1 1/1/1 1/1/1
f 1/1/1 1/1/1 1/1/1
f 1/1/1 1/1/1 1/1/1
f 1/1/1 1/1/1 1/1/1
f 1/1/1 1/1/1 1/1/1
f 1/1/1 1/1/1 1/1/1
f 1/1/1 1/1/1 1/1/1
f 1/1/1 1/1/1 1/1/1
f 1/1/1 1/1/1 1/1/1
f 1/1/1 1/1/1 1/1/1
f 1/1/1 1/1/1 1/1/1
f 1/1/1 1/1/1 1/1/1
f 1/1/1 1/1/1 1/1/1
f 1/1/1 1/1/1 1/1/1
f 1/1/1 1/1/1 1/1/1
f 1/1/1 1/1/1 1/1/1
f 1/1/1 1/1/1 1/1/1
f 1/1/1 1/1/1 1/1/1
f 1/1/1 1/1/1 1/1/1
f 1/1/1 1/1/1 1/1/1
f 1/1/1 1/1/1 1/1/1
f 1/1/1 1/1/1 1/1/1
f 1/1/1 1/1/1 1/1/1
f 1/1/1 1/1/1 1/1/1
f 1/1/1 1/1/1 1/1/1
f 1/1/1 1/1/1 1/1/1
f 1/1/1 1/1/1 1/1/1
f 1/1/1 1/1/1 1/1/1
f 1/1/1 1/1/1 1/1/1
f 1/1/1 1/1/1 1/1/1
f 1/1/1 1/1/1 1/1/1
f 1/1/1 1/1/1 1/1/1
f 1/1/1 1/1/1 1/1/1
f 1/1/1 1/1/1 1/1/1
f 1/1/1 1/1/1 1/1/1
f 1/1/1 1/1/1 1/1/1
f 1/1/1 1/1/1 1/1/1
f 1/1/1 1/1/1 1/1/1
f 1/1/1 1/1/1 1/1/1
f 1/1/1 1/1/1 1/1/1
f 1/1/1 1/1/1 1/1/1
f 1/1/1 1/1/1 1/1/1
f 1/1/1 1/1/1 1/1/1
f 1/1/1 1/1/1 1/1/1
f 1/1/1 1/1/1 1/1/1
f 1/1/1 1/1/1 1/1/1
f 1/1/1 1/1/1 1/1/1
f 1/1/1 1/1/1 1/1/1
f 1/1/1 1/1/1 1/1/1
f 1/1/1 1/1/1 1/1/1
f 1/1/1 1/1/1 1/1/1
f 1/1/1 1/1/1 1/1/1
f 1/1/1 1/1/1 1/1/1
f 1/1/1 1/1/1 1/1/1
f 1/1/1 1/1/1 1/1/1
f 1/1/1 1/1/1 1/1/1
f 1/1/1 1/1/1 1/1/1
f 1/1/1 1/1/1 1/1/1
f 1/1/1 1/1/1 1/1/1
f 1/1/1 1/1/1 1/1/1
f 1/1/1 1/1/1 1/1/1
f 1/1/1 1/1/1 1/1/1
f 1/1/1 1/1/1 1/1/1
f 1/1/1 1/1/1 1/1/1
f 1/1/1 1/1/1 1/1/1
f 1/1/1 1/1/1 1/1/1
f 1/1/1 1/1/1 1/1/1
f 1/1/1 1/1/1 1/1/1
f 1/1/1 1/1/1 1/1/1
f 1/1/1 1/1/1 1/1/1
f 1/1/1 1/1/1 1/1/1
f 1/1/1 1/1/1 1/1/1
f 1/1/1 1/1/1 1/1/1
f 1/1/1 1/1/1 1/1/1
f 1/1/1 1/1/1 1/1/1
f 1/1/1 1/1/1 1/1/1
f 1/1/1 1/1/1 1/1/1
f 1/1/1 1/1/1 1/1/1
f 1/1/1 1/1/1 1/1/1
f 1/1/1 1/1/1 1/1/1
f 1/1/1 1/1/1 1/1/1
f 1/1/1 1/1/1 1/1/1
f 1/1/1 1/1/1 1/1/1
f 1/1/1 1/1/1 1/1/1
f 1/1/1 1/1/1 1/1/1
f 1/1/1 1/1/1 1/1/1
f 1/1/1 1/1/1 1/1/1
f 1/1/1 1/1/1 1/1/1
f 1/1/1 1/1/1 1/1/1
f 1/1/1 1/1/1 1/1/1
f 1/1/1 1/1/1 1/1/1
f 1/1/1 1/1/1 1/1/1
f 1/1/1 1/1/1 1/1/1
f 1/1/1 1/1/1 1/1/1
f 1/1/1 1/1/1 1/1/1
f 1/1/1 1/1/1 1/1/1
f 1/1/1 1/1/1 1/1/1
f 1/1/1 1/1/1 1/1/1
f 1/1/1 1/1/1 1/1/1
f 1/1/1 1/1/1 1/1/1
f 1/1/1 1/1/1 1/1/1
f 1/1/1 1/1/1 1/1/1
f 1/1/1 1/1/1 1/1/1
f 1/1/1 1/1/1 1/1/1
f 1/1/1 1/1/1 1/1/1
f 1/1/1 1/1/1 1/1/1
f 1/1/1 1/1/1 1/1/1
f 1/1/1 1/1/1 1/1/1
f 1/1/1 1/1/1 1/1/1
f 1/1/1 1/1/1 1/1/1
f 1/1/1 1/1/1 1/1/1
f 1/1/1 1/1/1 1/1/1
f 1/1/1 1/1/1 1/1/1
f 1/1/1 1/1/1 1/1/1
f 1/1/1 1/1/1 1/1/1
f 1/1/1 1/1/1 1/1/1
f 1/1/1 1/1/1 1/1/1
f 1/1/1 1/1/1 1/1/1
f 1/1/1 1/1/1 1/1/1
f 1/1/1 1/1/1 1/1/1
f 1/1/1 1/1/1 1/1/1
f 1/1/1 1/1/1 1/1/1
f 1/1/1 1/1/1 1/1/1
f 1/1/1 1/1/1 1/1/1
f 1/1/1 1/1/1 1/1/1
f 1/1/1 1/1/1 1/1/1
f 1/1/1 1/1/1 1/1/1
f 1/1/1 1/1/1 1/1/1
f 1/1/1 1/1/1 1/1/1
f 1/1/1 1/1/1 1/1/1
f 1/1/1 1/1/1 1/1/1
f 1/1/1 1/1/1 1/1/1
f 1/1/1 1/1/1 1/1/1
f 1/1/1 1/1/1 1/1/1
f 1/1/1 1/1/1 1/1/1
f 1/1/1 1/1/1 1/1/1
f 1/1/1 1/1/1 1/1/1
f 1/1/1 1/1/1 1/1/1
f 1/1/1 1/1/1 1/1/1
f 1/1/1 1/1/1 1/1/1
f 1/1/1 1/1/1 1/1/1
f 1/1/1 1/1/1 1/1/1
f 1/1/1 1/1/1 1/1/1
f 1/1/1 1/1/1 1/1/1
f 1/1/1 1/1/1 1/1/1
f 1/1/1 1/1/1 1/1/1
f 1/1/1 1/1/1 1/1/1
f 1/1/1 1/1/1 1/1/1
f 1/1/1 1/1/1 1/1/1
f 1/1/1 1/1/1 1/1/1
f 1/1/1 1/1/1 1/1/1
f 1/1/1 1/1/1 1/1/1
f 1/1/1 1/1/1 1/1/1
f 1/1/1 1/1/1 1/1/1
f 1/1/1 1/1/1 1/1/1
f 1/1/1 1/1/1 1/1/1
f 1/1/1 1/1/1 1/1/1
f 1/1/1 1/1/1 1/1/1
f 1/1/1 1/1/1 1/1/1
f 1/1/1 1/1/1 1/1/1
f 1/1/1 1/1/1 1/1/1
f 1/1/1 1/1/1 1/1/1
f 1/1/1 1/1/1 1/1/1
f 1/1/1 1/1/1 1/1/1
f 1/1/1 1/1/1 1/1/1
f 1/1/1 1/1/1 1/1/1
f 1/1/1 1/1/1 1/1/1
f 1/1/1 1/1/1 1/1/1
f 1/1/1 1/1/1 1/1/1
f 1/1/1 1/1/1 1/1/1
f 1/1/1 1/1/1 1/1/1
f 1/1/1 1/1/1 1/1/1
f 1/1/1 1/1/1 1/1/1
f 1/1/1 1/1/1 1/1/1
f 1/1/1 1/1/1 1/1/1
f 1/1/1 1/1/1 1/1/1
f 1/1/1 1/1/1 1/1/1
f 1/1/1 1/1/1 1/1/1
f 1/1/1 1/1/1 1/1/1
f 1/1/1 1/1/1 1/1/1
f 1/1/1 1/1/1 1/1/1
f 1/1/1 1/1/1 1/1/1
f 1/1/1 1/1/1 1/1/1
f 1/1/1 1/1/1 1/1/1
f 1/1/1 1/1/1 1/1/1
f 1/1/1 1/1/1 1/1/1
f 1/1/1 1/1/1 1/1/1
f 1/1/1 1/1/1 1/1/1
f 1/1/1 1/1/1 1/1/1
f 1/1/1 1/1/1 1/1/1
f 1/1/1 1/1/1 1/1/1
f 1/1/1 1/1/1 1/1/1
f 1/1/1 1/1/1 1/1/1
f 1/1/1 1/1/1 1/1/1
f 1/1/1 1/1/1 1/1/1
f 1/1/1 1/1/1 1/1/1
f 1/1/1 1/1/1 1/1/1
f 1/1/1 1/1/1 1/1/1
f 1/1/1 1/1/1 1/1/1
f 1/1/1 1/1/1 1/1/1
f 1/1/1 1/1/1 1/1/1
f 1/1/1 1/1/1 1/1/1
f 1/1/1 1/1/1 1/1/1
f 1/1/1 1/1/1 1/1/1
f 1/1/1 1/1/1 1/1/1
f 1/1/1 1/1/1 1/1/1
f 1/1/1 1/1/1 1/1/1
f 1/1/1 1/1/1 1/1/1
f 1/1/1 1/1/1 1/1/1
f 1/1/1 1/1/1 1/1/1
f 1/1/1 1/1/1 1/1/1
f 1/1/1 1/1/1 1/1/1
f 1/1/1 1/1/1 1/1/1
f 1/1/1 1/1/1 1/1/1
f 1/1/1 1/1/1 1/1/1
f 1/1/1 1/1/1 1/1/1
f 1/1/1 1/1/1 1/1/1
f 1/1/1 1/1/1 1/1/1
f 1/1/1 1/1/1 1/1/1
f 1/1/1 1/1/1 1/1/1
f 1/1/1 1/1/1 1/1/1
f 1/1/1 1/1/1 1/1/1
f 1/1/1 1/1/1 1/1/1
f 1/1/1 1/1/1 1/1/1
f 1/1/1 1/1/1 1/1/1
f 1/1/1 1/1/1 1/1/1
f 1/1/1 1/1/1 1/1/1
f 1/1/1 1/1/1 1/1/1
f 1/1/1 1/1/1 1/1/1
f 1/1/1 1/1/1 1/1/1
f 1/1/1 1/1/1 1/1/1
f 1/1/1 1/1/1 1/1/1
f 1/1/1 1/1/1 1/1/1
f 1/1/1 1/1/1 1/1/1
f 1/1/1 1/1/1 1/1/1
f 1/1/1 1/1/1 1/1/1
f 1/1/1 1/1/1 1/1/1
f 1/1/1 1/1/1 1/1/1
f 1/1/1 1/1/1 1/1/1
f 1/1/1 1/1/1 1/1/1
f 1/1/1 1/1/1 1/1/1
f 1/1/1 1/1/1 1/1/1
f 1/1/1 1/1/1 1/1/1
f 1/1/1 1/1/1 1/1/1
f 1/1/1 1/1/1 1/1/1
f 1/1/1 1/1/1 1/1/1
f 1/1/1 1/1/1 1/1/1
f 1/1/1 1/1/1 1/1/1
f 1/1/1 1/1/1 1/1/1
f 1/1/1 1/1/1 1/1/1
f 1/1/1 1/1/1 1/1/1
f 1/1/1 1/1/1 1/1/1
f 1/1/1 1/1/1 1/1/1
f 1/1/1 1/1/1 1/1/1
f 1/1/1 1/1/1 1/1/1
f 1/1/1 1/1/1 1/1/1
f 1/1/1 1/1/1 1/1/1
f 1/1/1 1/1/1 1/1/1
f 1/1/1 1/1/1 1/1/1
f 1/1/1 1/1/1 1/1/1
f 1/1/1 1/1/1 1/1/1
f 1/1/1 1/1/1 1/1/1
f 1/1/1 1/1/1 1/1/1
f 1/1/1 1/1/1 1/1/1
f 1/1/1 1/1/1 1/1/1
f 1/1/1 1/1/1 1/1/1
f 1/1/1 1/1/1 1/1/1
f 1/1/1 1/1/1 1/1/1
f 1/1/1 1/1/1 1/1/1
f 1/1/1 1/1/1 1/1/1
f 1/1/1 1/1/1 1/1/1
f 1/1/1 1/1/1 1/1/1
f 1/1/1 1/1/1 1/1/1
f 1/1/1 1/1/1 1/1/1
f 1/1/1 1/1/1 1/1/1
f 1/1/1 1/1/1 1/1/1
f 1/1/1 1/1/1 1/1/1
f 1/1/1 1/1/1 1/1/1
f 1/1/1 1/1/1 1/1/1
f 1/1/1 1/1/1 1/1/1
f 1/1/1 1/1/1 1/1/1
f 1/1/1 1/1/1 1/1/1
f 1/1/1 1/1/1 1/1/1
f 1/1/1 1/1/1 1/1/1
f 1/1/1 1/1/1 1/1/1
f 1/1/1 1/1/1 1/1/1
f 1/1/1 1/1/1 1/1/1
f 1/1/1 1/1/1 1/1/1
f 1/1/1 1/1/1 1/1/1
f 1/1/1 1/1/1 1/1/1
f 1/1/1 1/1/1 1/1/1
f 1/1/1 1/1/1 1/1/1
f 1/1/1 1/1/1 1/1/1
f 1/1/1 1/1/1 1/1/1
f 1/1/1 1/1/1 1/1/1
f 1/1/1 1/1/1 1/1/1
f 1/1/1 1/1/1 1/1/1
f 1/1/1 1/1/1 1/1/1
f 1/1/1 1/1/1 1/1/1
f 1/1/1 1/1/1 1/1/1
f 1/1/1 1/1/1 1/1/1
f 1/1/1 1/1/1 1/1/1
f 1/1/1 1/1/1 1/1/1
f 1/1/1 1/1/1 1/1/1
f 1/1/1 1/1/1 1/1/1
f 1/1/1 1/1/1 1/1/1
f 1/1/1 1/1/1 1/1/1
f 1/1/1 1/1/1 1/1/1
f 1/1/1 1/1/1 1/1/1
f 1/1/1 1/1/1 1/1/1
f 1/1/1 1/1/1 1/1/1
f 1/1/1 1/1/1 1/1/1
f 1/1/1 1/1/1 1/1/1
f 1/1/1 1/1/1 1/1/1
f 1/1/1 1/1/1 1/1/1
f 1/1/1 1/1/1 1/1/1
f 1/1/1 1/1/1 1/1/1
f 1/1/1 1/1/1 1/1/1
f 1/1/1 1/1/1 1/1/1
f 1/1/1 1/1/1 1/1/1
f 1/1/1 1/1/1 1/1/1
f 1/1/1 1/1/1 1/1/1
f 1/1/1 1/1/1 1/1/1
f 1/1/1 1/1/1 1/1/1
f 1/1/1 1/1/1 1/1/1
f 1/1/1 1/1/1 1/1/1
f 1/1/1 1/1/1 1/1/1
f 1/1/1 1/1/1 1/1/1
f 1/1/1 1/1/1 1/1/1
f 1/1/1 1/1/1 1/1/1
f 1/1/1 1/1/1 1/1/1
f 1/1/1 1/1/1 1/1/1
f 1/1/1 1/1/1 1/1/1
f 1/1/1 1/1/1 1/1/1
f 1/1/1 1/1/1 1/1/1
f 1/1/1 1/1/1 1/1/1
f 1/1/1 1/1/1 1/1/1
f 1/1/1 1/1/1 1/1/1
f 1/1/1 1/1/1 1/1/1
f 1/1/1 1/1/1 1/1/1
f 1/1/1 1/1/1 1/1/1
f 1/1/1 1/1/1 1/1/1
f 1/1/1 1/1/1 1/1/1
f 1/1/1 1/1/1 1/1/1
f 1/1/1 1/1/1 1/1/1
f 1/1/1 1/1/1 1/1/1
f 1/1/1 1/1/1 1/1/1
f 1/1/1 1/1/1 1/1/1
f 1/1/1 1/1/1 1/1/1
f 1/1/1 1/1/1 1/1/1
f 1/1/1 1/1/1 1/1/1
f 1/1/1 1/1/1 1/1/1
f 1/1/1 1/1/1 1/1/1
f 1/1/1 1/1/1 1/1/1
f 1/1/1 1/1/1 1/1/1
f 1/1/1 1/1/1 1/1/1
f 1/1/1 1/1/1 1/1/1
f 1/1/1 1/1/1 1/1/1
f 1/1/1 1/1/1 1/1/1
f 1/1/1 1/1/1 1/1/1
f 1/1/1 1/1/1 1/1/1
f 1/1/1 1/1/1 1/1/1
f 1/1/1 1/1/1 1/1/1
f 1/1/1 1/1/1 1/1/1
f 1/1/1 1/1/1 1/1/1
f 1/1/1 1/1/1 1/1/1
f 1/1/1 1/1/1 1/1/1
f 1/1/1 1/1/1 1/1/1
f 1/1/1 1/1/1 1/1/1
f 1/1/1 1/1/1 1/1/1
f 1/1/1 1/1/1 1/1/1
f 1/1/1 1/1/1 1/1/1
f 1/1/1 1/1/1 1/1/1
f 1/1/1 1/1/1 1/1/1
f 1/1/1 1/1/1 1/1/1
f 1/1/1 1/1/1 1/1/1
f 1/1/1 1/1/1 1/1/1
f 1/1/1 1/1/1 1/1/1
f 1/1/1 1/1/1 1/1/1
f 1/1/1 1/1/1 1/1/1
f 1/1/1 1/1/1 1/1/1
f 1/1/1 1/1/1 1/1/1
f 1/1/1 1/1/1 1/1/1
f 1/1/1 1/1/1 1/1/1
f 1/1/1 1/1/1 1/1/1
f 1/1/1 1/1/1 1/1/1
f 1/1/1 1/1/1 1/1/1
f 1/1/1 1/1/1 1/1/1
f 1/1/1 1/1/1 1/1/1
f 1/1/1 1/1/1 1/1/1
f 1/1/1 1/1/1 1/1/1
f 1/1/1 1/1/1 1/1/1
f 1/1/1 1/1/1 1/1/1
f 1/1/1 1/1/1 1/1/1
f 1/1/1 1/1/1 1/1/1
f 1/1/1 1/1/1 1/1/1
f 1/1/1 1/1/1 1/1/1
f 1/1/1 1/1/1 1/1/1
f 1/1/1 1/1/1 1/1/1
f 1/1/1 1/1/1 1/1/1
f 1/1/1 1/1/1 1/1/1
f 1/1/1 1/1/1 1/1/1
f 1/1/1 1/1/1 1/1/1
f 1/1/1 1/1/1 1/1/1
f 1/1/1 1/1/1 1/1/1
f 1/1/1 1/1/1 1/1/1
f 1/1/1 1/1/1 1/1/1
f 1/1/1 1/1/1 1/1/1
f 1/1/1 1/1/1 1/1/1
f 1/1/1 1/1/1 1/1/1
f 1/1/1 1/1/1 1/1/1
f 1/1/1 1/1/1 1/1/1
f 1/1/1 1/1/1 1/1/1
f 1/1/1 1/1/1 1/1/1
f 1/1/1 1/1/1 1/1/1
f 1/1/1 1/1/1 1/1/1
f 1/1/1 1/1/1 1/1/1
f 1/1/1 1/1/1 1/1/1
f 1/1/1 1/1/1 1/1/1
f 1/1/1 1/1/1 1/1/1
f 1/1/1 1/1/1 1/1/1
f 1/1/1 1/1/1 1/1/1
f 1/1/1 1/1/1 1/1/1
f 1/1/1 1/1/1 1/1/1
f 1/1/1 1/1/1 1/1/1
f 1/1/1 1/1/1 1/1/1
f 1/1/1 1/1/1 1/1/1
f 1/1/1 1/1/1 1/1/1
f 1/1/1 1/1/1 1/1/1
f 1/1/1 1/1/1 1/1/1
f 1/1/1 1/1/1 1/1/1
f 1/1/1 1/1/1 1/1/1
f 1/1/1 1/1/1 1/1/1
f 1/1/1 1/1/1 1/1/1
f 1/1/1 1/1/1 1/1/1
f 1/1/1 1/1/1 1/1/1
f 1/1/1 1/1/1 1/1/1
f 1/1/1 1/1/1 1/1/1
f 1/1/1 1/1/1 1/1/1
f 1/1/1 1/1/1 1/1/1
f 1/1/1 1/1/1 1/1/1
f 1/1/1 1/1/1 1/1/1
f 1/1/1 1/1/1 1/1/1
f 1/1/1 1/1/1 1/1/1
f 1/1/1 1/1/1 1/1/1
f 1/1/1 1/1/1 1/1/1
f 1/1/1 1/1/1 1/1/1
f 1/1/1 1/1/1 1/1/1
f 1/1/1 1/1/1 1/1/1
f 1/1/1 1/1/1 1/1/1
f 1/1/1 1/1/1 1/1/1
f 1/1/1 1/1/1 1/1/1
f 1/1/1 1/1/1 1/1/1
f 1/1/1 1/1/1 1/1/1
f 1/1/1 1/1/1 1/1/1
f 1/1/1 1/1/1 1/1/1
f 1/1/1 1/1/1 1/1/1
f 1/1/1 1/1/1 1/1/1
f 1/1/1 1/1/1 1/1/1
f 1/1/1 1/1/1 1/1/1
f 1/1/1 1/1/1 1/1/1
f 1/1/1 1/1/1 1/1/1
f 1/1/1 1/1/1 1/1/1
f 1/1/1 1/1/1 1/1/1
f 1/1/1 1/1/1 1/1/1
f 1/1/1 1/1/1 1/1/1
f 1/1/1 1/1/1 1/1/1
f 1/1/1 1/1/1 1/1/1
f 1/1/1 1/1/1 1/1/1
f 1/1/1 1/1/1 1/1/1
f 1/1/1 1/1/1 1/1/1
f 1/1/1 1/1/1 1/1/1
f 1/1/1 1/1/1 1/1/1
f 1/1/1 1/1/1 1/1/1
f 1/1/1 1/1/1 1/1/1
f 1/1/1 1/1/1 1/1/1
f 1/1/1 1/1/1 1/1/1
f 1/1/1 1/1/1 1/1/1
f 1/1/1 1/1/1 1/1/1
f 1/1/1 1/1/1 1/1/1
f 1/1/1 1/1/1 1/1/1
f 1/1/1 1/1/1 1/1/1
f 1/1/1 1/1/1 1/1/1
f 1/1/1 1/1/1 1/1/1
f 1/1/1 1/1/1 1/1/1
f 1/1/1 1/1/1 1/1/1
f 1/1/1 1/1/1 1/1/1
f 1/1/1 1/1/1 1/1/1
f 1/1/1 1/1/1 1/1/1
f 1/1/1 1/1/1 1/1/1
f 1/1/1 1/1/1 1/1/1
f 1/1/1 1/1/1 1/1/1
f 1/1/1 1/1/1 1/1/1
f 1/1/1 1/1/1 1/1/1
f 1/1/1 1/1/1 1/1/1
f 1/1/1 1/1/1 1/1/1
f 1/1/1 1/1/1 1/1/1
f 1/1/1 1/1/1 1/1/1
f 1/1/1 1/1/1 1/1/1
f 1/1/1 1/1/1 1/1/1
f 1/1/1 1/1/1 1/1/1
f 1/1/1 1/1/1 1/1/1
f 1/1/1 1/1/1 1/1/1
f 1/1/1 1/1/1 1/1/1
f 1/1/1 1/1/1 1/1/1
f 1/1/1 1/1/1 1/1/1
f 1/1/1 1/1/1 1/1/1
f 1/1/1 1/1/1 1/1/1
f 1/1/1 1/1/1 1/1/1
f 1/1/1 1/1/1 1/1/1
f 1/1/1 1/1/1 1/1/1
f 1/1/1 1/1/1 1/1/1
f 1/1/1 1/1/1 1/1/1
f 1/1/1 1/1/1 1/1/1
f 1/1/1 1/1/1 1/1/1
f 1/1/1 1/1/1 1/1/1
f 1/1/1 1/1/1 1/1/1
f 1/1/1 1/1/1 1/1/1
f 1/1/1 1/1/1 1/1/1
f 1/1/1 1/1/1 1/1/1
f 1/1/1 1/1/1 1/1/1
f 1/1/1 1/1/1 1/1/1
f 1/1/1 1/1/1 1/1/1
f 1/1/1 1/1/1 1/1/1
f 1/1/1 1/1/1 1/1/1
f 1/1/1 1/1/1 1/1/1
f 1/1/1 1/1/1 1/1/1
f 1/1/1 1/1/1 1/1/1
f 1/1/1 1/1/1 1/1/1
f 1/1/1 1/1/1 1/1/1
f 1/1/1 1/1/1 1/1/1
f 1/1/1 1/1/1 1/1/1
f 1/1/1 1/1/1 1/1/1
f 1/1/1 1/1/1 1/1/1
f 1/1/1 1/1/1 1/1/1
f 1/1/1 1/1/1 1/1/1
f 1/1/1 1/1/1 1/1/1
f 1/1/1 1/1/1 1/1/1
f 1/1/1 1/1/1 1/1/1
f 1/1/1 1/1/1 1/1/1
f 1/1/1 1/1/1 1/1/1
f 1/1/1 1/1/1 1/1/1
f 1/1/1 1/1/1 1/1/1
f 1/1/1 1/1/1 1/1/1
f 1/1/1 1/1/1 1/1/1
f 1/1/1 1/1/1 1/1/1
f 1/1/1 1/1/1 1/1/1
f 1/1/1 1/1/1 1/1/1
f 1/1/1 1/1/1 1/1/1
f 1/1/1 1/1/1 1/1/1
f 1/1/1 1/1/1 1/1/1
f 1/1/1 1/1/1 1/1/1
f 1/1/1 1/1/1 1/1/1
f 1/1/1 1/1/1 1/1/1
f 1/1/1 1/1/1 1/1/1
f 1/1/1 1/1/1 1/1/1
f 1/1/1 1/1/1 1/1/1
f 1/1/1 1/1/1 1/1/1
f 1/1/1 1/1/1 1/1/1
f 1/1/1 1/1/1 1/1/1
f 1/1/1 1/1/1 1/1/1
f 1/1/1 1/1/1 1/1/1
f 1/1/1 1/1/1 1/1/1
f 1/1/1 1/1/1 1/1/1
f 1/1/1 1/1/1 1/1/1
f 1/1/1 1/1/1 1/1/1
f 1/1/1 1/1/1 1/1/1
f 1/1/1 1/1/1 1/1/1
f 1/1/1 1/1/1 1/1/1
f 1/1/1 1/1/1 1/1/1
f 1/1/1 1/1/1 1/1/1
f 1/1/1 1/1/1 1/1/1
f 1/1/1 1/1/1 1/1/1
f 1/1/1 1/1/1 1/1/1
f 1/1/1 1/1/1 1/1/1
f 1/1/1 1/1/1 1/1/1
f 1/1/1 1/1/1 1/1/1
f 1/1/1 1/1/1 1/1/1
f 1/1/1 1/1/1 1/1/1
f 1/1/1 1/1/1 1/1/1
f 1/1/1 1/1/1 1/1/1
f 1/1/1 1/1/1 1/1/1
f 1/1/1 1/1/1 1/1/1
f 1/1/1 1/1/1 1/1/1
f 1/1/1 1/1/1 1/1/1
f 1/1/1 1/1/1 1/1/1
f 1/1/1 1/1/1 1/1/1
f 1/1/1 1/1/1 1/1/1
f 1/1/1 1/1/1 1/1/1
f 1/1/1 1/1/1 1/1/1
f 1/1/1 1/1/1 1/1/1
f 1/1/1 1/1/1 1/1/1
f 1/1/1 1/1/1 1/1/1
f 1/1/1 1/1/1 1/1/1
f 1/1/1 1/1/1 1/1/1
f 1/1/1 1/1/1 1/1/1
f 1/1/1 1/1/1 1/1/1
f 1/1/1 1/1/1 1/1/1
f 1/1/1 1/1/1 1/1/1
f 1/1/1 1/1/1 1/1/1
f 1/1/1 1/1/1 1/1/1
f 1/1/1 1/1/1 1/1/1
f 1/1/1 1/1/1 1/1/1
f 1/1/1 1/1/1 1/1/1
f 1/1/1 1/1/1 1/1/1
f 1/1/1 1/1/1 1/1/1
f 1/1/1 1/1/1 1/1/1
f 1/1/1 1/1/1 1/1/1
f 1/1/1 1/1/1 1/1/1
f 1/1/1 1/1/1 1/1/1
f 1/1/1 1/1/1 1/1/1
f 1/1/1 1/1/1 1/1/1
f 1/1/1 1/1/1 1/1/1
f 1/1/1 1/1/1 1/1/1
f 1/1/1 1/1/1 1/1/1
f 1/1/1 1/1/1 1/1/1
f 1/1/1 1/1/1 1/1/1
f 1/1/1 1/1/1 1/1/1
f 1/1/1 1/1/1 1/1/1
f 1/1/1 1/1/1 1/1/1
f 1/1/1 1/1/1 1/1/1
f 1/1/1 1/1/1 1/1/1
f 1/1/1 1/1/1 1/1/1
f 1/1/1 1/1/1 1/1/1
f 1/1/1 1/1/1 1/1/1
f 1/1/1 1/1/1 1/1/1
f 1/1/1 1/1/1 1/1/1
f 1/1/1 1/1/1 1/1/1
f 1/1/1 1/1/1 1/1/1
f 1/1/1 1/1/1 1/1/1
f 1/1/1 1/1/1 1/1/1
f 1/1/1 1/1/1 1/1/1
f 1/1/1 1/1/1 1/1/1
f 1/1/1 1/1/1 1/1/1
f 1/1/1 1/1/1 1/1/1
f 1/1/1 1/1/1 1/1/1
f 1/1/1 1/1/1 1/1/1
f 1/1/1 1/1/1 1/1/1
f 1/1/1 1/1/1 1/1/1
f 1/1/1 1/1/1 1/1/1
f 1/1/1 1/1/1 1/1/1
f 1/1/1 1/1/1 1/1/1
f 1/1/1 1/1/1 1/1/1
f 1/1/1 1/1/1 1/1/1
f 1/1/1 1/1/1 1/1/1
f 1/1/1 1/1/1 1/1/1
f 1/1/1 1/1/1 1/1/1
f 1/1/1 1/1/1 1/1/1
f 1/1/1 1/1/1 1/1/1
f 1/1/1 1/1/1 1/1/1
f 1/1/1 1/1/1 1/1/1
f 1/1/1 1/1/1 1/1/1
f 1/1/1 1/1/1 1/1/1
f 1/1/1 1/1/1 1/1/1
f 1/1/1 1/1/1 1/1/1
f 1/1/1 1/1/1 1/1/1
f 1/1/1 1/1/1 1/1/1
f 1/1/1 1/1/1 1/1/1
f 1/1/1 1/1/1 1/1/1
f 1/1/1 1/1/1 1/1/1
f 1/1/1 1/1/1 1/1/1
f 1/1/1 1/1/1 1/1/1
f 1/1/1 1/1/1 1/1/1
f 1/1/1 1/1/1 1/1/1
f 1/1/1 1/1/1 1/1/1
f 1/1/1 1/1/1 1/1/1
f 1/1/1 1/1/1 1/1/1
f 1/1/1 1/1/1 1/1/1
f 1/1/1 1/1/1 1/1/1
f 1/1/1 1/1/1 1/1/1
f 1/1/1 1/1/1 1/1/1
f 1/1/1 1/1/1 1/1/1
f 1/1/1 1/1/1 1/1/1
f 1/1/1 1/1/1 1/1/1
f 1/1/1 1/1/1 1/1/1
f 1/1/1 1/1/1 1/1/1
f 1/1/1 1/1/1 1/1/1
f 1/1/1 1/1/1 1/1/1
f 1/1/1 1/1/1 1/1/1
f 1/1/1 1/1/1 1/1/1
f 1/1/1 1/1/1 1/1/1
f 1/1/1 1/1/1 1/1/1
f 1/1/1 1/1/1 1/1/1
f 1/1/1 1/1/1 1/1/1
f 1/1/1 1/1/1 1/1/1
f 1/1/1 1/1/1 1/1/1
f 1/1/1 1/1/1 1/1/1
f 1/1/1 1/1/1 1/1/1
f 1/1/1 1/1/1 1/1/1
f 1/1/1 1/1/1 1/1/1
f 1/1/1 1/1/1 1/1/1
f 1/1/1 1/1/1 1/1/1
f 1/1/1 1/1/1 1/1/1
f 1/1/1 1/1/1 1/1/1
f 1/1/1 1/1/1 1/1/1
f 1/1/1 1/1/1 1/1/1
f 1/1/1 1/1/1 1/1/1
f 1/1/1 1/1/1 1/1/1
f 1/1/1 1/1/1 1/1/1
f 1/1/1 1/1/1 1/1/1
f 1/1/1 1/1/1 1/1/1
f 1/1/1 1/1/1 1/1/1
f 1/1/1 1/1/1 1/1/1
f 1/1/1 1/1/1 1/1/1
f 1/1/1 1/1/1 1/1/1
f 1/1/1 1/1/1 1/1/1
f 1/1/1 1/1/1 1/1/1
f 1/1/1 1/1/1 1/1/1
f 1/1/1 1/1/1 1/1/1
f 1/1/1 1/1/1 1/1/1
f 1/1/1 1/1/1 1/1/1
f 1/1/1 1/1/1 1/1/1
f 1/1/1 1/1/1 1/1/1
f 1/1/1 1/1/1 1/1/1
f 1/1/1 1/1/1 1/1/1
f 1/1/1 1/1/1 1/1/1
f 1/1/1 1/1/1 1/1/1
f 1/1/1 1/1/1 1/1/1
f 1/1/1 1/1/1 1/1/1
f 1/1/1 1/1/1 1/1/1
f 1/1/1 1/1/1 1/1/1
f 1/1/1 1/1/1 1/1/1
f 1/1/1 1/1/1 1/1/1
f 1/1/1 1/1/1 1/1/1
f 1/1/1 1/1/1 1/1/1
f 1/1/1 1/1/1 1/1/1
f 1/1/1 1/1/1 1/1/1
f 1/1/1 1/1/1 1/1/1
f 1/1/1 1/1/1 1/1/1
f 1/1/1 1/1/1 1/1/1
f 1/1/1 1/1/1 1/1/1
f 1/1/1 1/1/1 1/1/1
f 1/1/1 1/1/1 1/1/1
f 1/1/1 1/1/1 1/1/1
f 1/1/1 1/1/1 1/1/1
f 1/1/1 1/1/1 1/1/1
f 1/1/1 1/1/1 1/1/1
f 1/1/1 1/1/1 1/1/1
f 1/1/1 1/1/1 1/1/1
f 1/1/1 1/1/1 1/1/1
f 1/1/1 1/1/1 1/1/1
f 1/1/1 1/1/1 1/1/1
f 1/1/1 1/1/1 1/1/1
f 1/1/1 1/1/1 1/1/1
f 1/1/1 1/1/1 1/1/1
f 1/1/1 1/1/1 1/1/1
f 1/1/1 1/1/1 1/1/1
f 1/1/1 1/1/1 1/1/1
f 1/1/1 1/1/1 1/1/1
f 1/1/1 1/1/1 1/1/1
f 1/1/1 1/1/1 1/1/1
f 1/1/1 1/1/1 1/1/1
f 1/1/1 1/1/1 1/1/1
f 1/1/1 1/1/1 1/1/1
f 1/1/1 1/1/1 1/1/1
f 1/1/1 1/1/1 1/1/1
f 1/1/1 1/1/1 1/1/1
f 1/1/1 1/1/1 1/1/1
f 1/1/1 1/1/1 1/1/1
f 1/1/1 1/1/1 1/1/1
f 1/1/1 1/1/1 1/1/1
f 1/1/1 1/1/1 1/1/1
f 1/1/1 1/1/1 1/1/1
f 1/1/1 1/1/1 1/1/1
f 1/1/1 1/1/1 1/1/1
f 1/1/1 1/1/1 1/1/1
f 1/1/1 1/1/1 1/1/1
f 1/1/1 1/1/1 1/1/1
f 1/1/1 1/1/1 1/1/1
f 1/1/1 1/1/1 1/1/1
f 1/1/1 1/1/1 1/1/1
f 1/1/1 1/1/1 1/1/1
f 1/1/1 1/1/1 1/1/1
f 1/1/1 1/1/1 1/1/1
f 1/1/1 1/1/1 1/1/1
f 1/1/1 1/1/1 1/1/1
f 1/1/1 1/1/1 1/1/1
f 1/1/1 1/1/1 1/1/1
f 1/1/1 1/1/1 1/1/1
f 1/1/1 1/1/1 1/1/1
f 1/1/1 1/1/1 1/1/1
f 1/1/1 1/1/1 1/1/1
f 1/1/1 1/1/1 1/1/1
f 1/1/1 1/1/1 1/1/1
f 1/1/1 1/1/1 1/1/1
f 1/1/1 1/1/1 1/1/1
f 1/1/1 1/1/1 1/1/1
f 1/1/1 1/1/1 1/1/1
f 1/1/1 1/1/1 1/1/1
f 1/1/1 1/1/1 1/1/1
f 1/1/1 1/1/1 1/1/1
f 1/1/1 1/1/1 1/1/1
f 1/1/1 1/1/1 1/1/1
f 1/1/1 1/1/1 1/1/1
f 1/1/1 1/1/1 1/1/1
f 1/1/1 1/1/1 1/1/1
f 1/1/1 1/1/1 1/1/1
f 1/1/1 1/1/1 1/1/1
f 1/1/1 1/1/1 1/1/1
f 1/1/1 1/1/1 1/1/1
f 1/1/1 1/1/1 1/1/1
f 1/1/1 1/1/1 1/1/1
f 1/1/1 1/1/1 1/1/1
f 1/1/1 1/1/1 1/1/1
f 1/1/1 1/1/1 1/1/1
f 1/1/1 1/1/1 1/1/1
f 1/1/1 1/1/1 1/1/1
f 1/1/1 1/1/1 1/1/1
f 1/1/1 1/1/1 1/1/1
f 1/1/1 1/1/1 1/1/1
f 1/1/1 1/1/1 1/1/1
f 1/1/1 1/1/1 1/1/1
f 1/1/1 1/1/1 1/1/1
f 1/1/1 1/1/1 1/1/1
f 1/1/1 1/1/1 1/1/1
f 1/1/1 1/1/1 1/1/1
f 1/1/1 1/1/1 1/1/1
f 1/1/1 1/1/1 1/1/1
f 1/1/1 1/1/1 1/1/1
f 1/1/1 1/1/1 1/1/1
f 1/1/1 1/1/1 1/1/1
f 1/1/1 1/1/1 1/1/1
f 1/1/1 1/1/1 1/1/1
f 1/1/1 1/1/1 1/1/1
f 1/1/1 1/1/1 1/1/1
f 1/1/1 1/1/1 1/1/1
f 1/1/1 1/1/1 1/1/1
f 1/1/1 1/1/1 1/1/1
f 1/1/1 1/1/1 1/1/1
f 1/1/1 1/1/1 1/1/1
f 1/1/1 1/1/1 1/1/1
f 1/1/1 1/1/1 1/1/1
f 1/1/1 1/1/1 1/1/1
f 1/1/1 1/1/1 1/1/1
f 1/1/1 1/1/1 1/1/1
f 1/1/1 1/1/1 1/1/1
f 1/1/1 1/1/1 1/1/1
f 1/1/1 1/1/1 1/1/1
f 1/1/1 1/1/1 1/1/1
f 1/1/1 1/1/1 1/1/1
f 1/1/1 1/1/1 1/1/1
f 1/1/1 1/1/1 1/1/1
f 1/1/1 1/1/1 1/1/1
f 1/1/1 1/1/1 1/1/1
f 1/1/1 1/1/1 1/1/1
f 1/1/1 1/1/1 1/1/1
f 1/1/1 1/1/1 1/1/1
f 1/1/1 1/1/1 1/1/1
f 1/1/1 1/1/1 1/1/1
f 1/1/1 1/1/1 1/1/1
f 1/1/1 1/1/1 1/1/1
f 1/1/1 1/1/1 1/1/1
f 1/1/1 1/1/1 1/1/1
f 1/1/1 1/1/1 1/1/1
f 1/1/1 1/1/1 1/1/1
f 1/1/1 1/1/1 1/1/1
f 1/1/1 1/1/1 1/1/1
f 1/1/1 1/1/1 1/1/1
f 1/1/1 1/1/1 1/1/1
f 1/1/1 1/1/1 1/1/1
f 1/1/1 1/1/1 1/1/1
f 1/1/1 1/1/1 1/1/1
f 1/1/1 1/1/1 1/1/1
f 1/1/1 1/1/1 1/1/1
f 1/1/1 1/1/1 1/1/1
f 1/1/1 1/1/1 1/1/1
f 1/1/1 1/1/1 1/1/1
f 1/1/1 1/1/1 1/1/1
f 1/1/1 1/1/1 1/1/1
f 1/1/1 1/1/1 1/1/1
f 1/1/1 1/1/1 1/1/1
f 1/1/1 1/1/1 1/1/1
f 1/1/1 1/1/1 1/1/1
f 1/1/1 1/1/1 1/1/1
f 1/1/1 1/1/1 1/1/1
f 1/1/1 1/1/1 1/1/1
f 1/1/1 1/1/1 1/1/1
f 1/1/1 1/1/1 1/1/1
f 1/1/1 1/1/1 1/1/1
f 1/1/1 1/1/1 1/1/1
f 1/1/1 1/1/1 1/1/1
f 1/1/1 1/1/1 1/1/1
f 1/1/1 1/1/1 1/1/1
f 1/1/1 1/1/1 1/1/1
f 1/1/1 1/1/1 1/1/1
f 1/1/1 1/1/1 1/1/1
f 1/1/1 1/1/1 1/1/1
f 1/1/1 1/1/1 1/1/1
f 1/1/1 1/1/1 1/1/1
f 1/1/1 1/1/1 1/1/1
f 1/1/1 1/1/1 1/1/1
f 1/1/1 1/1/1 1/1/1
f 1/1/1 1/1/1 1/1/1
f 1/1/1 1/1/1 1/1/1
f 1/1/1 1/1/1 1/1/1
f 1/1/1 1/1/1 1/1/1
f 1/1/1 1/1/1 1/1/1
f 1/1/1 1/1/1 1/1/1
f 1/1/1 1/1/1 1/1/1
f 1/1/1 1/1/1 1/1/1
f 1/1/1 1/1/1 1/1/1
f 1/1/1 1/1/1 1/1/1
f 1/1/1 1/1/1 1/1/1
f 1/1/1 1/1/1 1/1/1
f 1/1/1 1/1/1 1/1/1
f 1/1/1 1/1/1 1/1/1
f 1/1/1 1/1/1 1/1/1
f 1/1/1 1/1/1 1/1/1
f 1/1/1 1/1/1 1/1/1
f 1/1/1 1/1/1 1/1/1
f 1/1/1 1/1/1 1/1/1
f 1/1/1 1/1/1 1/1/1
f 1/1/1 1/1/1 1/1/1
f 1/1/1 1/1/1 1/1/1
f 1/1/1 1/1/1 1/1/1
f 1/1/1 1/1/1 1/1/1
f 1/1/1 1/1/1 1/1/1
f 1/1/1 1/1/1 1/1/1
f 1/1/1 1/1/1 1/1/1
f 1/1/1 1/1/1 1/1/1
f 1/1/1 1/1/1 1/1/1
f 1/1/1 1/1/1 1/1/1
f 1/1/1 1/1/1 1/1/1
f 1/1/1 1/1/1 1/1/1
f 1/1/1 1/1/1 1/1/1
f 1/1/1 1/1/1 1/1/1
f 1/1/1 1/1/1 1/1/1
f 1/1/1 1/1/1 1/1/1
f 1/1/1 1/1/1 1/1/1
f 1/1/1 1/1/1 1/1/1
f 1/1/1 1/1/1 1/1/1
f 1/1/1 1/1/1 1/1/1
f 1/1/1 1/1/1 1/1/1
f 1/1/1 1/1/1 1/1/1
f 1/1/1 1/1/1 1/1/1
f 1/1/1 1/1/1 1/1/1
f 1/1/1 1/1/1 1/1/1
f 1/1/1 1/1/1 1/1/1
f 1/1/1 1/1/1 1/1/1
f 1/1/1 1/1/1 1/1/1
f 1/1/1 1/1/1 1/1/1
f 1/1/1 1/1/1 1/1/1
f 1/1/1 1/1/1 1/1/1
f 1/1/1 1/1/1 1/1/1
f 1/1/1 1/1/1 1/1/1
f 1/1/1 1/1/1 1/1/1
f 1/1/1 1/1/1 1/1/1
f 1/1/1 1/1/1 1/1/1
f 1/1/1 1/1/1 1/1/1
f 1/1/1 1/1/1 1/1/1
f 1/1/1 1/1/1 1/1/1
f 1/1/1 1/1/1 1/1/1
f 1/1/1 1/1/1 1/1/1
f 1/1/1 1/1/1 1/1/1
f 1/1/1 1/1/1 1/1/1
f 1/1/1 1/1/1 1/1/1
f 1/1/1 1/1/1 1/1/1
f 1/1/1 1/1/1 1/1/1
f 1/1/1 1/1/1 1/1/1
f 1/1/1 1/1/1 1/1/1
f 1/1/1 1/1/1 1/1/1
f 1/1/1 1/1/1 1/1/1
f 1/1/1 1/1/1 1/1/1
f 1/1/1 1/1/1 1/1/1
f 1/1/1 1/1/1 1/1/1
f 1/1/1 1/1/1 1/1/1
f 1/1/1 1/1/1 1/1/1
f 1/1/1 1/1/1 1/1/1
f 1/1/1 1/1/1 1/1/1
f 1/1/1 1/1/1 1/1/1
f 1/1/1 1/1/1 1/1/1
f 1/1/1 1/1/1 1/1/1
f 1/1/1 1/1/1 1/1/1
f 1/1/1 1/1/1 1/1/1
f 1/1/1 1/1/1 1/1/1
f 1/1/1 1/1/1 1/1/1
f 1/1/1 1/1/1 1/1/1
f 1/1/1 1/1/1 1/1/1
f 1/1/1 1/1/1 1/1/1
f 1/1/1 1/1/1 1/1/1
f 1/1/1 1/1/1 1/1/1
f 1/1/1 1/1/1 1/1/1
f 1/1/1 1/1/1 1/1/1
f 1/1/1 1/1/1 1/1/1
f 1/1/1 1/1/1 1/1/1
f 1/1/1 1/1/1 1/1/1
f 1/1/1 1/1/1 1/1/1
f 1/1/1 1/1/1 1/1/1
f 1/1/1 1/1/1 1/1/1
f 1/1/1 1/1/1 1/1/1
f 1/1/1 1/1/1 1/1/1
f 1/1/1 1/1/1 1/1/1
f 1/1/1 1/1/1 1/1/1
f 1/1/1 1/1/1 1/1/1
f 1/1/1 1/1/1 1/1/1
f 1/1/1 1/1/1 1/1/1
f 1/1/1 1/1/1 1/1/1
f 1/1/1 1/1/1 1/1/1
f 1/1/1 1/1/1 1/1/1
f 1/1/1 1/1/1 1/1/1
f 1/1/1 1/1/1 1/1/1
f 1/1/1 1/1/1 1/1/1
f 1/1/1 1/1/1 1/1/1
f 1/1/1 1/1/1 1/1/1
f 1/1/1 1/1/1 1/1/1
f 1/1/1 1/1/1 1/1/1
f 1/1/1 1/1/1 1/1/1
f 1/1/1 1/1/1 1/1/1
f 1/1/1 1/1/1 1/1/1
f 1/1/1 1/1/1 1/1/1
f 1/1/1 1/1/1 1/1/1
f 1/1/1 1/1/1 1/1/1
f 1/1/1 1/1/1 1/1/1
f 1/1/1 1/1/1 1/1/1
f 1/1/1 1/1/1 1/1/1
f 1/1/1 1/1/1 1/1/1
f 1/1/1 1/1/1 1/1/1
f 1/1/1 1/1/1 1/1/1
f 1/1/1 1/1/1 1/1/1
f 1/1/1 1/1/1 1/1/1
f 1/1/1 1/1/1 1/1/1
f 1/1/1 1/1/1 1/1/1
f 1/1/1 1/1/1 1/1/1
f 1/1/1 1/1/1 1/1/1
f 1/1/1 1/1/1 1/1/1
f 1/1/1 1/1/1 1/1/1
f 1/1/1 1/1/1 1/1/1
f 1/1/1 1/1/1 1/1/1
f 1/1/1 1/1/1 1/1/1
f 1/1/1 1/1/1 1/1/1
f 1/1/1 1/1/1 1/1/1
f 1/1/1 1/1/1 1/1/1
f 1/1/1 1/1/1 1/1/1
f 1/1/1 1/1/1 1/1/1
f 1/1/1 1/1/1 1/1/1
f 1/1/1 1/1/1 1/1/1
f 1/1/1 1/1/1 1/1/1
f 1/1/1 1/1/1 1/1/1
f 1/1/1 1/1/1 1/1/1
f 1/1/1 1/1/1 1/1/1
f 1/1/1 1/1/1 1/1/1
f 1/1/1 1/1/1 1/1/1
f 1/1/1 1/1/1 1/1/1
f 1/1/1 1/1/1 1/1/1
f 1/1/1 1/1/1 1/1/1
f 1/1/1 1/1/1 1/1/1
f 1/1/1 1/1/1 1/1/1
f 1/1/1 1/1/1 1/1/1
f 1/1/1 1/1/1 1/1/1
f 1/1/1 1/1/1 1/1/1
f 1/1/1 1/1/1 1/1/1
f 1/1/1 1/1/1 1/1/1
f 1/1/1 1/1/1 1/1/1
f 1/1/1 1/1/1 1/1/1
f 1/1/1 1/1/1 1/1/1
f 1/1/1 1/1/1 1/1/1
f 1/1/1 1/1/1 1/1/1
f 1/1/1 1/1/1 1/1/1
f 1/1/1 1/1/1 1/1/1
f 1/1/1 1/1/1 1/1/1
f 1/1/1 1/1/1 1/1/1
f 1/1/1 1/1/1 1/1/1
f 1/1/1 1/1/1 1/1/1
f 1/1/1 1/1/1 1/1/1
f 1/1/1 1/1/1 1/1/1
f 1/1/1 1/1/1 1/1/1
f 1/1/1 1/1/1 1/1/1
f 1/1/1 1/1/1 1/1/1
f 1/1/1 1/1/1 1/1/1
f 1/1/1 1/1/1 1/1/1
f 1/1/1 1/1/1 1/1/1
f 1/1/1 1/1/1 1/1/1
f 1/1/1 1/1/1 1/1/1
f 1/1/1 1/1/1 1/1/1
f 1/1/1 1/1/1 1/1/1
f 1/1/1 1/1/1 1/1/1
f 1/1/1 1/1/1 1/1/1
f 1/1/1 1/1/1 1/1/1
f 1/1/1 1/1/1 1/1/1
f 1/1/1 1/1/1 1/1/1
f 1/1/1 1/1/1 1/1/1
f 1/1/1 1/1/1 1/1/1
f 1/1/1 1/1/1 1/1/1
f 1/1/1 1/1/1 1/1/1
f 1/1/1 1/1/1 1/1/1
f 1/1/1 1/1/1 1/1/1
f 1/1/1 1/1/1 1/1/1
f 1/1/1 1/1/1 1/1/1
f 1/1/1 1/1/1 1/1/1
f 1/1/1 1/1/1 1/1/1
f 1/1/1 1/1/1 1/1/1
f 1/1/1 1/1/1 1/1/1
f 1/1/1 1/1/1 1/1/1
f 1/1/1 1/1/1 1/1/1
f 1/1/1 1/1/1 1/1/1
f 1/1/1 1/1/1 1/1/1
f 1/1/1 1/1/1 1/1/1
f 1/1/1 1/1/1 1/1/1
f 1/1/1 1/1/1 1/1/1
f 1/1/1 1/1/1 1/1/1
f 1/1/1 1/1/1 1/1/1
f 1/1/1 1/1/1 1/1/1
f 1/1/1 1/1/1 1/1/1
f 1/1/1 1/1/1 1/1/1
f 1/1/1 1/1/1 1/1/1
f 1/1/1 1/1/1 1/1/1
f 1/1/1 1/1/1 1/1/1
f 1/1/1 1/1/1 1/1/1
f 1/1/1 1/1/1 1/1/1
f 1/1/1 1/1/1 1/1/1
f 1/1/1 1/1/1 1/1/1
f 1/1/1 1/1/1 1/1/1
f 1/1/1 1/1/1 1/1/1
f 1/1/1 1/1/1 1/1/1
f 1/1/1 1/1/1 1/1/1
f 1/1/1 1/1/1 1/1/1
f 1/1/1 1/1/1 1/1/1
f 1/1/1 1/1/1 1/1/1
f 1/1/1 1/1/1 1/1/1
f 1/1/1 1/1/1 1/1/1
f 1/1/1 1/1/1 1/1/1
f 1/1/1 1/1/1 1/1/1
f 1/1/1 1/1/1 1/1/1
f 1/1/1 1/1/1 1/1/1
f 1/1/1 1/1/1 1/1/1
f 1/1/1 1/1/1 1/1/1
f 1/1/1 1/1/1 1/1/1
f 1/1/1 1/1/1 1/1/1
f 1/1/1 1/1/1 1/1/1
f 1/1/1 1/1/1 1/1/1
f 1/1/1 1/1/1 1/1/1
f 1/1/1 1/1/1 1/1/1
f 1/1/1 1/1/1 1/1/1
f 1/1/1 1/1/1 1/1/1
f 1/1/1 1/1/1 1/1/1
f 1/1/1 1/1/1 1/1/1
f 1/1/1 1/1/1 1/1/1
f 1/1/1 1/1/1 1/1/1
f 1/1/1 1/1/1 1/1/1
f 1/1/1 1/1/1 1/1/1
f 1/1/1 1/1/1 1/1/1
f 1/1/1 1/1/1 1/1/1
f 1/1/1 1/1/1 1/1/1
f 1/1/1 1/1/1 1/1/1
f 1/1/1 1/1/1 1/1/1
f 1/1/1 1/1/1 1/1/1
f 1/1/1 1/1/1 1/1/1
f 1/1/1 1/1/1 1/1/1
f 1/1/1 1/1/1 1/1/1
f 1/1/1 1/1/1 1/1/1
f 1/1/1 1/1/1 1/1/1
f 1/1/1 1/1/1 1/1/1
f 1/1/1 1/1/1 1/1/1
f 1/1/1 1/1/1 1/1/1
f 1/1/1 1/1/1 1/1/1
f 1/1/1 1/1/1 1/1/1
f 1/1/1 1/1/1 1/1/1
f 1/1/1 1/1/1 1/1/1
f 1/1/1 1/1/1 1/1/1
f 1/1/1 1/1/1 1/1/1
f 1/1/1 1/1/1 1/1/1
f 1/1/1 1/1/1 1/1/1
f 1/1/1 1/1/1 1/1/1
f 1/1/1 1/1/1 1/1/1
f 1/1/1 1/1/1 1/1/1
f 1/1/1 1/1/1 1/1/1
f 1/1/1 1/1/1 1/1/1
f 1/1/1 1/1/1 1/1/1
f 1/1/1 1/1/1 1/1/1
f 1/1/1 1/1/1 1/1/1
f 1/1/1 1/1/1 1/1/1
f 1/1/1 1/1/1 1/1/1
f 1/1/1 1/1/1 1/1/1
f 1/1/1 1/1/1 1/1/1
f 1/1/1 1/1/1 1/1/1
f 1/1/1 1/1/1 1/1/1
f 1/1/1 1/1/1 1/1/1
f 1/1/1 1/1/1 1/1/1
f 1/1/1 1/1/1 1/1/1
f 1/1/1 1/1/1 1/1/1
f 1/1/1 1/1/1 1/1/1
f 1/1/1 1/1/1 1/1/1
f 1/1/1 1/1/1 1/1/1
f 1/1/1 1/1/1 1/1/1
f 1/1/1 1/1/1 1/1/1
f 1/1/1 1/1/1 1/1/1
f 1/1/1 1/1/1 1/1/1
f 1/1/1 1/1/1 1/1/1
f 1/1/1 1/1/1 1/1/1
f 1/1/1 1/1/1 1/1/1
f 1/1/1 1/1/1 1/1/1
f 1/1/1 1/1/1 1/1/1
f 1/1/1 1/1/1 1/1/1
f 1/1/1 1/1/1 1/1/1
f 1/1/1 1/1/1 1/1/1
f 1/1/1 1/1/1 1/1/1
f 1/1/1 1/1/1 1/1/1
f 1/1/1 1/1/1 1/1/1
f 1/1/1 1/1/1 1/1/1
f 1/1/1 1/1/1 1/1/1
f 1/1/1 1/1/1 1/1/1
f 1/1/1 1/1/1 1/1/1
f 1/1/1 1/1/1 1/1/1
f 1/1/1 1/1/1 1/1/1
f 1/1/1 1/1/1 1/1/1
f 1/1/1 1/1/1 1/1/1
f 1/1/1 1/1/1 1/1/1
f 1/1/1 1/1/1 1/1/1
f 1/1/1 1/1/1 1/1/1
f 1/1/1 1/1/1 1/1/1
f 1/1/1 1/1/1 1/1/1
f 1/1/1 1/1/1 1/1/1
f 1/1/1 1/1/1 1/1/1
f 1/1/1 1/1/1 1/1/1
f 1/1/1 1/1/1 1/1/1
f 1/1/1 1/1/1 1/1/1
f 1/1/1 1/1/1 1/1/1
f 1/1/1 1/1/1 1/1/1
f 1/1/1 1/1/1 1/1/1
f 1/1/1 1/1/1 1/1/1
f 1/1/1 1/1/1 1/1/1
f 1/1/1 1/1/1 1/1/1
f 1/1/1 1/1/1 1/1/1
f 1/1/1 1/1/1 1/1/1
f 1/1/1 1/1/1 1/1/1
f 1/1/1 1/1/1 1/1/1
f 1/1/1 1/1/1 1/1/1
f 1/1/1 1/1/1 1/1/1
f 1/1/1 1/1/1 1/1/1
f 1/1/1 1/1/1 1/1/1
f 1/1/1 1/1/1 1/1/1
f 1/1/1 1/1/1 1/1/1
f 1/1/1 1/1/1 1/1/1
f 1/1/1 1/1/1 1/1/1
f 1/1/1 1/1/1 1/1/1
f 1/1/1 1/1/1 1/1/1
f 1/1/1 1/1/1 1/1/1
f 1/1/1 1/1/1 1/1/1
f 1/1/1 1/1/1 1/1/1
f 1/1/1 1/1/1 1/1/1
f 1/1/1 1/1/1 1/1/1
f 1/1/1 1/1/1 1/1/1
f 1/1/1 1/1/1 1/1/1
f 1/1/1 1/1/1 1/1/1
f 1/1/1 1/1/1 1/1/1
f 1/1/1 1/1/1 1/1/1
f 1/1/1 1/1/1 1/1/1
f 1/1/1 1/1/1 1/1/1
f 1/1/1 1/1/1 1/1/1
f 1/1/1 1/1/1 1/1/1
f 1/1/1 1/1/1 1/1/1
f 1/1/1 1/1/1 1/1/1
f 1/1/1 1/1/1 1/1/1
f 1/1/1 1/1/1 1/1/1
f 1/1/1 1/1/1 1/1/1
f 1/1/1 1/1/1 1/1/1
f 1/1/1 1/1/1 1/1/1
f 1/1/1 1/1/1 1/1/1
f 1/1/1 1/1/1 1/1/1
f 1/1/1 1/1/1 1/1/1
f 1/1/1 1/1/1 1/1/1
f 1/1/1 1/1/1 1/1/1
f 1/1/1 1/1/1 1/1/1
f 1/1/1 1/1/1 1/1/1
f 1/1/1 1/1/1 1/1/1
f 1/1/1 1/1/1 1/1/1
f 1/1/1 1/1/1 1/1/1
f 1/1/1 1/1/1 1/1/1
f 1/1/1 1/1/1 1/1/1
f 1/1/1 1/1/1 1/1/1
f 1/1/1 1/1/1 1/1/1
f 1/1/1 1/1/1 1/1/1
f 1/1/1 1/1/1 1/1/1
f 1/1/1 1/1/1 1/1/1
f 1/1/1 1/1/1 1/1/1
f 1/1/1 1/1/1 1/1/1
f 1/1/1 1/1/1 1/1/1
f 1/1/1 1/1/1 1/1/1
f 1/1/1 1/1/1 1/1/1
f 1/1/1 1/1/1 1/1/1
f 1/1/1 1/1/1 1/1/1
f 1/1/1 1/1/1 1/1/1
f 1/1/1 1/1/1 1/1/1
f 1/1/1 1/1/1 1/1/1
f 1/1/1 1/1/1 1/1/1
f 1/1/1 1/1/1 1/1/1
f 1/1/1 1/1/1 1/1/1
f 1/1/1 1/1/1 1/1/1
f 1/1/1 1/1/1 1/1/1
f 1/1/1 1/1/1 1/1/1
f 1/1/1 1/1/1 1/1/1
f 1/1/1 1/1/1 1/1/1
f 1/1/1 1/1/1 1/1/1
f 1/1/1 1/1/1 1/1/1
f 1/1/1 1/1/1 1/1/1
f 1/1/1 1/1/1 1/1/1
f 1/1/1 1/1/1 1/1/1
f 1/1/1 1/1/1 1/1/1
f 1/1/1 1/1/1 1/1/1
f 1/1/1 1/1/1 1/1/1
f 1/1/1 1/1/1 1/1/1
f 1/1/1 1/1/1 1/1/1
f 1/1/1 1/1/1 1/1/1
f 1/1/1 1/1/1 1/1/1
f 1/1/1 1/1/1 1/1/1
f 1/1/1 1/1/1 1/1/1
f 1/1/1 1/1/1 1/1/1
f 1/1/1 1/1/1 1/1/1
f 1/1/1 1/1/1 1/1/1
f 1/1/1 1/1/1 1/1/1
f 1/1/1 1/1/1 1/1/1
f 1/1/1 1/1/1 1/1/1
f 1/1/1 1/1/1 1/1/1
f 1/1/1 1/1/1 1/1/1
f 1/1/1 1/1/1 1/1/1
f 1/1/1 1/1/1 1/1/1
f 1/1/1 1/1/1 1/1/1
f 1/1/1 1/1/1 1/1/1
f 1/1/1 1/1/1 1/1/1
f 1/1/1 1/1/1 1/1/1
f 1/1/1 1/1/1 1/1/1
f 1/1/1 1/1/1 1/1/1
f 1/1/1 1/1/1 1/1/1
f 1/1/1 1/1/1 1/1/1
f 1/1/1 1/1/1 1/1/1
f 1/1/1 1/1/1 1/1/1
f 1/1/1 1/1/1 1/1/1
f 1/1/1 1/1/1 1/1/1
f 1/1/1 1/1/1 1/1/1
f 1/1/1 1/1/1 1/1/1
f 1/1/1 1/1/1 1/1/1
f 1/1/1 1/1/1 1/1/1
f 1/1/1 1/1/1 1/1/1
f 1/1/1 1/1/1 1/1/1
f 1/1/1 1/1/1 1/1/1
f 1/1/1 1/1/1 1/1/1
f 1/1/1 1/1/1 1/1/1
f 1/1/1 1/1/1 1/1/1
f 1/1/1 1/1/1 1/1/1
f 1/1/1 1/1/1 1/1/1
f 1/1/1 1/1/1 1/1/1
f 1/1/1 1/1/1 1/1/1
f 1/1/1 1/1/1 1/1/1
f 1/1/1 1/1/1 1/1/1
f 1/1/1 1/1/1 1/1/1
f 1/1/1 1/1/1 1/1/1
f 1/1/1 1/1/1 1/1/1
f 1/1/1 1/1/1 1/1/1
f 1/1/1 1/1/1 1/1/1
f 1/1/1 1/1/1 1/1/1
f 1/1/1 1/1/1 1/1/1
f 1/1/1 1/1/1 1/1/1
f 1/1/1 1/1/1 1/1/1
f 1/1/1 1/1/1 1/1/1
f 1/1/1 1/1/1 1/1/1
f 1/1/1 1/1/1 1/1/1
f 1/1/1 1/1/1 1/1/1
f 1/1/1 1/1/1 1/1/1
f 1/1/1 1/1/1 1/1/1
f 1/1/1 1/1/1 1/1/1
f 1/1/1 1/1/1 1/1/1
f 1/1/1 1/1/1 1/1/1
f 1/1/1 1/1/1 1/1/1
f 1/1/1 1/1/1 1/1/1
f 1/1/1 1/1/1 1/1/1
f 1/1/1 1/1/1 1/1/1
f 1/1/1 1/1/1 1/1/1
f 1/1/1 1/1/1 1/1/1
f 1/1/1 1/1/1 1/1/1
f 1/1/1 1/1/1 1/1/1
f 1/1/1 1/1/1 1/1/1
f 1/1/1 1/1/1 1/1/1
f 1/1/1 1/1/1 1/1/1
f 1/1/1 1/1/1 1/1/1
f 1/1/1 1/1/1 1/1/1
f 1/1/1 1/1/1 1/1/1
f 1/1/1 1/1/1 1/1/1
f 1/1/1 1/1/1 1/1/1
f 1/1/1 1/1/1 1/1/1
f 1/1/1 1/1/1 1/1/1
f 1/1/1 1/1/1 1/1/1
f 1/1/1 1/1/1 1/1/1
f 1/1/1 1/1/1 1/1/1
f 1/1/1 1/1/1 1/1/1
f 1/1/1 1/1/1 1/1/1
f 1/1/1 1/1/1 1/1/1
f 1/1/1 1/1/1 1/1/1
f 1/1/1 1/1/1 1/1/1
f 1/1/1 1/1/1 1/1/1
f 1/1/1 1/1/1 1/1/1
f 1/1/1 1/1/1 1/1/1
f 1/1/1 1/1/1 1/1/1
f 1/1/1 1/1/1 1/1/1
f 1/1/1 1/1/1 1/1/1
f 1/1/1 1/1/1 1/1/1
f 1/1/1 1/1/1 1/1/1
f 1/1/1 1/1/1 1/1/1
f 1/1/1 1/1/1 1/1/1
f 1/1/1 1/1/1 1/1/1
f 1/1/1 1/1/1 1/1/1
f 1/1/1 1/1/1 1/1/1
f 1/1/1 1/1/1 1/1/1
f 1/1/1 1/1/1 1/1/1
f 1/1/1 1/1/1 1/1/1
f 1/1/1 1/1/1 1/1/1
f 1/1/1 1/1/1 1/1/1
f 1/1/1 1/1/1 1/1/1
f 1/1/1 1/1/1 1/1/1
f 1/1/1 1/1/1 1/1/1
f 1/1/1 1/1/1 1/1/1
f 1/1/1 1/1/1 1/1/1
f 1/1/1 1/1/1 1/1/1
f 1/1/1 1/1/1 1/1/1
f 1/1/1 1/1/1 1/1/1
f 1/1/1 1/1/1 1/1/1
f 1/1/1 1/1/1 1/1/1
f 1/1/1 1/1/1 1/1/1
f 1/1/1 1/1/1 1/1/1
f 1/1/1 1/1/1 1/1/1
f 1/1/1 1/1/1 1/1/1
f 1/1/1 1/1/1 1/1/1
f 1/1/1 1/1/1 1/1/1
f 1/1/1 1/1/1 1/1/1
f 1/1/1 1/1/1 1/1/1
f 1/1/1 1/1/1 1/1/1
f 1/1/1 1/1/1 1/1/1
f 1/1/1 1/1/1 1/1/1
f 1/1/1 1/1/1 1/1/1
