g DoubleRollerPumpTube1
v 3.346103 0.3386608 -5.97653
v 2.993393 0.4851074 -6.000942
v 2.640678 0.3386607 -6.02527
v 2.494573 -0.01489265 -6.035262
v 2.640664 -0.368446 -6.025065
v 2.993373 -0.5148925 -6.000653
v 3.346089 -0.3684458 -5.976325
v 3.492194 -0.01489247 -5.966333
v 3.346103 0.3386608 -5.97653
v 3.335006 0.3401115 -5.763419
v 2.981702 0.4865454 -5.776816
v 2.628272 0.3401115 -5.786363
v 2.481752 -0.01341135 -5.786466
v 2.62797 -0.3669342 -5.777065
v 2.981275 -0.513368 -5.763667
v 3.334705 -0.3669339 -5.754121
v 3.481225 -0.01341117 -5.754018
v 3.335006 0.3401115 -5.763419
v 3.331531 0.344378 -5.554357
v 2.977968 0.4907754 -5.556995
v 2.624429 0.344378 -5.552041
v 2.478013 -0.009056613 -5.542396
v 2.624489 -0.3624912 -5.53371
v 2.978052 -0.5088885 -5.531071
v 3.331592 -0.362491 -5.536025
v 3.478007 -0.009056441 -5.54567
v 3.331531 0.344378 -5.554357
v 3.335207 0.351329 -5.349104
v 2.981695 0.4976669 -5.341309
v 2.628611 0.351329 -5.322239
v 2.482788 -0.001962088 -5.303067
v 2.629646 -0.3552531 -5.295022
v 2.983158 -0.501591 -5.302818
v 3.336242 -0.3552529 -5.321887
v 3.482066 -0.001961919 -5.34106
v 3.335207 0.351329 -5.349104
v 3.345582 0.3608343 -5.147436
v 2.9924 0.5070913 -5.129593
v 2.640284 0.3608343 -5.096891
v 2.495497 0.007738574 -5.068485
v 2.642855 -0.3453571 -5.061016
v 2.996036 -0.491614 -5.078858
v 3.348153 -0.3453569 -5.11156
v 3.492939 0.00773874 -5.139966
v 3.345582 0.3608343 -5.147436
v 3.362214 0.3727651 -4.949133
v 3.009607 0.5189217 -4.921692
v 2.658907 0.3727651 -4.875927
v 2.51555 0.01991174 -4.838646
v 2.663512 -0.3329415 -4.831689
v 3.016119 -0.4790981 -4.859131
v 3.366819 -0.3329413 -4.904896
v 3.510176 0.0199119 -4.942176
v 3.362214 0.3727651 -4.949133
v 3.384676 0.3869928 -4.754001
v 3.032847 0.5330318 -4.717461
v 2.683943 0.3869928 -4.659276
v 2.542348 0.03442375 -4.613532
v 2.691006 -0.3181453 -4.607024
v 3.042836 -0.4641841 -4.643564
v 3.39174 -0.3181451 -4.701749
v 3.533334 0.0344239 -4.747493
v 3.384676 0.3869928 -4.754001
v 3.412546 0.4033899 -4.561852
v 3.061654 0.5492962 -4.516763
v 2.71485 0.4033899 -4.446872
v 2.575286 0.05114095 -4.393119
v 2.724718 -0.301108 -4.386993
v 3.075609 -0.4470142 -4.432082
v 3.422414 -0.3011078 -4.501974
v 3.561977 0.0511411 -4.555726
v 3.412546 0.4033899 -4.561852
v 3.445402 0.4218285 -4.372522
v 3.095565 0.5675898 -4.319475
v 2.751086 0.4218285 -4.238636
v 2.613758 0.0699297 -4.17736
v 2.764024 -0.2819691 -4.171542
v 3.113862 -0.4277303 -4.22459
v 3.45834 -0.2819689 -4.305429
v 3.595669 0.06992985 -4.366704
v 3.445402 0.4218285 -4.372522
v 3.48283 0.4421815 -4.185854
v 3.134118 0.5877879 -4.125476
v 2.792112 0.4421815 -4.034496
v 2.657154 0.09065636 -3.966208
v 2.808301 -0.2608687 -3.960615
v 3.157013 -0.4064751 -4.020993
v 3.499019 -0.2608685 -4.111973
v 3.633977 0.09065651 -4.180261
v 3.48283 0.4421815 -4.185854
v 3.524406 0.4643207 -4.001713
v 3.176847 0.6097649 -3.934664
v 2.837384 0.4643207 -3.834377
v 2.70487 0.1131873 -3.759598
v 2.85693 -0.2379461 -3.754131
v 3.204488 -0.3833902 -3.82118
v 3.543951 -0.2379459 -3.921467
v 3.676465 0.1131874 -3.996247
v 3.524406 0.4643207 -4.001713
v 3.569708 0.4881184 -3.819965
v 3.223287 0.6333953 -3.746935
v 2.886362 0.4881183 -3.638202
v 2.7563 0.1373888 -3.557461
v 2.909289 -0.2133408 -3.552008
v 3.25571 -0.3586176 -3.625038
v 3.592635 -0.2133406 -3.733771
v 3.722697 0.1373889 -3.814512
v 3.569708 0.4881184 -3.819965
v 3.618306 0.5134457 -3.640497
v 3.272966 0.6585524 -3.562197
v 2.938505 0.5134457 -3.445893
v 2.810846 0.1631272 -3.359714
v 2.96477 -0.1871912 -3.354143
v 3.31011 -0.3322978 -3.432443
v 3.644571 -0.187191 -3.548747
v 3.77223 0.1631274 -3.634926
v 3.618306 0.5134457 -3.640497
v 3.669769 0.5401748 -3.463177
v 3.325415 0.6851106 -3.380351
v 2.993274 0.5401748 -3.257377
v 2.86791 0.190269 -3.166292
v 3.02276 -0.1596368 -3.160453
v 3.367114 -0.3045725 -3.243279
v 3.699255 -0.1596366 -3.366253
v 3.824619 0.1902691 -3.457338
v 3.669769 0.5401748 -3.463177
v 3.723645 0.568175 -3.287925
v 3.380149 0.7129403 -3.20132
v 3.050132 0.568175 -3.072564
v 2.926913 0.2186804 -2.97708
v 3.082671 -0.1308141 -2.970802
v 3.426167 -0.2755794 -3.057407
v 3.756184 -0.1308139 -3.186163
v 3.879403 0.2186806 -3.281647
v 3.723645 0.568175 -3.287925
v 3.779503 0.5973185 -3.114586
v 3.436702 0.7419165 -3.025003
v 3.108542 0.5973185 -2.891402
v 2.987256 0.2482278 -2.792044
v 3.143891 -0.1008627 -2.785131
v 3.486693 -0.2454607 -2.874714
v 3.814852 -0.1008626 -3.008315
v 3.936138 0.248228 -3.107673
v 3.779503 0.5973185 -3.114586
v 3.836867 0.6274731 -2.943096
v 3.494575 0.7719074 -2.851329
v 3.167973 0.6274731 -2.71379
v 3.048382 0.2787776 -2.611047
v 3.205855 -0.06991784 -2.603287
v 3.548148 -0.2143522 -2.695054
v 3.874749 -0.06991766 -2.832593
v 3.99434 0.2787777 -2.935335
v 3.836867 0.6274731 -2.943096
v 3.8953 0.6585115 -2.773287
v 3.5533 0.8027884 -2.680189
v 3.227896 0.6585115 -2.53968
v 3.109704 0.3101961 -2.434069
v 3.267959 -0.03811918 -2.425222
v 3.609958 -0.1823961 -2.51832
v 3.935363 -0.038119 -2.658829
v 4.053555 0.3101963 -2.76444
v 3.8953 0.6585115 -2.773287
v 3.954312 0.6903006 -2.605083
v 3.612378 0.8344266 -2.511511
v 3.287786 0.6903006 -2.368984
v 3.170676 0.3423497 -2.260993
v 3.32965 -0.005601088 -2.250797
v 3.671584 -0.149727 -2.344369
v 3.996176 -0.005600909 -2.486896
v 4.113286 0.3423499 -2.594887
v 3.954312 0.6903006 -2.605083
v 4.013451 0.7227129 -2.43831
v 3.671336 0.8666968 -2.345184
v 3.347122 0.7227128 -2.201655
v 3.230729 0.3751047 -2.091801
v 3.390339 0.02749661 -2.079972
v 3.732454 -0.1164873 -2.173098
v 4.056668 0.02749679 -2.316627
v 4.173061 0.3751048 -2.426481
v 4.013451 0.7227129 -2.43831
v 4.072216 0.7556152 -2.272868
v 3.729672 0.8994664 -2.181125
v 3.405392 0.7556152 -2.037612
v 3.289335 0.4083275 -1.926397
v 3.449486 0.06103989 -1.912629
v 3.792031 -0.0828113 -2.004371
v 4.116311 0.06104007 -2.147884
v 4.232367 0.4083276 -2.259099
v 4.072216 0.7556152 -2.272868
v 4.130147 0.7888813 -2.10855
v 3.786918 0.9326121 -2.019208
v 3.462089 0.7888812 -1.876822
v 3.345939 0.4418843 -1.764799
v 3.506509 0.09488747 -1.748762
v 3.849738 -0.04884329 -1.838103
v 4.174568 0.09488764 -1.980489
v 4.290717 0.4418845 -2.092512
v 4.130147 0.7888813 -2.10855
v 4.186716 0.8223776 -1.945251
v 3.842567 0.9660003 -1.859342
v 3.516716 0.8223776 -1.719196
v 3.400044 0.4756417 -1.606909
v 3.560895 0.1289058 -1.588257
v 3.905044 -0.01471683 -1.674166
v 4.230895 0.128906 -1.814311
v 4.347567 0.4756418 -1.926599
v 4.186716 0.8223776 -1.945251
v 4.241451 0.85598 -1.782716
v 3.896155 0.9995108 -1.701378
v 3.568788 0.85598 -1.564717
v 3.451118 0.509466 -1.452787
v 3.612073 0.162952 -1.431155
v 3.95737 0.01942131 -1.512493
v 4.284737 0.1629522 -1.649155
v 4.402407 0.5094662 -1.761085
v 4.241451 0.85598 -1.782716
v 4.293811 0.8895569 -1.620789
v 3.94718 1.033013 -1.545198
v 3.617828 0.8895569 -1.413311
v 3.498685 0.5432233 -1.302385
v 3.659544 0.1968897 -1.277399
v 4.006175 0.05343366 -1.35299
v 4.335526 0.1968899 -1.484877
v 4.454669 0.5432234 -1.595803
v 4.293811 0.8895569 -1.620789
v 4.343268 0.9229823 -1.45923
v 3.99516 1.066384 -1.390647
v 3.663379 0.9229823 -1.264934
v 3.542277 0.5767801 -1.155733
v 3.702794 0.230578 -1.127012
v 4.050901 0.08717644 -1.195595
v 4.382683 0.2305782 -1.321307
v 4.503785 0.5767803 -1.430508
v 4.343268 0.9229823 -1.45923
v 4.389256 0.9561293 -1.297809
v 4.039596 1.0995 -1.23756
v 3.704994 0.9561293 -1.119522
v 3.581455 0.6100029 -1.01284
v 3.741345 0.2638766 -0.980006
v 4.091005 0.1205064 -1.040255
v 4.425607 0.2638768 -1.158293
v 4.549146 0.6100031 -1.264975
v 4.389256 0.9561293 -1.297809
v 4.431186 0.9888718 -1.136272
v 4.079986 1.132237 -1.085756
v 3.742248 0.9888718 -0.9770085
v 3.615814 0.6427578 -0.8737313
v 3.774748 0.2966439 -0.836423
v 4.125947 0.1532789 -0.8869383
v 4.463686 0.2966441 -0.9956862
v 4.590119 0.642758 -1.098963
v 4.431186 0.9888718 -1.136272
v 4.468435 1.021085 -0.9743415
v 4.115816 1.164475 -0.9350301
v 3.774732 1.021085 -0.8373167
v 3.644986 0.6749114 -0.7384405
v 3.802582 0.3287378 -0.6963218
v 4.155201 0.185348 -0.7356333
v 4.496285 0.328738 -0.8333467
v 4.626031 0.6749116 -0.9322229
v 4.468435 1.021085 -0.9743415
v 4.500319 1.052643 -0.8117756
v 4.146537 1.19609 -0.7851657
v 3.802051 1.052643 -0.7003211
v 3.668655 0.70633 -0.6069425
v 3.824492 0.3600171 -0.55973
v 4.178273 0.2165696 -0.5863399
v 4.522759 0.3600172 -0.6711846
v 4.656155 0.7063302 -0.7645631
v 4.500319 1.052643 -0.8117756
v 4.52611 1.08342 -0.6483093
v 4.171584 1.226962 -0.6359223
v 3.823824 1.08342 -0.565883
v 3.686544 0.7368798 -0.4792195
v 3.84016 0.3903395 -0.4266981
v 4.194686 0.2467979 -0.4390852
v 4.542446 0.3903397 -0.5091245
v 4.679726 0.7368799 -0.5957879
v 4.52611 1.08342 -0.6483093
v 4.545015 1.113288 -0.4837354
v 4.190341 1.256962 -0.4870626
v 3.839673 1.113288 -0.4338108
v 3.698426 0.7664272 -0.3551742
v 3.849341 0.4195667 -0.297217
v 4.204014 0.2758925 -0.2938898
v 4.554683 0.4195669 -0.3471416
v 4.69593 0.7664273 -0.4257782
v 4.545015 1.113288 -0.4837354
v 4.556181 1.142115 -0.3178879
v 4.202153 1.285962 -0.3383428
v 3.849214 1.142115 -0.3038626
v 3.704112 0.7948385 -0.2346453
v 3.851845 0.4475621 -0.1712376
v 4.205874 0.3037156 -0.1507827
v 4.558813 0.4475623 -0.1852629
v 4.703915 0.7948387 -0.2544802
v 4.556181 1.142115 -0.3178879
v 4.558704 1.169765 -0.1507048
v 4.206305 1.313822 -0.1895552
v 3.852041 1.169765 -0.1757431
v 3.703433 0.8219803 -0.1173593
v 3.847536 0.474196 -0.04860447
v 4.199934 0.3301392 -0.009754114
v 4.554199 0.4741963 -0.02356629
v 4.702806 0.8219805 -0.08194999
v 4.558704 1.169765 -0.1507048
v 4.551647 1.196095 0.01777073
v 4.202039 1.340397 -0.04051916
v 3.847708 1.196095 -0.04909092
v 3.696218 0.8477188 -0.002923351
v 3.836308 0.4993429 0.07093923
v 4.185916 0.355041 0.1292291
v 4.540246 0.4993432 0.1378009
v 4.691737 0.847719 0.09163329
v 4.551647 1.196095 0.01777073
v 4.53408 1.220954 0.1873545
v 4.18856 1.365529 0.1088677
v 3.835719 1.220954 0.07648566
v 3.682249 0.8719202 0.1091774
v 3.818049 0.5228864 0.1877926
v 4.163569 0.3783119 0.2662794
v 4.51641 0.5228866 0.2986614
v 4.66988 0.8719204 0.2659697
v 4.53408 1.220954 0.1873545
v 4.505123 1.244185 0.357739
v 4.165067 1.38905 0.2586291
v 3.815517 1.244185 0.201392
v 3.661236 0.8944511 0.2195563
v 3.792598 0.5447171 0.3024817
v 4.132654 0.3998526 0.4015916
v 4.482204 0.5447173 0.4588287
v 4.636485 0.8944513 0.4406644
v 4.505123 1.244185 0.357739
v 4.463992 1.265624 0.5284646
v 4.130777 1.410784 0.4086989
v 3.786473 1.265624 0.3260562
v 3.632767 0.9151778 0.3289474
v 3.759699 0.5647313 0.4156789
v 4.092913 0.4195717 0.5354445
v 4.437217 0.5647315 0.6180873
v 4.590923 0.9151779 0.6151961
v 4.463992 1.265624 0.5284646
v 4.410052 1.285104 0.6989706
v 4.084968 1.43055 0.558926
v 3.747892 1.285104 0.4508888
v 3.596279 0.9339665 0.4381458
v 3.718941 0.5828288 0.5281617
v 4.044025 0.4373829 0.6682063
v 4.381101 0.5828291 0.7762435
v 4.532714 0.9339667 0.7889864
v 4.410052 1.285104 0.6989706
v 4.34282 1.30246 0.8687396
v 4.027011 1.44817 0.709116
v 3.699067 1.30246 0.5761957
v 3.551093 0.9506838 0.5478415
v 3.669771 0.5989076 0.640663
v 3.98558 0.4531973 0.8002866
v 4.313524 0.5989079 0.933207
v 4.461497 0.950684 0.9615611
v 4.34282 1.30246 0.8687396
v 4.262008 1.317529 1.037176
v 3.956371 1.463471 0.8590367
v 3.639222 1.317529 0.7023061
v 3.496344 0.9651957 0.6587952
v 3.611431 0.612862 0.7539922
v 3.917068 0.4669207 0.9321318
v 4.234217 0.6128622 1.088862
v 4.377095 0.9651958 1.132373
v 4.262008 1.317529 1.037176
v 4.16741 1.330161 1.203933
v 3.872619 1.476292 1.008509
v 3.567653 1.330161 0.8293778
v 3.431156 0.9773688 0.7714731
v 3.543087 0.6245767 0.8687142
v 3.837878 0.4784455 1.064139
v 4.142844 0.6245769 1.24327
v 4.279341 0.977369 1.301174
v 4.16741 1.330161 1.203933
v 4.058939 1.340211 1.368703
v 3.775398 1.486486 1.157386
v 3.483635 1.34021 0.957575
v 3.354561 0.9870694 0.8863159
v 3.463786 0.6339284 0.9853514
v 3.747326 0.4876526 1.196668
v 4.039089 0.6339286 1.396479
v 4.168163 0.9870696 1.467738
v 4.058939 1.340211 1.368703
v 3.936569 1.347543 1.531301
v 3.664402 1.493917 1.305589
v 3.386457 1.347543 1.087031
v 3.265551 0.9941638 1.003655
v 3.372509 0.6407847 1.104302
v 3.644676 0.4944104 1.330014
v 3.922621 0.640785 1.548573
v 4.043527 0.994164 1.631948
v 3.936569 1.347543 1.531301
v 3.80015 1.352032 1.691845
v 3.539326 1.498462 1.453149
v 3.275534 1.352032 1.217738
v 3.163299 0.9985186 1.123512
v 3.268367 0.6450056 1.225668
v 3.529191 0.4985758 1.464364
v 3.792983 0.6450059 1.699776
v 3.905218 0.9985188 1.794001
v 3.80015 1.352032 1.691845
v 3.65365 1.353551 1.846297
v 3.401188 1.499997 1.598783
v 3.14803 1.353551 1.35198
v 3.042473 0.9999998 1.250464
v 3.14635 0.6464485 1.3537
v 3.398811 0.5000029 1.601214
v 3.651969 0.6464487 1.848016
v 3.757527 1 1.949533
v 3.65365 1.353551 1.846297
v 0 0 0
v 0 0 0
v 0 0 0
v 0 0 0
v 0 0 0
v 0 0 0
v 0 0 0
v 0 0 0
v 0 0 0
v 0 0 0
v 0 0 0
v 0 0 0
v 0 0 0
v 0 0 0
v 0 0 0
v 0 0 0
v 0 0 0
v 0 0 0
v 0 0 0
v 0 0 0
v 0 0 0
v 0 0 0
v 0 0 0
v 0 0 0
v 0 0 0
v 0 0 0
v 0 0 0
v 0 0 0
v 0 0 0
v 0 0 0
v 0 0 0
v 0 0 0
v 0 0 0
v 0 0 0
v 0 0 0
v 0 0 0
v 0 0 0
v 0 0 0
v 0 0 0
v 0 0 0
v 0 0 0
v 0 0 0
v 0 0 0
v 0 0 0
v 0 0 0
v 0 0 0
v 2.993383 -0.01489258 -6.000797
v 3.4 0.9999999 1.599998

vn 0.3112433 0.631424 -0.7102333
vn -0.02441647 0.5637397 -0.8255916
vn -0.4191605 0.3572252 -0.8346823
vn -0.5452057 -0.08314071 -0.8341693
vn -0.3078195 -0.4766759 -0.8234242
vn 0.1317114 -0.5714263 -0.8100148
vn 0.4938134 -0.3341921 -0.8027852
vn 0.589161 0.07348067 -0.8046675
vn 0.4465014 0.1591034 -0.880524
vn 0.3827825 0.9238322 -0.003397037
vn -0.006245515 0.9999253 -0.01050705
vn -0.710615 0.7029285 -0.03029425
vn -0.9994703 -0.00125485 -0.03252082
vn -0.7101914 -0.7038255 -0.01605769
vn -0.009137562 -0.9999089 0.009945198
vn 0.7001343 -0.7133592 0.03050529
vn 0.9994444 -0.004267293 0.0330551
vn 0.9233029 0.3826671 0.03282502
vn 0.3822475 0.923607 -0.02892854
vn -0.006727109 0.9997103 -0.02310982
vn -0.7113272 0.7027232 -0.01391792
vn -0.9999939 -0.001352158 0.003209403
vn -0.710198 -0.7037628 0.01834905
vn -0.008596966 -0.9996964 0.02309112
vn 0.7009043 -0.7131056 0.01461407
vn 0.9999879 -0.004148767 -0.002631847
vn 0.9239284 0.3825315 -0.005090027
vn 0.3804511 0.9232323 -0.05384321
vn -0.008003111 0.9993367 -0.03552759
vn -0.7117308 0.7024497 0.001877052
vn -0.9992791 -0.001424225 0.03793452
vn -0.7086976 -0.7036005 0.05190578
vn -0.007121983 -0.9993253 0.03602676
vn 0.7014663 -0.7127023 -0.0007256707
vn 0.9992951 -0.004015686 -0.03732335
vn 0.9230633 0.3823419 -0.04205804
vn 0.3775129 0.9227177 -0.07794975
vn -0.01000414 0.9988136 -0.04765582
vn -0.7118613 0.7021142 0.01700242
vn -0.9974449 -0.001470315 0.07142603
vn -0.7058252 -0.7033437 0.08437043
vn -0.004787188 -0.9988052 0.0486323
vn 0.7018494 -0.712158 -0.01543916
vn 0.9974836 -0.003869251 -0.07079321
vn 0.9208367 0.3821031 -0.07782666
vn 0.3735754 0.9220757 -0.1010828
vn -0.01264386 0.9981539 -0.05940529
vn -0.7117575 0.7017242 0.03137442
vn -0.9946307 -0.00149262 0.1034768
vn -0.7017419 -0.7030019 0.1155272
vn -0.001686207 -0.9981483 0.060805
vn 0.7020833 -0.7114854 -0.02945343
vn 0.9946918 -0.00371581 -0.1028328
vn 0.9174052 0.3818202 -0.1121654
vn 0.3687986 0.9213213 -0.1231041
vn -0.01582504 0.9973718 -0.07070505
vn -0.7114607 0.7012891 0.04491376
vn -0.9909931 -0.001489107 0.133904
vn -0.6966331 -0.7025821 0.1451923
vn 0.002072538 -0.9973689 0.07246362
vn 0.7021998 -0.7106985 -0.04269748
vn 0.9910747 -0.003556481 -0.1332604
vn 0.9129459 0.3814987 -0.1448744
vn 0.3633533 0.9204705 -0.143904
vn -0.0194439 0.9964834 -0.08150206
vn -0.7110179 0.7008153 0.05754631
vn -0.9866992 -0.001467168 0.1625497
vn -0.6906915 -0.7020989 0.1732121
vn 0.006374395 -0.9964834 0.08354797
vn 0.702231 -0.7098137 -0.05510086
vn 0.9867991 -0.003398751 -0.1619133
vn 0.9076512 0.3811443 -0.1757788
vn 0.3574149 0.9195398 -0.1634045
vn -0.02339314 0.9955061 -0.09176314
vn -0.7104727 0.7003142 0.06920051
vn -0.9819222 -0.001421252 0.1892794
vn -0.6841272 -0.701558 0.1994652
vn 0.01109429 -0.9955086 0.0940183
vn 0.7022122 -0.708846 -0.06659731
vn 0.9820369 -0.003240734 -0.1886612
vn 0.9017212 0.3807639 -0.2047387
vn 0.351159 0.9185461 -0.1815498
vn -0.02756058 0.9944565 -0.1014723
vn -0.7098719 0.6997944 0.079811
vn -0.9768361 -0.001359423 0.2139845
vn -0.6771399 -0.7009761 0.2238618
vn 0.01611523 -0.9944617 0.1038561
vn 0.7021783 -0.7078121 -0.07712025
vn 0.9769624 -0.003090403 -0.2133893
vn 0.8953587 0.3803624 -0.2316402
vn 0.3447556 0.9175057 -0.1983099
vn -0.03184363 0.9933516 -0.1106282
vn -0.7092623 0.6992641 0.08931264
vn -0.9716132 -0.001279364 0.2365716
vn -0.669936 -0.7003608 0.246334
vn 0.02131557 -0.9933594 0.11306
vn 0.7021665 -0.7067261 -0.08660523
vn 0.9717468 -0.002944432 -0.2360075
vn 0.888765 0.3799462 -0.2563932
vn 0.3383685 0.9164339 -0.2136716
vn -0.03613534 0.9922072 -0.119243
vn -0.7086878 0.6987323 0.09764646
vn -0.9664189 -0.001187361 0.2569691
vn -0.6627061 -0.6997265 0.2668398
vn 0.02658576 -0.9922177 0.1216434
vn 0.7022119 -0.7056034 -0.09498685
vn 0.9665567 -0.002810336 -0.2564377
vn 0.8821352 0.3795207 -0.2789295
vn 0.3321513 0.9153448 -0.2276388
vn -0.04033994 0.9910384 -0.1273409
vn -0.7081873 0.6982109 0.1047488
vn -0.9614118 -0.001075364 0.275111
vn -0.6556405 -0.6990784 0.2853508
vn 0.03181741 -0.9910517 0.1296312
vn 0.702354 -0.704452 -0.1022065
vn 0.9615486 -0.002678586 -0.2746218
vn 0.8756536 0.3790911 -0.2992003
vn 0.3262482 0.9142517 -0.2402204
vn -0.04436002 0.989859 -0.1349491
vn -0.707805 0.6977011 0.1105682
vn -0.9567372 -0.0009629612 0.290952
vn -0.6488985 -0.6984369 0.3018551
vn 0.03691671 -0.9898746 0.1370602
vn 0.7026199 -0.703292 -0.1081928
vn 0.9568722 -0.002570305 -0.2904982
vn 0.8694971 0.378661 -0.3171604
vn 0.3207877 0.9131665 -0.2514404
vn -0.04811825 0.9886808 -0.1421088
vn -0.7075655 0.6972223 0.1150311
vn -0.9525345 -0.0008208591 0.3044297
vn -0.6426597 -0.6977947 0.31634
vn 0.04178926 -0.9887001 0.1439646
vn 0.7030556 -0.7021163 -0.1128961
vn 0.9526591 -0.002447369 -0.3040306
vn 0.8638222 0.3782373 -0.3327876
vn 0.3158995 0.9121 -0.2613068
vn -0.05151077 0.9875169 -0.1488518
vn -0.7075071 0.6967701 0.1180907
vn -0.9489219 -0.0006911714 0.3155104
vn -0.6370389 -0.6971861 0.3288054
vn 0.04636319 -0.9875382 0.1503949
vn 0.7036734 -0.7009526 -0.1162284
vn 0.94904 -0.00236177 -0.3151468
vn 0.8587844 0.3778205 -0.3460359
vn 0.3116848 0.9110622 -0.2698486
vn -0.05448698 0.986376 -0.1552214
vn -0.7076415 0.6963651 0.1196629
vn -0.9460162 -0.0005258516 0.3241187
vn -0.6322057 -0.6965895 0.3392332
vn 0.05054675 -0.9864018 0.1563857
vn 0.7045148 -0.6997863 -0.1181438
vn 0.9461176 -0.002250554 -0.3238154
vn 0.8545108 0.377418 -0.356885
vn 0.3082584 0.9100627 -0.2770608
vn -0.05693502 0.98527 -0.1612493
vn -0.7079882 0.6960071 0.1196941
vn -0.9439068 -0.0003722013 0.3302117
vn -0.6282374 -0.6960474 0.3476144
vn 0.05429298 -0.9852986 0.1619847
vn 0.7055856 -0.6986387 -0.1185459
vn 0.9439964 -0.002171925 -0.3299485
vn 0.8511285 0.3770296 -0.3652792
vn 0.3057046 0.9091104 -0.2829543
vn -0.05881307 0.9842066 -0.1669678
vn -0.7085471 0.6957123 0.1180908
vn -0.9426823 -0.000186115 0.3336915
vn -0.6252801 -0.695537 0.3539109
vn 0.05751139 -0.9842404 0.167222
vn 0.706906 -0.6975007 -0.1173743
vn 0.9427508 -0.002069371 -0.3334914
vn 0.8487377 0.3766614 -0.3711745
vn 0.3041194 0.9082148 -0.2875018
vn -0.06001435 0.9831976 -0.1723978
vn -0.7093148 0.6954834 0.1147842
vn -0.9424019 -9.210951E-06 0.3344827
vn -0.6233885 -0.6950992 0.3580838
vn 0.06016396 -0.9832349 0.1721318
vn 0.7084701 -0.696387 -0.1145224
vn 0.9424546 -0.001989175 -0.3343284
vn 0.8474349 0.3763148 -0.374488
vn 0.303575 0.9073849 -0.29068
vn -0.0604907 0.9822502 -0.1775542
vn -0.7102618 0.6953428 0.109666
vn -0.943121 0.0002067453 0.3324498
vn -0.622682 -0.694713 0.3600569
vn 0.06216773 -0.9822945 0.1767278
vn 0.7102799 -0.6952844 -0.1099183
vn 0.9431484 -0.001874286 -0.3323666
vn 0.8472895 0.3759967 -0.3751361
vn 0.3041523 0.9066319 -0.2924206
vn -0.0601314 0.9813784 -0.1824296
vn -0.7113609 0.6952886 0.1026616
vn -0.9448575 0.0004074273 0.3274816
vn -0.623179 -0.6944274 0.3597478
vn 0.06348598 -0.9814268 0.1810278
vn 0.7122965 -0.6942159 -0.1034311
vn 0.9448693 -0.001785362 -0.3274425
vn 0.848368 0.3757057 -0.372984
vn 0.3058995 0.9059669 -0.2926594
vn -0.05889917 0.9805904 -0.187012
vn -0.7125452 0.6953495 0.09363987
vn -0.947625 0.0006600783 0.3193843
vn -0.6249819 -0.6942123 0.3570248
vn 0.06403355 -0.9806476 0.185013
vn 0.7144994 -0.6931584 -0.09498435
vn 0.94761 -0.001637255 -0.3194255
vn 0.8506957 0.3754541 -0.3679006
vn 0.3088842 0.9054019 -0.2912694
vn -0.05665883 0.9799032 -0.1912576
vn -0.7137369 0.6955363 0.08251643
vn -0.9513862 0.0009094673 0.3079993
vn -0.6280602 -0.6941278 0.3517485
vn 0.0637876 -0.9799665 0.1886707
vn 0.7168139 -0.6921337 -0.08443277
vn 0.9513544 -0.001501022 -0.3080951
vn 0.8542924 0.3752409 -0.3596926
vn 0.3131233 0.9049519 -0.2881248
vn -0.05337967 0.9793301 -0.1950981
vn -0.7148353 0.6958631 0.06917425
vn -0.9560832 0.001195731 0.2930928
vn -0.6324559 -0.6941558 0.3437255
vn 0.0626573 -0.9794019 0.1919528
vn 0.7191581 -0.6911399 -0.07167442
vn 0.9560323 -0.001320447 -0.2932581
vn 0.8591336 0.3750728 -0.3481521
vn 0.3186302 0.9046338 -0.2830415
vn -0.04896541 0.9788898 -0.198437
vn -0.7157035 0.6963508 0.05351706
vn -0.9616039 0.001502642 0.274437
vn -0.6381091 -0.694335 0.3327395
vn 0.06061421 -0.9789696 0.1947929
vn 0.7214205 -0.690182 -0.05657972
vn 0.96154 -0.001109362 -0.2746629
vn 0.8651569 0.3749601 -0.3330293
vn 0.3253737 0.904466 -0.275814
vn -0.04336778 0.9786025 -0.2011375
vn -0.7161759 0.6970184 0.03545956
vn -0.9677839 0.001842079 0.2517755
vn -0.6449473 -0.6946782 0.3185361
vn 0.05760825 -0.9786907 0.197093
vn 0.7234548 -0.6892667 -0.0390453
vn 0.9677107 -0.0008488907 -0.2520622
vn 0.8722485 0.3749108 -0.3140456
vn 0.3332823 0.9044669 -0.2662004
vn -0.03654385 0.9784907 -0.2030286
vn -0.7160486 0.6978904 0.01494167
vn -0.9743903 0.002219527 0.2248526
vn -0.6528249 -0.6952097 0.3008374
vn 0.05362101 -0.978587 0.198727
vn 0.7250822 -0.6884009 -0.01897552
vn 0.9743137 -0.0005309867 -0.2251943
vn 0.8802251 0.3749345 -0.2909087
vn 0.3422208 0.9046575 -0.2539285
vn -0.02849806 0.9785797 -0.203886
vn -0.7151027 0.6989729 -0.008048203
vn -0.981112 0.002619284 0.1934233
vn -0.6615228 -0.6959549 0.2793462
vn 0.04864147 -0.9786813 0.1995422
vn 0.7260702 -0.6876107 0.003702773
vn 0.9810418 -0.0001674488 -0.193796
vn 0.8888322 0.3750387 -0.2632934
vn 0.3519675 0.9050585 -0.2387218
vn -0.01930207 0.9788941 -0.2034549
vn -0.7130817 0.7002813 -0.03347655
vn -0.9875509 0.003062134 0.1572695
vn -0.6707515 -0.6969206 0.2537599
vn 0.04269619 -0.9789991 0.1993438
vn 0.7261692 -0.6869042 0.0289976
vn 0.9874934 0.0002743852 -0.1576599
vn 0.8977095 0.3752358 -0.230902
vn 0.3622136 0.9056862 -0.220304
vn -0.009078631 0.9794581 -0.201443
vn -0.7097271 0.7018116 -0.06122235
vn -0.9932129 0.003521256 0.1162568
vn -0.6800844 -0.6981364 0.2238096
vn 0.03587549 -0.979562 0.1979175
vn 0.725085 -0.6863078 0.05686317
vn 0.9931749 0.0007785051 -0.1166324
vn 0.9063901 0.3755346 -0.1934704
vn 0.3725363 0.9065521 -0.1984438
vn 0.001925571 0.9802913 -0.1975481
vn -0.7047891 0.7035457 -0.09108021
vn -0.9975143 0.003994131 0.07035071
vn -0.6890131 -0.6995932 0.1892893
vn 0.02830306 -0.9803887 0.1950306
vn 0.7225032 -0.6858516 0.08715894
vn 0.997498 0.001351437 -0.07068072
vn 0.9142866 0.3759412 -0.150825
vn 0.3824002 0.9076592 -0.1729883
vn 0.01336973 0.9814045 -0.1914852
vn -0.6980548 0.7054457 -0.1227433
vn -0.9997967 0.004445109 0.01966986
vn -0.6968941 -0.7012911 0.1500976
vn 0.02019702 -0.9814883 0.1904541
vn 0.7181134 -0.6855644 0.1196439
vn 0.9997997 0.001978125 -0.01991487
vn 0.9206992 0.3764572 -0.1029217
vn 0.3911667 0.9089974 -0.1439179
vn 0.02476968 0.9827952 -0.1830309
vn -0.6893848 0.7074413 -0.1558047
vn -0.9993593 0.00484532 -0.03546185
vn -0.7030132 -0.7031874 0.1063012
vn 0.01182649 -0.9828584 0.1839824
vn 0.7116267 -0.6854843 0.1539435
vn 0.9993718 0.002645061 0.03533814
vn 0.9248369 0.3770751 -0.04990892
vn 0.3981302 0.9105408 -0.1113902
vn 0.03555987 0.9844416 -0.1720764
vn -0.6787222 0.7094499 -0.1897811
vn -0.9955121 0.005151178 -0.09449385
vn -0.7065861 -0.7052311 0.05818347
vn 0.003565567 -0.9844776 0.175474
vn 0.7028338 -0.6856305 0.1895661
vn 0.9955181 0.003336486 0.09451181
vn 0.9258618 0.3777819 0.007801415
vn 0.4025766 0.9122442 -0.07578033
vn 0.0451066 0.9863008 -0.1586697
vn -0.6661232 0.7113684 -0.2241311
vn -0.9876441 0.005317191 -0.156623
vn -0.706844 -0.7073415 0.00627958
vn -0.004164219 -0.9863053 0.1648775
vn 0.6916202 -0.6860218 0.2259105
vn 0.9876235 0.004024545 0.1567921
vn 0.9229649 0.3785534 0.06952009
vn 0.4038571 0.9140452 -0.03769514
vn 0.05277153 0.9883074 -0.1430518
vn -0.6517714 0.7130755 -0.2582969
vn -0.9753041 0.00528813 -0.2208029
vn -0.7031119 -0.7094172 -0.04858876
vn -0.01092488 -0.9882777 0.1522755
vn 0.6779919 -0.6866767 0.2623013
vn 0.975235 0.004658971 0.2211226
vn 0.9154614 0.379349 0.1342563
vn 0.4014681 0.9158707 0.002045621
vn 0.05798013 0.9903761 -0.125672
vn -0.6359453 0.7144541 -0.2917686
vn -0.9582672 0.00503422 -0.2858296
vn -0.694905 -0.7113392 -0.1053728
vn -0.01629114 -0.990314 0.1378876
vn 0.6621197 -0.6875816 0.2980421
vn 0.9581349 0.00522017 0.2862695
vn 0.9028804 0.3801308 0.2007675
vn 0.3951375 0.9176396 0.04247616
vn 0.06035912 0.9924101 -0.1071393
vn -0.6189407 0.7154604 -0.3240814
vn -0.9365901 0.004604006 -0.3503966
vn -0.6819978 -0.7129943 -0.1628431
vn -0.01986901 -0.9923216 0.1220786
vn 0.644343 -0.6886789 0.3324806
vn 0.9363905 0.005715993 0.3509134
vn 0.8850505 0.3808632 0.2676357
vn 0.3848599 0.9192732 0.08258037
vn 0.05972446 0.9943148 -0.08815403
vn -0.6011617 0.716005 -0.3548824
vn -0.9106167 0.003928925 -0.4132334
vn -0.6644229 -0.7143405 -0.2196813
vn -0.0214127 -0.9942054 0.1053431
vn 0.6250495 -0.6899582 0.365063
vn 0.9103594 0.006059962 0.4137743
vn 0.862149 0.3815039 0.3333974
vn 0.3708979 0.920707 0.1213798
vn 0.05614845 0.9960045 -0.06944297
vn -0.5828909 0.7161512 -0.3838826
vn -0.8809502 0.00319578 -0.4731982
vn -0.642606 -0.7152717 -0.2746704
vn -0.0207931 -0.9958838 0.08822241
vn 0.6047872 -0.6912991 0.395396
vn 0.8806504 0.006346647 0.4737243
vn 0.8346708 0.3820335 0.3967051
vn 0.3537468 0.9218901 0.1580564
vn 0.04994329 0.9974176 -0.05161288
vn -0.5644786 0.7159101 -0.4108974
vn -0.8483835 0.002358329 -0.5293767
vn -0.6171066 -0.7158543 -0.3266987
vn -0.01802315 -0.9972916 0.07130631
vn 0.5840286 -0.6926659 0.4232311
vn 0.8480571 0.00648915 0.529865
vn 0.8033922 0.3824301 0.4564078
vn 0.3340464 0.9227987 0.191978
vn 0.04150667 0.9985185 -0.03518534
vn -0.546212 0.7153228 -0.4358506
vn -0.8137945 0.001495518 -0.5811507
vn -0.5887578 -0.7160702 -0.3749771
vn -0.01332514 -0.9983933 0.05507363
vn 0.5632379 -0.694003 0.4484671
vn 0.813462 0.006519284 0.5815814
vn 0.7692433 0.382691 0.511676
vn 0.3125069 0.9234279 0.2227565
vn 0.03139526 0.9992976 -0.0204628
vn -0.5282657 0.7145339 -0.4586684
vn -0.7780804 0.0007554839 -0.6281642
vn -0.5584475 -0.715947 -0.4189943
vn -0.006942823 -0.9991775 0.0399509
vn 0.5428578 -0.6951977 0.4711747
vn 0.7777403 0.006527969 0.6285518
vn 0.733212 0.3828286 0.5619987
vn 0.2900032 0.9238055 0.2499628
vn 0.01937438 0.9997773 -0.008359959
vn -0.5119902 0.7118002 -0.4808393
vn -0.7414923 -0.002356952 -0.6709571
vn -0.5262471 -0.7160814 -0.4585755
vn -4.073617E-05 -0.9996771 0.02541098
vn 0.5222854 -0.6977195 0.4903116
vn 0.7421491 0.004621363 0.6702189
vn 0.6966004 0.3828468 0.6067752
vn -0.5185831 0.3910892 0.7603426
vn -0.5384285 0.5262723 0.6581278
vn -0.8182143 0.4026268 0.4103864
vn -0.9506844 0.0699912 0.3021595
vn -0.8851187 -0.2801438 0.371597
vn -0.6572196 -0.4799738 0.5811089
vn -0.3734314 -0.4075325 0.8333464
vn -0.2036156 -0.0688967 0.9766238
vn -0.0572414 0.2644164 0.9627083
vn 0 0 0
vn 0 0 0
vn 0 0 0
vn 0 0 0
vn 0 0 0
vn 0 0 0
vn 0 0 0
vn 0 0 0
vn 0 0 0
vn 0 0 0
vn 0 0 0
vn 0 0 0
vn 0 0 0
vn 0 0 0
vn 0 0 0
vn 0 0 0
vn 0 0 0
vn 0 0 0
vn 0 0 0
vn 0 0 0
vn 0 0 0
vn 0 0 0
vn 0 0 0
vn 0 0 0
vn 0 0 0
vn 0 0 0
vn 0 0 0
vn 0 0 0
vn 0 0 0
vn 0 0 0
vn 0 0 0
vn 0 0 0
vn 0 0 0
vn 0 0 0
vn 0 0 0
vn 0 0 0
vn 0 0 0
vn 0 0 0
vn 0 0 0
vn 0 0 0
vn 0 0 0
vn 0 0 0
vn 0 0 0
vn 0 0 0
vn 0 0 0
vn 0 0 0
vn 0.06892867 -0.0002898168 -0.9976215
vn -0.6990652 0.003400265 0.7150498

vt 0 0
vt 0 0.125
vt 0 0.25
vt 0 0.375
vt 0 0.5000001
vt 0 0.6250001
vt 0 0.7500001
vt 0 0.8750001
vt 0 1
vt 0.0222222 0
vt 0.0222222 0.125
vt 0.0222222 0.25
vt 0.0222222 0.375
vt 0.0222222 0.5000001
vt 0.0222222 0.6250001
vt 0.0222222 0.7500001
vt 0.0222222 0.8750001
vt 0.0222222 1
vt 0.0444444 0
vt 0.0444444 0.125
vt 0.0444444 0.25
vt 0.0444444 0.375
vt 0.0444444 0.5000001
vt 0.0444444 0.6250001
vt 0.0444444 0.7500001
vt 0.0444444 0.8750001
vt 0.0444444 1
vt 0.0666666 0
vt 0.0666666 0.125
vt 0.0666666 0.25
vt 0.0666666 0.375
vt 0.0666666 0.5000001
vt 0.0666666 0.6250001
vt 0.0666666 0.7500001
vt 0.0666666 0.8750001
vt 0.0666666 1
vt 0.0888888 0
vt 0.0888888 0.125
vt 0.0888888 0.25
vt 0.0888888 0.375
vt 0.0888888 0.5000001
vt 0.0888888 0.6250001
vt 0.0888888 0.7500001
vt 0.0888888 0.8750001
vt 0.0888888 1
vt 0.111111 0
vt 0.111111 0.125
vt 0.111111 0.25
vt 0.111111 0.375
vt 0.111111 0.5000001
vt 0.111111 0.6250001
vt 0.111111 0.7500001
vt 0.111111 0.8750001
vt 0.111111 1
vt 0.1333332 0
vt 0.1333332 0.125
vt 0.1333332 0.25
vt 0.1333332 0.375
vt 0.1333332 0.5000001
vt 0.1333332 0.6250001
vt 0.1333332 0.7500001
vt 0.1333332 0.8750001
vt 0.1333332 1
vt 0.1555554 0
vt 0.1555554 0.125
vt 0.1555554 0.25
vt 0.1555554 0.375
vt 0.1555554 0.5000001
vt 0.1555554 0.6250001
vt 0.1555554 0.7500001
vt 0.1555554 0.8750001
vt 0.1555554 1
vt 0.1777776 0
vt 0.1777776 0.125
vt 0.1777776 0.25
vt 0.1777776 0.375
vt 0.1777776 0.5000001
vt 0.1777776 0.6250001
vt 0.1777776 0.7500001
vt 0.1777776 0.8750001
vt 0.1777776 1
vt 0.1999998 0
vt 0.1999998 0.125
vt 0.1999998 0.25
vt 0.1999998 0.375
vt 0.1999998 0.5000001
vt 0.1999998 0.6250001
vt 0.1999998 0.7500001
vt 0.1999998 0.8750001
vt 0.1999998 1
vt 0.222222 0
vt 0.222222 0.125
vt 0.222222 0.25
vt 0.222222 0.375
vt 0.222222 0.5000001
vt 0.222222 0.6250001
vt 0.222222 0.7500001
vt 0.222222 0.8750001
vt 0.222222 1
vt 0.2444442 0
vt 0.2444442 0.125
vt 0.2444442 0.25
vt 0.2444442 0.375
vt 0.2444442 0.5000001
vt 0.2444442 0.6250001
vt 0.2444442 0.7500001
vt 0.2444442 0.8750001
vt 0.2444442 1
vt 0.2666664 0
vt 0.2666664 0.125
vt 0.2666664 0.25
vt 0.2666664 0.375
vt 0.2666664 0.5000001
vt 0.2666664 0.6250001
vt 0.2666664 0.7500001
vt 0.2666664 0.8750001
vt 0.2666664 1
vt 0.2888886 0
vt 0.2888886 0.125
vt 0.2888886 0.25
vt 0.2888886 0.375
vt 0.2888886 0.5000001
vt 0.2888886 0.6250001
vt 0.2888886 0.7500001
vt 0.2888886 0.8750001
vt 0.2888886 1
vt 0.3111108 0
vt 0.3111108 0.125
vt 0.3111108 0.25
vt 0.3111108 0.375
vt 0.3111108 0.5000001
vt 0.3111108 0.6250001
vt 0.3111108 0.7500001
vt 0.3111108 0.8750001
vt 0.3111108 1
vt 0.333333 0
vt 0.333333 0.125
vt 0.333333 0.25
vt 0.333333 0.375
vt 0.333333 0.5000001
vt 0.333333 0.6250001
vt 0.333333 0.7500001
vt 0.333333 0.8750001
vt 0.333333 1
vt 0.3555552 0
vt 0.3555552 0.125
vt 0.3555552 0.25
vt 0.3555552 0.375
vt 0.3555552 0.5000001
vt 0.3555552 0.6250001
vt 0.3555552 0.7500001
vt 0.3555552 0.8750001
vt 0.3555552 1
vt 0.3777774 0
vt 0.3777774 0.125
vt 0.3777774 0.25
vt 0.3777774 0.375
vt 0.3777774 0.5000001
vt 0.3777774 0.6250001
vt 0.3777774 0.7500001
vt 0.3777774 0.8750001
vt 0.3777774 1
vt 0.3999996 0
vt 0.3999996 0.125
vt 0.3999996 0.25
vt 0.3999996 0.375
vt 0.3999996 0.5000001
vt 0.3999996 0.6250001
vt 0.3999996 0.7500001
vt 0.3999996 0.8750001
vt 0.3999996 1
vt 0.4222218 0
vt 0.4222218 0.125
vt 0.4222218 0.25
vt 0.4222218 0.375
vt 0.4222218 0.5000001
vt 0.4222218 0.6250001
vt 0.4222218 0.7500001
vt 0.4222218 0.8750001
vt 0.4222218 1
vt 0.444444 0
vt 0.444444 0.125
vt 0.444444 0.25
vt 0.444444 0.375
vt 0.444444 0.5000001
vt 0.444444 0.6250001
vt 0.444444 0.7500001
vt 0.444444 0.8750001
vt 0.444444 1
vt 0.4666662 0
vt 0.4666662 0.125
vt 0.4666662 0.25
vt 0.4666662 0.375
vt 0.4666662 0.5000001
vt 0.4666662 0.6250001
vt 0.4666662 0.7500001
vt 0.4666662 0.8750001
vt 0.4666662 1
vt 0.4888884 0
vt 0.4888884 0.125
vt 0.4888884 0.25
vt 0.4888884 0.375
vt 0.4888884 0.5000001
vt 0.4888884 0.6250001
vt 0.4888884 0.7500001
vt 0.4888884 0.8750001
vt 0.4888884 1
vt 0.5111106 0
vt 0.5111106 0.125
vt 0.5111106 0.25
vt 0.5111106 0.375
vt 0.5111106 0.5000001
vt 0.5111106 0.6250001
vt 0.5111106 0.7500001
vt 0.5111106 0.8750001
vt 0.5111106 1
vt 0.5333328 0
vt 0.5333328 0.125
vt 0.5333328 0.25
vt 0.5333328 0.375
vt 0.5333328 0.5000001
vt 0.5333328 0.6250001
vt 0.5333328 0.7500001
vt 0.5333328 0.8750001
vt 0.5333328 1
vt 0.555555 0
vt 0.555555 0.125
vt 0.555555 0.25
vt 0.555555 0.375
vt 0.555555 0.5000001
vt 0.555555 0.6250001
vt 0.555555 0.7500001
vt 0.555555 0.8750001
vt 0.555555 1
vt 0.5777772 0
vt 0.5777772 0.125
vt 0.5777772 0.25
vt 0.5777772 0.375
vt 0.5777772 0.5000001
vt 0.5777772 0.6250001
vt 0.5777772 0.7500001
vt 0.5777772 0.8750001
vt 0.5777772 1
vt 0.5999994 0
vt 0.5999994 0.125
vt 0.5999994 0.25
vt 0.5999994 0.375
vt 0.5999994 0.5000001
vt 0.5999994 0.6250001
vt 0.5999994 0.7500001
vt 0.5999994 0.8750001
vt 0.5999994 1
vt 0.6222216 0
vt 0.6222216 0.125
vt 0.6222216 0.25
vt 0.6222216 0.375
vt 0.6222216 0.5000001
vt 0.6222216 0.6250001
vt 0.6222216 0.7500001
vt 0.6222216 0.8750001
vt 0.6222216 1
vt 0.6444438 0
vt 0.6444438 0.125
vt 0.6444438 0.25
vt 0.6444438 0.375
vt 0.6444438 0.5000001
vt 0.6444438 0.6250001
vt 0.6444438 0.7500001
vt 0.6444438 0.8750001
vt 0.6444438 1
vt 0.666666 0
vt 0.666666 0.125
vt 0.666666 0.25
vt 0.666666 0.375
vt 0.666666 0.5000001
vt 0.666666 0.6250001
vt 0.666666 0.7500001
vt 0.666666 0.8750001
vt 0.666666 1
vt 0.6888882 0
vt 0.6888882 0.125
vt 0.6888882 0.25
vt 0.6888882 0.375
vt 0.6888882 0.5000001
vt 0.6888882 0.6250001
vt 0.6888882 0.7500001
vt 0.6888882 0.8750001
vt 0.6888882 1
vt 0.7111104 0
vt 0.7111104 0.125
vt 0.7111104 0.25
vt 0.7111104 0.375
vt 0.7111104 0.5000001
vt 0.7111104 0.6250001
vt 0.7111104 0.7500001
vt 0.7111104 0.8750001
vt 0.7111104 1
vt 0.7333326 0
vt 0.7333326 0.125
vt 0.7333326 0.25
vt 0.7333326 0.375
vt 0.7333326 0.5000001
vt 0.7333326 0.6250001
vt 0.7333326 0.7500001
vt 0.7333326 0.8750001
vt 0.7333326 1
vt 0.7555548 0
vt 0.7555548 0.125
vt 0.7555548 0.25
vt 0.7555548 0.375
vt 0.7555548 0.5000001
vt 0.7555548 0.6250001
vt 0.7555548 0.7500001
vt 0.7555548 0.8750001
vt 0.7555548 1
vt 0.777777 0
vt 0.777777 0.125
vt 0.777777 0.25
vt 0.777777 0.375
vt 0.777777 0.5000001
vt 0.777777 0.6250001
vt 0.777777 0.7500001
vt 0.777777 0.8750001
vt 0.777777 1
vt 0.7999992 0
vt 0.7999992 0.125
vt 0.7999992 0.25
vt 0.7999992 0.375
vt 0.7999992 0.5000001
vt 0.7999992 0.6250001
vt 0.7999992 0.7500001
vt 0.7999992 0.8750001
vt 0.7999992 1
vt 0.8222214 0
vt 0.8222214 0.125
vt 0.8222214 0.25
vt 0.8222214 0.375
vt 0.8222214 0.5000001
vt 0.8222214 0.6250001
vt 0.8222214 0.7500001
vt 0.8222214 0.8750001
vt 0.8222214 1
vt 0.8444436 0
vt 0.8444436 0.125
vt 0.8444436 0.25
vt 0.8444436 0.375
vt 0.8444436 0.5000001
vt 0.8444436 0.6250001
vt 0.8444436 0.7500001
vt 0.8444436 0.8750001
vt 0.8444436 1
vt 0.8666658 0
vt 0.8666658 0.125
vt 0.8666658 0.25
vt 0.8666658 0.375
vt 0.8666658 0.5000001
vt 0.8666658 0.6250001
vt 0.8666658 0.7500001
vt 0.8666658 0.8750001
vt 0.8666658 1
vt 0.888888 0
vt 0.888888 0.125
vt 0.888888 0.25
vt 0.888888 0.375
vt 0.888888 0.5000001
vt 0.888888 0.6250001
vt 0.888888 0.7500001
vt 0.888888 0.8750001
vt 0.888888 1
vt 0.9111102 0
vt 0.9111102 0.125
vt 0.9111102 0.25
vt 0.9111102 0.375
vt 0.9111102 0.5000001
vt 0.9111102 0.6250001
vt 0.9111102 0.7500001
vt 0.9111102 0.8750001
vt 0.9111102 1
vt 0.9333324 0
vt 0.9333324 0.125
vt 0.9333324 0.25
vt 0.9333324 0.375
vt 0.9333324 0.5000001
vt 0.9333324 0.6250001
vt 0.9333324 0.7500001
vt 0.9333324 0.8750001
vt 0.9333324 1
vt 0.9555546 0
vt 0.9555546 0.125
vt 0.9555546 0.25
vt 0.9555546 0.375
vt 0.9555546 0.5000001
vt 0.9555546 0.6250001
vt 0.9555546 0.7500001
vt 0.9555546 0.8750001
vt 0.9555546 1
vt 0.9777768 0
vt 0.9777768 0.125
vt 0.9777768 0.25
vt 0.9777768 0.375
vt 0.9777768 0.5000001
vt 0.9777768 0.6250001
vt 0.9777768 0.7500001
vt 0.9777768 0.8750001
vt 0.9777768 1
vt 0.999999 0
vt 0.999999 0.125
vt 0.999999 0.25
vt 0.999999 0.375
vt 0.999999 0.5000001
vt 0.999999 0.6250001
vt 0.999999 0.7500001
vt 0.999999 0.8750001
vt 0.999999 1
vt 0 0
vt 0 0
vt 0 0
vt 0 0
vt 0 0
vt 0 0
vt 0 0
vt 0 0
vt 0 0
vt 0 0
vt 0 0
vt 0 0
vt 0 0
vt 0 0
vt 0 0
vt 0 0
vt 0 0
vt 0 0
vt 0 0
vt 0 0
vt 0 0
vt 0 0
vt 0 0
vt 0 0
vt 0 0
vt 0 0
vt 0 0
vt 0 0
vt 0 0
vt 0 0
vt 0 0
vt 0 0
vt 0 0
vt 0 0
vt 0 0
vt 0 0
vt 0 0
vt 0 0
vt 0 0
vt 0 0
vt 0 0
vt 0 0
vt 0 0
vt 0 0
vt 0 0
vt 0 0
vt 0 0
vt 0 0

usemtl TransparentPlastic
usemap TransparentPlastic
f 2/2/2 1/1/1 461/461/461
f 3/3/3 2/2/2 461/461/461
f 4/4/4 3/3/3 461/461/461
f 5/5/5 4/4/4 461/461/461
f 6/6/6 5/5/5 461/461/461
f 7/7/7 6/6/6 461/461/461
f 8/8/8 7/7/7 461/461/461
f 9/9/9 8/8/8 461/461/461
f 1/1/1 2/2/2 11/11/11
f 1/1/1 11/11/11 10/10/10
f 2/2/2 3/3/3 12/12/12
f 2/2/2 12/12/12 11/11/11
f 3/3/3 4/4/4 13/13/13
f 3/3/3 13/13/13 12/12/12
f 4/4/4 5/5/5 14/14/14
f 4/4/4 14/14/14 13/13/13
f 5/5/5 6/6/6 15/15/15
f 5/5/5 15/15/15 14/14/14
f 6/6/6 7/7/7 16/16/16
f 6/6/6 16/16/16 15/15/15
f 7/7/7 8/8/8 17/17/17
f 7/7/7 17/17/17 16/16/16
f 8/8/8 9/9/9 18/18/18
f 8/8/8 18/18/18 17/17/17
f 10/10/10 11/11/11 20/20/20
f 10/10/10 20/20/20 19/19/19
f 11/11/11 12/12/12 21/21/21
f 11/11/11 21/21/21 20/20/20
f 12/12/12 13/13/13 22/22/22
f 12/12/12 22/22/22 21/21/21
f 13/13/13 14/14/14 23/23/23
f 13/13/13 23/23/23 22/22/22
f 14/14/14 15/15/15 24/24/24
f 14/14/14 24/24/24 23/23/23
f 15/15/15 16/16/16 25/25/25
f 15/15/15 25/25/25 24/24/24
f 16/16/16 17/17/17 26/26/26
f 16/16/16 26/26/26 25/25/25
f 17/17/17 18/18/18 27/27/27
f 17/17/17 27/27/27 26/26/26
f 19/19/19 20/20/20 29/29/29
f 19/19/19 29/29/29 28/28/28
f 20/20/20 21/21/21 30/30/30
f 20/20/20 30/30/30 29/29/29
f 21/21/21 22/22/22 31/31/31
f 21/21/21 31/31/31 30/30/30
f 22/22/22 23/23/23 32/32/32
f 22/22/22 32/32/32 31/31/31
f 23/23/23 24/24/24 33/33/33
f 23/23/23 33/33/33 32/32/32
f 24/24/24 25/25/25 34/34/34
f 24/24/24 34/34/34 33/33/33
f 25/25/25 26/26/26 35/35/35
f 25/25/25 35/35/35 34/34/34
f 26/26/26 27/27/27 36/36/36
f 26/26/26 36/36/36 35/35/35
f 28/28/28 29/29/29 38/38/38
f 28/28/28 38/38/38 37/37/37
f 29/29/29 30/30/30 39/39/39
f 29/29/29 39/39/39 38/38/38
f 30/30/30 31/31/31 40/40/40
f 30/30/30 40/40/40 39/39/39
f 31/31/31 32/32/32 41/41/41
f 31/31/31 41/41/41 40/40/40
f 32/32/32 33/33/33 42/42/42
f 32/32/32 42/42/42 41/41/41
f 33/33/33 34/34/34 43/43/43
f 33/33/33 43/43/43 42/42/42
f 34/34/34 35/35/35 44/44/44
f 34/34/34 44/44/44 43/43/43
f 35/35/35 36/36/36 45/45/45
f 35/35/35 45/45/45 44/44/44
f 37/37/37 38/38/38 47/47/47
f 37/37/37 47/47/47 46/46/46
f 38/38/38 39/39/39 48/48/48
f 38/38/38 48/48/48 47/47/47
f 39/39/39 40/40/40 49/49/49
f 39/39/39 49/49/49 48/48/48
f 40/40/40 41/41/41 50/50/50
f 40/40/40 50/50/50 49/49/49
f 41/41/41 42/42/42 51/51/51
f 41/41/41 51/51/51 50/50/50
f 42/42/42 43/43/43 52/52/52
f 42/42/42 52/52/52 51/51/51
f 43/43/43 44/44/44 53/53/53
f 43/43/43 53/53/53 52/52/52
f 44/44/44 45/45/45 54/54/54
f 44/44/44 54/54/54 53/53/53
f 46/46/46 47/47/47 56/56/56
f 46/46/46 56/56/56 55/55/55
f 47/47/47 48/48/48 57/57/57
f 47/47/47 57/57/57 56/56/56
f 48/48/48 49/49/49 58/58/58
f 48/48/48 58/58/58 57/57/57
f 49/49/49 50/50/50 59/59/59
f 49/49/49 59/59/59 58/58/58
f 50/50/50 51/51/51 60/60/60
f 50/50/50 60/60/60 59/59/59
f 51/51/51 52/52/52 61/61/61
f 51/51/51 61/61/61 60/60/60
f 52/52/52 53/53/53 62/62/62
f 52/52/52 62/62/62 61/61/61
f 53/53/53 54/54/54 63/63/63
f 53/53/53 63/63/63 62/62/62
f 55/55/55 56/56/56 65/65/65
f 55/55/55 65/65/65 64/64/64
f 56/56/56 57/57/57 66/66/66
f 56/56/56 66/66/66 65/65/65
f 57/57/57 58/58/58 67/67/67
f 57/57/57 67/67/67 66/66/66
f 58/58/58 59/59/59 68/68/68
f 58/58/58 68/68/68 67/67/67
f 59/59/59 60/60/60 69/69/69
f 59/59/59 69/69/69 68/68/68
f 60/60/60 61/61/61 70/70/70
f 60/60/60 70/70/70 69/69/69
f 61/61/61 62/62/62 71/71/71
f 61/61/61 71/71/71 70/70/70
f 62/62/62 63/63/63 72/72/72
f 62/62/62 72/72/72 71/71/71
f 64/64/64 65/65/65 74/74/74
f 64/64/64 74/74/74 73/73/73
f 65/65/65 66/66/66 75/75/75
f 65/65/65 75/75/75 74/74/74
f 66/66/66 67/67/67 76/76/76
f 66/66/66 76/76/76 75/75/75
f 67/67/67 68/68/68 77/77/77
f 67/67/67 77/77/77 76/76/76
f 68/68/68 69/69/69 78/78/78
f 68/68/68 78/78/78 77/77/77
f 69/69/69 70/70/70 79/79/79
f 69/69/69 79/79/79 78/78/78
f 70/70/70 71/71/71 80/80/80
f 70/70/70 80/80/80 79/79/79
f 71/71/71 72/72/72 81/81/81
f 71/71/71 81/81/81 80/80/80
f 73/73/73 74/74/74 83/83/83
f 73/73/73 83/83/83 82/82/82
f 74/74/74 75/75/75 84/84/84
f 74/74/74 84/84/84 83/83/83
f 75/75/75 76/76/76 85/85/85
f 75/75/75 85/85/85 84/84/84
f 76/76/76 77/77/77 86/86/86
f 76/76/76 86/86/86 85/85/85
f 77/77/77 78/78/78 87/87/87
f 77/77/77 87/87/87 86/86/86
f 78/78/78 79/79/79 88/88/88
f 78/78/78 88/88/88 87/87/87
f 79/79/79 80/80/80 89/89/89
f 79/79/79 89/89/89 88/88/88
f 80/80/80 81/81/81 90/90/90
f 80/80/80 90/90/90 89/89/89
f 82/82/82 83/83/83 92/92/92
f 82/82/82 92/92/92 91/91/91
f 83/83/83 84/84/84 93/93/93
f 83/83/83 93/93/93 92/92/92
f 84/84/84 85/85/85 94/94/94
f 84/84/84 94/94/94 93/93/93
f 85/85/85 86/86/86 95/95/95
f 85/85/85 95/95/95 94/94/94
f 86/86/86 87/87/87 96/96/96
f 86/86/86 96/96/96 95/95/95
f 87/87/87 88/88/88 97/97/97
f 87/87/87 97/97/97 96/96/96
f 88/88/88 89/89/89 98/98/98
f 88/88/88 98/98/98 97/97/97
f 89/89/89 90/90/90 99/99/99
f 89/89/89 99/99/99 98/98/98
f 91/91/91 92/92/92 101/101/101
f 91/91/91 101/101/101 100/100/100
f 92/92/92 93/93/93 102/102/102
f 92/92/92 102/102/102 101/101/101
f 93/93/93 94/94/94 103/103/103
f 93/93/93 103/103/103 102/102/102
f 94/94/94 95/95/95 104/104/104
f 94/94/94 104/104/104 103/103/103
f 95/95/95 96/96/96 105/105/105
f 95/95/95 105/105/105 104/104/104
f 96/96/96 97/97/97 106/106/106
f 96/96/96 106/106/106 105/105/105
f 97/97/97 98/98/98 107/107/107
f 97/97/97 107/107/107 106/106/106
f 98/98/98 99/99/99 108/108/108
f 98/98/98 108/108/108 107/107/107
f 100/100/100 101/101/101 110/110/110
f 100/100/100 110/110/110 109/109/109
f 101/101/101 102/102/102 111/111/111
f 101/101/101 111/111/111 110/110/110
f 102/102/102 103/103/103 112/112/112
f 102/102/102 112/112/112 111/111/111
f 103/103/103 104/104/104 113/113/113
f 103/103/103 113/113/113 112/112/112
f 104/104/104 105/105/105 114/114/114
f 104/104/104 114/114/114 113/113/113
f 105/105/105 106/106/106 115/115/115
f 105/105/105 115/115/115 114/114/114
f 106/106/106 107/107/107 116/116/116
f 106/106/106 116/116/116 115/115/115
f 107/107/107 108/108/108 117/117/117
f 107/107/107 117/117/117 116/116/116
f 109/109/109 110/110/110 119/119/119
f 109/109/109 119/119/119 118/118/118
f 110/110/110 111/111/111 120/120/120
f 110/110/110 120/120/120 119/119/119
f 111/111/111 112/112/112 121/121/121
f 111/111/111 121/121/121 120/120/120
f 112/112/112 113/113/113 122/122/122
f 112/112/112 122/122/122 121/121/121
f 113/113/113 114/114/114 123/123/123
f 113/113/113 123/123/123 122/122/122
f 114/114/114 115/115/115 124/124/124
f 114/114/114 124/124/124 123/123/123
f 115/115/115 116/116/116 125/125/125
f 115/115/115 125/125/125 124/124/124
f 116/116/116 117/117/117 126/126/126
f 116/116/116 126/126/126 125/125/125
f 118/118/118 119/119/119 128/128/128
f 118/118/118 128/128/128 127/127/127
f 119/119/119 120/120/120 129/129/129
f 119/119/119 129/129/129 128/128/128
f 120/120/120 121/121/121 130/130/130
f 120/120/120 130/130/130 129/129/129
f 121/121/121 122/122/122 131/131/131
f 121/121/121 131/131/131 130/130/130
f 122/122/122 123/123/123 132/132/132
f 122/122/122 132/132/132 131/131/131
f 123/123/123 124/124/124 133/133/133
f 123/123/123 133/133/133 132/132/132
f 124/124/124 125/125/125 134/134/134
f 124/124/124 134/134/134 133/133/133
f 125/125/125 126/126/126 135/135/135
f 125/125/125 135/135/135 134/134/134
f 127/127/127 128/128/128 137/137/137
f 127/127/127 137/137/137 136/136/136
f 128/128/128 129/129/129 138/138/138
f 128/128/128 138/138/138 137/137/137
f 129/129/129 130/130/130 139/139/139
f 129/129/129 139/139/139 138/138/138
f 130/130/130 131/131/131 140/140/140
f 130/130/130 140/140/140 139/139/139
f 131/131/131 132/132/132 141/141/141
f 131/131/131 141/141/141 140/140/140
f 132/132/132 133/133/133 142/142/142
f 132/132/132 142/142/142 141/141/141
f 133/133/133 134/134/134 143/143/143
f 133/133/133 143/143/143 142/142/142
f 134/134/134 135/135/135 144/144/144
f 134/134/134 144/144/144 143/143/143
f 136/136/136 137/137/137 146/146/146
f 136/136/136 146/146/146 145/145/145
f 137/137/137 138/138/138 147/147/147
f 137/137/137 147/147/147 146/146/146
f 138/138/138 139/139/139 148/148/148
f 138/138/138 148/148/148 147/147/147
f 139/139/139 140/140/140 149/149/149
f 139/139/139 149/149/149 148/148/148
f 140/140/140 141/141/141 150/150/150
f 140/140/140 150/150/150 149/149/149
f 141/141/141 142/142/142 151/151/151
f 141/141/141 151/151/151 150/150/150
f 142/142/142 143/143/143 152/152/152
f 142/142/142 152/152/152 151/151/151
f 143/143/143 144/144/144 153/153/153
f 143/143/143 153/153/153 152/152/152
f 145/145/145 146/146/146 155/155/155
f 145/145/145 155/155/155 154/154/154
f 146/146/146 147/147/147 156/156/156
f 146/146/146 156/156/156 155/155/155
f 147/147/147 148/148/148 157/157/157
f 147/147/147 157/157/157 156/156/156
f 148/148/148 149/149/149 158/158/158
f 148/148/148 158/158/158 157/157/157
f 149/149/149 150/150/150 159/159/159
f 149/149/149 159/159/159 158/158/158
f 150/150/150 151/151/151 160/160/160
f 150/150/150 160/160/160 159/159/159
f 151/151/151 152/152/152 161/161/161
f 151/151/151 161/161/161 160/160/160
f 152/152/152 153/153/153 162/162/162
f 152/152/152 162/162/162 161/161/161
f 154/154/154 155/155/155 164/164/164
f 154/154/154 164/164/164 163/163/163
f 155/155/155 156/156/156 165/165/165
f 155/155/155 165/165/165 164/164/164
f 156/156/156 157/157/157 166/166/166
f 156/156/156 166/166/166 165/165/165
f 157/157/157 158/158/158 167/167/167
f 157/157/157 167/167/167 166/166/166
f 158/158/158 159/159/159 168/168/168
f 158/158/158 168/168/168 167/167/167
f 159/159/159 160/160/160 169/169/169
f 159/159/159 169/169/169 168/168/168
f 160/160/160 161/161/161 170/170/170
f 160/160/160 170/170/170 169/169/169
f 161/161/161 162/162/162 171/171/171
f 161/161/161 171/171/171 170/170/170
f 163/163/163 164/164/164 173/173/173
f 163/163/163 173/173/173 172/172/172
f 164/164/164 165/165/165 174/174/174
f 164/164/164 174/174/174 173/173/173
f 165/165/165 166/166/166 175/175/175
f 165/165/165 175/175/175 174/174/174
f 166/166/166 167/167/167 176/176/176
f 166/166/166 176/176/176 175/175/175
f 167/167/167 168/168/168 177/177/177
f 167/167/167 177/177/177 176/176/176
f 168/168/168 169/169/169 178/178/178
f 168/168/168 178/178/178 177/177/177
f 169/169/169 170/170/170 179/179/179
f 169/169/169 179/179/179 178/178/178
f 170/170/170 171/171/171 180/180/180
f 170/170/170 180/180/180 179/179/179
f 172/172/172 173/173/173 182/182/182
f 172/172/172 182/182/182 181/181/181
f 173/173/173 174/174/174 183/183/183
f 173/173/173 183/183/183 182/182/182
f 174/174/174 175/175/175 184/184/184
f 174/174/174 184/184/184 183/183/183
f 175/175/175 176/176/176 185/185/185
f 175/175/175 185/185/185 184/184/184
f 176/176/176 177/177/177 186/186/186
f 176/176/176 186/186/186 185/185/185
f 177/177/177 178/178/178 187/187/187
f 177/177/177 187/187/187 186/186/186
f 178/178/178 179/179/179 188/188/188
f 178/178/178 188/188/188 187/187/187
f 179/179/179 180/180/180 189/189/189
f 179/179/179 189/189/189 188/188/188
f 181/181/181 182/182/182 191/191/191
f 181/181/181 191/191/191 190/190/190
f 182/182/182 183/183/183 192/192/192
f 182/182/182 192/192/192 191/191/191
f 183/183/183 184/184/184 193/193/193
f 183/183/183 193/193/193 192/192/192
f 184/184/184 185/185/185 194/194/194
f 184/184/184 194/194/194 193/193/193
f 185/185/185 186/186/186 195/195/195
f 185/185/185 195/195/195 194/194/194
f 186/186/186 187/187/187 196/196/196
f 186/186/186 196/196/196 195/195/195
f 187/187/187 188/188/188 197/197/197
f 187/187/187 197/197/197 196/196/196
f 188/188/188 189/189/189 198/198/198
f 188/188/188 198/198/198 197/197/197
f 190/190/190 191/191/191 200/200/200
f 190/190/190 200/200/200 199/199/199
f 191/191/191 192/192/192 201/201/201
f 191/191/191 201/201/201 200/200/200
f 192/192/192 193/193/193 202/202/202
f 192/192/192 202/202/202 201/201/201
f 193/193/193 194/194/194 203/203/203
f 193/193/193 203/203/203 202/202/202
f 194/194/194 195/195/195 204/204/204
f 194/194/194 204/204/204 203/203/203
f 195/195/195 196/196/196 205/205/205
f 195/195/195 205/205/205 204/204/204
f 196/196/196 197/197/197 206/206/206
f 196/196/196 206/206/206 205/205/205
f 197/197/197 198/198/198 207/207/207
f 197/197/197 207/207/207 206/206/206
f 199/199/199 200/200/200 209/209/209
f 199/199/199 209/209/209 208/208/208
f 200/200/200 201/201/201 210/210/210
f 200/200/200 210/210/210 209/209/209
f 201/201/201 202/202/202 211/211/211
f 201/201/201 211/211/211 210/210/210
f 202/202/202 203/203/203 212/212/212
f 202/202/202 212/212/212 211/211/211
f 203/203/203 204/204/204 213/213/213
f 203/203/203 213/213/213 212/212/212
f 204/204/204 205/205/205 214/214/214
f 204/204/204 214/214/214 213/213/213
f 205/205/205 206/206/206 215/215/215
f 205/205/205 215/215/215 214/214/214
f 206/206/206 207/207/207 216/216/216
f 206/206/206 216/216/216 215/215/215
f 208/208/208 209/209/209 218/218/218
f 208/208/208 218/218/218 217/217/217
f 209/209/209 210/210/210 219/219/219
f 209/209/209 219/219/219 218/218/218
f 210/210/210 211/211/211 220/220/220
f 210/210/210 220/220/220 219/219/219
f 211/211/211 212/212/212 221/221/221
f 211/211/211 221/221/221 220/220/220
f 212/212/212 213/213/213 222/222/222
f 212/212/212 222/222/222 221/221/221
f 213/213/213 214/214/214 223/223/223
f 213/213/213 223/223/223 222/222/222
f 214/214/214 215/215/215 224/224/224
f 214/214/214 224/224/224 223/223/223
f 215/215/215 216/216/216 225/225/225
f 215/215/215 225/225/225 224/224/224
f 217/217/217 218/218/218 227/227/227
f 217/217/217 227/227/227 226/226/226
f 218/218/218 219/219/219 228/228/228
f 218/218/218 228/228/228 227/227/227
f 219/219/219 220/220/220 229/229/229
f 219/219/219 229/229/229 228/228/228
f 220/220/220 221/221/221 230/230/230
f 220/220/220 230/230/230 229/229/229
f 221/221/221 222/222/222 231/231/231
f 221/221/221 231/231/231 230/230/230
f 222/222/222 223/223/223 232/232/232
f 222/222/222 232/232/232 231/231/231
f 223/223/223 224/224/224 233/233/233
f 223/223/223 233/233/233 232/232/232
f 224/224/224 225/225/225 234/234/234
f 224/224/224 234/234/234 233/233/233
f 226/226/226 227/227/227 236/236/236
f 226/226/226 236/236/236 235/235/235
f 227/227/227 228/228/228 237/237/237
f 227/227/227 237/237/237 236/236/236
f 228/228/228 229/229/229 238/238/238
f 228/228/228 238/238/238 237/237/237
f 229/229/229 230/230/230 239/239/239
f 229/229/229 239/239/239 238/238/238
f 230/230/230 231/231/231 240/240/240
f 230/230/230 240/240/240 239/239/239
f 231/231/231 232/232/232 241/241/241
f 231/231/231 241/241/241 240/240/240
f 232/232/232 233/233/233 242/242/242
f 232/232/232 242/242/242 241/241/241
f 233/233/233 234/234/234 243/243/243
f 233/233/233 243/243/243 242/242/242
f 235/235/235 236/236/236 245/245/245
f 235/235/235 245/245/245 244/244/244
f 236/236/236 237/237/237 246/246/246
f 236/236/236 246/246/246 245/245/245
f 237/237/237 238/238/238 247/247/247
f 237/237/237 247/247/247 246/246/246
f 238/238/238 239/239/239 248/248/248
f 238/238/238 248/248/248 247/247/247
f 239/239/239 240/240/240 249/249/249
f 239/239/239 249/249/249 248/248/248
f 240/240/240 241/241/241 250/250/250
f 240/240/240 250/250/250 249/249/249
f 241/241/241 242/242/242 251/251/251
f 241/241/241 251/251/251 250/250/250
f 242/242/242 243/243/243 252/252/252
f 242/242/242 252/252/252 251/251/251
f 244/244/244 245/245/245 254/254/254
f 244/244/244 254/254/254 253/253/253
f 245/245/245 246/246/246 255/255/255
f 245/245/245 255/255/255 254/254/254
f 246/246/246 247/247/247 256/256/256
f 246/246/246 256/256/256 255/255/255
f 247/247/247 248/248/248 257/257/257
f 247/247/247 257/257/257 256/256/256
f 248/248/248 249/249/249 258/258/258
f 248/248/248 258/258/258 257/257/257
f 249/249/249 250/250/250 259/259/259
f 249/249/249 259/259/259 258/258/258
f 250/250/250 251/251/251 260/260/260
f 250/250/250 260/260/260 259/259/259
f 251/251/251 252/252/252 261/261/261
f 251/251/251 261/261/261 260/260/260
f 253/253/253 254/254/254 263/263/263
f 253/253/253 263/263/263 262/262/262
f 254/254/254 255/255/255 264/264/264
f 254/254/254 264/264/264 263/263/263
f 255/255/255 256/256/256 265/265/265
f 255/255/255 265/265/265 264/264/264
f 256/256/256 257/257/257 266/266/266
f 256/256/256 266/266/266 265/265/265
f 257/257/257 258/258/258 267/267/267
f 257/257/257 267/267/267 266/266/266
f 258/258/258 259/259/259 268/268/268
f 258/258/258 268/268/268 267/267/267
f 259/259/259 260/260/260 269/269/269
f 259/259/259 269/269/269 268/268/268
f 260/260/260 261/261/261 270/270/270
f 260/260/260 270/270/270 269/269/269
f 262/262/262 263/263/263 272/272/272
f 262/262/262 272/272/272 271/271/271
f 263/263/263 264/264/264 273/273/273
f 263/263/263 273/273/273 272/272/272
f 264/264/264 265/265/265 274/274/274
f 264/264/264 274/274/274 273/273/273
f 265/265/265 266/266/266 275/275/275
f 265/265/265 275/275/275 274/274/274
f 266/266/266 267/267/267 276/276/276
f 266/266/266 276/276/276 275/275/275
f 267/267/267 268/268/268 277/277/277
f 267/267/267 277/277/277 276/276/276
f 268/268/268 269/269/269 278/278/278
f 268/268/268 278/278/278 277/277/277
f 269/269/269 270/270/270 279/279/279
f 269/269/269 279/279/279 278/278/278
f 271/271/271 272/272/272 281/281/281
f 271/271/271 281/281/281 280/280/280
f 272/272/272 273/273/273 282/282/282
f 272/272/272 282/282/282 281/281/281
f 273/273/273 274/274/274 283/283/283
f 273/273/273 283/283/283 282/282/282
f 274/274/274 275/275/275 284/284/284
f 274/274/274 284/284/284 283/283/283
f 275/275/275 276/276/276 285/285/285
f 275/275/275 285/285/285 284/284/284
f 276/276/276 277/277/277 286/286/286
f 276/276/276 286/286/286 285/285/285
f 277/277/277 278/278/278 287/287/287
f 277/277/277 287/287/287 286/286/286
f 278/278/278 279/279/279 288/288/288
f 278/278/278 288/288/288 287/287/287
f 280/280/280 281/281/281 290/290/290
f 280/280/280 290/290/290 289/289/289
f 281/281/281 282/282/282 291/291/291
f 281/281/281 291/291/291 290/290/290
f 282/282/282 283/283/283 292/292/292
f 282/282/282 292/292/292 291/291/291
f 283/283/283 284/284/284 293/293/293
f 283/283/283 293/293/293 292/292/292
f 284/284/284 285/285/285 294/294/294
f 284/284/284 294/294/294 293/293/293
f 285/285/285 286/286/286 295/295/295
f 285/285/285 295/295/295 294/294/294
f 286/286/286 287/287/287 296/296/296
f 286/286/286 296/296/296 295/295/295
f 287/287/287 288/288/288 297/297/297
f 287/287/287 297/297/297 296/296/296
f 289/289/289 290/290/290 299/299/299
f 289/289/289 299/299/299 298/298/298
f 290/290/290 291/291/291 300/300/300
f 290/290/290 300/300/300 299/299/299
f 291/291/291 292/292/292 301/301/301
f 291/291/291 301/301/301 300/300/300
f 292/292/292 293/293/293 302/302/302
f 292/292/292 302/302/302 301/301/301
f 293/293/293 294/294/294 303/303/303
f 293/293/293 303/303/303 302/302/302
f 294/294/294 295/295/295 304/304/304
f 294/294/294 304/304/304 303/303/303
f 295/295/295 296/296/296 305/305/305
f 295/295/295 305/305/305 304/304/304
f 296/296/296 297/297/297 306/306/306
f 296/296/296 306/306/306 305/305/305
f 298/298/298 299/299/299 308/308/308
f 298/298/298 308/308/308 307/307/307
f 299/299/299 300/300/300 309/309/309
f 299/299/299 309/309/309 308/308/308
f 300/300/300 301/301/301 310/310/310
f 300/300/300 310/310/310 309/309/309
f 301/301/301 302/302/302 311/311/311
f 301/301/301 311/311/311 310/310/310
f 302/302/302 303/303/303 312/312/312
f 302/302/302 312/312/312 311/311/311
f 303/303/303 304/304/304 313/313/313
f 303/303/303 313/313/313 312/312/312
f 304/304/304 305/305/305 314/314/314
f 304/304/304 314/314/314 313/313/313
f 305/305/305 306/306/306 315/315/315
f 305/305/305 315/315/315 314/314/314
f 307/307/307 308/308/308 317/317/317
f 307/307/307 317/317/317 316/316/316
f 308/308/308 309/309/309 318/318/318
f 308/308/308 318/318/318 317/317/317
f 309/309/309 310/310/310 319/319/319
f 309/309/309 319/319/319 318/318/318
f 310/310/310 311/311/311 320/320/320
f 310/310/310 320/320/320 319/319/319
f 311/311/311 312/312/312 321/321/321
f 311/311/311 321/321/321 320/320/320
f 312/312/312 313/313/313 322/322/322
f 312/312/312 322/322/322 321/321/321
f 313/313/313 314/314/314 323/323/323
f 313/313/313 323/323/323 322/322/322
f 314/314/314 315/315/315 324/324/324
f 314/314/314 324/324/324 323/323/323
f 316/316/316 317/317/317 326/326/326
f 316/316/316 326/326/326 325/325/325
f 317/317/317 318/318/318 327/327/327
f 317/317/317 327/327/327 326/326/326
f 318/318/318 319/319/319 328/328/328
f 318/318/318 328/328/328 327/327/327
f 319/319/319 320/320/320 329/329/329
f 319/319/319 329/329/329 328/328/328
f 320/320/320 321/321/321 330/330/330
f 320/320/320 330/330/330 329/329/329
f 321/321/321 322/322/322 331/331/331
f 321/321/321 331/331/331 330/330/330
f 322/322/322 323/323/323 332/332/332
f 322/322/322 332/332/332 331/331/331
f 323/323/323 324/324/324 333/333/333
f 323/323/323 333/333/333 332/332/332
f 325/325/325 326/326/326 335/335/335
f 325/325/325 335/335/335 334/334/334
f 326/326/326 327/327/327 336/336/336
f 326/326/326 336/336/336 335/335/335
f 327/327/327 328/328/328 337/337/337
f 327/327/327 337/337/337 336/336/336
f 328/328/328 329/329/329 338/338/338
f 328/328/328 338/338/338 337/337/337
f 329/329/329 330/330/330 339/339/339
f 329/329/329 339/339/339 338/338/338
f 330/330/330 331/331/331 340/340/340
f 330/330/330 340/340/340 339/339/339
f 331/331/331 332/332/332 341/341/341
f 331/331/331 341/341/341 340/340/340
f 332/332/332 333/333/333 342/342/342
f 332/332/332 342/342/342 341/341/341
f 334/334/334 335/335/335 344/344/344
f 334/334/334 344/344/344 343/343/343
f 335/335/335 336/336/336 345/345/345
f 335/335/335 345/345/345 344/344/344
f 336/336/336 337/337/337 346/346/346
f 336/336/336 346/346/346 345/345/345
f 337/337/337 338/338/338 347/347/347
f 337/337/337 347/347/347 346/346/346
f 338/338/338 339/339/339 348/348/348
f 338/338/338 348/348/348 347/347/347
f 339/339/339 340/340/340 349/349/349
f 339/339/339 349/349/349 348/348/348
f 340/340/340 341/341/341 350/350/350
f 340/340/340 350/350/350 349/349/349
f 341/341/341 342/342/342 351/351/351
f 341/341/341 351/351/351 350/350/350
f 343/343/343 344/344/344 353/353/353
f 343/343/343 353/353/353 352/352/352
f 344/344/344 345/345/345 354/354/354
f 344/344/344 354/354/354 353/353/353
f 345/345/345 346/346/346 355/355/355
f 345/345/345 355/355/355 354/354/354
f 346/346/346 347/347/347 356/356/356
f 346/346/346 356/356/356 355/355/355
f 347/347/347 348/348/348 357/357/357
f 347/347/347 357/357/357 356/356/356
f 348/348/348 349/349/349 358/358/358
f 348/348/348 358/358/358 357/357/357
f 349/349/349 350/350/350 359/359/359
f 349/349/349 359/359/359 358/358/358
f 350/350/350 351/351/351 360/360/360
f 350/350/350 360/360/360 359/359/359
f 352/352/352 353/353/353 362/362/362
f 352/352/352 362/362/362 361/361/361
f 353/353/353 354/354/354 363/363/363
f 353/353/353 363/363/363 362/362/362
f 354/354/354 355/355/355 364/364/364
f 354/354/354 364/364/364 363/363/363
f 355/355/355 356/356/356 365/365/365
f 355/355/355 365/365/365 364/364/364
f 356/356/356 357/357/357 366/366/366
f 356/356/356 366/366/366 365/365/365
f 357/357/357 358/358/358 367/367/367
f 357/357/357 367/367/367 366/366/366
f 358/358/358 359/359/359 368/368/368
f 358/358/358 368/368/368 367/367/367
f 359/359/359 360/360/360 369/369/369
f 359/359/359 369/369/369 368/368/368
f 361/361/361 362/362/362 371/371/371
f 361/361/361 371/371/371 370/370/370
f 362/362/362 363/363/363 372/372/372
f 362/362/362 372/372/372 371/371/371
f 363/363/363 364/364/364 373/373/373
f 363/363/363 373/373/373 372/372/372
f 364/364/364 365/365/365 374/374/374
f 364/364/364 374/374/374 373/373/373
f 365/365/365 366/366/366 375/375/375
f 365/365/365 375/375/375 374/374/374
f 366/366/366 367/367/367 376/376/376
f 366/366/366 376/376/376 375/375/375
f 367/367/367 368/368/368 377/377/377
f 367/367/367 377/377/377 376/376/376
f 368/368/368 369/369/369 378/378/378
f 368/368/368 378/378/378 377/377/377
f 370/370/370 371/371/371 380/380/380
f 370/370/370 380/380/380 379/379/379
f 371/371/371 372/372/372 381/381/381
f 371/371/371 381/381/381 380/380/380
f 372/372/372 373/373/373 382/382/382
f 372/372/372 382/382/382 381/381/381
f 373/373/373 374/374/374 383/383/383
f 373/373/373 383/383/383 382/382/382
f 374/374/374 375/375/375 384/384/384
f 374/374/374 384/384/384 383/383/383
f 375/375/375 376/376/376 385/385/385
f 375/375/375 385/385/385 384/384/384
f 376/376/376 377/377/377 386/386/386
f 376/376/376 386/386/386 385/385/385
f 377/377/377 378/378/378 387/387/387
f 377/377/377 387/387/387 386/386/386
f 379/379/379 380/380/380 389/389/389
f 379/379/379 389/389/389 388/388/388
f 380/380/380 381/381/381 390/390/390
f 380/380/380 390/390/390 389/389/389
f 381/381/381 382/382/382 391/391/391
f 381/381/381 391/391/391 390/390/390
f 382/382/382 383/383/383 392/392/392
f 382/382/382 392/392/392 391/391/391
f 383/383/383 384/384/384 393/393/393
f 383/383/383 393/393/393 392/392/392
f 384/384/384 385/385/385 394/394/394
f 384/384/384 394/394/394 393/393/393
f 385/385/385 386/386/386 395/395/395
f 385/385/385 395/395/395 394/394/394
f 386/386/386 387/387/387 396/396/396
f 386/386/386 396/396/396 395/395/395
f 388/388/388 389/389/389 398/398/398
f 388/388/388 398/398/398 397/397/397
f 389/389/389 390/390/390 399/399/399
f 389/389/389 399/399/399 398/398/398
f 390/390/390 391/391/391 400/400/400
f 390/390/390 400/400/400 399/399/399
f 391/391/391 392/392/392 401/401/401
f 391/391/391 401/401/401 400/400/400
f 392/392/392 393/393/393 402/402/402
f 392/392/392 402/402/402 401/401/401
f 393/393/393 394/394/394 403/403/403
f 393/393/393 403/403/403 402/402/402
f 394/394/394 395/395/395 404/404/404
f 394/394/394 404/404/404 403/403/403
f 395/395/395 396/396/396 405/405/405
f 395/395/395 405/405/405 404/404/404
f 397/397/397 398/398/398 407/407/407
f 397/397/397 407/407/407 406/406/406
f 398/398/398 399/399/399 408/408/408
f 398/398/398 408/408/408 407/407/407
f 399/399/399 400/400/400 409/409/409
f 399/399/399 409/409/409 408/408/408
f 400/400/400 401/401/401 410/410/410
f 400/400/400 410/410/410 409/409/409
f 401/401/401 402/402/402 411/411/411
f 401/401/401 411/411/411 410/410/410
f 402/402/402 403/403/403 412/412/412
f 402/402/402 412/412/412 411/411/411
f 403/403/403 404/404/404 413/413/413
f 403/403/403 413/413/413 412/412/412
f 404/404/404 405/405/405 414/414/414
f 404/404/404 414/414/414 413/413/413
f 406/406/406 407/407/407 462/462/462
f 407/407/407 408/408/408 462/462/462
f 408/408/408 409/409/409 462/462/462
f 409/409/409 410/410/410 462/462/462
f 410/410/410 411/411/411 462/462/462
f 411/411/411 412/412/412 462/462/462
f 412/412/412 413/413/413 462/462/462
f 413/413/413 414/414/414 462/462/462
f 1/1/1 1/1/1 1/1/1
f 1/1/1 1/1/1 1/1/1
f 1/1/1 1/1/1 1/1/1
f 1/1/1 1/1/1 1/1/1
f 1/1/1 1/1/1 1/1/1
f 1/1/1 1/1/1 1/1/1
f 1/1/1 1/1/1 1/1/1
f 1/1/1 1/1/1 1/1/1
f 1/1/1 1/1/1 1/1/1
f 1/1/1 1/1/1 1/1/1
f 1/1/1 1/1/1 1/1/1
f 1/1/1 1/1/1 1/1/1
f 1/1/1 1/1/1 1/1/1
f 1/1/1 1/1/1 1/1/1
f 1/1/1 1/1/1 1/1/1
f 1/1/1 1/1/1 1/1/1
f 1/1/1 1/1/1 1/1/1
f 1/1/1 1/1/1 1/1/1
f 1/1/1 1/1/1 1/1/1
f 1/1/1 1/1/1 1/1/1
f 1/1/1 1/1/1 1/1/1
f 1/1/1 1/1/1 1/1/1
f 1/1/1 1/1/1 1/1/1
f 1/1/1 1/1/1 1/1/1
f 1/1/1 1/1/1 1/1/1
f 1/1/1 1/1/1 1/1/1
f 1/1/1 1/1/1 1/1/1
f 1/1/1 1/1/1 1/1/1
f 1/1/1 1/1/1 1/1/1
f 1/1/1 1/1/1 1/1/1
f 1/1/1 1/1/1 1/1/1
f 1/1/1 1/1/1 1/1/1
f 1/1/1 1/1/1 1/1/1
f 1/1/1 1/1/1 1/1/1
f 1/1/1 1/1/1 1/1/1
f 1/1/1 1/1/1 1/1/1
f 1/1/1 1/1/1 1/1/1
f 1/1/1 1/1/1 1/1/1
f 1/1/1 1/1/1 1/1/1
f 1/1/1 1/1/1 1/1/1
f 1/1/1 1/1/1 1/1/1
f 1/1/1 1/1/1 1/1/1
f 1/1/1 1/1/1 1/1/1
f 1/1/1 1/1/1 1/1/1
f 1/1/1 1/1/1 1/1/1
f 1/1/1 1/1/1 1/1/1
f 1/1/1 1/1/1 1/1/1
f 1/1/1 1/1/1 1/1/1
f 1/1/1 1/1/1 1/1/1
f 1/1/1 1/1/1 1/1/1
f 1/1/1 1/1/1 1/1/1
f 1/1/1 1/1/1 1/1/1
f 1/1/1 1/1/1 1/1/1
f 1/1/1 1/1/1 1/1/1
f 1/1/1 1/1/1 1/1/1
f 1/1/1 1/1/1 1/1/1
f 1/1/1 1/1/1 1/1/1
f 1/1/1 1/1/1 1/1/1
f 1/1/1 1/1/1 1/1/1
f 1/1/1 1/1/1 1/1/1
f 1/1/1 1/1/1 1/1/1
f 1/1/1 1/1/1 1/1/1
f 1/1/1 1/1/1 1/1/1
f 1/1/1 1/1/1 1/1/1
f 1/1/1 1/1/1 1/1/1
f 1/1/1 1/1/1 1/1/1
f 1/1/1 1/1/1 1/1/1
f 1/1/1 1/1/1 1/1/1
f 1/1/1 1/1/1 1/1/1
f 1/1/1 1/1/1 1/1/1
f 1/1/1 1/1/1 1/1/1
f 1/1/1 1/1/1 1/1/1
f 1/1/1 1/1/1 1/1/1
f 1/1/1 1/1/1 1/1/1
f 1/1/1 1/1/1 1/1/1
f 1/1/1 1/1/1 1/1/1
f 1/1/1 1/1/1 1/1/1
f 1/1/1 1/1/1 1/1/1
f 1/1/1 1/1/1 1/1/1
f 1/1/1 1/1/1 1/1/1
f 1/1/1 1/1/1 1/1/1
f 1/1/1 1/1/1 1/1/1
f 1/1/1 1/1/1 1/1/1
f 1/1/1 1/1/1 1/1/1
f 1/1/1 1/1/1 1/1/1
f 1/1/1 1/1/1 1/1/1
f 1/1/1 1/1/1 1/1/1
f 1/1/1 1/1/1 1/1/1
f 1/1/1 1/1/1 1/1/1
f 1/1/1 1/1/1 1/1/1
f 1/1/1 1/1/1 1/1/1
f 1/1/1 1/1/1 1/1/1
f 1/1/1 1/1/1 1/1/1
f 1/1/1 1/1/1 1/1/1
f 1/1/1 1/1/1 1/1/1
f 1/1/1 1/1/1 1/1/1
f 1/1/1 1/1/1 1/1/1
f 1/1/1 1/1/1 1/1/1
f 1/1/1 1/1/1 1/1/1
f 1/1/1 1/1/1 1/1/1
f 1/1/1 1/1/1 1/1/1
f 1/1/1 1/1/1 1/1/1
f 1/1/1 1/1/1 1/1/1
f 1/1/1 1/1/1 1/1/1
f 1/1/1 1/1/1 1/1/1
f 1/1/1 1/1/1 1/1/1
f 1/1/1 1/1/1 1/1/1
f 1/1/1 1/1/1 1/1/1
f 1/1/1 1/1/1 1/1/1
f 1/1/1 1/1/1 1/1/1
f 1/1/1 1/1/1 1/1/1
f 1/1/1 1/1/1 1/1/1
f 1/1/1 1/1/1 1/1/1
f 1/1/1 1/1/1 1/1/1
f 1/1/1 1/1/1 1/1/1
f 1/1/1 1/1/1 1/1/1
f 1/1/1 1/1/1 1/1/1
f 1/1/1 1/1/1 1/1/1
f 1/1/1 1/1/1 1/1/1
f 1/1/1 1/1/1 1/1/1
f 1/1/1 1/1/1 1/1/1
f 1/1/1 1/1/1 1/1/1
f 1/1/1 1/1/1 1/1/1
f 1/1/1 1/1/1 1/1/1
f 1/1/1 1/1/1 1/1/1
f 1/1/1 1/1/1 1/1/1
f 1/1/1 1/1/1 1/1/1
f 1/1/1 1/1/1 1/1/1
f 1/1/1 1/1/1 1/1/1
f 1/1/1 1/1/1 1/1/1
f 1/1/1 1/1/1 1/1/1
f 1/1/1 1/1/1 1/1/1
f 1/1/1 1/1/1 1/1/1
f 1/1/1 1/1/1 1/1/1
f 1/1/1 1/1/1 1/1/1
f 1/1/1 1/1/1 1/1/1
f 1/1/1 1/1/1 1/1/1
f 1/1/1 1/1/1 1/1/1
f 1/1/1 1/1/1 1/1/1
f 1/1/1 1/1/1 1/1/1
f 1/1/1 1/1/1 1/1/1
f 1/1/1 1/1/1 1/1/1
f 1/1/1 1/1/1 1/1/1
f 1/1/1 1/1/1 1/1/1
f 1/1/1 1/1/1 1/1/1
f 1/1/1 1/1/1 1/1/1
f 1/1/1 1/1/1 1/1/1
f 1/1/1 1/1/1 1/1/1
f 1/1/1 1/1/1 1/1/1
f 1/1/1 1/1/1 1/1/1
f 1/1/1 1/1/1 1/1/1
f 1/1/1 1/1/1 1/1/1
f 1/1/1 1/1/1 1/1/1
f 1/1/1 1/1/1 1/1/1
f 1/1/1 1/1/1 1/1/1
f 1/1/1 1/1/1 1/1/1
f 1/1/1 1/1/1 1/1/1
f 1/1/1 1/1/1 1/1/1
f 1/1/1 1/1/1 1/1/1
f 1/1/1 1/1/1 1/1/1
f 1/1/1 1/1/1 1/1/1
f 1/1/1 1/1/1 1/1/1
f 1/1/1 1/1/1 1/1/1
f 1/1/1 1/1/1 1/1/1
f 1/1/1 1/1/1 1/1/1
f 1/1/1 1/1/1 1/1/1
f 1/1/1 1/1/1 1/1/1
f 1/1/1 1/1/1 1/1/1
f 1/1/1 1/1/1 1/1/1
f 1/1/1 1/1/1 1/1/1
f 1/1/1 1/1/1 1/1/1
f 1/1/1 1/1/1 1/1/1
f 1/1/1 1/1/1 1/1/1
f 1/1/1 1/1/1 1/1/1
f 1/1/1 1/1/1 1/1/1
f 1/1/1 1/1/1 1/1/1
f 1/1/1 1/1/1 1/1/1
f 1/1/1 1/1/1 1/1/1
f 1/1/1 1/1/1 1/1/1
f 1/1/1 1/1/1 1/1/1
f 1/1/1 1/1/1 1/1/1
f 1/1/1 1/1/1 1/1/1
f 1/1/1 1/1/1 1/1/1
f 1/1/1 1/1/1 1/1/1
f 1/1/1 1/1/1 1/1/1
f 1/1/1 1/1/1 1/1/1
f 1/1/1 1/1/1 1/1/1
f 1/1/1 1/1/1 1/1/1
f 1/1/1 1/1/1 1/1/1
f 1/1/1 1/1/1 1/1/1
f 1/1/1 1/1/1 1/1/1
f 1/1/1 1/1/1 1/1/1
f 1/1/1 1/1/1 1/1/1
f 1/1/1 1/1/1 1/1/1
f 1/1/1 1/1/1 1/1/1
f 1/1/1 1/1/1 1/1/1
f 1/1/1 1/1/1 1/1/1
f 1/1/1 1/1/1 1/1/1
f 1/1/1 1/1/1 1/1/1
f 1/1/1 1/1/1 1/1/1
f 1/1/1 1/1/1 1/1/1
f 1/1/1 1/1/1 1/1/1
f 1/1/1 1/1/1 1/1/1
f 1/1/1 1/1/1 1/1/1
f 1/1/1 1/1/1 1/1/1
f 1/1/1 1/1/1 1/1/1
f 1/1/1 1/1/1 1/1/1
f 1/1/1 1/1/1 1/1/1
f 1/1/1 1/1/1 1/1/1
f 1/1/1 1/1/1 1/1/1
f 1/1/1 1/1/1 1/1/1
f 1/1/1 1/1/1 1/1/1
f 1/1/1 1/1/1 1/1/1
f 1/1/1 1/1/1 1/1/1
f 1/1/1 1/1/1 1/1/1
f 1/1/1 1/1/1 1/1/1
f 1/1/1 1/1/1 1/1/1
f 1/1/1 1/1/1 1/1/1
f 1/1/1 1/1/1 1/1/1
f 1/1/1 1/1/1 1/1/1
f 1/1/1 1/1/1 1/1/1
f 1/1/1 1/1/1 1/1/1
f 1/1/1 1/1/1 1/1/1
f 1/1/1 1/1/1 1/1/1
f 1/1/1 1/1/1 1/1/1
f 1/1/1 1/1/1 1/1/1
f 1/1/1 1/1/1 1/1/1
f 1/1/1 1/1/1 1/1/1
f 1/1/1 1/1/1 1/1/1
f 1/1/1 1/1/1 1/1/1
f 1/1/1 1/1/1 1/1/1
f 1/1/1 1/1/1 1/1/1
f 1/1/1 1/1/1 1/1/1
f 1/1/1 1/1/1 1/1/1
f 1/1/1 1/1/1 1/1/1
f 1/1/1 1/1/1 1/1/1
f 1/1/1 1/1/1 1/1/1
f 1/1/1 1/1/1 1/1/1
f 1/1/1 1/1/1 1/1/1
f 1/1/1 1/1/1 1/1/1
f 1/1/1 1/1/1 1/1/1
f 1/1/1 1/1/1 1/1/1
f 1/1/1 1/1/1 1/1/1
f 1/1/1 1/1/1 1/1/1
f 1/1/1 1/1/1 1/1/1
f 1/1/1 1/1/1 1/1/1
f 1/1/1 1/1/1 1/1/1
f 1/1/1 1/1/1 1/1/1
f 1/1/1 1/1/1 1/1/1
f 1/1/1 1/1/1 1/1/1
f 1/1/1 1/1/1 1/1/1
f 1/1/1 1/1/1 1/1/1
f 1/1/1 1/1/1 1/1/1
f 1/1/1 1/1/1 1/1/1
f 1/1/1 1/1/1 1/1/1
f 1/1/1 1/1/1 1/1/1
f 1/1/1 1/1/1 1/1/1
f 1/1/1 1/1/1 1/1/1
f 1/1/1 1/1/1 1/1/1
f 1/1/1 1/1/1 1/1/1
f 1/1/1 1/1/1 1/1/1
f 1/1/1 1/1/1 1/1/1
f 1/1/1 1/1/1 1/1/1
f 1/1/1 1/1/1 1/1/1
f 1/1/1 1/1/1 1/1/1
f 1/1/1 1/1/1 1/1/1
f 1/1/1 1/1/1 1/1/1
f 1/1/1 1/1/1 1/1/1
f 1/1/1 1/1/1 1/1/1
f 1/1/1 1/1/1 1/1/1
f 1/1/1 1/1/1 1/1/1
f 1/1/1 1/1/1 1/1/1
f 1/1/1 1/1/1 1/1/1
f 1/1/1 1/1/1 1/1/1
f 1/1/1 1/1/1 1/1/1
f 1/1/1 1/1/1 1/1/1
f 1/1/1 1/1/1 1/1/1
f 1/1/1 1/1/1 1/1/1
f 1/1/1 1/1/1 1/1/1
f 1/1/1 1/1/1 1/1/1
f 1/1/1 1/1/1 1/1/1
f 1/1/1 1/1/1 1/1/1
f 1/1/1 1/1/1 1/1/1
f 1/1/1 1/1/1 1/1/1
f 1/1/1 1/1/1 1/1/1
f 1/1/1 1/1/1 1/1/1
f 1/1/1 1/1/1 1/1/1
f 1/1/1 1/1/1 1/1/1
f 1/1/1 1/1/1 1/1/1
f 1/1/1 1/1/1 1/1/1
f 1/1/1 1/1/1 1/1/1
f 1/1/1 1/1/1 1/1/1
f 1/1/1 1/1/1 1/1/1
f 1/1/1 1/1/1 1/1/1
f 1/1/1 1/1/1 1/1/1
f 1/1/1 1/1/1 1/1/1
f 1/1/1 1/1/1 1/1/1
f 1/1/1 1/1/1 1/1/1
f 1/1/1 1/1/1 1/1/1
f 1/1/1 1/1/1 1/1/1
f 1/1/1 1/1/1 1/1/1
f 1/1/1 1/1/1 1/1/1
f 1/1/1 1/1/1 1/1/1
f 1/1/1 1/1/1 1/1/1
f 1/1/1 1/1/1 1/1/1
f 1/1/1 1/1/1 1/1/1
f 1/1/1 1/1/1 1/1/1
f 1/1/1 1/1/1 1/1/1
f 1/1/1 1/1/1 1/1/1
f 1/1/1 1/1/1 1/1/1
f 1/1/1 1/1/1 1/1/1
f 1/1/1 1/1/1 1/1/1
f 1/1/1 1/1/1 1/1/1
f 1/1/1 1/1/1 1/1/1
f 1/1/1 1/1/1 1/1/1
f 1/1/1 1/1/1 1/1/1
f 1/1/1 1/1/1 1/1/1
f 1/1/1 1/1/1 1/1/1
f 1/1/1 1/1/1 1/1/1
f 1/1/1 1/1/1 1/1/1
f 1/1/1 1/1/1 1/1/1
f 1/1/1 1/1/1 1/1/1
f 1/1/1 1/1/1 1/1/1
f 1/1/1 1/1/1 1/1/1
f 1/1/1 1/1/1 1/1/1
f 1/1/1 1/1/1 1/1/1
f 1/1/1 1/1/1 1/1/1
f 1/1/1 1/1/1 1/1/1
f 1/1/1 1/1/1 1/1/1
f 1/1/1 1/1/1 1/1/1
f 1/1/1 1/1/1 1/1/1
f 1/1/1 1/1/1 1/1/1
f 1/1/1 1/1/1 1/1/1
f 1/1/1 1/1/1 1/1/1
f 1/1/1 1/1/1 1/1/1
f 1/1/1 1/1/1 1/1/1
f 1/1/1 1/1/1 1/1/1
f 1/1/1 1/1/1 1/1/1
f 1/1/1 1/1/1 1/1/1
f 1/1/1 1/1/1 1/1/1
f 1/1/1 1/1/1 1/1/1
f 1/1/1 1/1/1 1/1/1
f 1/1/1 1/1/1 1/1/1
f 1/1/1 1/1/1 1/1/1
f 1/1/1 1/1/1 1/1/1
f 1/1/1 1/1/1 1/1/1
f 1/1/1 1/1/1 1/1/1
f 1/1/1 1/1/1 1/1/1
f 1/1/1 1/1/1 1/1/1
f 1/1/1 1/1/1 1/1/1
f 1/1/1 1/1/1 1/1/1
f 1/1/1 1/1/1 1/1/1
f 1/1/1 1/1/1 1/1/1
f 1/1/1 1/1/1 1/1/1
f 1/1/1 1/1/1 1/1/1
f 1/1/1 1/1/1 1/1/1
f 1/1/1 1/1/1 1/1/1
f 1/1/1 1/1/1 1/1/1
f 1/1/1 1/1/1 1/1/1
f 1/1/1 1/1/1 1/1/1
f 1/1/1 1/1/1 1/1/1
f 1/1/1 1/1/1 1/1/1
f 1/1/1 1/1/1 1/1/1
f 1/1/1 1/1/1 1/1/1
f 1/1/1 1/1/1 1/1/1
f 1/1/1 1/1/1 1/1/1
f 1/1/1 1/1/1 1/1/1
f 1/1/1 1/1/1 1/1/1
f 1/1/1 1/1/1 1/1/1
f 1/1/1 1/1/1 1/1/1
f 1/1/1 1/1/1 1/1/1
f 1/1/1 1/1/1 1/1/1
f 1/1/1 1/1/1 1/1/1
f 1/1/1 1/1/1 1/1/1
f 1/1/1 1/1/1 1/1/1
f 1/1/1 1/1/1 1/1/1
f 1/1/1 1/1/1 1/1/1
f 1/1/1 1/1/1 1/1/1
f 1/1/1 1/1/1 1/1/1
f 1/1/1 1/1/1 1/1/1
f 1/1/1 1/1/1 1/1/1
f 1/1/1 1/1/1 1/1/1
f 1/1/1 1/1/1 1/1/1
f 1/1/1 1/1/1 1/1/1
f 1/1/1 1/1/1 1/1/1
f 1/1/1 1/1/1 1/1/1
f 1/1/1 1/1/1 1/1/1
f 1/1/1 1/1/1 1/1/1
f 1/1/1 1/1/1 1/1/1
f 1/1/1 1/1/1 1/1/1
f 1/1/1 1/1/1 1/1/1
f 1/1/1 1/1/1 1/1/1
f 1/1/1 1/1/1 1/1/1
f 1/1/1 1/1/1 1/1/1
f 1/1/1 1/1/1 1/1/1
f 1/1/1 1/1/1 1/1/1
f 1/1/1 1/1/1 1/1/1
f 1/1/1 1/1/1 1/1/1
f 1/1/1 1/1/1 1/1/1
f 1/1/1 1/1/1 1/1/1
f 1/1/1 1/1/1 1/1/1
f 1/1/1 1/1/1 1/1/1
f 1/1/1 1/1/1 1/1/1
f 1/1/1 1/1/1 1/1/1
f 1/1/1 1/1/1 1/1/1
f 1/1/1 1/1/1 1/1/1
f 1/1/1 1/1/1 1/1/1
f 1/1/1 1/1/1 1/1/1
f 1/1/1 1/1/1 1/1/1
f 1/1/1 1/1/1 1/1/1
f 1/1/1 1/1/1 1/1/1
f 1/1/1 1/1/1 1/1/1
f 1/1/1 1/1/1 1/1/1
f 1/1/1 1/1/1 1/1/1
f 1/1/1 1/1/1 1/1/1
f 1/1/1 1/1/1 1/1/1
f 1/1/1 1/1/1 1/1/1
f 1/1/1 1/1/1 1/1/1
f 1/1/1 1/1/1 1/1/1
f 1/1/1 1/1/1 1/1/1
f 1/1/1 1/1/1 1/1/1
f 1/1/1 1/1/1 1/1/1
f 1/1/1 1/1/1 1/1/1
f 1/1/1 1/1/1 1/1/1
f 1/1/1 1/1/1 1/1/1
f 1/1/1 1/1/1 1/1/1
f 1/1/1 1/1/1 1/1/1
f 1/1/1 1/1/1 1/1/1
f 1/1/1 1/1/1 1/1/1
f 1/1/1 1/1/1 1/1/1
f 1/1/1 1/1/1 1/1/1
f 1/1/1 1/1/1 1/1/1
f 1/1/1 1/1/1 1/1/1
f 1/1/1 1/1/1 1/1/1
f 1/1/1 1/1/1 1/1/1
f 1/1/1 1/1/1 1/1/1
f 1/1/1 1/1/1 1/1/1
f 1/1/1 1/1/1 1/1/1
f 1/1/1 1/1/1 1/1/1
f 1/1/1 1/1/1 1/1/1
f 1/1/1 1/1/1 1/1/1
f 1/1/1 1/1/1 1/1/1
f 1/1/1 1/1/1 1/1/1
f 1/1/1 1/1/1 1/1/1
f 1/1/1 1/1/1 1/1/1
f 1/1/1 1/1/1 1/1/1
f 1/1/1 1/1/1 1/1/1
f 1/1/1 1/1/1 1/1/1
f 1/1/1 1/1/1 1/1/1
f 1/1/1 1/1/1 1/1/1
f 1/1/1 1/1/1 1/1/1
f 1/1/1 1/1/1 1/1/1
f 1/1/1 1/1/1 1/1/1
f 1/1/1 1/1/1 1/1/1
f 1/1/1 1/1/1 1/1/1
f 1/1/1 1/1/1 1/1/1
f 1/1/1 1/1/1 1/1/1
f 1/1/1 1/1/1 1/1/1
f 1/1/1 1/1/1 1/1/1
f 1/1/1 1/1/1 1/1/1
f 1/1/1 1/1/1 1/1/1
f 1/1/1 1/1/1 1/1/1
f 1/1/1 1/1/1 1/1/1
f 1/1/1 1/1/1 1/1/1
f 1/1/1 1/1/1 1/1/1
f 1/1/1 1/1/1 1/1/1
f 1/1/1 1/1/1 1/1/1
f 1/1/1 1/1/1 1/1/1
f 1/1/1 1/1/1 1/1/1
f 1/1/1 1/1/1 1/1/1
f 1/1/1 1/1/1 1/1/1
f 1/1/1 1/1/1 1/1/1
f 1/1/1 1/1/1 1/1/1
f 1/1/1 1/1/1 1/1/1
f 1/1/1 1/1/1 1/1/1
f 1/1/1 1/1/1 1/1/1
f 1/1/1 1/1/1 1/1/1
f 1/1/1 1/1/1 1/1/1
f 1/1/1 1/1/1 1/1/1
f 1/1/1 1/1/1 1/1/1
f 1/1/1 1/1/1 1/1/1
f 1/1/1 1/1/1 1/1/1
f 1/1/1 1/1/1 1/1/1
f 1/1/1 1/1/1 1/1/1
f 1/1/1 1/1/1 1/1/1
f 1/1/1 1/1/1 1/1/1
f 1/1/1 1/1/1 1/1/1
f 1/1/1 1/1/1 1/1/1
f 1/1/1 1/1/1 1/1/1
f 1/1/1 1/1/1 1/1/1
f 1/1/1 1/1/1 1/1/1
f 1/1/1 1/1/1 1/1/1
f 1/1/1 1/1/1 1/1/1
f 1/1/1 1/1/1 1/1/1
f 1/1/1 1/1/1 1/1/1
f 1/1/1 1/1/1 1/1/1
f 1/1/1 1/1/1 1/1/1
f 1/1/1 1/1/1 1/1/1
f 1/1/1 1/1/1 1/1/1
f 1/1/1 1/1/1 1/1/1
f 1/1/1 1/1/1 1/1/1
f 1/1/1 1/1/1 1/1/1
f 1/1/1 1/1/1 1/1/1
f 1/1/1 1/1/1 1/1/1
f 1/1/1 1/1/1 1/1/1
f 1/1/1 1/1/1 1/1/1
f 1/1/1 1/1/1 1/1/1
f 1/1/1 1/1/1 1/1/1
f 1/1/1 1/1/1 1/1/1
f 1/1/1 1/1/1 1/1/1
f 1/1/1 1/1/1 1/1/1
f 1/1/1 1/1/1 1/1/1
f 1/1/1 1/1/1 1/1/1
f 1/1/1 1/1/1 1/1/1
f 1/1/1 1/1/1 1/1/1
f 1/1/1 1/1/1 1/1/1
f 1/1/1 1/1/1 1/1/1
f 1/1/1 1/1/1 1/1/1
f 1/1/1 1/1/1 1/1/1
f 1/1/1 1/1/1 1/1/1
f 1/1/1 1/1/1 1/1/1
f 1/1/1 1/1/1 1/1/1
f 1/1/1 1/1/1 1/1/1
f 1/1/1 1/1/1 1/1/1
f 1/1/1 1/1/1 1/1/1
f 1/1/1 1/1/1 1/1/1
f 1/1/1 1/1/1 1/1/1
f 1/1/1 1/1/1 1/1/1
f 1/1/1 1/1/1 1/1/1
f 1/1/1 1/1/1 1/1/1
f 1/1/1 1/1/1 1/1/1
f 1/1/1 1/1/1 1/1/1
f 1/1/1 1/1/1 1/1/1
f 1/1/1 1/1/1 1/1/1
f 1/1/1 1/1/1 1/1/1
f 1/1/1 1/1/1 1/1/1
f 1/1/1 1/1/1 1/1/1
f 1/1/1 1/1/1 1/1/1
f 1/1/1 1/1/1 1/1/1
f 1/1/1 1/1/1 1/1/1
f 1/1/1 1/1/1 1/1/1
f 1/1/1 1/1/1 1/1/1
f 1/1/1 1/1/1 1/1/1
f 1/1/1 1/1/1 1/1/1
f 1/1/1 1/1/1 1/1/1
f 1/1/1 1/1/1 1/1/1
f 1/1/1 1/1/1 1/1/1
f 1/1/1 1/1/1 1/1/1
f 1/1/1 1/1/1 1/1/1
f 1/1/1 1/1/1 1/1/1
f 1/1/1 1/1/1 1/1/1
f 1/1/1 1/1/1 1/1/1
f 1/1/1 1/1/1 1/1/1
f 1/1/1 1/1/1 1/1/1
f 1/1/1 1/1/1 1/1/1
f 1/1/1 1/1/1 1/1/1
f 1/1/1 1/1/1 1/1/1
f 1/1/1 1/1/1 1/1/1
f 1/1/1 1/1/1 1/1/1
f 1/1/1 1/1/1 1/1/1
f 1/1/1 1/1/1 1/1/1
f 1/1/1 1/1/1 1/1/1
f 1/1/1 1/1/1 1/1/1
f 1/1/1 1/1/1 1/1/1
f 1/1/1 1/1/1 1/1/1
f 1/1/1 1/1/1 1/1/1
f 1/1/1 1/1/1 1/1/1
f 1/1/1 1/1/1 1/1/1
f 1/1/1 1/1/1 1/1/1
f 1/1/1 1/1/1 1/1/1
f 1/1/1 1/1/1 1/1/1
f 1/1/1 1/1/1 1/1/1
f 1/1/1 1/1/1 1/1/1
f 1/1/1 1/1/1 1/1/1
f 1/1/1 1/1/1 1/1/1
f 1/1/1 1/1/1 1/1/1
f 1/1/1 1/1/1 1/1/1
f 1/1/1 1/1/1 1/1/1
f 1/1/1 1/1/1 1/1/1
f 1/1/1 1/1/1 1/1/1
f 1/1/1 1/1/1 1/1/1
f 1/1/1 1/1/1 1/1/1
f 1/1/1 1/1/1 1/1/1
f 1/1/1 1/1/1 1/1/1
f 1/1/1 1/1/1 1/1/1
f 1/1/1 1/1/1 1/1/1
f 1/1/1 1/1/1 1/1/1
f 1/1/1 1/1/1 1/1/1
f 1/1/1 1/1/1 1/1/1
f 1/1/1 1/1/1 1/1/1
f 1/1/1 1/1/1 1/1/1
f 1/1/1 1/1/1 1/1/1
f 1/1/1 1/1/1 1/1/1
f 1/1/1 1/1/1 1/1/1
f 1/1/1 1/1/1 1/1/1
f 1/1/1 1/1/1 1/1/1
f 1/1/1 1/1/1 1/1/1
f 1/1/1 1/1/1 1/1/1
f 1/1/1 1/1/1 1/1/1
f 1/1/1 1/1/1 1/1/1
f 1/1/1 1/1/1 1/1/1
f 1/1/1 1/1/1 1/1/1
f 1/1/1 1/1/1 1/1/1
f 1/1/1 1/1/1 1/1/1
f 1/1/1 1/1/1 1/1/1
f 1/1/1 1/1/1 1/1/1
f 1/1/1 1/1/1 1/1/1
f 1/1/1 1/1/1 1/1/1
f 1/1/1 1/1/1 1/1/1
f 1/1/1 1/1/1 1/1/1
f 1/1/1 1/1/1 1/1/1
f 1/1/1 1/1/1 1/1/1
f 1/1/1 1/1/1 1/1/1
f 1/1/1 1/1/1 1/1/1
f 1/1/1 1/1/1 1/1/1
f 1/1/1 1/1/1 1/1/1
f 1/1/1 1/1/1 1/1/1
f 1/1/1 1/1/1 1/1/1
f 1/1/1 1/1/1 1/1/1
f 1/1/1 1/1/1 1/1/1
f 1/1/1 1/1/1 1/1/1
f 1/1/1 1/1/1 1/1/1
f 1/1/1 1/1/1 1/1/1
f 1/1/1 1/1/1 1/1/1
f 1/1/1 1/1/1 1/1/1
f 1/1/1 1/1/1 1/1/1
f 1/1/1 1/1/1 1/1/1
f 1/1/1 1/1/1 1/1/1
f 1/1/1 1/1/1 1/1/1
f 1/1/1 1/1/1 1/1/1
f 1/1/1 1/1/1 1/1/1
f 1/1/1 1/1/1 1/1/1
f 1/1/1 1/1/1 1/1/1
f 1/1/1 1/1/1 1/1/1
f 1/1/1 1/1/1 1/1/1
f 1/1/1 1/1/1 1/1/1
f 1/1/1 1/1/1 1/1/1
f 1/1/1 1/1/1 1/1/1
f 1/1/1 1/1/1 1/1/1
f 1/1/1 1/1/1 1/1/1
f 1/1/1 1/1/1 1/1/1
f 1/1/1 1/1/1 1/1/1
f 1/1/1 1/1/1 1/1/1
f 1/1/1 1/1/1 1/1/1
f 1/1/1 1/1/1 1/1/1
f 1/1/1 1/1/1 1/1/1
f 1/1/1 1/1/1 1/1/1
f 1/1/1 1/1/1 1/1/1
f 1/1/1 1/1/1 1/1/1
f 1/1/1 1/1/1 1/1/1
f 1/1/1 1/1/1 1/1/1
f 1/1/1 1/1/1 1/1/1
f 1/1/1 1/1/1 1/1/1
f 1/1/1 1/1/1 1/1/1
f 1/1/1 1/1/1 1/1/1
f 1/1/1 1/1/1 1/1/1
f 1/1/1 1/1/1 1/1/1
f 1/1/1 1/1/1 1/1/1
f 1/1/1 1/1/1 1/1/1
f 1/1/1 1/1/1 1/1/1
f 1/1/1 1/1/1 1/1/1
f 1/1/1 1/1/1 1/1/1
f 1/1/1 1/1/1 1/1/1
f 1/1/1 1/1/1 1/1/1
f 1/1/1 1/1/1 1/1/1
f 1/1/1 1/1/1 1/1/1
f 1/1/1 1/1/1 1/1/1
f 1/1/1 1/1/1 1/1/1
f 1/1/1 1/1/1 1/1/1
f 1/1/1 1/1/1 1/1/1
f 1/1/1 1/1/1 1/1/1
f 1/1/1 1/1/1 1/1/1
f 1/1/1 1/1/1 1/1/1
f 1/1/1 1/1/1 1/1/1
f 1/1/1 1/1/1 1/1/1
f 1/1/1 1/1/1 1/1/1
f 1/1/1 1/1/1 1/1/1
f 1/1/1 1/1/1 1/1/1
f 1/1/1 1/1/1 1/1/1
f 1/1/1 1/1/1 1/1/1
f 1/1/1 1/1/1 1/1/1
f 1/1/1 1/1/1 1/1/1
f 1/1/1 1/1/1 1/1/1
f 1/1/1 1/1/1 1/1/1
f 1/1/1 1/1/1 1/1/1
f 1/1/1 1/1/1 1/1/1
f 1/1/1 1/1/1 1/1/1
f 1/1/1 1/1/1 1/1/1
f 1/1/1 1/1/1 1/1/1
f 1/1/1 1/1/1 1/1/1
f 1/1/1 1/1/1 1/1/1
f 1/1/1 1/1/1 1/1/1
f 1/1/1 1/1/1 1/1/1
f 1/1/1 1/1/1 1/1/1
f 1/1/1 1/1/1 1/1/1
f 1/1/1 1/1/1 1/1/1
f 1/1/1 1/1/1 1/1/1
f 1/1/1 1/1/1 1/1/1
f 1/1/1 1/1/1 1/1/1
f 1/1/1 1/1/1 1/1/1
f 1/1/1 1/1/1 1/1/1
f 1/1/1 1/1/1 1/1/1
f 1/1/1 1/1/1 1/1/1
f 1/1/1 1/1/1 1/1/1
f 1/1/1 1/1/1 1/1/1
f 1/1/1 1/1/1 1/1/1
f 1/1/1 1/1/1 1/1/1
f 1/1/1 1/1/1 1/1/1
f 1/1/1 1/1/1 1/1/1
f 1/1/1 1/1/1 1/1/1
f 1/1/1 1/1/1 1/1/1
f 1/1/1 1/1/1 1/1/1
f 1/1/1 1/1/1 1/1/1
f 1/1/1 1/1/1 1/1/1
f 1/1/1 1/1/1 1/1/1
f 1/1/1 1/1/1 1/1/1
f 1/1/1 1/1/1 1/1/1
f 1/1/1 1/1/1 1/1/1
f 1/1/1 1/1/1 1/1/1
f 1/1/1 1/1/1 1/1/1
f 1/1/1 1/1/1 1/1/1
f 1/1/1 1/1/1 1/1/1
f 1/1/1 1/1/1 1/1/1
f 1/1/1 1/1/1 1/1/1
f 1/1/1 1/1/1 1/1/1
f 1/1/1 1/1/1 1/1/1
f 1/1/1 1/1/1 1/1/1
f 1/1/1 1/1/1 1/1/1
f 1/1/1 1/1/1 1/1/1
f 1/1/1 1/1/1 1/1/1
f 1/1/1 1/1/1 1/1/1
f 1/1/1 1/1/1 1/1/1
f 1/1/1 1/1/1 1/1/1
f 1/1/1 1/1/1 1/1/1
f 1/1/1 1/1/1 1/1/1
f 1/1/1 1/1/1 1/1/1
f 1/1/1 1/1/1 1/1/1
f 1/1/1 1/1/1 1/1/1
f 1/1/1 1/1/1 1/1/1
f 1/1/1 1/1/1 1/1/1
f 1/1/1 1/1/1 1/1/1
f 1/1/1 1/1/1 1/1/1
f 1/1/1 1/1/1 1/1/1
f 1/1/1 1/1/1 1/1/1
f 1/1/1 1/1/1 1/1/1
f 1/1/1 1/1/1 1/1/1
f 1/1/1 1/1/1 1/1/1
f 1/1/1 1/1/1 1/1/1
f 1/1/1 1/1/1 1/1/1
f 1/1/1 1/1/1 1/1/1
f 1/1/1 1/1/1 1/1/1
f 1/1/1 1/1/1 1/1/1
f 1/1/1 1/1/1 1/1/1
f 1/1/1 1/1/1 1/1/1
f 1/1/1 1/1/1 1/1/1
f 1/1/1 1/1/1 1/1/1
f 1/1/1 1/1/1 1/1/1
f 1/1/1 1/1/1 1/1/1
f 1/1/1 1/1/1 1/1/1
f 1/1/1 1/1/1 1/1/1
f 1/1/1 1/1/1 1/1/1
f 1/1/1 1/1/1 1/1/1
f 1/1/1 1/1/1 1/1/1
f 1/1/1 1/1/1 1/1/1
f 1/1/1 1/1/1 1/1/1
f 1/1/1 1/1/1 1/1/1
f 1/1/1 1/1/1 1/1/1
f 1/1/1 1/1/1 1/1/1
f 1/1/1 1/1/1 1/1/1
f 1/1/1 1/1/1 1/1/1
f 1/1/1 1/1/1 1/1/1
f 1/1/1 1/1/1 1/1/1
f 1/1/1 1/1/1 1/1/1
f 1/1/1 1/1/1 1/1/1
f 1/1/1 1/1/1 1/1/1
f 1/1/1 1/1/1 1/1/1
f 1/1/1 1/1/1 1/1/1
f 1/1/1 1/1/1 1/1/1
f 1/1/1 1/1/1 1/1/1
f 1/1/1 1/1/1 1/1/1
f 1/1/1 1/1/1 1/1/1
f 1/1/1 1/1/1 1/1/1
f 1/1/1 1/1/1 1/1/1
f 1/1/1 1/1/1 1/1/1
f 1/1/1 1/1/1 1/1/1
f 1/1/1 1/1/1 1/1/1
f 1/1/1 1/1/1 1/1/1
f 1/1/1 1/1/1 1/1/1
f 1/1/1 1/1/1 1/1/1
f 1/1/1 1/1/1 1/1/1
f 1/1/1 1/1/1 1/1/1
f 1/1/1 1/1/1 1/1/1
f 1/1/1 1/1/1 1/1/1
f 1/1/1 1/1/1 1/1/1
f 1/1/1 1/1/1 1/1/1
f 1/1/1 1/1/1 1/1/1
f 1/1/1 1/1/1 1/1/1
f 1/1/1 1/1/1 1/1/1
f 1/1/1 1/1/1 1/1/1
f 1/1/1 1/1/1 1/1/1
f 1/1/1 1/1/1 1/1/1
f 1/1/1 1/1/1 1/1/1
f 1/1/1 1/1/1 1/1/1
f 1/1/1 1/1/1 1/1/1
f 1/1/1 1/1/1 1/1/1
f 1/1/1 1/1/1 1/1/1
f 1/1/1 1/1/1 1/1/1
f 1/1/1 1/1/1 1/1/1
f 1/1/1 1/1/1 1/1/1
f 1/1/1 1/1/1 1/1/1
f 1/1/1 1/1/1 1/1/1
f 1/1/1 1/1/1 1/1/1
f 1/1/1 1/1/1 1/1/1
f 1/1/1 1/1/1 1/1/1
f 1/1/1 1/1/1 1/1/1
f 1/1/1 1/1/1 1/1/1
f 1/1/1 1/1/1 1/1/1
f 1/1/1 1/1/1 1/1/1
f 1/1/1 1/1/1 1/1/1
f 1/1/1 1/1/1 1/1/1
f 1/1/1 1/1/1 1/1/1
f 1/1/1 1/1/1 1/1/1
f 1/1/1 1/1/1 1/1/1
f 1/1/1 1/1/1 1/1/1
f 1/1/1 1/1/1 1/1/1
f 1/1/1 1/1/1 1/1/1
f 1/1/1 1/1/1 1/1/1
f 1/1/1 1/1/1 1/1/1
f 1/1/1 1/1/1 1/1/1
f 1/1/1 1/1/1 1/1/1
f 1/1/1 1/1/1 1/1/1
f 1/1/1 1/1/1 1/1/1
f 1/1/1 1/1/1 1/1/1
f 1/1/1 1/1/1 1/1/1
f 1/1/1 1/1/1 1/1/1
f 1/1/1 1/1/1 1/1/1
f 1/1/1 1/1/1 1/1/1
f 1/1/1 1/1/1 1/1/1
f 1/1/1 1/1/1 1/1/1
f 1/1/1 1/1/1 1/1/1
f 1/1/1 1/1/1 1/1/1
f 1/1/1 1/1/1 1/1/1
f 1/1/1 1/1/1 1/1/1
f 1/1/1 1/1/1 1/1/1
f 1/1/1 1/1/1 1/1/1
f 1/1/1 1/1/1 1/1/1
f 1/1/1 1/1/1 1/1/1
f 1/1/1 1/1/1 1/1/1
f 1/1/1 1/1/1 1/1/1
f 1/1/1 1/1/1 1/1/1
f 1/1/1 1/1/1 1/1/1
f 1/1/1 1/1/1 1/1/1
f 1/1/1 1/1/1 1/1/1
f 1/1/1 1/1/1 1/1/1
f 1/1/1 1/1/1 1/1/1
f 1/1/1 1/1/1 1/1/1
f 1/1/1 1/1/1 1/1/1
f 1/1/1 1/1/1 1/1/1
f 1/1/1 1/1/1 1/1/1
f 1/1/1 1/1/1 1/1/1
f 1/1/1 1/1/1 1/1/1
f 1/1/1 1/1/1 1/1/1
f 1/1/1 1/1/1 1/1/1
f 1/1/1 1/1/1 1/1/1
f 1/1/1 1/1/1 1/1/1
f 1/1/1 1/1/1 1/1/1
f 1/1/1 1/1/1 1/1/1
f 1/1/1 1/1/1 1/1/1
f 1/1/1 1/1/1 1/1/1
f 1/1/1 1/1/1 1/1/1
f 1/1/1 1/1/1 1/1/1
f 1/1/1 1/1/1 1/1/1
f 1/1/1 1/1/1 1/1/1
f 1/1/1 1/1/1 1/1/1
f 1/1/1 1/1/1 1/1/1
f 1/1/1 1/1/1 1/1/1
f 1/1/1 1/1/1 1/1/1
f 1/1/1 1/1/1 1/1/1
f 1/1/1 1/1/1 1/1/1
f 1/1/1 1/1/1 1/1/1
f 1/1/1 1/1/1 1/1/1
f 1/1/1 1/1/1 1/1/1
f 1/1/1 1/1/1 1/1/1
f 1/1/1 1/1/1 1/1/1
f 1/1/1 1/1/1 1/1/1
f 1/1/1 1/1/1 1/1/1
f 1/1/1 1/1/1 1/1/1
f 1/1/1 1/1/1 1/1/1
f 1/1/1 1/1/1 1/1/1
f 1/1/1 1/1/1 1/1/1
f 1/1/1 1/1/1 1/1/1
f 1/1/1 1/1/1 1/1/1
f 1/1/1 1/1/1 1/1/1
f 1/1/1 1/1/1 1/1/1
f 1/1/1 1/1/1 1/1/1
f 1/1/1 1/1/1 1/1/1
f 1/1/1 1/1/1 1/1/1
f 1/1/1 1/1/1 1/1/1
f 1/1/1 1/1/1 1/1/1
f 1/1/1 1/1/1 1/1/1
f 1/1/1 1/1/1 1/1/1
f 1/1/1 1/1/1 1/1/1
f 1/1/1 1/1/1 1/1/1
f 1/1/1 1/1/1 1/1/1
f 1/1/1 1/1/1 1/1/1
f 1/1/1 1/1/1 1/1/1
f 1/1/1 1/1/1 1/1/1
f 1/1/1 1/1/1 1/1/1
f 1/1/1 1/1/1 1/1/1
f 1/1/1 1/1/1 1/1/1
f 1/1/1 1/1/1 1/1/1
f 1/1/1 1/1/1 1/1/1
f 1/1/1 1/1/1 1/1/1
f 1/1/1 1/1/1 1/1/1
f 1/1/1 1/1/1 1/1/1
f 1/1/1 1/1/1 1/1/1
f 1/1/1 1/1/1 1/1/1
f 1/1/1 1/1/1 1/1/1
f 1/1/1 1/1/1 1/1/1
f 1/1/1 1/1/1 1/1/1
f 1/1/1 1/1/1 1/1/1
f 1/1/1 1/1/1 1/1/1
f 1/1/1 1/1/1 1/1/1
f 1/1/1 1/1/1 1/1/1
f 1/1/1 1/1/1 1/1/1
f 1/1/1 1/1/1 1/1/1
f 1/1/1 1/1/1 1/1/1
f 1/1/1 1/1/1 1/1/1
f 1/1/1 1/1/1 1/1/1
f 1/1/1 1/1/1 1/1/1
f 1/1/1 1/1/1 1/1/1
f 1/1/1 1/1/1 1/1/1
f 1/1/1 1/1/1 1/1/1
f 1/1/1 1/1/1 1/1/1
f 1/1/1 1/1/1 1/1/1
f 1/1/1 1/1/1 1/1/1
f 1/1/1 1/1/1 1/1/1
f 1/1/1 1/1/1 1/1/1
f 1/1/1 1/1/1 1/1/1
f 1/1/1 1/1/1 1/1/1
f 1/1/1 1/1/1 1/1/1
f 1/1/1 1/1/1 1/1/1
f 1/1/1 1/1/1 1/1/1
f 1/1/1 1/1/1 1/1/1
f 1/1/1 1/1/1 1/1/1
f 1/1/1 1/1/1 1/1/1
f 1/1/1 1/1/1 1/1/1
f 1/1/1 1/1/1 1/1/1
f 1/1/1 1/1/1 1/1/1
f 1/1/1 1/1/1 1/1/1
f 1/1/1 1/1/1 1/1/1
f 1/1/1 1/1/1 1/1/1
f 1/1/1 1/1/1 1/1/1
f 1/1/1 1/1/1 1/1/1
f 1/1/1 1/1/1 1/1/1
f 1/1/1 1/1/1 1/1/1
f 1/1/1 1/1/1 1/1/1
f 1/1/1 1/1/1 1/1/1
f 1/1/1 1/1/1 1/1/1
f 1/1/1 1/1/1 1/1/1
f 1/1/1 1/1/1 1/1/1
f 1/1/1 1/1/1 1/1/1
f 1/1/1 1/1/1 1/1/1
f 1/1/1 1/1/1 1/1/1
f 1/1/1 1/1/1 1/1/1
f 1/1/1 1/1/1 1/1/1
f 1/1/1 1/1/1 1/1/1
f 1/1/1 1/1/1 1/1/1
f 1/1/1 1/1/1 1/1/1
f 1/1/1 1/1/1 1/1/1
f 1/1/1 1/1/1 1/1/1
f 1/1/1 1/1/1 1/1/1
f 1/1/1 1/1/1 1/1/1
f 1/1/1 1/1/1 1/1/1
f 1/1/1 1/1/1 1/1/1
f 1/1/1 1/1/1 1/1/1
f 1/1/1 1/1/1 1/1/1
f 1/1/1 1/1/1 1/1/1
f 1/1/1 1/1/1 1/1/1
f 1/1/1 1/1/1 1/1/1
f 1/1/1 1/1/1 1/1/1
f 1/1/1 1/1/1 1/1/1
f 1/1/1 1/1/1 1/1/1
f 1/1/1 1/1/1 1/1/1
f 1/1/1 1/1/1 1/1/1
f 1/1/1 1/1/1 1/1/1
f 1/1/1 1/1/1 1/1/1
f 1/1/1 1/1/1 1/1/1
f 1/1/1 1/1/1 1/1/1
f 1/1/1 1/1/1 1/1/1
f 1/1/1 1/1/1 1/1/1
f 1/1/1 1/1/1 1/1/1
f 1/1/1 1/1/1 1/1/1
f 1/1/1 1/1/1 1/1/1
f 1/1/1 1/1/1 1/1/1
f 1/1/1 1/1/1 1/1/1
f 1/1/1 1/1/1 1/1/1
f 1/1/1 1/1/1 1/1/1
f 1/1/1 1/1/1 1/1/1
f 1/1/1 1/1/1 1/1/1
f 1/1/1 1/1/1 1/1/1
f 1/1/1 1/1/1 1/1/1
f 1/1/1 1/1/1 1/1/1
f 1/1/1 1/1/1 1/1/1
f 1/1/1 1/1/1 1/1/1
f 1/1/1 1/1/1 1/1/1
f 1/1/1 1/1/1 1/1/1
f 1/1/1 1/1/1 1/1/1
f 1/1/1 1/1/1 1/1/1
f 1/1/1 1/1/1 1/1/1
f 1/1/1 1/1/1 1/1/1
f 1/1/1 1/1/1 1/1/1
f 1/1/1 1/1/1 1/1/1
f 1/1/1 1/1/1 1/1/1
f 1/1/1 1/1/1 1/1/1
f 1/1/1 1/1/1 1/1/1
f 1/1/1 1/1/1 1/1/1
f 1/1/1 1/1/1 1/1/1
f 1/1/1 1/1/1 1/1/1
f 1/1/1 1/1/1 1/1/1
f 1/1/1 1/1/1 1/1/1
f 1/1/1 1/1/1 1/1/1
f 1/1/1 1/1/1 1/1/1
f 1/1/1 1/1/1 1/1/1
f 1/1/1 1/1/1 1/1/1
f 1/1/1 1/1/1 1/1/1
f 1/1/1 1/1/1 1/1/1
f 1/1/1 1/1/1 1/1/1
f 1/1/1 1/1/1 1/1/1
f 1/1/1 1/1/1 1/1/1
f 1/1/1 1/1/1 1/1/1
f 1/1/1 1/1/1 1/1/1
f 1/1/1 1/1/1 1/1/1
f 1/1/1 1/1/1 1/1/1
f 1/1/1 1/1/1 1/1/1
f 1/1/1 1/1/1 1/1/1
f 1/1/1 1/1/1 1/1/1
f 1/1/1 1/1/1 1/1/1
f 1/1/1 1/1/1 1/1/1
f 1/1/1 1/1/1 1/1/1
f 1/1/1 1/1/1 1/1/1
f 1/1/1 1/1/1 1/1/1
f 1/1/1 1/1/1 1/1/1
f 1/1/1 1/1/1 1/1/1
f 1/1/1 1/1/1 1/1/1
f 1/1/1 1/1/1 1/1/1
f 1/1/1 1/1/1 1/1/1
f 1/1/1 1/1/1 1/1/1
f 1/1/1 1/1/1 1/1/1
f 1/1/1 1/1/1 1/1/1
f 1/1/1 1/1/1 1/1/1
f 1/1/1 1/1/1 1/1/1
f 1/1/1 1/1/1 1/1/1
f 1/1/1 1/1/1 1/1/1
f 1/1/1 1/1/1 1/1/1
f 1/1/1 1/1/1 1/1/1
f 1/1/1 1/1/1 1/1/1
f 1/1/1 1/1/1 1/1/1
f 1/1/1 1/1/1 1/1/1
f 1/1/1 1/1/1 1/1/1
f 1/1/1 1/1/1 1/1/1
f 1/1/1 1/1/1 1/1/1
f 1/1/1 1/1/1 1/1/1
f 1/1/1 1/1/1 1/1/1
f 1/1/1 1/1/1 1/1/1
f 1/1/1 1/1/1 1/1/1
f 1/1/1 1/1/1 1/1/1
f 1/1/1 1/1/1 1/1/1
f 1/1/1 1/1/1 1/1/1
f 1/1/1 1/1/1 1/1/1
f 1/1/1 1/1/1 1/1/1
f 1/1/1 1/1/1 1/1/1
f 1/1/1 1/1/1 1/1/1
f 1/1/1 1/1/1 1/1/1
f 1/1/1 1/1/1 1/1/1
f 1/1/1 1/1/1 1/1/1
f 1/1/1 1/1/1 1/1/1
f 1/1/1 1/1/1 1/1/1
f 1/1/1 1/1/1 1/1/1
f 1/1/1 1/1/1 1/1/1
f 1/1/1 1/1/1 1/1/1
f 1/1/1 1/1/1 1/1/1
f 1/1/1 1/1/1 1/1/1
f 1/1/1 1/1/1 1/1/1
f 1/1/1 1/1/1 1/1/1
f 1/1/1 1/1/1 1/1/1
f 1/1/1 1/1/1 1/1/1
f 1/1/1 1/1/1 1/1/1
f 1/1/1 1/1/1 1/1/1
f 1/1/1 1/1/1 1/1/1
f 1/1/1 1/1/1 1/1/1
f 1/1/1 1/1/1 1/1/1
f 1/1/1 1/1/1 1/1/1
f 1/1/1 1/1/1 1/1/1
f 1/1/1 1/1/1 1/1/1
f 1/1/1 1/1/1 1/1/1
f 1/1/1 1/1/1 1/1/1
f 1/1/1 1/1/1 1/1/1
f 1/1/1 1/1/1 1/1/1
f 1/1/1 1/1/1 1/1/1
f 1/1/1 1/1/1 1/1/1
f 1/1/1 1/1/1 1/1/1
f 1/1/1 1/1/1 1/1/1
f 1/1/1 1/1/1 1/1/1
f 1/1/1 1/1/1 1/1/1
f 1/1/1 1/1/1 1/1/1
f 1/1/1 1/1/1 1/1/1
f 1/1/1 1/1/1 1/1/1
f 1/1/1 1/1/1 1/1/1
f 1/1/1 1/1/1 1/1/1
f 1/1/1 1/1/1 1/1/1
f 1/1/1 1/1/1 1/1/1
f 1/1/1 1/1/1 1/1/1
f 1/1/1 1/1/1 1/1/1
f 1/1/1 1/1/1 1/1/1
f 1/1/1 1/1/1 1/1/1
f 1/1/1 1/1/1 1/1/1
f 1/1/1 1/1/1 1/1/1
f 1/1/1 1/1/1 1/1/1
f 1/1/1 1/1/1 1/1/1
f 1/1/1 1/1/1 1/1/1
f 1/1/1 1/1/1 1/1/1
f 1/1/1 1/1/1 1/1/1
f 1/1/1 1/1/1 1/1/1
f 1/1/1 1/1/1 1/1/1
f 1/1/1 1/1/1 1/1/1
f 1/1/1 1/1/1 1/1/1
f 1/1/1 1/1/1 1/1/1
f 1/1/1 1/1/1 1/1/1
f 1/1/1 1/1/1 1/1/1
f 1/1/1 1/1/1 1/1/1
f 1/1/1 1/1/1 1/1/1
f 1/1/1 1/1/1 1/1/1
f 1/1/1 1/1/1 1/1/1
f 1/1/1 1/1/1 1/1/1
f 1/1/1 1/1/1 1/1/1
f 1/1/1 1/1/1 1/1/1
f 1/1/1 1/1/1 1/1/1
f 1/1/1 1/1/1 1/1/1
f 1/1/1 1/1/1 1/1/1
f 1/1/1 1/1/1 1/1/1
f 1/1/1 1/1/1 1/1/1
f 1/1/1 1/1/1 1/1/1
f 1/1/1 1/1/1 1/1/1
f 1/1/1 1/1/1 1/1/1
f 1/1/1 1/1/1 1/1/1
f 1/1/1 1/1/1 1/1/1
f 1/1/1 1/1/1 1/1/1
f 1/1/1 1/1/1 1/1/1
f 1/1/1 1/1/1 1/1/1
f 1/1/1 1/1/1 1/1/1
f 1/1/1 1/1/1 1/1/1
f 1/1/1 1/1/1 1/1/1
f 1/1/1 1/1/1 1/1/1
f 1/1/1 1/1/1 1/1/1
f 1/1/1 1/1/1 1/1/1
f 1/1/1 1/1/1 1/1/1
f 1/1/1 1/1/1 1/1/1
f 1/1/1 1/1/1 1/1/1
f 1/1/1 1/1/1 1/1/1
f 1/1/1 1/1/1 1/1/1
f 1/1/1 1/1/1 1/1/1
f 1/1/1 1/1/1 1/1/1
f 1/1/1 1/1/1 1/1/1
f 1/1/1 1/1/1 1/1/1
f 1/1/1 1/1/1 1/1/1
f 1/1/1 1/1/1 1/1/1
f 1/1/1 1/1/1 1/1/1
f 1/1/1 1/1/1 1/1/1
f 1/1/1 1/1/1 1/1/1
f 1/1/1 1/1/1 1/1/1
f 1/1/1 1/1/1 1/1/1
f 1/1/1 1/1/1 1/1/1
f 1/1/1 1/1/1 1/1/1
f 1/1/1 1/1/1 1/1/1
f 1/1/1 1/1/1 1/1/1
f 1/1/1 1/1/1 1/1/1
f 1/1/1 1/1/1 1/1/1
f 1/1/1 1/1/1 1/1/1
f 1/1/1 1/1/1 1/1/1
f 1/1/1 1/1/1 1/1/1
f 1/1/1 1/1/1 1/1/1
f 1/1/1 1/1/1 1/1/1
f 1/1/1 1/1/1 1/1/1
f 1/1/1 1/1/1 1/1/1
f 1/1/1 1/1/1 1/1/1
f 1/1/1 1/1/1 1/1/1
f 1/1/1 1/1/1 1/1/1
f 1/1/1 1/1/1 1/1/1
f 1/1/1 1/1/1 1/1/1
f 1/1/1 1/1/1 1/1/1
f 1/1/1 1/1/1 1/1/1
f 1/1/1 1/1/1 1/1/1
f 1/1/1 1/1/1 1/1/1
f 1/1/1 1/1/1 1/1/1
f 1/1/1 1/1/1 1/1/1
f 1/1/1 1/1/1 1/1/1
f 1/1/1 1/1/1 1/1/1
f 1/1/1 1/1/1 1/1/1
f 1/1/1 1/1/1 1/1/1
f 1/1/1 1/1/1 1/1/1
f 1/1/1 1/1/1 1/1/1
f 1/1/1 1/1/1 1/1/1
f 1/1/1 1/1/1 1/1/1
f 1/1/1 1/1/1 1/1/1
f 1/1/1 1/1/1 1/1/1
f 1/1/1 1/1/1 1/1/1
f 1/1/1 1/1/1 1/1/1
f 1/1/1 1/1/1 1/1/1
f 1/1/1 1/1/1 1/1/1
f 1/1/1 1/1/1 1/1/1
f 1/1/1 1/1/1 1/1/1
f 1/1/1 1/1/1 1/1/1
f 1/1/1 1/1/1 1/1/1
f 1/1/1 1/1/1 1/1/1
f 1/1/1 1/1/1 1/1/1
f 1/1/1 1/1/1 1/1/1
f 1/1/1 1/1/1 1/1/1
f 1/1/1 1/1/1 1/1/1
f 1/1/1 1/1/1 1/1/1
f 1/1/1 1/1/1 1/1/1
f 1/1/1 1/1/1 1/1/1
f 1/1/1 1/1/1 1/1/1
f 1/1/1 1/1/1 1/1/1
f 1/1/1 1/1/1 1/1/1
f 1/1/1 1/1/1 1/1/1
f 1/1/1 1/1/1 1/1/1
f 1/1/1 1/1/1 1/1/1
f 1/1/1 1/1/1 1/1/1
f 1/1/1 1/1/1 1/1/1
f 1/1/1 1/1/1 1/1/1
f 1/1/1 1/1/1 1/1/1
f 1/1/1 1/1/1 1/1/1
f 1/1/1 1/1/1 1/1/1
f 1/1/1 1/1/1 1/1/1
f 1/1/1 1/1/1 1/1/1
f 1/1/1 1/1/1 1/1/1
f 1/1/1 1/1/1 1/1/1
f 1/1/1 1/1/1 1/1/1
f 1/1/1 1/1/1 1/1/1
f 1/1/1 1/1/1 1/1/1
f 1/1/1 1/1/1 1/1/1
f 1/1/1 1/1/1 1/1/1
f 1/1/1 1/1/1 1/1/1
f 1/1/1 1/1/1 1/1/1
f 1/1/1 1/1/1 1/1/1
f 1/1/1 1/1/1 1/1/1
f 1/1/1 1/1/1 1/1/1
f 1/1/1 1/1/1 1/1/1
f 1/1/1 1/1/1 1/1/1
f 1/1/1 1/1/1 1/1/1
f 1/1/1 1/1/1 1/1/1
f 1/1/1 1/1/1 1/1/1
f 1/1/1 1/1/1 1/1/1
f 1/1/1 1/1/1 1/1/1
f 1/1/1 1/1/1 1/1/1
f 1/1/1 1/1/1 1/1/1
f 1/1/1 1/1/1 1/1/1
f 1/1/1 1/1/1 1/1/1
f 1/1/1 1/1/1 1/1/1
f 1/1/1 1/1/1 1/1/1
f 1/1/1 1/1/1 1/1/1
f 1/1/1 1/1/1 1/1/1
f 1/1/1 1/1/1 1/1/1
f 1/1/1 1/1/1 1/1/1
f 1/1/1 1/1/1 1/1/1
f 1/1/1 1/1/1 1/1/1
f 1/1/1 1/1/1 1/1/1
f 1/1/1 1/1/1 1/1/1
f 1/1/1 1/1/1 1/1/1
f 1/1/1 1/1/1 1/1/1
f 1/1/1 1/1/1 1/1/1
f 1/1/1 1/1/1 1/1/1
f 1/1/1 1/1/1 1/1/1
f 1/1/1 1/1/1 1/1/1
f 1/1/1 1/1/1 1/1/1
f 1/1/1 1/1/1 1/1/1
f 1/1/1 1/1/1 1/1/1
f 1/1/1 1/1/1 1/1/1
f 1/1/1 1/1/1 1/1/1
f 1/1/1 1/1/1 1/1/1
f 1/1/1 1/1/1 1/1/1
f 1/1/1 1/1/1 1/1/1
f 1/1/1 1/1/1 1/1/1
f 1/1/1 1/1/1 1/1/1
f 1/1/1 1/1/1 1/1/1
f 1/1/1 1/1/1 1/1/1
f 1/1/1 1/1/1 1/1/1
f 1/1/1 1/1/1 1/1/1
f 1/1/1 1/1/1 1/1/1
f 1/1/1 1/1/1 1/1/1
f 1/1/1 1/1/1 1/1/1
f 1/1/1 1/1/1 1/1/1
f 1/1/1 1/1/1 1/1/1
f 1/1/1 1/1/1 1/1/1
f 1/1/1 1/1/1 1/1/1
f 1/1/1 1/1/1 1/1/1
f 1/1/1 1/1/1 1/1/1
f 1/1/1 1/1/1 1/1/1
f 1/1/1 1/1/1 1/1/1
f 1/1/1 1/1/1 1/1/1
f 1/1/1 1/1/1 1/1/1
f 1/1/1 1/1/1 1/1/1
f 1/1/1 1/1/1 1/1/1
f 1/1/1 1/1/1 1/1/1
f 1/1/1 1/1/1 1/1/1
f 1/1/1 1/1/1 1/1/1
f 1/1/1 1/1/1 1/1/1
f 1/1/1 1/1/1 1/1/1
f 1/1/1 1/1/1 1/1/1
f 1/1/1 1/1/1 1/1/1
f 1/1/1 1/1/1 1/1/1
f 1/1/1 1/1/1 1/1/1
f 1/1/1 1/1/1 1/1/1
f 1/1/1 1/1/1 1/1/1
f 1/1/1 1/1/1 1/1/1
f 1/1/1 1/1/1 1/1/1
f 1/1/1 1/1/1 1/1/1
f 1/1/1 1/1/1 1/1/1
f 1/1/1 1/1/1 1/1/1
f 1/1/1 1/1/1 1/1/1
f 1/1/1 1/1/1 1/1/1
f 1/1/1 1/1/1 1/1/1
f 1/1/1 1/1/1 1/1/1
f 1/1/1 1/1/1 1/1/1
f 1/1/1 1/1/1 1/1/1
f 1/1/1 1/1/1 1/1/1
f 1/1/1 1/1/1 1/1/1
f 1/1/1 1/1/1 1/1/1
f 1/1/1 1/1/1 1/1/1
f 1/1/1 1/1/1 1/1/1
f 1/1/1 1/1/1 1/1/1
f 1/1/1 1/1/1 1/1/1
f 1/1/1 1/1/1 1/1/1
f 1/1/1 1/1/1 1/1/1
f 1/1/1 1/1/1 1/1/1
f 1/1/1 1/1/1 1/1/1
f 1/1/1 1/1/1 1/1/1
f 1/1/1 1/1/1 1/1/1
f 1/1/1 1/1/1 1/1/1
f 1/1/1 1/1/1 1/1/1
f 1/1/1 1/1/1 1/1/1
f 1/1/1 1/1/1 1/1/1
f 1/1/1 1/1/1 1/1/1
f 1/1/1 1/1/1 1/1/1
f 1/1/1 1/1/1 1/1/1
f 1/1/1 1/1/1 1/1/1
f 1/1/1 1/1/1 1/1/1
f 1/1/1 1/1/1 1/1/1
f 1/1/1 1/1/1 1/1/1
f 1/1/1 1/1/1 1/1/1
f 1/1/1 1/1/1 1/1/1
f 1/1/1 1/1/1 1/1/1
f 1/1/1 1/1/1 1/1/1
f 1/1/1 1/1/1 1/1/1
f 1/1/1 1/1/1 1/1/1
f 1/1/1 1/1/1 1/1/1
f 1/1/1 1/1/1 1/1/1
f 1/1/1 1/1/1 1/1/1
f 1/1/1 1/1/1 1/1/1
f 1/1/1 1/1/1 1/1/1
f 1/1/1 1/1/1 1/1/1
f 1/1/1 1/1/1 1/1/1
f 1/1/1 1/1/1 1/1/1
f 1/1/1 1/1/1 1/1/1
f 1/1/1 1/1/1 1/1/1
f 1/1/1 1/1/1 1/1/1
f 1/1/1 1/1/1 1/1/1
f 1/1/1 1/1/1 1/1/1
f 1/1/1 1/1/1 1/1/1
f 1/1/1 1/1/1 1/1/1
f 1/1/1 1/1/1 1/1/1
f 1/1/1 1/1/1 1/1/1
f 1/1/1 1/1/1 1/1/1
f 1/1/1 1/1/1 1/1/1
f 1/1/1 1/1/1 1/1/1
f 1/1/1 1/1/1 1/1/1
f 1/1/1 1/1/1 1/1/1
f 1/1/1 1/1/1 1/1/1
f 1/1/1 1/1/1 1/1/1
f 1/1/1 1/1/1 1/1/1
f 1/1/1 1/1/1 1/1/1
f 1/1/1 1/1/1 1/1/1
f 1/1/1 1/1/1 1/1/1
f 1/1/1 1/1/1 1/1/1
f 1/1/1 1/1/1 1/1/1
f 1/1/1 1/1/1 1/1/1
f 1/1/1 1/1/1 1/1/1
f 1/1/1 1/1/1 1/1/1
f 1/1/1 1/1/1 1/1/1
f 1/1/1 1/1/1 1/1/1
f 1/1/1 1/1/1 1/1/1
f 1/1/1 1/1/1 1/1/1
f 1/1/1 1/1/1 1/1/1
f 1/1/1 1/1/1 1/1/1
f 1/1/1 1/1/1 1/1/1
f 1/1/1 1/1/1 1/1/1
f 1/1/1 1/1/1 1/1/1
f 1/1/1 1/1/1 1/1/1
f 1/1/1 1/1/1 1/1/1
f 1/1/1 1/1/1 1/1/1
f 1/1/1 1/1/1 1/1/1
f 1/1/1 1/1/1 1/1/1
f 1/1/1 1/1/1 1/1/1
f 1/1/1 1/1/1 1/1/1
f 1/1/1 1/1/1 1/1/1
f 1/1/1 1/1/1 1/1/1
f 1/1/1 1/1/1 1/1/1
f 1/1/1 1/1/1 1/1/1
f 1/1/1 1/1/1 1/1/1
f 1/1/1 1/1/1 1/1/1
f 1/1/1 1/1/1 1/1/1
f 1/1/1 1/1/1 1/1/1
f 1/1/1 1/1/1 1/1/1
f 1/1/1 1/1/1 1/1/1
f 1/1/1 1/1/1 1/1/1
f 1/1/1 1/1/1 1/1/1
f 1/1/1 1/1/1 1/1/1
f 1/1/1 1/1/1 1/1/1
f 1/1/1 1/1/1 1/1/1
f 1/1/1 1/1/1 1/1/1
f 1/1/1 1/1/1 1/1/1
f 1/1/1 1/1/1 1/1/1
f 1/1/1 1/1/1 1/1/1
f 1/1/1 1/1/1 1/1/1
f 1/1/1 1/1/1 1/1/1
f 1/1/1 1/1/1 1/1/1
f 1/1/1 1/1/1 1/1/1
f 1/1/1 1/1/1 1/1/1
f 1/1/1 1/1/1 1/1/1
f 1/1/1 1/1/1 1/1/1
f 1/1/1 1/1/1 1/1/1
f 1/1/1 1/1/1 1/1/1
f 1/1/1 1/1/1 1/1/1
f 1/1/1 1/1/1 1/1/1
f 1/1/1 1/1/1 1/1/1
f 1/1/1 1/1/1 1/1/1
f 1/1/1 1/1/1 1/1/1
f 1/1/1 1/1/1 1/1/1
f 1/1/1 1/1/1 1/1/1
f 1/1/1 1/1/1 1/1/1
f 1/1/1 1/1/1 1/1/1
f 1/1/1 1/1/1 1/1/1
f 1/1/1 1/1/1 1/1/1
f 1/1/1 1/1/1 1/1/1
f 1/1/1 1/1/1 1/1/1
f 1/1/1 1/1/1 1/1/1
f 1/1/1 1/1/1 1/1/1
f 1/1/1 1/1/1 1/1/1
f 1/1/1 1/1/1 1/1/1
f 1/1/1 1/1/1 1/1/1
f 1/1/1 1/1/1 1/1/1
f 1/1/1 1/1/1 1/1/1
f 1/1/1 1/1/1 1/1/1
f 1/1/1 1/1/1 1/1/1
f 1/1/1 1/1/1 1/1/1
f 1/1/1 1/1/1 1/1/1
f 1/1/1 1/1/1 1/1/1
f 1/1/1 1/1/1 1/1/1
f 1/1/1 1/1/1 1/1/1
f 1/1/1 1/1/1 1/1/1
f 1/1/1 1/1/1 1/1/1
f 1/1/1 1/1/1 1/1/1
f 1/1/1 1/1/1 1/1/1
f 1/1/1 1/1/1 1/1/1
f 1/1/1 1/1/1 1/1/1
f 1/1/1 1/1/1 1/1/1
f 1/1/1 1/1/1 1/1/1
f 1/1/1 1/1/1 1/1/1
f 1/1/1 1/1/1 1/1/1
f 1/1/1 1/1/1 1/1/1
f 1/1/1 1/1/1 1/1/1
f 1/1/1 1/1/1 1/1/1
f 1/1/1 1/1/1 1/1/1
f 1/1/1 1/1/1 1/1/1
f 1/1/1 1/1/1 1/1/1
f 1/1/1 1/1/1 1/1/1
f 1/1/1 1/1/1 1/1/1
f 1/1/1 1/1/1 1/1/1
f 1/1/1 1/1/1 1/1/1
f 1/1/1 1/1/1 1/1/1
f 1/1/1 1/1/1 1/1/1
f 1/1/1 1/1/1 1/1/1
f 1/1/1 1/1/1 1/1/1
f 1/1/1 1/1/1 1/1/1
f 1/1/1 1/1/1 1/1/1
f 1/1/1 1/1/1 1/1/1
f 1/1/1 1/1/1 1/1/1
f 1/1/1 1/1/1 1/1/1
f 1/1/1 1/1/1 1/1/1
f 1/1/1 1/1/1 1/1/1
f 1/1/1 1/1/1 1/1/1
f 1/1/1 1/1/1 1/1/1
f 1/1/1 1/1/1 1/1/1
f 1/1/1 1/1/1 1/1/1
f 1/1/1 1/1/1 1/1/1
f 1/1/1 1/1/1 1/1/1
f 1/1/1 1/1/1 1/1/1
f 1/1/1 1/1/1 1/1/1
f 1/1/1 1/1/1 1/1/1
f 1/1/1 1/1/1 1/1/1
f 1/1/1 1/1/1 1/1/1
f 1/1/1 1/1/1 1/1/1
f 1/1/1 1/1/1 1/1/1
f 1/1/1 1/1/1 1/1/1
f 1/1/1 1/1/1 1/1/1
f 1/1/1 1/1/1 1/1/1
f 1/1/1 1/1/1 1/1/1
f 1/1/1 1/1/1 1/1/1
f 1/1/1 1/1/1 1/1/1
f 1/1/1 1/1/1 1/1/1
f 1/1/1 1/1/1 1/1/1
f 1/1/1 1/1/1 1/1/1
f 1/1/1 1/1/1 1/1/1
f 1/1/1 1/1/1 1/1/1
f 1/1/1 1/1/1 1/1/1
f 1/1/1 1/1/1 1/1/1
f 1/1/1 1/1/1 1/1/1
f 1/1/1 1/1/1 1/1/1
f 1/1/1 1/1/1 1/1/1
f 1/1/1 1/1/1 1/1/1
f 1/1/1 1/1/1 1/1/1
f 1/1/1 1/1/1 1/1/1
f 1/1/1 1/1/1 1/1/1
f 1/1/1 1/1/1 1/1/1
f 1/1/1 1/1/1 1/1/1
f 1/1/1 1/1/1 1/1/1
f 1/1/1 1/1/1 1/1/1
f 1/1/1 1/1/1 1/1/1
f 1/1/1 1/1/1 1/1/1
f 1/1/1 1/1/1 1/1/1
f 1/1/1 1/1/1 1/1/1
f 1/1/1 1/1/1 1/1/1
f 1/1/1 1/1/1 1/1/1
f 1/1/1 1/1/1 1/1/1
f 1/1/1 1/1/1 1/1/1
f 1/1/1 1/1/1 1/1/1
f 1/1/1 1/1/1 1/1/1
f 1/1/1 1/1/1 1/1/1
f 1/1/1 1/1/1 1/1/1
f 1/1/1 1/1/1 1/1/1
f 1/1/1 1/1/1 1/1/1
f 1/1/1 1/1/1 1/1/1
f 1/1/1 1/1/1 1/1/1
f 1/1/1 1/1/1 1/1/1
f 1/1/1 1/1/1 1/1/1
f 1/1/1 1/1/1 1/1/1
f 1/1/1 1/1/1 1/1/1
f 1/1/1 1/1/1 1/1/1
f 1/1/1 1/1/1 1/1/1
f 1/1/1 1/1/1 1/1/1
f 1/1/1 1/1/1 1/1/1
f 1/1/1 1/1/1 1/1/1
f 1/1/1 1/1/1 1/1/1
f 1/1/1 1/1/1 1/1/1
f 1/1/1 1/1/1 1/1/1
f 1/1/1 1/1/1 1/1/1
f 1/1/1 1/1/1 1/1/1
f 1/1/1 1/1/1 1/1/1
f 1/1/1 1/1/1 1/1/1
f 1/1/1 1/1/1 1/1/1
f 1/1/1 1/1/1 1/1/1
f 1/1/1 1/1/1 1/1/1
f 1/1/1 1/1/1 1/1/1
f 1/1/1 1/1/1 1/1/1
f 1/1/1 1/1/1 1/1/1
f 1/1/1 1/1/1 1/1/1
f 1/1/1 1/1/1 1/1/1
f 1/1/1 1/1/1 1/1/1
f 1/1/1 1/1/1 1/1/1
f 1/1/1 1/1/1 1/1/1
f 1/1/1 1/1/1 1/1/1
f 1/1/1 1/1/1 1/1/1
f 1/1/1 1/1/1 1/1/1
f 1/1/1 1/1/1 1/1/1
f 1/1/1 1/1/1 1/1/1
f 1/1/1 1/1/1 1/1/1
f 1/1/1 1/1/1 1/1/1
f 1/1/1 1/1/1 1/1/1
f 1/1/1 1/1/1 1/1/1
f 1/1/1 1/1/1 1/1/1
f 1/1/1 1/1/1 1/1/1
f 1/1/1 1/1/1 1/1/1
f 1/1/1 1/1/1 1/1/1
f 1/1/1 1/1/1 1/1/1
f 1/1/1 1/1/1 1/1/1
f 1/1/1 1/1/1 1/1/1
f 1/1/1 1/1/1 1/1/1
f 1/1/1 1/1/1 1/1/1
f 1/1/1 1/1/1 1/1/1
f 1/1/1 1/1/1 1/1/1
f 1/1/1 1/1/1 1/1/1
f 1/1/1 1/1/1 1/1/1
f 1/1/1 1/1/1 1/1/1
f 1/1/1 1/1/1 1/1/1
f 1/1/1 1/1/1 1/1/1
f 1/1/1 1/1/1 1/1/1
f 1/1/1 1/1/1 1/1/1
f 1/1/1 1/1/1 1/1/1
f 1/1/1 1/1/1 1/1/1
f 1/1/1 1/1/1 1/1/1
f 1/1/1 1/1/1 1/1/1
f 1/1/1 1/1/1 1/1/1
f 1/1/1 1/1/1 1/1/1
f 1/1/1 1/1/1 1/1/1
f 1/1/1 1/1/1 1/1/1
f 1/1/1 1/1/1 1/1/1
f 1/1/1 1/1/1 1/1/1
f 1/1/1 1/1/1 1/1/1
f 1/1/1 1/1/1 1/1/1
f 1/1/1 1/1/1 1/1/1
f 1/1/1 1/1/1 1/1/1
f 1/1/1 1/1/1 1/1/1
f 1/1/1 1/1/1 1/1/1
f 1/1/1 1/1/1 1/1/1
f 1/1/1 1/1/1 1/1/1
f 1/1/1 1/1/1 1/1/1
f 1/1/1 1/1/1 1/1/1
f 1/1/1 1/1/1 1/1/1
f 1/1/1 1/1/1 1/1/1
f 1/1/1 1/1/1 1/1/1
f 1/1/1 1/1/1 1/1/1
f 1/1/1 1/1/1 1/1/1
f 1/1/1 1/1/1 1/1/1
f 1/1/1 1/1/1 1/1/1
f 1/1/1 1/1/1 1/1/1
f 1/1/1 1/1/1 1/1/1
f 1/1/1 1/1/1 1/1/1
f 1/1/1 1/1/1 1/1/1
f 1/1/1 1/1/1 1/1/1
f 1/1/1 1/1/1 1/1/1
f 1/1/1 1/1/1 1/1/1
f 1/1/1 1/1/1 1/1/1
f 1/1/1 1/1/1 1/1/1
f 1/1/1 1/1/1 1/1/1
f 1/1/1 1/1/1 1/1/1
f 1/1/1 1/1/1 1/1/1
f 1/1/1 1/1/1 1/1/1
f 1/1/1 1/1/1 1/1/1
f 1/1/1 1/1/1 1/1/1
f 1/1/1 1/1/1 1/1/1
f 1/1/1 1/1/1 1/1/1
f 1/1/1 1/1/1 1/1/1
f 1/1/1 1/1/1 1/1/1
f 1/1/1 1/1/1 1/1/1
f 1/1/1 1/1/1 1/1/1
f 1/1/1 1/1/1 1/1/1
f 1/1/1 1/1/1 1/1/1
f 1/1/1 1/1/1 1/1/1
f 1/1/1 1/1/1 1/1/1
f 1/1/1 1/1/1 1/1/1
f 1/1/1 1/1/1 1/1/1
f 1/1/1 1/1/1 1/1/1
f 1/1/1 1/1/1 1/1/1
f 1/1/1 1/1/1 1/1/1
f 1/1/1 1/1/1 1/1/1
f 1/1/1 1/1/1 1/1/1
f 1/1/1 1/1/1 1/1/1
f 1/1/1 1/1/1 1/1/1
f 1/1/1 1/1/1 1/1/1
f 1/1/1 1/1/1 1/1/1
f 1/1/1 1/1/1 1/1/1
f 1/1/1 1/1/1 1/1/1
f 1/1/1 1/1/1 1/1/1
f 1/1/1 1/1/1 1/1/1
f 1/1/1 1/1/1 1/1/1
f 1/1/1 1/1/1 1/1/1
f 1/1/1 1/1/1 1/1/1
f 1/1/1 1/1/1 1/1/1
f 1/1/1 1/1/1 1/1/1
f 1/1/1 1/1/1 1/1/1
f 1/1/1 1/1/1 1/1/1
f 1/1/1 1/1/1 1/1/1
f 1/1/1 1/1/1 1/1/1
f 1/1/1 1/1/1 1/1/1
f 1/1/1 1/1/1 1/1/1
f 1/1/1 1/1/1 1/1/1
f 1/1/1 1/1/1 1/1/1
f 1/1/1 1/1/1 1/1/1
f 1/1/1 1/1/1 1/1/1
f 1/1/1 1/1/1 1/1/1
f 1/1/1 1/1/1 1/1/1
f 1/1/1 1/1/1 1/1/1
f 1/1/1 1/1/1 1/1/1
f 1/1/1 1/1/1 1/1/1
f 1/1/1 1/1/1 1/1/1
f 1/1/1 1/1/1 1/1/1
f 1/1/1 1/1/1 1/1/1
f 1/1/1 1/1/1 1/1/1
f 1/1/1 1/1/1 1/1/1
f 1/1/1 1/1/1 1/1/1
f 1/1/1 1/1/1 1/1/1
f 1/1/1 1/1/1 1/1/1
f 1/1/1 1/1/1 1/1/1
f 1/1/1 1/1/1 1/1/1
f 1/1/1 1/1/1 1/1/1
f 1/1/1 1/1/1 1/1/1
f 1/1/1 1/1/1 1/1/1
f 1/1/1 1/1/1 1/1/1
f 1/1/1 1/1/1 1/1/1
f 1/1/1 1/1/1 1/1/1
f 1/1/1 1/1/1 1/1/1
f 1/1/1 1/1/1 1/1/1
f 1/1/1 1/1/1 1/1/1
f 1/1/1 1/1/1 1/1/1
f 1/1/1 1/1/1 1/1/1
f 1/1/1 1/1/1 1/1/1
f 1/1/1 1/1/1 1/1/1
f 1/1/1 1/1/1 1/1/1
f 1/1/1 1/1/1 1/1/1
f 1/1/1 1/1/1 1/1/1
f 1/1/1 1/1/1 1/1/1
