g DoubleRollerPumpTube2 
v 3.648481 1.30355 1.851508
v 3.400089 1.449997 1.599911
v 3.151644 1.30355 1.348365
v 3.048683 0.9499969 1.244222
v 3.151518 0.5964435 1.348489
v 3.399911 0.449997 1.600086
v 3.648355 0.5964437 1.851632
v 3.751316 0.949997 1.955775
v 3.648481 1.30355 1.851508
v 3.546637 1.303625 1.950448
v 3.305615 1.450069 1.69178
v 3.064305 1.30362 1.433383
v 2.964064 0.9500663 1.326623
v 3.063611 0.5965143 1.434038
v 3.304633 0.4500704 1.692705
v 3.545943 0.5965195 1.951102
v 3.646184 0.9500735 2.057863
v 3.546637 1.303625 1.950448
v 3.44329 1.303853 2.045254
v 3.209992 1.450283 1.77959
v 2.976169 1.30382 1.514406
v 2.878791 0.9502613 1.405044
v 2.974901 0.5967157 1.515566
v 3.208199 0.450286 1.78123
v 3.442021 0.5967487 2.046413
v 3.539399 0.9503077 2.155775
v 3.44329 1.303853 2.045254
v 3.33848 1.304227 2.135905
v 3.113272 1.450631 1.863336
v 2.8873 1.304143 1.591446
v 2.792934 0.9505749 1.479504
v 2.885453 0.597041 1.593084
v 3.110661 0.4506371 1.865653
v 3.336634 0.5971248 2.137544
v 3.431 0.9506932 2.249485
v 3.33848 1.304227 2.135905
v 3.232257 1.304741 2.222377
v 3.015509 1.451107 1.943013
v 2.797755 1.304583 1.664516
v 2.706553 0.951 1.550025
v 2.795328 0.597483 1.666607
v 3.012076 0.4511171 1.945971
v 3.22983 0.5976415 2.224468
v 3.321032 0.951224 2.338959
v 3.232257 1.304741 2.222377
v 3.124665 1.305388 2.304644
v 2.916752 1.451704 2.018618
v 2.707594 1.305131 1.733634
v 2.619712 0.95153 1.616632
v 2.704586 0.5980352 1.736149
v 2.912498 0.4517194 2.022175
v 3.121657 0.5982924 2.307159
v 3.209539 0.9518935 2.424161
v 3.124665 1.305388 2.304644
v 3.015752 1.306163 2.38268
v 2.817057 1.452416 2.090145
v 2.616876 1.305783 1.798815
v 2.532472 0.952158 1.679349
v 2.613288 0.5986909 1.801727
v 2.811983 0.4524375 2.094262
v 3.012164 0.5990711 2.385591
v 3.096568 0.9526956 2.505058
v 3.015752 1.306163 2.38268
v 2.90557 1.307058 2.456454
v 2.716473 1.453236 2.157588
v 2.525651 1.30653 1.86008
v 2.444886 0.9528772 1.738206
v 2.521488 0.599443 1.863358
v 2.710585 0.4532644 2.162224
v 2.901406 0.5999709 2.459732
v 2.982172 0.9536237 2.581606
v 2.90557 1.307058 2.456454
v 2.794177 1.308067 2.525934
v 2.615056 1.454158 2.220943
v 2.433972 1.307367 1.91745
v 2.357003 0.9536811 1.793238
v 2.429236 0.6002852 1.921067
v 2.608357 0.4541939 2.226058
v 2.789441 0.6009854 2.529551
v 2.86641 0.9546712 2.653763
v 2.794177 1.308067 2.525934
v 2.681614 1.309184 2.591096
v 2.512852 1.455176 2.280206
v 2.341896 1.308287 1.970942
v 2.268889 0.954563 1.844466
v 2.336598 0.6012107 1.974866
v 2.50536 0.455219 2.285756
v 2.676316 0.6021078 2.59502
v 2.749323 0.9558316 2.721496
v 2.681614 1.309184 2.591096
v 2.567953 1.310401 2.651899
v 2.40992 1.456281 2.335369
v 2.249463 1.309283 2.020581
v 2.180576 0.9555168 1.891933
v 2.243611 0.6022133 2.024786
v 2.401643 0.4563333 2.341316
v 2.5621 0.6033314 2.656104
v 2.630988 0.9570979 2.784752
v 2.567953 1.310401 2.651899
v 2.453238 1.311713 2.70832
v 2.306306 1.457469 2.386431
v 2.156727 1.31035 2.066386
v 2.092122 0.9565359 1.935664
v 2.150336 0.6032863 2.070839
v 2.297268 0.4575301 2.392729
v 2.446847 0.6046494 2.712773
v 2.511452 0.9584636 2.843495
v 2.453238 1.311713 2.70832
v 2.337546 1.313112 2.760317
v 2.202066 1.458733 2.433382
v 2.063721 1.311481 2.108383
v 2.003552 0.9576145 1.9757
v 2.056804 0.6044236 2.113057
v 2.192284 0.4588027 2.439992
v 2.330629 0.6060548 2.764991
v 2.390798 0.9599213 2.897674
v 2.337546 1.313112 2.760317
v 2.220932 1.314591 2.80786
v 2.09725 1.460066 2.476218
v 1.970492 1.31267 2.146592
v 1.914912 0.9587463 2.012072
v 1.963067 0.6056187 2.151458
v 2.08675 0.4601444 2.4831
v 2.213507 0.6075404 2.812727
v 2.269087 0.9614638 2.947247
v 2.220932 1.314591 2.80786
v 2.103471 1.316144 2.850916
v 1.99191 1.461461 2.514934
v 1.877072 1.313911 2.181036
v 1.826227 0.9599258 2.044815
v 1.86916 0.606866 2.186067
v 1.980721 0.461549 2.522049
v 2.095559 0.6090994 2.855947
v 2.146403 0.9630842 2.992168
v 2.103471 1.316144 2.850916
v 1.98523 1.317762 2.88945
v 1.886097 1.462912 2.549523
v 1.783494 1.315197 2.211736
v 1.737525 0.9611468 2.073962
v 1.775118 0.6081589 2.216906
v 1.874252 0.463009 2.556833
v 1.976855 0.610724 2.894619
v 2.022824 0.9647744 3.032394
v 1.98523 1.317762 2.88945
v 1.866285 1.31944 2.923433
v 1.779864 1.464413 2.579979
v 1.689792 1.316524 2.238713
v 1.648832 0.9624045 2.099544
v 1.680978 0.6094922 2.243995
v 1.767399 0.4645188 2.587449
v 1.857472 0.6124076 2.928715
v 1.898432 0.9665275 3.067884
v 1.866285 1.31944 2.923433
v 1.746722 1.321168 2.95283
v 1.673263 1.465957 2.606295
v 1.595983 1.317886 2.261985
v 1.560151 0.963693 2.121592
v 1.586757 0.6108596 2.267357
v 1.660216 0.4660707 2.613892
v 1.737496 0.6141418 2.958202
v 1.773328 0.9683346 3.098595
v 1.746722 1.321168 2.95283
v 1.626615 1.32294 2.977616
v 1.566346 1.467537 2.628466
v 1.502097 1.319276 2.281569
v 1.471506 0.9650074 2.140132
v 1.492491 0.6122558 2.287009
v 1.55276 0.467659 2.636159
v 1.617009 0.6159197 2.983056
v 1.6476 0.9701887 3.124492
v 1.626615 1.32294 2.977616
v 1.506052 1.324748 2.997762
v 1.459165 1.469147 2.646483
v 1.408153 1.32069 2.297477
v 1.3829 0.9663423 2.155188
v 1.398197 0.6136751 2.302966
v 1.445085 0.4692764 2.654245
v 1.496096 0.6177332 3.003251
v 1.521349 0.9720812 3.14554
v 1.506052 1.324748 2.997762
v 1.385117 1.326585 3.013247
v 1.351771 1.470781 2.660341
v 1.314172 1.322123 2.309722
v 1.294343 0.9676931 2.166778
v 1.303901 0.615112 2.315243
v 1.337246 0.4709167 2.668149
v 1.374846 0.6195749 3.018768
v 1.394675 0.9740044 3.161712
v 1.385117 1.326585 3.013247
v 1.263907 1.328443 3.024046
v 1.24422 1.472431 2.670032
v 1.220162 1.323568 2.318311
v 1.205827 0.9690547 2.174917
v 1.20961 0.6165612 2.323849
v 1.229298 0.472573 2.677863
v 1.253355 0.6214364 3.029584
v 1.267691 0.9759492 3.172978
v 1.263907 1.328443 3.024046
v 1.142507 1.330313 3.030146
v 1.13656 1.474092 2.675549
v 1.126143 1.32502 2.323249
v 1.117358 0.9704227 2.179617
v 1.11535 0.6180176 2.328792
v 1.121297 0.474239 2.683389
v 1.131714 0.6233106 3.03569
v 1.1405 0.9779081 3.179321
v 1.142507 1.330313 3.030146
v 1.021024 1.332188 3.03153
v 1.028851 1.475756 2.676884
v 1.03212 1.326475 2.324533
v 1.028917 0.9717922 2.18088
v 1.021118 0.6194755 2.330074
v 1.013291 0.4759076 2.684719
v 1.010022 0.6251885 3.03707
v 1.013225 0.9798714 3.180724
v 1.021024 1.332188 3.03153
v 0.8995401 1.33406 3.02819
v 0.92114 1.477417 2.674031
v 0.9381126 1.327927 2.322163
v 0.9405155 0.9731584 2.178705
v 0.926941 0.62093 2.327694
v 0.9053411 0.4775726 2.681853
v 0.8883685 0.627063 3.033721
v 0.8859656 0.9818316 3.177179
v 0.8995401 1.33406 3.02819
v 0.7781539 1.335921 3.020121
v 0.8134823 1.479069 2.666982
v 0.8441292 1.329371 2.316129
v 0.8521421 0.9745167 2.173087
v 0.8328272 0.6223758 2.321648
v 0.7974988 0.4792274 2.674786
v 0.7668519 0.6289259 3.02564
v 0.758839 0.9837798 3.168681
v 0.7781539 1.335921 3.020121
v 0.6569621 1.337762 3.00732
v 0.7059328 1.480705 2.655729
v 0.7501832 1.330801 2.306419
v 0.7637919 0.9758626 2.164011
v 0.7387871 0.6238076 2.311926
v 0.6898164 0.4808652 2.663516
v 0.645566 0.6307691 3.012826
v 0.6319574 0.9857075 3.155234
v 0.6569621 1.337762 3.00732
v 0.5360578 1.339578 2.98979
v 0.5985432 1.482318 2.640266
v 0.6562858 1.332213 2.293018
v 0.6754605 0.9771914 2.151461
v 0.6448352 0.6252203 2.298515
v 0.5823498 0.4824796 2.648039
v 0.5246073 0.6325849 2.995287
v 0.5054325 0.9876065 3.136845
v 0.5360578 1.339578 2.98979
v 0.4155354 1.341358 2.967538
v 0.4913701 1.483902 2.620585
v 0.5624539 1.333601 2.275907
v 0.5871468 0.9784982 2.135411
v 0.5509842 0.6266084 2.281399
v 0.4751496 0.484064 2.628353
v 0.4040658 0.6343654 2.973031
v 0.3793728 0.9894681 3.113526
v 0.4155354 1.341358 2.967538
v 0.2954865 1.343095 2.940574
v 0.3844658 1.48545 2.596678
v 0.4687015 1.33496 2.255059
v 0.4988496 0.9797781 2.115833
v 0.4572496 0.6279668 2.260557
v 0.3682703 0.4856118 2.604453
v 0.2840345 0.6361028 2.946071
v 0.2538865 0.9912841 3.085298
v 0.2954865 1.343095 2.940574
v 0.1759986 1.344783 2.908911
v 0.2778865 1.486956 2.56854
v 0.3750521 1.336283 2.230453
v 0.4105771 0.9810261 2.092695
v 0.3636515 0.6292897 2.235965
v 0.2617636 0.4871164 2.576335
v 0.164598 0.6377894 2.914423
v 0.1290729 0.9930464 3.05218
v 0.1759986 1.344783 2.908911
v 0.05716059 1.346412 2.872565
v 0.1716861 1.488413 2.536162
v 0.2815243 1.337566 2.202055
v 0.3223335 0.9822371 2.065958
v 0.2702082 0.6305718 2.207596
v 0.1556827 0.4885714 2.543998
v 0.04584444 0.6394178 2.878105
v 0.005035283 0.994747 3.014202
v 0.05716059 1.346412 2.872565
v -0.06094671 1.347976 2.831554
v 0.06592026 1.489813 2.499539
v 0.1881475 1.338803 2.169838
v 0.2341359 0.9834057 2.035584
v 0.1769461 0.6318074 2.175421
v 0.05007914 0.4899701 2.507436
v -0.07214811 0.6409802 2.837137
v -0.1181365 0.9963779 2.971391
v -0.06094671 1.347976 2.831554
v -0.1782416 1.349467 2.785899
v -0.0393566 1.491152 2.458664
v 0.09494826 1.339989 2.133766
v 0.145999 0.9845265 2.001527
v 0.0838908 0.6329908 2.13941
v -0.05499419 0.4913061 2.466646
v -0.1892991 0.6424696 2.791543
v -0.2403498 0.9979316 2.923782
v -0.1782416 1.349467 2.785899
v -0.2946455 1.350878 2.735624
v -0.1440893 1.492422 2.413529
v 0.001957613 1.341116 2.093805
v 0.05794287 0.985594 1.963742
v -0.00892896 0.6341159 2.099529
v -0.1594852 0.4925728 2.421623
v -0.3055321 0.6438787 2.741347
v -0.3615173 0.9994005 2.871411
v -0.2946455 1.350878 2.735624
v -0.4100891 1.352202 2.68075
v -0.2482229 1.493616 2.36413
v -0.09078495 1.342179 2.049922
v -0.03000036 0.9866021 1.922184
v -0.1014759 0.635177 2.055744
v -0.2633421 0.4937637 2.372364
v -0.4207801 0.6452003 2.686572
v -0.4815646 1.000777 2.81431
v -0.4100891 1.352202 2.68075
v -0.5244977 1.353432 2.621303
v -0.3517014 1.494727 2.31046
v -0.1832428 1.343172 2.002078
v -0.1178026 0.9875451 1.876804
v -0.1937149 0.6361677 2.008021
v -0.3665112 0.4948722 2.318864
v -0.5349699 0.6464275 2.627246
v -0.60041 1.002054 2.75252
v -0.5244977 1.353432 2.621303
v -0.6378077 1.35456 2.557306
v -0.4544693 1.49575 2.252513
v -0.2753705 1.344089 1.95024
v -0.2054249 0.9884167 1.827554
v -0.2856058 0.637082 1.956324
v -0.4689443 0.4958918 2.261117
v -0.6480431 0.6475533 2.56339
v -0.7179886 1.003225 2.686076
v -0.6378077 1.35456 2.557306
v -0.749956 1.35558 2.488783
v -0.5564728 1.496677 2.190283
v -0.3671232 1.344922 1.894371
v -0.2928255 0.9892106 1.774389
v -0.3771022 0.6379135 1.90062
v -0.5705853 0.4968159 2.199121
v -0.759935 0.6485711 2.495032
v -0.8342327 1.004283 2.615014
v -0.749956 1.35558 2.488783
v -0.8608768 1.356485 2.415761
v -0.657654 1.497502 2.123766
v -0.4584534 1.345667 1.834436
v -0.3799639 0.9899205 1.717257
v -0.4681638 0.6386556 1.840871
v -0.6713865 0.4976381 2.132867
v -0.8705872 0.6494741 2.422196
v -0.9490766 1.00522 2.539375
v -0.8608768 1.356485 2.415761
v -0.9705166 1.357268 2.33826
v -0.7579597 1.498219 2.052955
v -0.5493075 1.346315 1.770402
v -0.4667858 0.9905397 1.656117
v -0.5587347 0.6393019 1.777047
v -0.7712917 0.4983517 2.062353
v -0.9799439 0.6502558 2.344906
v -1.062465 1.006031 2.45919
v -0.9705166 1.357268 2.33826
v -1.078824 1.357924 2.256301
v -0.8573353 1.49882 1.977844
v -0.6396295 1.34686 1.702238
v -0.5532355 0.9910616 1.590927
v -0.6487616 0.6398458 1.709117
v -0.87025 0.4989503 1.987573
v -1.087956 0.6509098 2.26318
v -1.17435 1.006708 2.374491
v -1.078824 1.357924 2.256301
v -1.18574 1.358445 2.169908
v -0.9557237 1.499298 1.898431
v -0.7293652 1.347296 1.62991
v -0.6392619 0.9914795 1.52164
v -0.738195 0.6402806 1.637045
v -0.9682108 0.4994274 1.908521
v -1.194569 0.6514297 2.177043
v -1.284673 1.007246 2.285313
v -1.18574 1.358445 2.169908
v -1.291217 1.358825 2.079098
v -1.053071 1.499649 1.814709
v -0.8184546 1.347616 1.553389
v -0.7248026 0.9917862 1.448218
v -0.8269751 0.6405994 1.560802
v -1.065121 0.4997762 1.825192
v -1.299737 0.651809 2.086511
v -1.393389 1.007639 2.191683
v -1.291217 1.358825 2.079098
v -1.395207 1.359058 1.983891
v -1.149322 1.499864 1.726673
v -0.9068366 1.347813 1.472649
v -0.8097948 0.991975 1.370624
v -0.9150425 0.6407955 1.480363
v -1.160927 0.4999905 1.737581
v -1.403413 0.6520415 1.991605
v -1.500454 1.007879 2.093629
v -1.395207 1.359058 1.983891
v -1.494299 1.359136 1.887668
v -1.244322 1.499937 1.634422
v -0.9976714 1.347882 1.384444
v -0.8988315 0.9920421 1.284166
v -1.005701 0.6408643 1.392331
v -1.255678 0.5000634 1.645576
v -1.502329 0.6521186 1.895555
v -1.601169 1.007958 1.995833
v -1.494299 1.359136 1.887668
v 0 0 0
v 0 0 0
v 0 0 0
v 0 0 0
v 0 0 0
v 0 0 0
v 0 0 0
v 0 0 0
v 0 0 0
v 0 0 0
v 0 0 0
v 0 0 0
v 0 0 0
v 0 0 0
v 0 0 0
v 0 0 0
v 0 0 0
v 0 0 0
v 0 0 0
v 0 0 0
v 0 0 0
v 0 0 0
v 0 0 0
v 0 0 0
v 0 0 0
v 0 0 0
v 0 0 0
v 0 0 0
v 0 0 0
v 0 0 0
v 0 0 0
v 0 0 0
v 0 0 0
v 0 0 0
v 0 0 0
v 0 0 0
v 0 0 0
v 0 0 0
v 0 0 0
v 0 0 0
v 0 0 0
v 0 0 0
v 0 0 0
v 0 0 0
v 0 0 0
v 0 0 0
v 3.4 0.9499969 1.599998
v -1.25 1 1.639999

vn 0.7492235 0.4713394 -0.4652992
vn 0.6302697 0.3588414 -0.6884715
vn 0.4772311 0.2072342 -0.8539932
vn 0.4326136 -0.04788346 -0.900307
vn 0.5149865 -0.2859669 -0.8080915
vn 0.696031 -0.3780131 -0.6104481
vn 0.8767812 -0.2415077 -0.4158471
vn 0.9319084 0.05377309 -0.3586853
vn 0.8711546 0.1124292 -0.4779638
vn 0.2623645 0.923871 0.2786167
vn 0.01023952 0.9999264 0.00649295
vn -0.4801701 0.7134554 -0.5103117
vn -0.6874338 0.0008350239 -0.7262465
vn -0.4839349 -0.7121683 -0.5085501
vn 0.004304629 -0.9999489 0.009146522
vn 0.4866103 -0.7029314 0.5187465
vn 0.6864689 -0.00121874 0.7271581
vn 0.6377282 0.3826829 0.6684732
vn 0.2549022 0.9238831 0.2854205
vn 0.01110982 0.9999185 0.006290236
vn -0.464523 0.7136434 -0.524339
vn -0.6661972 0.0007923759 -0.7457752
vn -0.4694761 -0.7124193 -0.5215849
vn 0.003485441 -0.9999404 0.01034593
vn 0.470945 -0.702718 0.5332899
vn 0.6651458 -0.001160174 0.7467127
vn 0.6185036 0.3827071 0.6862861
vn 0.2470511 0.9239067 0.292168
vn 0.0119634 0.9999095 0.00614449
vn -0.4481617 0.7138116 -0.5381672
vn -0.6439402 0.0007125663 -0.7650755
vn -0.4543107 -0.7127013 -0.5344704
vn 0.002637521 -0.9999301 0.01152768
vn 0.4545393 -0.7024769 0.5476497
vn 0.6427996 -0.001067715 0.7660338
vn 0.598339 0.382761 0.7039066
vn 0.2388036 0.9239423 0.2988369
vn 0.01279388 0.9998998 0.006054231
vn -0.4310756 0.7139596 -0.5517567
vn -0.620642 0.0005986685 -0.7840939
vn -0.438425 -0.7130116 -0.5471728
vn 0.001759587 -0.999918 0.01268694
vn 0.4373788 -0.702207 0.5617874
vn 0.6194062 -0.0009387759 0.7850701
vn 0.5772138 0.3828454 0.7212861
vn 0.2301513 0.9239899 0.3054062
vn 0.01359804 0.9998894 0.006020192
vn -0.4132578 0.7140877 -0.5650634
vn -0.5962908 0.000449837 -0.8027684
vn -0.4218094 -0.7133514 -0.5596488
vn 0.0008528184 -0.9999041 0.01382335
vn 0.4194562 -0.7019076 0.5756581
vn 0.5949529 -0.0007727599 0.8037601
vn 0.5551112 0.3829605 0.7383718
vn 0.2210846 0.9240501 0.3118543
vn 0.01436839 0.9998785 0.006038166
vn -0.3947011 0.7141904 -0.5780511
vn -0.5708681 0.0002606109 -0.8210418
vn -0.4044507 -0.7137214 -0.5718578
vn -8.465329E-05 -0.9998885 0.01493196
vn 0.400759 -0.7015815 0.5892162
vn 0.5694249 -0.0005711989 0.8220431
vn 0.5320184 0.3831071 0.7551062
vn 0.2116003 0.9241226 0.318155
vn 0.01509662 0.9998674 0.006106138
vn -0.3754055 0.7142656 -0.5906737
vn -0.5443647 3.15446E-05 -0.8388488
vn -0.3863433 -0.7141179 -0.5837588
vn -0.001052963 -0.9998713 0.01600482
vn 0.3812821 -0.7012314 0.6024105
vn 0.5428141 -0.0003351591 0.8398529
vn 0.5079245 0.3832862 0.7714301
vn 0.2016949 0.9242081 0.3242816
vn 0.01578142 0.9998562 0.006222805
vn -0.3553697 0.7143224 -0.6028728
vn -0.5167849 -0.0002218585 -0.8561152
vn -0.3674912 -0.7145362 -0.5953053
vn -0.002049752 -0.9998527 0.01704356
vn 0.361032 -0.7008485 0.6151968
vn 0.5151191 -5.099673E-05 0.8571186
vn 0.4828278 0.3834966 0.7872786
vn 0.1913681 0.9243062 0.3302064
vn 0.01641759 0.9998448 0.006388275
vn -0.3346054 0.7143456 -0.6146134
vn -0.488127 -0.0005310829 -0.8727725
vn -0.3478844 -0.7149912 -0.6064355
vn -0.003071809 -0.9998324 0.01804668
vn 0.3400079 -0.7004457 0.6275113
vn 0.4863478 0.0002565279 0.8737653
vn 0.4567304 0.3837386 0.8025846
vn 0.1806192 0.9244171 0.3359015
vn 0.01699432 0.9998338 0.006589956
vn -0.3131197 0.7143456 -0.6258326
vn -0.4584057 -0.0008603063 -0.8887426
vn -0.327545 -0.715458 -0.6171177
vn -0.004124391 -0.999811 0.01900032
vn 0.3182208 -0.7000152 0.6393076
vn 0.4565065 0.0006147048 0.8897198
vn 0.429639 0.3840129 0.8172787
vn 0.1694544 0.9245406 0.3413353
vn 0.0175126 0.9998234 0.006830738
vn -0.29093 0.7143104 -0.6364907
vn -0.4276318 -0.001242559 -0.9039522
vn -0.3064671 -0.7159575 -0.6272822
vn -0.005198409 -0.9997882 0.01991017
vn 0.2956845 -0.6995661 0.6505214
vn 0.4256152 0.0009971897 0.9049038
vn 0.4015673 0.3843181 0.8312901
vn 0.157877 0.9246765 0.34648
vn 0.01796067 0.9998136 0.007097277
vn -0.2680555 0.7142473 -0.6465269
vn -0.3958324 -0.001648943 -0.9183213
vn -0.2846789 -0.7164667 -0.6368936
vn -0.006296807 -0.9997646 0.02076065
vn 0.27242 -0.6990944 0.6611009
vn 0.3936981 0.001425083 0.9192386
vn 0.3725352 0.3846542 0.8445465
vn 0.145906 0.9248243 0.3512996
vn 0.01834038 0.9998045 0.007390168
vn -0.2445292 0.7141497 -0.655893
vn -0.3630467 -0.00209817 -0.9317686
vn -0.2621992 -0.7169988 -0.6458825
vn -0.007412936 -0.9997401 0.02155561
vn 0.2484588 -0.6986066 0.6709823
vn 0.3607983 0.001880448 0.9326419
vn 0.3425782 0.3850196 0.8569714
vn 0.1335461 0.9249838 0.3557672
vn 0.01864471 0.9997965 0.007694496
vn -0.2203789 0.7140183 -0.6645383
vn -0.3293128 -0.002578126 -0.9442173
vn -0.2390572 -0.717541 -0.6542068
vn -0.008545672 -0.9997151 0.02228584
vn 0.2238305 -0.6981022 0.6801128
vn 0.3269528 0.002373444 0.9450377
vn 0.3117335 0.3854136 0.8684921
vn 0.1208231 0.9251544 0.3598489
vn 0.01887139 0.9997898 0.008012312
vn -0.1956493 0.7138559 -0.672407
vn -0.2946886 -0.003087562 -0.9555883
vn -0.2152884 -0.7180937 -0.6618099
vn -0.009686981 -0.9996897 0.02294899
vn 0.1985812 -0.697584 0.6884347
vn 0.2922205 0.002896593 0.9563466
vn 0.2800422 0.3858342 0.8790383
vn 0.1077502 0.9253352 0.3635169
vn 0.01901926 0.9997845 0.008323215
vn -0.17038 0.7136497 -0.6794664
vn -0.2592261 -0.003639142 -0.9658099
vn -0.190929 -0.7186564 -0.6686397
vn -0.01083643 -0.9996642 0.02353844
vn 0.1727527 -0.6970605 0.6958902
vn 0.2566619 0.003442687 0.9664951
vn 0.2475698 0.3862799 0.8885364
vn 0.09436081 0.9255254 0.3667406
vn 0.01908439 0.9997807 0.008625354
vn -0.1446273 0.713414 -0.6856555
vn -0.2230044 -0.004203014 -0.9748083
vn -0.1660296 -0.7192126 -0.6746609
vn -0.01198319 -0.999639 0.02404595
vn 0.1464067 -0.6965281 0.7024342
vn 0.2203495 0.004022599 0.9754127
vn 0.214367 0.3867484 0.8969239
vn 0.08067952 0.9257242 0.3694937
vn 0.01907253 0.9997784 0.008911263
vn -0.1184479 0.7131391 -0.6909434
vn -0.1861061 -0.004801418 -0.982518
vn -0.1406469 -0.7197742 -0.6798114
vn -0.01312429 -0.9996142 0.02447985
vn 0.1196034 -0.6959929 0.7080176
vn 0.1833712 0.004621354 0.9830329
vn 0.1805243 0.3872374 0.904134
vn 0.0667417 0.9259303 0.3717507
vn 0.01898048 0.9997778 0.009171367
vn -0.0919046 0.7128317 -0.6952873
vn -0.1486164 -0.005414463 -0.9888801
vn -0.1148356 -0.7203255 -0.6840644
vn -0.01425014 -0.9995901 0.0248282
vn 0.09241131 -0.6954575 0.7126002
vn 0.1458137 0.00524304 0.9892981
vn 0.14611 0.3877438 0.9101135
vn 0.05257656 0.9261429 0.3734905
vn 0.01881321 0.9997788 0.009393974
vn -0.06505918 0.7124832 -0.6986667
vn -0.1106259 -0.006055429 -0.9938437
vn -0.08865535 -0.720871 -0.6873755
vn -0.01535469 -0.9995673 0.02509304
vn 0.06489909 -0.6949292 0.7161435
vn 0.1077727 0.005876056 0.9941581
vn 0.1112192 0.3882653 0.9148117
vn 0.03823093 0.9263602 0.3746935
vn 0.0185707 0.9997817 0.009572448
vn -0.03799251 0.7121049 -0.7010444
vn -0.07225109 -0.006697987 -0.997364
vn -0.0621842 -0.7213939 -0.6897275
vn -0.01642807 -0.9995458 0.02526818
vn 0.03715205 -0.6944064 0.7186233
vn 0.06935652 0.006529124 0.9975706
vn 0.07593844 0.3887986 0.9181879
vn 0.02373759 0.9265813 0.3753448
vn 0.01826235 0.9997862 0.00970126
vn -0.01077143 0.7116869 -0.7024143
vn -0.03359029 -0.007366408 -0.9994086
vn -0.03548684 -0.7219069 -0.6910797
vn -0.01746508 -0.9995257 0.02536201
vn 0.009246483 -0.6938989 0.7200131
vn 0.03067569 0.007181702 0.9995036
vn 0.04038274 0.3893405 0.9202083
vn 0.009144305 0.9268046 0.3754326
vn 0.0178888 0.9997922 0.009770063
vn 0.01652445 0.7112435 -0.7027515
vn 0.005240232 -0.008023085 -0.999954
vn -0.008638148 -0.7223852 -0.6914369
vn -0.0184515 -0.999508 0.02536493
vn -0.01872994 -0.6934041 0.7203055
vn -0.008161314 0.007849017 0.9999358
vn 0.004636717 0.3898867 0.9208512
vn -0.005504005 0.9270286 0.3749501
vn 0.01746063 0.9997998 0.00978332
vn 0.04381261 0.7107715 -0.7020572
vn 0.04411774 -0.008691195 -0.9989885
vn 0.0182768 -0.7228473 -0.690766
vn -0.01938566 -0.999492 0.0252976
vn -0.04668808 -0.6929262 0.7194952
vn -0.04702422 0.008512505 0.9988574
vn -0.03117071 0.3904344 0.920103
vn -0.02016548 0.9272521 0.3738944
vn 0.0169822 0.9998084 0.009728933
vn 0.07101591 0.7102734 -0.7003345
vn 0.08292735 -0.009354419 -0.9965117
vn 0.04518466 -0.7232775 -0.6890777
vn -0.02025657 -0.9994784 0.02515117
vn -0.07454563 -0.692471 0.717584
vn -0.08580506 0.00917304 0.9962696
vn -0.06694211 0.39098 0.9179615
vn -0.03479258 0.9274734 0.3722671
vn 0.01646202 0.9998184 0.009604111
vn 0.09805585 0.7097525 -0.6975934
vn 0.1215505 -0.01000942 -0.9925348
vn 0.07200497 -0.7236747 -0.6863748
vn -0.02105777 -0.9994673 0.0249325
vn -0.1022153 -0.692041 0.7145848
vn -0.1243848 0.009826458 0.9921855
vn -0.1025683 0.3915197 0.9144354
vn -0.04934281 0.9276909 0.3700743
vn 0.01590575 0.9998292 0.009411228
vn 0.1248525 0.7092144 -0.6938491
vn 0.1598688 -0.01065198 -0.9870808
vn 0.09865846 -0.7240387 -0.6826673
vn -0.02178283 -0.9994587 0.02465256
vn -0.1296111 -0.691636 0.7105214
vn -0.1626458 0.01046905 0.986629
vn -0.1379397 0.3920501 0.9095435
vn -0.06377166 0.9279034 0.367326
vn 0.01532231 0.9998409 0.009145101
vn 0.1513349 0.70866 -0.6891291
vn 0.1977761 -0.01128067 -0.9801823
vn 0.1250721 -0.7243662 -0.6779754
vn -0.02242655 -0.9994528 0.02431407
vn -0.1566539 -0.6912619 0.7054194
vn -0.2004764 0.01109551 0.9796357
vn -0.1729519 0.3925681 0.9033149
vn -0.07803669 0.9281097 0.3640366
vn 0.01471725 0.9998528 0.008811451
vn 0.1774267 0.7080986 -0.6834589
vn 0.2351594 -0.01188523 -0.9718842
vn 0.1511725 -0.7246562 -0.6723245
vn -0.02298429 -0.9994494 0.02392961
vn -0.1832682 -0.6909166 0.699319
vn -0.2377736 0.01170514 0.9712501
vn -0.2075069 0.3930704 0.8957882
vn -0.09210005 0.9283082 0.3602242
vn 0.01409919 0.9998652 0.008408381
vn 0.2030626 0.7075286 -0.6768817
vn 0.2719156 -0.01247098 -0.9622403
vn 0.176886 -0.7249101 -0.6657453
vn -0.02345407 -0.9994485 0.02350587
vn -0.2093822 -0.6906057 0.6922592
vn -0.2744358 0.01228934 0.9615269
vn -0.2415101 0.3935537 0.8870109
vn -0.1059229 0.9284979 0.3559103
vn 0.01347265 0.9998777 0.0079407
vn 0.2281808 0.7069598 -0.6694336
vn 0.3079557 -0.01302501 -0.9513115
vn 0.2021515 -0.7251239 -0.658278
vn -0.02383284 -0.9994502 0.02305338
vn -0.2349303 -0.6903262 0.6842934
vn -0.310371 0.01285155 0.9505286
vn -0.2748758 0.3940148 0.8770379
vn -0.1194718 0.9286777 0.3511187
vn 0.01284433 0.9998901 0.007411161
vn 0.2527222 0.7063924 -0.6611665
vn 0.3431903 -0.01355283 -0.939168
vn 0.2269064 -0.7253021 -0.6499619
vn -0.0241213 -0.999454 0.02258119
vn -0.2598535 -0.6900821 0.6754724
vn -0.345494 0.01338252 0.9383255
vn -0.3075194 0.3944522 0.8659326
vn -0.1327171 0.9288468 0.3458757
vn 0.01222047 0.9999021 0.006821557
vn 0.2766418 0.7058308 -0.6521289
vn 0.3775485 -0.01404815 -0.9258832
vn 0.251099 -0.7254416 -0.6408462
vn -0.0243196 -0.99946 0.02209665
vn -0.2841019 -0.689873 0.6658537
vn -0.3797345 0.01388338 0.9249913
vn -0.3393763 0.394863 0.8537605
vn -0.1456304 0.9290041 0.3402108
vn 0.0116027 0.9999136 0.006179397
vn 0.2998883 0.7052833 -0.6423725
vn 0.4109599 -0.01450447 -0.9115379
vn 0.2746822 -0.7255435 -0.6309804
vn -0.02442863 -0.9994679 0.02161255
vn -0.3076316 -0.6896966 0.6555009
vn -0.4130248 0.01435459 0.9106066
vn -0.3703802 0.395246 0.8405946
vn -0.1581904 0.9291489 0.3341527
vn 0.01099618 0.9999245 0.005488324
vn 0.3224293 0.704748 -0.6319569
vn 0.4433689 -0.01492914 -0.8962149
vn 0.2976096 -0.7256118 -0.6204159
vn -0.02445278 -0.9994776 0.02113482
vn -0.3304047 -0.6895573 0.6444715
vn -0.4453127 0.01478603 0.895253
vn -0.4004782 0.3955991 0.8265098
vn -0.1703749 0.9292809 0.3277336
vn 0.01040329 0.9999346 0.004751797
vn 0.3442313 0.7042317 -0.6209368
vn 0.4747305 -0.01531398 -0.879998
vn 0.3198503 -0.7256455 -0.609208
vn -0.02439542 -0.9994885 0.02067454
vn -0.3523932 -0.6894487 0.6328346
vn -0.4765524 0.0151857 0.8790149
vn -0.4296283 0.3959211 0.8115824
vn -0.182169 0.9293995 0.3209844
vn 0.009827605 0.9999439 0.003976492
vn 0.3652709 0.7037359 -0.6093709
vn 0.5050049 -0.01566001 -0.8629744
vn 0.3413723 -0.7256458 -0.5974137
vn -0.02426021 -0.9995009 0.02023455
vn -0.3735727 -0.6893758 0.6206484
vn -0.506707 0.0155454 0.8619783
vn -0.4577911 0.3962106 0.7958922
vn -0.1935604 0.9295045 0.3139361
vn 0.009269753 0.999952 0.003165396
vn 0.3855333 0.7032613 -0.5973171
vn 0.53417 -0.01597123 -0.8452262
vn 0.3621549 -0.7256173 -0.5850841
vn -0.0240535 -0.9995141 0.01982568
vn -0.39393 -0.6893351 0.6079771
vn -0.5357523 0.01586588 0.8442261
vn -0.484943 0.3964674 0.7795151
vn -0.2045394 0.9295954 0.3066203
vn 0.008732229 0.9999592 0.002321269
vn 0.4050021 0.7028131 -0.5848308
vn 0.5622043 -0.01623685 -0.826839
vn 0.3821836 -0.7255542 -0.572282
vn -0.02377727 -0.9995281 0.01944762
vn -0.4134551 -0.6893263 0.5948817
vn -0.5636714 0.01615016 0.8258412
vn -0.5110644 0.3966913 0.7625282
vn -0.2150987 0.9296723 0.2990684
vn 0.008213072 0.9999651 0.001453938
vn 0.4236698 0.7023947 -0.5719665
vn 0.5890962 -0.01646325 -0.8078952
vn 0.401441 -0.7254663 -0.559056
vn -0.02344475 -0.9995424 0.01911482
vn -0.4321466 -0.6893435 0.5814247
vn -0.5904533 0.01639823 0.8069052
vn -0.536144 0.3968816 0.7450065
vn -0.2252367 0.9297353 0.2913087
vn 0.007714759 0.9999701 0.0005642913
vn 0.4415401 0.7020016 -0.5587809
vn 0.6148455 -0.0166566 -0.7884716
vn 0.4199234 -0.7253546 -0.5454586
vn -0.02305756 -0.999557 0.0188247
vn -0.4500032 -0.6893926 0.5676574
vn -0.6160967 0.01660195 0.7874956
vn -0.5601767 0.3970385 0.7270231
vn -0.2349532 0.9297842 0.2833696
vn 0.007238001 0.9999738 -0.0003476276
vn 0.4586138 0.7016386 -0.5453224
vn 0.639457 -0.01680642 -0.7686431
vn 0.4376344 -0.7252143 -0.5315452
vn -0.02261982 -0.9995714 0.01857951
vn -0.4670342 -0.6894683 0.5536357
vn -0.6406075 0.01677173 0.7676854
vn -0.5831678 0.3971625 0.7086446
vn -0.2442485 0.9298191 0.2752798
vn 0.00678008 0.9999762 -0.001273351
vn 0.4748978 0.7013067 -0.5316399
vn 0.6629394 -0.01691874 -0.7484819
vn 0.4545724 -0.7250523 -0.5173616
vn -0.02214077 -0.9995857 0.01838493
vn -0.4832489 -0.6895697 0.5394111
vn -0.6639947 0.01690221 0.7475463
vn -0.6051217 0.3972542 0.6899398
vn -0.2530296 0.9298481 0.2671305
vn 0.008051483 0.9999598 -0.003941257
vn 0.4925772 0.6982959 -0.5193751
vn 0.6858202 -0.01970219 -0.7275044
vn 0.4709736 -0.7248574 -0.5027581
vn -0.01997511 -0.9996631 0.01657373
vn -0.496868 -0.6919696 0.5237368
vn -0.6858566 0.01471137 0.7275881
vn -0.6257911 0.3973121 0.6712143
vn -0.7559251 0.2668486 -0.5978035
vn -0.6921895 0.3744206 -0.6169951
vn -0.5072561 0.2864972 -0.8127795
vn -0.4198165 0.04358026 -0.9065621
vn -0.4695617 -0.2188476 -0.8553464
vn -0.6321908 -0.3636576 -0.6841695
vn -0.8239096 -0.299006 -0.4814231
vn -0.9275148 -0.04636734 -0.3708994
vn -0.942696 0.2060499 -0.2624267
vn 0 0 0
vn 0 0 0
vn 0 0 0
vn 0 0 0
vn 0 0 0
vn 0 0 0
vn 0 0 0
vn 0 0 0
vn 0 0 0
vn 0 0 0
vn 0 0 0
vn 0 0 0
vn 0 0 0
vn 0 0 0
vn 0 0 0
vn 0 0 0
vn 0 0 0
vn 0 0 0
vn 0 0 0
vn 0 0 0
vn 0 0 0
vn 0 0 0
vn 0 0 0
vn 0 0 0
vn 0 0 0
vn 0 0 0
vn 0 0 0
vn 0 0 0
vn 0 0 0
vn 0 0 0
vn 0 0 0
vn 0 0 0
vn 0 0 0
vn 0 0 0
vn 0 0 0
vn 0 0 0
vn 0 0 0
vn 0 0 0
vn 0 0 0
vn 0 0 0
vn 0 0 0
vn 0 0 0
vn 0 0 0
vn 0 0 0
vn 0 0 0
vn 0 0 0
vn 0.7115523 -0.0002501256 -0.702633
vn -0.711754 0.000247893 -0.7024288

vt 0 0
vt 0 0.125
vt 0 0.25
vt 0 0.375
vt 0 0.5000001
vt 0 0.6250001
vt 0 0.7500001
vt 0 0.8750001
vt 0 1
vt 0.0222222 0
vt 0.0222222 0.125
vt 0.0222222 0.25
vt 0.0222222 0.375
vt 0.0222222 0.5000001
vt 0.0222222 0.6250001
vt 0.0222222 0.7500001
vt 0.0222222 0.8750001
vt 0.0222222 1
vt 0.0444444 0
vt 0.0444444 0.125
vt 0.0444444 0.25
vt 0.0444444 0.375
vt 0.0444444 0.5000001
vt 0.0444444 0.6250001
vt 0.0444444 0.7500001
vt 0.0444444 0.8750001
vt 0.0444444 1
vt 0.0666666 0
vt 0.0666666 0.125
vt 0.0666666 0.25
vt 0.0666666 0.375
vt 0.0666666 0.5000001
vt 0.0666666 0.6250001
vt 0.0666666 0.7500001
vt 0.0666666 0.8750001
vt 0.0666666 1
vt 0.0888888 0
vt 0.0888888 0.125
vt 0.0888888 0.25
vt 0.0888888 0.375
vt 0.0888888 0.5000001
vt 0.0888888 0.6250001
vt 0.0888888 0.7500001
vt 0.0888888 0.8750001
vt 0.0888888 1
vt 0.111111 0
vt 0.111111 0.125
vt 0.111111 0.25
vt 0.111111 0.375
vt 0.111111 0.5000001
vt 0.111111 0.6250001
vt 0.111111 0.7500001
vt 0.111111 0.8750001
vt 0.111111 1
vt 0.1333332 0
vt 0.1333332 0.125
vt 0.1333332 0.25
vt 0.1333332 0.375
vt 0.1333332 0.5000001
vt 0.1333332 0.6250001
vt 0.1333332 0.7500001
vt 0.1333332 0.8750001
vt 0.1333332 1
vt 0.1555554 0
vt 0.1555554 0.125
vt 0.1555554 0.25
vt 0.1555554 0.375
vt 0.1555554 0.5000001
vt 0.1555554 0.6250001
vt 0.1555554 0.7500001
vt 0.1555554 0.8750001
vt 0.1555554 1
vt 0.1777776 0
vt 0.1777776 0.125
vt 0.1777776 0.25
vt 0.1777776 0.375
vt 0.1777776 0.5000001
vt 0.1777776 0.6250001
vt 0.1777776 0.7500001
vt 0.1777776 0.8750001
vt 0.1777776 1
vt 0.1999998 0
vt 0.1999998 0.125
vt 0.1999998 0.25
vt 0.1999998 0.375
vt 0.1999998 0.5000001
vt 0.1999998 0.6250001
vt 0.1999998 0.7500001
vt 0.1999998 0.8750001
vt 0.1999998 1
vt 0.222222 0
vt 0.222222 0.125
vt 0.222222 0.25
vt 0.222222 0.375
vt 0.222222 0.5000001
vt 0.222222 0.6250001
vt 0.222222 0.7500001
vt 0.222222 0.8750001
vt 0.222222 1
vt 0.2444442 0
vt 0.2444442 0.125
vt 0.2444442 0.25
vt 0.2444442 0.375
vt 0.2444442 0.5000001
vt 0.2444442 0.6250001
vt 0.2444442 0.7500001
vt 0.2444442 0.8750001
vt 0.2444442 1
vt 0.2666664 0
vt 0.2666664 0.125
vt 0.2666664 0.25
vt 0.2666664 0.375
vt 0.2666664 0.5000001
vt 0.2666664 0.6250001
vt 0.2666664 0.7500001
vt 0.2666664 0.8750001
vt 0.2666664 1
vt 0.2888886 0
vt 0.2888886 0.125
vt 0.2888886 0.25
vt 0.2888886 0.375
vt 0.2888886 0.5000001
vt 0.2888886 0.6250001
vt 0.2888886 0.7500001
vt 0.2888886 0.8750001
vt 0.2888886 1
vt 0.3111108 0
vt 0.3111108 0.125
vt 0.3111108 0.25
vt 0.3111108 0.375
vt 0.3111108 0.5000001
vt 0.3111108 0.6250001
vt 0.3111108 0.7500001
vt 0.3111108 0.8750001
vt 0.3111108 1
vt 0.333333 0
vt 0.333333 0.125
vt 0.333333 0.25
vt 0.333333 0.375
vt 0.333333 0.5000001
vt 0.333333 0.6250001
vt 0.333333 0.7500001
vt 0.333333 0.8750001
vt 0.333333 1
vt 0.3555552 0
vt 0.3555552 0.125
vt 0.3555552 0.25
vt 0.3555552 0.375
vt 0.3555552 0.5000001
vt 0.3555552 0.6250001
vt 0.3555552 0.7500001
vt 0.3555552 0.8750001
vt 0.3555552 1
vt 0.3777774 0
vt 0.3777774 0.125
vt 0.3777774 0.25
vt 0.3777774 0.375
vt 0.3777774 0.5000001
vt 0.3777774 0.6250001
vt 0.3777774 0.7500001
vt 0.3777774 0.8750001
vt 0.3777774 1
vt 0.3999996 0
vt 0.3999996 0.125
vt 0.3999996 0.25
vt 0.3999996 0.375
vt 0.3999996 0.5000001
vt 0.3999996 0.6250001
vt 0.3999996 0.7500001
vt 0.3999996 0.8750001
vt 0.3999996 1
vt 0.4222218 0
vt 0.4222218 0.125
vt 0.4222218 0.25
vt 0.4222218 0.375
vt 0.4222218 0.5000001
vt 0.4222218 0.6250001
vt 0.4222218 0.7500001
vt 0.4222218 0.8750001
vt 0.4222218 1
vt 0.444444 0
vt 0.444444 0.125
vt 0.444444 0.25
vt 0.444444 0.375
vt 0.444444 0.5000001
vt 0.444444 0.6250001
vt 0.444444 0.7500001
vt 0.444444 0.8750001
vt 0.444444 1
vt 0.4666662 0
vt 0.4666662 0.125
vt 0.4666662 0.25
vt 0.4666662 0.375
vt 0.4666662 0.5000001
vt 0.4666662 0.6250001
vt 0.4666662 0.7500001
vt 0.4666662 0.8750001
vt 0.4666662 1
vt 0.4888884 0
vt 0.4888884 0.125
vt 0.4888884 0.25
vt 0.4888884 0.375
vt 0.4888884 0.5000001
vt 0.4888884 0.6250001
vt 0.4888884 0.7500001
vt 0.4888884 0.8750001
vt 0.4888884 1
vt 0.5111106 0
vt 0.5111106 0.125
vt 0.5111106 0.25
vt 0.5111106 0.375
vt 0.5111106 0.5000001
vt 0.5111106 0.6250001
vt 0.5111106 0.7500001
vt 0.5111106 0.8750001
vt 0.5111106 1
vt 0.5333328 0
vt 0.5333328 0.125
vt 0.5333328 0.25
vt 0.5333328 0.375
vt 0.5333328 0.5000001
vt 0.5333328 0.6250001
vt 0.5333328 0.7500001
vt 0.5333328 0.8750001
vt 0.5333328 1
vt 0.555555 0
vt 0.555555 0.125
vt 0.555555 0.25
vt 0.555555 0.375
vt 0.555555 0.5000001
vt 0.555555 0.6250001
vt 0.555555 0.7500001
vt 0.555555 0.8750001
vt 0.555555 1
vt 0.5777772 0
vt 0.5777772 0.125
vt 0.5777772 0.25
vt 0.5777772 0.375
vt 0.5777772 0.5000001
vt 0.5777772 0.6250001
vt 0.5777772 0.7500001
vt 0.5777772 0.8750001
vt 0.5777772 1
vt 0.5999994 0
vt 0.5999994 0.125
vt 0.5999994 0.25
vt 0.5999994 0.375
vt 0.5999994 0.5000001
vt 0.5999994 0.6250001
vt 0.5999994 0.7500001
vt 0.5999994 0.8750001
vt 0.5999994 1
vt 0.6222216 0
vt 0.6222216 0.125
vt 0.6222216 0.25
vt 0.6222216 0.375
vt 0.6222216 0.5000001
vt 0.6222216 0.6250001
vt 0.6222216 0.7500001
vt 0.6222216 0.8750001
vt 0.6222216 1
vt 0.6444438 0
vt 0.6444438 0.125
vt 0.6444438 0.25
vt 0.6444438 0.375
vt 0.6444438 0.5000001
vt 0.6444438 0.6250001
vt 0.6444438 0.7500001
vt 0.6444438 0.8750001
vt 0.6444438 1
vt 0.666666 0
vt 0.666666 0.125
vt 0.666666 0.25
vt 0.666666 0.375
vt 0.666666 0.5000001
vt 0.666666 0.6250001
vt 0.666666 0.7500001
vt 0.666666 0.8750001
vt 0.666666 1
vt 0.6888882 0
vt 0.6888882 0.125
vt 0.6888882 0.25
vt 0.6888882 0.375
vt 0.6888882 0.5000001
vt 0.6888882 0.6250001
vt 0.6888882 0.7500001
vt 0.6888882 0.8750001
vt 0.6888882 1
vt 0.7111104 0
vt 0.7111104 0.125
vt 0.7111104 0.25
vt 0.7111104 0.375
vt 0.7111104 0.5000001
vt 0.7111104 0.6250001
vt 0.7111104 0.7500001
vt 0.7111104 0.8750001
vt 0.7111104 1
vt 0.7333326 0
vt 0.7333326 0.125
vt 0.7333326 0.25
vt 0.7333326 0.375
vt 0.7333326 0.5000001
vt 0.7333326 0.6250001
vt 0.7333326 0.7500001
vt 0.7333326 0.8750001
vt 0.7333326 1
vt 0.7555548 0
vt 0.7555548 0.125
vt 0.7555548 0.25
vt 0.7555548 0.375
vt 0.7555548 0.5000001
vt 0.7555548 0.6250001
vt 0.7555548 0.7500001
vt 0.7555548 0.8750001
vt 0.7555548 1
vt 0.777777 0
vt 0.777777 0.125
vt 0.777777 0.25
vt 0.777777 0.375
vt 0.777777 0.5000001
vt 0.777777 0.6250001
vt 0.777777 0.7500001
vt 0.777777 0.8750001
vt 0.777777 1
vt 0.7999992 0
vt 0.7999992 0.125
vt 0.7999992 0.25
vt 0.7999992 0.375
vt 0.7999992 0.5000001
vt 0.7999992 0.6250001
vt 0.7999992 0.7500001
vt 0.7999992 0.8750001
vt 0.7999992 1
vt 0.8222214 0
vt 0.8222214 0.125
vt 0.8222214 0.25
vt 0.8222214 0.375
vt 0.8222214 0.5000001
vt 0.8222214 0.6250001
vt 0.8222214 0.7500001
vt 0.8222214 0.8750001
vt 0.8222214 1
vt 0.8444436 0
vt 0.8444436 0.125
vt 0.8444436 0.25
vt 0.8444436 0.375
vt 0.8444436 0.5000001
vt 0.8444436 0.6250001
vt 0.8444436 0.7500001
vt 0.8444436 0.8750001
vt 0.8444436 1
vt 0.8666658 0
vt 0.8666658 0.125
vt 0.8666658 0.25
vt 0.8666658 0.375
vt 0.8666658 0.5000001
vt 0.8666658 0.6250001
vt 0.8666658 0.7500001
vt 0.8666658 0.8750001
vt 0.8666658 1
vt 0.888888 0
vt 0.888888 0.125
vt 0.888888 0.25
vt 0.888888 0.375
vt 0.888888 0.5000001
vt 0.888888 0.6250001
vt 0.888888 0.7500001
vt 0.888888 0.8750001
vt 0.888888 1
vt 0.9111102 0
vt 0.9111102 0.125
vt 0.9111102 0.25
vt 0.9111102 0.375
vt 0.9111102 0.5000001
vt 0.9111102 0.6250001
vt 0.9111102 0.7500001
vt 0.9111102 0.8750001
vt 0.9111102 1
vt 0.9333324 0
vt 0.9333324 0.125
vt 0.9333324 0.25
vt 0.9333324 0.375
vt 0.9333324 0.5000001
vt 0.9333324 0.6250001
vt 0.9333324 0.7500001
vt 0.9333324 0.8750001
vt 0.9333324 1
vt 0.9555546 0
vt 0.9555546 0.125
vt 0.9555546 0.25
vt 0.9555546 0.375
vt 0.9555546 0.5000001
vt 0.9555546 0.6250001
vt 0.9555546 0.7500001
vt 0.9555546 0.8750001
vt 0.9555546 1
vt 0.9777768 0
vt 0.9777768 0.125
vt 0.9777768 0.25
vt 0.9777768 0.375
vt 0.9777768 0.5000001
vt 0.9777768 0.6250001
vt 0.9777768 0.7500001
vt 0.9777768 0.8750001
vt 0.9777768 1
vt 0.999999 0
vt 0.999999 0.125
vt 0.999999 0.25
vt 0.999999 0.375
vt 0.999999 0.5000001
vt 0.999999 0.6250001
vt 0.999999 0.7500001
vt 0.999999 0.8750001
vt 0.999999 1
vt 0 0
vt 0 0
vt 0 0
vt 0 0
vt 0 0
vt 0 0
vt 0 0
vt 0 0
vt 0 0
vt 0 0
vt 0 0
vt 0 0
vt 0 0
vt 0 0
vt 0 0
vt 0 0
vt 0 0
vt 0 0
vt 0 0
vt 0 0
vt 0 0
vt 0 0
vt 0 0
vt 0 0
vt 0 0
vt 0 0
vt 0 0
vt 0 0
vt 0 0
vt 0 0
vt 0 0
vt 0 0
vt 0 0
vt 0 0
vt 0 0
vt 0 0
vt 0 0
vt 0 0
vt 0 0
vt 0 0
vt 0 0
vt 0 0
vt 0 0
vt 0 0
vt 0 0
vt 0 0
vt 0 0
vt 0 0

usemtl TransparentPlastic
usemap TransparentPlastic
f 2/2/2 1/1/1 461/461/461
f 3/3/3 2/2/2 461/461/461
f 4/4/4 3/3/3 461/461/461
f 5/5/5 4/4/4 461/461/461
f 6/6/6 5/5/5 461/461/461
f 7/7/7 6/6/6 461/461/461
f 8/8/8 7/7/7 461/461/461
f 9/9/9 8/8/8 461/461/461
f 1/1/1 2/2/2 11/11/11
f 1/1/1 11/11/11 10/10/10
f 2/2/2 3/3/3 12/12/12
f 2/2/2 12/12/12 11/11/11
f 3/3/3 4/4/4 13/13/13
f 3/3/3 13/13/13 12/12/12
f 4/4/4 5/5/5 14/14/14
f 4/4/4 14/14/14 13/13/13
f 5/5/5 6/6/6 15/15/15
f 5/5/5 15/15/15 14/14/14
f 6/6/6 7/7/7 16/16/16
f 6/6/6 16/16/16 15/15/15
f 7/7/7 8/8/8 17/17/17
f 7/7/7 17/17/17 16/16/16
f 8/8/8 9/9/9 18/18/18
f 8/8/8 18/18/18 17/17/17
f 10/10/10 11/11/11 20/20/20
f 10/10/10 20/20/20 19/19/19
f 11/11/11 12/12/12 21/21/21
f 11/11/11 21/21/21 20/20/20
f 12/12/12 13/13/13 22/22/22
f 12/12/12 22/22/22 21/21/21
f 13/13/13 14/14/14 23/23/23
f 13/13/13 23/23/23 22/22/22
f 14/14/14 15/15/15 24/24/24
f 14/14/14 24/24/24 23/23/23
f 15/15/15 16/16/16 25/25/25
f 15/15/15 25/25/25 24/24/24
f 16/16/16 17/17/17 26/26/26
f 16/16/16 26/26/26 25/25/25
f 17/17/17 18/18/18 27/27/27
f 17/17/17 27/27/27 26/26/26
f 19/19/19 20/20/20 29/29/29
f 19/19/19 29/29/29 28/28/28
f 20/20/20 21/21/21 30/30/30
f 20/20/20 30/30/30 29/29/29
f 21/21/21 22/22/22 31/31/31
f 21/21/21 31/31/31 30/30/30
f 22/22/22 23/23/23 32/32/32
f 22/22/22 32/32/32 31/31/31
f 23/23/23 24/24/24 33/33/33
f 23/23/23 33/33/33 32/32/32
f 24/24/24 25/25/25 34/34/34
f 24/24/24 34/34/34 33/33/33
f 25/25/25 26/26/26 35/35/35
f 25/25/25 35/35/35 34/34/34
f 26/26/26 27/27/27 36/36/36
f 26/26/26 36/36/36 35/35/35
f 28/28/28 29/29/29 38/38/38
f 28/28/28 38/38/38 37/37/37
f 29/29/29 30/30/30 39/39/39
f 29/29/29 39/39/39 38/38/38
f 30/30/30 31/31/31 40/40/40
f 30/30/30 40/40/40 39/39/39
f 31/31/31 32/32/32 41/41/41
f 31/31/31 41/41/41 40/40/40
f 32/32/32 33/33/33 42/42/42
f 32/32/32 42/42/42 41/41/41
f 33/33/33 34/34/34 43/43/43
f 33/33/33 43/43/43 42/42/42
f 34/34/34 35/35/35 44/44/44
f 34/34/34 44/44/44 43/43/43
f 35/35/35 36/36/36 45/45/45
f 35/35/35 45/45/45 44/44/44
f 37/37/37 38/38/38 47/47/47
f 37/37/37 47/47/47 46/46/46
f 38/38/38 39/39/39 48/48/48
f 38/38/38 48/48/48 47/47/47
f 39/39/39 40/40/40 49/49/49
f 39/39/39 49/49/49 48/48/48
f 40/40/40 41/41/41 50/50/50
f 40/40/40 50/50/50 49/49/49
f 41/41/41 42/42/42 51/51/51
f 41/41/41 51/51/51 50/50/50
f 42/42/42 43/43/43 52/52/52
f 42/42/42 52/52/52 51/51/51
f 43/43/43 44/44/44 53/53/53
f 43/43/43 53/53/53 52/52/52
f 44/44/44 45/45/45 54/54/54
f 44/44/44 54/54/54 53/53/53
f 46/46/46 47/47/47 56/56/56
f 46/46/46 56/56/56 55/55/55
f 47/47/47 48/48/48 57/57/57
f 47/47/47 57/57/57 56/56/56
f 48/48/48 49/49/49 58/58/58
f 48/48/48 58/58/58 57/57/57
f 49/49/49 50/50/50 59/59/59
f 49/49/49 59/59/59 58/58/58
f 50/50/50 51/51/51 60/60/60
f 50/50/50 60/60/60 59/59/59
f 51/51/51 52/52/52 61/61/61
f 51/51/51 61/61/61 60/60/60
f 52/52/52 53/53/53 62/62/62
f 52/52/52 62/62/62 61/61/61
f 53/53/53 54/54/54 63/63/63
f 53/53/53 63/63/63 62/62/62
f 55/55/55 56/56/56 65/65/65
f 55/55/55 65/65/65 64/64/64
f 56/56/56 57/57/57 66/66/66
f 56/56/56 66/66/66 65/65/65
f 57/57/57 58/58/58 67/67/67
f 57/57/57 67/67/67 66/66/66
f 58/58/58 59/59/59 68/68/68
f 58/58/58 68/68/68 67/67/67
f 59/59/59 60/60/60 69/69/69
f 59/59/59 69/69/69 68/68/68
f 60/60/60 61/61/61 70/70/70
f 60/60/60 70/70/70 69/69/69
f 61/61/61 62/62/62 71/71/71
f 61/61/61 71/71/71 70/70/70
f 62/62/62 63/63/63 72/72/72
f 62/62/62 72/72/72 71/71/71
f 64/64/64 65/65/65 74/74/74
f 64/64/64 74/74/74 73/73/73
f 65/65/65 66/66/66 75/75/75
f 65/65/65 75/75/75 74/74/74
f 66/66/66 67/67/67 76/76/76
f 66/66/66 76/76/76 75/75/75
f 67/67/67 68/68/68 77/77/77
f 67/67/67 77/77/77 76/76/76
f 68/68/68 69/69/69 78/78/78
f 68/68/68 78/78/78 77/77/77
f 69/69/69 70/70/70 79/79/79
f 69/69/69 79/79/79 78/78/78
f 70/70/70 71/71/71 80/80/80
f 70/70/70 80/80/80 79/79/79
f 71/71/71 72/72/72 81/81/81
f 71/71/71 81/81/81 80/80/80
f 73/73/73 74/74/74 83/83/83
f 73/73/73 83/83/83 82/82/82
f 74/74/74 75/75/75 84/84/84
f 74/74/74 84/84/84 83/83/83
f 75/75/75 76/76/76 85/85/85
f 75/75/75 85/85/85 84/84/84
f 76/76/76 77/77/77 86/86/86
f 76/76/76 86/86/86 85/85/85
f 77/77/77 78/78/78 87/87/87
f 77/77/77 87/87/87 86/86/86
f 78/78/78 79/79/79 88/88/88
f 78/78/78 88/88/88 87/87/87
f 79/79/79 80/80/80 89/89/89
f 79/79/79 89/89/89 88/88/88
f 80/80/80 81/81/81 90/90/90
f 80/80/80 90/90/90 89/89/89
f 82/82/82 83/83/83 92/92/92
f 82/82/82 92/92/92 91/91/91
f 83/83/83 84/84/84 93/93/93
f 83/83/83 93/93/93 92/92/92
f 84/84/84 85/85/85 94/94/94
f 84/84/84 94/94/94 93/93/93
f 85/85/85 86/86/86 95/95/95
f 85/85/85 95/95/95 94/94/94
f 86/86/86 87/87/87 96/96/96
f 86/86/86 96/96/96 95/95/95
f 87/87/87 88/88/88 97/97/97
f 87/87/87 97/97/97 96/96/96
f 88/88/88 89/89/89 98/98/98
f 88/88/88 98/98/98 97/97/97
f 89/89/89 90/90/90 99/99/99
f 89/89/89 99/99/99 98/98/98
f 91/91/91 92/92/92 101/101/101
f 91/91/91 101/101/101 100/100/100
f 92/92/92 93/93/93 102/102/102
f 92/92/92 102/102/102 101/101/101
f 93/93/93 94/94/94 103/103/103
f 93/93/93 103/103/103 102/102/102
f 94/94/94 95/95/95 104/104/104
f 94/94/94 104/104/104 103/103/103
f 95/95/95 96/96/96 105/105/105
f 95/95/95 105/105/105 104/104/104
f 96/96/96 97/97/97 106/106/106
f 96/96/96 106/106/106 105/105/105
f 97/97/97 98/98/98 107/107/107
f 97/97/97 107/107/107 106/106/106
f 98/98/98 99/99/99 108/108/108
f 98/98/98 108/108/108 107/107/107
f 100/100/100 101/101/101 110/110/110
f 100/100/100 110/110/110 109/109/109
f 101/101/101 102/102/102 111/111/111
f 101/101/101 111/111/111 110/110/110
f 102/102/102 103/103/103 112/112/112
f 102/102/102 112/112/112 111/111/111
f 103/103/103 104/104/104 113/113/113
f 103/103/103 113/113/113 112/112/112
f 104/104/104 105/105/105 114/114/114
f 104/104/104 114/114/114 113/113/113
f 105/105/105 106/106/106 115/115/115
f 105/105/105 115/115/115 114/114/114
f 106/106/106 107/107/107 116/116/116
f 106/106/106 116/116/116 115/115/115
f 107/107/107 108/108/108 117/117/117
f 107/107/107 117/117/117 116/116/116
f 109/109/109 110/110/110 119/119/119
f 109/109/109 119/119/119 118/118/118
f 110/110/110 111/111/111 120/120/120
f 110/110/110 120/120/120 119/119/119
f 111/111/111 112/112/112 121/121/121
f 111/111/111 121/121/121 120/120/120
f 112/112/112 113/113/113 122/122/122
f 112/112/112 122/122/122 121/121/121
f 113/113/113 114/114/114 123/123/123
f 113/113/113 123/123/123 122/122/122
f 114/114/114 115/115/115 124/124/124
f 114/114/114 124/124/124 123/123/123
f 115/115/115 116/116/116 125/125/125
f 115/115/115 125/125/125 124/124/124
f 116/116/116 117/117/117 126/126/126
f 116/116/116 126/126/126 125/125/125
f 118/118/118 119/119/119 128/128/128
f 118/118/118 128/128/128 127/127/127
f 119/119/119 120/120/120 129/129/129
f 119/119/119 129/129/129 128/128/128
f 120/120/120 121/121/121 130/130/130
f 120/120/120 130/130/130 129/129/129
f 121/121/121 122/122/122 131/131/131
f 121/121/121 131/131/131 130/130/130
f 122/122/122 123/123/123 132/132/132
f 122/122/122 132/132/132 131/131/131
f 123/123/123 124/124/124 133/133/133
f 123/123/123 133/133/133 132/132/132
f 124/124/124 125/125/125 134/134/134
f 124/124/124 134/134/134 133/133/133
f 125/125/125 126/126/126 135/135/135
f 125/125/125 135/135/135 134/134/134
f 127/127/127 128/128/128 137/137/137
f 127/127/127 137/137/137 136/136/136
f 128/128/128 129/129/129 138/138/138
f 128/128/128 138/138/138 137/137/137
f 129/129/129 130/130/130 139/139/139
f 129/129/129 139/139/139 138/138/138
f 130/130/130 131/131/131 140/140/140
f 130/130/130 140/140/140 139/139/139
f 131/131/131 132/132/132 141/141/141
f 131/131/131 141/141/141 140/140/140
f 132/132/132 133/133/133 142/142/142
f 132/132/132 142/142/142 141/141/141
f 133/133/133 134/134/134 143/143/143
f 133/133/133 143/143/143 142/142/142
f 134/134/134 135/135/135 144/144/144
f 134/134/134 144/144/144 143/143/143
f 136/136/136 137/137/137 146/146/146
f 136/136/136 146/146/146 145/145/145
f 137/137/137 138/138/138 147/147/147
f 137/137/137 147/147/147 146/146/146
f 138/138/138 139/139/139 148/148/148
f 138/138/138 148/148/148 147/147/147
f 139/139/139 140/140/140 149/149/149
f 139/139/139 149/149/149 148/148/148
f 140/140/140 141/141/141 150/150/150
f 140/140/140 150/150/150 149/149/149
f 141/141/141 142/142/142 151/151/151
f 141/141/141 151/151/151 150/150/150
f 142/142/142 143/143/143 152/152/152
f 142/142/142 152/152/152 151/151/151
f 143/143/143 144/144/144 153/153/153
f 143/143/143 153/153/153 152/152/152
f 145/145/145 146/146/146 155/155/155
f 145/145/145 155/155/155 154/154/154
f 146/146/146 147/147/147 156/156/156
f 146/146/146 156/156/156 155/155/155
f 147/147/147 148/148/148 157/157/157
f 147/147/147 157/157/157 156/156/156
f 148/148/148 149/149/149 158/158/158
f 148/148/148 158/158/158 157/157/157
f 149/149/149 150/150/150 159/159/159
f 149/149/149 159/159/159 158/158/158
f 150/150/150 151/151/151 160/160/160
f 150/150/150 160/160/160 159/159/159
f 151/151/151 152/152/152 161/161/161
f 151/151/151 161/161/161 160/160/160
f 152/152/152 153/153/153 162/162/162
f 152/152/152 162/162/162 161/161/161
f 154/154/154 155/155/155 164/164/164
f 154/154/154 164/164/164 163/163/163
f 155/155/155 156/156/156 165/165/165
f 155/155/155 165/165/165 164/164/164
f 156/156/156 157/157/157 166/166/166
f 156/156/156 166/166/166 165/165/165
f 157/157/157 158/158/158 167/167/167
f 157/157/157 167/167/167 166/166/166
f 158/158/158 159/159/159 168/168/168
f 158/158/158 168/168/168 167/167/167
f 159/159/159 160/160/160 169/169/169
f 159/159/159 169/169/169 168/168/168
f 160/160/160 161/161/161 170/170/170
f 160/160/160 170/170/170 169/169/169
f 161/161/161 162/162/162 171/171/171
f 161/161/161 171/171/171 170/170/170
f 163/163/163 164/164/164 173/173/173
f 163/163/163 173/173/173 172/172/172
f 164/164/164 165/165/165 174/174/174
f 164/164/164 174/174/174 173/173/173
f 165/165/165 166/166/166 175/175/175
f 165/165/165 175/175/175 174/174/174
f 166/166/166 167/167/167 176/176/176
f 166/166/166 176/176/176 175/175/175
f 167/167/167 168/168/168 177/177/177
f 167/167/167 177/177/177 176/176/176
f 168/168/168 169/169/169 178/178/178
f 168/168/168 178/178/178 177/177/177
f 169/169/169 170/170/170 179/179/179
f 169/169/169 179/179/179 178/178/178
f 170/170/170 171/171/171 180/180/180
f 170/170/170 180/180/180 179/179/179
f 172/172/172 173/173/173 182/182/182
f 172/172/172 182/182/182 181/181/181
f 173/173/173 174/174/174 183/183/183
f 173/173/173 183/183/183 182/182/182
f 174/174/174 175/175/175 184/184/184
f 174/174/174 184/184/184 183/183/183
f 175/175/175 176/176/176 185/185/185
f 175/175/175 185/185/185 184/184/184
f 176/176/176 177/177/177 186/186/186
f 176/176/176 186/186/186 185/185/185
f 177/177/177 178/178/178 187/187/187
f 177/177/177 187/187/187 186/186/186
f 178/178/178 179/179/179 188/188/188
f 178/178/178 188/188/188 187/187/187
f 179/179/179 180/180/180 189/189/189
f 179/179/179 189/189/189 188/188/188
f 181/181/181 182/182/182 191/191/191
f 181/181/181 191/191/191 190/190/190
f 182/182/182 183/183/183 192/192/192
f 182/182/182 192/192/192 191/191/191
f 183/183/183 184/184/184 193/193/193
f 183/183/183 193/193/193 192/192/192
f 184/184/184 185/185/185 194/194/194
f 184/184/184 194/194/194 193/193/193
f 185/185/185 186/186/186 195/195/195
f 185/185/185 195/195/195 194/194/194
f 186/186/186 187/187/187 196/196/196
f 186/186/186 196/196/196 195/195/195
f 187/187/187 188/188/188 197/197/197
f 187/187/187 197/197/197 196/196/196
f 188/188/188 189/189/189 198/198/198
f 188/188/188 198/198/198 197/197/197
f 190/190/190 191/191/191 200/200/200
f 190/190/190 200/200/200 199/199/199
f 191/191/191 192/192/192 201/201/201
f 191/191/191 201/201/201 200/200/200
f 192/192/192 193/193/193 202/202/202
f 192/192/192 202/202/202 201/201/201
f 193/193/193 194/194/194 203/203/203
f 193/193/193 203/203/203 202/202/202
f 194/194/194 195/195/195 204/204/204
f 194/194/194 204/204/204 203/203/203
f 195/195/195 196/196/196 205/205/205
f 195/195/195 205/205/205 204/204/204
f 196/196/196 197/197/197 206/206/206
f 196/196/196 206/206/206 205/205/205
f 197/197/197 198/198/198 207/207/207
f 197/197/197 207/207/207 206/206/206
f 199/199/199 200/200/200 209/209/209
f 199/199/199 209/209/209 208/208/208
f 200/200/200 201/201/201 210/210/210
f 200/200/200 210/210/210 209/209/209
f 201/201/201 202/202/202 211/211/211
f 201/201/201 211/211/211 210/210/210
f 202/202/202 203/203/203 212/212/212
f 202/202/202 212/212/212 211/211/211
f 203/203/203 204/204/204 213/213/213
f 203/203/203 213/213/213 212/212/212
f 204/204/204 205/205/205 214/214/214
f 204/204/204 214/214/214 213/213/213
f 205/205/205 206/206/206 215/215/215
f 205/205/205 215/215/215 214/214/214
f 206/206/206 207/207/207 216/216/216
f 206/206/206 216/216/216 215/215/215
f 208/208/208 209/209/209 218/218/218
f 208/208/208 218/218/218 217/217/217
f 209/209/209 210/210/210 219/219/219
f 209/209/209 219/219/219 218/218/218
f 210/210/210 211/211/211 220/220/220
f 210/210/210 220/220/220 219/219/219
f 211/211/211 212/212/212 221/221/221
f 211/211/211 221/221/221 220/220/220
f 212/212/212 213/213/213 222/222/222
f 212/212/212 222/222/222 221/221/221
f 213/213/213 214/214/214 223/223/223
f 213/213/213 223/223/223 222/222/222
f 214/214/214 215/215/215 224/224/224
f 214/214/214 224/224/224 223/223/223
f 215/215/215 216/216/216 225/225/225
f 215/215/215 225/225/225 224/224/224
f 217/217/217 218/218/218 227/227/227
f 217/217/217 227/227/227 226/226/226
f 218/218/218 219/219/219 228/228/228
f 218/218/218 228/228/228 227/227/227
f 219/219/219 220/220/220 229/229/229
f 219/219/219 229/229/229 228/228/228
f 220/220/220 221/221/221 230/230/230
f 220/220/220 230/230/230 229/229/229
f 221/221/221 222/222/222 231/231/231
f 221/221/221 231/231/231 230/230/230
f 222/222/222 223/223/223 232/232/232
f 222/222/222 232/232/232 231/231/231
f 223/223/223 224/224/224 233/233/233
f 223/223/223 233/233/233 232/232/232
f 224/224/224 225/225/225 234/234/234
f 224/224/224 234/234/234 233/233/233
f 226/226/226 227/227/227 236/236/236
f 226/226/226 236/236/236 235/235/235
f 227/227/227 228/228/228 237/237/237
f 227/227/227 237/237/237 236/236/236
f 228/228/228 229/229/229 238/238/238
f 228/228/228 238/238/238 237/237/237
f 229/229/229 230/230/230 239/239/239
f 229/229/229 239/239/239 238/238/238
f 230/230/230 231/231/231 240/240/240
f 230/230/230 240/240/240 239/239/239
f 231/231/231 232/232/232 241/241/241
f 231/231/231 241/241/241 240/240/240
f 232/232/232 233/233/233 242/242/242
f 232/232/232 242/242/242 241/241/241
f 233/233/233 234/234/234 243/243/243
f 233/233/233 243/243/243 242/242/242
f 235/235/235 236/236/236 245/245/245
f 235/235/235 245/245/245 244/244/244
f 236/236/236 237/237/237 246/246/246
f 236/236/236 246/246/246 245/245/245
f 237/237/237 238/238/238 247/247/247
f 237/237/237 247/247/247 246/246/246
f 238/238/238 239/239/239 248/248/248
f 238/238/238 248/248/248 247/247/247
f 239/239/239 240/240/240 249/249/249
f 239/239/239 249/249/249 248/248/248
f 240/240/240 241/241/241 250/250/250
f 240/240/240 250/250/250 249/249/249
f 241/241/241 242/242/242 251/251/251
f 241/241/241 251/251/251 250/250/250
f 242/242/242 243/243/243 252/252/252
f 242/242/242 252/252/252 251/251/251
f 244/244/244 245/245/245 254/254/254
f 244/244/244 254/254/254 253/253/253
f 245/245/245 246/246/246 255/255/255
f 245/245/245 255/255/255 254/254/254
f 246/246/246 247/247/247 256/256/256
f 246/246/246 256/256/256 255/255/255
f 247/247/247 248/248/248 257/257/257
f 247/247/247 257/257/257 256/256/256
f 248/248/248 249/249/249 258/258/258
f 248/248/248 258/258/258 257/257/257
f 249/249/249 250/250/250 259/259/259
f 249/249/249 259/259/259 258/258/258
f 250/250/250 251/251/251 260/260/260
f 250/250/250 260/260/260 259/259/259
f 251/251/251 252/252/252 261/261/261
f 251/251/251 261/261/261 260/260/260
f 253/253/253 254/254/254 263/263/263
f 253/253/253 263/263/263 262/262/262
f 254/254/254 255/255/255 264/264/264
f 254/254/254 264/264/264 263/263/263
f 255/255/255 256/256/256 265/265/265
f 255/255/255 265/265/265 264/264/264
f 256/256/256 257/257/257 266/266/266
f 256/256/256 266/266/266 265/265/265
f 257/257/257 258/258/258 267/267/267
f 257/257/257 267/267/267 266/266/266
f 258/258/258 259/259/259 268/268/268
f 258/258/258 268/268/268 267/267/267
f 259/259/259 260/260/260 269/269/269
f 259/259/259 269/269/269 268/268/268
f 260/260/260 261/261/261 270/270/270
f 260/260/260 270/270/270 269/269/269
f 262/262/262 263/263/263 272/272/272
f 262/262/262 272/272/272 271/271/271
f 263/263/263 264/264/264 273/273/273
f 263/263/263 273/273/273 272/272/272
f 264/264/264 265/265/265 274/274/274
f 264/264/264 274/274/274 273/273/273
f 265/265/265 266/266/266 275/275/275
f 265/265/265 275/275/275 274/274/274
f 266/266/266 267/267/267 276/276/276
f 266/266/266 276/276/276 275/275/275
f 267/267/267 268/268/268 277/277/277
f 267/267/267 277/277/277 276/276/276
f 268/268/268 269/269/269 278/278/278
f 268/268/268 278/278/278 277/277/277
f 269/269/269 270/270/270 279/279/279
f 269/269/269 279/279/279 278/278/278
f 271/271/271 272/272/272 281/281/281
f 271/271/271 281/281/281 280/280/280
f 272/272/272 273/273/273 282/282/282
f 272/272/272 282/282/282 281/281/281
f 273/273/273 274/274/274 283/283/283
f 273/273/273 283/283/283 282/282/282
f 274/274/274 275/275/275 284/284/284
f 274/274/274 284/284/284 283/283/283
f 275/275/275 276/276/276 285/285/285
f 275/275/275 285/285/285 284/284/284
f 276/276/276 277/277/277 286/286/286
f 276/276/276 286/286/286 285/285/285
f 277/277/277 278/278/278 287/287/287
f 277/277/277 287/287/287 286/286/286
f 278/278/278 279/279/279 288/288/288
f 278/278/278 288/288/288 287/287/287
f 280/280/280 281/281/281 290/290/290
f 280/280/280 290/290/290 289/289/289
f 281/281/281 282/282/282 291/291/291
f 281/281/281 291/291/291 290/290/290
f 282/282/282 283/283/283 292/292/292
f 282/282/282 292/292/292 291/291/291
f 283/283/283 284/284/284 293/293/293
f 283/283/283 293/293/293 292/292/292
f 284/284/284 285/285/285 294/294/294
f 284/284/284 294/294/294 293/293/293
f 285/285/285 286/286/286 295/295/295
f 285/285/285 295/295/295 294/294/294
f 286/286/286 287/287/287 296/296/296
f 286/286/286 296/296/296 295/295/295
f 287/287/287 288/288/288 297/297/297
f 287/287/287 297/297/297 296/296/296
f 289/289/289 290/290/290 299/299/299
f 289/289/289 299/299/299 298/298/298
f 290/290/290 291/291/291 300/300/300
f 290/290/290 300/300/300 299/299/299
f 291/291/291 292/292/292 301/301/301
f 291/291/291 301/301/301 300/300/300
f 292/292/292 293/293/293 302/302/302
f 292/292/292 302/302/302 301/301/301
f 293/293/293 294/294/294 303/303/303
f 293/293/293 303/303/303 302/302/302
f 294/294/294 295/295/295 304/304/304
f 294/294/294 304/304/304 303/303/303
f 295/295/295 296/296/296 305/305/305
f 295/295/295 305/305/305 304/304/304
f 296/296/296 297/297/297 306/306/306
f 296/296/296 306/306/306 305/305/305
f 298/298/298 299/299/299 308/308/308
f 298/298/298 308/308/308 307/307/307
f 299/299/299 300/300/300 309/309/309
f 299/299/299 309/309/309 308/308/308
f 300/300/300 301/301/301 310/310/310
f 300/300/300 310/310/310 309/309/309
f 301/301/301 302/302/302 311/311/311
f 301/301/301 311/311/311 310/310/310
f 302/302/302 303/303/303 312/312/312
f 302/302/302 312/312/312 311/311/311
f 303/303/303 304/304/304 313/313/313
f 303/303/303 313/313/313 312/312/312
f 304/304/304 305/305/305 314/314/314
f 304/304/304 314/314/314 313/313/313
f 305/305/305 306/306/306 315/315/315
f 305/305/305 315/315/315 314/314/314
f 307/307/307 308/308/308 317/317/317
f 307/307/307 317/317/317 316/316/316
f 308/308/308 309/309/309 318/318/318
f 308/308/308 318/318/318 317/317/317
f 309/309/309 310/310/310 319/319/319
f 309/309/309 319/319/319 318/318/318
f 310/310/310 311/311/311 320/320/320
f 310/310/310 320/320/320 319/319/319
f 311/311/311 312/312/312 321/321/321
f 311/311/311 321/321/321 320/320/320
f 312/312/312 313/313/313 322/322/322
f 312/312/312 322/322/322 321/321/321
f 313/313/313 314/314/314 323/323/323
f 313/313/313 323/323/323 322/322/322
f 314/314/314 315/315/315 324/324/324
f 314/314/314 324/324/324 323/323/323
f 316/316/316 317/317/317 326/326/326
f 316/316/316 326/326/326 325/325/325
f 317/317/317 318/318/318 327/327/327
f 317/317/317 327/327/327 326/326/326
f 318/318/318 319/319/319 328/328/328
f 318/318/318 328/328/328 327/327/327
f 319/319/319 320/320/320 329/329/329
f 319/319/319 329/329/329 328/328/328
f 320/320/320 321/321/321 330/330/330
f 320/320/320 330/330/330 329/329/329
f 321/321/321 322/322/322 331/331/331
f 321/321/321 331/331/331 330/330/330
f 322/322/322 323/323/323 332/332/332
f 322/322/322 332/332/332 331/331/331
f 323/323/323 324/324/324 333/333/333
f 323/323/323 333/333/333 332/332/332
f 325/325/325 326/326/326 335/335/335
f 325/325/325 335/335/335 334/334/334
f 326/326/326 327/327/327 336/336/336
f 326/326/326 336/336/336 335/335/335
f 327/327/327 328/328/328 337/337/337
f 327/327/327 337/337/337 336/336/336
f 328/328/328 329/329/329 338/338/338
f 328/328/328 338/338/338 337/337/337
f 329/329/329 330/330/330 339/339/339
f 329/329/329 339/339/339 338/338/338
f 330/330/330 331/331/331 340/340/340
f 330/330/330 340/340/340 339/339/339
f 331/331/331 332/332/332 341/341/341
f 331/331/331 341/341/341 340/340/340
f 332/332/332 333/333/333 342/342/342
f 332/332/332 342/342/342 341/341/341
f 334/334/334 335/335/335 344/344/344
f 334/334/334 344/344/344 343/343/343
f 335/335/335 336/336/336 345/345/345
f 335/335/335 345/345/345 344/344/344
f 336/336/336 337/337/337 346/346/346
f 336/336/336 346/346/346 345/345/345
f 337/337/337 338/338/338 347/347/347
f 337/337/337 347/347/347 346/346/346
f 338/338/338 339/339/339 348/348/348
f 338/338/338 348/348/348 347/347/347
f 339/339/339 340/340/340 349/349/349
f 339/339/339 349/349/349 348/348/348
f 340/340/340 341/341/341 350/350/350
f 340/340/340 350/350/350 349/349/349
f 341/341/341 342/342/342 351/351/351
f 341/341/341 351/351/351 350/350/350
f 343/343/343 344/344/344 353/353/353
f 343/343/343 353/353/353 352/352/352
f 344/344/344 345/345/345 354/354/354
f 344/344/344 354/354/354 353/353/353
f 345/345/345 346/346/346 355/355/355
f 345/345/345 355/355/355 354/354/354
f 346/346/346 347/347/347 356/356/356
f 346/346/346 356/356/356 355/355/355
f 347/347/347 348/348/348 357/357/357
f 347/347/347 357/357/357 356/356/356
f 348/348/348 349/349/349 358/358/358
f 348/348/348 358/358/358 357/357/357
f 349/349/349 350/350/350 359/359/359
f 349/349/349 359/359/359 358/358/358
f 350/350/350 351/351/351 360/360/360
f 350/350/350 360/360/360 359/359/359
f 352/352/352 353/353/353 362/362/362
f 352/352/352 362/362/362 361/361/361
f 353/353/353 354/354/354 363/363/363
f 353/353/353 363/363/363 362/362/362
f 354/354/354 355/355/355 364/364/364
f 354/354/354 364/364/364 363/363/363
f 355/355/355 356/356/356 365/365/365
f 355/355/355 365/365/365 364/364/364
f 356/356/356 357/357/357 366/366/366
f 356/356/356 366/366/366 365/365/365
f 357/357/357 358/358/358 367/367/367
f 357/357/357 367/367/367 366/366/366
f 358/358/358 359/359/359 368/368/368
f 358/358/358 368/368/368 367/367/367
f 359/359/359 360/360/360 369/369/369
f 359/359/359 369/369/369 368/368/368
f 361/361/361 362/362/362 371/371/371
f 361/361/361 371/371/371 370/370/370
f 362/362/362 363/363/363 372/372/372
f 362/362/362 372/372/372 371/371/371
f 363/363/363 364/364/364 373/373/373
f 363/363/363 373/373/373 372/372/372
f 364/364/364 365/365/365 374/374/374
f 364/364/364 374/374/374 373/373/373
f 365/365/365 366/366/366 375/375/375
f 365/365/365 375/375/375 374/374/374
f 366/366/366 367/367/367 376/376/376
f 366/366/366 376/376/376 375/375/375
f 367/367/367 368/368/368 377/377/377
f 367/367/367 377/377/377 376/376/376
f 368/368/368 369/369/369 378/378/378
f 368/368/368 378/378/378 377/377/377
f 370/370/370 371/371/371 380/380/380
f 370/370/370 380/380/380 379/379/379
f 371/371/371 372/372/372 381/381/381
f 371/371/371 381/381/381 380/380/380
f 372/372/372 373/373/373 382/382/382
f 372/372/372 382/382/382 381/381/381
f 373/373/373 374/374/374 383/383/383
f 373/373/373 383/383/383 382/382/382
f 374/374/374 375/375/375 384/384/384
f 374/374/374 384/384/384 383/383/383
f 375/375/375 376/376/376 385/385/385
f 375/375/375 385/385/385 384/384/384
f 376/376/376 377/377/377 386/386/386
f 376/376/376 386/386/386 385/385/385
f 377/377/377 378/378/378 387/387/387
f 377/377/377 387/387/387 386/386/386
f 379/379/379 380/380/380 389/389/389
f 379/379/379 389/389/389 388/388/388
f 380/380/380 381/381/381 390/390/390
f 380/380/380 390/390/390 389/389/389
f 381/381/381 382/382/382 391/391/391
f 381/381/381 391/391/391 390/390/390
f 382/382/382 383/383/383 392/392/392
f 382/382/382 392/392/392 391/391/391
f 383/383/383 384/384/384 393/393/393
f 383/383/383 393/393/393 392/392/392
f 384/384/384 385/385/385 394/394/394
f 384/384/384 394/394/394 393/393/393
f 385/385/385 386/386/386 395/395/395
f 385/385/385 395/395/395 394/394/394
f 386/386/386 387/387/387 396/396/396
f 386/386/386 396/396/396 395/395/395
f 388/388/388 389/389/389 398/398/398
f 388/388/388 398/398/398 397/397/397
f 389/389/389 390/390/390 399/399/399
f 389/389/389 399/399/399 398/398/398
f 390/390/390 391/391/391 400/400/400
f 390/390/390 400/400/400 399/399/399
f 391/391/391 392/392/392 401/401/401
f 391/391/391 401/401/401 400/400/400
f 392/392/392 393/393/393 402/402/402
f 392/392/392 402/402/402 401/401/401
f 393/393/393 394/394/394 403/403/403
f 393/393/393 403/403/403 402/402/402
f 394/394/394 395/395/395 404/404/404
f 394/394/394 404/404/404 403/403/403
f 395/395/395 396/396/396 405/405/405
f 395/395/395 405/405/405 404/404/404
f 397/397/397 398/398/398 407/407/407
f 397/397/397 407/407/407 406/406/406
f 398/398/398 399/399/399 408/408/408
f 398/398/398 408/408/408 407/407/407
f 399/399/399 400/400/400 409/409/409
f 399/399/399 409/409/409 408/408/408
f 400/400/400 401/401/401 410/410/410
f 400/400/400 410/410/410 409/409/409
f 401/401/401 402/402/402 411/411/411
f 401/401/401 411/411/411 410/410/410
f 402/402/402 403/403/403 412/412/412
f 402/402/402 412/412/412 411/411/411
f 403/403/403 404/404/404 413/413/413
f 403/403/403 413/413/413 412/412/412
f 404/404/404 405/405/405 414/414/414
f 404/404/404 414/414/414 413/413/413
f 406/406/406 407/407/407 462/462/462
f 407/407/407 408/408/408 462/462/462
f 408/408/408 409/409/409 462/462/462
f 409/409/409 410/410/410 462/462/462
f 410/410/410 411/411/411 462/462/462
f 411/411/411 412/412/412 462/462/462
f 412/412/412 413/413/413 462/462/462
f 413/413/413 414/414/414 462/462/462
f 1/1/1 1/1/1 1/1/1
f 1/1/1 1/1/1 1/1/1
f 1/1/1 1/1/1 1/1/1
f 1/1/1 1/1/1 1/1/1
f 1/1/1 1/1/1 1/1/1
f 1/1/1 1/1/1 1/1/1
f 1/1/1 1/1/1 1/1/1
f 1/1/1 1/1/1 1/1/1
f 1/1/1 1/1/1 1/1/1
f 1/1/1 1/1/1 1/1/1
f 1/1/1 1/1/1 1/1/1
f 1/1/1 1/1/1 1/1/1
f 1/1/1 1/1/1 1/1/1
f 1/1/1 1/1/1 1/1/1
f 1/1/1 1/1/1 1/1/1
f 1/1/1 1/1/1 1/1/1
f 1/1/1 1/1/1 1/1/1
f 1/1/1 1/1/1 1/1/1
f 1/1/1 1/1/1 1/1/1
f 1/1/1 1/1/1 1/1/1
f 1/1/1 1/1/1 1/1/1
f 1/1/1 1/1/1 1/1/1
f 1/1/1 1/1/1 1/1/1
f 1/1/1 1/1/1 1/1/1
f 1/1/1 1/1/1 1/1/1
f 1/1/1 1/1/1 1/1/1
f 1/1/1 1/1/1 1/1/1
f 1/1/1 1/1/1 1/1/1
f 1/1/1 1/1/1 1/1/1
f 1/1/1 1/1/1 1/1/1
f 1/1/1 1/1/1 1/1/1
f 1/1/1 1/1/1 1/1/1
f 1/1/1 1/1/1 1/1/1
f 1/1/1 1/1/1 1/1/1
f 1/1/1 1/1/1 1/1/1
f 1/1/1 1/1/1 1/1/1
f 1/1/1 1/1/1 1/1/1
f 1/1/1 1/1/1 1/1/1
f 1/1/1 1/1/1 1/1/1
f 1/1/1 1/1/1 1/1/1
f 1/1/1 1/1/1 1/1/1
f 1/1/1 1/1/1 1/1/1
f 1/1/1 1/1/1 1/1/1
f 1/1/1 1/1/1 1/1/1
f 1/1/1 1/1/1 1/1/1
f 1/1/1 1/1/1 1/1/1
f 1/1/1 1/1/1 1/1/1
f 1/1/1 1/1/1 1/1/1
f 1/1/1 1/1/1 1/1/1
f 1/1/1 1/1/1 1/1/1
f 1/1/1 1/1/1 1/1/1
f 1/1/1 1/1/1 1/1/1
f 1/1/1 1/1/1 1/1/1
f 1/1/1 1/1/1 1/1/1
f 1/1/1 1/1/1 1/1/1
f 1/1/1 1/1/1 1/1/1
f 1/1/1 1/1/1 1/1/1
f 1/1/1 1/1/1 1/1/1
f 1/1/1 1/1/1 1/1/1
f 1/1/1 1/1/1 1/1/1
f 1/1/1 1/1/1 1/1/1
f 1/1/1 1/1/1 1/1/1
f 1/1/1 1/1/1 1/1/1
f 1/1/1 1/1/1 1/1/1
f 1/1/1 1/1/1 1/1/1
f 1/1/1 1/1/1 1/1/1
f 1/1/1 1/1/1 1/1/1
f 1/1/1 1/1/1 1/1/1
f 1/1/1 1/1/1 1/1/1
f 1/1/1 1/1/1 1/1/1
f 1/1/1 1/1/1 1/1/1
f 1/1/1 1/1/1 1/1/1
f 1/1/1 1/1/1 1/1/1
f 1/1/1 1/1/1 1/1/1
f 1/1/1 1/1/1 1/1/1
f 1/1/1 1/1/1 1/1/1
f 1/1/1 1/1/1 1/1/1
f 1/1/1 1/1/1 1/1/1
f 1/1/1 1/1/1 1/1/1
f 1/1/1 1/1/1 1/1/1
f 1/1/1 1/1/1 1/1/1
f 1/1/1 1/1/1 1/1/1
f 1/1/1 1/1/1 1/1/1
f 1/1/1 1/1/1 1/1/1
f 1/1/1 1/1/1 1/1/1
f 1/1/1 1/1/1 1/1/1
f 1/1/1 1/1/1 1/1/1
f 1/1/1 1/1/1 1/1/1
f 1/1/1 1/1/1 1/1/1
f 1/1/1 1/1/1 1/1/1
f 1/1/1 1/1/1 1/1/1
f 1/1/1 1/1/1 1/1/1
f 1/1/1 1/1/1 1/1/1
f 1/1/1 1/1/1 1/1/1
f 1/1/1 1/1/1 1/1/1
f 1/1/1 1/1/1 1/1/1
f 1/1/1 1/1/1 1/1/1
f 1/1/1 1/1/1 1/1/1
f 1/1/1 1/1/1 1/1/1
f 1/1/1 1/1/1 1/1/1
f 1/1/1 1/1/1 1/1/1
f 1/1/1 1/1/1 1/1/1
f 1/1/1 1/1/1 1/1/1
f 1/1/1 1/1/1 1/1/1
f 1/1/1 1/1/1 1/1/1
f 1/1/1 1/1/1 1/1/1
f 1/1/1 1/1/1 1/1/1
f 1/1/1 1/1/1 1/1/1
f 1/1/1 1/1/1 1/1/1
f 1/1/1 1/1/1 1/1/1
f 1/1/1 1/1/1 1/1/1
f 1/1/1 1/1/1 1/1/1
f 1/1/1 1/1/1 1/1/1
f 1/1/1 1/1/1 1/1/1
f 1/1/1 1/1/1 1/1/1
f 1/1/1 1/1/1 1/1/1
f 1/1/1 1/1/1 1/1/1
f 1/1/1 1/1/1 1/1/1
f 1/1/1 1/1/1 1/1/1
f 1/1/1 1/1/1 1/1/1
f 1/1/1 1/1/1 1/1/1
f 1/1/1 1/1/1 1/1/1
f 1/1/1 1/1/1 1/1/1
f 1/1/1 1/1/1 1/1/1
f 1/1/1 1/1/1 1/1/1
f 1/1/1 1/1/1 1/1/1
f 1/1/1 1/1/1 1/1/1
f 1/1/1 1/1/1 1/1/1
f 1/1/1 1/1/1 1/1/1
f 1/1/1 1/1/1 1/1/1
f 1/1/1 1/1/1 1/1/1
f 1/1/1 1/1/1 1/1/1
f 1/1/1 1/1/1 1/1/1
f 1/1/1 1/1/1 1/1/1
f 1/1/1 1/1/1 1/1/1
f 1/1/1 1/1/1 1/1/1
f 1/1/1 1/1/1 1/1/1
f 1/1/1 1/1/1 1/1/1
f 1/1/1 1/1/1 1/1/1
f 1/1/1 1/1/1 1/1/1
f 1/1/1 1/1/1 1/1/1
f 1/1/1 1/1/1 1/1/1
f 1/1/1 1/1/1 1/1/1
f 1/1/1 1/1/1 1/1/1
f 1/1/1 1/1/1 1/1/1
f 1/1/1 1/1/1 1/1/1
f 1/1/1 1/1/1 1/1/1
f 1/1/1 1/1/1 1/1/1
f 1/1/1 1/1/1 1/1/1
f 1/1/1 1/1/1 1/1/1
f 1/1/1 1/1/1 1/1/1
f 1/1/1 1/1/1 1/1/1
f 1/1/1 1/1/1 1/1/1
f 1/1/1 1/1/1 1/1/1
f 1/1/1 1/1/1 1/1/1
f 1/1/1 1/1/1 1/1/1
f 1/1/1 1/1/1 1/1/1
f 1/1/1 1/1/1 1/1/1
f 1/1/1 1/1/1 1/1/1
f 1/1/1 1/1/1 1/1/1
f 1/1/1 1/1/1 1/1/1
f 1/1/1 1/1/1 1/1/1
f 1/1/1 1/1/1 1/1/1
f 1/1/1 1/1/1 1/1/1
f 1/1/1 1/1/1 1/1/1
f 1/1/1 1/1/1 1/1/1
f 1/1/1 1/1/1 1/1/1
f 1/1/1 1/1/1 1/1/1
f 1/1/1 1/1/1 1/1/1
f 1/1/1 1/1/1 1/1/1
f 1/1/1 1/1/1 1/1/1
f 1/1/1 1/1/1 1/1/1
f 1/1/1 1/1/1 1/1/1
f 1/1/1 1/1/1 1/1/1
f 1/1/1 1/1/1 1/1/1
f 1/1/1 1/1/1 1/1/1
f 1/1/1 1/1/1 1/1/1
f 1/1/1 1/1/1 1/1/1
f 1/1/1 1/1/1 1/1/1
f 1/1/1 1/1/1 1/1/1
f 1/1/1 1/1/1 1/1/1
f 1/1/1 1/1/1 1/1/1
f 1/1/1 1/1/1 1/1/1
f 1/1/1 1/1/1 1/1/1
f 1/1/1 1/1/1 1/1/1
f 1/1/1 1/1/1 1/1/1
f 1/1/1 1/1/1 1/1/1
f 1/1/1 1/1/1 1/1/1
f 1/1/1 1/1/1 1/1/1
f 1/1/1 1/1/1 1/1/1
f 1/1/1 1/1/1 1/1/1
f 1/1/1 1/1/1 1/1/1
f 1/1/1 1/1/1 1/1/1
f 1/1/1 1/1/1 1/1/1
f 1/1/1 1/1/1 1/1/1
f 1/1/1 1/1/1 1/1/1
f 1/1/1 1/1/1 1/1/1
f 1/1/1 1/1/1 1/1/1
f 1/1/1 1/1/1 1/1/1
f 1/1/1 1/1/1 1/1/1
f 1/1/1 1/1/1 1/1/1
f 1/1/1 1/1/1 1/1/1
f 1/1/1 1/1/1 1/1/1
f 1/1/1 1/1/1 1/1/1
f 1/1/1 1/1/1 1/1/1
f 1/1/1 1/1/1 1/1/1
f 1/1/1 1/1/1 1/1/1
f 1/1/1 1/1/1 1/1/1
f 1/1/1 1/1/1 1/1/1
f 1/1/1 1/1/1 1/1/1
f 1/1/1 1/1/1 1/1/1
f 1/1/1 1/1/1 1/1/1
f 1/1/1 1/1/1 1/1/1
f 1/1/1 1/1/1 1/1/1
f 1/1/1 1/1/1 1/1/1
f 1/1/1 1/1/1 1/1/1
f 1/1/1 1/1/1 1/1/1
f 1/1/1 1/1/1 1/1/1
f 1/1/1 1/1/1 1/1/1
f 1/1/1 1/1/1 1/1/1
f 1/1/1 1/1/1 1/1/1
f 1/1/1 1/1/1 1/1/1
f 1/1/1 1/1/1 1/1/1
f 1/1/1 1/1/1 1/1/1
f 1/1/1 1/1/1 1/1/1
f 1/1/1 1/1/1 1/1/1
f 1/1/1 1/1/1 1/1/1
f 1/1/1 1/1/1 1/1/1
f 1/1/1 1/1/1 1/1/1
f 1/1/1 1/1/1 1/1/1
f 1/1/1 1/1/1 1/1/1
f 1/1/1 1/1/1 1/1/1
f 1/1/1 1/1/1 1/1/1
f 1/1/1 1/1/1 1/1/1
f 1/1/1 1/1/1 1/1/1
f 1/1/1 1/1/1 1/1/1
f 1/1/1 1/1/1 1/1/1
f 1/1/1 1/1/1 1/1/1
f 1/1/1 1/1/1 1/1/1
f 1/1/1 1/1/1 1/1/1
f 1/1/1 1/1/1 1/1/1
f 1/1/1 1/1/1 1/1/1
f 1/1/1 1/1/1 1/1/1
f 1/1/1 1/1/1 1/1/1
f 1/1/1 1/1/1 1/1/1
f 1/1/1 1/1/1 1/1/1
f 1/1/1 1/1/1 1/1/1
f 1/1/1 1/1/1 1/1/1
f 1/1/1 1/1/1 1/1/1
f 1/1/1 1/1/1 1/1/1
f 1/1/1 1/1/1 1/1/1
f 1/1/1 1/1/1 1/1/1
f 1/1/1 1/1/1 1/1/1
f 1/1/1 1/1/1 1/1/1
f 1/1/1 1/1/1 1/1/1
f 1/1/1 1/1/1 1/1/1
f 1/1/1 1/1/1 1/1/1
f 1/1/1 1/1/1 1/1/1
f 1/1/1 1/1/1 1/1/1
f 1/1/1 1/1/1 1/1/1
f 1/1/1 1/1/1 1/1/1
f 1/1/1 1/1/1 1/1/1
f 1/1/1 1/1/1 1/1/1
f 1/1/1 1/1/1 1/1/1
f 1/1/1 1/1/1 1/1/1
f 1/1/1 1/1/1 1/1/1
f 1/1/1 1/1/1 1/1/1
f 1/1/1 1/1/1 1/1/1
f 1/1/1 1/1/1 1/1/1
f 1/1/1 1/1/1 1/1/1
f 1/1/1 1/1/1 1/1/1
f 1/1/1 1/1/1 1/1/1
f 1/1/1 1/1/1 1/1/1
f 1/1/1 1/1/1 1/1/1
f 1/1/1 1/1/1 1/1/1
f 1/1/1 1/1/1 1/1/1
f 1/1/1 1/1/1 1/1/1
f 1/1/1 1/1/1 1/1/1
f 1/1/1 1/1/1 1/1/1
f 1/1/1 1/1/1 1/1/1
f 1/1/1 1/1/1 1/1/1
f 1/1/1 1/1/1 1/1/1
f 1/1/1 1/1/1 1/1/1
f 1/1/1 1/1/1 1/1/1
f 1/1/1 1/1/1 1/1/1
f 1/1/1 1/1/1 1/1/1
f 1/1/1 1/1/1 1/1/1
f 1/1/1 1/1/1 1/1/1
f 1/1/1 1/1/1 1/1/1
f 1/1/1 1/1/1 1/1/1
f 1/1/1 1/1/1 1/1/1
f 1/1/1 1/1/1 1/1/1
f 1/1/1 1/1/1 1/1/1
f 1/1/1 1/1/1 1/1/1
f 1/1/1 1/1/1 1/1/1
f 1/1/1 1/1/1 1/1/1
f 1/1/1 1/1/1 1/1/1
f 1/1/1 1/1/1 1/1/1
f 1/1/1 1/1/1 1/1/1
f 1/1/1 1/1/1 1/1/1
f 1/1/1 1/1/1 1/1/1
f 1/1/1 1/1/1 1/1/1
f 1/1/1 1/1/1 1/1/1
f 1/1/1 1/1/1 1/1/1
f 1/1/1 1/1/1 1/1/1
f 1/1/1 1/1/1 1/1/1
f 1/1/1 1/1/1 1/1/1
f 1/1/1 1/1/1 1/1/1
f 1/1/1 1/1/1 1/1/1
f 1/1/1 1/1/1 1/1/1
f 1/1/1 1/1/1 1/1/1
f 1/1/1 1/1/1 1/1/1
f 1/1/1 1/1/1 1/1/1
f 1/1/1 1/1/1 1/1/1
f 1/1/1 1/1/1 1/1/1
f 1/1/1 1/1/1 1/1/1
f 1/1/1 1/1/1 1/1/1
f 1/1/1 1/1/1 1/1/1
f 1/1/1 1/1/1 1/1/1
f 1/1/1 1/1/1 1/1/1
f 1/1/1 1/1/1 1/1/1
f 1/1/1 1/1/1 1/1/1
f 1/1/1 1/1/1 1/1/1
f 1/1/1 1/1/1 1/1/1
f 1/1/1 1/1/1 1/1/1
f 1/1/1 1/1/1 1/1/1
f 1/1/1 1/1/1 1/1/1
f 1/1/1 1/1/1 1/1/1
f 1/1/1 1/1/1 1/1/1
f 1/1/1 1/1/1 1/1/1
f 1/1/1 1/1/1 1/1/1
f 1/1/1 1/1/1 1/1/1
f 1/1/1 1/1/1 1/1/1
f 1/1/1 1/1/1 1/1/1
f 1/1/1 1/1/1 1/1/1
f 1/1/1 1/1/1 1/1/1
f 1/1/1 1/1/1 1/1/1
f 1/1/1 1/1/1 1/1/1
f 1/1/1 1/1/1 1/1/1
f 1/1/1 1/1/1 1/1/1
f 1/1/1 1/1/1 1/1/1
f 1/1/1 1/1/1 1/1/1
f 1/1/1 1/1/1 1/1/1
f 1/1/1 1/1/1 1/1/1
f 1/1/1 1/1/1 1/1/1
f 1/1/1 1/1/1 1/1/1
f 1/1/1 1/1/1 1/1/1
f 1/1/1 1/1/1 1/1/1
f 1/1/1 1/1/1 1/1/1
f 1/1/1 1/1/1 1/1/1
f 1/1/1 1/1/1 1/1/1
f 1/1/1 1/1/1 1/1/1
f 1/1/1 1/1/1 1/1/1
f 1/1/1 1/1/1 1/1/1
f 1/1/1 1/1/1 1/1/1
f 1/1/1 1/1/1 1/1/1
f 1/1/1 1/1/1 1/1/1
f 1/1/1 1/1/1 1/1/1
f 1/1/1 1/1/1 1/1/1
f 1/1/1 1/1/1 1/1/1
f 1/1/1 1/1/1 1/1/1
f 1/1/1 1/1/1 1/1/1
f 1/1/1 1/1/1 1/1/1
f 1/1/1 1/1/1 1/1/1
f 1/1/1 1/1/1 1/1/1
f 1/1/1 1/1/1 1/1/1
f 1/1/1 1/1/1 1/1/1
f 1/1/1 1/1/1 1/1/1
f 1/1/1 1/1/1 1/1/1
f 1/1/1 1/1/1 1/1/1
f 1/1/1 1/1/1 1/1/1
f 1/1/1 1/1/1 1/1/1
f 1/1/1 1/1/1 1/1/1
f 1/1/1 1/1/1 1/1/1
f 1/1/1 1/1/1 1/1/1
f 1/1/1 1/1/1 1/1/1
f 1/1/1 1/1/1 1/1/1
f 1/1/1 1/1/1 1/1/1
f 1/1/1 1/1/1 1/1/1
f 1/1/1 1/1/1 1/1/1
f 1/1/1 1/1/1 1/1/1
f 1/1/1 1/1/1 1/1/1
f 1/1/1 1/1/1 1/1/1
f 1/1/1 1/1/1 1/1/1
f 1/1/1 1/1/1 1/1/1
f 1/1/1 1/1/1 1/1/1
f 1/1/1 1/1/1 1/1/1
f 1/1/1 1/1/1 1/1/1
f 1/1/1 1/1/1 1/1/1
f 1/1/1 1/1/1 1/1/1
f 1/1/1 1/1/1 1/1/1
f 1/1/1 1/1/1 1/1/1
f 1/1/1 1/1/1 1/1/1
f 1/1/1 1/1/1 1/1/1
f 1/1/1 1/1/1 1/1/1
f 1/1/1 1/1/1 1/1/1
f 1/1/1 1/1/1 1/1/1
f 1/1/1 1/1/1 1/1/1
f 1/1/1 1/1/1 1/1/1
f 1/1/1 1/1/1 1/1/1
f 1/1/1 1/1/1 1/1/1
f 1/1/1 1/1/1 1/1/1
f 1/1/1 1/1/1 1/1/1
f 1/1/1 1/1/1 1/1/1
f 1/1/1 1/1/1 1/1/1
f 1/1/1 1/1/1 1/1/1
f 1/1/1 1/1/1 1/1/1
f 1/1/1 1/1/1 1/1/1
f 1/1/1 1/1/1 1/1/1
f 1/1/1 1/1/1 1/1/1
f 1/1/1 1/1/1 1/1/1
f 1/1/1 1/1/1 1/1/1
f 1/1/1 1/1/1 1/1/1
f 1/1/1 1/1/1 1/1/1
f 1/1/1 1/1/1 1/1/1
f 1/1/1 1/1/1 1/1/1
f 1/1/1 1/1/1 1/1/1
f 1/1/1 1/1/1 1/1/1
f 1/1/1 1/1/1 1/1/1
f 1/1/1 1/1/1 1/1/1
f 1/1/1 1/1/1 1/1/1
f 1/1/1 1/1/1 1/1/1
f 1/1/1 1/1/1 1/1/1
f 1/1/1 1/1/1 1/1/1
f 1/1/1 1/1/1 1/1/1
f 1/1/1 1/1/1 1/1/1
f 1/1/1 1/1/1 1/1/1
f 1/1/1 1/1/1 1/1/1
f 1/1/1 1/1/1 1/1/1
f 1/1/1 1/1/1 1/1/1
f 1/1/1 1/1/1 1/1/1
f 1/1/1 1/1/1 1/1/1
f 1/1/1 1/1/1 1/1/1
f 1/1/1 1/1/1 1/1/1
f 1/1/1 1/1/1 1/1/1
f 1/1/1 1/1/1 1/1/1
f 1/1/1 1/1/1 1/1/1
f 1/1/1 1/1/1 1/1/1
f 1/1/1 1/1/1 1/1/1
f 1/1/1 1/1/1 1/1/1
f 1/1/1 1/1/1 1/1/1
f 1/1/1 1/1/1 1/1/1
f 1/1/1 1/1/1 1/1/1
f 1/1/1 1/1/1 1/1/1
f 1/1/1 1/1/1 1/1/1
f 1/1/1 1/1/1 1/1/1
f 1/1/1 1/1/1 1/1/1
f 1/1/1 1/1/1 1/1/1
f 1/1/1 1/1/1 1/1/1
f 1/1/1 1/1/1 1/1/1
f 1/1/1 1/1/1 1/1/1
f 1/1/1 1/1/1 1/1/1
f 1/1/1 1/1/1 1/1/1
f 1/1/1 1/1/1 1/1/1
f 1/1/1 1/1/1 1/1/1
f 1/1/1 1/1/1 1/1/1
f 1/1/1 1/1/1 1/1/1
f 1/1/1 1/1/1 1/1/1
f 1/1/1 1/1/1 1/1/1
f 1/1/1 1/1/1 1/1/1
f 1/1/1 1/1/1 1/1/1
f 1/1/1 1/1/1 1/1/1
f 1/1/1 1/1/1 1/1/1
f 1/1/1 1/1/1 1/1/1
f 1/1/1 1/1/1 1/1/1
f 1/1/1 1/1/1 1/1/1
f 1/1/1 1/1/1 1/1/1
f 1/1/1 1/1/1 1/1/1
f 1/1/1 1/1/1 1/1/1
f 1/1/1 1/1/1 1/1/1
f 1/1/1 1/1/1 1/1/1
f 1/1/1 1/1/1 1/1/1
f 1/1/1 1/1/1 1/1/1
f 1/1/1 1/1/1 1/1/1
f 1/1/1 1/1/1 1/1/1
f 1/1/1 1/1/1 1/1/1
f 1/1/1 1/1/1 1/1/1
f 1/1/1 1/1/1 1/1/1
f 1/1/1 1/1/1 1/1/1
f 1/1/1 1/1/1 1/1/1
f 1/1/1 1/1/1 1/1/1
f 1/1/1 1/1/1 1/1/1
f 1/1/1 1/1/1 1/1/1
f 1/1/1 1/1/1 1/1/1
f 1/1/1 1/1/1 1/1/1
f 1/1/1 1/1/1 1/1/1
f 1/1/1 1/1/1 1/1/1
f 1/1/1 1/1/1 1/1/1
f 1/1/1 1/1/1 1/1/1
f 1/1/1 1/1/1 1/1/1
f 1/1/1 1/1/1 1/1/1
f 1/1/1 1/1/1 1/1/1
f 1/1/1 1/1/1 1/1/1
f 1/1/1 1/1/1 1/1/1
f 1/1/1 1/1/1 1/1/1
f 1/1/1 1/1/1 1/1/1
f 1/1/1 1/1/1 1/1/1
f 1/1/1 1/1/1 1/1/1
f 1/1/1 1/1/1 1/1/1
f 1/1/1 1/1/1 1/1/1
f 1/1/1 1/1/1 1/1/1
f 1/1/1 1/1/1 1/1/1
f 1/1/1 1/1/1 1/1/1
f 1/1/1 1/1/1 1/1/1
f 1/1/1 1/1/1 1/1/1
f 1/1/1 1/1/1 1/1/1
f 1/1/1 1/1/1 1/1/1
f 1/1/1 1/1/1 1/1/1
f 1/1/1 1/1/1 1/1/1
f 1/1/1 1/1/1 1/1/1
f 1/1/1 1/1/1 1/1/1
f 1/1/1 1/1/1 1/1/1
f 1/1/1 1/1/1 1/1/1
f 1/1/1 1/1/1 1/1/1
f 1/1/1 1/1/1 1/1/1
f 1/1/1 1/1/1 1/1/1
f 1/1/1 1/1/1 1/1/1
f 1/1/1 1/1/1 1/1/1
f 1/1/1 1/1/1 1/1/1
f 1/1/1 1/1/1 1/1/1
f 1/1/1 1/1/1 1/1/1
f 1/1/1 1/1/1 1/1/1
f 1/1/1 1/1/1 1/1/1
f 1/1/1 1/1/1 1/1/1
f 1/1/1 1/1/1 1/1/1
f 1/1/1 1/1/1 1/1/1
f 1/1/1 1/1/1 1/1/1
f 1/1/1 1/1/1 1/1/1
f 1/1/1 1/1/1 1/1/1
f 1/1/1 1/1/1 1/1/1
f 1/1/1 1/1/1 1/1/1
f 1/1/1 1/1/1 1/1/1
f 1/1/1 1/1/1 1/1/1
f 1/1/1 1/1/1 1/1/1
f 1/1/1 1/1/1 1/1/1
f 1/1/1 1/1/1 1/1/1
f 1/1/1 1/1/1 1/1/1
f 1/1/1 1/1/1 1/1/1
f 1/1/1 1/1/1 1/1/1
f 1/1/1 1/1/1 1/1/1
f 1/1/1 1/1/1 1/1/1
f 1/1/1 1/1/1 1/1/1
f 1/1/1 1/1/1 1/1/1
f 1/1/1 1/1/1 1/1/1
f 1/1/1 1/1/1 1/1/1
f 1/1/1 1/1/1 1/1/1
f 1/1/1 1/1/1 1/1/1
f 1/1/1 1/1/1 1/1/1
f 1/1/1 1/1/1 1/1/1
f 1/1/1 1/1/1 1/1/1
f 1/1/1 1/1/1 1/1/1
f 1/1/1 1/1/1 1/1/1
f 1/1/1 1/1/1 1/1/1
f 1/1/1 1/1/1 1/1/1
f 1/1/1 1/1/1 1/1/1
f 1/1/1 1/1/1 1/1/1
f 1/1/1 1/1/1 1/1/1
f 1/1/1 1/1/1 1/1/1
f 1/1/1 1/1/1 1/1/1
f 1/1/1 1/1/1 1/1/1
f 1/1/1 1/1/1 1/1/1
f 1/1/1 1/1/1 1/1/1
f 1/1/1 1/1/1 1/1/1
f 1/1/1 1/1/1 1/1/1
f 1/1/1 1/1/1 1/1/1
f 1/1/1 1/1/1 1/1/1
f 1/1/1 1/1/1 1/1/1
f 1/1/1 1/1/1 1/1/1
f 1/1/1 1/1/1 1/1/1
f 1/1/1 1/1/1 1/1/1
f 1/1/1 1/1/1 1/1/1
f 1/1/1 1/1/1 1/1/1
f 1/1/1 1/1/1 1/1/1
f 1/1/1 1/1/1 1/1/1
f 1/1/1 1/1/1 1/1/1
f 1/1/1 1/1/1 1/1/1
f 1/1/1 1/1/1 1/1/1
f 1/1/1 1/1/1 1/1/1
f 1/1/1 1/1/1 1/1/1
f 1/1/1 1/1/1 1/1/1
f 1/1/1 1/1/1 1/1/1
f 1/1/1 1/1/1 1/1/1
f 1/1/1 1/1/1 1/1/1
f 1/1/1 1/1/1 1/1/1
f 1/1/1 1/1/1 1/1/1
f 1/1/1 1/1/1 1/1/1
f 1/1/1 1/1/1 1/1/1
f 1/1/1 1/1/1 1/1/1
f 1/1/1 1/1/1 1/1/1
f 1/1/1 1/1/1 1/1/1
f 1/1/1 1/1/1 1/1/1
f 1/1/1 1/1/1 1/1/1
f 1/1/1 1/1/1 1/1/1
f 1/1/1 1/1/1 1/1/1
f 1/1/1 1/1/1 1/1/1
f 1/1/1 1/1/1 1/1/1
f 1/1/1 1/1/1 1/1/1
f 1/1/1 1/1/1 1/1/1
f 1/1/1 1/1/1 1/1/1
f 1/1/1 1/1/1 1/1/1
f 1/1/1 1/1/1 1/1/1
f 1/1/1 1/1/1 1/1/1
f 1/1/1 1/1/1 1/1/1
f 1/1/1 1/1/1 1/1/1
f 1/1/1 1/1/1 1/1/1
f 1/1/1 1/1/1 1/1/1
f 1/1/1 1/1/1 1/1/1
f 1/1/1 1/1/1 1/1/1
f 1/1/1 1/1/1 1/1/1
f 1/1/1 1/1/1 1/1/1
f 1/1/1 1/1/1 1/1/1
f 1/1/1 1/1/1 1/1/1
f 1/1/1 1/1/1 1/1/1
f 1/1/1 1/1/1 1/1/1
f 1/1/1 1/1/1 1/1/1
f 1/1/1 1/1/1 1/1/1
f 1/1/1 1/1/1 1/1/1
f 1/1/1 1/1/1 1/1/1
f 1/1/1 1/1/1 1/1/1
f 1/1/1 1/1/1 1/1/1
f 1/1/1 1/1/1 1/1/1
f 1/1/1 1/1/1 1/1/1
f 1/1/1 1/1/1 1/1/1
f 1/1/1 1/1/1 1/1/1
f 1/1/1 1/1/1 1/1/1
f 1/1/1 1/1/1 1/1/1
f 1/1/1 1/1/1 1/1/1
f 1/1/1 1/1/1 1/1/1
f 1/1/1 1/1/1 1/1/1
f 1/1/1 1/1/1 1/1/1
f 1/1/1 1/1/1 1/1/1
f 1/1/1 1/1/1 1/1/1
f 1/1/1 1/1/1 1/1/1
f 1/1/1 1/1/1 1/1/1
f 1/1/1 1/1/1 1/1/1
f 1/1/1 1/1/1 1/1/1
f 1/1/1 1/1/1 1/1/1
f 1/1/1 1/1/1 1/1/1
f 1/1/1 1/1/1 1/1/1
f 1/1/1 1/1/1 1/1/1
f 1/1/1 1/1/1 1/1/1
f 1/1/1 1/1/1 1/1/1
f 1/1/1 1/1/1 1/1/1
f 1/1/1 1/1/1 1/1/1
f 1/1/1 1/1/1 1/1/1
f 1/1/1 1/1/1 1/1/1
f 1/1/1 1/1/1 1/1/1
f 1/1/1 1/1/1 1/1/1
f 1/1/1 1/1/1 1/1/1
f 1/1/1 1/1/1 1/1/1
f 1/1/1 1/1/1 1/1/1
f 1/1/1 1/1/1 1/1/1
f 1/1/1 1/1/1 1/1/1
f 1/1/1 1/1/1 1/1/1
f 1/1/1 1/1/1 1/1/1
f 1/1/1 1/1/1 1/1/1
f 1/1/1 1/1/1 1/1/1
f 1/1/1 1/1/1 1/1/1
f 1/1/1 1/1/1 1/1/1
f 1/1/1 1/1/1 1/1/1
f 1/1/1 1/1/1 1/1/1
f 1/1/1 1/1/1 1/1/1
f 1/1/1 1/1/1 1/1/1
f 1/1/1 1/1/1 1/1/1
f 1/1/1 1/1/1 1/1/1
f 1/1/1 1/1/1 1/1/1
f 1/1/1 1/1/1 1/1/1
f 1/1/1 1/1/1 1/1/1
f 1/1/1 1/1/1 1/1/1
f 1/1/1 1/1/1 1/1/1
f 1/1/1 1/1/1 1/1/1
f 1/1/1 1/1/1 1/1/1
f 1/1/1 1/1/1 1/1/1
f 1/1/1 1/1/1 1/1/1
f 1/1/1 1/1/1 1/1/1
f 1/1/1 1/1/1 1/1/1
f 1/1/1 1/1/1 1/1/1
f 1/1/1 1/1/1 1/1/1
f 1/1/1 1/1/1 1/1/1
f 1/1/1 1/1/1 1/1/1
f 1/1/1 1/1/1 1/1/1
f 1/1/1 1/1/1 1/1/1
f 1/1/1 1/1/1 1/1/1
f 1/1/1 1/1/1 1/1/1
f 1/1/1 1/1/1 1/1/1
f 1/1/1 1/1/1 1/1/1
f 1/1/1 1/1/1 1/1/1
f 1/1/1 1/1/1 1/1/1
f 1/1/1 1/1/1 1/1/1
f 1/1/1 1/1/1 1/1/1
f 1/1/1 1/1/1 1/1/1
f 1/1/1 1/1/1 1/1/1
f 1/1/1 1/1/1 1/1/1
f 1/1/1 1/1/1 1/1/1
f 1/1/1 1/1/1 1/1/1
f 1/1/1 1/1/1 1/1/1
f 1/1/1 1/1/1 1/1/1
f 1/1/1 1/1/1 1/1/1
f 1/1/1 1/1/1 1/1/1
f 1/1/1 1/1/1 1/1/1
f 1/1/1 1/1/1 1/1/1
f 1/1/1 1/1/1 1/1/1
f 1/1/1 1/1/1 1/1/1
f 1/1/1 1/1/1 1/1/1
f 1/1/1 1/1/1 1/1/1
f 1/1/1 1/1/1 1/1/1
f 1/1/1 1/1/1 1/1/1
f 1/1/1 1/1/1 1/1/1
f 1/1/1 1/1/1 1/1/1
f 1/1/1 1/1/1 1/1/1
f 1/1/1 1/1/1 1/1/1
f 1/1/1 1/1/1 1/1/1
f 1/1/1 1/1/1 1/1/1
f 1/1/1 1/1/1 1/1/1
f 1/1/1 1/1/1 1/1/1
f 1/1/1 1/1/1 1/1/1
f 1/1/1 1/1/1 1/1/1
f 1/1/1 1/1/1 1/1/1
f 1/1/1 1/1/1 1/1/1
f 1/1/1 1/1/1 1/1/1
f 1/1/1 1/1/1 1/1/1
f 1/1/1 1/1/1 1/1/1
f 1/1/1 1/1/1 1/1/1
f 1/1/1 1/1/1 1/1/1
f 1/1/1 1/1/1 1/1/1
f 1/1/1 1/1/1 1/1/1
f 1/1/1 1/1/1 1/1/1
f 1/1/1 1/1/1 1/1/1
f 1/1/1 1/1/1 1/1/1
f 1/1/1 1/1/1 1/1/1
f 1/1/1 1/1/1 1/1/1
f 1/1/1 1/1/1 1/1/1
f 1/1/1 1/1/1 1/1/1
f 1/1/1 1/1/1 1/1/1
f 1/1/1 1/1/1 1/1/1
f 1/1/1 1/1/1 1/1/1
f 1/1/1 1/1/1 1/1/1
f 1/1/1 1/1/1 1/1/1
f 1/1/1 1/1/1 1/1/1
f 1/1/1 1/1/1 1/1/1
f 1/1/1 1/1/1 1/1/1
f 1/1/1 1/1/1 1/1/1
f 1/1/1 1/1/1 1/1/1
f 1/1/1 1/1/1 1/1/1
f 1/1/1 1/1/1 1/1/1
f 1/1/1 1/1/1 1/1/1
f 1/1/1 1/1/1 1/1/1
f 1/1/1 1/1/1 1/1/1
f 1/1/1 1/1/1 1/1/1
f 1/1/1 1/1/1 1/1/1
f 1/1/1 1/1/1 1/1/1
f 1/1/1 1/1/1 1/1/1
f 1/1/1 1/1/1 1/1/1
f 1/1/1 1/1/1 1/1/1
f 1/1/1 1/1/1 1/1/1
f 1/1/1 1/1/1 1/1/1
f 1/1/1 1/1/1 1/1/1
f 1/1/1 1/1/1 1/1/1
f 1/1/1 1/1/1 1/1/1
f 1/1/1 1/1/1 1/1/1
f 1/1/1 1/1/1 1/1/1
f 1/1/1 1/1/1 1/1/1
f 1/1/1 1/1/1 1/1/1
f 1/1/1 1/1/1 1/1/1
f 1/1/1 1/1/1 1/1/1
f 1/1/1 1/1/1 1/1/1
f 1/1/1 1/1/1 1/1/1
f 1/1/1 1/1/1 1/1/1
f 1/1/1 1/1/1 1/1/1
f 1/1/1 1/1/1 1/1/1
f 1/1/1 1/1/1 1/1/1
f 1/1/1 1/1/1 1/1/1
f 1/1/1 1/1/1 1/1/1
f 1/1/1 1/1/1 1/1/1
f 1/1/1 1/1/1 1/1/1
f 1/1/1 1/1/1 1/1/1
f 1/1/1 1/1/1 1/1/1
f 1/1/1 1/1/1 1/1/1
f 1/1/1 1/1/1 1/1/1
f 1/1/1 1/1/1 1/1/1
f 1/1/1 1/1/1 1/1/1
f 1/1/1 1/1/1 1/1/1
f 1/1/1 1/1/1 1/1/1
f 1/1/1 1/1/1 1/1/1
f 1/1/1 1/1/1 1/1/1
f 1/1/1 1/1/1 1/1/1
f 1/1/1 1/1/1 1/1/1
f 1/1/1 1/1/1 1/1/1
f 1/1/1 1/1/1 1/1/1
f 1/1/1 1/1/1 1/1/1
f 1/1/1 1/1/1 1/1/1
f 1/1/1 1/1/1 1/1/1
f 1/1/1 1/1/1 1/1/1
f 1/1/1 1/1/1 1/1/1
f 1/1/1 1/1/1 1/1/1
f 1/1/1 1/1/1 1/1/1
f 1/1/1 1/1/1 1/1/1
f 1/1/1 1/1/1 1/1/1
f 1/1/1 1/1/1 1/1/1
f 1/1/1 1/1/1 1/1/1
f 1/1/1 1/1/1 1/1/1
f 1/1/1 1/1/1 1/1/1
f 1/1/1 1/1/1 1/1/1
f 1/1/1 1/1/1 1/1/1
f 1/1/1 1/1/1 1/1/1
f 1/1/1 1/1/1 1/1/1
f 1/1/1 1/1/1 1/1/1
f 1/1/1 1/1/1 1/1/1
f 1/1/1 1/1/1 1/1/1
f 1/1/1 1/1/1 1/1/1
f 1/1/1 1/1/1 1/1/1
f 1/1/1 1/1/1 1/1/1
f 1/1/1 1/1/1 1/1/1
f 1/1/1 1/1/1 1/1/1
f 1/1/1 1/1/1 1/1/1
f 1/1/1 1/1/1 1/1/1
f 1/1/1 1/1/1 1/1/1
f 1/1/1 1/1/1 1/1/1
f 1/1/1 1/1/1 1/1/1
f 1/1/1 1/1/1 1/1/1
f 1/1/1 1/1/1 1/1/1
f 1/1/1 1/1/1 1/1/1
f 1/1/1 1/1/1 1/1/1
f 1/1/1 1/1/1 1/1/1
f 1/1/1 1/1/1 1/1/1
f 1/1/1 1/1/1 1/1/1
f 1/1/1 1/1/1 1/1/1
f 1/1/1 1/1/1 1/1/1
f 1/1/1 1/1/1 1/1/1
f 1/1/1 1/1/1 1/1/1
f 1/1/1 1/1/1 1/1/1
f 1/1/1 1/1/1 1/1/1
f 1/1/1 1/1/1 1/1/1
f 1/1/1 1/1/1 1/1/1
f 1/1/1 1/1/1 1/1/1
f 1/1/1 1/1/1 1/1/1
f 1/1/1 1/1/1 1/1/1
f 1/1/1 1/1/1 1/1/1
f 1/1/1 1/1/1 1/1/1
f 1/1/1 1/1/1 1/1/1
f 1/1/1 1/1/1 1/1/1
f 1/1/1 1/1/1 1/1/1
f 1/1/1 1/1/1 1/1/1
f 1/1/1 1/1/1 1/1/1
f 1/1/1 1/1/1 1/1/1
f 1/1/1 1/1/1 1/1/1
f 1/1/1 1/1/1 1/1/1
f 1/1/1 1/1/1 1/1/1
f 1/1/1 1/1/1 1/1/1
f 1/1/1 1/1/1 1/1/1
f 1/1/1 1/1/1 1/1/1
f 1/1/1 1/1/1 1/1/1
f 1/1/1 1/1/1 1/1/1
f 1/1/1 1/1/1 1/1/1
f 1/1/1 1/1/1 1/1/1
f 1/1/1 1/1/1 1/1/1
f 1/1/1 1/1/1 1/1/1
f 1/1/1 1/1/1 1/1/1
f 1/1/1 1/1/1 1/1/1
f 1/1/1 1/1/1 1/1/1
f 1/1/1 1/1/1 1/1/1
f 1/1/1 1/1/1 1/1/1
f 1/1/1 1/1/1 1/1/1
f 1/1/1 1/1/1 1/1/1
f 1/1/1 1/1/1 1/1/1
f 1/1/1 1/1/1 1/1/1
f 1/1/1 1/1/1 1/1/1
f 1/1/1 1/1/1 1/1/1
f 1/1/1 1/1/1 1/1/1
f 1/1/1 1/1/1 1/1/1
f 1/1/1 1/1/1 1/1/1
f 1/1/1 1/1/1 1/1/1
f 1/1/1 1/1/1 1/1/1
f 1/1/1 1/1/1 1/1/1
f 1/1/1 1/1/1 1/1/1
f 1/1/1 1/1/1 1/1/1
f 1/1/1 1/1/1 1/1/1
f 1/1/1 1/1/1 1/1/1
f 1/1/1 1/1/1 1/1/1
f 1/1/1 1/1/1 1/1/1
f 1/1/1 1/1/1 1/1/1
f 1/1/1 1/1/1 1/1/1
f 1/1/1 1/1/1 1/1/1
f 1/1/1 1/1/1 1/1/1
f 1/1/1 1/1/1 1/1/1
f 1/1/1 1/1/1 1/1/1
f 1/1/1 1/1/1 1/1/1
f 1/1/1 1/1/1 1/1/1
f 1/1/1 1/1/1 1/1/1
f 1/1/1 1/1/1 1/1/1
f 1/1/1 1/1/1 1/1/1
f 1/1/1 1/1/1 1/1/1
f 1/1/1 1/1/1 1/1/1
f 1/1/1 1/1/1 1/1/1
f 1/1/1 1/1/1 1/1/1
f 1/1/1 1/1/1 1/1/1
f 1/1/1 1/1/1 1/1/1
f 1/1/1 1/1/1 1/1/1
f 1/1/1 1/1/1 1/1/1
f 1/1/1 1/1/1 1/1/1
f 1/1/1 1/1/1 1/1/1
f 1/1/1 1/1/1 1/1/1
f 1/1/1 1/1/1 1/1/1
f 1/1/1 1/1/1 1/1/1
f 1/1/1 1/1/1 1/1/1
f 1/1/1 1/1/1 1/1/1
f 1/1/1 1/1/1 1/1/1
f 1/1/1 1/1/1 1/1/1
f 1/1/1 1/1/1 1/1/1
f 1/1/1 1/1/1 1/1/1
f 1/1/1 1/1/1 1/1/1
f 1/1/1 1/1/1 1/1/1
f 1/1/1 1/1/1 1/1/1
f 1/1/1 1/1/1 1/1/1
f 1/1/1 1/1/1 1/1/1
f 1/1/1 1/1/1 1/1/1
f 1/1/1 1/1/1 1/1/1
f 1/1/1 1/1/1 1/1/1
f 1/1/1 1/1/1 1/1/1
f 1/1/1 1/1/1 1/1/1
f 1/1/1 1/1/1 1/1/1
f 1/1/1 1/1/1 1/1/1
f 1/1/1 1/1/1 1/1/1
f 1/1/1 1/1/1 1/1/1
f 1/1/1 1/1/1 1/1/1
f 1/1/1 1/1/1 1/1/1
f 1/1/1 1/1/1 1/1/1
f 1/1/1 1/1/1 1/1/1
f 1/1/1 1/1/1 1/1/1
f 1/1/1 1/1/1 1/1/1
f 1/1/1 1/1/1 1/1/1
f 1/1/1 1/1/1 1/1/1
f 1/1/1 1/1/1 1/1/1
f 1/1/1 1/1/1 1/1/1
f 1/1/1 1/1/1 1/1/1
f 1/1/1 1/1/1 1/1/1
f 1/1/1 1/1/1 1/1/1
f 1/1/1 1/1/1 1/1/1
f 1/1/1 1/1/1 1/1/1
f 1/1/1 1/1/1 1/1/1
f 1/1/1 1/1/1 1/1/1
f 1/1/1 1/1/1 1/1/1
f 1/1/1 1/1/1 1/1/1
f 1/1/1 1/1/1 1/1/1
f 1/1/1 1/1/1 1/1/1
f 1/1/1 1/1/1 1/1/1
f 1/1/1 1/1/1 1/1/1
f 1/1/1 1/1/1 1/1/1
f 1/1/1 1/1/1 1/1/1
f 1/1/1 1/1/1 1/1/1
f 1/1/1 1/1/1 1/1/1
f 1/1/1 1/1/1 1/1/1
f 1/1/1 1/1/1 1/1/1
f 1/1/1 1/1/1 1/1/1
f 1/1/1 1/1/1 1/1/1
f 1/1/1 1/1/1 1/1/1
f 1/1/1 1/1/1 1/1/1
f 1/1/1 1/1/1 1/1/1
f 1/1/1 1/1/1 1/1/1
f 1/1/1 1/1/1 1/1/1
f 1/1/1 1/1/1 1/1/1
f 1/1/1 1/1/1 1/1/1
f 1/1/1 1/1/1 1/1/1
f 1/1/1 1/1/1 1/1/1
f 1/1/1 1/1/1 1/1/1
f 1/1/1 1/1/1 1/1/1
f 1/1/1 1/1/1 1/1/1
f 1/1/1 1/1/1 1/1/1
f 1/1/1 1/1/1 1/1/1
f 1/1/1 1/1/1 1/1/1
f 1/1/1 1/1/1 1/1/1
f 1/1/1 1/1/1 1/1/1
f 1/1/1 1/1/1 1/1/1
f 1/1/1 1/1/1 1/1/1
f 1/1/1 1/1/1 1/1/1
f 1/1/1 1/1/1 1/1/1
f 1/1/1 1/1/1 1/1/1
f 1/1/1 1/1/1 1/1/1
f 1/1/1 1/1/1 1/1/1
f 1/1/1 1/1/1 1/1/1
f 1/1/1 1/1/1 1/1/1
f 1/1/1 1/1/1 1/1/1
f 1/1/1 1/1/1 1/1/1
f 1/1/1 1/1/1 1/1/1
f 1/1/1 1/1/1 1/1/1
f 1/1/1 1/1/1 1/1/1
f 1/1/1 1/1/1 1/1/1
f 1/1/1 1/1/1 1/1/1
f 1/1/1 1/1/1 1/1/1
f 1/1/1 1/1/1 1/1/1
f 1/1/1 1/1/1 1/1/1
f 1/1/1 1/1/1 1/1/1
f 1/1/1 1/1/1 1/1/1
f 1/1/1 1/1/1 1/1/1
f 1/1/1 1/1/1 1/1/1
f 1/1/1 1/1/1 1/1/1
f 1/1/1 1/1/1 1/1/1
f 1/1/1 1/1/1 1/1/1
f 1/1/1 1/1/1 1/1/1
f 1/1/1 1/1/1 1/1/1
f 1/1/1 1/1/1 1/1/1
f 1/1/1 1/1/1 1/1/1
f 1/1/1 1/1/1 1/1/1
f 1/1/1 1/1/1 1/1/1
f 1/1/1 1/1/1 1/1/1
f 1/1/1 1/1/1 1/1/1
f 1/1/1 1/1/1 1/1/1
f 1/1/1 1/1/1 1/1/1
f 1/1/1 1/1/1 1/1/1
f 1/1/1 1/1/1 1/1/1
f 1/1/1 1/1/1 1/1/1
f 1/1/1 1/1/1 1/1/1
f 1/1/1 1/1/1 1/1/1
f 1/1/1 1/1/1 1/1/1
f 1/1/1 1/1/1 1/1/1
f 1/1/1 1/1/1 1/1/1
f 1/1/1 1/1/1 1/1/1
f 1/1/1 1/1/1 1/1/1
f 1/1/1 1/1/1 1/1/1
f 1/1/1 1/1/1 1/1/1
f 1/1/1 1/1/1 1/1/1
f 1/1/1 1/1/1 1/1/1
f 1/1/1 1/1/1 1/1/1
f 1/1/1 1/1/1 1/1/1
f 1/1/1 1/1/1 1/1/1
f 1/1/1 1/1/1 1/1/1
f 1/1/1 1/1/1 1/1/1
f 1/1/1 1/1/1 1/1/1
f 1/1/1 1/1/1 1/1/1
f 1/1/1 1/1/1 1/1/1
f 1/1/1 1/1/1 1/1/1
f 1/1/1 1/1/1 1/1/1
f 1/1/1 1/1/1 1/1/1
f 1/1/1 1/1/1 1/1/1
f 1/1/1 1/1/1 1/1/1
f 1/1/1 1/1/1 1/1/1
f 1/1/1 1/1/1 1/1/1
f 1/1/1 1/1/1 1/1/1
f 1/1/1 1/1/1 1/1/1
f 1/1/1 1/1/1 1/1/1
f 1/1/1 1/1/1 1/1/1
f 1/1/1 1/1/1 1/1/1
f 1/1/1 1/1/1 1/1/1
f 1/1/1 1/1/1 1/1/1
f 1/1/1 1/1/1 1/1/1
f 1/1/1 1/1/1 1/1/1
f 1/1/1 1/1/1 1/1/1
f 1/1/1 1/1/1 1/1/1
f 1/1/1 1/1/1 1/1/1
f 1/1/1 1/1/1 1/1/1
f 1/1/1 1/1/1 1/1/1
f 1/1/1 1/1/1 1/1/1
f 1/1/1 1/1/1 1/1/1
f 1/1/1 1/1/1 1/1/1
f 1/1/1 1/1/1 1/1/1
f 1/1/1 1/1/1 1/1/1
f 1/1/1 1/1/1 1/1/1
f 1/1/1 1/1/1 1/1/1
f 1/1/1 1/1/1 1/1/1
f 1/1/1 1/1/1 1/1/1
f 1/1/1 1/1/1 1/1/1
f 1/1/1 1/1/1 1/1/1
f 1/1/1 1/1/1 1/1/1
f 1/1/1 1/1/1 1/1/1
f 1/1/1 1/1/1 1/1/1
f 1/1/1 1/1/1 1/1/1
f 1/1/1 1/1/1 1/1/1
f 1/1/1 1/1/1 1/1/1
f 1/1/1 1/1/1 1/1/1
f 1/1/1 1/1/1 1/1/1
f 1/1/1 1/1/1 1/1/1
f 1/1/1 1/1/1 1/1/1
f 1/1/1 1/1/1 1/1/1
f 1/1/1 1/1/1 1/1/1
f 1/1/1 1/1/1 1/1/1
f 1/1/1 1/1/1 1/1/1
f 1/1/1 1/1/1 1/1/1
f 1/1/1 1/1/1 1/1/1
f 1/1/1 1/1/1 1/1/1
f 1/1/1 1/1/1 1/1/1
f 1/1/1 1/1/1 1/1/1
f 1/1/1 1/1/1 1/1/1
f 1/1/1 1/1/1 1/1/1
f 1/1/1 1/1/1 1/1/1
f 1/1/1 1/1/1 1/1/1
f 1/1/1 1/1/1 1/1/1
f 1/1/1 1/1/1 1/1/1
f 1/1/1 1/1/1 1/1/1
f 1/1/1 1/1/1 1/1/1
f 1/1/1 1/1/1 1/1/1
f 1/1/1 1/1/1 1/1/1
f 1/1/1 1/1/1 1/1/1
f 1/1/1 1/1/1 1/1/1
f 1/1/1 1/1/1 1/1/1
f 1/1/1 1/1/1 1/1/1
f 1/1/1 1/1/1 1/1/1
f 1/1/1 1/1/1 1/1/1
f 1/1/1 1/1/1 1/1/1
f 1/1/1 1/1/1 1/1/1
f 1/1/1 1/1/1 1/1/1
f 1/1/1 1/1/1 1/1/1
f 1/1/1 1/1/1 1/1/1
f 1/1/1 1/1/1 1/1/1
f 1/1/1 1/1/1 1/1/1
f 1/1/1 1/1/1 1/1/1
f 1/1/1 1/1/1 1/1/1
f 1/1/1 1/1/1 1/1/1
f 1/1/1 1/1/1 1/1/1
f 1/1/1 1/1/1 1/1/1
f 1/1/1 1/1/1 1/1/1
f 1/1/1 1/1/1 1/1/1
f 1/1/1 1/1/1 1/1/1
f 1/1/1 1/1/1 1/1/1
f 1/1/1 1/1/1 1/1/1
f 1/1/1 1/1/1 1/1/1
f 1/1/1 1/1/1 1/1/1
f 1/1/1 1/1/1 1/1/1
f 1/1/1 1/1/1 1/1/1
f 1/1/1 1/1/1 1/1/1
f 1/1/1 1/1/1 1/1/1
f 1/1/1 1/1/1 1/1/1
f 1/1/1 1/1/1 1/1/1
f 1/1/1 1/1/1 1/1/1
f 1/1/1 1/1/1 1/1/1
f 1/1/1 1/1/1 1/1/1
f 1/1/1 1/1/1 1/1/1
f 1/1/1 1/1/1 1/1/1
f 1/1/1 1/1/1 1/1/1
f 1/1/1 1/1/1 1/1/1
f 1/1/1 1/1/1 1/1/1
f 1/1/1 1/1/1 1/1/1
f 1/1/1 1/1/1 1/1/1
f 1/1/1 1/1/1 1/1/1
f 1/1/1 1/1/1 1/1/1
f 1/1/1 1/1/1 1/1/1
f 1/1/1 1/1/1 1/1/1
f 1/1/1 1/1/1 1/1/1
f 1/1/1 1/1/1 1/1/1
f 1/1/1 1/1/1 1/1/1
f 1/1/1 1/1/1 1/1/1
f 1/1/1 1/1/1 1/1/1
f 1/1/1 1/1/1 1/1/1
f 1/1/1 1/1/1 1/1/1
f 1/1/1 1/1/1 1/1/1
f 1/1/1 1/1/1 1/1/1
f 1/1/1 1/1/1 1/1/1
f 1/1/1 1/1/1 1/1/1
f 1/1/1 1/1/1 1/1/1
f 1/1/1 1/1/1 1/1/1
f 1/1/1 1/1/1 1/1/1
f 1/1/1 1/1/1 1/1/1
f 1/1/1 1/1/1 1/1/1
f 1/1/1 1/1/1 1/1/1
f 1/1/1 1/1/1 1/1/1
f 1/1/1 1/1/1 1/1/1
f 1/1/1 1/1/1 1/1/1
f 1/1/1 1/1/1 1/1/1
f 1/1/1 1/1/1 1/1/1
f 1/1/1 1/1/1 1/1/1
f 1/1/1 1/1/1 1/1/1
f 1/1/1 1/1/1 1/1/1
f 1/1/1 1/1/1 1/1/1
f 1/1/1 1/1/1 1/1/1
f 1/1/1 1/1/1 1/1/1
f 1/1/1 1/1/1 1/1/1
f 1/1/1 1/1/1 1/1/1
f 1/1/1 1/1/1 1/1/1
f 1/1/1 1/1/1 1/1/1
f 1/1/1 1/1/1 1/1/1
f 1/1/1 1/1/1 1/1/1
f 1/1/1 1/1/1 1/1/1
f 1/1/1 1/1/1 1/1/1
f 1/1/1 1/1/1 1/1/1
f 1/1/1 1/1/1 1/1/1
f 1/1/1 1/1/1 1/1/1
f 1/1/1 1/1/1 1/1/1
f 1/1/1 1/1/1 1/1/1
f 1/1/1 1/1/1 1/1/1
f 1/1/1 1/1/1 1/1/1
f 1/1/1 1/1/1 1/1/1
f 1/1/1 1/1/1 1/1/1
f 1/1/1 1/1/1 1/1/1
f 1/1/1 1/1/1 1/1/1
f 1/1/1 1/1/1 1/1/1
f 1/1/1 1/1/1 1/1/1
f 1/1/1 1/1/1 1/1/1
f 1/1/1 1/1/1 1/1/1
f 1/1/1 1/1/1 1/1/1
f 1/1/1 1/1/1 1/1/1
f 1/1/1 1/1/1 1/1/1
f 1/1/1 1/1/1 1/1/1
f 1/1/1 1/1/1 1/1/1
f 1/1/1 1/1/1 1/1/1
f 1/1/1 1/1/1 1/1/1
f 1/1/1 1/1/1 1/1/1
f 1/1/1 1/1/1 1/1/1
f 1/1/1 1/1/1 1/1/1
f 1/1/1 1/1/1 1/1/1
f 1/1/1 1/1/1 1/1/1
f 1/1/1 1/1/1 1/1/1
f 1/1/1 1/1/1 1/1/1
f 1/1/1 1/1/1 1/1/1
f 1/1/1 1/1/1 1/1/1
f 1/1/1 1/1/1 1/1/1
f 1/1/1 1/1/1 1/1/1
f 1/1/1 1/1/1 1/1/1
f 1/1/1 1/1/1 1/1/1
f 1/1/1 1/1/1 1/1/1
f 1/1/1 1/1/1 1/1/1
f 1/1/1 1/1/1 1/1/1
f 1/1/1 1/1/1 1/1/1
f 1/1/1 1/1/1 1/1/1
f 1/1/1 1/1/1 1/1/1
f 1/1/1 1/1/1 1/1/1
f 1/1/1 1/1/1 1/1/1
f 1/1/1 1/1/1 1/1/1
f 1/1/1 1/1/1 1/1/1
f 1/1/1 1/1/1 1/1/1
f 1/1/1 1/1/1 1/1/1
f 1/1/1 1/1/1 1/1/1
f 1/1/1 1/1/1 1/1/1
f 1/1/1 1/1/1 1/1/1
f 1/1/1 1/1/1 1/1/1
f 1/1/1 1/1/1 1/1/1
f 1/1/1 1/1/1 1/1/1
f 1/1/1 1/1/1 1/1/1
f 1/1/1 1/1/1 1/1/1
f 1/1/1 1/1/1 1/1/1
f 1/1/1 1/1/1 1/1/1
f 1/1/1 1/1/1 1/1/1
f 1/1/1 1/1/1 1/1/1
f 1/1/1 1/1/1 1/1/1
f 1/1/1 1/1/1 1/1/1
f 1/1/1 1/1/1 1/1/1
f 1/1/1 1/1/1 1/1/1
f 1/1/1 1/1/1 1/1/1
f 1/1/1 1/1/1 1/1/1
f 1/1/1 1/1/1 1/1/1
f 1/1/1 1/1/1 1/1/1
f 1/1/1 1/1/1 1/1/1
f 1/1/1 1/1/1 1/1/1
f 1/1/1 1/1/1 1/1/1
f 1/1/1 1/1/1 1/1/1
f 1/1/1 1/1/1 1/1/1
f 1/1/1 1/1/1 1/1/1
f 1/1/1 1/1/1 1/1/1
f 1/1/1 1/1/1 1/1/1
f 1/1/1 1/1/1 1/1/1
f 1/1/1 1/1/1 1/1/1
f 1/1/1 1/1/1 1/1/1
f 1/1/1 1/1/1 1/1/1
f 1/1/1 1/1/1 1/1/1
f 1/1/1 1/1/1 1/1/1
f 1/1/1 1/1/1 1/1/1
f 1/1/1 1/1/1 1/1/1
f 1/1/1 1/1/1 1/1/1
f 1/1/1 1/1/1 1/1/1
f 1/1/1 1/1/1 1/1/1
f 1/1/1 1/1/1 1/1/1
f 1/1/1 1/1/1 1/1/1
f 1/1/1 1/1/1 1/1/1
f 1/1/1 1/1/1 1/1/1
f 1/1/1 1/1/1 1/1/1
f 1/1/1 1/1/1 1/1/1
f 1/1/1 1/1/1 1/1/1
f 1/1/1 1/1/1 1/1/1
f 1/1/1 1/1/1 1/1/1
f 1/1/1 1/1/1 1/1/1
f 1/1/1 1/1/1 1/1/1
f 1/1/1 1/1/1 1/1/1
f 1/1/1 1/1/1 1/1/1
f 1/1/1 1/1/1 1/1/1
f 1/1/1 1/1/1 1/1/1
f 1/1/1 1/1/1 1/1/1
f 1/1/1 1/1/1 1/1/1
f 1/1/1 1/1/1 1/1/1
f 1/1/1 1/1/1 1/1/1
f 1/1/1 1/1/1 1/1/1
f 1/1/1 1/1/1 1/1/1
f 1/1/1 1/1/1 1/1/1
f 1/1/1 1/1/1 1/1/1
f 1/1/1 1/1/1 1/1/1
f 1/1/1 1/1/1 1/1/1
f 1/1/1 1/1/1 1/1/1
f 1/1/1 1/1/1 1/1/1
f 1/1/1 1/1/1 1/1/1
f 1/1/1 1/1/1 1/1/1
f 1/1/1 1/1/1 1/1/1
f 1/1/1 1/1/1 1/1/1
f 1/1/1 1/1/1 1/1/1
f 1/1/1 1/1/1 1/1/1
f 1/1/1 1/1/1 1/1/1
f 1/1/1 1/1/1 1/1/1
f 1/1/1 1/1/1 1/1/1
f 1/1/1 1/1/1 1/1/1
f 1/1/1 1/1/1 1/1/1
f 1/1/1 1/1/1 1/1/1
f 1/1/1 1/1/1 1/1/1
f 1/1/1 1/1/1 1/1/1
f 1/1/1 1/1/1 1/1/1
f 1/1/1 1/1/1 1/1/1
f 1/1/1 1/1/1 1/1/1
f 1/1/1 1/1/1 1/1/1
f 1/1/1 1/1/1 1/1/1
f 1/1/1 1/1/1 1/1/1
f 1/1/1 1/1/1 1/1/1
f 1/1/1 1/1/1 1/1/1
f 1/1/1 1/1/1 1/1/1
f 1/1/1 1/1/1 1/1/1
f 1/1/1 1/1/1 1/1/1
f 1/1/1 1/1/1 1/1/1
f 1/1/1 1/1/1 1/1/1
f 1/1/1 1/1/1 1/1/1
f 1/1/1 1/1/1 1/1/1
f 1/1/1 1/1/1 1/1/1
f 1/1/1 1/1/1 1/1/1
f 1/1/1 1/1/1 1/1/1
f 1/1/1 1/1/1 1/1/1
f 1/1/1 1/1/1 1/1/1
f 1/1/1 1/1/1 1/1/1
f 1/1/1 1/1/1 1/1/1
f 1/1/1 1/1/1 1/1/1
f 1/1/1 1/1/1 1/1/1
f 1/1/1 1/1/1 1/1/1
f 1/1/1 1/1/1 1/1/1
f 1/1/1 1/1/1 1/1/1
f 1/1/1 1/1/1 1/1/1
f 1/1/1 1/1/1 1/1/1
f 1/1/1 1/1/1 1/1/1
f 1/1/1 1/1/1 1/1/1
f 1/1/1 1/1/1 1/1/1
f 1/1/1 1/1/1 1/1/1
f 1/1/1 1/1/1 1/1/1
f 1/1/1 1/1/1 1/1/1
f 1/1/1 1/1/1 1/1/1
f 1/1/1 1/1/1 1/1/1
f 1/1/1 1/1/1 1/1/1
f 1/1/1 1/1/1 1/1/1
f 1/1/1 1/1/1 1/1/1
f 1/1/1 1/1/1 1/1/1
f 1/1/1 1/1/1 1/1/1
f 1/1/1 1/1/1 1/1/1
f 1/1/1 1/1/1 1/1/1
f 1/1/1 1/1/1 1/1/1
f 1/1/1 1/1/1 1/1/1
f 1/1/1 1/1/1 1/1/1
f 1/1/1 1/1/1 1/1/1
f 1/1/1 1/1/1 1/1/1
f 1/1/1 1/1/1 1/1/1
f 1/1/1 1/1/1 1/1/1
f 1/1/1 1/1/1 1/1/1
f 1/1/1 1/1/1 1/1/1
f 1/1/1 1/1/1 1/1/1
f 1/1/1 1/1/1 1/1/1
f 1/1/1 1/1/1 1/1/1
f 1/1/1 1/1/1 1/1/1
f 1/1/1 1/1/1 1/1/1
f 1/1/1 1/1/1 1/1/1
f 1/1/1 1/1/1 1/1/1
f 1/1/1 1/1/1 1/1/1
f 1/1/1 1/1/1 1/1/1
f 1/1/1 1/1/1 1/1/1
f 1/1/1 1/1/1 1/1/1
f 1/1/1 1/1/1 1/1/1
f 1/1/1 1/1/1 1/1/1
f 1/1/1 1/1/1 1/1/1
f 1/1/1 1/1/1 1/1/1
f 1/1/1 1/1/1 1/1/1
f 1/1/1 1/1/1 1/1/1
f 1/1/1 1/1/1 1/1/1
f 1/1/1 1/1/1 1/1/1
f 1/1/1 1/1/1 1/1/1
f 1/1/1 1/1/1 1/1/1
f 1/1/1 1/1/1 1/1/1
f 1/1/1 1/1/1 1/1/1
f 1/1/1 1/1/1 1/1/1
f 1/1/1 1/1/1 1/1/1
f 1/1/1 1/1/1 1/1/1
f 1/1/1 1/1/1 1/1/1
f 1/1/1 1/1/1 1/1/1
f 1/1/1 1/1/1 1/1/1
f 1/1/1 1/1/1 1/1/1
f 1/1/1 1/1/1 1/1/1
f 1/1/1 1/1/1 1/1/1
f 1/1/1 1/1/1 1/1/1
f 1/1/1 1/1/1 1/1/1
f 1/1/1 1/1/1 1/1/1
f 1/1/1 1/1/1 1/1/1
f 1/1/1 1/1/1 1/1/1
f 1/1/1 1/1/1 1/1/1
f 1/1/1 1/1/1 1/1/1
f 1/1/1 1/1/1 1/1/1
f 1/1/1 1/1/1 1/1/1
f 1/1/1 1/1/1 1/1/1
f 1/1/1 1/1/1 1/1/1
f 1/1/1 1/1/1 1/1/1
f 1/1/1 1/1/1 1/1/1
f 1/1/1 1/1/1 1/1/1
f 1/1/1 1/1/1 1/1/1
f 1/1/1 1/1/1 1/1/1
f 1/1/1 1/1/1 1/1/1
f 1/1/1 1/1/1 1/1/1
f 1/1/1 1/1/1 1/1/1
f 1/1/1 1/1/1 1/1/1
f 1/1/1 1/1/1 1/1/1
f 1/1/1 1/1/1 1/1/1
f 1/1/1 1/1/1 1/1/1
f 1/1/1 1/1/1 1/1/1
f 1/1/1 1/1/1 1/1/1
f 1/1/1 1/1/1 1/1/1
f 1/1/1 1/1/1 1/1/1
f 1/1/1 1/1/1 1/1/1
f 1/1/1 1/1/1 1/1/1
f 1/1/1 1/1/1 1/1/1
f 1/1/1 1/1/1 1/1/1
f 1/1/1 1/1/1 1/1/1
f 1/1/1 1/1/1 1/1/1
f 1/1/1 1/1/1 1/1/1
f 1/1/1 1/1/1 1/1/1
f 1/1/1 1/1/1 1/1/1
f 1/1/1 1/1/1 1/1/1
f 1/1/1 1/1/1 1/1/1
f 1/1/1 1/1/1 1/1/1
f 1/1/1 1/1/1 1/1/1
f 1/1/1 1/1/1 1/1/1
f 1/1/1 1/1/1 1/1/1
f 1/1/1 1/1/1 1/1/1
f 1/1/1 1/1/1 1/1/1
f 1/1/1 1/1/1 1/1/1
f 1/1/1 1/1/1 1/1/1
f 1/1/1 1/1/1 1/1/1
f 1/1/1 1/1/1 1/1/1
f 1/1/1 1/1/1 1/1/1
f 1/1/1 1/1/1 1/1/1
f 1/1/1 1/1/1 1/1/1
f 1/1/1 1/1/1 1/1/1
f 1/1/1 1/1/1 1/1/1
f 1/1/1 1/1/1 1/1/1
f 1/1/1 1/1/1 1/1/1
f 1/1/1 1/1/1 1/1/1
f 1/1/1 1/1/1 1/1/1
f 1/1/1 1/1/1 1/1/1
f 1/1/1 1/1/1 1/1/1
f 1/1/1 1/1/1 1/1/1
f 1/1/1 1/1/1 1/1/1
f 1/1/1 1/1/1 1/1/1
f 1/1/1 1/1/1 1/1/1
f 1/1/1 1/1/1 1/1/1
f 1/1/1 1/1/1 1/1/1
f 1/1/1 1/1/1 1/1/1
f 1/1/1 1/1/1 1/1/1
f 1/1/1 1/1/1 1/1/1
f 1/1/1 1/1/1 1/1/1
f 1/1/1 1/1/1 1/1/1
f 1/1/1 1/1/1 1/1/1
f 1/1/1 1/1/1 1/1/1
f 1/1/1 1/1/1 1/1/1
f 1/1/1 1/1/1 1/1/1
f 1/1/1 1/1/1 1/1/1
f 1/1/1 1/1/1 1/1/1
f 1/1/1 1/1/1 1/1/1
f 1/1/1 1/1/1 1/1/1
f 1/1/1 1/1/1 1/1/1
f 1/1/1 1/1/1 1/1/1
f 1/1/1 1/1/1 1/1/1
f 1/1/1 1/1/1 1/1/1
f 1/1/1 1/1/1 1/1/1
f 1/1/1 1/1/1 1/1/1
f 1/1/1 1/1/1 1/1/1
f 1/1/1 1/1/1 1/1/1
f 1/1/1 1/1/1 1/1/1
f 1/1/1 1/1/1 1/1/1
f 1/1/1 1/1/1 1/1/1
f 1/1/1 1/1/1 1/1/1
f 1/1/1 1/1/1 1/1/1
f 1/1/1 1/1/1 1/1/1
f 1/1/1 1/1/1 1/1/1
f 1/1/1 1/1/1 1/1/1
f 1/1/1 1/1/1 1/1/1
f 1/1/1 1/1/1 1/1/1
f 1/1/1 1/1/1 1/1/1
f 1/1/1 1/1/1 1/1/1
f 1/1/1 1/1/1 1/1/1
f 1/1/1 1/1/1 1/1/1
f 1/1/1 1/1/1 1/1/1
f 1/1/1 1/1/1 1/1/1
f 1/1/1 1/1/1 1/1/1
f 1/1/1 1/1/1 1/1/1
f 1/1/1 1/1/1 1/1/1
f 1/1/1 1/1/1 1/1/1
f 1/1/1 1/1/1 1/1/1
f 1/1/1 1/1/1 1/1/1
f 1/1/1 1/1/1 1/1/1
f 1/1/1 1/1/1 1/1/1
f 1/1/1 1/1/1 1/1/1
f 1/1/1 1/1/1 1/1/1
f 1/1/1 1/1/1 1/1/1
f 1/1/1 1/1/1 1/1/1
f 1/1/1 1/1/1 1/1/1
f 1/1/1 1/1/1 1/1/1
f 1/1/1 1/1/1 1/1/1
f 1/1/1 1/1/1 1/1/1
f 1/1/1 1/1/1 1/1/1
f 1/1/1 1/1/1 1/1/1
f 1/1/1 1/1/1 1/1/1
f 1/1/1 1/1/1 1/1/1
f 1/1/1 1/1/1 1/1/1
f 1/1/1 1/1/1 1/1/1
f 1/1/1 1/1/1 1/1/1
f 1/1/1 1/1/1 1/1/1
f 1/1/1 1/1/1 1/1/1
f 1/1/1 1/1/1 1/1/1
f 1/1/1 1/1/1 1/1/1
f 1/1/1 1/1/1 1/1/1
f 1/1/1 1/1/1 1/1/1
f 1/1/1 1/1/1 1/1/1
f 1/1/1 1/1/1 1/1/1
f 1/1/1 1/1/1 1/1/1
f 1/1/1 1/1/1 1/1/1
f 1/1/1 1/1/1 1/1/1
f 1/1/1 1/1/1 1/1/1
f 1/1/1 1/1/1 1/1/1
f 1/1/1 1/1/1 1/1/1
f 1/1/1 1/1/1 1/1/1
f 1/1/1 1/1/1 1/1/1
f 1/1/1 1/1/1 1/1/1
f 1/1/1 1/1/1 1/1/1
f 1/1/1 1/1/1 1/1/1
f 1/1/1 1/1/1 1/1/1
f 1/1/1 1/1/1 1/1/1
f 1/1/1 1/1/1 1/1/1
f 1/1/1 1/1/1 1/1/1
f 1/1/1 1/1/1 1/1/1
f 1/1/1 1/1/1 1/1/1
f 1/1/1 1/1/1 1/1/1
f 1/1/1 1/1/1 1/1/1
f 1/1/1 1/1/1 1/1/1
f 1/1/1 1/1/1 1/1/1
f 1/1/1 1/1/1 1/1/1
f 1/1/1 1/1/1 1/1/1
f 1/1/1 1/1/1 1/1/1
f 1/1/1 1/1/1 1/1/1
f 1/1/1 1/1/1 1/1/1
f 1/1/1 1/1/1 1/1/1
f 1/1/1 1/1/1 1/1/1
f 1/1/1 1/1/1 1/1/1
f 1/1/1 1/1/1 1/1/1
f 1/1/1 1/1/1 1/1/1
f 1/1/1 1/1/1 1/1/1
f 1/1/1 1/1/1 1/1/1
f 1/1/1 1/1/1 1/1/1
f 1/1/1 1/1/1 1/1/1
f 1/1/1 1/1/1 1/1/1
f 1/1/1 1/1/1 1/1/1
f 1/1/1 1/1/1 1/1/1
f 1/1/1 1/1/1 1/1/1
f 1/1/1 1/1/1 1/1/1
f 1/1/1 1/1/1 1/1/1
f 1/1/1 1/1/1 1/1/1
f 1/1/1 1/1/1 1/1/1
f 1/1/1 1/1/1 1/1/1
f 1/1/1 1/1/1 1/1/1
f 1/1/1 1/1/1 1/1/1
f 1/1/1 1/1/1 1/1/1
f 1/1/1 1/1/1 1/1/1
f 1/1/1 1/1/1 1/1/1
f 1/1/1 1/1/1 1/1/1
f 1/1/1 1/1/1 1/1/1
f 1/1/1 1/1/1 1/1/1
f 1/1/1 1/1/1 1/1/1
f 1/1/1 1/1/1 1/1/1
f 1/1/1 1/1/1 1/1/1
f 1/1/1 1/1/1 1/1/1
f 1/1/1 1/1/1 1/1/1
f 1/1/1 1/1/1 1/1/1
f 1/1/1 1/1/1 1/1/1
f 1/1/1 1/1/1 1/1/1
f 1/1/1 1/1/1 1/1/1
f 1/1/1 1/1/1 1/1/1
f 1/1/1 1/1/1 1/1/1
f 1/1/1 1/1/1 1/1/1
f 1/1/1 1/1/1 1/1/1
f 1/1/1 1/1/1 1/1/1
f 1/1/1 1/1/1 1/1/1
f 1/1/1 1/1/1 1/1/1
f 1/1/1 1/1/1 1/1/1
f 1/1/1 1/1/1 1/1/1
f 1/1/1 1/1/1 1/1/1
f 1/1/1 1/1/1 1/1/1
f 1/1/1 1/1/1 1/1/1
f 1/1/1 1/1/1 1/1/1
f 1/1/1 1/1/1 1/1/1
f 1/1/1 1/1/1 1/1/1
f 1/1/1 1/1/1 1/1/1
f 1/1/1 1/1/1 1/1/1
f 1/1/1 1/1/1 1/1/1
f 1/1/1 1/1/1 1/1/1
f 1/1/1 1/1/1 1/1/1
f 1/1/1 1/1/1 1/1/1
f 1/1/1 1/1/1 1/1/1
f 1/1/1 1/1/1 1/1/1
f 1/1/1 1/1/1 1/1/1
f 1/1/1 1/1/1 1/1/1
f 1/1/1 1/1/1 1/1/1
f 1/1/1 1/1/1 1/1/1
f 1/1/1 1/1/1 1/1/1
f 1/1/1 1/1/1 1/1/1
f 1/1/1 1/1/1 1/1/1
f 1/1/1 1/1/1 1/1/1
f 1/1/1 1/1/1 1/1/1
f 1/1/1 1/1/1 1/1/1
f 1/1/1 1/1/1 1/1/1
f 1/1/1 1/1/1 1/1/1
f 1/1/1 1/1/1 1/1/1
f 1/1/1 1/1/1 1/1/1
f 1/1/1 1/1/1 1/1/1
f 1/1/1 1/1/1 1/1/1
f 1/1/1 1/1/1 1/1/1
f 1/1/1 1/1/1 1/1/1
f 1/1/1 1/1/1 1/1/1
f 1/1/1 1/1/1 1/1/1
f 1/1/1 1/1/1 1/1/1
f 1/1/1 1/1/1 1/1/1
f 1/1/1 1/1/1 1/1/1
f 1/1/1 1/1/1 1/1/1
f 1/1/1 1/1/1 1/1/1
f 1/1/1 1/1/1 1/1/1
f 1/1/1 1/1/1 1/1/1
f 1/1/1 1/1/1 1/1/1
f 1/1/1 1/1/1 1/1/1
f 1/1/1 1/1/1 1/1/1
f 1/1/1 1/1/1 1/1/1
f 1/1/1 1/1/1 1/1/1
f 1/1/1 1/1/1 1/1/1
f 1/1/1 1/1/1 1/1/1
f 1/1/1 1/1/1 1/1/1
f 1/1/1 1/1/1 1/1/1
f 1/1/1 1/1/1 1/1/1
f 1/1/1 1/1/1 1/1/1
f 1/1/1 1/1/1 1/1/1
f 1/1/1 1/1/1 1/1/1
f 1/1/1 1/1/1 1/1/1
f 1/1/1 1/1/1 1/1/1
f 1/1/1 1/1/1 1/1/1
f 1/1/1 1/1/1 1/1/1
f 1/1/1 1/1/1 1/1/1
f 1/1/1 1/1/1 1/1/1
f 1/1/1 1/1/1 1/1/1
f 1/1/1 1/1/1 1/1/1
f 1/1/1 1/1/1 1/1/1
f 1/1/1 1/1/1 1/1/1
f 1/1/1 1/1/1 1/1/1
f 1/1/1 1/1/1 1/1/1
f 1/1/1 1/1/1 1/1/1
f 1/1/1 1/1/1 1/1/1
f 1/1/1 1/1/1 1/1/1
f 1/1/1 1/1/1 1/1/1
f 1/1/1 1/1/1 1/1/1
f 1/1/1 1/1/1 1/1/1
f 1/1/1 1/1/1 1/1/1
f 1/1/1 1/1/1 1/1/1
f 1/1/1 1/1/1 1/1/1
f 1/1/1 1/1/1 1/1/1
f 1/1/1 1/1/1 1/1/1
f 1/1/1 1/1/1 1/1/1
f 1/1/1 1/1/1 1/1/1
f 1/1/1 1/1/1 1/1/1
f 1/1/1 1/1/1 1/1/1
f 1/1/1 1/1/1 1/1/1
f 1/1/1 1/1/1 1/1/1
f 1/1/1 1/1/1 1/1/1
f 1/1/1 1/1/1 1/1/1
f 1/1/1 1/1/1 1/1/1
f 1/1/1 1/1/1 1/1/1
f 1/1/1 1/1/1 1/1/1
f 1/1/1 1/1/1 1/1/1
f 1/1/1 1/1/1 1/1/1
f 1/1/1 1/1/1 1/1/1
f 1/1/1 1/1/1 1/1/1
f 1/1/1 1/1/1 1/1/1
f 1/1/1 1/1/1 1/1/1
f 1/1/1 1/1/1 1/1/1
f 1/1/1 1/1/1 1/1/1
f 1/1/1 1/1/1 1/1/1
f 1/1/1 1/1/1 1/1/1
f 1/1/1 1/1/1 1/1/1
f 1/1/1 1/1/1 1/1/1
f 1/1/1 1/1/1 1/1/1
f 1/1/1 1/1/1 1/1/1
f 1/1/1 1/1/1 1/1/1
f 1/1/1 1/1/1 1/1/1
f 1/1/1 1/1/1 1/1/1
f 1/1/1 1/1/1 1/1/1
f 1/1/1 1/1/1 1/1/1
f 1/1/1 1/1/1 1/1/1
f 1/1/1 1/1/1 1/1/1
f 1/1/1 1/1/1 1/1/1
f 1/1/1 1/1/1 1/1/1
f 1/1/1 1/1/1 1/1/1
f 1/1/1 1/1/1 1/1/1
f 1/1/1 1/1/1 1/1/1
f 1/1/1 1/1/1 1/1/1
f 1/1/1 1/1/1 1/1/1
f 1/1/1 1/1/1 1/1/1
f 1/1/1 1/1/1 1/1/1
f 1/1/1 1/1/1 1/1/1
f 1/1/1 1/1/1 1/1/1
f 1/1/1 1/1/1 1/1/1
f 1/1/1 1/1/1 1/1/1
f 1/1/1 1/1/1 1/1/1
f 1/1/1 1/1/1 1/1/1
f 1/1/1 1/1/1 1/1/1
