g DoubleRollerPumpTube2 
v 3.524238 1.126774 1.725753
v 3.400042 1.199997 1.599954
v 3.27582 1.126774 1.474182
v 3.224339 0.9499969 1.42211
v 3.275757 0.7732202 1.474244
v 3.399953 0.6999969 1.600042
v 3.524175 0.7732203 1.725816
v 3.575656 0.949997 1.777887
v 3.524238 1.126774 1.725753
v 3.425879 1.126848 1.821345
v 3.305368 1.20007 1.692011
v 3.184713 1.126845 1.562813
v 3.134593 0.9500681 1.509432
v 3.184366 0.7732921 1.56314
v 3.304877 0.7000701 1.692474
v 3.425532 0.7732947 1.821673
v 3.475652 0.9500718 1.875053
v 3.425879 1.126848 1.821345
v 3.32619 1.127069 1.912832
v 3.209542 1.200284 1.78
v 3.09263 1.127052 1.647408
v 3.043941 0.9502729 1.592727
v 3.091996 0.7735001 1.647988
v 3.208645 0.7002853 1.78082
v 3.325557 0.7735165 1.913411
v 3.374245 0.9502961 1.968092
v 3.32619 1.127069 1.912832
v 3.225222 1.127431 2.0002
v 3.112618 1.200633 1.863915
v 2.999631 1.127389 1.72797
v 2.952448 0.9506045 1.671999
v 2.998708 0.7738375 1.72879
v 3.111312 0.7006356 1.865074
v 3.224299 0.7738794 2.001019
v 3.271482 0.9506637 2.05699
v 3.225222 1.127431 2.0002
v 3.123022 1.127926 2.083435
v 3.014649 1.201109 1.943753
v 2.905772 1.127847 1.804504
v 2.860172 0.951056 1.747258
v 2.904559 0.7742975 1.805549
v 3.012933 0.7011145 1.945231
v 3.121809 0.7743767 2.08448
v 3.167409 0.9511679 2.141726
v 3.123022 1.127926 2.083435
v 3.019642 1.12855 2.162521
v 2.915687 1.201708 2.019507
v 2.811109 1.128422 1.877015
v 2.767168 0.9516209 1.818513
v 2.809605 0.7748736 1.878272
v 2.91356 0.7017156 2.021286
v 3.018138 0.7750021 2.163778
v 3.062079 0.9518027 2.22228
v 3.019642 1.12855 2.162521
v 2.915134 1.129295 2.237442
v 2.815786 1.202421 2.091174
v 2.715696 1.129105 1.945509
v 2.673494 0.9522924 1.885776
v 2.713902 0.7755588 1.946965
v 2.81325 0.7024322 2.093232
v 2.91334 0.775749 2.238897
v 2.955542 0.9525612 2.29863
v 2.915134 1.129295 2.237442
v 2.809548 1.130154 2.30818
v 2.714999 1.203243 2.158747
v 2.619588 1.12989 2.009993
v 2.579205 0.9530638 1.949056
v 2.617506 0.7763467 2.011632
v 2.712055 0.7032574 2.161065
v 2.807466 0.7766107 2.309819
v 2.847849 0.953437 2.370756
v 2.809548 1.130154 2.30818
v 2.70294 1.131122 2.374717
v 2.613379 1.204167 2.222222
v 2.522837 1.130772 2.070476
v 2.484352 0.9539286 2.008369
v 2.520469 0.7772307 2.072284
v 2.61003 0.704185 2.224779
v 2.700572 0.7775807 2.376525
v 2.739057 0.9544237 2.438632
v 2.70294 1.131122 2.374717
v 2.595358 1.132191 2.437039
v 2.510977 1.205186 2.281594
v 2.4255 1.131742 2.126961
v 2.388997 0.9548802 2.063723
v 2.422851 0.7782041 2.128923
v 2.507232 0.7052082 2.284369
v 2.592709 0.7786526 2.439001
v 2.629212 0.9555145 2.502239
v 2.595358 1.132191 2.437039
v 2.486864 1.133354 2.495122
v 2.407849 1.206294 2.336857
v 2.327621 1.132795 2.179462
v 2.293178 0.9559122 2.115137
v 2.324696 0.7792604 2.181563
v 2.403712 0.7063204 2.339829
v 2.483939 0.7798194 2.497224
v 2.518382 0.9567027 2.561548
v 2.486864 1.133354 2.495122
v 2.377511 1.134606 2.54895
v 2.304045 1.207485 2.388005
v 2.229255 1.133925 2.227983
v 2.196953 0.9570179 2.162622
v 2.22606 0.7803931 2.230209
v 2.299525 0.7075149 2.391154
v 2.374315 0.7810745 2.551176
v 2.406618 0.9579816 2.616537
v 2.377511 1.134606 2.54895
v 2.267359 1.13594 2.598502
v 2.199619 1.20875 2.435035
v 2.130447 1.135125 2.272535
v 2.100362 0.9581913 2.206194
v 2.126988 0.7815958 2.274872
v 2.194728 0.7087853 2.438339
v 2.2639 0.7824113 2.600839
v 2.293985 0.9593446 2.66718
v 2.267359 1.13594 2.598502
v 2.156464 1.137348 2.64376
v 2.094623 1.210085 2.477939
v 2.031244 1.136387 2.313125
v 2.003454 0.9594257 2.245865
v 2.027532 0.7828619 2.315558
v 2.089373 0.7101247 2.48138
v 2.152752 0.7838227 2.646193
v 2.180542 0.9607844 2.713453
v 2.156464 1.137348 2.64376
v 2.044892 1.138824 2.684704
v 1.989111 1.211483 2.516713
v 1.931692 1.137708 2.349764
v 1.90627 0.9607155 2.281653
v 1.927736 0.7841855 2.352279
v 1.983516 0.711527 2.52027
v 2.040936 0.7853022 2.687219
v 2.066358 0.9622946 2.75533
v 2.044892 1.138824 2.684704
v 1.932701 1.140361 2.721314
v 1.883134 1.212936 2.55135
v 1.831832 1.139079 2.382457
v 1.808848 0.9620538 2.31357
v 1.827644 0.7855598 2.385042
v 1.877211 0.7129848 2.555005
v 1.928513 0.7868423 2.723898
v 1.951498 0.9638674 2.792786
v 1.932701 1.140361 2.721314
v 1.819957 1.141953 2.753574
v 1.776747 1.21444 2.581847
v 1.73171 1.140495 2.411214
v 1.711231 0.9634353 2.341629
v 1.727304 0.7869791 2.413855
v 1.770514 0.7144924 2.585582
v 1.81555 0.7884368 2.756215
v 1.83603 0.9654967 2.825799
v 1.819957 1.141953 2.753574
v 1.706729 1.143591 2.781462
v 1.67 1.215985 2.608194
v 1.63136 1.14195 2.436039
v 1.613444 0.9648534 2.365843
v 1.626747 0.7884367 2.438725
v 1.663476 0.7160422 2.611993
v 1.702117 0.7900777 2.784148
v 1.720033 0.9671741 2.854344
v 1.706729 1.143591 2.781462
v 1.593083 1.145269 2.804964
v 1.562948 1.217568 2.630389
v 1.530824 1.143437 2.456941
v 1.515528 0.9663028 2.386223
v 1.52602 0.789927 2.459661
v 1.556155 0.7176285 2.634236
v 1.58828 0.7917589 2.807684
v 1.603576 0.9688934 2.878402
v 1.593083 1.145269 2.804964
v 1.479087 1.14698 2.824063
v 1.455644 1.219179 2.648424
v 1.430138 1.144951 2.473921
v 1.417511 0.9677771 2.402776
v 1.425159 0.7914434 2.476665
v 1.448603 0.7192441 2.652305
v 1.474109 0.7934725 2.826808
v 1.486736 0.9706465 2.897952
v 1.479087 1.14698 2.824063
v 1.364813 1.148717 2.838746
v 1.34814 1.220815 2.662293
v 1.329339 1.146486 2.486984
v 1.319423 0.9692709 2.415512
v 1.324202 0.7929804 2.489744
v 1.340876 0.7208828 2.666197
v 1.359677 0.7952118 2.841506
v 1.369592 0.9724265 2.912978
v 1.364813 1.148717 2.838746
v 1.250332 1.150472 2.848997
v 1.240488 1.222466 2.67199
v 1.228459 1.148035 2.496129
v 1.221292 0.9707783 2.424432
v 1.223184 0.7945315 2.498898
v 1.233027 0.7225375 2.675905
v 1.245056 0.7969692 2.851766
v 1.252224 0.9742256 2.923463
v 1.250332 1.150472 2.848997
v 1.135717 1.152239 2.854808
v 1.132744 1.224129 2.677509
v 1.127535 1.149593 2.501359
v 1.123142 0.972294 2.429543
v 1.122139 0.7960915 2.504131
v 1.125112 0.7242022 2.681429
v 1.13032 0.798738 2.857579
v 1.134713 0.9760367 2.929395
v 1.135717 1.152239 2.854808
v 1.021047 1.15401 2.856166
v 1.02496 1.225794 2.678843
v 1.026595 1.151153 2.502668
v 1.024993 0.9738119 2.430841
v 1.021093 0.7976537 2.505438
v 1.01718 0.7258697 2.682761
v 1.015545 0.8005102 2.858936
v 1.017147 0.9778516 2.930763
v 1.021047 1.15401 2.856166
v 0.9063895 1.155777 2.853066
v 0.9171894 1.227456 2.675987
v 0.9256757 1.152711 2.500052
v 0.9268771 0.9753267 2.428324
v 0.92009 0.7992125 2.502818
v 0.90929 0.7275338 2.679898
v 0.9008037 0.802279 2.855832
v 0.8996023 0.9796633 2.92756
v 0.9063895 1.155777 2.853066
v 0.7918215 1.157534 2.845502
v 0.8094857 1.229109 2.668933
v 0.8248091 1.15426 2.493506
v 0.8288156 0.9768325 2.421985
v 0.8191581 0.8007621 2.496266
v 0.8014939 0.7291878 2.672835
v 0.7861704 0.8040371 2.848262
v 0.782164 0.981464 2.919783
v 0.7918215 1.157534 2.845502
v 0.6774176 1.159274 2.833471
v 0.7019029 1.230745 2.657676
v 0.7240281 1.155793 2.483021
v 0.7308325 0.9783239 2.411817
v 0.7183301 0.8022963 2.485774
v 0.6938447 0.7308251 2.661569
v 0.6717196 0.8057771 2.836224
v 0.6649152 0.9832463 2.907429
v 0.6774176 1.159274 2.833471
v 0.5632515 1.160988 2.816972
v 0.5944942 1.232359 2.642209
v 0.6233655 1.157306 2.468585
v 0.6329529 0.9797952 2.397807
v 0.6176403 0.8038096 2.471334
v 0.5863975 0.7324393 2.646096
v 0.5575262 0.807492 2.81972
v 0.5479388 0.9850027 2.890499
v 0.5632515 1.160988 2.816972
v 0.449397 1.16267 2.796004
v 0.4873143 1.233943 2.622527
v 0.5228562 1.158792 2.450188
v 0.5352027 0.9812406 2.37994
v 0.5171214 0.8052958 2.452934
v 0.4792041 0.7340235 2.626411
v 0.4436622 0.8091742 2.79875
v 0.4313157 0.9867256 2.868998
v 0.449397 1.16267 2.796004
v 0.3359267 1.164313 2.77057
v 0.3804164 1.235491 2.598622
v 0.4225343 1.160245 2.427813
v 0.4376083 0.9826546 2.358199
v 0.4168083 0.8067489 2.430561
v 0.3723186 0.7355714 2.602509
v 0.3302007 0.8108169 2.773319
v 0.3151267 0.9884076 2.842932
v 0.3359267 1.164313 2.77057
v 0.2229113 1.165909 2.740674
v 0.2738552 1.236996 2.570489
v 0.3224381 1.16166 2.401445
v 0.3402006 0.9840311 2.332566
v 0.3167378 0.808163 2.404201
v 0.2657938 0.7370763 2.574387
v 0.217211 0.8124129 2.74343
v 0.1994484 0.9900413 2.812309
v 0.2229113 1.165909 2.740674
v 0.1104221 1.167452 2.706322
v 0.1676848 1.238452 2.538121
v 0.2226039 1.163029 2.371068
v 0.2430085 0.9853646 2.303019
v 0.2169458 0.8095319 2.373838
v 0.1596831 0.7385317 2.542039
v 0.104764 0.8139549 2.709093
v 0.08435944 0.9916195 2.777141
v 0.1104221 1.167452 2.706322
v -0.001473935 1.168934 2.667521
v 0.06195959 1.239853 2.501513
v 0.1230732 1.164348 2.336663
v 0.1460675 0.9866487 2.269536
v 0.1174725 0.8108495 2.339455
v 0.05403903 0.7399309 2.505462
v -0.007074637 0.815436 2.670313
v -0.03006884 0.9931349 2.737439
v -0.001473935 1.168934 2.667521
v -0.1127089 1.170348 2.624277
v -0.04326633 1.241191 2.460659
v 0.02388614 1.165609 2.298211
v 0.04941154 0.9878778 2.232091
v 0.01835741 0.8121099 2.301033
v -0.05108513 0.7412676 2.46465
v -0.1182376 0.8168494 2.627099
v -0.143763 0.9945803 2.693219
v -0.1127089 1.170348 2.624277
v -0.2232172 1.171688 2.5766
v -0.1479388 1.242459 2.415553
v -0.07491489 1.166806 2.255691
v -0.04692191 0.9890456 2.190659
v -0.0803578 0.8133066 2.258553
v -0.1556362 0.7425351 2.4196
v -0.2286602 0.818188 2.579462
v -0.2566531 0.9959489 2.644493
v -0.2232172 1.171688 2.5766
v -0.3329354 1.172946 2.524499
v -0.2520026 1.243653 2.366189
v -0.173284 1.167934 2.209084
v -0.1428918 0.9901459 2.145215
v -0.1786294 0.8144333 2.211995
v -0.2595622 0.7437267 2.370306
v -0.3382809 0.819445 2.52741
v -0.368673 0.9972333 2.591279
v -0.3329354 1.172946 2.524499
v -0.4418022 1.174116 2.467983
v -0.3554038 1.244763 2.312561
v -0.2711746 1.168986 2.15837
v -0.2384548 0.9911724 2.095733
v -0.2764114 0.8154837 2.161341
v -0.3628097 0.7448359 2.316762
v -0.4470389 0.8206136 2.470953
v -0.4797587 0.998427 2.533591
v -0.4418022 1.174116 2.467983
v -0.5497582 1.17519 2.40706
v -0.4580886 1.245785 2.254663
v -0.3685388 1.169955 2.103527
v -0.3335657 0.9921188 2.042185
v -0.3736562 0.8164514 2.10657
v -0.4653257 0.7458563 2.258966
v -0.5548756 0.8216871 2.410102
v -0.5898486 0.999523 2.471445
v -0.5497582 1.17519 2.40706
v -0.6567419 1.176163 2.341743
v -0.5600007 1.246712 2.192492
v -0.4653264 1.170834 2.044536
v -0.428178 0.9929786 1.984545
v -0.4703165 0.81733 2.047661
v -0.5670577 0.7467813 2.196911
v -0.661732 0.8226588 2.344867
v -0.6988804 1.000515 2.404858
v -0.6567419 1.176163 2.341743
v -0.7626988 1.177028 2.272038
v -0.6610872 1.247536 2.126041
v -0.5614865 1.171618 1.981376
v -0.5222416 0.9937454 1.922787
v -0.5663414 0.818113 1.984594
v -0.667953 0.7476042 2.130592
v -0.7675536 0.8235222 2.275256
v -0.8067986 1.001395 2.333846
v -0.7626988 1.177028 2.272038
v -0.8675722 1.177777 2.197956
v -0.7612932 1.248252 2.055304
v -0.6569666 1.1723 1.914028
v -0.6157054 0.9944125 1.856886
v -0.66168 0.8187936 1.917351
v -0.7679589 0.7483185 2.060003
v -0.8722856 0.8242705 2.201279
v -0.9135467 1.002158 2.258421
v -0.8675722 1.177777 2.197956
v -0.9713081 1.178405 2.119505
v -0.8605639 1.248852 1.980277
v -0.7517111 1.172873 1.842473
v -0.7085142 0.9949733 1.786818
v -0.7562774 0.8193654 1.845913
v -0.8670216 0.7489176 1.985141
v -0.9758744 0.8248974 2.122945
v -1.019071 1.002797 2.1786
v -0.9713081 1.178405 2.119505
v -1.073854 1.178904 2.036692
v -0.9588457 1.249331 1.900954
v -0.8456663 1.17333 1.766693
v -0.8006144 0.9954212 1.712558
v -0.8500808 0.8198218 1.770261
v -0.9650888 0.7493952 1.905999
v -1.078268 0.8253964 2.04026
v -1.12332 1.003305 2.094394
v -1.073854 1.178904 2.036692
v -1.175156 1.179269 1.949524
v -1.056084 1.249681 1.817329
v -0.9387752 1.173664 1.68667
v -0.8919492 0.9957494 1.634084
v -0.9430355 0.8201559 1.690376
v -1.062108 0.7497444 1.822571
v -1.179417 0.8257607 1.953231
v -1.226243 1.003676 2.005817
v -1.175156 1.179269 1.949524
v -1.275166 1.179493 1.858009
v -1.152223 1.249895 1.7294
v -1.030981 1.17387 1.602388
v -0.9824597 0.9959511 1.551376
v -1.035084 0.8203613 1.606245
v -1.158026 0.7499588 1.734854
v -1.279269 0.8259843 1.861866
v -1.327789 1.003903 1.912878
v -1.275166 1.179493 1.858009
v -1.372149 1.179568 1.763834
v -1.247161 1.249968 1.637211
v -1.123836 1.173941 1.512222
v -1.074416 0.996021 1.462083
v -1.127851 0.8204321 1.516165
v -1.252839 0.7500317 1.642788
v -1.376164 0.8260593 1.767777
v -1.425584 1.003979 1.817916
v -1.372149 1.179568 1.763834
v 0 0 0
v 0 0 0
v 0 0 0
v 0 0 0
v 0 0 0
v 0 0 0
v 0 0 0
v 0 0 0
v 0 0 0
v 0 0 0
v 0 0 0
v 0 0 0
v 0 0 0
v 0 0 0
v 0 0 0
v 0 0 0
v 0 0 0
v 0 0 0
v 0 0 0
v 0 0 0
v 0 0 0
v 0 0 0
v 0 0 0
v 0 0 0
v 0 0 0
v 0 0 0
v 0 0 0
v 0 0 0
v 0 0 0
v 0 0 0
v 0 0 0
v 0 0 0
v 0 0 0
v 0 0 0
v 0 0 0
v 0 0 0
v 0 0 0
v 0 0 0
v 0 0 0
v 0 0 0
v 0 0 0
v 0 0 0
v 0 0 0
v 0 0 0
v 0 0 0
v 0 0 0
v 3.399998 0.9499969 1.599998
v -1.25 1 1.639999

vn 0.6669846 0.70192 -0.2498794
vn 0.5008001 0.6134905 -0.610597
vn 0.226712 0.3664688 -0.902387
vn 0.1460944 -0.08384223 -0.9857114
vn 0.301177 -0.4918807 -0.8169124
vn 0.6137742 -0.6254419 -0.4817714
vn 0.9053473 -0.3883309 -0.1718873
vn 0.9928609 0.08714125 -0.08144633
vn 0.9436595 0.1957996 -0.2667757
vn 0.262377 0.9238708 0.2786057
vn 0.006581999 0.999975 0.002559332
vn -0.481973 0.7105426 -0.5126707
vn -0.6871551 0.0009450987 -0.7265102
vn -0.4859388 -0.7091709 -0.510823
vn 0.000690362 -0.9999859 0.005260569
vn 0.4851792 -0.7052995 0.5168693
vn 0.6866761 -0.001136541 0.7269626
vn 0.6378608 0.3826825 0.668347
vn 0.2549151 0.9238828 0.2854099
vn 0.007439387 0.9999701 0.002105859
vn -0.4663273 0.7106096 -0.526852
vn -0.6658915 0.0008993326 -0.746048
vn -0.471485 -0.7093049 -0.5240119
vn -0.0001417121 -0.9999807 0.006211979
vn 0.4695231 -0.7051676 0.5313066
vn 0.6653705 -0.001081189 0.7465125
vn 0.6186475 0.3827067 0.6861565
vn 0.2470657 0.9239064 0.2921563
vn 0.008291961 0.9999642 0.001700814
vn -0.4499612 0.7106533 -0.5408391
vn -0.6436076 0.0008168386 -0.7653552
vn -0.4563191 -0.7094668 -0.5370567
vn -0.0009906552 -0.9999741 0.007136512
vn 0.4531343 -0.705008 0.5455576
vn 0.6430418 -0.0009920963 0.7658304
vn 0.5984952 0.38276 0.7037743
vn 0.2388191 0.923942 0.2988254
vn 0.009134834 0.9999573 0.001341197
vn -0.4328621 0.7106727 -0.5545945
vn -0.6202801 0.0006980786 -0.7843801
vn -0.4404245 -0.7096547 -0.549924
vn -0.001857003 -0.999966 0.008030849
vn 0.4359964 -0.7048214 0.5595838
vn 0.6196675 -0.0008669336 0.7848639
vn 0.577382 0.382844 0.7211522
vn 0.2301677 0.9239895 0.3053954
vn 0.009964271 0.9999499 0.001029968
vn -0.4150212 0.7106681 -0.5680741
vn -0.5958957 0.0005440583 -0.8030617
vn -0.4237903 -0.7098689 -0.5625726
vn -0.002739011 -0.9999567 0.008892375
vn 0.4181015 -0.7046073 0.5733407
vn 0.5952337 -0.0007054967 0.8035524
vn 0.5552926 0.3829598 0.7382355
vn 0.2211024 0.9240497 0.3118429
vn 0.01077662 0.9999417 0.0007648069
vn -0.3964317 0.7106378 -0.5812365
vn -0.5704394 0.0003530314 -0.8213395
vn -0.4064052 -0.7101098 -0.5749599
vn -0.003635168 -0.9999462 0.009719376
vn 0.3994415 -0.7043653 0.5867845
vn 0.569725 -0.0005066711 0.8218352
vn 0.5322136 0.3831063 0.7549691
vn 0.2116197 0.9241221 0.3181438
vn 0.01156603 0.9999329 0.0005463618
vn -0.3770914 0.7105803 -0.594035
vn -0.5439023 0.0001222329 -0.8391486
vn -0.3882604 -0.7103778 -0.5870411
vn -0.004544092 -0.9999344 0.01050923
vn 0.3800109 -0.704097 0.5998659
vn 0.5431353 -0.0002720704 0.8396451
vn 0.5081333 0.3832847 0.7712933
vn 0.2017168 0.9242075 0.3242698
vn 0.0123304 0.9999239 0.0003736082
vn -0.3570013 0.7104996 -0.606416
vn -0.5162868 -0.0001393175 -0.8564157
vn -0.3693583 -0.7106692 -0.5987685
vn -0.00546327 -0.9999217 0.01126116
vn 0.3598138 -0.7037985 0.6125371
vn 0.5154637 6.047081E-06 0.8569114
vn 0.4830528 0.3834949 0.7871415
vn 0.1913903 0.9243056 0.3301955
vn 0.01306409 0.9999146 0.0002462655
vn -0.336169 0.7103874 -0.6183365
vn -0.487592 -0.0004485077 -0.8730715
vn -0.3496929 -0.7109917 -0.6100867
vn -0.006390377 -0.999908 0.01197345
vn 0.3388497 -0.7034777 0.6247399
vn 0.4867132 0.0003129076 0.8735619
vn 0.4569708 0.3837368 0.8024486
vn 0.1806419 0.9244163 0.3358913
vn 0.01376062 0.9999053 0.0001580633
vn -0.3146016 0.71025 -0.6297387
vn -0.4578298 -0.0007863996 -0.8890395
vn -0.3292755 -0.7113329 -0.6209535
vn -0.007324913 -0.9998932 0.01263843
vn 0.317131 -0.7031297 0.6364247
vn 0.4568912 0.0006634025 0.8895224
vn 0.429892 0.3840103 0.8171468
vn 0.1694787 0.9245397 0.3413261
vn 0.01441824 0.999896 0.0001101063
vn -0.2923165 0.7100818 -0.6405739
vn -0.4270168 -0.001167363 -0.9042429
vn -0.3081122 -0.7117015 -0.6313065
vn -0.008261572 -0.9998779 0.01325964
vn 0.2946741 -0.7027583 0.6475322
vn 0.4260222 0.001046749 0.904712
vn 0.4018349 0.384315 0.8311623
vn 0.1579035 0.9246755 0.3464703
vn 0.01503147 0.999887 9.800723E-05
vn -0.2693339 0.7098877 -0.6507832
vn -0.3951793 -0.001579718 -0.9186026
vn -0.2862222 -0.7120898 -0.6410967
vn -0.00919892 -0.9998621 0.01383228
vn 0.2714972 -0.7023631 0.6580088
vn 0.394128 0.001469722 0.9190543
vn 0.3728203 0.3846502 0.8444223
vn 0.1459333 0.9248234 0.3512906
vn 0.01559651 0.9998783 0.0001189887
vn -0.2456848 0.7096638 -0.6603153
vn -0.3623553 -0.002030994 -0.9320378
vn -0.2636276 -0.7125012 -0.6502634
vn -0.01013261 -0.9998456 0.01435559
vn 0.2476312 -0.7019477 0.6677936
vn 0.361248 0.001923578 0.9324678
vn 0.3428772 0.3850155 0.8568537
vn 0.1335745 0.9249831 0.3557586
vn 0.01611008 0.9998702 0.0001646201
vn -0.2213978 0.709411 -0.6691183
vn -0.3285836 -0.002514596 -0.9444715
vn -0.2403552 -0.7129301 -0.6587566
vn -0.01105991 -0.9998289 0.01482641
vn 0.2231068 -0.7015123 0.6768337
vn 0.3274223 0.002413638 0.9448751
vn 0.3120462 0.3854091 0.8683819
vn 0.1208524 0.9251533 0.3598416
vn 0.016567 0.9998627 0.000238088
vn -0.1965185 0.7091329 -0.6771346
vn -0.2939227 -0.003027735 -0.9558245
vn -0.2164422 -0.7133748 -0.6665202
vn -0.01197404 -0.9998121 0.01524385
vn 0.1979694 -0.7010595 0.685072
vn 0.2927087 0.002933934 0.9561971
vn 0.2803685 0.3858292 0.8789365
vn 0.1077801 0.9253342 0.363511
vn 0.01696678 0.999856 0.0003254744
vn -0.1710861 0.7088222 -0.684325
vn -0.2584271 -0.003577487 -0.9660242
vn -0.1919263 -0.7138369 -0.6734992
vn -0.01287526 -0.9997953 0.01560717
vn 0.1722602 -0.7005941 0.6924553
vn 0.2571675 0.003481332 0.9663605
vn 0.2479085 0.3862748 0.8884442
vn 0.09439328 0.9255244 0.366735
vn 0.01730428 0.9998501 0.0004271092
vn -0.1451597 0.7084891 -0.6906315
vn -0.222175 -0.004146453 -0.974998
vn -0.1668577 -0.714305 -0.679652
vn -0.01375315 -0.9997789 0.0159106
vn 0.1460401 -0.7001162 0.6989346
vn 0.2208722 0.00405756 0.9752944
vn 0.2147185 0.3867431 0.8968421
vn 0.08071128 0.9257232 0.3694893
vn 0.01758275 0.9998453 0.0005342492
vn -0.1187949 0.7081289 -0.696018
vn -0.1852468 -0.004744858 -0.9826806
vn -0.1412925 -0.7147858 -0.6849217
vn -0.01460825 -0.9997626 0.01616261
vn 0.1193663 -0.6996286 0.7044654
vn 0.1839066 0.004656563 0.9829326
vn 0.1808865 0.3872322 0.9040638
vn 0.0667733 0.9259292 0.3717476
vn 0.01779557 0.9998414 0.0006444171
vn -0.09205963 0.7077464 -0.7004429
vn -0.1477333 -0.00536104 -0.9890128
vn -0.1152886 -0.71527 -0.689273
vn -0.01543012 -0.9997472 0.0163566
vn 0.09230903 -0.6991353 0.7090057
vn 0.1463586 0.005275622 0.9892175
vn 0.1464785 0.3877384 0.9100565
vn 0.0526092 0.9261417 0.3734886
vn 0.01794812 0.9998387 0.0007482613
vn -0.06501634 0.7073399 -0.7038772
vn -0.1097267 -0.005997015 -0.9939436
vn -0.0889128 -0.7157576 -0.6926655
vn -0.01621887 -0.9997323 0.01649663
vn 0.06493674 -0.698639 0.7125215
vn 0.1083276 0.005912164 0.9940977
vn 0.1115949 0.3882594 0.9147684
vn 0.03826383 0.9263589 0.3746933
vn 0.01803618 0.999837 0.0008418991
vn -0.03774627 0.7069143 -0.7062913
vn -0.07133664 -0.006645063 -0.9974302
vn -0.06223459 -0.7162431 -0.6950702
vn -0.01696447 -0.9997185 0.0165823
vn 0.03732947 -0.6981432 0.7149843
vn 0.0699189 0.006562277 0.9975311
vn 0.07632165 0.3887934 0.9181582
vn 0.02377061 0.92658 0.3753455
vn 0.01806498 0.9998364 0.0009178066
vn -0.0103198 0.7064671 -0.7076706
vn -0.03266844 -0.007308184 -0.9994395
vn -0.03532985 -0.7167265 -0.6964588
vn -0.01766619 -0.9997059 0.01661638
vn 0.009565406 -0.6976531 0.7163719
vn 0.03123998 0.007217771 0.9994858
vn 0.04076805 0.3893352 0.9201936
vn 0.0091769 0.9268034 0.3754347
vn 0.01803148 0.9998369 0.0009713874
vn 0.01717784 0.7060081 -0.7079953
vn 0.006164444 -0.007968359 -0.9999493
vn -0.00826988 -0.7171972 -0.6968212
vn -0.01831316 -0.9996946 0.01659835
vn -0.01826986 -0.6971684 0.7166746
vn -0.007595357 0.007882885 0.99994
vn 0.005024571 0.3898816 0.9208513
vn -0.005471876 0.9270276 0.3749532
vn 0.01794481 0.9998385 0.0010019
vn 0.04466706 0.7055361 -0.7072649
vn 0.04503693 -0.008634364 -0.9989479
vn 0.01885255 -0.7176614 -0.6961371
vn -0.0189072 -0.9996844 0.01654073
vn -0.04608937 -0.6966931 0.7158873
vn -0.04646158 0.00854683 0.9988835
vn -0.03078429 0.3904286 0.9201183
vn -0.02013396 0.9272511 0.3738985
vn 0.01780332 0.999841 0.001000978
vn 0.07206493 0.7050542 -0.7054822
vn 0.08383831 -0.0092974 -0.996436
vn 0.04596545 -0.7181108 -0.6944092
vn -0.01944101 -0.9996758 0.01644125
vn -0.07381132 -0.6962318 0.714012
vn -0.08524735 0.009208377 0.9963173
vn -0.0665585 0.3909744 0.9179918
vn -0.03476186 0.9274723 0.3722725
vn 0.01761333 0.9998443 0.0009654486
vn 0.09929012 0.7045658 -0.7026582
vn 0.1224445 -0.009951349 -0.9924254
vn 0.07298347 -0.7185426 -0.6916431
vn -0.01991145 -0.9996688 0.01630492
vn -0.1013493 -0.6957871 0.7110618
vn -0.1238351 0.00986146 0.9922538
vn -0.1021886 0.3915147 0.9144801
vn -0.04931267 0.9276899 0.3700807
vn 0.01737741 0.9998486 0.0008939246
vn 0.1262643 0.704074 -0.6988112
vn 0.160744 -0.01059455 -0.9869394
vn 0.09982677 -0.7189558 -0.6878498
vn -0.0203162 -0.9996633 0.01614017
vn -0.1286191 -0.6953599 0.7070585
vn -0.1621062 0.01050427 0.9867174
vn -0.1375663 0.3920447 0.9096024
vn -0.06374264 0.9279023 0.3673337
vn 0.01709998 0.9998534 0.0007822203
vn 0.1529102 0.7035817 -0.6939678
vn 0.1986255 -0.01122234 -0.9800112
vn 0.1264199 -0.7193469 -0.6830505
vn -0.02065231 -0.9996595 0.01594934
vn -0.1555428 -0.6949552 0.7020283
vn -0.1999503 0.01113142 0.9797428
vn -0.1725869 0.3925629 0.903387
vn -0.07800918 0.9281085 0.3640454
vn 0.01678507 0.9998589 0.0006309328
vn 0.1791537 0.7030941 -0.6881589
vn 0.2359791 -0.01182858 -0.9716861
vn 0.1526861 -0.7197143 -0.6772727
vn -0.020919 -0.9996573 0.01574163
vn -0.1820456 -0.6945728 0.6960086
vn -0.2372618 0.01174063 0.9713748
vn -0.2071515 0.3930656 0.8958725
vn -0.09207347 0.9283071 0.3602336
vn 0.01643724 0.9998649 0.0004372843
vn 0.2049267 0.7026117 -0.6814263
vn 0.2727039 -0.01241409 -0.962018
vn 0.1785528 -0.7200567 -0.6705499
vn -0.02111536 -0.9996566 0.01552182
vn -0.2080561 -0.6942169 0.6890396
vn -0.2739417 0.01232496 0.9616674
vn -0.2411657 0.3935492 0.8871066
vn -0.1058972 0.9284971 0.3559198
vn 0.01606077 0.999871 0.0002017376
vn 0.2301648 0.7021406 -0.6738122
vn 0.3087075 -0.01297107 -0.9510686
vn 0.2039558 -0.720371 -0.6629235
vn -0.02124165 -0.9996573 0.01529713
vn -0.2335087 -0.6938863 0.6811722
vn -0.3098946 0.01288576 0.9506836
vn -0.2745428 0.3940107 0.877144
vn -0.1194474 0.9286771 0.3511285
vn 0.01566113 0.9998773 -7.555593E-05
vn 0.2548123 0.7016813 -0.6653676
vn 0.3439054 -0.01350037 -0.9389073
vn 0.2288328 -0.7206585 -0.6544364
vn -0.02130016 -0.9996594 0.01507328
vn -0.2583465 -0.6935849 0.6724559
vn -0.3450373 0.01341647 0.9384931
vn -0.3072002 0.3944476 0.8660479
vn -0.1326941 0.9288459 0.3458865
vn 0.01524126 0.9998837 -0.0003949055
vn 0.2788205 0.7012369 -0.6561447
vn 0.3782236 -0.01399676 -0.9256085
vn 0.2531313 -0.7209162 -0.6451392
vn -0.02129118 -0.999663 0.01485545
vn -0.2825195 -0.6933126 0.6629482
vn -0.3792987 0.01391643 0.9251696
vn -0.3390703 0.3948594 0.8538837
vn -0.1456098 0.9290034 0.3402215
vn 0.01480406 0.9998902 -0.0007541653
vn 0.3021422 0.700811 -0.6461996
vn 0.4115948 -0.01445896 -0.9112522
vn 0.2768023 -0.7211442 -0.6350839
vn -0.02121769 -0.9996675 0.01465129
vn -0.3059826 -0.6930696 0.6527091
vn -0.4126121 0.01438372 0.9107932
vn -0.3700897 0.3952428 0.8407239
vn -0.1581701 0.9291483 0.3341642
vn 0.0143532 0.9998963 -0.001152593
vn 0.3247412 0.7004052 -0.6355909
vn 0.443963 -0.01488518 -0.8959214
vn 0.2998041 -0.7213425 -0.6243255
vn -0.02108224 -0.9996731 0.01446523
vn -0.3286985 -0.6928568 0.6417995
vn -0.4449213 0.01481543 0.895447
vn -0.400203 0.3955963 0.8266446
vn -0.170356 0.9292805 0.3277449
vn 0.013894 0.9999022 -0.001588264
vn 0.346588 0.7000217 -0.6243768
vn 0.4752843 -0.01527456 -0.8796998
vn 0.3221016 -0.7215109 -0.6129214
vn -0.02089009 -0.9996795 0.01430245
vn -0.350639 -0.6926736 0.6302822
vn -0.4761827 0.01521153 0.8792148
vn -0.429367 0.395918 0.8117222
vn -0.1821515 0.929399 0.3209958
vn 0.01342642 0.9999077 -0.002059196
vn 0.3676583 0.699662 -0.6126176
vn 0.5055203 -0.01562592 -0.8626732
vn 0.3436673 -0.7216499 -0.6009279
vn -0.02064378 -0.9996865 0.01416624
vn -0.3717811 -0.6925218 0.6182172
vn -0.50636 0.01556814 0.8621817
vn -0.4575459 0.3962085 0.7960343
vn -0.1935438 0.9295041 0.3139476
vn 0.01295592 0.9999128 -0.002566283
vn 0.3879367 0.6993261 -0.6003733
vn 0.5346451 -0.01593821 -0.8449264
vn 0.3644783 -0.7217591 -0.5884042
vn -0.02034772 -0.999694 0.01406131
vn -0.3921088 -0.6923987 0.6056687
vn -0.5354274 0.01588849 0.8444319
vn -0.4847124 0.3964657 0.7796594
vn -0.2045239 0.9295951 0.3066317
vn 0.01248251 0.9999173 -0.003103947
vn 0.4074112 0.6990173 -0.5876997
vn 0.5626424 -0.01621174 -0.8265414
vn 0.3845209 -0.7218396 -0.5754052
vn -0.02000678 -0.9997019 0.01399072
vn -0.4116134 -0.6923051 0.5926955
vn -0.563368 0.01616877 0.8260478
vn -0.5108483 0.3966899 0.7626735
vn -0.215085 0.929672 0.2990792
vn 0.01200888 0.9999211 -0.003671355
vn 0.4260757 0.6987361 -0.5746541
vn 0.5894998 -0.01644447 -0.8076011
vn 0.4037836 -0.7218913 -0.5619892
vn -0.01962527 -0.99971 0.01395624
vn -0.43029 -0.6922407 0.579356
vn -0.590171 0.01641068 0.8071115
vn -0.5359434 0.3968804 0.7451513
vn -0.2252241 0.9297349 0.2913195
vn 0.01153881 0.9999242 -0.004267609
vn 0.4439319 0.698481 -0.5612921
vn 0.615216 -0.01664008 -0.788183
vn 0.4222608 -0.721917 -0.5482076
vn -0.01920948 -0.999718 0.01396154
vn -0.4481417 -0.6922032 0.5657065
vn -0.6158351 0.01661437 0.7876999
vn -0.5599905 0.3970376 0.7271669
vn -0.2349419 0.9297837 0.2833805
vn 0.01107018 0.9999267 -0.004889836
vn 0.460983 0.6982541 -0.5476639
vn 0.6397952 -0.01679634 -0.7683619
vn 0.439954 -0.7219157 -0.5341145
vn -0.01876219 -0.9997258 0.01400684
vn -0.465173 -0.6921927 0.5518002
vn -0.6403653 0.01677896 0.7678872
vn -0.5829944 0.3971624 0.7087873
vn -0.2442373 0.9298189 0.2752904
vn 0.0106072 0.9999284 -0.005536276
vn 0.4772373 0.6980554 -0.5338193
vn 0.6632478 -0.01691408 -0.7482087
vn 0.4568671 -0.7218879 -0.51976
vn -0.01828771 -0.9997334 0.01409236
vn -0.4813941 -0.6922082 0.5376871
vn -0.663771 0.01690558 0.7477447
vn -0.6049615 0.397254 0.6900803
vn -0.2530608 0.929848 0.2671009
vn 0.01099768 0.9999146 -0.007062438
vn 0.4937376 0.6965962 -0.5205544
vn 0.6858324 -0.01829947 -0.7275294
vn 0.4730987 -0.7218583 -0.5050725
vn -0.01695952 -0.9997666 0.0133786
vn -0.4958784 -0.6934387 0.5227308
vn -0.68585 0.0158159 0.727571
vn -0.6257683 0.3973128 0.6712351
vn -0.7446273 0.4705695 -0.4733863
vn -0.6076947 0.6240607 -0.4911776
vn -0.2921366 0.4879858 -0.822512
vn -0.136025 0.07479436 -0.987878
vn -0.2230259 -0.3783054 -0.8984121
vn -0.5056286 -0.6170546 -0.6029786
vn -0.826009 -0.4965717 -0.2666941
vn -0.9929883 -0.07646935 -0.09014745
vn -0.951556 0.303925 0.04659048
vn 0 0 0
vn 0 0 0
vn 0 0 0
vn 0 0 0
vn 0 0 0
vn 0 0 0
vn 0 0 0
vn 0 0 0
vn 0 0 0
vn 0 0 0
vn 0 0 0
vn 0 0 0
vn 0 0 0
vn 0 0 0
vn 0 0 0
vn 0 0 0
vn 0 0 0
vn 0 0 0
vn 0 0 0
vn 0 0 0
vn 0 0 0
vn 0 0 0
vn 0 0 0
vn 0 0 0
vn 0 0 0
vn 0 0 0
vn 0 0 0
vn 0 0 0
vn 0 0 0
vn 0 0 0
vn 0 0 0
vn 0 0 0
vn 0 0 0
vn 0 0 0
vn 0 0 0
vn 0 0 0
vn 0 0 0
vn 0 0 0
vn 0 0 0
vn 0 0 0
vn 0 0 0
vn 0 0 0
vn 0 0 0
vn 0 0 0
vn 0 0 0
vn 0 0 0
vn 0.7115524 -0.0002503747 -0.7026328
vn -0.7117539 0.0002477265 -0.7024289

vt 0 0
vt 0 0.125
vt 0 0.25
vt 0 0.375
vt 0 0.5000001
vt 0 0.6250001
vt 0 0.7500001
vt 0 0.8750001
vt 0 1
vt 0.0222222 0
vt 0.0222222 0.125
vt 0.0222222 0.25
vt 0.0222222 0.375
vt 0.0222222 0.5000001
vt 0.0222222 0.6250001
vt 0.0222222 0.7500001
vt 0.0222222 0.8750001
vt 0.0222222 1
vt 0.0444444 0
vt 0.0444444 0.125
vt 0.0444444 0.25
vt 0.0444444 0.375
vt 0.0444444 0.5000001
vt 0.0444444 0.6250001
vt 0.0444444 0.7500001
vt 0.0444444 0.8750001
vt 0.0444444 1
vt 0.0666666 0
vt 0.0666666 0.125
vt 0.0666666 0.25
vt 0.0666666 0.375
vt 0.0666666 0.5000001
vt 0.0666666 0.6250001
vt 0.0666666 0.7500001
vt 0.0666666 0.8750001
vt 0.0666666 1
vt 0.0888888 0
vt 0.0888888 0.125
vt 0.0888888 0.25
vt 0.0888888 0.375
vt 0.0888888 0.5000001
vt 0.0888888 0.6250001
vt 0.0888888 0.7500001
vt 0.0888888 0.8750001
vt 0.0888888 1
vt 0.111111 0
vt 0.111111 0.125
vt 0.111111 0.25
vt 0.111111 0.375
vt 0.111111 0.5000001
vt 0.111111 0.6250001
vt 0.111111 0.7500001
vt 0.111111 0.8750001
vt 0.111111 1
vt 0.1333332 0
vt 0.1333332 0.125
vt 0.1333332 0.25
vt 0.1333332 0.375
vt 0.1333332 0.5000001
vt 0.1333332 0.6250001
vt 0.1333332 0.7500001
vt 0.1333332 0.8750001
vt 0.1333332 1
vt 0.1555554 0
vt 0.1555554 0.125
vt 0.1555554 0.25
vt 0.1555554 0.375
vt 0.1555554 0.5000001
vt 0.1555554 0.6250001
vt 0.1555554 0.7500001
vt 0.1555554 0.8750001
vt 0.1555554 1
vt 0.1777776 0
vt 0.1777776 0.125
vt 0.1777776 0.25
vt 0.1777776 0.375
vt 0.1777776 0.5000001
vt 0.1777776 0.6250001
vt 0.1777776 0.7500001
vt 0.1777776 0.8750001
vt 0.1777776 1
vt 0.1999998 0
vt 0.1999998 0.125
vt 0.1999998 0.25
vt 0.1999998 0.375
vt 0.1999998 0.5000001
vt 0.1999998 0.6250001
vt 0.1999998 0.7500001
vt 0.1999998 0.8750001
vt 0.1999998 1
vt 0.222222 0
vt 0.222222 0.125
vt 0.222222 0.25
vt 0.222222 0.375
vt 0.222222 0.5000001
vt 0.222222 0.6250001
vt 0.222222 0.7500001
vt 0.222222 0.8750001
vt 0.222222 1
vt 0.2444442 0
vt 0.2444442 0.125
vt 0.2444442 0.25
vt 0.2444442 0.375
vt 0.2444442 0.5000001
vt 0.2444442 0.6250001
vt 0.2444442 0.7500001
vt 0.2444442 0.8750001
vt 0.2444442 1
vt 0.2666664 0
vt 0.2666664 0.125
vt 0.2666664 0.25
vt 0.2666664 0.375
vt 0.2666664 0.5000001
vt 0.2666664 0.6250001
vt 0.2666664 0.7500001
vt 0.2666664 0.8750001
vt 0.2666664 1
vt 0.2888886 0
vt 0.2888886 0.125
vt 0.2888886 0.25
vt 0.2888886 0.375
vt 0.2888886 0.5000001
vt 0.2888886 0.6250001
vt 0.2888886 0.7500001
vt 0.2888886 0.8750001
vt 0.2888886 1
vt 0.3111108 0
vt 0.3111108 0.125
vt 0.3111108 0.25
vt 0.3111108 0.375
vt 0.3111108 0.5000001
vt 0.3111108 0.6250001
vt 0.3111108 0.7500001
vt 0.3111108 0.8750001
vt 0.3111108 1
vt 0.333333 0
vt 0.333333 0.125
vt 0.333333 0.25
vt 0.333333 0.375
vt 0.333333 0.5000001
vt 0.333333 0.6250001
vt 0.333333 0.7500001
vt 0.333333 0.8750001
vt 0.333333 1
vt 0.3555552 0
vt 0.3555552 0.125
vt 0.3555552 0.25
vt 0.3555552 0.375
vt 0.3555552 0.5000001
vt 0.3555552 0.6250001
vt 0.3555552 0.7500001
vt 0.3555552 0.8750001
vt 0.3555552 1
vt 0.3777774 0
vt 0.3777774 0.125
vt 0.3777774 0.25
vt 0.3777774 0.375
vt 0.3777774 0.5000001
vt 0.3777774 0.6250001
vt 0.3777774 0.7500001
vt 0.3777774 0.8750001
vt 0.3777774 1
vt 0.3999996 0
vt 0.3999996 0.125
vt 0.3999996 0.25
vt 0.3999996 0.375
vt 0.3999996 0.5000001
vt 0.3999996 0.6250001
vt 0.3999996 0.7500001
vt 0.3999996 0.8750001
vt 0.3999996 1
vt 0.4222218 0
vt 0.4222218 0.125
vt 0.4222218 0.25
vt 0.4222218 0.375
vt 0.4222218 0.5000001
vt 0.4222218 0.6250001
vt 0.4222218 0.7500001
vt 0.4222218 0.8750001
vt 0.4222218 1
vt 0.444444 0
vt 0.444444 0.125
vt 0.444444 0.25
vt 0.444444 0.375
vt 0.444444 0.5000001
vt 0.444444 0.6250001
vt 0.444444 0.7500001
vt 0.444444 0.8750001
vt 0.444444 1
vt 0.4666662 0
vt 0.4666662 0.125
vt 0.4666662 0.25
vt 0.4666662 0.375
vt 0.4666662 0.5000001
vt 0.4666662 0.6250001
vt 0.4666662 0.7500001
vt 0.4666662 0.8750001
vt 0.4666662 1
vt 0.4888884 0
vt 0.4888884 0.125
vt 0.4888884 0.25
vt 0.4888884 0.375
vt 0.4888884 0.5000001
vt 0.4888884 0.6250001
vt 0.4888884 0.7500001
vt 0.4888884 0.8750001
vt 0.4888884 1
vt 0.5111106 0
vt 0.5111106 0.125
vt 0.5111106 0.25
vt 0.5111106 0.375
vt 0.5111106 0.5000001
vt 0.5111106 0.6250001
vt 0.5111106 0.7500001
vt 0.5111106 0.8750001
vt 0.5111106 1
vt 0.5333328 0
vt 0.5333328 0.125
vt 0.5333328 0.25
vt 0.5333328 0.375
vt 0.5333328 0.5000001
vt 0.5333328 0.6250001
vt 0.5333328 0.7500001
vt 0.5333328 0.8750001
vt 0.5333328 1
vt 0.555555 0
vt 0.555555 0.125
vt 0.555555 0.25
vt 0.555555 0.375
vt 0.555555 0.5000001
vt 0.555555 0.6250001
vt 0.555555 0.7500001
vt 0.555555 0.8750001
vt 0.555555 1
vt 0.5777772 0
vt 0.5777772 0.125
vt 0.5777772 0.25
vt 0.5777772 0.375
vt 0.5777772 0.5000001
vt 0.5777772 0.6250001
vt 0.5777772 0.7500001
vt 0.5777772 0.8750001
vt 0.5777772 1
vt 0.5999994 0
vt 0.5999994 0.125
vt 0.5999994 0.25
vt 0.5999994 0.375
vt 0.5999994 0.5000001
vt 0.5999994 0.6250001
vt 0.5999994 0.7500001
vt 0.5999994 0.8750001
vt 0.5999994 1
vt 0.6222216 0
vt 0.6222216 0.125
vt 0.6222216 0.25
vt 0.6222216 0.375
vt 0.6222216 0.5000001
vt 0.6222216 0.6250001
vt 0.6222216 0.7500001
vt 0.6222216 0.8750001
vt 0.6222216 1
vt 0.6444438 0
vt 0.6444438 0.125
vt 0.6444438 0.25
vt 0.6444438 0.375
vt 0.6444438 0.5000001
vt 0.6444438 0.6250001
vt 0.6444438 0.7500001
vt 0.6444438 0.8750001
vt 0.6444438 1
vt 0.666666 0
vt 0.666666 0.125
vt 0.666666 0.25
vt 0.666666 0.375
vt 0.666666 0.5000001
vt 0.666666 0.6250001
vt 0.666666 0.7500001
vt 0.666666 0.8750001
vt 0.666666 1
vt 0.6888882 0
vt 0.6888882 0.125
vt 0.6888882 0.25
vt 0.6888882 0.375
vt 0.6888882 0.5000001
vt 0.6888882 0.6250001
vt 0.6888882 0.7500001
vt 0.6888882 0.8750001
vt 0.6888882 1
vt 0.7111104 0
vt 0.7111104 0.125
vt 0.7111104 0.25
vt 0.7111104 0.375
vt 0.7111104 0.5000001
vt 0.7111104 0.6250001
vt 0.7111104 0.7500001
vt 0.7111104 0.8750001
vt 0.7111104 1
vt 0.7333326 0
vt 0.7333326 0.125
vt 0.7333326 0.25
vt 0.7333326 0.375
vt 0.7333326 0.5000001
vt 0.7333326 0.6250001
vt 0.7333326 0.7500001
vt 0.7333326 0.8750001
vt 0.7333326 1
vt 0.7555548 0
vt 0.7555548 0.125
vt 0.7555548 0.25
vt 0.7555548 0.375
vt 0.7555548 0.5000001
vt 0.7555548 0.6250001
vt 0.7555548 0.7500001
vt 0.7555548 0.8750001
vt 0.7555548 1
vt 0.777777 0
vt 0.777777 0.125
vt 0.777777 0.25
vt 0.777777 0.375
vt 0.777777 0.5000001
vt 0.777777 0.6250001
vt 0.777777 0.7500001
vt 0.777777 0.8750001
vt 0.777777 1
vt 0.7999992 0
vt 0.7999992 0.125
vt 0.7999992 0.25
vt 0.7999992 0.375
vt 0.7999992 0.5000001
vt 0.7999992 0.6250001
vt 0.7999992 0.7500001
vt 0.7999992 0.8750001
vt 0.7999992 1
vt 0.8222214 0
vt 0.8222214 0.125
vt 0.8222214 0.25
vt 0.8222214 0.375
vt 0.8222214 0.5000001
vt 0.8222214 0.6250001
vt 0.8222214 0.7500001
vt 0.8222214 0.8750001
vt 0.8222214 1
vt 0.8444436 0
vt 0.8444436 0.125
vt 0.8444436 0.25
vt 0.8444436 0.375
vt 0.8444436 0.5000001
vt 0.8444436 0.6250001
vt 0.8444436 0.7500001
vt 0.8444436 0.8750001
vt 0.8444436 1
vt 0.8666658 0
vt 0.8666658 0.125
vt 0.8666658 0.25
vt 0.8666658 0.375
vt 0.8666658 0.5000001
vt 0.8666658 0.6250001
vt 0.8666658 0.7500001
vt 0.8666658 0.8750001
vt 0.8666658 1
vt 0.888888 0
vt 0.888888 0.125
vt 0.888888 0.25
vt 0.888888 0.375
vt 0.888888 0.5000001
vt 0.888888 0.6250001
vt 0.888888 0.7500001
vt 0.888888 0.8750001
vt 0.888888 1
vt 0.9111102 0
vt 0.9111102 0.125
vt 0.9111102 0.25
vt 0.9111102 0.375
vt 0.9111102 0.5000001
vt 0.9111102 0.6250001
vt 0.9111102 0.7500001
vt 0.9111102 0.8750001
vt 0.9111102 1
vt 0.9333324 0
vt 0.9333324 0.125
vt 0.9333324 0.25
vt 0.9333324 0.375
vt 0.9333324 0.5000001
vt 0.9333324 0.6250001
vt 0.9333324 0.7500001
vt 0.9333324 0.8750001
vt 0.9333324 1
vt 0.9555546 0
vt 0.9555546 0.125
vt 0.9555546 0.25
vt 0.9555546 0.375
vt 0.9555546 0.5000001
vt 0.9555546 0.6250001
vt 0.9555546 0.7500001
vt 0.9555546 0.8750001
vt 0.9555546 1
vt 0.9777768 0
vt 0.9777768 0.125
vt 0.9777768 0.25
vt 0.9777768 0.375
vt 0.9777768 0.5000001
vt 0.9777768 0.6250001
vt 0.9777768 0.7500001
vt 0.9777768 0.8750001
vt 0.9777768 1
vt 0.999999 0
vt 0.999999 0.125
vt 0.999999 0.25
vt 0.999999 0.375
vt 0.999999 0.5000001
vt 0.999999 0.6250001
vt 0.999999 0.7500001
vt 0.999999 0.8750001
vt 0.999999 1
vt 0 0
vt 0 0
vt 0 0
vt 0 0
vt 0 0
vt 0 0
vt 0 0
vt 0 0
vt 0 0
vt 0 0
vt 0 0
vt 0 0
vt 0 0
vt 0 0
vt 0 0
vt 0 0
vt 0 0
vt 0 0
vt 0 0
vt 0 0
vt 0 0
vt 0 0
vt 0 0
vt 0 0
vt 0 0
vt 0 0
vt 0 0
vt 0 0
vt 0 0
vt 0 0
vt 0 0
vt 0 0
vt 0 0
vt 0 0
vt 0 0
vt 0 0
vt 0 0
vt 0 0
vt 0 0
vt 0 0
vt 0 0
vt 0 0
vt 0 0
vt 0 0
vt 0 0
vt 0 0
vt 0 0
vt 0 0

usemtl TransparentPlastic
usemap TransparentPlastic
f 2/2/2 1/1/1 461/461/461
f 3/3/3 2/2/2 461/461/461
f 4/4/4 3/3/3 461/461/461
f 5/5/5 4/4/4 461/461/461
f 6/6/6 5/5/5 461/461/461
f 7/7/7 6/6/6 461/461/461
f 8/8/8 7/7/7 461/461/461
f 9/9/9 8/8/8 461/461/461
f 1/1/1 2/2/2 11/11/11
f 1/1/1 11/11/11 10/10/10
f 2/2/2 3/3/3 12/12/12
f 2/2/2 12/12/12 11/11/11
f 3/3/3 4/4/4 13/13/13
f 3/3/3 13/13/13 12/12/12
f 4/4/4 5/5/5 14/14/14
f 4/4/4 14/14/14 13/13/13
f 5/5/5 6/6/6 15/15/15
f 5/5/5 15/15/15 14/14/14
f 6/6/6 7/7/7 16/16/16
f 6/6/6 16/16/16 15/15/15
f 7/7/7 8/8/8 17/17/17
f 7/7/7 17/17/17 16/16/16
f 8/8/8 9/9/9 18/18/18
f 8/8/8 18/18/18 17/17/17
f 10/10/10 11/11/11 20/20/20
f 10/10/10 20/20/20 19/19/19
f 11/11/11 12/12/12 21/21/21
f 11/11/11 21/21/21 20/20/20
f 12/12/12 13/13/13 22/22/22
f 12/12/12 22/22/22 21/21/21
f 13/13/13 14/14/14 23/23/23
f 13/13/13 23/23/23 22/22/22
f 14/14/14 15/15/15 24/24/24
f 14/14/14 24/24/24 23/23/23
f 15/15/15 16/16/16 25/25/25
f 15/15/15 25/25/25 24/24/24
f 16/16/16 17/17/17 26/26/26
f 16/16/16 26/26/26 25/25/25
f 17/17/17 18/18/18 27/27/27
f 17/17/17 27/27/27 26/26/26
f 19/19/19 20/20/20 29/29/29
f 19/19/19 29/29/29 28/28/28
f 20/20/20 21/21/21 30/30/30
f 20/20/20 30/30/30 29/29/29
f 21/21/21 22/22/22 31/31/31
f 21/21/21 31/31/31 30/30/30
f 22/22/22 23/23/23 32/32/32
f 22/22/22 32/32/32 31/31/31
f 23/23/23 24/24/24 33/33/33
f 23/23/23 33/33/33 32/32/32
f 24/24/24 25/25/25 34/34/34
f 24/24/24 34/34/34 33/33/33
f 25/25/25 26/26/26 35/35/35
f 25/25/25 35/35/35 34/34/34
f 26/26/26 27/27/27 36/36/36
f 26/26/26 36/36/36 35/35/35
f 28/28/28 29/29/29 38/38/38
f 28/28/28 38/38/38 37/37/37
f 29/29/29 30/30/30 39/39/39
f 29/29/29 39/39/39 38/38/38
f 30/30/30 31/31/31 40/40/40
f 30/30/30 40/40/40 39/39/39
f 31/31/31 32/32/32 41/41/41
f 31/31/31 41/41/41 40/40/40
f 32/32/32 33/33/33 42/42/42
f 32/32/32 42/42/42 41/41/41
f 33/33/33 34/34/34 43/43/43
f 33/33/33 43/43/43 42/42/42
f 34/34/34 35/35/35 44/44/44
f 34/34/34 44/44/44 43/43/43
f 35/35/35 36/36/36 45/45/45
f 35/35/35 45/45/45 44/44/44
f 37/37/37 38/38/38 47/47/47
f 37/37/37 47/47/47 46/46/46
f 38/38/38 39/39/39 48/48/48
f 38/38/38 48/48/48 47/47/47
f 39/39/39 40/40/40 49/49/49
f 39/39/39 49/49/49 48/48/48
f 40/40/40 41/41/41 50/50/50
f 40/40/40 50/50/50 49/49/49
f 41/41/41 42/42/42 51/51/51
f 41/41/41 51/51/51 50/50/50
f 42/42/42 43/43/43 52/52/52
f 42/42/42 52/52/52 51/51/51
f 43/43/43 44/44/44 53/53/53
f 43/43/43 53/53/53 52/52/52
f 44/44/44 45/45/45 54/54/54
f 44/44/44 54/54/54 53/53/53
f 46/46/46 47/47/47 56/56/56
f 46/46/46 56/56/56 55/55/55
f 47/47/47 48/48/48 57/57/57
f 47/47/47 57/57/57 56/56/56
f 48/48/48 49/49/49 58/58/58
f 48/48/48 58/58/58 57/57/57
f 49/49/49 50/50/50 59/59/59
f 49/49/49 59/59/59 58/58/58
f 50/50/50 51/51/51 60/60/60
f 50/50/50 60/60/60 59/59/59
f 51/51/51 52/52/52 61/61/61
f 51/51/51 61/61/61 60/60/60
f 52/52/52 53/53/53 62/62/62
f 52/52/52 62/62/62 61/61/61
f 53/53/53 54/54/54 63/63/63
f 53/53/53 63/63/63 62/62/62
f 55/55/55 56/56/56 65/65/65
f 55/55/55 65/65/65 64/64/64
f 56/56/56 57/57/57 66/66/66
f 56/56/56 66/66/66 65/65/65
f 57/57/57 58/58/58 67/67/67
f 57/57/57 67/67/67 66/66/66
f 58/58/58 59/59/59 68/68/68
f 58/58/58 68/68/68 67/67/67
f 59/59/59 60/60/60 69/69/69
f 59/59/59 69/69/69 68/68/68
f 60/60/60 61/61/61 70/70/70
f 60/60/60 70/70/70 69/69/69
f 61/61/61 62/62/62 71/71/71
f 61/61/61 71/71/71 70/70/70
f 62/62/62 63/63/63 72/72/72
f 62/62/62 72/72/72 71/71/71
f 64/64/64 65/65/65 74/74/74
f 64/64/64 74/74/74 73/73/73
f 65/65/65 66/66/66 75/75/75
f 65/65/65 75/75/75 74/74/74
f 66/66/66 67/67/67 76/76/76
f 66/66/66 76/76/76 75/75/75
f 67/67/67 68/68/68 77/77/77
f 67/67/67 77/77/77 76/76/76
f 68/68/68 69/69/69 78/78/78
f 68/68/68 78/78/78 77/77/77
f 69/69/69 70/70/70 79/79/79
f 69/69/69 79/79/79 78/78/78
f 70/70/70 71/71/71 80/80/80
f 70/70/70 80/80/80 79/79/79
f 71/71/71 72/72/72 81/81/81
f 71/71/71 81/81/81 80/80/80
f 73/73/73 74/74/74 83/83/83
f 73/73/73 83/83/83 82/82/82
f 74/74/74 75/75/75 84/84/84
f 74/74/74 84/84/84 83/83/83
f 75/75/75 76/76/76 85/85/85
f 75/75/75 85/85/85 84/84/84
f 76/76/76 77/77/77 86/86/86
f 76/76/76 86/86/86 85/85/85
f 77/77/77 78/78/78 87/87/87
f 77/77/77 87/87/87 86/86/86
f 78/78/78 79/79/79 88/88/88
f 78/78/78 88/88/88 87/87/87
f 79/79/79 80/80/80 89/89/89
f 79/79/79 89/89/89 88/88/88
f 80/80/80 81/81/81 90/90/90
f 80/80/80 90/90/90 89/89/89
f 82/82/82 83/83/83 92/92/92
f 82/82/82 92/92/92 91/91/91
f 83/83/83 84/84/84 93/93/93
f 83/83/83 93/93/93 92/92/92
f 84/84/84 85/85/85 94/94/94
f 84/84/84 94/94/94 93/93/93
f 85/85/85 86/86/86 95/95/95
f 85/85/85 95/95/95 94/94/94
f 86/86/86 87/87/87 96/96/96
f 86/86/86 96/96/96 95/95/95
f 87/87/87 88/88/88 97/97/97
f 87/87/87 97/97/97 96/96/96
f 88/88/88 89/89/89 98/98/98
f 88/88/88 98/98/98 97/97/97
f 89/89/89 90/90/90 99/99/99
f 89/89/89 99/99/99 98/98/98
f 91/91/91 92/92/92 101/101/101
f 91/91/91 101/101/101 100/100/100
f 92/92/92 93/93/93 102/102/102
f 92/92/92 102/102/102 101/101/101
f 93/93/93 94/94/94 103/103/103
f 93/93/93 103/103/103 102/102/102
f 94/94/94 95/95/95 104/104/104
f 94/94/94 104/104/104 103/103/103
f 95/95/95 96/96/96 105/105/105
f 95/95/95 105/105/105 104/104/104
f 96/96/96 97/97/97 106/106/106
f 96/96/96 106/106/106 105/105/105
f 97/97/97 98/98/98 107/107/107
f 97/97/97 107/107/107 106/106/106
f 98/98/98 99/99/99 108/108/108
f 98/98/98 108/108/108 107/107/107
f 100/100/100 101/101/101 110/110/110
f 100/100/100 110/110/110 109/109/109
f 101/101/101 102/102/102 111/111/111
f 101/101/101 111/111/111 110/110/110
f 102/102/102 103/103/103 112/112/112
f 102/102/102 112/112/112 111/111/111
f 103/103/103 104/104/104 113/113/113
f 103/103/103 113/113/113 112/112/112
f 104/104/104 105/105/105 114/114/114
f 104/104/104 114/114/114 113/113/113
f 105/105/105 106/106/106 115/115/115
f 105/105/105 115/115/115 114/114/114
f 106/106/106 107/107/107 116/116/116
f 106/106/106 116/116/116 115/115/115
f 107/107/107 108/108/108 117/117/117
f 107/107/107 117/117/117 116/116/116
f 109/109/109 110/110/110 119/119/119
f 109/109/109 119/119/119 118/118/118
f 110/110/110 111/111/111 120/120/120
f 110/110/110 120/120/120 119/119/119
f 111/111/111 112/112/112 121/121/121
f 111/111/111 121/121/121 120/120/120
f 112/112/112 113/113/113 122/122/122
f 112/112/112 122/122/122 121/121/121
f 113/113/113 114/114/114 123/123/123
f 113/113/113 123/123/123 122/122/122
f 114/114/114 115/115/115 124/124/124
f 114/114/114 124/124/124 123/123/123
f 115/115/115 116/116/116 125/125/125
f 115/115/115 125/125/125 124/124/124
f 116/116/116 117/117/117 126/126/126
f 116/116/116 126/126/126 125/125/125
f 118/118/118 119/119/119 128/128/128
f 118/118/118 128/128/128 127/127/127
f 119/119/119 120/120/120 129/129/129
f 119/119/119 129/129/129 128/128/128
f 120/120/120 121/121/121 130/130/130
f 120/120/120 130/130/130 129/129/129
f 121/121/121 122/122/122 131/131/131
f 121/121/121 131/131/131 130/130/130
f 122/122/122 123/123/123 132/132/132
f 122/122/122 132/132/132 131/131/131
f 123/123/123 124/124/124 133/133/133
f 123/123/123 133/133/133 132/132/132
f 124/124/124 125/125/125 134/134/134
f 124/124/124 134/134/134 133/133/133
f 125/125/125 126/126/126 135/135/135
f 125/125/125 135/135/135 134/134/134
f 127/127/127 128/128/128 137/137/137
f 127/127/127 137/137/137 136/136/136
f 128/128/128 129/129/129 138/138/138
f 128/128/128 138/138/138 137/137/137
f 129/129/129 130/130/130 139/139/139
f 129/129/129 139/139/139 138/138/138
f 130/130/130 131/131/131 140/140/140
f 130/130/130 140/140/140 139/139/139
f 131/131/131 132/132/132 141/141/141
f 131/131/131 141/141/141 140/140/140
f 132/132/132 133/133/133 142/142/142
f 132/132/132 142/142/142 141/141/141
f 133/133/133 134/134/134 143/143/143
f 133/133/133 143/143/143 142/142/142
f 134/134/134 135/135/135 144/144/144
f 134/134/134 144/144/144 143/143/143
f 136/136/136 137/137/137 146/146/146
f 136/136/136 146/146/146 145/145/145
f 137/137/137 138/138/138 147/147/147
f 137/137/137 147/147/147 146/146/146
f 138/138/138 139/139/139 148/148/148
f 138/138/138 148/148/148 147/147/147
f 139/139/139 140/140/140 149/149/149
f 139/139/139 149/149/149 148/148/148
f 140/140/140 141/141/141 150/150/150
f 140/140/140 150/150/150 149/149/149
f 141/141/141 142/142/142 151/151/151
f 141/141/141 151/151/151 150/150/150
f 142/142/142 143/143/143 152/152/152
f 142/142/142 152/152/152 151/151/151
f 143/143/143 144/144/144 153/153/153
f 143/143/143 153/153/153 152/152/152
f 145/145/145 146/146/146 155/155/155
f 145/145/145 155/155/155 154/154/154
f 146/146/146 147/147/147 156/156/156
f 146/146/146 156/156/156 155/155/155
f 147/147/147 148/148/148 157/157/157
f 147/147/147 157/157/157 156/156/156
f 148/148/148 149/149/149 158/158/158
f 148/148/148 158/158/158 157/157/157
f 149/149/149 150/150/150 159/159/159
f 149/149/149 159/159/159 158/158/158
f 150/150/150 151/151/151 160/160/160
f 150/150/150 160/160/160 159/159/159
f 151/151/151 152/152/152 161/161/161
f 151/151/151 161/161/161 160/160/160
f 152/152/152 153/153/153 162/162/162
f 152/152/152 162/162/162 161/161/161
f 154/154/154 155/155/155 164/164/164
f 154/154/154 164/164/164 163/163/163
f 155/155/155 156/156/156 165/165/165
f 155/155/155 165/165/165 164/164/164
f 156/156/156 157/157/157 166/166/166
f 156/156/156 166/166/166 165/165/165
f 157/157/157 158/158/158 167/167/167
f 157/157/157 167/167/167 166/166/166
f 158/158/158 159/159/159 168/168/168
f 158/158/158 168/168/168 167/167/167
f 159/159/159 160/160/160 169/169/169
f 159/159/159 169/169/169 168/168/168
f 160/160/160 161/161/161 170/170/170
f 160/160/160 170/170/170 169/169/169
f 161/161/161 162/162/162 171/171/171
f 161/161/161 171/171/171 170/170/170
f 163/163/163 164/164/164 173/173/173
f 163/163/163 173/173/173 172/172/172
f 164/164/164 165/165/165 174/174/174
f 164/164/164 174/174/174 173/173/173
f 165/165/165 166/166/166 175/175/175
f 165/165/165 175/175/175 174/174/174
f 166/166/166 167/167/167 176/176/176
f 166/166/166 176/176/176 175/175/175
f 167/167/167 168/168/168 177/177/177
f 167/167/167 177/177/177 176/176/176
f 168/168/168 169/169/169 178/178/178
f 168/168/168 178/178/178 177/177/177
f 169/169/169 170/170/170 179/179/179
f 169/169/169 179/179/179 178/178/178
f 170/170/170 171/171/171 180/180/180
f 170/170/170 180/180/180 179/179/179
f 172/172/172 173/173/173 182/182/182
f 172/172/172 182/182/182 181/181/181
f 173/173/173 174/174/174 183/183/183
f 173/173/173 183/183/183 182/182/182
f 174/174/174 175/175/175 184/184/184
f 174/174/174 184/184/184 183/183/183
f 175/175/175 176/176/176 185/185/185
f 175/175/175 185/185/185 184/184/184
f 176/176/176 177/177/177 186/186/186
f 176/176/176 186/186/186 185/185/185
f 177/177/177 178/178/178 187/187/187
f 177/177/177 187/187/187 186/186/186
f 178/178/178 179/179/179 188/188/188
f 178/178/178 188/188/188 187/187/187
f 179/179/179 180/180/180 189/189/189
f 179/179/179 189/189/189 188/188/188
f 181/181/181 182/182/182 191/191/191
f 181/181/181 191/191/191 190/190/190
f 182/182/182 183/183/183 192/192/192
f 182/182/182 192/192/192 191/191/191
f 183/183/183 184/184/184 193/193/193
f 183/183/183 193/193/193 192/192/192
f 184/184/184 185/185/185 194/194/194
f 184/184/184 194/194/194 193/193/193
f 185/185/185 186/186/186 195/195/195
f 185/185/185 195/195/195 194/194/194
f 186/186/186 187/187/187 196/196/196
f 186/186/186 196/196/196 195/195/195
f 187/187/187 188/188/188 197/197/197
f 187/187/187 197/197/197 196/196/196
f 188/188/188 189/189/189 198/198/198
f 188/188/188 198/198/198 197/197/197
f 190/190/190 191/191/191 200/200/200
f 190/190/190 200/200/200 199/199/199
f 191/191/191 192/192/192 201/201/201
f 191/191/191 201/201/201 200/200/200
f 192/192/192 193/193/193 202/202/202
f 192/192/192 202/202/202 201/201/201
f 193/193/193 194/194/194 203/203/203
f 193/193/193 203/203/203 202/202/202
f 194/194/194 195/195/195 204/204/204
f 194/194/194 204/204/204 203/203/203
f 195/195/195 196/196/196 205/205/205
f 195/195/195 205/205/205 204/204/204
f 196/196/196 197/197/197 206/206/206
f 196/196/196 206/206/206 205/205/205
f 197/197/197 198/198/198 207/207/207
f 197/197/197 207/207/207 206/206/206
f 199/199/199 200/200/200 209/209/209
f 199/199/199 209/209/209 208/208/208
f 200/200/200 201/201/201 210/210/210
f 200/200/200 210/210/210 209/209/209
f 201/201/201 202/202/202 211/211/211
f 201/201/201 211/211/211 210/210/210
f 202/202/202 203/203/203 212/212/212
f 202/202/202 212/212/212 211/211/211
f 203/203/203 204/204/204 213/213/213
f 203/203/203 213/213/213 212/212/212
f 204/204/204 205/205/205 214/214/214
f 204/204/204 214/214/214 213/213/213
f 205/205/205 206/206/206 215/215/215
f 205/205/205 215/215/215 214/214/214
f 206/206/206 207/207/207 216/216/216
f 206/206/206 216/216/216 215/215/215
f 208/208/208 209/209/209 218/218/218
f 208/208/208 218/218/218 217/217/217
f 209/209/209 210/210/210 219/219/219
f 209/209/209 219/219/219 218/218/218
f 210/210/210 211/211/211 220/220/220
f 210/210/210 220/220/220 219/219/219
f 211/211/211 212/212/212 221/221/221
f 211/211/211 221/221/221 220/220/220
f 212/212/212 213/213/213 222/222/222
f 212/212/212 222/222/222 221/221/221
f 213/213/213 214/214/214 223/223/223
f 213/213/213 223/223/223 222/222/222
f 214/214/214 215/215/215 224/224/224
f 214/214/214 224/224/224 223/223/223
f 215/215/215 216/216/216 225/225/225
f 215/215/215 225/225/225 224/224/224
f 217/217/217 218/218/218 227/227/227
f 217/217/217 227/227/227 226/226/226
f 218/218/218 219/219/219 228/228/228
f 218/218/218 228/228/228 227/227/227
f 219/219/219 220/220/220 229/229/229
f 219/219/219 229/229/229 228/228/228
f 220/220/220 221/221/221 230/230/230
f 220/220/220 230/230/230 229/229/229
f 221/221/221 222/222/222 231/231/231
f 221/221/221 231/231/231 230/230/230
f 222/222/222 223/223/223 232/232/232
f 222/222/222 232/232/232 231/231/231
f 223/223/223 224/224/224 233/233/233
f 223/223/223 233/233/233 232/232/232
f 224/224/224 225/225/225 234/234/234
f 224/224/224 234/234/234 233/233/233
f 226/226/226 227/227/227 236/236/236
f 226/226/226 236/236/236 235/235/235
f 227/227/227 228/228/228 237/237/237
f 227/227/227 237/237/237 236/236/236
f 228/228/228 229/229/229 238/238/238
f 228/228/228 238/238/238 237/237/237
f 229/229/229 230/230/230 239/239/239
f 229/229/229 239/239/239 238/238/238
f 230/230/230 231/231/231 240/240/240
f 230/230/230 240/240/240 239/239/239
f 231/231/231 232/232/232 241/241/241
f 231/231/231 241/241/241 240/240/240
f 232/232/232 233/233/233 242/242/242
f 232/232/232 242/242/242 241/241/241
f 233/233/233 234/234/234 243/243/243
f 233/233/233 243/243/243 242/242/242
f 235/235/235 236/236/236 245/245/245
f 235/235/235 245/245/245 244/244/244
f 236/236/236 237/237/237 246/246/246
f 236/236/236 246/246/246 245/245/245
f 237/237/237 238/238/238 247/247/247
f 237/237/237 247/247/247 246/246/246
f 238/238/238 239/239/239 248/248/248
f 238/238/238 248/248/248 247/247/247
f 239/239/239 240/240/240 249/249/249
f 239/239/239 249/249/249 248/248/248
f 240/240/240 241/241/241 250/250/250
f 240/240/240 250/250/250 249/249/249
f 241/241/241 242/242/242 251/251/251
f 241/241/241 251/251/251 250/250/250
f 242/242/242 243/243/243 252/252/252
f 242/242/242 252/252/252 251/251/251
f 244/244/244 245/245/245 254/254/254
f 244/244/244 254/254/254 253/253/253
f 245/245/245 246/246/246 255/255/255
f 245/245/245 255/255/255 254/254/254
f 246/246/246 247/247/247 256/256/256
f 246/246/246 256/256/256 255/255/255
f 247/247/247 248/248/248 257/257/257
f 247/247/247 257/257/257 256/256/256
f 248/248/248 249/249/249 258/258/258
f 248/248/248 258/258/258 257/257/257
f 249/249/249 250/250/250 259/259/259
f 249/249/249 259/259/259 258/258/258
f 250/250/250 251/251/251 260/260/260
f 250/250/250 260/260/260 259/259/259
f 251/251/251 252/252/252 261/261/261
f 251/251/251 261/261/261 260/260/260
f 253/253/253 254/254/254 263/263/263
f 253/253/253 263/263/263 262/262/262
f 254/254/254 255/255/255 264/264/264
f 254/254/254 264/264/264 263/263/263
f 255/255/255 256/256/256 265/265/265
f 255/255/255 265/265/265 264/264/264
f 256/256/256 257/257/257 266/266/266
f 256/256/256 266/266/266 265/265/265
f 257/257/257 258/258/258 267/267/267
f 257/257/257 267/267/267 266/266/266
f 258/258/258 259/259/259 268/268/268
f 258/258/258 268/268/268 267/267/267
f 259/259/259 260/260/260 269/269/269
f 259/259/259 269/269/269 268/268/268
f 260/260/260 261/261/261 270/270/270
f 260/260/260 270/270/270 269/269/269
f 262/262/262 263/263/263 272/272/272
f 262/262/262 272/272/272 271/271/271
f 263/263/263 264/264/264 273/273/273
f 263/263/263 273/273/273 272/272/272
f 264/264/264 265/265/265 274/274/274
f 264/264/264 274/274/274 273/273/273
f 265/265/265 266/266/266 275/275/275
f 265/265/265 275/275/275 274/274/274
f 266/266/266 267/267/267 276/276/276
f 266/266/266 276/276/276 275/275/275
f 267/267/267 268/268/268 277/277/277
f 267/267/267 277/277/277 276/276/276
f 268/268/268 269/269/269 278/278/278
f 268/268/268 278/278/278 277/277/277
f 269/269/269 270/270/270 279/279/279
f 269/269/269 279/279/279 278/278/278
f 271/271/271 272/272/272 281/281/281
f 271/271/271 281/281/281 280/280/280
f 272/272/272 273/273/273 282/282/282
f 272/272/272 282/282/282 281/281/281
f 273/273/273 274/274/274 283/283/283
f 273/273/273 283/283/283 282/282/282
f 274/274/274 275/275/275 284/284/284
f 274/274/274 284/284/284 283/283/283
f 275/275/275 276/276/276 285/285/285
f 275/275/275 285/285/285 284/284/284
f 276/276/276 277/277/277 286/286/286
f 276/276/276 286/286/286 285/285/285
f 277/277/277 278/278/278 287/287/287
f 277/277/277 287/287/287 286/286/286
f 278/278/278 279/279/279 288/288/288
f 278/278/278 288/288/288 287/287/287
f 280/280/280 281/281/281 290/290/290
f 280/280/280 290/290/290 289/289/289
f 281/281/281 282/282/282 291/291/291
f 281/281/281 291/291/291 290/290/290
f 282/282/282 283/283/283 292/292/292
f 282/282/282 292/292/292 291/291/291
f 283/283/283 284/284/284 293/293/293
f 283/283/283 293/293/293 292/292/292
f 284/284/284 285/285/285 294/294/294
f 284/284/284 294/294/294 293/293/293
f 285/285/285 286/286/286 295/295/295
f 285/285/285 295/295/295 294/294/294
f 286/286/286 287/287/287 296/296/296
f 286/286/286 296/296/296 295/295/295
f 287/287/287 288/288/288 297/297/297
f 287/287/287 297/297/297 296/296/296
f 289/289/289 290/290/290 299/299/299
f 289/289/289 299/299/299 298/298/298
f 290/290/290 291/291/291 300/300/300
f 290/290/290 300/300/300 299/299/299
f 291/291/291 292/292/292 301/301/301
f 291/291/291 301/301/301 300/300/300
f 292/292/292 293/293/293 302/302/302
f 292/292/292 302/302/302 301/301/301
f 293/293/293 294/294/294 303/303/303
f 293/293/293 303/303/303 302/302/302
f 294/294/294 295/295/295 304/304/304
f 294/294/294 304/304/304 303/303/303
f 295/295/295 296/296/296 305/305/305
f 295/295/295 305/305/305 304/304/304
f 296/296/296 297/297/297 306/306/306
f 296/296/296 306/306/306 305/305/305
f 298/298/298 299/299/299 308/308/308
f 298/298/298 308/308/308 307/307/307
f 299/299/299 300/300/300 309/309/309
f 299/299/299 309/309/309 308/308/308
f 300/300/300 301/301/301 310/310/310
f 300/300/300 310/310/310 309/309/309
f 301/301/301 302/302/302 311/311/311
f 301/301/301 311/311/311 310/310/310
f 302/302/302 303/303/303 312/312/312
f 302/302/302 312/312/312 311/311/311
f 303/303/303 304/304/304 313/313/313
f 303/303/303 313/313/313 312/312/312
f 304/304/304 305/305/305 314/314/314
f 304/304/304 314/314/314 313/313/313
f 305/305/305 306/306/306 315/315/315
f 305/305/305 315/315/315 314/314/314
f 307/307/307 308/308/308 317/317/317
f 307/307/307 317/317/317 316/316/316
f 308/308/308 309/309/309 318/318/318
f 308/308/308 318/318/318 317/317/317
f 309/309/309 310/310/310 319/319/319
f 309/309/309 319/319/319 318/318/318
f 310/310/310 311/311/311 320/320/320
f 310/310/310 320/320/320 319/319/319
f 311/311/311 312/312/312 321/321/321
f 311/311/311 321/321/321 320/320/320
f 312/312/312 313/313/313 322/322/322
f 312/312/312 322/322/322 321/321/321
f 313/313/313 314/314/314 323/323/323
f 313/313/313 323/323/323 322/322/322
f 314/314/314 315/315/315 324/324/324
f 314/314/314 324/324/324 323/323/323
f 316/316/316 317/317/317 326/326/326
f 316/316/316 326/326/326 325/325/325
f 317/317/317 318/318/318 327/327/327
f 317/317/317 327/327/327 326/326/326
f 318/318/318 319/319/319 328/328/328
f 318/318/318 328/328/328 327/327/327
f 319/319/319 320/320/320 329/329/329
f 319/319/319 329/329/329 328/328/328
f 320/320/320 321/321/321 330/330/330
f 320/320/320 330/330/330 329/329/329
f 321/321/321 322/322/322 331/331/331
f 321/321/321 331/331/331 330/330/330
f 322/322/322 323/323/323 332/332/332
f 322/322/322 332/332/332 331/331/331
f 323/323/323 324/324/324 333/333/333
f 323/323/323 333/333/333 332/332/332
f 325/325/325 326/326/326 335/335/335
f 325/325/325 335/335/335 334/334/334
f 326/326/326 327/327/327 336/336/336
f 326/326/326 336/336/336 335/335/335
f 327/327/327 328/328/328 337/337/337
f 327/327/327 337/337/337 336/336/336
f 328/328/328 329/329/329 338/338/338
f 328/328/328 338/338/338 337/337/337
f 329/329/329 330/330/330 339/339/339
f 329/329/329 339/339/339 338/338/338
f 330/330/330 331/331/331 340/340/340
f 330/330/330 340/340/340 339/339/339
f 331/331/331 332/332/332 341/341/341
f 331/331/331 341/341/341 340/340/340
f 332/332/332 333/333/333 342/342/342
f 332/332/332 342/342/342 341/341/341
f 334/334/334 335/335/335 344/344/344
f 334/334/334 344/344/344 343/343/343
f 335/335/335 336/336/336 345/345/345
f 335/335/335 345/345/345 344/344/344
f 336/336/336 337/337/337 346/346/346
f 336/336/336 346/346/346 345/345/345
f 337/337/337 338/338/338 347/347/347
f 337/337/337 347/347/347 346/346/346
f 338/338/338 339/339/339 348/348/348
f 338/338/338 348/348/348 347/347/347
f 339/339/339 340/340/340 349/349/349
f 339/339/339 349/349/349 348/348/348
f 340/340/340 341/341/341 350/350/350
f 340/340/340 350/350/350 349/349/349
f 341/341/341 342/342/342 351/351/351
f 341/341/341 351/351/351 350/350/350
f 343/343/343 344/344/344 353/353/353
f 343/343/343 353/353/353 352/352/352
f 344/344/344 345/345/345 354/354/354
f 344/344/344 354/354/354 353/353/353
f 345/345/345 346/346/346 355/355/355
f 345/345/345 355/355/355 354/354/354
f 346/346/346 347/347/347 356/356/356
f 346/346/346 356/356/356 355/355/355
f 347/347/347 348/348/348 357/357/357
f 347/347/347 357/357/357 356/356/356
f 348/348/348 349/349/349 358/358/358
f 348/348/348 358/358/358 357/357/357
f 349/349/349 350/350/350 359/359/359
f 349/349/349 359/359/359 358/358/358
f 350/350/350 351/351/351 360/360/360
f 350/350/350 360/360/360 359/359/359
f 352/352/352 353/353/353 362/362/362
f 352/352/352 362/362/362 361/361/361
f 353/353/353 354/354/354 363/363/363
f 353/353/353 363/363/363 362/362/362
f 354/354/354 355/355/355 364/364/364
f 354/354/354 364/364/364 363/363/363
f 355/355/355 356/356/356 365/365/365
f 355/355/355 365/365/365 364/364/364
f 356/356/356 357/357/357 366/366/366
f 356/356/356 366/366/366 365/365/365
f 357/357/357 358/358/358 367/367/367
f 357/357/357 367/367/367 366/366/366
f 358/358/358 359/359/359 368/368/368
f 358/358/358 368/368/368 367/367/367
f 359/359/359 360/360/360 369/369/369
f 359/359/359 369/369/369 368/368/368
f 361/361/361 362/362/362 371/371/371
f 361/361/361 371/371/371 370/370/370
f 362/362/362 363/363/363 372/372/372
f 362/362/362 372/372/372 371/371/371
f 363/363/363 364/364/364 373/373/373
f 363/363/363 373/373/373 372/372/372
f 364/364/364 365/365/365 374/374/374
f 364/364/364 374/374/374 373/373/373
f 365/365/365 366/366/366 375/375/375
f 365/365/365 375/375/375 374/374/374
f 366/366/366 367/367/367 376/376/376
f 366/366/366 376/376/376 375/375/375
f 367/367/367 368/368/368 377/377/377
f 367/367/367 377/377/377 376/376/376
f 368/368/368 369/369/369 378/378/378
f 368/368/368 378/378/378 377/377/377
f 370/370/370 371/371/371 380/380/380
f 370/370/370 380/380/380 379/379/379
f 371/371/371 372/372/372 381/381/381
f 371/371/371 381/381/381 380/380/380
f 372/372/372 373/373/373 382/382/382
f 372/372/372 382/382/382 381/381/381
f 373/373/373 374/374/374 383/383/383
f 373/373/373 383/383/383 382/382/382
f 374/374/374 375/375/375 384/384/384
f 374/374/374 384/384/384 383/383/383
f 375/375/375 376/376/376 385/385/385
f 375/375/375 385/385/385 384/384/384
f 376/376/376 377/377/377 386/386/386
f 376/376/376 386/386/386 385/385/385
f 377/377/377 378/378/378 387/387/387
f 377/377/377 387/387/387 386/386/386
f 379/379/379 380/380/380 389/389/389
f 379/379/379 389/389/389 388/388/388
f 380/380/380 381/381/381 390/390/390
f 380/380/380 390/390/390 389/389/389
f 381/381/381 382/382/382 391/391/391
f 381/381/381 391/391/391 390/390/390
f 382/382/382 383/383/383 392/392/392
f 382/382/382 392/392/392 391/391/391
f 383/383/383 384/384/384 393/393/393
f 383/383/383 393/393/393 392/392/392
f 384/384/384 385/385/385 394/394/394
f 384/384/384 394/394/394 393/393/393
f 385/385/385 386/386/386 395/395/395
f 385/385/385 395/395/395 394/394/394
f 386/386/386 387/387/387 396/396/396
f 386/386/386 396/396/396 395/395/395
f 388/388/388 389/389/389 398/398/398
f 388/388/388 398/398/398 397/397/397
f 389/389/389 390/390/390 399/399/399
f 389/389/389 399/399/399 398/398/398
f 390/390/390 391/391/391 400/400/400
f 390/390/390 400/400/400 399/399/399
f 391/391/391 392/392/392 401/401/401
f 391/391/391 401/401/401 400/400/400
f 392/392/392 393/393/393 402/402/402
f 392/392/392 402/402/402 401/401/401
f 393/393/393 394/394/394 403/403/403
f 393/393/393 403/403/403 402/402/402
f 394/394/394 395/395/395 404/404/404
f 394/394/394 404/404/404 403/403/403
f 395/395/395 396/396/396 405/405/405
f 395/395/395 405/405/405 404/404/404
f 397/397/397 398/398/398 407/407/407
f 397/397/397 407/407/407 406/406/406
f 398/398/398 399/399/399 408/408/408
f 398/398/398 408/408/408 407/407/407
f 399/399/399 400/400/400 409/409/409
f 399/399/399 409/409/409 408/408/408
f 400/400/400 401/401/401 410/410/410
f 400/400/400 410/410/410 409/409/409
f 401/401/401 402/402/402 411/411/411
f 401/401/401 411/411/411 410/410/410
f 402/402/402 403/403/403 412/412/412
f 402/402/402 412/412/412 411/411/411
f 403/403/403 404/404/404 413/413/413
f 403/403/403 413/413/413 412/412/412
f 404/404/404 405/405/405 414/414/414
f 404/404/404 414/414/414 413/413/413
f 406/406/406 407/407/407 462/462/462
f 407/407/407 408/408/408 462/462/462
f 408/408/408 409/409/409 462/462/462
f 409/409/409 410/410/410 462/462/462
f 410/410/410 411/411/411 462/462/462
f 411/411/411 412/412/412 462/462/462
f 412/412/412 413/413/413 462/462/462
f 413/413/413 414/414/414 462/462/462
f 1/1/1 1/1/1 1/1/1
f 1/1/1 1/1/1 1/1/1
f 1/1/1 1/1/1 1/1/1
f 1/1/1 1/1/1 1/1/1
f 1/1/1 1/1/1 1/1/1
f 1/1/1 1/1/1 1/1/1
f 1/1/1 1/1/1 1/1/1
f 1/1/1 1/1/1 1/1/1
f 1/1/1 1/1/1 1/1/1
f 1/1/1 1/1/1 1/1/1
f 1/1/1 1/1/1 1/1/1
f 1/1/1 1/1/1 1/1/1
f 1/1/1 1/1/1 1/1/1
f 1/1/1 1/1/1 1/1/1
f 1/1/1 1/1/1 1/1/1
f 1/1/1 1/1/1 1/1/1
f 1/1/1 1/1/1 1/1/1
f 1/1/1 1/1/1 1/1/1
f 1/1/1 1/1/1 1/1/1
f 1/1/1 1/1/1 1/1/1
f 1/1/1 1/1/1 1/1/1
f 1/1/1 1/1/1 1/1/1
f 1/1/1 1/1/1 1/1/1
f 1/1/1 1/1/1 1/1/1
f 1/1/1 1/1/1 1/1/1
f 1/1/1 1/1/1 1/1/1
f 1/1/1 1/1/1 1/1/1
f 1/1/1 1/1/1 1/1/1
f 1/1/1 1/1/1 1/1/1
f 1/1/1 1/1/1 1/1/1
f 1/1/1 1/1/1 1/1/1
f 1/1/1 1/1/1 1/1/1
f 1/1/1 1/1/1 1/1/1
f 1/1/1 1/1/1 1/1/1
f 1/1/1 1/1/1 1/1/1
f 1/1/1 1/1/1 1/1/1
f 1/1/1 1/1/1 1/1/1
f 1/1/1 1/1/1 1/1/1
f 1/1/1 1/1/1 1/1/1
f 1/1/1 1/1/1 1/1/1
f 1/1/1 1/1/1 1/1/1
f 1/1/1 1/1/1 1/1/1
f 1/1/1 1/1/1 1/1/1
f 1/1/1 1/1/1 1/1/1
f 1/1/1 1/1/1 1/1/1
f 1/1/1 1/1/1 1/1/1
f 1/1/1 1/1/1 1/1/1
f 1/1/1 1/1/1 1/1/1
f 1/1/1 1/1/1 1/1/1
f 1/1/1 1/1/1 1/1/1
f 1/1/1 1/1/1 1/1/1
f 1/1/1 1/1/1 1/1/1
f 1/1/1 1/1/1 1/1/1
f 1/1/1 1/1/1 1/1/1
f 1/1/1 1/1/1 1/1/1
f 1/1/1 1/1/1 1/1/1
f 1/1/1 1/1/1 1/1/1
f 1/1/1 1/1/1 1/1/1
f 1/1/1 1/1/1 1/1/1
f 1/1/1 1/1/1 1/1/1
f 1/1/1 1/1/1 1/1/1
f 1/1/1 1/1/1 1/1/1
f 1/1/1 1/1/1 1/1/1
f 1/1/1 1/1/1 1/1/1
f 1/1/1 1/1/1 1/1/1
f 1/1/1 1/1/1 1/1/1
f 1/1/1 1/1/1 1/1/1
f 1/1/1 1/1/1 1/1/1
f 1/1/1 1/1/1 1/1/1
f 1/1/1 1/1/1 1/1/1
f 1/1/1 1/1/1 1/1/1
f 1/1/1 1/1/1 1/1/1
f 1/1/1 1/1/1 1/1/1
f 1/1/1 1/1/1 1/1/1
f 1/1/1 1/1/1 1/1/1
f 1/1/1 1/1/1 1/1/1
f 1/1/1 1/1/1 1/1/1
f 1/1/1 1/1/1 1/1/1
f 1/1/1 1/1/1 1/1/1
f 1/1/1 1/1/1 1/1/1
f 1/1/1 1/1/1 1/1/1
f 1/1/1 1/1/1 1/1/1
f 1/1/1 1/1/1 1/1/1
f 1/1/1 1/1/1 1/1/1
f 1/1/1 1/1/1 1/1/1
f 1/1/1 1/1/1 1/1/1
f 1/1/1 1/1/1 1/1/1
f 1/1/1 1/1/1 1/1/1
f 1/1/1 1/1/1 1/1/1
f 1/1/1 1/1/1 1/1/1
f 1/1/1 1/1/1 1/1/1
f 1/1/1 1/1/1 1/1/1
f 1/1/1 1/1/1 1/1/1
f 1/1/1 1/1/1 1/1/1
f 1/1/1 1/1/1 1/1/1
f 1/1/1 1/1/1 1/1/1
f 1/1/1 1/1/1 1/1/1
f 1/1/1 1/1/1 1/1/1
f 1/1/1 1/1/1 1/1/1
f 1/1/1 1/1/1 1/1/1
f 1/1/1 1/1/1 1/1/1
f 1/1/1 1/1/1 1/1/1
f 1/1/1 1/1/1 1/1/1
f 1/1/1 1/1/1 1/1/1
f 1/1/1 1/1/1 1/1/1
f 1/1/1 1/1/1 1/1/1
f 1/1/1 1/1/1 1/1/1
f 1/1/1 1/1/1 1/1/1
f 1/1/1 1/1/1 1/1/1
f 1/1/1 1/1/1 1/1/1
f 1/1/1 1/1/1 1/1/1
f 1/1/1 1/1/1 1/1/1
f 1/1/1 1/1/1 1/1/1
f 1/1/1 1/1/1 1/1/1
f 1/1/1 1/1/1 1/1/1
f 1/1/1 1/1/1 1/1/1
f 1/1/1 1/1/1 1/1/1
f 1/1/1 1/1/1 1/1/1
f 1/1/1 1/1/1 1/1/1
f 1/1/1 1/1/1 1/1/1
f 1/1/1 1/1/1 1/1/1
f 1/1/1 1/1/1 1/1/1
f 1/1/1 1/1/1 1/1/1
f 1/1/1 1/1/1 1/1/1
f 1/1/1 1/1/1 1/1/1
f 1/1/1 1/1/1 1/1/1
f 1/1/1 1/1/1 1/1/1
f 1/1/1 1/1/1 1/1/1
f 1/1/1 1/1/1 1/1/1
f 1/1/1 1/1/1 1/1/1
f 1/1/1 1/1/1 1/1/1
f 1/1/1 1/1/1 1/1/1
f 1/1/1 1/1/1 1/1/1
f 1/1/1 1/1/1 1/1/1
f 1/1/1 1/1/1 1/1/1
f 1/1/1 1/1/1 1/1/1
f 1/1/1 1/1/1 1/1/1
f 1/1/1 1/1/1 1/1/1
f 1/1/1 1/1/1 1/1/1
f 1/1/1 1/1/1 1/1/1
f 1/1/1 1/1/1 1/1/1
f 1/1/1 1/1/1 1/1/1
f 1/1/1 1/1/1 1/1/1
f 1/1/1 1/1/1 1/1/1
f 1/1/1 1/1/1 1/1/1
f 1/1/1 1/1/1 1/1/1
f 1/1/1 1/1/1 1/1/1
f 1/1/1 1/1/1 1/1/1
f 1/1/1 1/1/1 1/1/1
f 1/1/1 1/1/1 1/1/1
f 1/1/1 1/1/1 1/1/1
f 1/1/1 1/1/1 1/1/1
f 1/1/1 1/1/1 1/1/1
f 1/1/1 1/1/1 1/1/1
f 1/1/1 1/1/1 1/1/1
f 1/1/1 1/1/1 1/1/1
f 1/1/1 1/1/1 1/1/1
f 1/1/1 1/1/1 1/1/1
f 1/1/1 1/1/1 1/1/1
f 1/1/1 1/1/1 1/1/1
f 1/1/1 1/1/1 1/1/1
f 1/1/1 1/1/1 1/1/1
f 1/1/1 1/1/1 1/1/1
f 1/1/1 1/1/1 1/1/1
f 1/1/1 1/1/1 1/1/1
f 1/1/1 1/1/1 1/1/1
f 1/1/1 1/1/1 1/1/1
f 1/1/1 1/1/1 1/1/1
f 1/1/1 1/1/1 1/1/1
f 1/1/1 1/1/1 1/1/1
f 1/1/1 1/1/1 1/1/1
f 1/1/1 1/1/1 1/1/1
f 1/1/1 1/1/1 1/1/1
f 1/1/1 1/1/1 1/1/1
f 1/1/1 1/1/1 1/1/1
f 1/1/1 1/1/1 1/1/1
f 1/1/1 1/1/1 1/1/1
f 1/1/1 1/1/1 1/1/1
f 1/1/1 1/1/1 1/1/1
f 1/1/1 1/1/1 1/1/1
f 1/1/1 1/1/1 1/1/1
f 1/1/1 1/1/1 1/1/1
f 1/1/1 1/1/1 1/1/1
f 1/1/1 1/1/1 1/1/1
f 1/1/1 1/1/1 1/1/1
f 1/1/1 1/1/1 1/1/1
f 1/1/1 1/1/1 1/1/1
f 1/1/1 1/1/1 1/1/1
f 1/1/1 1/1/1 1/1/1
f 1/1/1 1/1/1 1/1/1
f 1/1/1 1/1/1 1/1/1
f 1/1/1 1/1/1 1/1/1
f 1/1/1 1/1/1 1/1/1
f 1/1/1 1/1/1 1/1/1
f 1/1/1 1/1/1 1/1/1
f 1/1/1 1/1/1 1/1/1
f 1/1/1 1/1/1 1/1/1
f 1/1/1 1/1/1 1/1/1
f 1/1/1 1/1/1 1/1/1
f 1/1/1 1/1/1 1/1/1
f 1/1/1 1/1/1 1/1/1
f 1/1/1 1/1/1 1/1/1
f 1/1/1 1/1/1 1/1/1
f 1/1/1 1/1/1 1/1/1
f 1/1/1 1/1/1 1/1/1
f 1/1/1 1/1/1 1/1/1
f 1/1/1 1/1/1 1/1/1
f 1/1/1 1/1/1 1/1/1
f 1/1/1 1/1/1 1/1/1
f 1/1/1 1/1/1 1/1/1
f 1/1/1 1/1/1 1/1/1
f 1/1/1 1/1/1 1/1/1
f 1/1/1 1/1/1 1/1/1
f 1/1/1 1/1/1 1/1/1
f 1/1/1 1/1/1 1/1/1
f 1/1/1 1/1/1 1/1/1
f 1/1/1 1/1/1 1/1/1
f 1/1/1 1/1/1 1/1/1
f 1/1/1 1/1/1 1/1/1
f 1/1/1 1/1/1 1/1/1
f 1/1/1 1/1/1 1/1/1
f 1/1/1 1/1/1 1/1/1
f 1/1/1 1/1/1 1/1/1
f 1/1/1 1/1/1 1/1/1
f 1/1/1 1/1/1 1/1/1
f 1/1/1 1/1/1 1/1/1
f 1/1/1 1/1/1 1/1/1
f 1/1/1 1/1/1 1/1/1
f 1/1/1 1/1/1 1/1/1
f 1/1/1 1/1/1 1/1/1
f 1/1/1 1/1/1 1/1/1
f 1/1/1 1/1/1 1/1/1
f 1/1/1 1/1/1 1/1/1
f 1/1/1 1/1/1 1/1/1
f 1/1/1 1/1/1 1/1/1
f 1/1/1 1/1/1 1/1/1
f 1/1/1 1/1/1 1/1/1
f 1/1/1 1/1/1 1/1/1
f 1/1/1 1/1/1 1/1/1
f 1/1/1 1/1/1 1/1/1
f 1/1/1 1/1/1 1/1/1
f 1/1/1 1/1/1 1/1/1
f 1/1/1 1/1/1 1/1/1
f 1/1/1 1/1/1 1/1/1
f 1/1/1 1/1/1 1/1/1
f 1/1/1 1/1/1 1/1/1
f 1/1/1 1/1/1 1/1/1
f 1/1/1 1/1/1 1/1/1
f 1/1/1 1/1/1 1/1/1
f 1/1/1 1/1/1 1/1/1
f 1/1/1 1/1/1 1/1/1
f 1/1/1 1/1/1 1/1/1
f 1/1/1 1/1/1 1/1/1
f 1/1/1 1/1/1 1/1/1
f 1/1/1 1/1/1 1/1/1
f 1/1/1 1/1/1 1/1/1
f 1/1/1 1/1/1 1/1/1
f 1/1/1 1/1/1 1/1/1
f 1/1/1 1/1/1 1/1/1
f 1/1/1 1/1/1 1/1/1
f 1/1/1 1/1/1 1/1/1
f 1/1/1 1/1/1 1/1/1
f 1/1/1 1/1/1 1/1/1
f 1/1/1 1/1/1 1/1/1
f 1/1/1 1/1/1 1/1/1
f 1/1/1 1/1/1 1/1/1
f 1/1/1 1/1/1 1/1/1
f 1/1/1 1/1/1 1/1/1
f 1/1/1 1/1/1 1/1/1
f 1/1/1 1/1/1 1/1/1
f 1/1/1 1/1/1 1/1/1
f 1/1/1 1/1/1 1/1/1
f 1/1/1 1/1/1 1/1/1
f 1/1/1 1/1/1 1/1/1
f 1/1/1 1/1/1 1/1/1
f 1/1/1 1/1/1 1/1/1
f 1/1/1 1/1/1 1/1/1
f 1/1/1 1/1/1 1/1/1
f 1/1/1 1/1/1 1/1/1
f 1/1/1 1/1/1 1/1/1
f 1/1/1 1/1/1 1/1/1
f 1/1/1 1/1/1 1/1/1
f 1/1/1 1/1/1 1/1/1
f 1/1/1 1/1/1 1/1/1
f 1/1/1 1/1/1 1/1/1
f 1/1/1 1/1/1 1/1/1
f 1/1/1 1/1/1 1/1/1
f 1/1/1 1/1/1 1/1/1
f 1/1/1 1/1/1 1/1/1
f 1/1/1 1/1/1 1/1/1
f 1/1/1 1/1/1 1/1/1
f 1/1/1 1/1/1 1/1/1
f 1/1/1 1/1/1 1/1/1
f 1/1/1 1/1/1 1/1/1
f 1/1/1 1/1/1 1/1/1
f 1/1/1 1/1/1 1/1/1
f 1/1/1 1/1/1 1/1/1
f 1/1/1 1/1/1 1/1/1
f 1/1/1 1/1/1 1/1/1
f 1/1/1 1/1/1 1/1/1
f 1/1/1 1/1/1 1/1/1
f 1/1/1 1/1/1 1/1/1
f 1/1/1 1/1/1 1/1/1
f 1/1/1 1/1/1 1/1/1
f 1/1/1 1/1/1 1/1/1
f 1/1/1 1/1/1 1/1/1
f 1/1/1 1/1/1 1/1/1
f 1/1/1 1/1/1 1/1/1
f 1/1/1 1/1/1 1/1/1
f 1/1/1 1/1/1 1/1/1
f 1/1/1 1/1/1 1/1/1
f 1/1/1 1/1/1 1/1/1
f 1/1/1 1/1/1 1/1/1
f 1/1/1 1/1/1 1/1/1
f 1/1/1 1/1/1 1/1/1
f 1/1/1 1/1/1 1/1/1
f 1/1/1 1/1/1 1/1/1
f 1/1/1 1/1/1 1/1/1
f 1/1/1 1/1/1 1/1/1
f 1/1/1 1/1/1 1/1/1
f 1/1/1 1/1/1 1/1/1
f 1/1/1 1/1/1 1/1/1
f 1/1/1 1/1/1 1/1/1
f 1/1/1 1/1/1 1/1/1
f 1/1/1 1/1/1 1/1/1
f 1/1/1 1/1/1 1/1/1
f 1/1/1 1/1/1 1/1/1
f 1/1/1 1/1/1 1/1/1
f 1/1/1 1/1/1 1/1/1
f 1/1/1 1/1/1 1/1/1
f 1/1/1 1/1/1 1/1/1
f 1/1/1 1/1/1 1/1/1
f 1/1/1 1/1/1 1/1/1
f 1/1/1 1/1/1 1/1/1
f 1/1/1 1/1/1 1/1/1
f 1/1/1 1/1/1 1/1/1
f 1/1/1 1/1/1 1/1/1
f 1/1/1 1/1/1 1/1/1
f 1/1/1 1/1/1 1/1/1
f 1/1/1 1/1/1 1/1/1
f 1/1/1 1/1/1 1/1/1
f 1/1/1 1/1/1 1/1/1
f 1/1/1 1/1/1 1/1/1
f 1/1/1 1/1/1 1/1/1
f 1/1/1 1/1/1 1/1/1
f 1/1/1 1/1/1 1/1/1
f 1/1/1 1/1/1 1/1/1
f 1/1/1 1/1/1 1/1/1
f 1/1/1 1/1/1 1/1/1
f 1/1/1 1/1/1 1/1/1
f 1/1/1 1/1/1 1/1/1
f 1/1/1 1/1/1 1/1/1
f 1/1/1 1/1/1 1/1/1
f 1/1/1 1/1/1 1/1/1
f 1/1/1 1/1/1 1/1/1
f 1/1/1 1/1/1 1/1/1
f 1/1/1 1/1/1 1/1/1
f 1/1/1 1/1/1 1/1/1
f 1/1/1 1/1/1 1/1/1
f 1/1/1 1/1/1 1/1/1
f 1/1/1 1/1/1 1/1/1
f 1/1/1 1/1/1 1/1/1
f 1/1/1 1/1/1 1/1/1
f 1/1/1 1/1/1 1/1/1
f 1/1/1 1/1/1 1/1/1
f 1/1/1 1/1/1 1/1/1
f 1/1/1 1/1/1 1/1/1
f 1/1/1 1/1/1 1/1/1
f 1/1/1 1/1/1 1/1/1
f 1/1/1 1/1/1 1/1/1
f 1/1/1 1/1/1 1/1/1
f 1/1/1 1/1/1 1/1/1
f 1/1/1 1/1/1 1/1/1
f 1/1/1 1/1/1 1/1/1
f 1/1/1 1/1/1 1/1/1
f 1/1/1 1/1/1 1/1/1
f 1/1/1 1/1/1 1/1/1
f 1/1/1 1/1/1 1/1/1
f 1/1/1 1/1/1 1/1/1
f 1/1/1 1/1/1 1/1/1
f 1/1/1 1/1/1 1/1/1
f 1/1/1 1/1/1 1/1/1
f 1/1/1 1/1/1 1/1/1
f 1/1/1 1/1/1 1/1/1
f 1/1/1 1/1/1 1/1/1
f 1/1/1 1/1/1 1/1/1
f 1/1/1 1/1/1 1/1/1
f 1/1/1 1/1/1 1/1/1
f 1/1/1 1/1/1 1/1/1
f 1/1/1 1/1/1 1/1/1
f 1/1/1 1/1/1 1/1/1
f 1/1/1 1/1/1 1/1/1
f 1/1/1 1/1/1 1/1/1
f 1/1/1 1/1/1 1/1/1
f 1/1/1 1/1/1 1/1/1
f 1/1/1 1/1/1 1/1/1
f 1/1/1 1/1/1 1/1/1
f 1/1/1 1/1/1 1/1/1
f 1/1/1 1/1/1 1/1/1
f 1/1/1 1/1/1 1/1/1
f 1/1/1 1/1/1 1/1/1
f 1/1/1 1/1/1 1/1/1
f 1/1/1 1/1/1 1/1/1
f 1/1/1 1/1/1 1/1/1
f 1/1/1 1/1/1 1/1/1
f 1/1/1 1/1/1 1/1/1
f 1/1/1 1/1/1 1/1/1
f 1/1/1 1/1/1 1/1/1
f 1/1/1 1/1/1 1/1/1
f 1/1/1 1/1/1 1/1/1
f 1/1/1 1/1/1 1/1/1
f 1/1/1 1/1/1 1/1/1
f 1/1/1 1/1/1 1/1/1
f 1/1/1 1/1/1 1/1/1
f 1/1/1 1/1/1 1/1/1
f 1/1/1 1/1/1 1/1/1
f 1/1/1 1/1/1 1/1/1
f 1/1/1 1/1/1 1/1/1
f 1/1/1 1/1/1 1/1/1
f 1/1/1 1/1/1 1/1/1
f 1/1/1 1/1/1 1/1/1
f 1/1/1 1/1/1 1/1/1
f 1/1/1 1/1/1 1/1/1
f 1/1/1 1/1/1 1/1/1
f 1/1/1 1/1/1 1/1/1
f 1/1/1 1/1/1 1/1/1
f 1/1/1 1/1/1 1/1/1
f 1/1/1 1/1/1 1/1/1
f 1/1/1 1/1/1 1/1/1
f 1/1/1 1/1/1 1/1/1
f 1/1/1 1/1/1 1/1/1
f 1/1/1 1/1/1 1/1/1
f 1/1/1 1/1/1 1/1/1
f 1/1/1 1/1/1 1/1/1
f 1/1/1 1/1/1 1/1/1
f 1/1/1 1/1/1 1/1/1
f 1/1/1 1/1/1 1/1/1
f 1/1/1 1/1/1 1/1/1
f 1/1/1 1/1/1 1/1/1
f 1/1/1 1/1/1 1/1/1
f 1/1/1 1/1/1 1/1/1
f 1/1/1 1/1/1 1/1/1
f 1/1/1 1/1/1 1/1/1
f 1/1/1 1/1/1 1/1/1
f 1/1/1 1/1/1 1/1/1
f 1/1/1 1/1/1 1/1/1
f 1/1/1 1/1/1 1/1/1
f 1/1/1 1/1/1 1/1/1
f 1/1/1 1/1/1 1/1/1
f 1/1/1 1/1/1 1/1/1
f 1/1/1 1/1/1 1/1/1
f 1/1/1 1/1/1 1/1/1
f 1/1/1 1/1/1 1/1/1
f 1/1/1 1/1/1 1/1/1
f 1/1/1 1/1/1 1/1/1
f 1/1/1 1/1/1 1/1/1
f 1/1/1 1/1/1 1/1/1
f 1/1/1 1/1/1 1/1/1
f 1/1/1 1/1/1 1/1/1
f 1/1/1 1/1/1 1/1/1
f 1/1/1 1/1/1 1/1/1
f 1/1/1 1/1/1 1/1/1
f 1/1/1 1/1/1 1/1/1
f 1/1/1 1/1/1 1/1/1
f 1/1/1 1/1/1 1/1/1
f 1/1/1 1/1/1 1/1/1
f 1/1/1 1/1/1 1/1/1
f 1/1/1 1/1/1 1/1/1
f 1/1/1 1/1/1 1/1/1
f 1/1/1 1/1/1 1/1/1
f 1/1/1 1/1/1 1/1/1
f 1/1/1 1/1/1 1/1/1
f 1/1/1 1/1/1 1/1/1
f 1/1/1 1/1/1 1/1/1
f 1/1/1 1/1/1 1/1/1
f 1/1/1 1/1/1 1/1/1
f 1/1/1 1/1/1 1/1/1
f 1/1/1 1/1/1 1/1/1
f 1/1/1 1/1/1 1/1/1
f 1/1/1 1/1/1 1/1/1
f 1/1/1 1/1/1 1/1/1
f 1/1/1 1/1/1 1/1/1
f 1/1/1 1/1/1 1/1/1
f 1/1/1 1/1/1 1/1/1
f 1/1/1 1/1/1 1/1/1
f 1/1/1 1/1/1 1/1/1
f 1/1/1 1/1/1 1/1/1
f 1/1/1 1/1/1 1/1/1
f 1/1/1 1/1/1 1/1/1
f 1/1/1 1/1/1 1/1/1
f 1/1/1 1/1/1 1/1/1
f 1/1/1 1/1/1 1/1/1
f 1/1/1 1/1/1 1/1/1
f 1/1/1 1/1/1 1/1/1
f 1/1/1 1/1/1 1/1/1
f 1/1/1 1/1/1 1/1/1
f 1/1/1 1/1/1 1/1/1
f 1/1/1 1/1/1 1/1/1
f 1/1/1 1/1/1 1/1/1
f 1/1/1 1/1/1 1/1/1
f 1/1/1 1/1/1 1/1/1
f 1/1/1 1/1/1 1/1/1
f 1/1/1 1/1/1 1/1/1
f 1/1/1 1/1/1 1/1/1
f 1/1/1 1/1/1 1/1/1
f 1/1/1 1/1/1 1/1/1
f 1/1/1 1/1/1 1/1/1
f 1/1/1 1/1/1 1/1/1
f 1/1/1 1/1/1 1/1/1
f 1/1/1 1/1/1 1/1/1
f 1/1/1 1/1/1 1/1/1
f 1/1/1 1/1/1 1/1/1
f 1/1/1 1/1/1 1/1/1
f 1/1/1 1/1/1 1/1/1
f 1/1/1 1/1/1 1/1/1
f 1/1/1 1/1/1 1/1/1
f 1/1/1 1/1/1 1/1/1
f 1/1/1 1/1/1 1/1/1
f 1/1/1 1/1/1 1/1/1
f 1/1/1 1/1/1 1/1/1
f 1/1/1 1/1/1 1/1/1
f 1/1/1 1/1/1 1/1/1
f 1/1/1 1/1/1 1/1/1
f 1/1/1 1/1/1 1/1/1
f 1/1/1 1/1/1 1/1/1
f 1/1/1 1/1/1 1/1/1
f 1/1/1 1/1/1 1/1/1
f 1/1/1 1/1/1 1/1/1
f 1/1/1 1/1/1 1/1/1
f 1/1/1 1/1/1 1/1/1
f 1/1/1 1/1/1 1/1/1
f 1/1/1 1/1/1 1/1/1
f 1/1/1 1/1/1 1/1/1
f 1/1/1 1/1/1 1/1/1
f 1/1/1 1/1/1 1/1/1
f 1/1/1 1/1/1 1/1/1
f 1/1/1 1/1/1 1/1/1
f 1/1/1 1/1/1 1/1/1
f 1/1/1 1/1/1 1/1/1
f 1/1/1 1/1/1 1/1/1
f 1/1/1 1/1/1 1/1/1
f 1/1/1 1/1/1 1/1/1
f 1/1/1 1/1/1 1/1/1
f 1/1/1 1/1/1 1/1/1
f 1/1/1 1/1/1 1/1/1
f 1/1/1 1/1/1 1/1/1
f 1/1/1 1/1/1 1/1/1
f 1/1/1 1/1/1 1/1/1
f 1/1/1 1/1/1 1/1/1
f 1/1/1 1/1/1 1/1/1
f 1/1/1 1/1/1 1/1/1
f 1/1/1 1/1/1 1/1/1
f 1/1/1 1/1/1 1/1/1
f 1/1/1 1/1/1 1/1/1
f 1/1/1 1/1/1 1/1/1
f 1/1/1 1/1/1 1/1/1
f 1/1/1 1/1/1 1/1/1
f 1/1/1 1/1/1 1/1/1
f 1/1/1 1/1/1 1/1/1
f 1/1/1 1/1/1 1/1/1
f 1/1/1 1/1/1 1/1/1
f 1/1/1 1/1/1 1/1/1
f 1/1/1 1/1/1 1/1/1
f 1/1/1 1/1/1 1/1/1
f 1/1/1 1/1/1 1/1/1
f 1/1/1 1/1/1 1/1/1
f 1/1/1 1/1/1 1/1/1
f 1/1/1 1/1/1 1/1/1
f 1/1/1 1/1/1 1/1/1
f 1/1/1 1/1/1 1/1/1
f 1/1/1 1/1/1 1/1/1
f 1/1/1 1/1/1 1/1/1
f 1/1/1 1/1/1 1/1/1
f 1/1/1 1/1/1 1/1/1
f 1/1/1 1/1/1 1/1/1
f 1/1/1 1/1/1 1/1/1
f 1/1/1 1/1/1 1/1/1
f 1/1/1 1/1/1 1/1/1
f 1/1/1 1/1/1 1/1/1
f 1/1/1 1/1/1 1/1/1
f 1/1/1 1/1/1 1/1/1
f 1/1/1 1/1/1 1/1/1
f 1/1/1 1/1/1 1/1/1
f 1/1/1 1/1/1 1/1/1
f 1/1/1 1/1/1 1/1/1
f 1/1/1 1/1/1 1/1/1
f 1/1/1 1/1/1 1/1/1
f 1/1/1 1/1/1 1/1/1
f 1/1/1 1/1/1 1/1/1
f 1/1/1 1/1/1 1/1/1
f 1/1/1 1/1/1 1/1/1
f 1/1/1 1/1/1 1/1/1
f 1/1/1 1/1/1 1/1/1
f 1/1/1 1/1/1 1/1/1
f 1/1/1 1/1/1 1/1/1
f 1/1/1 1/1/1 1/1/1
f 1/1/1 1/1/1 1/1/1
f 1/1/1 1/1/1 1/1/1
f 1/1/1 1/1/1 1/1/1
f 1/1/1 1/1/1 1/1/1
f 1/1/1 1/1/1 1/1/1
f 1/1/1 1/1/1 1/1/1
f 1/1/1 1/1/1 1/1/1
f 1/1/1 1/1/1 1/1/1
f 1/1/1 1/1/1 1/1/1
f 1/1/1 1/1/1 1/1/1
f 1/1/1 1/1/1 1/1/1
f 1/1/1 1/1/1 1/1/1
f 1/1/1 1/1/1 1/1/1
f 1/1/1 1/1/1 1/1/1
f 1/1/1 1/1/1 1/1/1
f 1/1/1 1/1/1 1/1/1
f 1/1/1 1/1/1 1/1/1
f 1/1/1 1/1/1 1/1/1
f 1/1/1 1/1/1 1/1/1
f 1/1/1 1/1/1 1/1/1
f 1/1/1 1/1/1 1/1/1
f 1/1/1 1/1/1 1/1/1
f 1/1/1 1/1/1 1/1/1
f 1/1/1 1/1/1 1/1/1
f 1/1/1 1/1/1 1/1/1
f 1/1/1 1/1/1 1/1/1
f 1/1/1 1/1/1 1/1/1
f 1/1/1 1/1/1 1/1/1
f 1/1/1 1/1/1 1/1/1
f 1/1/1 1/1/1 1/1/1
f 1/1/1 1/1/1 1/1/1
f 1/1/1 1/1/1 1/1/1
f 1/1/1 1/1/1 1/1/1
f 1/1/1 1/1/1 1/1/1
f 1/1/1 1/1/1 1/1/1
f 1/1/1 1/1/1 1/1/1
f 1/1/1 1/1/1 1/1/1
f 1/1/1 1/1/1 1/1/1
f 1/1/1 1/1/1 1/1/1
f 1/1/1 1/1/1 1/1/1
f 1/1/1 1/1/1 1/1/1
f 1/1/1 1/1/1 1/1/1
f 1/1/1 1/1/1 1/1/1
f 1/1/1 1/1/1 1/1/1
f 1/1/1 1/1/1 1/1/1
f 1/1/1 1/1/1 1/1/1
f 1/1/1 1/1/1 1/1/1
f 1/1/1 1/1/1 1/1/1
f 1/1/1 1/1/1 1/1/1
f 1/1/1 1/1/1 1/1/1
f 1/1/1 1/1/1 1/1/1
f 1/1/1 1/1/1 1/1/1
f 1/1/1 1/1/1 1/1/1
f 1/1/1 1/1/1 1/1/1
f 1/1/1 1/1/1 1/1/1
f 1/1/1 1/1/1 1/1/1
f 1/1/1 1/1/1 1/1/1
f 1/1/1 1/1/1 1/1/1
f 1/1/1 1/1/1 1/1/1
f 1/1/1 1/1/1 1/1/1
f 1/1/1 1/1/1 1/1/1
f 1/1/1 1/1/1 1/1/1
f 1/1/1 1/1/1 1/1/1
f 1/1/1 1/1/1 1/1/1
f 1/1/1 1/1/1 1/1/1
f 1/1/1 1/1/1 1/1/1
f 1/1/1 1/1/1 1/1/1
f 1/1/1 1/1/1 1/1/1
f 1/1/1 1/1/1 1/1/1
f 1/1/1 1/1/1 1/1/1
f 1/1/1 1/1/1 1/1/1
f 1/1/1 1/1/1 1/1/1
f 1/1/1 1/1/1 1/1/1
f 1/1/1 1/1/1 1/1/1
f 1/1/1 1/1/1 1/1/1
f 1/1/1 1/1/1 1/1/1
f 1/1/1 1/1/1 1/1/1
f 1/1/1 1/1/1 1/1/1
f 1/1/1 1/1/1 1/1/1
f 1/1/1 1/1/1 1/1/1
f 1/1/1 1/1/1 1/1/1
f 1/1/1 1/1/1 1/1/1
f 1/1/1 1/1/1 1/1/1
f 1/1/1 1/1/1 1/1/1
f 1/1/1 1/1/1 1/1/1
f 1/1/1 1/1/1 1/1/1
f 1/1/1 1/1/1 1/1/1
f 1/1/1 1/1/1 1/1/1
f 1/1/1 1/1/1 1/1/1
f 1/1/1 1/1/1 1/1/1
f 1/1/1 1/1/1 1/1/1
f 1/1/1 1/1/1 1/1/1
f 1/1/1 1/1/1 1/1/1
f 1/1/1 1/1/1 1/1/1
f 1/1/1 1/1/1 1/1/1
f 1/1/1 1/1/1 1/1/1
f 1/1/1 1/1/1 1/1/1
f 1/1/1 1/1/1 1/1/1
f 1/1/1 1/1/1 1/1/1
f 1/1/1 1/1/1 1/1/1
f 1/1/1 1/1/1 1/1/1
f 1/1/1 1/1/1 1/1/1
f 1/1/1 1/1/1 1/1/1
f 1/1/1 1/1/1 1/1/1
f 1/1/1 1/1/1 1/1/1
f 1/1/1 1/1/1 1/1/1
f 1/1/1 1/1/1 1/1/1
f 1/1/1 1/1/1 1/1/1
f 1/1/1 1/1/1 1/1/1
f 1/1/1 1/1/1 1/1/1
f 1/1/1 1/1/1 1/1/1
f 1/1/1 1/1/1 1/1/1
f 1/1/1 1/1/1 1/1/1
f 1/1/1 1/1/1 1/1/1
f 1/1/1 1/1/1 1/1/1
f 1/1/1 1/1/1 1/1/1
f 1/1/1 1/1/1 1/1/1
f 1/1/1 1/1/1 1/1/1
f 1/1/1 1/1/1 1/1/1
f 1/1/1 1/1/1 1/1/1
f 1/1/1 1/1/1 1/1/1
f 1/1/1 1/1/1 1/1/1
f 1/1/1 1/1/1 1/1/1
f 1/1/1 1/1/1 1/1/1
f 1/1/1 1/1/1 1/1/1
f 1/1/1 1/1/1 1/1/1
f 1/1/1 1/1/1 1/1/1
f 1/1/1 1/1/1 1/1/1
f 1/1/1 1/1/1 1/1/1
f 1/1/1 1/1/1 1/1/1
f 1/1/1 1/1/1 1/1/1
f 1/1/1 1/1/1 1/1/1
f 1/1/1 1/1/1 1/1/1
f 1/1/1 1/1/1 1/1/1
f 1/1/1 1/1/1 1/1/1
f 1/1/1 1/1/1 1/1/1
f 1/1/1 1/1/1 1/1/1
f 1/1/1 1/1/1 1/1/1
f 1/1/1 1/1/1 1/1/1
f 1/1/1 1/1/1 1/1/1
f 1/1/1 1/1/1 1/1/1
f 1/1/1 1/1/1 1/1/1
f 1/1/1 1/1/1 1/1/1
f 1/1/1 1/1/1 1/1/1
f 1/1/1 1/1/1 1/1/1
f 1/1/1 1/1/1 1/1/1
f 1/1/1 1/1/1 1/1/1
f 1/1/1 1/1/1 1/1/1
f 1/1/1 1/1/1 1/1/1
f 1/1/1 1/1/1 1/1/1
f 1/1/1 1/1/1 1/1/1
f 1/1/1 1/1/1 1/1/1
f 1/1/1 1/1/1 1/1/1
f 1/1/1 1/1/1 1/1/1
f 1/1/1 1/1/1 1/1/1
f 1/1/1 1/1/1 1/1/1
f 1/1/1 1/1/1 1/1/1
f 1/1/1 1/1/1 1/1/1
f 1/1/1 1/1/1 1/1/1
f 1/1/1 1/1/1 1/1/1
f 1/1/1 1/1/1 1/1/1
f 1/1/1 1/1/1 1/1/1
f 1/1/1 1/1/1 1/1/1
f 1/1/1 1/1/1 1/1/1
f 1/1/1 1/1/1 1/1/1
f 1/1/1 1/1/1 1/1/1
f 1/1/1 1/1/1 1/1/1
f 1/1/1 1/1/1 1/1/1
f 1/1/1 1/1/1 1/1/1
f 1/1/1 1/1/1 1/1/1
f 1/1/1 1/1/1 1/1/1
f 1/1/1 1/1/1 1/1/1
f 1/1/1 1/1/1 1/1/1
f 1/1/1 1/1/1 1/1/1
f 1/1/1 1/1/1 1/1/1
f 1/1/1 1/1/1 1/1/1
f 1/1/1 1/1/1 1/1/1
f 1/1/1 1/1/1 1/1/1
f 1/1/1 1/1/1 1/1/1
f 1/1/1 1/1/1 1/1/1
f 1/1/1 1/1/1 1/1/1
f 1/1/1 1/1/1 1/1/1
f 1/1/1 1/1/1 1/1/1
f 1/1/1 1/1/1 1/1/1
f 1/1/1 1/1/1 1/1/1
f 1/1/1 1/1/1 1/1/1
f 1/1/1 1/1/1 1/1/1
f 1/1/1 1/1/1 1/1/1
f 1/1/1 1/1/1 1/1/1
f 1/1/1 1/1/1 1/1/1
f 1/1/1 1/1/1 1/1/1
f 1/1/1 1/1/1 1/1/1
f 1/1/1 1/1/1 1/1/1
f 1/1/1 1/1/1 1/1/1
f 1/1/1 1/1/1 1/1/1
f 1/1/1 1/1/1 1/1/1
f 1/1/1 1/1/1 1/1/1
f 1/1/1 1/1/1 1/1/1
f 1/1/1 1/1/1 1/1/1
f 1/1/1 1/1/1 1/1/1
f 1/1/1 1/1/1 1/1/1
f 1/1/1 1/1/1 1/1/1
f 1/1/1 1/1/1 1/1/1
f 1/1/1 1/1/1 1/1/1
f 1/1/1 1/1/1 1/1/1
f 1/1/1 1/1/1 1/1/1
f 1/1/1 1/1/1 1/1/1
f 1/1/1 1/1/1 1/1/1
f 1/1/1 1/1/1 1/1/1
f 1/1/1 1/1/1 1/1/1
f 1/1/1 1/1/1 1/1/1
f 1/1/1 1/1/1 1/1/1
f 1/1/1 1/1/1 1/1/1
f 1/1/1 1/1/1 1/1/1
f 1/1/1 1/1/1 1/1/1
f 1/1/1 1/1/1 1/1/1
f 1/1/1 1/1/1 1/1/1
f 1/1/1 1/1/1 1/1/1
f 1/1/1 1/1/1 1/1/1
f 1/1/1 1/1/1 1/1/1
f 1/1/1 1/1/1 1/1/1
f 1/1/1 1/1/1 1/1/1
f 1/1/1 1/1/1 1/1/1
f 1/1/1 1/1/1 1/1/1
f 1/1/1 1/1/1 1/1/1
f 1/1/1 1/1/1 1/1/1
f 1/1/1 1/1/1 1/1/1
f 1/1/1 1/1/1 1/1/1
f 1/1/1 1/1/1 1/1/1
f 1/1/1 1/1/1 1/1/1
f 1/1/1 1/1/1 1/1/1
f 1/1/1 1/1/1 1/1/1
f 1/1/1 1/1/1 1/1/1
f 1/1/1 1/1/1 1/1/1
f 1/1/1 1/1/1 1/1/1
f 1/1/1 1/1/1 1/1/1
f 1/1/1 1/1/1 1/1/1
f 1/1/1 1/1/1 1/1/1
f 1/1/1 1/1/1 1/1/1
f 1/1/1 1/1/1 1/1/1
f 1/1/1 1/1/1 1/1/1
f 1/1/1 1/1/1 1/1/1
f 1/1/1 1/1/1 1/1/1
f 1/1/1 1/1/1 1/1/1
f 1/1/1 1/1/1 1/1/1
f 1/1/1 1/1/1 1/1/1
f 1/1/1 1/1/1 1/1/1
f 1/1/1 1/1/1 1/1/1
f 1/1/1 1/1/1 1/1/1
f 1/1/1 1/1/1 1/1/1
f 1/1/1 1/1/1 1/1/1
f 1/1/1 1/1/1 1/1/1
f 1/1/1 1/1/1 1/1/1
f 1/1/1 1/1/1 1/1/1
f 1/1/1 1/1/1 1/1/1
f 1/1/1 1/1/1 1/1/1
f 1/1/1 1/1/1 1/1/1
f 1/1/1 1/1/1 1/1/1
f 1/1/1 1/1/1 1/1/1
f 1/1/1 1/1/1 1/1/1
f 1/1/1 1/1/1 1/1/1
f 1/1/1 1/1/1 1/1/1
f 1/1/1 1/1/1 1/1/1
f 1/1/1 1/1/1 1/1/1
f 1/1/1 1/1/1 1/1/1
f 1/1/1 1/1/1 1/1/1
f 1/1/1 1/1/1 1/1/1
f 1/1/1 1/1/1 1/1/1
f 1/1/1 1/1/1 1/1/1
f 1/1/1 1/1/1 1/1/1
f 1/1/1 1/1/1 1/1/1
f 1/1/1 1/1/1 1/1/1
f 1/1/1 1/1/1 1/1/1
f 1/1/1 1/1/1 1/1/1
f 1/1/1 1/1/1 1/1/1
f 1/1/1 1/1/1 1/1/1
f 1/1/1 1/1/1 1/1/1
f 1/1/1 1/1/1 1/1/1
f 1/1/1 1/1/1 1/1/1
f 1/1/1 1/1/1 1/1/1
f 1/1/1 1/1/1 1/1/1
f 1/1/1 1/1/1 1/1/1
f 1/1/1 1/1/1 1/1/1
f 1/1/1 1/1/1 1/1/1
f 1/1/1 1/1/1 1/1/1
f 1/1/1 1/1/1 1/1/1
f 1/1/1 1/1/1 1/1/1
f 1/1/1 1/1/1 1/1/1
f 1/1/1 1/1/1 1/1/1
f 1/1/1 1/1/1 1/1/1
f 1/1/1 1/1/1 1/1/1
f 1/1/1 1/1/1 1/1/1
f 1/1/1 1/1/1 1/1/1
f 1/1/1 1/1/1 1/1/1
f 1/1/1 1/1/1 1/1/1
f 1/1/1 1/1/1 1/1/1
f 1/1/1 1/1/1 1/1/1
f 1/1/1 1/1/1 1/1/1
f 1/1/1 1/1/1 1/1/1
f 1/1/1 1/1/1 1/1/1
f 1/1/1 1/1/1 1/1/1
f 1/1/1 1/1/1 1/1/1
f 1/1/1 1/1/1 1/1/1
f 1/1/1 1/1/1 1/1/1
f 1/1/1 1/1/1 1/1/1
f 1/1/1 1/1/1 1/1/1
f 1/1/1 1/1/1 1/1/1
f 1/1/1 1/1/1 1/1/1
f 1/1/1 1/1/1 1/1/1
f 1/1/1 1/1/1 1/1/1
f 1/1/1 1/1/1 1/1/1
f 1/1/1 1/1/1 1/1/1
f 1/1/1 1/1/1 1/1/1
f 1/1/1 1/1/1 1/1/1
f 1/1/1 1/1/1 1/1/1
f 1/1/1 1/1/1 1/1/1
f 1/1/1 1/1/1 1/1/1
f 1/1/1 1/1/1 1/1/1
f 1/1/1 1/1/1 1/1/1
f 1/1/1 1/1/1 1/1/1
f 1/1/1 1/1/1 1/1/1
f 1/1/1 1/1/1 1/1/1
f 1/1/1 1/1/1 1/1/1
f 1/1/1 1/1/1 1/1/1
f 1/1/1 1/1/1 1/1/1
f 1/1/1 1/1/1 1/1/1
f 1/1/1 1/1/1 1/1/1
f 1/1/1 1/1/1 1/1/1
f 1/1/1 1/1/1 1/1/1
f 1/1/1 1/1/1 1/1/1
f 1/1/1 1/1/1 1/1/1
f 1/1/1 1/1/1 1/1/1
f 1/1/1 1/1/1 1/1/1
f 1/1/1 1/1/1 1/1/1
f 1/1/1 1/1/1 1/1/1
f 1/1/1 1/1/1 1/1/1
f 1/1/1 1/1/1 1/1/1
f 1/1/1 1/1/1 1/1/1
f 1/1/1 1/1/1 1/1/1
f 1/1/1 1/1/1 1/1/1
f 1/1/1 1/1/1 1/1/1
f 1/1/1 1/1/1 1/1/1
f 1/1/1 1/1/1 1/1/1
f 1/1/1 1/1/1 1/1/1
f 1/1/1 1/1/1 1/1/1
f 1/1/1 1/1/1 1/1/1
f 1/1/1 1/1/1 1/1/1
f 1/1/1 1/1/1 1/1/1
f 1/1/1 1/1/1 1/1/1
f 1/1/1 1/1/1 1/1/1
f 1/1/1 1/1/1 1/1/1
f 1/1/1 1/1/1 1/1/1
f 1/1/1 1/1/1 1/1/1
f 1/1/1 1/1/1 1/1/1
f 1/1/1 1/1/1 1/1/1
f 1/1/1 1/1/1 1/1/1
f 1/1/1 1/1/1 1/1/1
f 1/1/1 1/1/1 1/1/1
f 1/1/1 1/1/1 1/1/1
f 1/1/1 1/1/1 1/1/1
f 1/1/1 1/1/1 1/1/1
f 1/1/1 1/1/1 1/1/1
f 1/1/1 1/1/1 1/1/1
f 1/1/1 1/1/1 1/1/1
f 1/1/1 1/1/1 1/1/1
f 1/1/1 1/1/1 1/1/1
f 1/1/1 1/1/1 1/1/1
f 1/1/1 1/1/1 1/1/1
f 1/1/1 1/1/1 1/1/1
f 1/1/1 1/1/1 1/1/1
f 1/1/1 1/1/1 1/1/1
f 1/1/1 1/1/1 1/1/1
f 1/1/1 1/1/1 1/1/1
f 1/1/1 1/1/1 1/1/1
f 1/1/1 1/1/1 1/1/1
f 1/1/1 1/1/1 1/1/1
f 1/1/1 1/1/1 1/1/1
f 1/1/1 1/1/1 1/1/1
f 1/1/1 1/1/1 1/1/1
f 1/1/1 1/1/1 1/1/1
f 1/1/1 1/1/1 1/1/1
f 1/1/1 1/1/1 1/1/1
f 1/1/1 1/1/1 1/1/1
f 1/1/1 1/1/1 1/1/1
f 1/1/1 1/1/1 1/1/1
f 1/1/1 1/1/1 1/1/1
f 1/1/1 1/1/1 1/1/1
f 1/1/1 1/1/1 1/1/1
f 1/1/1 1/1/1 1/1/1
f 1/1/1 1/1/1 1/1/1
f 1/1/1 1/1/1 1/1/1
f 1/1/1 1/1/1 1/1/1
f 1/1/1 1/1/1 1/1/1
f 1/1/1 1/1/1 1/1/1
f 1/1/1 1/1/1 1/1/1
f 1/1/1 1/1/1 1/1/1
f 1/1/1 1/1/1 1/1/1
f 1/1/1 1/1/1 1/1/1
f 1/1/1 1/1/1 1/1/1
f 1/1/1 1/1/1 1/1/1
f 1/1/1 1/1/1 1/1/1
f 1/1/1 1/1/1 1/1/1
f 1/1/1 1/1/1 1/1/1
f 1/1/1 1/1/1 1/1/1
f 1/1/1 1/1/1 1/1/1
f 1/1/1 1/1/1 1/1/1
f 1/1/1 1/1/1 1/1/1
f 1/1/1 1/1/1 1/1/1
f 1/1/1 1/1/1 1/1/1
f 1/1/1 1/1/1 1/1/1
f 1/1/1 1/1/1 1/1/1
f 1/1/1 1/1/1 1/1/1
f 1/1/1 1/1/1 1/1/1
f 1/1/1 1/1/1 1/1/1
f 1/1/1 1/1/1 1/1/1
f 1/1/1 1/1/1 1/1/1
f 1/1/1 1/1/1 1/1/1
f 1/1/1 1/1/1 1/1/1
f 1/1/1 1/1/1 1/1/1
f 1/1/1 1/1/1 1/1/1
f 1/1/1 1/1/1 1/1/1
f 1/1/1 1/1/1 1/1/1
f 1/1/1 1/1/1 1/1/1
f 1/1/1 1/1/1 1/1/1
f 1/1/1 1/1/1 1/1/1
f 1/1/1 1/1/1 1/1/1
f 1/1/1 1/1/1 1/1/1
f 1/1/1 1/1/1 1/1/1
f 1/1/1 1/1/1 1/1/1
f 1/1/1 1/1/1 1/1/1
f 1/1/1 1/1/1 1/1/1
f 1/1/1 1/1/1 1/1/1
f 1/1/1 1/1/1 1/1/1
f 1/1/1 1/1/1 1/1/1
f 1/1/1 1/1/1 1/1/1
f 1/1/1 1/1/1 1/1/1
f 1/1/1 1/1/1 1/1/1
f 1/1/1 1/1/1 1/1/1
f 1/1/1 1/1/1 1/1/1
f 1/1/1 1/1/1 1/1/1
f 1/1/1 1/1/1 1/1/1
f 1/1/1 1/1/1 1/1/1
f 1/1/1 1/1/1 1/1/1
f 1/1/1 1/1/1 1/1/1
f 1/1/1 1/1/1 1/1/1
f 1/1/1 1/1/1 1/1/1
f 1/1/1 1/1/1 1/1/1
f 1/1/1 1/1/1 1/1/1
f 1/1/1 1/1/1 1/1/1
f 1/1/1 1/1/1 1/1/1
f 1/1/1 1/1/1 1/1/1
f 1/1/1 1/1/1 1/1/1
f 1/1/1 1/1/1 1/1/1
f 1/1/1 1/1/1 1/1/1
f 1/1/1 1/1/1 1/1/1
f 1/1/1 1/1/1 1/1/1
f 1/1/1 1/1/1 1/1/1
f 1/1/1 1/1/1 1/1/1
f 1/1/1 1/1/1 1/1/1
f 1/1/1 1/1/1 1/1/1
f 1/1/1 1/1/1 1/1/1
f 1/1/1 1/1/1 1/1/1
f 1/1/1 1/1/1 1/1/1
f 1/1/1 1/1/1 1/1/1
f 1/1/1 1/1/1 1/1/1
f 1/1/1 1/1/1 1/1/1
f 1/1/1 1/1/1 1/1/1
f 1/1/1 1/1/1 1/1/1
f 1/1/1 1/1/1 1/1/1
f 1/1/1 1/1/1 1/1/1
f 1/1/1 1/1/1 1/1/1
f 1/1/1 1/1/1 1/1/1
f 1/1/1 1/1/1 1/1/1
f 1/1/1 1/1/1 1/1/1
f 1/1/1 1/1/1 1/1/1
f 1/1/1 1/1/1 1/1/1
f 1/1/1 1/1/1 1/1/1
f 1/1/1 1/1/1 1/1/1
f 1/1/1 1/1/1 1/1/1
f 1/1/1 1/1/1 1/1/1
f 1/1/1 1/1/1 1/1/1
f 1/1/1 1/1/1 1/1/1
f 1/1/1 1/1/1 1/1/1
f 1/1/1 1/1/1 1/1/1
f 1/1/1 1/1/1 1/1/1
f 1/1/1 1/1/1 1/1/1
f 1/1/1 1/1/1 1/1/1
f 1/1/1 1/1/1 1/1/1
f 1/1/1 1/1/1 1/1/1
f 1/1/1 1/1/1 1/1/1
f 1/1/1 1/1/1 1/1/1
f 1/1/1 1/1/1 1/1/1
f 1/1/1 1/1/1 1/1/1
f 1/1/1 1/1/1 1/1/1
f 1/1/1 1/1/1 1/1/1
f 1/1/1 1/1/1 1/1/1
f 1/1/1 1/1/1 1/1/1
f 1/1/1 1/1/1 1/1/1
f 1/1/1 1/1/1 1/1/1
f 1/1/1 1/1/1 1/1/1
f 1/1/1 1/1/1 1/1/1
f 1/1/1 1/1/1 1/1/1
f 1/1/1 1/1/1 1/1/1
f 1/1/1 1/1/1 1/1/1
f 1/1/1 1/1/1 1/1/1
f 1/1/1 1/1/1 1/1/1
f 1/1/1 1/1/1 1/1/1
f 1/1/1 1/1/1 1/1/1
f 1/1/1 1/1/1 1/1/1
f 1/1/1 1/1/1 1/1/1
f 1/1/1 1/1/1 1/1/1
f 1/1/1 1/1/1 1/1/1
f 1/1/1 1/1/1 1/1/1
f 1/1/1 1/1/1 1/1/1
f 1/1/1 1/1/1 1/1/1
f 1/1/1 1/1/1 1/1/1
f 1/1/1 1/1/1 1/1/1
f 1/1/1 1/1/1 1/1/1
f 1/1/1 1/1/1 1/1/1
f 1/1/1 1/1/1 1/1/1
f 1/1/1 1/1/1 1/1/1
f 1/1/1 1/1/1 1/1/1
f 1/1/1 1/1/1 1/1/1
f 1/1/1 1/1/1 1/1/1
f 1/1/1 1/1/1 1/1/1
f 1/1/1 1/1/1 1/1/1
f 1/1/1 1/1/1 1/1/1
f 1/1/1 1/1/1 1/1/1
f 1/1/1 1/1/1 1/1/1
f 1/1/1 1/1/1 1/1/1
f 1/1/1 1/1/1 1/1/1
f 1/1/1 1/1/1 1/1/1
f 1/1/1 1/1/1 1/1/1
f 1/1/1 1/1/1 1/1/1
f 1/1/1 1/1/1 1/1/1
f 1/1/1 1/1/1 1/1/1
f 1/1/1 1/1/1 1/1/1
f 1/1/1 1/1/1 1/1/1
f 1/1/1 1/1/1 1/1/1
f 1/1/1 1/1/1 1/1/1
f 1/1/1 1/1/1 1/1/1
f 1/1/1 1/1/1 1/1/1
f 1/1/1 1/1/1 1/1/1
f 1/1/1 1/1/1 1/1/1
f 1/1/1 1/1/1 1/1/1
f 1/1/1 1/1/1 1/1/1
f 1/1/1 1/1/1 1/1/1
f 1/1/1 1/1/1 1/1/1
f 1/1/1 1/1/1 1/1/1
f 1/1/1 1/1/1 1/1/1
f 1/1/1 1/1/1 1/1/1
f 1/1/1 1/1/1 1/1/1
f 1/1/1 1/1/1 1/1/1
f 1/1/1 1/1/1 1/1/1
f 1/1/1 1/1/1 1/1/1
f 1/1/1 1/1/1 1/1/1
f 1/1/1 1/1/1 1/1/1
f 1/1/1 1/1/1 1/1/1
f 1/1/1 1/1/1 1/1/1
f 1/1/1 1/1/1 1/1/1
f 1/1/1 1/1/1 1/1/1
f 1/1/1 1/1/1 1/1/1
f 1/1/1 1/1/1 1/1/1
f 1/1/1 1/1/1 1/1/1
f 1/1/1 1/1/1 1/1/1
f 1/1/1 1/1/1 1/1/1
f 1/1/1 1/1/1 1/1/1
f 1/1/1 1/1/1 1/1/1
f 1/1/1 1/1/1 1/1/1
f 1/1/1 1/1/1 1/1/1
f 1/1/1 1/1/1 1/1/1
f 1/1/1 1/1/1 1/1/1
f 1/1/1 1/1/1 1/1/1
f 1/1/1 1/1/1 1/1/1
f 1/1/1 1/1/1 1/1/1
f 1/1/1 1/1/1 1/1/1
f 1/1/1 1/1/1 1/1/1
f 1/1/1 1/1/1 1/1/1
f 1/1/1 1/1/1 1/1/1
f 1/1/1 1/1/1 1/1/1
f 1/1/1 1/1/1 1/1/1
f 1/1/1 1/1/1 1/1/1
f 1/1/1 1/1/1 1/1/1
f 1/1/1 1/1/1 1/1/1
f 1/1/1 1/1/1 1/1/1
f 1/1/1 1/1/1 1/1/1
f 1/1/1 1/1/1 1/1/1
f 1/1/1 1/1/1 1/1/1
f 1/1/1 1/1/1 1/1/1
f 1/1/1 1/1/1 1/1/1
f 1/1/1 1/1/1 1/1/1
f 1/1/1 1/1/1 1/1/1
f 1/1/1 1/1/1 1/1/1
f 1/1/1 1/1/1 1/1/1
f 1/1/1 1/1/1 1/1/1
f 1/1/1 1/1/1 1/1/1
f 1/1/1 1/1/1 1/1/1
f 1/1/1 1/1/1 1/1/1
f 1/1/1 1/1/1 1/1/1
f 1/1/1 1/1/1 1/1/1
f 1/1/1 1/1/1 1/1/1
f 1/1/1 1/1/1 1/1/1
f 1/1/1 1/1/1 1/1/1
f 1/1/1 1/1/1 1/1/1
f 1/1/1 1/1/1 1/1/1
f 1/1/1 1/1/1 1/1/1
f 1/1/1 1/1/1 1/1/1
f 1/1/1 1/1/1 1/1/1
f 1/1/1 1/1/1 1/1/1
f 1/1/1 1/1/1 1/1/1
f 1/1/1 1/1/1 1/1/1
f 1/1/1 1/1/1 1/1/1
f 1/1/1 1/1/1 1/1/1
f 1/1/1 1/1/1 1/1/1
f 1/1/1 1/1/1 1/1/1
f 1/1/1 1/1/1 1/1/1
f 1/1/1 1/1/1 1/1/1
f 1/1/1 1/1/1 1/1/1
f 1/1/1 1/1/1 1/1/1
f 1/1/1 1/1/1 1/1/1
f 1/1/1 1/1/1 1/1/1
f 1/1/1 1/1/1 1/1/1
f 1/1/1 1/1/1 1/1/1
f 1/1/1 1/1/1 1/1/1
f 1/1/1 1/1/1 1/1/1
f 1/1/1 1/1/1 1/1/1
f 1/1/1 1/1/1 1/1/1
f 1/1/1 1/1/1 1/1/1
f 1/1/1 1/1/1 1/1/1
f 1/1/1 1/1/1 1/1/1
f 1/1/1 1/1/1 1/1/1
f 1/1/1 1/1/1 1/1/1
f 1/1/1 1/1/1 1/1/1
f 1/1/1 1/1/1 1/1/1
f 1/1/1 1/1/1 1/1/1
f 1/1/1 1/1/1 1/1/1
f 1/1/1 1/1/1 1/1/1
f 1/1/1 1/1/1 1/1/1
f 1/1/1 1/1/1 1/1/1
f 1/1/1 1/1/1 1/1/1
f 1/1/1 1/1/1 1/1/1
f 1/1/1 1/1/1 1/1/1
f 1/1/1 1/1/1 1/1/1
f 1/1/1 1/1/1 1/1/1
f 1/1/1 1/1/1 1/1/1
f 1/1/1 1/1/1 1/1/1
f 1/1/1 1/1/1 1/1/1
f 1/1/1 1/1/1 1/1/1
f 1/1/1 1/1/1 1/1/1
f 1/1/1 1/1/1 1/1/1
f 1/1/1 1/1/1 1/1/1
f 1/1/1 1/1/1 1/1/1
f 1/1/1 1/1/1 1/1/1
f 1/1/1 1/1/1 1/1/1
f 1/1/1 1/1/1 1/1/1
f 1/1/1 1/1/1 1/1/1
f 1/1/1 1/1/1 1/1/1
f 1/1/1 1/1/1 1/1/1
f 1/1/1 1/1/1 1/1/1
f 1/1/1 1/1/1 1/1/1
f 1/1/1 1/1/1 1/1/1
f 1/1/1 1/1/1 1/1/1
f 1/1/1 1/1/1 1/1/1
f 1/1/1 1/1/1 1/1/1
f 1/1/1 1/1/1 1/1/1
f 1/1/1 1/1/1 1/1/1
f 1/1/1 1/1/1 1/1/1
f 1/1/1 1/1/1 1/1/1
f 1/1/1 1/1/1 1/1/1
f 1/1/1 1/1/1 1/1/1
f 1/1/1 1/1/1 1/1/1
f 1/1/1 1/1/1 1/1/1
f 1/1/1 1/1/1 1/1/1
f 1/1/1 1/1/1 1/1/1
f 1/1/1 1/1/1 1/1/1
f 1/1/1 1/1/1 1/1/1
f 1/1/1 1/1/1 1/1/1
f 1/1/1 1/1/1 1/1/1
f 1/1/1 1/1/1 1/1/1
f 1/1/1 1/1/1 1/1/1
f 1/1/1 1/1/1 1/1/1
f 1/1/1 1/1/1 1/1/1
f 1/1/1 1/1/1 1/1/1
f 1/1/1 1/1/1 1/1/1
f 1/1/1 1/1/1 1/1/1
f 1/1/1 1/1/1 1/1/1
f 1/1/1 1/1/1 1/1/1
f 1/1/1 1/1/1 1/1/1
f 1/1/1 1/1/1 1/1/1
f 1/1/1 1/1/1 1/1/1
f 1/1/1 1/1/1 1/1/1
f 1/1/1 1/1/1 1/1/1
f 1/1/1 1/1/1 1/1/1
f 1/1/1 1/1/1 1/1/1
f 1/1/1 1/1/1 1/1/1
f 1/1/1 1/1/1 1/1/1
f 1/1/1 1/1/1 1/1/1
f 1/1/1 1/1/1 1/1/1
f 1/1/1 1/1/1 1/1/1
f 1/1/1 1/1/1 1/1/1
f 1/1/1 1/1/1 1/1/1
f 1/1/1 1/1/1 1/1/1
f 1/1/1 1/1/1 1/1/1
f 1/1/1 1/1/1 1/1/1
f 1/1/1 1/1/1 1/1/1
f 1/1/1 1/1/1 1/1/1
f 1/1/1 1/1/1 1/1/1
f 1/1/1 1/1/1 1/1/1
f 1/1/1 1/1/1 1/1/1
f 1/1/1 1/1/1 1/1/1
f 1/1/1 1/1/1 1/1/1
f 1/1/1 1/1/1 1/1/1
f 1/1/1 1/1/1 1/1/1
f 1/1/1 1/1/1 1/1/1
f 1/1/1 1/1/1 1/1/1
f 1/1/1 1/1/1 1/1/1
f 1/1/1 1/1/1 1/1/1
f 1/1/1 1/1/1 1/1/1
f 1/1/1 1/1/1 1/1/1
f 1/1/1 1/1/1 1/1/1
f 1/1/1 1/1/1 1/1/1
f 1/1/1 1/1/1 1/1/1
f 1/1/1 1/1/1 1/1/1
f 1/1/1 1/1/1 1/1/1
f 1/1/1 1/1/1 1/1/1
f 1/1/1 1/1/1 1/1/1
f 1/1/1 1/1/1 1/1/1
f 1/1/1 1/1/1 1/1/1
f 1/1/1 1/1/1 1/1/1
f 1/1/1 1/1/1 1/1/1
f 1/1/1 1/1/1 1/1/1
f 1/1/1 1/1/1 1/1/1
f 1/1/1 1/1/1 1/1/1
f 1/1/1 1/1/1 1/1/1
f 1/1/1 1/1/1 1/1/1
f 1/1/1 1/1/1 1/1/1
f 1/1/1 1/1/1 1/1/1
f 1/1/1 1/1/1 1/1/1
f 1/1/1 1/1/1 1/1/1
f 1/1/1 1/1/1 1/1/1
f 1/1/1 1/1/1 1/1/1
f 1/1/1 1/1/1 1/1/1
f 1/1/1 1/1/1 1/1/1
f 1/1/1 1/1/1 1/1/1
f 1/1/1 1/1/1 1/1/1
f 1/1/1 1/1/1 1/1/1
f 1/1/1 1/1/1 1/1/1
f 1/1/1 1/1/1 1/1/1
f 1/1/1 1/1/1 1/1/1
f 1/1/1 1/1/1 1/1/1
f 1/1/1 1/1/1 1/1/1
f 1/1/1 1/1/1 1/1/1
f 1/1/1 1/1/1 1/1/1
f 1/1/1 1/1/1 1/1/1
f 1/1/1 1/1/1 1/1/1
f 1/1/1 1/1/1 1/1/1
f 1/1/1 1/1/1 1/1/1
f 1/1/1 1/1/1 1/1/1
f 1/1/1 1/1/1 1/1/1
f 1/1/1 1/1/1 1/1/1
f 1/1/1 1/1/1 1/1/1
f 1/1/1 1/1/1 1/1/1
f 1/1/1 1/1/1 1/1/1
f 1/1/1 1/1/1 1/1/1
f 1/1/1 1/1/1 1/1/1
f 1/1/1 1/1/1 1/1/1
f 1/1/1 1/1/1 1/1/1
f 1/1/1 1/1/1 1/1/1
f 1/1/1 1/1/1 1/1/1
f 1/1/1 1/1/1 1/1/1
f 1/1/1 1/1/1 1/1/1
f 1/1/1 1/1/1 1/1/1
f 1/1/1 1/1/1 1/1/1
f 1/1/1 1/1/1 1/1/1
f 1/1/1 1/1/1 1/1/1
f 1/1/1 1/1/1 1/1/1
f 1/1/1 1/1/1 1/1/1
f 1/1/1 1/1/1 1/1/1
f 1/1/1 1/1/1 1/1/1
f 1/1/1 1/1/1 1/1/1
f 1/1/1 1/1/1 1/1/1
f 1/1/1 1/1/1 1/1/1
f 1/1/1 1/1/1 1/1/1
f 1/1/1 1/1/1 1/1/1
f 1/1/1 1/1/1 1/1/1
f 1/1/1 1/1/1 1/1/1
f 1/1/1 1/1/1 1/1/1
f 1/1/1 1/1/1 1/1/1
f 1/1/1 1/1/1 1/1/1
f 1/1/1 1/1/1 1/1/1
f 1/1/1 1/1/1 1/1/1
f 1/1/1 1/1/1 1/1/1
f 1/1/1 1/1/1 1/1/1
f 1/1/1 1/1/1 1/1/1
f 1/1/1 1/1/1 1/1/1
f 1/1/1 1/1/1 1/1/1
f 1/1/1 1/1/1 1/1/1
f 1/1/1 1/1/1 1/1/1
f 1/1/1 1/1/1 1/1/1
f 1/1/1 1/1/1 1/1/1
f 1/1/1 1/1/1 1/1/1
f 1/1/1 1/1/1 1/1/1
f 1/1/1 1/1/1 1/1/1
f 1/1/1 1/1/1 1/1/1
f 1/1/1 1/1/1 1/1/1
f 1/1/1 1/1/1 1/1/1
f 1/1/1 1/1/1 1/1/1
f 1/1/1 1/1/1 1/1/1
f 1/1/1 1/1/1 1/1/1
f 1/1/1 1/1/1 1/1/1
f 1/1/1 1/1/1 1/1/1
f 1/1/1 1/1/1 1/1/1
f 1/1/1 1/1/1 1/1/1
f 1/1/1 1/1/1 1/1/1
f 1/1/1 1/1/1 1/1/1
f 1/1/1 1/1/1 1/1/1
f 1/1/1 1/1/1 1/1/1
f 1/1/1 1/1/1 1/1/1
f 1/1/1 1/1/1 1/1/1
f 1/1/1 1/1/1 1/1/1
f 1/1/1 1/1/1 1/1/1
f 1/1/1 1/1/1 1/1/1
f 1/1/1 1/1/1 1/1/1
f 1/1/1 1/1/1 1/1/1
f 1/1/1 1/1/1 1/1/1
f 1/1/1 1/1/1 1/1/1
f 1/1/1 1/1/1 1/1/1
f 1/1/1 1/1/1 1/1/1
f 1/1/1 1/1/1 1/1/1
f 1/1/1 1/1/1 1/1/1
f 1/1/1 1/1/1 1/1/1
f 1/1/1 1/1/1 1/1/1
f 1/1/1 1/1/1 1/1/1
f 1/1/1 1/1/1 1/1/1
f 1/1/1 1/1/1 1/1/1
f 1/1/1 1/1/1 1/1/1
f 1/1/1 1/1/1 1/1/1
f 1/1/1 1/1/1 1/1/1
f 1/1/1 1/1/1 1/1/1
f 1/1/1 1/1/1 1/1/1
f 1/1/1 1/1/1 1/1/1
f 1/1/1 1/1/1 1/1/1
f 1/1/1 1/1/1 1/1/1
f 1/1/1 1/1/1 1/1/1
f 1/1/1 1/1/1 1/1/1
f 1/1/1 1/1/1 1/1/1
f 1/1/1 1/1/1 1/1/1
f 1/1/1 1/1/1 1/1/1
f 1/1/1 1/1/1 1/1/1
f 1/1/1 1/1/1 1/1/1
f 1/1/1 1/1/1 1/1/1
f 1/1/1 1/1/1 1/1/1
f 1/1/1 1/1/1 1/1/1
f 1/1/1 1/1/1 1/1/1
f 1/1/1 1/1/1 1/1/1
f 1/1/1 1/1/1 1/1/1
f 1/1/1 1/1/1 1/1/1
f 1/1/1 1/1/1 1/1/1
f 1/1/1 1/1/1 1/1/1
f 1/1/1 1/1/1 1/1/1
f 1/1/1 1/1/1 1/1/1
f 1/1/1 1/1/1 1/1/1
f 1/1/1 1/1/1 1/1/1
f 1/1/1 1/1/1 1/1/1
f 1/1/1 1/1/1 1/1/1
f 1/1/1 1/1/1 1/1/1
f 1/1/1 1/1/1 1/1/1
f 1/1/1 1/1/1 1/1/1
f 1/1/1 1/1/1 1/1/1
f 1/1/1 1/1/1 1/1/1
f 1/1/1 1/1/1 1/1/1
f 1/1/1 1/1/1 1/1/1
f 1/1/1 1/1/1 1/1/1
f 1/1/1 1/1/1 1/1/1
f 1/1/1 1/1/1 1/1/1
f 1/1/1 1/1/1 1/1/1
f 1/1/1 1/1/1 1/1/1
f 1/1/1 1/1/1 1/1/1
f 1/1/1 1/1/1 1/1/1
f 1/1/1 1/1/1 1/1/1
f 1/1/1 1/1/1 1/1/1
f 1/1/1 1/1/1 1/1/1
f 1/1/1 1/1/1 1/1/1
f 1/1/1 1/1/1 1/1/1
f 1/1/1 1/1/1 1/1/1
f 1/1/1 1/1/1 1/1/1
f 1/1/1 1/1/1 1/1/1
f 1/1/1 1/1/1 1/1/1
f 1/1/1 1/1/1 1/1/1
f 1/1/1 1/1/1 1/1/1
f 1/1/1 1/1/1 1/1/1
f 1/1/1 1/1/1 1/1/1
f 1/1/1 1/1/1 1/1/1
f 1/1/1 1/1/1 1/1/1
f 1/1/1 1/1/1 1/1/1
f 1/1/1 1/1/1 1/1/1
f 1/1/1 1/1/1 1/1/1
f 1/1/1 1/1/1 1/1/1
f 1/1/1 1/1/1 1/1/1
f 1/1/1 1/1/1 1/1/1
f 1/1/1 1/1/1 1/1/1
f 1/1/1 1/1/1 1/1/1
f 1/1/1 1/1/1 1/1/1
f 1/1/1 1/1/1 1/1/1
f 1/1/1 1/1/1 1/1/1
f 1/1/1 1/1/1 1/1/1
f 1/1/1 1/1/1 1/1/1
f 1/1/1 1/1/1 1/1/1
f 1/1/1 1/1/1 1/1/1
f 1/1/1 1/1/1 1/1/1
f 1/1/1 1/1/1 1/1/1
f 1/1/1 1/1/1 1/1/1
f 1/1/1 1/1/1 1/1/1
f 1/1/1 1/1/1 1/1/1
f 1/1/1 1/1/1 1/1/1
f 1/1/1 1/1/1 1/1/1
f 1/1/1 1/1/1 1/1/1
f 1/1/1 1/1/1 1/1/1
f 1/1/1 1/1/1 1/1/1
f 1/1/1 1/1/1 1/1/1
f 1/1/1 1/1/1 1/1/1
f 1/1/1 1/1/1 1/1/1
f 1/1/1 1/1/1 1/1/1
f 1/1/1 1/1/1 1/1/1
f 1/1/1 1/1/1 1/1/1
f 1/1/1 1/1/1 1/1/1
f 1/1/1 1/1/1 1/1/1
f 1/1/1 1/1/1 1/1/1
f 1/1/1 1/1/1 1/1/1
f 1/1/1 1/1/1 1/1/1
f 1/1/1 1/1/1 1/1/1
f 1/1/1 1/1/1 1/1/1
f 1/1/1 1/1/1 1/1/1
f 1/1/1 1/1/1 1/1/1
f 1/1/1 1/1/1 1/1/1
f 1/1/1 1/1/1 1/1/1
f 1/1/1 1/1/1 1/1/1
f 1/1/1 1/1/1 1/1/1
f 1/1/1 1/1/1 1/1/1
f 1/1/1 1/1/1 1/1/1
f 1/1/1 1/1/1 1/1/1
f 1/1/1 1/1/1 1/1/1
f 1/1/1 1/1/1 1/1/1
f 1/1/1 1/1/1 1/1/1
f 1/1/1 1/1/1 1/1/1
f 1/1/1 1/1/1 1/1/1
f 1/1/1 1/1/1 1/1/1
f 1/1/1 1/1/1 1/1/1
f 1/1/1 1/1/1 1/1/1
f 1/1/1 1/1/1 1/1/1
f 1/1/1 1/1/1 1/1/1
f 1/1/1 1/1/1 1/1/1
f 1/1/1 1/1/1 1/1/1
f 1/1/1 1/1/1 1/1/1
f 1/1/1 1/1/1 1/1/1
f 1/1/1 1/1/1 1/1/1
f 1/1/1 1/1/1 1/1/1
f 1/1/1 1/1/1 1/1/1
f 1/1/1 1/1/1 1/1/1
f 1/1/1 1/1/1 1/1/1
f 1/1/1 1/1/1 1/1/1
f 1/1/1 1/1/1 1/1/1
f 1/1/1 1/1/1 1/1/1
f 1/1/1 1/1/1 1/1/1
f 1/1/1 1/1/1 1/1/1
f 1/1/1 1/1/1 1/1/1
f 1/1/1 1/1/1 1/1/1
f 1/1/1 1/1/1 1/1/1
f 1/1/1 1/1/1 1/1/1
f 1/1/1 1/1/1 1/1/1
f 1/1/1 1/1/1 1/1/1
f 1/1/1 1/1/1 1/1/1
f 1/1/1 1/1/1 1/1/1
f 1/1/1 1/1/1 1/1/1
f 1/1/1 1/1/1 1/1/1
f 1/1/1 1/1/1 1/1/1
f 1/1/1 1/1/1 1/1/1
f 1/1/1 1/1/1 1/1/1
f 1/1/1 1/1/1 1/1/1
f 1/1/1 1/1/1 1/1/1
f 1/1/1 1/1/1 1/1/1
f 1/1/1 1/1/1 1/1/1
f 1/1/1 1/1/1 1/1/1
f 1/1/1 1/1/1 1/1/1
f 1/1/1 1/1/1 1/1/1
f 1/1/1 1/1/1 1/1/1
f 1/1/1 1/1/1 1/1/1
f 1/1/1 1/1/1 1/1/1
f 1/1/1 1/1/1 1/1/1
f 1/1/1 1/1/1 1/1/1
f 1/1/1 1/1/1 1/1/1
f 1/1/1 1/1/1 1/1/1
f 1/1/1 1/1/1 1/1/1
f 1/1/1 1/1/1 1/1/1
f 1/1/1 1/1/1 1/1/1
f 1/1/1 1/1/1 1/1/1
f 1/1/1 1/1/1 1/1/1
f 1/1/1 1/1/1 1/1/1
f 1/1/1 1/1/1 1/1/1
f 1/1/1 1/1/1 1/1/1
f 1/1/1 1/1/1 1/1/1
f 1/1/1 1/1/1 1/1/1
f 1/1/1 1/1/1 1/1/1
f 1/1/1 1/1/1 1/1/1
f 1/1/1 1/1/1 1/1/1
f 1/1/1 1/1/1 1/1/1
f 1/1/1 1/1/1 1/1/1
f 1/1/1 1/1/1 1/1/1
f 1/1/1 1/1/1 1/1/1
f 1/1/1 1/1/1 1/1/1
f 1/1/1 1/1/1 1/1/1
f 1/1/1 1/1/1 1/1/1
f 1/1/1 1/1/1 1/1/1
f 1/1/1 1/1/1 1/1/1
f 1/1/1 1/1/1 1/1/1
f 1/1/1 1/1/1 1/1/1
f 1/1/1 1/1/1 1/1/1
f 1/1/1 1/1/1 1/1/1
f 1/1/1 1/1/1 1/1/1
f 1/1/1 1/1/1 1/1/1
f 1/1/1 1/1/1 1/1/1
f 1/1/1 1/1/1 1/1/1
f 1/1/1 1/1/1 1/1/1
f 1/1/1 1/1/1 1/1/1
f 1/1/1 1/1/1 1/1/1
f 1/1/1 1/1/1 1/1/1
f 1/1/1 1/1/1 1/1/1
f 1/1/1 1/1/1 1/1/1
f 1/1/1 1/1/1 1/1/1
f 1/1/1 1/1/1 1/1/1
f 1/1/1 1/1/1 1/1/1
f 1/1/1 1/1/1 1/1/1
f 1/1/1 1/1/1 1/1/1
f 1/1/1 1/1/1 1/1/1
f 1/1/1 1/1/1 1/1/1
f 1/1/1 1/1/1 1/1/1
f 1/1/1 1/1/1 1/1/1
f 1/1/1 1/1/1 1/1/1
f 1/1/1 1/1/1 1/1/1
f 1/1/1 1/1/1 1/1/1
f 1/1/1 1/1/1 1/1/1
f 1/1/1 1/1/1 1/1/1
f 1/1/1 1/1/1 1/1/1
f 1/1/1 1/1/1 1/1/1
f 1/1/1 1/1/1 1/1/1
f 1/1/1 1/1/1 1/1/1
f 1/1/1 1/1/1 1/1/1
f 1/1/1 1/1/1 1/1/1
f 1/1/1 1/1/1 1/1/1
f 1/1/1 1/1/1 1/1/1
f 1/1/1 1/1/1 1/1/1
f 1/1/1 1/1/1 1/1/1
f 1/1/1 1/1/1 1/1/1
f 1/1/1 1/1/1 1/1/1
f 1/1/1 1/1/1 1/1/1
f 1/1/1 1/1/1 1/1/1
f 1/1/1 1/1/1 1/1/1
f 1/1/1 1/1/1 1/1/1
f 1/1/1 1/1/1 1/1/1
f 1/1/1 1/1/1 1/1/1
f 1/1/1 1/1/1 1/1/1
f 1/1/1 1/1/1 1/1/1
f 1/1/1 1/1/1 1/1/1
f 1/1/1 1/1/1 1/1/1
f 1/1/1 1/1/1 1/1/1
f 1/1/1 1/1/1 1/1/1
f 1/1/1 1/1/1 1/1/1
f 1/1/1 1/1/1 1/1/1
f 1/1/1 1/1/1 1/1/1
f 1/1/1 1/1/1 1/1/1
f 1/1/1 1/1/1 1/1/1
f 1/1/1 1/1/1 1/1/1
f 1/1/1 1/1/1 1/1/1
f 1/1/1 1/1/1 1/1/1
f 1/1/1 1/1/1 1/1/1
f 1/1/1 1/1/1 1/1/1
f 1/1/1 1/1/1 1/1/1
f 1/1/1 1/1/1 1/1/1
f 1/1/1 1/1/1 1/1/1
f 1/1/1 1/1/1 1/1/1
f 1/1/1 1/1/1 1/1/1
f 1/1/1 1/1/1 1/1/1
f 1/1/1 1/1/1 1/1/1
f 1/1/1 1/1/1 1/1/1
f 1/1/1 1/1/1 1/1/1
f 1/1/1 1/1/1 1/1/1
f 1/1/1 1/1/1 1/1/1
f 1/1/1 1/1/1 1/1/1
f 1/1/1 1/1/1 1/1/1
f 1/1/1 1/1/1 1/1/1
f 1/1/1 1/1/1 1/1/1
f 1/1/1 1/1/1 1/1/1
f 1/1/1 1/1/1 1/1/1
f 1/1/1 1/1/1 1/1/1
f 1/1/1 1/1/1 1/1/1
f 1/1/1 1/1/1 1/1/1
f 1/1/1 1/1/1 1/1/1
f 1/1/1 1/1/1 1/1/1
f 1/1/1 1/1/1 1/1/1
f 1/1/1 1/1/1 1/1/1
f 1/1/1 1/1/1 1/1/1
f 1/1/1 1/1/1 1/1/1
f 1/1/1 1/1/1 1/1/1
f 1/1/1 1/1/1 1/1/1
f 1/1/1 1/1/1 1/1/1
f 1/1/1 1/1/1 1/1/1
f 1/1/1 1/1/1 1/1/1
f 1/1/1 1/1/1 1/1/1
f 1/1/1 1/1/1 1/1/1
f 1/1/1 1/1/1 1/1/1
f 1/1/1 1/1/1 1/1/1
f 1/1/1 1/1/1 1/1/1
f 1/1/1 1/1/1 1/1/1
f 1/1/1 1/1/1 1/1/1
f 1/1/1 1/1/1 1/1/1
f 1/1/1 1/1/1 1/1/1
