g DoubleRollerPumpTube1
v 3.169741 0.1618841 -5.988663
v 2.993387 0.2351074 -6.00087
v 2.817029 0.1618841 -6.013033
v 2.743976 -0.01489261 -6.01803
v 2.817022 -0.1916693 -6.012931
v 2.993376 -0.2648925 -6.000725
v 3.169734 -0.1916692 -5.988561
v 3.242787 -0.01489252 -5.983565
v 3.169741 0.1618841 -5.988663
v 3.158246 0.1633501 -5.76683
v 2.981593 0.2365671 -5.773529
v 2.804878 0.1633501 -5.778302
v 2.731618 -0.01341132 -5.778354
v 2.804728 -0.1901727 -5.773654
v 2.98138 -0.2633896 -5.766954
v 3.158095 -0.1901726 -5.762181
v 3.231355 -0.01341123 -5.76213
v 3.158246 0.1633501 -5.76683
v 3.154769 0.1676607 -5.549195
v 2.977987 0.2408594 -5.550514
v 2.801217 0.1676607 -5.548037
v 2.728009 -0.009056581 -5.543214
v 2.801247 -0.1857739 -5.538871
v 2.978029 -0.2589725 -5.537552
v 3.154799 -0.1857738 -5.540029
v 3.228007 -0.009056495 -5.544852
v 3.154769 0.1676607 -5.549195
v 3.158815 0.1746835 -5.335584
v 2.982059 0.2478525 -5.331686
v 2.805517 0.1746835 -5.322151
v 2.732605 -0.001962056 -5.312565
v 2.806034 -0.1786076 -5.308543
v 2.982791 -0.2517765 -5.312441
v 3.159333 -0.1786075 -5.321976
v 3.232244 -0.001961972 -5.331562
v 3.158815 0.1746835 -5.335584
v 3.169898 0.1842865 -5.125831
v 2.993307 0.257415 -5.11691
v 2.817249 0.1842865 -5.100558
v 2.744856 0.007738605 -5.086355
v 2.818535 -0.1688092 -5.082621
v 2.995125 -0.2419377 -5.091542
v 3.171184 -0.1688091 -5.107893
v 3.243577 0.007738688 -5.122096
v 3.169898 0.1842865 -5.125831
v 3.187537 0.1963384 -4.919772
v 3.011233 0.2694167 -4.906052
v 2.835883 0.1963384 -4.883169
v 2.764205 0.01991177 -4.864529
v 2.838186 -0.1565149 -4.861051
v 3.014489 -0.2295931 -4.874771
v 3.189839 -0.1565148 -4.897654
v 3.261518 0.01991185 -4.916294
v 3.187537 0.1963384 -4.919772
v 3.211257 0.2107083 -4.717257
v 3.035342 0.2837278 -4.698987
v 2.86089 0.2107083 -4.669894
v 2.790093 0.03442377 -4.647022
v 2.864422 -0.1418608 -4.643768
v 3.040337 -0.2148802 -4.662038
v 3.214789 -0.1418606 -4.691131
v 3.285586 0.03442385 -4.714003
v 3.211257 0.2107083 -4.717257
v 3.240587 0.2272655 -4.518137
v 3.065141 0.3002186 -4.495593
v 2.891739 0.2272655 -4.460647
v 2.821957 0.05114097 -4.433771
v 2.896673 -0.1249835 -4.430708
v 3.072119 -0.1979366 -4.453252
v 3.245521 -0.1249834 -4.488198
v 3.315302 0.05114105 -4.515074
v 3.240587 0.2272655 -4.518137
v 3.275056 0.2458791 -4.322278
v 3.100137 0.3187598 -4.295753
v 2.927898 0.2458791 -4.255334
v 2.859234 0.06992972 -4.224696
v 2.934367 -0.1060197 -4.221787
v 3.109286 -0.1789003 -4.248311
v 3.281525 -0.1060196 -4.288731
v 3.350189 0.0699298 -4.319368
v 3.275056 0.2458791 -4.322278
v 3.314196 0.266419 -4.129544
v 3.13984 0.3392222 -4.099355
v 2.968837 0.2664189 -4.053865
v 2.901358 0.09065638 -4.019722
v 2.976932 -0.08510615 -4.016925
v 3.151288 -0.1579093 -4.047114
v 3.32229 -0.08510605 -4.092604
v 3.389769 0.09065647 -4.126748
v 3.314196 0.266419 -4.129544
v 3.357535 0.288754 -3.939818
v 3.183755 0.3614761 -3.906293
v 3.014024 0.288754 -3.856149
v 2.947767 0.1131873 -3.81876
v 3.023797 -0.0623794 -3.816026
v 3.197576 -0.1351015 -3.849551
v 3.367307 -0.0623793 -3.899695
v 3.433564 0.1131874 -3.937084
v 3.357535 0.288754 -3.939818
v 3.404602 0.3127536 -3.752976
v 3.231391 0.385392 -3.716461
v 3.062928 0.3127536 -3.662094
v 2.997897 0.1373888 -3.621724
v 3.074392 -0.03797599 -3.618997
v 3.247603 -0.1106144 -3.655512
v 3.416065 -0.03797589 -3.709879
v 3.481096 0.1373889 -3.750249
v 3.404602 0.3127536 -3.752976
v 3.45492 0.3382865 -3.568909
v 3.28225 0.4108398 -3.529758
v 3.11502 0.3382865 -3.471606
v 3.05119 0.1631273 -3.428517
v 3.128152 -0.01203197 -3.425731
v 3.300822 -0.08458526 -3.464881
v 3.468053 -0.01203187 -3.523034
v 3.531882 0.1631273 -3.566123
v 3.45492 0.3382865 -3.568909
v 3.508015 0.3652219 -3.387496
v 3.335838 0.4376898 -3.346083
v 3.169767 0.3652219 -3.284596
v 3.107085 0.190269 -3.239053
v 3.18451 0.01531612 -3.236134
v 3.356688 -0.05715172 -3.277547
v 3.522758 0.01531621 -3.339034
v 3.58544 0.1902691 -3.384577
v 3.508015 0.3652219 -3.387496
v 3.563399 0.3934277 -3.208645
v 3.391652 0.4658104 -3.165342
v 3.226643 0.3934277 -3.100964
v 3.165033 0.2186804 -3.053222
v 3.242913 0.04393319 -3.050083
v 3.41466 -0.02844946 -3.093385
v 3.579669 0.04393328 -3.157763
v 3.641279 0.2186805 -3.205505
v 3.563399 0.3934277 -3.208645
v 3.620598 0.4227732 -3.032222
v 3.449197 0.4950722 -2.987431
v 3.285118 0.4227732 -2.92063
v 3.224475 0.2482279 -2.870951
v 3.302792 0.07368257 -2.867495
v 3.474193 0.001383573 -2.912286
v 3.638273 0.07368267 -2.979087
v 3.698916 0.2482279 -3.028766
v 3.620598 0.4227732 -3.032222
v 3.679112 0.4531254 -2.858143
v 3.507966 0.5253426 -2.81226
v 3.344665 0.4531254 -2.74349
v 3.28487 0.2787776 -2.692119
v 3.363606 0.1044299 -2.688239
v 3.534752 0.03221275 -2.734123
v 3.698053 0.10443 -2.802892
v 3.757849 0.2787777 -2.854263
v 3.679112 0.4531254 -2.858143
v 3.738462 0.4843538 -2.686271
v 3.567463 0.5564923 -2.639722
v 3.404761 0.4843538 -2.569468
v 3.345665 0.3101962 -2.516662
v 3.424792 0.1360385 -2.512238
v 3.595792 0.06390007 -2.558787
v 3.758494 0.1360386 -2.629042
v 3.81759 0.3101962 -2.681847
v 3.738462 0.4843538 -2.686271
v 3.798144 0.5163252 -2.516512
v 3.627178 0.5883882 -2.469726
v 3.464881 0.5163252 -2.398462
v 3.406326 0.3423498 -2.344467
v 3.485814 0.1683744 -2.339369
v 3.65678 0.09631141 -2.386155
v 3.819077 0.1683744 -2.457418
v 3.877632 0.3423498 -2.511414
v 3.798144 0.5163252 -2.516512
v 3.857671 0.5489088 -2.348725
v 3.686614 0.6209008 -2.302162
v 3.524507 0.5489088 -2.230398
v 3.46631 0.3751047 -2.175471
v 3.546115 0.2013007 -2.169557
v 3.717173 0.1293087 -2.21612
v 3.87928 0.2013008 -2.287884
v 3.937476 0.3751048 -2.342811
v 3.857671 0.5489088 -2.348725
v 3.916532 0.5819713 -2.182808
v 3.74526 0.653897 -2.136937
v 3.58312 0.5819713 -2.065181
v 3.525091 0.4083275 -2.009573
v 3.605167 0.2346837 -2.002688
v 3.776439 0.1627581 -2.04856
v 3.938579 0.2346838 -2.120316
v 3.996607 0.4083276 -2.175924
v 3.916532 0.5819713 -2.182808
v 3.974236 0.6153829 -2.018603
v 3.802621 0.6872482 -1.973932
v 3.640207 0.6153829 -1.902739
v 3.582132 0.4418844 -1.846728
v 3.662417 0.2683859 -1.838709
v 3.834031 0.1965206 -1.88338
v 3.996446 0.268386 -1.954573
v 4.054521 0.4418845 -2.010584
v 3.974236 0.6153829 -2.018603
v 4.030259 0.6490097 -1.856002
v 3.858184 0.720821 -1.813048
v 3.695259 0.6490097 -1.742975
v 3.636923 0.4756417 -1.686831
v 3.717348 0.3022738 -1.677505
v 3.889423 0.2304625 -1.72046
v 4.052348 0.3022739 -1.790533
v 4.110684 0.4756418 -1.846676
v 4.030259 0.6490097 -1.856002
v 4.084105 0.682723 -1.694826
v 3.911457 0.7544884 -1.654157
v 3.747773 0.682723 -1.585826
v 3.688938 0.5094661 -1.529861
v 3.769416 0.3362091 -1.519045
v 3.942064 0.2644437 -1.559715
v 4.105748 0.3362091 -1.628045
v 4.164583 0.5094661 -1.68401
v 4.084105 0.682723 -1.694826
v 4.135242 0.7163901 -1.534942
v 3.961927 0.7881181 -1.497146
v 3.797251 0.7163901 -1.431203
v 3.737679 0.5432233 -1.375739
v 3.818109 0.3700565 -1.363247
v 3.991424 0.2983285 -1.401042
v 4.1561 0.3700566 -1.466986
v 4.215672 0.5432234 -1.522449
v 4.135242 0.7163901 -1.534942
v 4.183147 0.7498813 -1.376175
v 4.009094 0.8215821 -1.341884
v 3.843203 0.7498813 -1.279027
v 3.782652 0.5767802 -1.224427
v 3.86291 0.4036791 -1.210066
v 4.036964 0.3319783 -1.244358
v 4.202855 0.4036792 -1.307214
v 4.263406 0.5767803 -1.361815
v 4.183147 0.7498813 -1.376175
v 4.227276 0.7830662 -1.218358
v 4.052446 0.8547513 -1.188234
v 3.885145 0.7830662 -1.129215
v 3.823376 0.610003 -1.075874
v 3.903321 0.4369398 -1.059457
v 4.078151 0.3652547 -1.089581
v 4.245452 0.4369399 -1.1486
v 4.307221 0.6100031 -1.201941
v 4.227276 0.7830662 -1.218358
v 4.267075 0.8158149 -1.061309
v 4.091475 0.8874974 -1.036052
v 3.922606 0.8158149 -0.9816779
v 3.859389 0.6427579 -0.9300393
v 3.938855 0.4697009 -0.9113852
v 4.114455 0.3980184 -0.9366428
v 4.283324 0.469701 -0.9910167
v 4.346541 0.642758 -1.042655
v 4.267075 0.8158149 -1.061309
v 4.30197 0.8479983 -0.9048366
v 4.12566 0.9196932 -0.8851809
v 3.955118 0.8479983 -0.8363242
v 3.890245 0.6749115 -0.7868861
v 3.969043 0.5018246 -0.7658268
v 4.145353 0.4301298 -0.7854825
v 4.315895 0.5018247 -0.8343392
v 4.380768 0.6749116 -0.8837773
v 4.30197 0.8479983 -0.9048366
v 4.33136 0.8794866 -0.7487642
v 4.154469 0.9512103 -0.7354593
v 3.982226 0.8794865 -0.693037
v 3.915528 0.7063301 -0.6463477
v 3.993446 0.5331736 -0.6227414
v 4.170337 0.4614498 -0.6360464
v 4.34258 0.5331737 -0.6784687
v 4.409278 0.7063301 -0.7251579
v 4.33136 0.8794866 -0.7487642
v 4.35462 0.91015 -0.5929065
v 4.177358 0.9819208 -0.586713
v 4.003478 0.9101499 -0.5516934
v 3.934838 0.7368798 -0.5083616
v 4.011646 0.5636097 -0.4821009
v 4.188909 0.4918388 -0.4882945
v 4.362789 0.5636098 -0.5233141
v 4.431429 0.7368799 -0.5666459
v 4.35462 0.91015 -0.5929065
v 4.371094 0.9398574 -0.4371057
v 4.193758 1.011695 -0.4387694
v 4.018424 0.9398574 -0.4121435
v 3.9478 0.7664272 -0.3728252
v 4.023258 0.592997 -0.3438466
v 4.200594 0.5211599 -0.342183
v 4.375928 0.5929971 -0.3688089
v 4.446552 0.7664273 -0.4081272
v 4.371094 0.9398574 -0.4371057
v 4.380095 0.9684768 -0.2812253
v 4.203081 1.0404 -0.2914528
v 4.026612 0.9684768 -0.2742127
v 3.954061 0.7948385 -0.239604
v 4.027927 0.6212004 -0.2079002
v 4.204942 0.5492771 -0.1976727
v 4.381411 0.6212004 -0.2149128
v 4.453962 0.7948387 -0.2495215
v 4.380095 0.9684768 -0.2812253
v 4.38091 0.9958725 -0.1251798
v 4.20471 1.067901 -0.144605
v 4.027578 0.9958725 -0.1376989
v 3.953275 0.8219803 -0.108507
v 4.025326 0.6480882 -0.07412957
v 4.201525 0.5760598 -0.05470439
v 4.378657 0.6480883 -0.06161048
v 4.452961 0.8219804 -0.09080233
v 4.38091 0.9958725 -0.1251798
v 4.37281 1.021907 0.03106285
v 4.198006 1.094058 0.001917909
v 4.020841 1.021907 -0.002367976
v 3.945096 0.8477188 0.02071581
v 4.015141 0.6735309 0.0576471
v 4.189945 0.6013799 0.08679204
v 4.36711 0.673531 0.09107792
v 4.442855 0.8477189 0.06799413
v 4.37281 1.021907 0.03106285
v 4.355071 1.046437 0.187464
v 4.18231 1.118724 0.1482206
v 4.00589 1.046437 0.1320296
v 3.929155 0.8719202 0.1483755
v 3.997055 0.6974033 0.1876831
v 4.169815 0.6251161 0.2269265
v 4.346235 0.6974034 0.2431175
v 4.42297 0.8719203 0.2267716
v 4.355071 1.046437 0.187464
v 4.32699 1.069318 0.3439247
v 4.156961 1.14175 0.2943697
v 3.982187 1.069318 0.2657512
v 3.905046 0.8944511 0.2748333
v 3.970727 0.7195842 0.316296
v 4.140756 0.6471519 0.365851
v 4.31553 0.7195843 0.3944695
v 4.392671 0.8944513 0.3853874
v 4.32699 1.069318 0.3439247
v 4.287916 1.090401 0.5002682
v 4.121309 1.162981 0.4403853
v 3.949157 1.090401 0.399064
v 3.872304 0.9151778 0.4005095
v 3.93577 0.7399545 0.4438753
v 4.102377 0.6673747 0.5037581
v 4.274529 0.7399547 0.5450795
v 4.351382 0.9151779 0.5436339
v 4.287916 1.090401 0.5002682
v 4.237272 1.109535 0.6562684
v 4.07473 1.182258 0.5862461
v 3.906192 1.109535 0.5322275
v 3.830386 0.9339665 0.525856
v 3.891717 0.7583977 0.570864
v 4.054259 0.6856747 0.6408862
v 4.222797 0.7583978 0.6949048
v 4.298604 0.9339666 0.7012763
v 4.237272 1.109535 0.6562684
v 4.174556 1.126572 0.8117205
v 4.016651 1.199427 0.7319087
v 3.852679 1.126572 0.6654485
v 3.778692 0.9506838 0.6512715
v 3.838031 0.7747958 0.6976822
v 3.995935 0.7019406 0.777494
v 4.159908 0.7747958 0.8439541
v 4.233894 0.9506839 0.8581312
v 4.174556 1.126572 0.8117205
v 4.099362 1.141363 0.9663803
v 3.946543 1.214333 0.8773105
v 3.787969 1.141363 0.7989452
v 3.71653 0.9651957 0.7771897
v 3.774073 0.7890288 0.8247882
v 3.926892 0.7160582 0.913858
v 4.085466 0.7890289 0.9922233
v 4.156906 0.9651958 1.013979
v 4.099362 1.141363 0.9663803
v 4.011327 1.153765 1.120128
v 3.863932 1.226831 1.022416
v 3.711449 1.153765 0.9328507
v 3.6432 0.9773688 0.9038984
v 3.699166 0.8009728 0.9525189
v 3.846561 0.7279072 1.050231
v 3.999044 0.8009729 1.139797
v 4.067293 0.977369 1.168749
v 4.011327 1.153765 1.120128
v 3.910148 1.16364 1.272865
v 3.768378 1.236778 1.167207
v 3.622497 1.16364 1.067301
v 3.55796 0.9870694 1.031671
v 3.612572 0.8104989 1.081189
v 3.754342 0.7373611 1.186847
v 3.900224 0.8104991 1.286753
v 3.964761 0.9870695 1.322383
v 3.910148 1.16364 1.272865
v 3.795552 1.170853 1.424551
v 3.659468 1.244041 1.311695
v 3.520496 1.170853 1.202416
v 3.460043 0.9941639 1.160728
v 3.513522 0.8174744 1.211052
v 3.649606 0.7442872 1.323908
v 3.788578 0.8174745 1.433187
v 3.849031 0.994164 1.474875
v 3.795552 1.170853 1.424551
v 3.667202 1.175275 1.575301
v 3.53679 1.24849 1.455953
v 3.404894 1.175275 1.338247
v 3.348777 0.9985186 1.291134
v 3.401311 0.8217621 1.342212
v 3.531723 0.7485473 1.46156
v 3.663619 0.8217623 1.579266
v 3.719736 0.9985188 1.626379
v 3.667202 1.175275 1.575301
v 3.526823 1.176776 1.723148
v 3.400592 1.249998 1.59939
v 3.274013 1.176776 1.475989
v 3.221234 0.9999999 1.425231
v 3.273173 0.8232242 1.476849
v 3.399404 0.7500014 1.600606
v 3.525982 0.8232244 1.724007
v 3.578761 1 1.774765
v 3.526823 1.176776 1.723148
v 0 0 0
v 0 0 0
v 0 0 0
v 0 0 0
v 0 0 0
v 0 0 0
v 0 0 0
v 0 0 0
v 0 0 0
v 0 0 0
v 0 0 0
v 0 0 0
v 0 0 0
v 0 0 0
v 0 0 0
v 0 0 0
v 0 0 0
v 0 0 0
v 0 0 0
v 0 0 0
v 0 0 0
v 0 0 0
v 0 0 0
v 0 0 0
v 0 0 0
v 0 0 0
v 0 0 0
v 0 0 0
v 0 0 0
v 0 0 0
v 0 0 0
v 0 0 0
v 0 0 0
v 0 0 0
v 0 0 0
v 0 0 0
v 0 0 0
v 0 0 0
v 0 0 0
v 0 0 0
v 0 0 0
v 0 0 0
v 0 0 0
v 0 0 0
v 0 0 0
v 0 0 0
v 2.993382 -0.01489258 -6.000797
v 3.399998 0.9999999 1.599998

vn 0.3699021 0.8175946 -0.4412612
vn -0.0727521 0.8030573 -0.5914441
vn -0.617372 0.4961233 -0.6105027
vn -0.7825341 -0.1137195 -0.6121342
vn -0.4608517 -0.65859 -0.5948738
vn 0.1488941 -0.8083993 -0.569492
vn 0.6782364 -0.4857436 -0.551406
vn 0.8276943 0.1087933 -0.5505327
vn 0.6831319 0.2626233 -0.6814395
vn 0.3827806 0.9238334 -0.003304061
vn -0.00225065 0.9999437 -0.01036138
vn -0.708134 0.7054257 -0.03034502
vn -0.9994671 -1.671081E-05 -0.03264054
vn -0.709079 -0.7049475 -0.01600341
vn -0.005437162 -0.9999344 0.01008051
vn 0.7028985 -0.710638 0.03045089
vn 0.9994547 -0.002734088 0.03290718
vn 0.9233085 0.3826658 0.03268566
vn 0.3822496 0.9236113 -0.02876354
vn -0.002746074 0.9997293 -0.02310549
vn -0.708858 0.7052107 -0.01408412
vn -0.9999952 -0.0001177827 0.003079703
vn -0.7090901 -0.7048784 0.01838068
vn -0.004912473 -0.9997211 0.02309603
vn 0.7036514 -0.7103989 0.01443158
vn 0.9999926 -0.002622298 -0.002792096
vn 0.9239294 0.3825264 -0.005294573
vn 0.3804619 0.9232414 -0.05361032
vn -0.004072976 0.9993557 -0.03565805
vn -0.7092962 0.7049088 0.001602475
vn -0.9992855 -0.0002020177 0.03779717
vn -0.7076027 -0.7047007 0.05191598
vn -0.003485517 -0.999349 0.03590742
vn 0.7041683 -0.7100323 -0.001027599
vn 0.9992937 -0.0025082 -0.03749347
vn 0.9230552 0.3823321 -0.04232394
vn 0.3775365 0.9227328 -0.07765519
vn -0.006161496 0.9988326 -0.04791065
vn -0.7094824 0.7045269 0.01662932
vn -0.997456 -0.0002676844 0.07128381
vn -0.704752 -0.7044201 0.08436095
vn -0.001230692 -0.9988273 0.04839868
vn 0.7044808 -0.7095461 -0.01584788
vn 0.9974756 -0.002393005 -0.07096842
vn 0.9208161 0.3820875 -0.0781464
vn 0.3736148 0.9220979 -0.100734
vn -0.008922335 0.9981723 -0.05976999
vn -0.7094543 0.7040732 0.03091477
vn -0.9946469 -0.0003158225 0.1033315
vn -0.7006996 -0.7040453 0.1155005
vn 0.001761001 -0.9981685 0.06046944
vn 0.7046207 -0.7089517 -0.02995501
vn 0.9946778 -0.002280376 -0.1030103
vn 0.91737 0.3817974 -0.1125293
vn 0.368855 0.9213511 -0.1227114
vn -0.01225587 0.9973895 -0.07116271
vn -0.7092503 0.7035582 0.044383
vn -0.991014 -0.0003446513 0.133758
vn -0.6956294 -0.7035845 0.1451503
vn 0.005382943 -0.9973871 0.07204155
vn 0.704623 -0.7082611 -0.04327546
vn 0.991055 -0.002171029 -0.1334373
vn 0.9128948 0.3814691 -0.1452732
vn 0.3634273 0.9205078 -0.1434782
vn -0.01605465 0.9965002 -0.08203409
vn -0.7089146 0.7029906 0.05695897
vn -0.9867241 -0.0003578279 0.1624055
vn -0.6897364 -0.7030502 0.173159
vn 0.009522799 -0.9964994 0.08305649
vn 0.7045239 -0.7074881 -0.05573665
vn 0.9867741 -0.002068543 -0.1620879
vn 0.9075845 0.381108 -0.1762022
vn 0.3575047 0.9195845 -0.162956
vn -0.02020724 0.9955216 -0.09234878
vn -0.7084893 0.7023821 0.06857334
vn -0.9819505 -0.0003528869 0.189138
vn -0.6832271 -0.7024519 0.199404
vn 0.01406027 -0.9955223 0.09347579
vn 0.7043611 -0.7066469 -0.06727225
vn 0.9820079 -0.001972323 -0.1888295
vn 0.9016401 0.3807207 -0.2051754
vn 0.3512629 0.918597 -0.1810907
vn -0.02459894 0.9944709 -0.1020905
vn -0.7080183 0.7017433 0.07916062
vn -0.9768669 -0.0003335007 0.213848
vn -0.6763045 -0.701803 0.2237962
vn 0.01887862 -0.9944729 0.1032819
vn 0.7041733 -0.7057512 -0.07781586
vn 0.9769301 -0.001886542 -0.2135507
vn 0.8952658 0.3803141 -0.2320783
vn 0.3448709 0.9175616 -0.1978507
vn -0.02912283 0.9933648 -0.111258
vn -0.7075461 0.701084 0.0886559
vn -0.9716458 -0.0002997375 0.2364411
vn -0.6691723 -0.7011138 0.246268
vn 0.02386083 -0.9933681 0.1124734
vn 0.7039994 -0.7048143 -0.0873023
vn 0.9717126 -0.00180832 -0.2361595
vn 0.888663 0.3798946 -0.2568233
vn 0.3384904 0.9164933 -0.2132236
vn -0.03367043 0.9922193 -0.1198638
vn -0.7071152 0.7004137 0.09699848
vn -0.9664525 -0.0002537807 0.2568449
vn -0.6620224 -0.7003974 0.2667767
vn 0.02889736 -0.9922241 0.1210634
vn 0.7038779 -0.7038488 -0.09566971
vn 0.9665214 -0.001742378 -0.2565803
vn 0.8820283 0.3794666 -0.2793407
vn 0.332276 0.9154058 -0.2272114
vn -0.03814314 0.9910492 -0.1279322
vn -0.706764 0.6997443 0.1041272
vn -0.9614453 -0.0001922196 0.2749961
vn -0.6550425 -0.6996613 0.2852954
vn 0.03388329 -0.9910555 0.129077
vn 0.7038481 -0.7028645 -0.1028561
vn 0.9615135 -0.00168262 -0.2747525
vn 0.8755463 0.3790371 -0.2995825
vn 0.3263707 0.9143121 -0.2398244
vn -0.04244392 0.9898687 -0.1354935
vn -0.706534 0.6990802 0.1099848
vn -0.9567701 -0.0001250817 0.2908452
vn -0.6483982 -0.6989204 0.3018113
vn 0.03872355 -0.9898762 0.1365486
vn 0.7039419 -0.7018753 -0.1087968
vn 0.9568379 -0.001640047 -0.2906175
vn 0.8693941 0.3786089 -0.3175048
vn 0.3209035 0.9132242 -0.251083
vn -0.0464913 0.9886899 -0.1425864
vn -0.7064544 0.6984347 0.1145042
vn -0.9525651 -3.960976E-05 0.3043347
vn -0.6422577 -0.6981775 0.316312
vn 0.04332766 -0.9886994 0.1435141
vn 0.7041997 -0.7008815 -0.1134366
vn 0.9526276 -0.001593565 -0.3041351
vn 0.8637291 0.3781901 -0.3330832
vn 0.3160024 0.9121522 -0.2609998
vn -0.05018951 0.9875252 -0.1492485
vn -0.7065578 0.6978105 0.1176289
vn -0.9489511 4.525825E-05 0.3154231
vn -0.6367534 -0.6974519 0.3287947
vn 0.0476164 -0.9875358 0.1500195
vn 0.704641 -0.6999018 -0.116698
vn 0.9490104 -0.001570957 -0.3152409
vn 0.8587053 0.3777791 -0.3462775
vn 0.311772 0.9111069 -0.2695971
vn -0.05347677 0.9863842 -0.1555201
vn -0.706863 0.6972202 0.1192841
vn -0.9460416 0.0001493471 0.3240451
vn -0.6320345 -0.6967385 0.3392458
vn 0.05150729 -0.986397 0.1561021
vn 0.7052994 -0.698931 -0.1185247
vn 0.9460921 -0.001537353 -0.3238938
vn 0.8544515 0.3773862 -0.3570604
vn 0.3083235 0.9100966 -0.2768771
vn -0.0562587 0.985278 -0.1614377
vn -0.7073863 0.6966684 0.119406
vn -0.9439293 0.0002521295 0.3301473
vn -0.6282015 -0.6960614 0.3476511
vn 0.05493792 -0.9852922 0.1618053
vn 0.7061845 -0.6979845 -0.118832
vn 0.943974 -0.001524123 -0.3300164
vn 0.8510919 0.3770101 -0.3653846
vn 0.3057442 0.9091315 -0.2828434
vn -0.05848046 0.9842154 -0.1670328
vn -0.708133 0.6961643 0.1179098
vn -0.9426998 0.0003727006 0.333642
vn -0.6253802 -0.6954142 0.3539754
vn 0.05782974 -0.9842324 0.16716
vn 0.7073126 -0.6970586 -0.1175511
vn 0.942734 -0.001500615 -0.333542
vn 0.8487292 0.3766573 -0.371198
vn 0.3041289 0.9082199 -0.2874755
vn -0.06005247 0.9832071 -0.1723298
vn -0.7091 0.6957133 0.114718
vn -0.9424155 0.0004915726 0.334444
vn -0.6236472 -0.6948197 0.3581756
vn 0.06012733 -0.9832258 0.1721968
vn 0.7086778 -0.6961649 -0.1145873
vn 0.9424418 -0.001490963 -0.3343671
vn 0.8474576 0.3763279 -0.3744233
vn 0.303552 0.9073719 -0.2907446
vn -0.06091798 0.9822618 -0.1773439
vn -0.7102664 0.6953278 0.1097305
vn -0.943128 0.0006298922 0.3324292
vn -0.6231023 -0.6942725 0.3601795
vn 0.0617564 -0.982284 0.1769307
vn 0.7102754 -0.6952987 -0.1098566
vn 0.9431418 -0.001463368 -0.3323877
vn 0.8473475 0.3760299 -0.3749716
vn 0.3040936 0.9065971 -0.2925898
vn -0.06098457 0.9813919 -0.1820731
vn -0.7116023 0.695012 0.1028599
vn -0.9448608 0.0007610682 0.3274714
vn -0.6237913 -0.6937996 0.3598978
vn 0.06266201 -0.9814161 0.1813724
vn 0.7120697 -0.6944762 -0.1032445
vn 0.9448667 -0.001449746 -0.3274524
vn 0.8484614 0.375762 -0.3727145
vn 0.3058055 0.9059085 -0.2929386
vn -0.06020277 0.9806077 -0.1865053
vn -0.713054 0.6947806 0.09398903
vn -0.9476213 0.0009142255 0.3193948
vn -0.6257884 -0.693394 0.3572026
vn 0.06276991 -0.9806363 0.1855055
vn 0.7140303 -0.6936858 -0.0946613
vn 0.9476138 -0.001403163 -0.3194151
vn 0.850827 0.3755361 -0.3675133
vn 0.3087546 0.9053159 -0.2916737
vn -0.05846473 0.9799246 -0.1906032
vn -0.7145449 0.6946463 0.08301895
vn -0.951378 0.001065114 0.3080239
vn -0.6290976 -0.6930869 0.3519469
vn 0.06202922 -0.9799562 0.18931
vn 0.7160824 -0.6929458 -0.08397678
vn 0.9513621 -0.00136105 -0.3080718
vn 0.8544604 0.3753503 -0.359179
vn 0.312961 0.9048367 -0.2886626
vn -0.05572471 0.9793572 -0.1943049
vn -0.7159818 0.6946172 0.06983586
vn -0.9560697 0.001229258 0.293137
vn -0.6337395 -0.6928781 0.3439391
vn 0.06036344 -0.9793929 0.1927323
vn 0.7181411 -0.6922575 -0.07108462
vn 0.9560443 -0.001290906 -0.2932194
vn 0.8593343 0.3752126 -0.3475056
vn 0.31844 0.9044871 -0.2837233
vn -0.05190174 0.9789237 -0.1975214
vn -0.7172358 0.6947088 0.05433599
vn -0.9615864 0.001395837 0.274499
vn -0.6396692 -0.6927935 0.3329571
vn 0.05772612 -0.9789634 0.1956996
vn 0.7200901 -0.691628 -0.05586446
vn 0.9615546 -0.001198584 -0.2746112
vn 0.8653855 0.375131 -0.3322417
vn 0.3251625 0.9042867 -0.2766491
vn -0.04694589 0.9786448 -0.2001257
vn -0.7181499 0.6949343 0.03642746
vn -0.9677635 0.001566985 0.2518556
vn -0.646811 -0.6928483 0.3187426
vn 0.0540663 -0.9786888 0.1981034
vn 0.7217811 -0.6910655 -0.03821659
vn 0.9677271 -0.00107144 -0.2519983
vn 0.8724957 0.3751141 -0.3131146
vn 0.3330606 0.9042554 -0.2671944
vn -0.04081851 0.9785431 -0.2019582
vn -0.7185282 0.6953129 0.01604258
vn -0.974369 0.001741645 0.2249484
vn -0.655023 -0.6930634 0.3010114
vn 0.04935743 -0.9785912 0.1998071
vn 0.7230316 -0.690579 -0.01805498
vn 0.9743309 -0.000902806 -0.2251189
vn 0.8804819 0.375168 -0.2898285
vn 0.3420033 0.9044144 -0.2550848
vn -0.03351751 0.978644 -0.2028119
vn -0.7181506 0.6958539 -0.006848142
vn -0.9810924 0.001911379 0.1935305
vn -0.6640897 -0.6934606 0.2794588
vn 0.04358981 -0.9786949 0.2006399
vn 0.7236137 -0.6901893 0.004683072
vn 0.9810575 -0.0006950155 -0.1937155
vn 0.8890833 0.3753008 -0.2620688
vn 0.3517724 0.9047867 -0.240036
vn -0.02510092 0.9789715 -0.2024466
vn -0.7167656 0.6965691 -0.03222543
vn -0.987535 0.002078991 0.157386
vn -0.6737102 -0.6940543 0.2537778
vn 0.03679851 -0.9790246 0.2003912
vn 0.723278 -0.6899051 0.02999526
vn 0.9875063 -0.000425945 -0.1575785
vn 0.8979381 0.3755234 -0.2295418
vn 0.3620611 0.9053909 -0.2217637
vn -0.01568012 0.9795502 -0.2005879
vn -0.7141054 0.6974629 -0.05999266
vn -0.9932034 0.002225012 0.1163706
vn -0.6834611 -0.6948693 0.2236906
vn 0.02907864 -0.9796033 0.198826
vn 0.7217383 -0.6897463 0.05782479
vn 0.993184 -0.0001012385 -0.1165569
vn 0.9065762 0.3758423 -0.1919957
vn 0.372446 0.9062408 -0.2000291
vn -0.005469119 0.9803984 -0.1969491
vn -0.7099017 0.6985312 -0.08996501
vn -0.9975124 0.002346219 0.07045168
vn -0.6928152 -0.6959116 0.1889821
vn 0.02058254 -0.9804497 0.1956909
vn 0.7186953 -0.689732 0.08801583
vn 0.9975038 0.0002843206 -0.07061423
vn 0.9144124 0.3762604 -0.1492593
vn 0.3823921 0.9073415 -0.1746637
vn 0.005222574 0.9815266 -0.1912548
vn -0.7039098 0.6997584 -0.1218573
vn -0.9998021 0.002422962 0.01974714
vn -0.7011184 -0.6971853 0.1495518
vn 0.01155792 -0.9815726 0.1907399
vn 0.7138557 -0.6898796 0.1203175
vn 0.9998024 0.0007270107 -0.01986664
vn 0.9207489 0.3767757 -0.1012987
vn 0.3912559 0.9086847 -0.1456389
vn 0.01596192 0.9829307 -0.1832821
vn -0.6959401 0.7011105 -0.1552778
vn -0.9993695 0.002439742 -0.03542205
vn -0.7076262 -0.6986713 0.1054684
vn 0.002329925 -0.9829686 0.183759
vn 0.7069564 -0.6902087 0.1543519
vn 0.9993738 0.001220351 0.03536181
vn 0.9247985 0.3773823 -0.04827175
vn 0.3983234 0.9102451 -0.1131026
vn 0.02622519 0.9845881 -0.1729117
vn -0.6858814 0.7025418 -0.189741
vn -0.995522 0.002377558 -0.09450059
vn -0.7115267 -0.7003413 0.05702413
vn -0.006673528 -0.9846148 0.1746109
vn 0.6978133 -0.6907222 0.1896296
vn 0.9955225 0.001754851 0.09450941
vn 0.9257302 0.3780679 0.009406222
vn 0.4028692 0.9119769 -0.07742338
vn 0.03542081 0.9864547 -0.1601641
vn -0.6737295 0.703992 -0.2246858
vn -0.9876467 0.002222624 -0.156681
vn -0.7120199 -0.702143 0.004774511
vn -0.0149666 -0.9864683 0.1632673
vn 0.6863397 -0.6914191 0.2255602
vn 0.9876338 0.002312521 0.1567618
vn 0.9227443 0.3788076 0.07104826
vn 0.4042332 0.913815 -0.03921149
vn 0.0429482 0.9884635 -0.1452425
vn -0.6596054 0.7053878 -0.2595165
vn -0.9752917 0.001965181 -0.2209122
vn -0.7084054 -0.7040014 -0.0504365
vn -0.02204803 -0.9884626 0.1498513
vn 0.6725706 -0.6922937 0.2614921
vn 0.9752546 0.002855607 0.2210665
vn 0.9151639 0.3795668 0.1356618
vn 0.4018995 0.9156835 0.0007070795
vn 0.04825603 0.9905289 -0.1285454
vn -0.6437494 0.7066476 -0.2936597
vn -0.9582342 0.001599695 -0.2859802
vn -0.7001731 -0.7058301 -0.1075244
vn -0.02744002 -0.9905136 0.1346471
vn 0.6566955 -0.693315 0.2967581
vn 0.9581665 0.003367017 0.2861918
vn 0.9025278 0.3803073 0.2020147
vn 0.3955871 0.9174971 0.04135189
vn 0.05095571 0.9925544 -0.1106306
vn -0.6264749 0.7077202 -0.3265904
vn -0.9365348 0.001158855 -0.3505728
vn -0.68709 -0.707536 -0.165227
vn -0.03074255 -0.9925269 0.1180902
vn 0.6390473 -0.6944256 0.3307439
vn 0.9364344 0.003843098 0.3508218
vn 0.884671 0.3809978 0.2686967
vn 0.3852894 0.9191731 0.08168814
vn 0.05084727 0.9944456 -0.09215519
vn -0.6081875 0.7085351 -0.357891
vn -0.9105414 0.0006239726 -0.4134173
vn -0.6692232 -0.7090554 -0.2222173
vn -0.03172403 -0.9944072 0.1007372
vn 0.6200222 -0.6955954 0.3629318
vn 0.9104134 0.00422696 0.4136781
vn 0.86177 0.381599 0.3342673
vn 0.3712727 0.920643 0.1207187
vn 0.0479546 0.9961188 -0.0738092
vn -0.5892639 0.7090914 -0.3872434
vn -0.880861 8.215636E-05 -0.4733751
vn -0.6469951 -0.7103012 -0.2772537
vn -0.03030694 -0.9960732 0.08318453
vn 0.6001245 -0.6967342 0.3929531
vn 0.880712 0.004565342 0.47363
vn 0.8343204 0.3820958 0.3973816
vn 0.3540422 0.9218537 0.1576066
vn 0.04252997 0.9975135 -0.05619713
vn -0.5701006 0.7093772 -0.4144504
vn -0.8482861 -0.0004780779 -0.529538
vn -0.6210422 -0.7112655 -0.3292537
vn -0.02659564 -0.9974632 0.06602897
vn 0.5798103 -0.6978087 0.4205746
vn 0.8481244 0.004802729 0.5297754
vn 0.8030918 0.3824671 0.4569054
vn 0.3342474 0.9227816 0.1917105
vn 0.03493645 0.9985955 -0.03982879
vn -0.5510444 0.7093996 -0.4394341
vn -0.813696 -0.001021575 -0.5812896
vn -0.5922109 -0.7119221 -0.3774295
vn -0.02086608 -0.9985433 0.04975918
vn 0.5595106 -0.6987793 0.4457076
vn 0.8135309 0.004954403 0.5815005
vn 0.7690099 0.3827096 0.5120128
vn 0.312611 0.9234221 0.222634
vn 0.02566443 0.9993571 -0.02503388
vn -0.5323541 0.709222 -0.4621727
vn -0.7779804 -0.001483927 -0.6282868
vn -0.561411 -0.7122757 -0.4212851
vn -0.01345361 -0.9993049 0.03476621
vn 0.5396181 -0.6995824 0.4683981
vn 0.7778119 0.005070211 0.6284767
vn 0.733055 0.3828357 0.5621984
vn 0.2899188 0.9238071 0.2500553
vn 0.01481363 0.9998136 -0.01238366
vn -0.5147881 0.7080287 -0.4834135
vn -0.741686 -0.003022872 -0.6707405
vn -0.5291245 -0.7126442 -0.4606143
vn -0.005156659 -0.9997683 0.02090064
vn 0.5199236 -0.7009992 0.488139
vn 0.7420111 0.004144643 0.6703748
vn 0.6963583 0.3828515 0.60705
vn -0.3388636 0.6167082 0.7105226
vn -0.3643208 0.7679178 0.5268516
vn -0.7804657 0.6076304 0.147169
vn -0.9936692 0.1057088 -0.0380432
vn -0.8924872 -0.4460775 0.06694317
vn -0.5343251 -0.7432725 0.4025454
vn -0.1154683 -0.6086403 0.7849994
vn 0.1163503 -0.1028428 0.9878693
vn 0.2423242 0.3370124 0.909781
vn 0 0 0
vn 0 0 0
vn 0 0 0
vn 0 0 0
vn 0 0 0
vn 0 0 0
vn 0 0 0
vn 0 0 0
vn 0 0 0
vn 0 0 0
vn 0 0 0
vn 0 0 0
vn 0 0 0
vn 0 0 0
vn 0 0 0
vn 0 0 0
vn 0 0 0
vn 0 0 0
vn 0 0 0
vn 0 0 0
vn 0 0 0
vn 0 0 0
vn 0 0 0
vn 0 0 0
vn 0 0 0
vn 0 0 0
vn 0 0 0
vn 0 0 0
vn 0 0 0
vn 0 0 0
vn 0 0 0
vn 0 0 0
vn 0 0 0
vn 0 0 0
vn 0 0 0
vn 0 0 0
vn 0 0 0
vn 0 0 0
vn 0 0 0
vn 0 0 0
vn 0 0 0
vn 0 0 0
vn 0 0 0
vn 0 0 0
vn 0 0 0
vn 0 0 0
vn 0.06892949 -0.000289946 -0.9976215
vn -0.6990652 0.003400251 0.7150499

vt 0 0
vt 0 0.125
vt 0 0.25
vt 0 0.375
vt 0 0.5000001
vt 0 0.6250001
vt 0 0.7500001
vt 0 0.8750001
vt 0 1
vt 0.0222222 0
vt 0.0222222 0.125
vt 0.0222222 0.25
vt 0.0222222 0.375
vt 0.0222222 0.5000001
vt 0.0222222 0.6250001
vt 0.0222222 0.7500001
vt 0.0222222 0.8750001
vt 0.0222222 1
vt 0.0444444 0
vt 0.0444444 0.125
vt 0.0444444 0.25
vt 0.0444444 0.375
vt 0.0444444 0.5000001
vt 0.0444444 0.6250001
vt 0.0444444 0.7500001
vt 0.0444444 0.8750001
vt 0.0444444 1
vt 0.0666666 0
vt 0.0666666 0.125
vt 0.0666666 0.25
vt 0.0666666 0.375
vt 0.0666666 0.5000001
vt 0.0666666 0.6250001
vt 0.0666666 0.7500001
vt 0.0666666 0.8750001
vt 0.0666666 1
vt 0.0888888 0
vt 0.0888888 0.125
vt 0.0888888 0.25
vt 0.0888888 0.375
vt 0.0888888 0.5000001
vt 0.0888888 0.6250001
vt 0.0888888 0.7500001
vt 0.0888888 0.8750001
vt 0.0888888 1
vt 0.111111 0
vt 0.111111 0.125
vt 0.111111 0.25
vt 0.111111 0.375
vt 0.111111 0.5000001
vt 0.111111 0.6250001
vt 0.111111 0.7500001
vt 0.111111 0.8750001
vt 0.111111 1
vt 0.1333332 0
vt 0.1333332 0.125
vt 0.1333332 0.25
vt 0.1333332 0.375
vt 0.1333332 0.5000001
vt 0.1333332 0.6250001
vt 0.1333332 0.7500001
vt 0.1333332 0.8750001
vt 0.1333332 1
vt 0.1555554 0
vt 0.1555554 0.125
vt 0.1555554 0.25
vt 0.1555554 0.375
vt 0.1555554 0.5000001
vt 0.1555554 0.6250001
vt 0.1555554 0.7500001
vt 0.1555554 0.8750001
vt 0.1555554 1
vt 0.1777776 0
vt 0.1777776 0.125
vt 0.1777776 0.25
vt 0.1777776 0.375
vt 0.1777776 0.5000001
vt 0.1777776 0.6250001
vt 0.1777776 0.7500001
vt 0.1777776 0.8750001
vt 0.1777776 1
vt 0.1999998 0
vt 0.1999998 0.125
vt 0.1999998 0.25
vt 0.1999998 0.375
vt 0.1999998 0.5000001
vt 0.1999998 0.6250001
vt 0.1999998 0.7500001
vt 0.1999998 0.8750001
vt 0.1999998 1
vt 0.222222 0
vt 0.222222 0.125
vt 0.222222 0.25
vt 0.222222 0.375
vt 0.222222 0.5000001
vt 0.222222 0.6250001
vt 0.222222 0.7500001
vt 0.222222 0.8750001
vt 0.222222 1
vt 0.2444442 0
vt 0.2444442 0.125
vt 0.2444442 0.25
vt 0.2444442 0.375
vt 0.2444442 0.5000001
vt 0.2444442 0.6250001
vt 0.2444442 0.7500001
vt 0.2444442 0.8750001
vt 0.2444442 1
vt 0.2666664 0
vt 0.2666664 0.125
vt 0.2666664 0.25
vt 0.2666664 0.375
vt 0.2666664 0.5000001
vt 0.2666664 0.6250001
vt 0.2666664 0.7500001
vt 0.2666664 0.8750001
vt 0.2666664 1
vt 0.2888886 0
vt 0.2888886 0.125
vt 0.2888886 0.25
vt 0.2888886 0.375
vt 0.2888886 0.5000001
vt 0.2888886 0.6250001
vt 0.2888886 0.7500001
vt 0.2888886 0.8750001
vt 0.2888886 1
vt 0.3111108 0
vt 0.3111108 0.125
vt 0.3111108 0.25
vt 0.3111108 0.375
vt 0.3111108 0.5000001
vt 0.3111108 0.6250001
vt 0.3111108 0.7500001
vt 0.3111108 0.8750001
vt 0.3111108 1
vt 0.333333 0
vt 0.333333 0.125
vt 0.333333 0.25
vt 0.333333 0.375
vt 0.333333 0.5000001
vt 0.333333 0.6250001
vt 0.333333 0.7500001
vt 0.333333 0.8750001
vt 0.333333 1
vt 0.3555552 0
vt 0.3555552 0.125
vt 0.3555552 0.25
vt 0.3555552 0.375
vt 0.3555552 0.5000001
vt 0.3555552 0.6250001
vt 0.3555552 0.7500001
vt 0.3555552 0.8750001
vt 0.3555552 1
vt 0.3777774 0
vt 0.3777774 0.125
vt 0.3777774 0.25
vt 0.3777774 0.375
vt 0.3777774 0.5000001
vt 0.3777774 0.6250001
vt 0.3777774 0.7500001
vt 0.3777774 0.8750001
vt 0.3777774 1
vt 0.3999996 0
vt 0.3999996 0.125
vt 0.3999996 0.25
vt 0.3999996 0.375
vt 0.3999996 0.5000001
vt 0.3999996 0.6250001
vt 0.3999996 0.7500001
vt 0.3999996 0.8750001
vt 0.3999996 1
vt 0.4222218 0
vt 0.4222218 0.125
vt 0.4222218 0.25
vt 0.4222218 0.375
vt 0.4222218 0.5000001
vt 0.4222218 0.6250001
vt 0.4222218 0.7500001
vt 0.4222218 0.8750001
vt 0.4222218 1
vt 0.444444 0
vt 0.444444 0.125
vt 0.444444 0.25
vt 0.444444 0.375
vt 0.444444 0.5000001
vt 0.444444 0.6250001
vt 0.444444 0.7500001
vt 0.444444 0.8750001
vt 0.444444 1
vt 0.4666662 0
vt 0.4666662 0.125
vt 0.4666662 0.25
vt 0.4666662 0.375
vt 0.4666662 0.5000001
vt 0.4666662 0.6250001
vt 0.4666662 0.7500001
vt 0.4666662 0.8750001
vt 0.4666662 1
vt 0.4888884 0
vt 0.4888884 0.125
vt 0.4888884 0.25
vt 0.4888884 0.375
vt 0.4888884 0.5000001
vt 0.4888884 0.6250001
vt 0.4888884 0.7500001
vt 0.4888884 0.8750001
vt 0.4888884 1
vt 0.5111106 0
vt 0.5111106 0.125
vt 0.5111106 0.25
vt 0.5111106 0.375
vt 0.5111106 0.5000001
vt 0.5111106 0.6250001
vt 0.5111106 0.7500001
vt 0.5111106 0.8750001
vt 0.5111106 1
vt 0.5333328 0
vt 0.5333328 0.125
vt 0.5333328 0.25
vt 0.5333328 0.375
vt 0.5333328 0.5000001
vt 0.5333328 0.6250001
vt 0.5333328 0.7500001
vt 0.5333328 0.8750001
vt 0.5333328 1
vt 0.555555 0
vt 0.555555 0.125
vt 0.555555 0.25
vt 0.555555 0.375
vt 0.555555 0.5000001
vt 0.555555 0.6250001
vt 0.555555 0.7500001
vt 0.555555 0.8750001
vt 0.555555 1
vt 0.5777772 0
vt 0.5777772 0.125
vt 0.5777772 0.25
vt 0.5777772 0.375
vt 0.5777772 0.5000001
vt 0.5777772 0.6250001
vt 0.5777772 0.7500001
vt 0.5777772 0.8750001
vt 0.5777772 1
vt 0.5999994 0
vt 0.5999994 0.125
vt 0.5999994 0.25
vt 0.5999994 0.375
vt 0.5999994 0.5000001
vt 0.5999994 0.6250001
vt 0.5999994 0.7500001
vt 0.5999994 0.8750001
vt 0.5999994 1
vt 0.6222216 0
vt 0.6222216 0.125
vt 0.6222216 0.25
vt 0.6222216 0.375
vt 0.6222216 0.5000001
vt 0.6222216 0.6250001
vt 0.6222216 0.7500001
vt 0.6222216 0.8750001
vt 0.6222216 1
vt 0.6444438 0
vt 0.6444438 0.125
vt 0.6444438 0.25
vt 0.6444438 0.375
vt 0.6444438 0.5000001
vt 0.6444438 0.6250001
vt 0.6444438 0.7500001
vt 0.6444438 0.8750001
vt 0.6444438 1
vt 0.666666 0
vt 0.666666 0.125
vt 0.666666 0.25
vt 0.666666 0.375
vt 0.666666 0.5000001
vt 0.666666 0.6250001
vt 0.666666 0.7500001
vt 0.666666 0.8750001
vt 0.666666 1
vt 0.6888882 0
vt 0.6888882 0.125
vt 0.6888882 0.25
vt 0.6888882 0.375
vt 0.6888882 0.5000001
vt 0.6888882 0.6250001
vt 0.6888882 0.7500001
vt 0.6888882 0.8750001
vt 0.6888882 1
vt 0.7111104 0
vt 0.7111104 0.125
vt 0.7111104 0.25
vt 0.7111104 0.375
vt 0.7111104 0.5000001
vt 0.7111104 0.6250001
vt 0.7111104 0.7500001
vt 0.7111104 0.8750001
vt 0.7111104 1
vt 0.7333326 0
vt 0.7333326 0.125
vt 0.7333326 0.25
vt 0.7333326 0.375
vt 0.7333326 0.5000001
vt 0.7333326 0.6250001
vt 0.7333326 0.7500001
vt 0.7333326 0.8750001
vt 0.7333326 1
vt 0.7555548 0
vt 0.7555548 0.125
vt 0.7555548 0.25
vt 0.7555548 0.375
vt 0.7555548 0.5000001
vt 0.7555548 0.6250001
vt 0.7555548 0.7500001
vt 0.7555548 0.8750001
vt 0.7555548 1
vt 0.777777 0
vt 0.777777 0.125
vt 0.777777 0.25
vt 0.777777 0.375
vt 0.777777 0.5000001
vt 0.777777 0.6250001
vt 0.777777 0.7500001
vt 0.777777 0.8750001
vt 0.777777 1
vt 0.7999992 0
vt 0.7999992 0.125
vt 0.7999992 0.25
vt 0.7999992 0.375
vt 0.7999992 0.5000001
vt 0.7999992 0.6250001
vt 0.7999992 0.7500001
vt 0.7999992 0.8750001
vt 0.7999992 1
vt 0.8222214 0
vt 0.8222214 0.125
vt 0.8222214 0.25
vt 0.8222214 0.375
vt 0.8222214 0.5000001
vt 0.8222214 0.6250001
vt 0.8222214 0.7500001
vt 0.8222214 0.8750001
vt 0.8222214 1
vt 0.8444436 0
vt 0.8444436 0.125
vt 0.8444436 0.25
vt 0.8444436 0.375
vt 0.8444436 0.5000001
vt 0.8444436 0.6250001
vt 0.8444436 0.7500001
vt 0.8444436 0.8750001
vt 0.8444436 1
vt 0.8666658 0
vt 0.8666658 0.125
vt 0.8666658 0.25
vt 0.8666658 0.375
vt 0.8666658 0.5000001
vt 0.8666658 0.6250001
vt 0.8666658 0.7500001
vt 0.8666658 0.8750001
vt 0.8666658 1
vt 0.888888 0
vt 0.888888 0.125
vt 0.888888 0.25
vt 0.888888 0.375
vt 0.888888 0.5000001
vt 0.888888 0.6250001
vt 0.888888 0.7500001
vt 0.888888 0.8750001
vt 0.888888 1
vt 0.9111102 0
vt 0.9111102 0.125
vt 0.9111102 0.25
vt 0.9111102 0.375
vt 0.9111102 0.5000001
vt 0.9111102 0.6250001
vt 0.9111102 0.7500001
vt 0.9111102 0.8750001
vt 0.9111102 1
vt 0.9333324 0
vt 0.9333324 0.125
vt 0.9333324 0.25
vt 0.9333324 0.375
vt 0.9333324 0.5000001
vt 0.9333324 0.6250001
vt 0.9333324 0.7500001
vt 0.9333324 0.8750001
vt 0.9333324 1
vt 0.9555546 0
vt 0.9555546 0.125
vt 0.9555546 0.25
vt 0.9555546 0.375
vt 0.9555546 0.5000001
vt 0.9555546 0.6250001
vt 0.9555546 0.7500001
vt 0.9555546 0.8750001
vt 0.9555546 1
vt 0.9777768 0
vt 0.9777768 0.125
vt 0.9777768 0.25
vt 0.9777768 0.375
vt 0.9777768 0.5000001
vt 0.9777768 0.6250001
vt 0.9777768 0.7500001
vt 0.9777768 0.8750001
vt 0.9777768 1
vt 0.999999 0
vt 0.999999 0.125
vt 0.999999 0.25
vt 0.999999 0.375
vt 0.999999 0.5000001
vt 0.999999 0.6250001
vt 0.999999 0.7500001
vt 0.999999 0.8750001
vt 0.999999 1
vt 0 0
vt 0 0
vt 0 0
vt 0 0
vt 0 0
vt 0 0
vt 0 0
vt 0 0
vt 0 0
vt 0 0
vt 0 0
vt 0 0
vt 0 0
vt 0 0
vt 0 0
vt 0 0
vt 0 0
vt 0 0
vt 0 0
vt 0 0
vt 0 0
vt 0 0
vt 0 0
vt 0 0
vt 0 0
vt 0 0
vt 0 0
vt 0 0
vt 0 0
vt 0 0
vt 0 0
vt 0 0
vt 0 0
vt 0 0
vt 0 0
vt 0 0
vt 0 0
vt 0 0
vt 0 0
vt 0 0
vt 0 0
vt 0 0
vt 0 0
vt 0 0
vt 0 0
vt 0 0
vt 0 0
vt 0 0

usemtl TransparentPlastic
usemap TransparentPlastic
f 2/2/2 1/1/1 461/461/461
f 3/3/3 2/2/2 461/461/461
f 4/4/4 3/3/3 461/461/461
f 5/5/5 4/4/4 461/461/461
f 6/6/6 5/5/5 461/461/461
f 7/7/7 6/6/6 461/461/461
f 8/8/8 7/7/7 461/461/461
f 9/9/9 8/8/8 461/461/461
f 1/1/1 2/2/2 11/11/11
f 1/1/1 11/11/11 10/10/10
f 2/2/2 3/3/3 12/12/12
f 2/2/2 12/12/12 11/11/11
f 3/3/3 4/4/4 13/13/13
f 3/3/3 13/13/13 12/12/12
f 4/4/4 5/5/5 14/14/14
f 4/4/4 14/14/14 13/13/13
f 5/5/5 6/6/6 15/15/15
f 5/5/5 15/15/15 14/14/14
f 6/6/6 7/7/7 16/16/16
f 6/6/6 16/16/16 15/15/15
f 7/7/7 8/8/8 17/17/17
f 7/7/7 17/17/17 16/16/16
f 8/8/8 9/9/9 18/18/18
f 8/8/8 18/18/18 17/17/17
f 10/10/10 11/11/11 20/20/20
f 10/10/10 20/20/20 19/19/19
f 11/11/11 12/12/12 21/21/21
f 11/11/11 21/21/21 20/20/20
f 12/12/12 13/13/13 22/22/22
f 12/12/12 22/22/22 21/21/21
f 13/13/13 14/14/14 23/23/23
f 13/13/13 23/23/23 22/22/22
f 14/14/14 15/15/15 24/24/24
f 14/14/14 24/24/24 23/23/23
f 15/15/15 16/16/16 25/25/25
f 15/15/15 25/25/25 24/24/24
f 16/16/16 17/17/17 26/26/26
f 16/16/16 26/26/26 25/25/25
f 17/17/17 18/18/18 27/27/27
f 17/17/17 27/27/27 26/26/26
f 19/19/19 20/20/20 29/29/29
f 19/19/19 29/29/29 28/28/28
f 20/20/20 21/21/21 30/30/30
f 20/20/20 30/30/30 29/29/29
f 21/21/21 22/22/22 31/31/31
f 21/21/21 31/31/31 30/30/30
f 22/22/22 23/23/23 32/32/32
f 22/22/22 32/32/32 31/31/31
f 23/23/23 24/24/24 33/33/33
f 23/23/23 33/33/33 32/32/32
f 24/24/24 25/25/25 34/34/34
f 24/24/24 34/34/34 33/33/33
f 25/25/25 26/26/26 35/35/35
f 25/25/25 35/35/35 34/34/34
f 26/26/26 27/27/27 36/36/36
f 26/26/26 36/36/36 35/35/35
f 28/28/28 29/29/29 38/38/38
f 28/28/28 38/38/38 37/37/37
f 29/29/29 30/30/30 39/39/39
f 29/29/29 39/39/39 38/38/38
f 30/30/30 31/31/31 40/40/40
f 30/30/30 40/40/40 39/39/39
f 31/31/31 32/32/32 41/41/41
f 31/31/31 41/41/41 40/40/40
f 32/32/32 33/33/33 42/42/42
f 32/32/32 42/42/42 41/41/41
f 33/33/33 34/34/34 43/43/43
f 33/33/33 43/43/43 42/42/42
f 34/34/34 35/35/35 44/44/44
f 34/34/34 44/44/44 43/43/43
f 35/35/35 36/36/36 45/45/45
f 35/35/35 45/45/45 44/44/44
f 37/37/37 38/38/38 47/47/47
f 37/37/37 47/47/47 46/46/46
f 38/38/38 39/39/39 48/48/48
f 38/38/38 48/48/48 47/47/47
f 39/39/39 40/40/40 49/49/49
f 39/39/39 49/49/49 48/48/48
f 40/40/40 41/41/41 50/50/50
f 40/40/40 50/50/50 49/49/49
f 41/41/41 42/42/42 51/51/51
f 41/41/41 51/51/51 50/50/50
f 42/42/42 43/43/43 52/52/52
f 42/42/42 52/52/52 51/51/51
f 43/43/43 44/44/44 53/53/53
f 43/43/43 53/53/53 52/52/52
f 44/44/44 45/45/45 54/54/54
f 44/44/44 54/54/54 53/53/53
f 46/46/46 47/47/47 56/56/56
f 46/46/46 56/56/56 55/55/55
f 47/47/47 48/48/48 57/57/57
f 47/47/47 57/57/57 56/56/56
f 48/48/48 49/49/49 58/58/58
f 48/48/48 58/58/58 57/57/57
f 49/49/49 50/50/50 59/59/59
f 49/49/49 59/59/59 58/58/58
f 50/50/50 51/51/51 60/60/60
f 50/50/50 60/60/60 59/59/59
f 51/51/51 52/52/52 61/61/61
f 51/51/51 61/61/61 60/60/60
f 52/52/52 53/53/53 62/62/62
f 52/52/52 62/62/62 61/61/61
f 53/53/53 54/54/54 63/63/63
f 53/53/53 63/63/63 62/62/62
f 55/55/55 56/56/56 65/65/65
f 55/55/55 65/65/65 64/64/64
f 56/56/56 57/57/57 66/66/66
f 56/56/56 66/66/66 65/65/65
f 57/57/57 58/58/58 67/67/67
f 57/57/57 67/67/67 66/66/66
f 58/58/58 59/59/59 68/68/68
f 58/58/58 68/68/68 67/67/67
f 59/59/59 60/60/60 69/69/69
f 59/59/59 69/69/69 68/68/68
f 60/60/60 61/61/61 70/70/70
f 60/60/60 70/70/70 69/69/69
f 61/61/61 62/62/62 71/71/71
f 61/61/61 71/71/71 70/70/70
f 62/62/62 63/63/63 72/72/72
f 62/62/62 72/72/72 71/71/71
f 64/64/64 65/65/65 74/74/74
f 64/64/64 74/74/74 73/73/73
f 65/65/65 66/66/66 75/75/75
f 65/65/65 75/75/75 74/74/74
f 66/66/66 67/67/67 76/76/76
f 66/66/66 76/76/76 75/75/75
f 67/67/67 68/68/68 77/77/77
f 67/67/67 77/77/77 76/76/76
f 68/68/68 69/69/69 78/78/78
f 68/68/68 78/78/78 77/77/77
f 69/69/69 70/70/70 79/79/79
f 69/69/69 79/79/79 78/78/78
f 70/70/70 71/71/71 80/80/80
f 70/70/70 80/80/80 79/79/79
f 71/71/71 72/72/72 81/81/81
f 71/71/71 81/81/81 80/80/80
f 73/73/73 74/74/74 83/83/83
f 73/73/73 83/83/83 82/82/82
f 74/74/74 75/75/75 84/84/84
f 74/74/74 84/84/84 83/83/83
f 75/75/75 76/76/76 85/85/85
f 75/75/75 85/85/85 84/84/84
f 76/76/76 77/77/77 86/86/86
f 76/76/76 86/86/86 85/85/85
f 77/77/77 78/78/78 87/87/87
f 77/77/77 87/87/87 86/86/86
f 78/78/78 79/79/79 88/88/88
f 78/78/78 88/88/88 87/87/87
f 79/79/79 80/80/80 89/89/89
f 79/79/79 89/89/89 88/88/88
f 80/80/80 81/81/81 90/90/90
f 80/80/80 90/90/90 89/89/89
f 82/82/82 83/83/83 92/92/92
f 82/82/82 92/92/92 91/91/91
f 83/83/83 84/84/84 93/93/93
f 83/83/83 93/93/93 92/92/92
f 84/84/84 85/85/85 94/94/94
f 84/84/84 94/94/94 93/93/93
f 85/85/85 86/86/86 95/95/95
f 85/85/85 95/95/95 94/94/94
f 86/86/86 87/87/87 96/96/96
f 86/86/86 96/96/96 95/95/95
f 87/87/87 88/88/88 97/97/97
f 87/87/87 97/97/97 96/96/96
f 88/88/88 89/89/89 98/98/98
f 88/88/88 98/98/98 97/97/97
f 89/89/89 90/90/90 99/99/99
f 89/89/89 99/99/99 98/98/98
f 91/91/91 92/92/92 101/101/101
f 91/91/91 101/101/101 100/100/100
f 92/92/92 93/93/93 102/102/102
f 92/92/92 102/102/102 101/101/101
f 93/93/93 94/94/94 103/103/103
f 93/93/93 103/103/103 102/102/102
f 94/94/94 95/95/95 104/104/104
f 94/94/94 104/104/104 103/103/103
f 95/95/95 96/96/96 105/105/105
f 95/95/95 105/105/105 104/104/104
f 96/96/96 97/97/97 106/106/106
f 96/96/96 106/106/106 105/105/105
f 97/97/97 98/98/98 107/107/107
f 97/97/97 107/107/107 106/106/106
f 98/98/98 99/99/99 108/108/108
f 98/98/98 108/108/108 107/107/107
f 100/100/100 101/101/101 110/110/110
f 100/100/100 110/110/110 109/109/109
f 101/101/101 102/102/102 111/111/111
f 101/101/101 111/111/111 110/110/110
f 102/102/102 103/103/103 112/112/112
f 102/102/102 112/112/112 111/111/111
f 103/103/103 104/104/104 113/113/113
f 103/103/103 113/113/113 112/112/112
f 104/104/104 105/105/105 114/114/114
f 104/104/104 114/114/114 113/113/113
f 105/105/105 106/106/106 115/115/115
f 105/105/105 115/115/115 114/114/114
f 106/106/106 107/107/107 116/116/116
f 106/106/106 116/116/116 115/115/115
f 107/107/107 108/108/108 117/117/117
f 107/107/107 117/117/117 116/116/116
f 109/109/109 110/110/110 119/119/119
f 109/109/109 119/119/119 118/118/118
f 110/110/110 111/111/111 120/120/120
f 110/110/110 120/120/120 119/119/119
f 111/111/111 112/112/112 121/121/121
f 111/111/111 121/121/121 120/120/120
f 112/112/112 113/113/113 122/122/122
f 112/112/112 122/122/122 121/121/121
f 113/113/113 114/114/114 123/123/123
f 113/113/113 123/123/123 122/122/122
f 114/114/114 115/115/115 124/124/124
f 114/114/114 124/124/124 123/123/123
f 115/115/115 116/116/116 125/125/125
f 115/115/115 125/125/125 124/124/124
f 116/116/116 117/117/117 126/126/126
f 116/116/116 126/126/126 125/125/125
f 118/118/118 119/119/119 128/128/128
f 118/118/118 128/128/128 127/127/127
f 119/119/119 120/120/120 129/129/129
f 119/119/119 129/129/129 128/128/128
f 120/120/120 121/121/121 130/130/130
f 120/120/120 130/130/130 129/129/129
f 121/121/121 122/122/122 131/131/131
f 121/121/121 131/131/131 130/130/130
f 122/122/122 123/123/123 132/132/132
f 122/122/122 132/132/132 131/131/131
f 123/123/123 124/124/124 133/133/133
f 123/123/123 133/133/133 132/132/132
f 124/124/124 125/125/125 134/134/134
f 124/124/124 134/134/134 133/133/133
f 125/125/125 126/126/126 135/135/135
f 125/125/125 135/135/135 134/134/134
f 127/127/127 128/128/128 137/137/137
f 127/127/127 137/137/137 136/136/136
f 128/128/128 129/129/129 138/138/138
f 128/128/128 138/138/138 137/137/137
f 129/129/129 130/130/130 139/139/139
f 129/129/129 139/139/139 138/138/138
f 130/130/130 131/131/131 140/140/140
f 130/130/130 140/140/140 139/139/139
f 131/131/131 132/132/132 141/141/141
f 131/131/131 141/141/141 140/140/140
f 132/132/132 133/133/133 142/142/142
f 132/132/132 142/142/142 141/141/141
f 133/133/133 134/134/134 143/143/143
f 133/133/133 143/143/143 142/142/142
f 134/134/134 135/135/135 144/144/144
f 134/134/134 144/144/144 143/143/143
f 136/136/136 137/137/137 146/146/146
f 136/136/136 146/146/146 145/145/145
f 137/137/137 138/138/138 147/147/147
f 137/137/137 147/147/147 146/146/146
f 138/138/138 139/139/139 148/148/148
f 138/138/138 148/148/148 147/147/147
f 139/139/139 140/140/140 149/149/149
f 139/139/139 149/149/149 148/148/148
f 140/140/140 141/141/141 150/150/150
f 140/140/140 150/150/150 149/149/149
f 141/141/141 142/142/142 151/151/151
f 141/141/141 151/151/151 150/150/150
f 142/142/142 143/143/143 152/152/152
f 142/142/142 152/152/152 151/151/151
f 143/143/143 144/144/144 153/153/153
f 143/143/143 153/153/153 152/152/152
f 145/145/145 146/146/146 155/155/155
f 145/145/145 155/155/155 154/154/154
f 146/146/146 147/147/147 156/156/156
f 146/146/146 156/156/156 155/155/155
f 147/147/147 148/148/148 157/157/157
f 147/147/147 157/157/157 156/156/156
f 148/148/148 149/149/149 158/158/158
f 148/148/148 158/158/158 157/157/157
f 149/149/149 150/150/150 159/159/159
f 149/149/149 159/159/159 158/158/158
f 150/150/150 151/151/151 160/160/160
f 150/150/150 160/160/160 159/159/159
f 151/151/151 152/152/152 161/161/161
f 151/151/151 161/161/161 160/160/160
f 152/152/152 153/153/153 162/162/162
f 152/152/152 162/162/162 161/161/161
f 154/154/154 155/155/155 164/164/164
f 154/154/154 164/164/164 163/163/163
f 155/155/155 156/156/156 165/165/165
f 155/155/155 165/165/165 164/164/164
f 156/156/156 157/157/157 166/166/166
f 156/156/156 166/166/166 165/165/165
f 157/157/157 158/158/158 167/167/167
f 157/157/157 167/167/167 166/166/166
f 158/158/158 159/159/159 168/168/168
f 158/158/158 168/168/168 167/167/167
f 159/159/159 160/160/160 169/169/169
f 159/159/159 169/169/169 168/168/168
f 160/160/160 161/161/161 170/170/170
f 160/160/160 170/170/170 169/169/169
f 161/161/161 162/162/162 171/171/171
f 161/161/161 171/171/171 170/170/170
f 163/163/163 164/164/164 173/173/173
f 163/163/163 173/173/173 172/172/172
f 164/164/164 165/165/165 174/174/174
f 164/164/164 174/174/174 173/173/173
f 165/165/165 166/166/166 175/175/175
f 165/165/165 175/175/175 174/174/174
f 166/166/166 167/167/167 176/176/176
f 166/166/166 176/176/176 175/175/175
f 167/167/167 168/168/168 177/177/177
f 167/167/167 177/177/177 176/176/176
f 168/168/168 169/169/169 178/178/178
f 168/168/168 178/178/178 177/177/177
f 169/169/169 170/170/170 179/179/179
f 169/169/169 179/179/179 178/178/178
f 170/170/170 171/171/171 180/180/180
f 170/170/170 180/180/180 179/179/179
f 172/172/172 173/173/173 182/182/182
f 172/172/172 182/182/182 181/181/181
f 173/173/173 174/174/174 183/183/183
f 173/173/173 183/183/183 182/182/182
f 174/174/174 175/175/175 184/184/184
f 174/174/174 184/184/184 183/183/183
f 175/175/175 176/176/176 185/185/185
f 175/175/175 185/185/185 184/184/184
f 176/176/176 177/177/177 186/186/186
f 176/176/176 186/186/186 185/185/185
f 177/177/177 178/178/178 187/187/187
f 177/177/177 187/187/187 186/186/186
f 178/178/178 179/179/179 188/188/188
f 178/178/178 188/188/188 187/187/187
f 179/179/179 180/180/180 189/189/189
f 179/179/179 189/189/189 188/188/188
f 181/181/181 182/182/182 191/191/191
f 181/181/181 191/191/191 190/190/190
f 182/182/182 183/183/183 192/192/192
f 182/182/182 192/192/192 191/191/191
f 183/183/183 184/184/184 193/193/193
f 183/183/183 193/193/193 192/192/192
f 184/184/184 185/185/185 194/194/194
f 184/184/184 194/194/194 193/193/193
f 185/185/185 186/186/186 195/195/195
f 185/185/185 195/195/195 194/194/194
f 186/186/186 187/187/187 196/196/196
f 186/186/186 196/196/196 195/195/195
f 187/187/187 188/188/188 197/197/197
f 187/187/187 197/197/197 196/196/196
f 188/188/188 189/189/189 198/198/198
f 188/188/188 198/198/198 197/197/197
f 190/190/190 191/191/191 200/200/200
f 190/190/190 200/200/200 199/199/199
f 191/191/191 192/192/192 201/201/201
f 191/191/191 201/201/201 200/200/200
f 192/192/192 193/193/193 202/202/202
f 192/192/192 202/202/202 201/201/201
f 193/193/193 194/194/194 203/203/203
f 193/193/193 203/203/203 202/202/202
f 194/194/194 195/195/195 204/204/204
f 194/194/194 204/204/204 203/203/203
f 195/195/195 196/196/196 205/205/205
f 195/195/195 205/205/205 204/204/204
f 196/196/196 197/197/197 206/206/206
f 196/196/196 206/206/206 205/205/205
f 197/197/197 198/198/198 207/207/207
f 197/197/197 207/207/207 206/206/206
f 199/199/199 200/200/200 209/209/209
f 199/199/199 209/209/209 208/208/208
f 200/200/200 201/201/201 210/210/210
f 200/200/200 210/210/210 209/209/209
f 201/201/201 202/202/202 211/211/211
f 201/201/201 211/211/211 210/210/210
f 202/202/202 203/203/203 212/212/212
f 202/202/202 212/212/212 211/211/211
f 203/203/203 204/204/204 213/213/213
f 203/203/203 213/213/213 212/212/212
f 204/204/204 205/205/205 214/214/214
f 204/204/204 214/214/214 213/213/213
f 205/205/205 206/206/206 215/215/215
f 205/205/205 215/215/215 214/214/214
f 206/206/206 207/207/207 216/216/216
f 206/206/206 216/216/216 215/215/215
f 208/208/208 209/209/209 218/218/218
f 208/208/208 218/218/218 217/217/217
f 209/209/209 210/210/210 219/219/219
f 209/209/209 219/219/219 218/218/218
f 210/210/210 211/211/211 220/220/220
f 210/210/210 220/220/220 219/219/219
f 211/211/211 212/212/212 221/221/221
f 211/211/211 221/221/221 220/220/220
f 212/212/212 213/213/213 222/222/222
f 212/212/212 222/222/222 221/221/221
f 213/213/213 214/214/214 223/223/223
f 213/213/213 223/223/223 222/222/222
f 214/214/214 215/215/215 224/224/224
f 214/214/214 224/224/224 223/223/223
f 215/215/215 216/216/216 225/225/225
f 215/215/215 225/225/225 224/224/224
f 217/217/217 218/218/218 227/227/227
f 217/217/217 227/227/227 226/226/226
f 218/218/218 219/219/219 228/228/228
f 218/218/218 228/228/228 227/227/227
f 219/219/219 220/220/220 229/229/229
f 219/219/219 229/229/229 228/228/228
f 220/220/220 221/221/221 230/230/230
f 220/220/220 230/230/230 229/229/229
f 221/221/221 222/222/222 231/231/231
f 221/221/221 231/231/231 230/230/230
f 222/222/222 223/223/223 232/232/232
f 222/222/222 232/232/232 231/231/231
f 223/223/223 224/224/224 233/233/233
f 223/223/223 233/233/233 232/232/232
f 224/224/224 225/225/225 234/234/234
f 224/224/224 234/234/234 233/233/233
f 226/226/226 227/227/227 236/236/236
f 226/226/226 236/236/236 235/235/235
f 227/227/227 228/228/228 237/237/237
f 227/227/227 237/237/237 236/236/236
f 228/228/228 229/229/229 238/238/238
f 228/228/228 238/238/238 237/237/237
f 229/229/229 230/230/230 239/239/239
f 229/229/229 239/239/239 238/238/238
f 230/230/230 231/231/231 240/240/240
f 230/230/230 240/240/240 239/239/239
f 231/231/231 232/232/232 241/241/241
f 231/231/231 241/241/241 240/240/240
f 232/232/232 233/233/233 242/242/242
f 232/232/232 242/242/242 241/241/241
f 233/233/233 234/234/234 243/243/243
f 233/233/233 243/243/243 242/242/242
f 235/235/235 236/236/236 245/245/245
f 235/235/235 245/245/245 244/244/244
f 236/236/236 237/237/237 246/246/246
f 236/236/236 246/246/246 245/245/245
f 237/237/237 238/238/238 247/247/247
f 237/237/237 247/247/247 246/246/246
f 238/238/238 239/239/239 248/248/248
f 238/238/238 248/248/248 247/247/247
f 239/239/239 240/240/240 249/249/249
f 239/239/239 249/249/249 248/248/248
f 240/240/240 241/241/241 250/250/250
f 240/240/240 250/250/250 249/249/249
f 241/241/241 242/242/242 251/251/251
f 241/241/241 251/251/251 250/250/250
f 242/242/242 243/243/243 252/252/252
f 242/242/242 252/252/252 251/251/251
f 244/244/244 245/245/245 254/254/254
f 244/244/244 254/254/254 253/253/253
f 245/245/245 246/246/246 255/255/255
f 245/245/245 255/255/255 254/254/254
f 246/246/246 247/247/247 256/256/256
f 246/246/246 256/256/256 255/255/255
f 247/247/247 248/248/248 257/257/257
f 247/247/247 257/257/257 256/256/256
f 248/248/248 249/249/249 258/258/258
f 248/248/248 258/258/258 257/257/257
f 249/249/249 250/250/250 259/259/259
f 249/249/249 259/259/259 258/258/258
f 250/250/250 251/251/251 260/260/260
f 250/250/250 260/260/260 259/259/259
f 251/251/251 252/252/252 261/261/261
f 251/251/251 261/261/261 260/260/260
f 253/253/253 254/254/254 263/263/263
f 253/253/253 263/263/263 262/262/262
f 254/254/254 255/255/255 264/264/264
f 254/254/254 264/264/264 263/263/263
f 255/255/255 256/256/256 265/265/265
f 255/255/255 265/265/265 264/264/264
f 256/256/256 257/257/257 266/266/266
f 256/256/256 266/266/266 265/265/265
f 257/257/257 258/258/258 267/267/267
f 257/257/257 267/267/267 266/266/266
f 258/258/258 259/259/259 268/268/268
f 258/258/258 268/268/268 267/267/267
f 259/259/259 260/260/260 269/269/269
f 259/259/259 269/269/269 268/268/268
f 260/260/260 261/261/261 270/270/270
f 260/260/260 270/270/270 269/269/269
f 262/262/262 263/263/263 272/272/272
f 262/262/262 272/272/272 271/271/271
f 263/263/263 264/264/264 273/273/273
f 263/263/263 273/273/273 272/272/272
f 264/264/264 265/265/265 274/274/274
f 264/264/264 274/274/274 273/273/273
f 265/265/265 266/266/266 275/275/275
f 265/265/265 275/275/275 274/274/274
f 266/266/266 267/267/267 276/276/276
f 266/266/266 276/276/276 275/275/275
f 267/267/267 268/268/268 277/277/277
f 267/267/267 277/277/277 276/276/276
f 268/268/268 269/269/269 278/278/278
f 268/268/268 278/278/278 277/277/277
f 269/269/269 270/270/270 279/279/279
f 269/269/269 279/279/279 278/278/278
f 271/271/271 272/272/272 281/281/281
f 271/271/271 281/281/281 280/280/280
f 272/272/272 273/273/273 282/282/282
f 272/272/272 282/282/282 281/281/281
f 273/273/273 274/274/274 283/283/283
f 273/273/273 283/283/283 282/282/282
f 274/274/274 275/275/275 284/284/284
f 274/274/274 284/284/284 283/283/283
f 275/275/275 276/276/276 285/285/285
f 275/275/275 285/285/285 284/284/284
f 276/276/276 277/277/277 286/286/286
f 276/276/276 286/286/286 285/285/285
f 277/277/277 278/278/278 287/287/287
f 277/277/277 287/287/287 286/286/286
f 278/278/278 279/279/279 288/288/288
f 278/278/278 288/288/288 287/287/287
f 280/280/280 281/281/281 290/290/290
f 280/280/280 290/290/290 289/289/289
f 281/281/281 282/282/282 291/291/291
f 281/281/281 291/291/291 290/290/290
f 282/282/282 283/283/283 292/292/292
f 282/282/282 292/292/292 291/291/291
f 283/283/283 284/284/284 293/293/293
f 283/283/283 293/293/293 292/292/292
f 284/284/284 285/285/285 294/294/294
f 284/284/284 294/294/294 293/293/293
f 285/285/285 286/286/286 295/295/295
f 285/285/285 295/295/295 294/294/294
f 286/286/286 287/287/287 296/296/296
f 286/286/286 296/296/296 295/295/295
f 287/287/287 288/288/288 297/297/297
f 287/287/287 297/297/297 296/296/296
f 289/289/289 290/290/290 299/299/299
f 289/289/289 299/299/299 298/298/298
f 290/290/290 291/291/291 300/300/300
f 290/290/290 300/300/300 299/299/299
f 291/291/291 292/292/292 301/301/301
f 291/291/291 301/301/301 300/300/300
f 292/292/292 293/293/293 302/302/302
f 292/292/292 302/302/302 301/301/301
f 293/293/293 294/294/294 303/303/303
f 293/293/293 303/303/303 302/302/302
f 294/294/294 295/295/295 304/304/304
f 294/294/294 304/304/304 303/303/303
f 295/295/295 296/296/296 305/305/305
f 295/295/295 305/305/305 304/304/304
f 296/296/296 297/297/297 306/306/306
f 296/296/296 306/306/306 305/305/305
f 298/298/298 299/299/299 308/308/308
f 298/298/298 308/308/308 307/307/307
f 299/299/299 300/300/300 309/309/309
f 299/299/299 309/309/309 308/308/308
f 300/300/300 301/301/301 310/310/310
f 300/300/300 310/310/310 309/309/309
f 301/301/301 302/302/302 311/311/311
f 301/301/301 311/311/311 310/310/310
f 302/302/302 303/303/303 312/312/312
f 302/302/302 312/312/312 311/311/311
f 303/303/303 304/304/304 313/313/313
f 303/303/303 313/313/313 312/312/312
f 304/304/304 305/305/305 314/314/314
f 304/304/304 314/314/314 313/313/313
f 305/305/305 306/306/306 315/315/315
f 305/305/305 315/315/315 314/314/314
f 307/307/307 308/308/308 317/317/317
f 307/307/307 317/317/317 316/316/316
f 308/308/308 309/309/309 318/318/318
f 308/308/308 318/318/318 317/317/317
f 309/309/309 310/310/310 319/319/319
f 309/309/309 319/319/319 318/318/318
f 310/310/310 311/311/311 320/320/320
f 310/310/310 320/320/320 319/319/319
f 311/311/311 312/312/312 321/321/321
f 311/311/311 321/321/321 320/320/320
f 312/312/312 313/313/313 322/322/322
f 312/312/312 322/322/322 321/321/321
f 313/313/313 314/314/314 323/323/323
f 313/313/313 323/323/323 322/322/322
f 314/314/314 315/315/315 324/324/324
f 314/314/314 324/324/324 323/323/323
f 316/316/316 317/317/317 326/326/326
f 316/316/316 326/326/326 325/325/325
f 317/317/317 318/318/318 327/327/327
f 317/317/317 327/327/327 326/326/326
f 318/318/318 319/319/319 328/328/328
f 318/318/318 328/328/328 327/327/327
f 319/319/319 320/320/320 329/329/329
f 319/319/319 329/329/329 328/328/328
f 320/320/320 321/321/321 330/330/330
f 320/320/320 330/330/330 329/329/329
f 321/321/321 322/322/322 331/331/331
f 321/321/321 331/331/331 330/330/330
f 322/322/322 323/323/323 332/332/332
f 322/322/322 332/332/332 331/331/331
f 323/323/323 324/324/324 333/333/333
f 323/323/323 333/333/333 332/332/332
f 325/325/325 326/326/326 335/335/335
f 325/325/325 335/335/335 334/334/334
f 326/326/326 327/327/327 336/336/336
f 326/326/326 336/336/336 335/335/335
f 327/327/327 328/328/328 337/337/337
f 327/327/327 337/337/337 336/336/336
f 328/328/328 329/329/329 338/338/338
f 328/328/328 338/338/338 337/337/337
f 329/329/329 330/330/330 339/339/339
f 329/329/329 339/339/339 338/338/338
f 330/330/330 331/331/331 340/340/340
f 330/330/330 340/340/340 339/339/339
f 331/331/331 332/332/332 341/341/341
f 331/331/331 341/341/341 340/340/340
f 332/332/332 333/333/333 342/342/342
f 332/332/332 342/342/342 341/341/341
f 334/334/334 335/335/335 344/344/344
f 334/334/334 344/344/344 343/343/343
f 335/335/335 336/336/336 345/345/345
f 335/335/335 345/345/345 344/344/344
f 336/336/336 337/337/337 346/346/346
f 336/336/336 346/346/346 345/345/345
f 337/337/337 338/338/338 347/347/347
f 337/337/337 347/347/347 346/346/346
f 338/338/338 339/339/339 348/348/348
f 338/338/338 348/348/348 347/347/347
f 339/339/339 340/340/340 349/349/349
f 339/339/339 349/349/349 348/348/348
f 340/340/340 341/341/341 350/350/350
f 340/340/340 350/350/350 349/349/349
f 341/341/341 342/342/342 351/351/351
f 341/341/341 351/351/351 350/350/350
f 343/343/343 344/344/344 353/353/353
f 343/343/343 353/353/353 352/352/352
f 344/344/344 345/345/345 354/354/354
f 344/344/344 354/354/354 353/353/353
f 345/345/345 346/346/346 355/355/355
f 345/345/345 355/355/355 354/354/354
f 346/346/346 347/347/347 356/356/356
f 346/346/346 356/356/356 355/355/355
f 347/347/347 348/348/348 357/357/357
f 347/347/347 357/357/357 356/356/356
f 348/348/348 349/349/349 358/358/358
f 348/348/348 358/358/358 357/357/357
f 349/349/349 350/350/350 359/359/359
f 349/349/349 359/359/359 358/358/358
f 350/350/350 351/351/351 360/360/360
f 350/350/350 360/360/360 359/359/359
f 352/352/352 353/353/353 362/362/362
f 352/352/352 362/362/362 361/361/361
f 353/353/353 354/354/354 363/363/363
f 353/353/353 363/363/363 362/362/362
f 354/354/354 355/355/355 364/364/364
f 354/354/354 364/364/364 363/363/363
f 355/355/355 356/356/356 365/365/365
f 355/355/355 365/365/365 364/364/364
f 356/356/356 357/357/357 366/366/366
f 356/356/356 366/366/366 365/365/365
f 357/357/357 358/358/358 367/367/367
f 357/357/357 367/367/367 366/366/366
f 358/358/358 359/359/359 368/368/368
f 358/358/358 368/368/368 367/367/367
f 359/359/359 360/360/360 369/369/369
f 359/359/359 369/369/369 368/368/368
f 361/361/361 362/362/362 371/371/371
f 361/361/361 371/371/371 370/370/370
f 362/362/362 363/363/363 372/372/372
f 362/362/362 372/372/372 371/371/371
f 363/363/363 364/364/364 373/373/373
f 363/363/363 373/373/373 372/372/372
f 364/364/364 365/365/365 374/374/374
f 364/364/364 374/374/374 373/373/373
f 365/365/365 366/366/366 375/375/375
f 365/365/365 375/375/375 374/374/374
f 366/366/366 367/367/367 376/376/376
f 366/366/366 376/376/376 375/375/375
f 367/367/367 368/368/368 377/377/377
f 367/367/367 377/377/377 376/376/376
f 368/368/368 369/369/369 378/378/378
f 368/368/368 378/378/378 377/377/377
f 370/370/370 371/371/371 380/380/380
f 370/370/370 380/380/380 379/379/379
f 371/371/371 372/372/372 381/381/381
f 371/371/371 381/381/381 380/380/380
f 372/372/372 373/373/373 382/382/382
f 372/372/372 382/382/382 381/381/381
f 373/373/373 374/374/374 383/383/383
f 373/373/373 383/383/383 382/382/382
f 374/374/374 375/375/375 384/384/384
f 374/374/374 384/384/384 383/383/383
f 375/375/375 376/376/376 385/385/385
f 375/375/375 385/385/385 384/384/384
f 376/376/376 377/377/377 386/386/386
f 376/376/376 386/386/386 385/385/385
f 377/377/377 378/378/378 387/387/387
f 377/377/377 387/387/387 386/386/386
f 379/379/379 380/380/380 389/389/389
f 379/379/379 389/389/389 388/388/388
f 380/380/380 381/381/381 390/390/390
f 380/380/380 390/390/390 389/389/389
f 381/381/381 382/382/382 391/391/391
f 381/381/381 391/391/391 390/390/390
f 382/382/382 383/383/383 392/392/392
f 382/382/382 392/392/392 391/391/391
f 383/383/383 384/384/384 393/393/393
f 383/383/383 393/393/393 392/392/392
f 384/384/384 385/385/385 394/394/394
f 384/384/384 394/394/394 393/393/393
f 385/385/385 386/386/386 395/395/395
f 385/385/385 395/395/395 394/394/394
f 386/386/386 387/387/387 396/396/396
f 386/386/386 396/396/396 395/395/395
f 388/388/388 389/389/389 398/398/398
f 388/388/388 398/398/398 397/397/397
f 389/389/389 390/390/390 399/399/399
f 389/389/389 399/399/399 398/398/398
f 390/390/390 391/391/391 400/400/400
f 390/390/390 400/400/400 399/399/399
f 391/391/391 392/392/392 401/401/401
f 391/391/391 401/401/401 400/400/400
f 392/392/392 393/393/393 402/402/402
f 392/392/392 402/402/402 401/401/401
f 393/393/393 394/394/394 403/403/403
f 393/393/393 403/403/403 402/402/402
f 394/394/394 395/395/395 404/404/404
f 394/394/394 404/404/404 403/403/403
f 395/395/395 396/396/396 405/405/405
f 395/395/395 405/405/405 404/404/404
f 397/397/397 398/398/398 407/407/407
f 397/397/397 407/407/407 406/406/406
f 398/398/398 399/399/399 408/408/408
f 398/398/398 408/408/408 407/407/407
f 399/399/399 400/400/400 409/409/409
f 399/399/399 409/409/409 408/408/408
f 400/400/400 401/401/401 410/410/410
f 400/400/400 410/410/410 409/409/409
f 401/401/401 402/402/402 411/411/411
f 401/401/401 411/411/411 410/410/410
f 402/402/402 403/403/403 412/412/412
f 402/402/402 412/412/412 411/411/411
f 403/403/403 404/404/404 413/413/413
f 403/403/403 413/413/413 412/412/412
f 404/404/404 405/405/405 414/414/414
f 404/404/404 414/414/414 413/413/413
f 406/406/406 407/407/407 462/462/462
f 407/407/407 408/408/408 462/462/462
f 408/408/408 409/409/409 462/462/462
f 409/409/409 410/410/410 462/462/462
f 410/410/410 411/411/411 462/462/462
f 411/411/411 412/412/412 462/462/462
f 412/412/412 413/413/413 462/462/462
f 413/413/413 414/414/414 462/462/462
f 1/1/1 1/1/1 1/1/1
f 1/1/1 1/1/1 1/1/1
f 1/1/1 1/1/1 1/1/1
f 1/1/1 1/1/1 1/1/1
f 1/1/1 1/1/1 1/1/1
f 1/1/1 1/1/1 1/1/1
f 1/1/1 1/1/1 1/1/1
f 1/1/1 1/1/1 1/1/1
f 1/1/1 1/1/1 1/1/1
f 1/1/1 1/1/1 1/1/1
f 1/1/1 1/1/1 1/1/1
f 1/1/1 1/1/1 1/1/1
f 1/1/1 1/1/1 1/1/1
f 1/1/1 1/1/1 1/1/1
f 1/1/1 1/1/1 1/1/1
f 1/1/1 1/1/1 1/1/1
f 1/1/1 1/1/1 1/1/1
f 1/1/1 1/1/1 1/1/1
f 1/1/1 1/1/1 1/1/1
f 1/1/1 1/1/1 1/1/1
f 1/1/1 1/1/1 1/1/1
f 1/1/1 1/1/1 1/1/1
f 1/1/1 1/1/1 1/1/1
f 1/1/1 1/1/1 1/1/1
f 1/1/1 1/1/1 1/1/1
f 1/1/1 1/1/1 1/1/1
f 1/1/1 1/1/1 1/1/1
f 1/1/1 1/1/1 1/1/1
f 1/1/1 1/1/1 1/1/1
f 1/1/1 1/1/1 1/1/1
f 1/1/1 1/1/1 1/1/1
f 1/1/1 1/1/1 1/1/1
f 1/1/1 1/1/1 1/1/1
f 1/1/1 1/1/1 1/1/1
f 1/1/1 1/1/1 1/1/1
f 1/1/1 1/1/1 1/1/1
f 1/1/1 1/1/1 1/1/1
f 1/1/1 1/1/1 1/1/1
f 1/1/1 1/1/1 1/1/1
f 1/1/1 1/1/1 1/1/1
f 1/1/1 1/1/1 1/1/1
f 1/1/1 1/1/1 1/1/1
f 1/1/1 1/1/1 1/1/1
f 1/1/1 1/1/1 1/1/1
f 1/1/1 1/1/1 1/1/1
f 1/1/1 1/1/1 1/1/1
f 1/1/1 1/1/1 1/1/1
f 1/1/1 1/1/1 1/1/1
f 1/1/1 1/1/1 1/1/1
f 1/1/1 1/1/1 1/1/1
f 1/1/1 1/1/1 1/1/1
f 1/1/1 1/1/1 1/1/1
f 1/1/1 1/1/1 1/1/1
f 1/1/1 1/1/1 1/1/1
f 1/1/1 1/1/1 1/1/1
f 1/1/1 1/1/1 1/1/1
f 1/1/1 1/1/1 1/1/1
f 1/1/1 1/1/1 1/1/1
f 1/1/1 1/1/1 1/1/1
f 1/1/1 1/1/1 1/1/1
f 1/1/1 1/1/1 1/1/1
f 1/1/1 1/1/1 1/1/1
f 1/1/1 1/1/1 1/1/1
f 1/1/1 1/1/1 1/1/1
f 1/1/1 1/1/1 1/1/1
f 1/1/1 1/1/1 1/1/1
f 1/1/1 1/1/1 1/1/1
f 1/1/1 1/1/1 1/1/1
f 1/1/1 1/1/1 1/1/1
f 1/1/1 1/1/1 1/1/1
f 1/1/1 1/1/1 1/1/1
f 1/1/1 1/1/1 1/1/1
f 1/1/1 1/1/1 1/1/1
f 1/1/1 1/1/1 1/1/1
f 1/1/1 1/1/1 1/1/1
f 1/1/1 1/1/1 1/1/1
f 1/1/1 1/1/1 1/1/1
f 1/1/1 1/1/1 1/1/1
f 1/1/1 1/1/1 1/1/1
f 1/1/1 1/1/1 1/1/1
f 1/1/1 1/1/1 1/1/1
f 1/1/1 1/1/1 1/1/1
f 1/1/1 1/1/1 1/1/1
f 1/1/1 1/1/1 1/1/1
f 1/1/1 1/1/1 1/1/1
f 1/1/1 1/1/1 1/1/1
f 1/1/1 1/1/1 1/1/1
f 1/1/1 1/1/1 1/1/1
f 1/1/1 1/1/1 1/1/1
f 1/1/1 1/1/1 1/1/1
f 1/1/1 1/1/1 1/1/1
f 1/1/1 1/1/1 1/1/1
f 1/1/1 1/1/1 1/1/1
f 1/1/1 1/1/1 1/1/1
f 1/1/1 1/1/1 1/1/1
f 1/1/1 1/1/1 1/1/1
f 1/1/1 1/1/1 1/1/1
f 1/1/1 1/1/1 1/1/1
f 1/1/1 1/1/1 1/1/1
f 1/1/1 1/1/1 1/1/1
f 1/1/1 1/1/1 1/1/1
f 1/1/1 1/1/1 1/1/1
f 1/1/1 1/1/1 1/1/1
f 1/1/1 1/1/1 1/1/1
f 1/1/1 1/1/1 1/1/1
f 1/1/1 1/1/1 1/1/1
f 1/1/1 1/1/1 1/1/1
f 1/1/1 1/1/1 1/1/1
f 1/1/1 1/1/1 1/1/1
f 1/1/1 1/1/1 1/1/1
f 1/1/1 1/1/1 1/1/1
f 1/1/1 1/1/1 1/1/1
f 1/1/1 1/1/1 1/1/1
f 1/1/1 1/1/1 1/1/1
f 1/1/1 1/1/1 1/1/1
f 1/1/1 1/1/1 1/1/1
f 1/1/1 1/1/1 1/1/1
f 1/1/1 1/1/1 1/1/1
f 1/1/1 1/1/1 1/1/1
f 1/1/1 1/1/1 1/1/1
f 1/1/1 1/1/1 1/1/1
f 1/1/1 1/1/1 1/1/1
f 1/1/1 1/1/1 1/1/1
f 1/1/1 1/1/1 1/1/1
f 1/1/1 1/1/1 1/1/1
f 1/1/1 1/1/1 1/1/1
f 1/1/1 1/1/1 1/1/1
f 1/1/1 1/1/1 1/1/1
f 1/1/1 1/1/1 1/1/1
f 1/1/1 1/1/1 1/1/1
f 1/1/1 1/1/1 1/1/1
f 1/1/1 1/1/1 1/1/1
f 1/1/1 1/1/1 1/1/1
f 1/1/1 1/1/1 1/1/1
f 1/1/1 1/1/1 1/1/1
f 1/1/1 1/1/1 1/1/1
f 1/1/1 1/1/1 1/1/1
f 1/1/1 1/1/1 1/1/1
f 1/1/1 1/1/1 1/1/1
f 1/1/1 1/1/1 1/1/1
f 1/1/1 1/1/1 1/1/1
f 1/1/1 1/1/1 1/1/1
f 1/1/1 1/1/1 1/1/1
f 1/1/1 1/1/1 1/1/1
f 1/1/1 1/1/1 1/1/1
f 1/1/1 1/1/1 1/1/1
f 1/1/1 1/1/1 1/1/1
f 1/1/1 1/1/1 1/1/1
f 1/1/1 1/1/1 1/1/1
f 1/1/1 1/1/1 1/1/1
f 1/1/1 1/1/1 1/1/1
f 1/1/1 1/1/1 1/1/1
f 1/1/1 1/1/1 1/1/1
f 1/1/1 1/1/1 1/1/1
f 1/1/1 1/1/1 1/1/1
f 1/1/1 1/1/1 1/1/1
f 1/1/1 1/1/1 1/1/1
f 1/1/1 1/1/1 1/1/1
f 1/1/1 1/1/1 1/1/1
f 1/1/1 1/1/1 1/1/1
f 1/1/1 1/1/1 1/1/1
f 1/1/1 1/1/1 1/1/1
f 1/1/1 1/1/1 1/1/1
f 1/1/1 1/1/1 1/1/1
f 1/1/1 1/1/1 1/1/1
f 1/1/1 1/1/1 1/1/1
f 1/1/1 1/1/1 1/1/1
f 1/1/1 1/1/1 1/1/1
f 1/1/1 1/1/1 1/1/1
f 1/1/1 1/1/1 1/1/1
f 1/1/1 1/1/1 1/1/1
f 1/1/1 1/1/1 1/1/1
f 1/1/1 1/1/1 1/1/1
f 1/1/1 1/1/1 1/1/1
f 1/1/1 1/1/1 1/1/1
f 1/1/1 1/1/1 1/1/1
f 1/1/1 1/1/1 1/1/1
f 1/1/1 1/1/1 1/1/1
f 1/1/1 1/1/1 1/1/1
f 1/1/1 1/1/1 1/1/1
f 1/1/1 1/1/1 1/1/1
f 1/1/1 1/1/1 1/1/1
f 1/1/1 1/1/1 1/1/1
f 1/1/1 1/1/1 1/1/1
f 1/1/1 1/1/1 1/1/1
f 1/1/1 1/1/1 1/1/1
f 1/1/1 1/1/1 1/1/1
f 1/1/1 1/1/1 1/1/1
f 1/1/1 1/1/1 1/1/1
f 1/1/1 1/1/1 1/1/1
f 1/1/1 1/1/1 1/1/1
f 1/1/1 1/1/1 1/1/1
f 1/1/1 1/1/1 1/1/1
f 1/1/1 1/1/1 1/1/1
f 1/1/1 1/1/1 1/1/1
f 1/1/1 1/1/1 1/1/1
f 1/1/1 1/1/1 1/1/1
f 1/1/1 1/1/1 1/1/1
f 1/1/1 1/1/1 1/1/1
f 1/1/1 1/1/1 1/1/1
f 1/1/1 1/1/1 1/1/1
f 1/1/1 1/1/1 1/1/1
f 1/1/1 1/1/1 1/1/1
f 1/1/1 1/1/1 1/1/1
f 1/1/1 1/1/1 1/1/1
f 1/1/1 1/1/1 1/1/1
f 1/1/1 1/1/1 1/1/1
f 1/1/1 1/1/1 1/1/1
f 1/1/1 1/1/1 1/1/1
f 1/1/1 1/1/1 1/1/1
f 1/1/1 1/1/1 1/1/1
f 1/1/1 1/1/1 1/1/1
f 1/1/1 1/1/1 1/1/1
f 1/1/1 1/1/1 1/1/1
f 1/1/1 1/1/1 1/1/1
f 1/1/1 1/1/1 1/1/1
f 1/1/1 1/1/1 1/1/1
f 1/1/1 1/1/1 1/1/1
f 1/1/1 1/1/1 1/1/1
f 1/1/1 1/1/1 1/1/1
f 1/1/1 1/1/1 1/1/1
f 1/1/1 1/1/1 1/1/1
f 1/1/1 1/1/1 1/1/1
f 1/1/1 1/1/1 1/1/1
f 1/1/1 1/1/1 1/1/1
f 1/1/1 1/1/1 1/1/1
f 1/1/1 1/1/1 1/1/1
f 1/1/1 1/1/1 1/1/1
f 1/1/1 1/1/1 1/1/1
f 1/1/1 1/1/1 1/1/1
f 1/1/1 1/1/1 1/1/1
f 1/1/1 1/1/1 1/1/1
f 1/1/1 1/1/1 1/1/1
f 1/1/1 1/1/1 1/1/1
f 1/1/1 1/1/1 1/1/1
f 1/1/1 1/1/1 1/1/1
f 1/1/1 1/1/1 1/1/1
f 1/1/1 1/1/1 1/1/1
f 1/1/1 1/1/1 1/1/1
f 1/1/1 1/1/1 1/1/1
f 1/1/1 1/1/1 1/1/1
f 1/1/1 1/1/1 1/1/1
f 1/1/1 1/1/1 1/1/1
f 1/1/1 1/1/1 1/1/1
f 1/1/1 1/1/1 1/1/1
f 1/1/1 1/1/1 1/1/1
f 1/1/1 1/1/1 1/1/1
f 1/1/1 1/1/1 1/1/1
f 1/1/1 1/1/1 1/1/1
f 1/1/1 1/1/1 1/1/1
f 1/1/1 1/1/1 1/1/1
f 1/1/1 1/1/1 1/1/1
f 1/1/1 1/1/1 1/1/1
f 1/1/1 1/1/1 1/1/1
f 1/1/1 1/1/1 1/1/1
f 1/1/1 1/1/1 1/1/1
f 1/1/1 1/1/1 1/1/1
f 1/1/1 1/1/1 1/1/1
f 1/1/1 1/1/1 1/1/1
f 1/1/1 1/1/1 1/1/1
f 1/1/1 1/1/1 1/1/1
f 1/1/1 1/1/1 1/1/1
f 1/1/1 1/1/1 1/1/1
f 1/1/1 1/1/1 1/1/1
f 1/1/1 1/1/1 1/1/1
f 1/1/1 1/1/1 1/1/1
f 1/1/1 1/1/1 1/1/1
f 1/1/1 1/1/1 1/1/1
f 1/1/1 1/1/1 1/1/1
f 1/1/1 1/1/1 1/1/1
f 1/1/1 1/1/1 1/1/1
f 1/1/1 1/1/1 1/1/1
f 1/1/1 1/1/1 1/1/1
f 1/1/1 1/1/1 1/1/1
f 1/1/1 1/1/1 1/1/1
f 1/1/1 1/1/1 1/1/1
f 1/1/1 1/1/1 1/1/1
f 1/1/1 1/1/1 1/1/1
f 1/1/1 1/1/1 1/1/1
f 1/1/1 1/1/1 1/1/1
f 1/1/1 1/1/1 1/1/1
f 1/1/1 1/1/1 1/1/1
f 1/1/1 1/1/1 1/1/1
f 1/1/1 1/1/1 1/1/1
f 1/1/1 1/1/1 1/1/1
f 1/1/1 1/1/1 1/1/1
f 1/1/1 1/1/1 1/1/1
f 1/1/1 1/1/1 1/1/1
f 1/1/1 1/1/1 1/1/1
f 1/1/1 1/1/1 1/1/1
f 1/1/1 1/1/1 1/1/1
f 1/1/1 1/1/1 1/1/1
f 1/1/1 1/1/1 1/1/1
f 1/1/1 1/1/1 1/1/1
f 1/1/1 1/1/1 1/1/1
f 1/1/1 1/1/1 1/1/1
f 1/1/1 1/1/1 1/1/1
f 1/1/1 1/1/1 1/1/1
f 1/1/1 1/1/1 1/1/1
f 1/1/1 1/1/1 1/1/1
f 1/1/1 1/1/1 1/1/1
f 1/1/1 1/1/1 1/1/1
f 1/1/1 1/1/1 1/1/1
f 1/1/1 1/1/1 1/1/1
f 1/1/1 1/1/1 1/1/1
f 1/1/1 1/1/1 1/1/1
f 1/1/1 1/1/1 1/1/1
f 1/1/1 1/1/1 1/1/1
f 1/1/1 1/1/1 1/1/1
f 1/1/1 1/1/1 1/1/1
f 1/1/1 1/1/1 1/1/1
f 1/1/1 1/1/1 1/1/1
f 1/1/1 1/1/1 1/1/1
f 1/1/1 1/1/1 1/1/1
f 1/1/1 1/1/1 1/1/1
f 1/1/1 1/1/1 1/1/1
f 1/1/1 1/1/1 1/1/1
f 1/1/1 1/1/1 1/1/1
f 1/1/1 1/1/1 1/1/1
f 1/1/1 1/1/1 1/1/1
f 1/1/1 1/1/1 1/1/1
f 1/1/1 1/1/1 1/1/1
f 1/1/1 1/1/1 1/1/1
f 1/1/1 1/1/1 1/1/1
f 1/1/1 1/1/1 1/1/1
f 1/1/1 1/1/1 1/1/1
f 1/1/1 1/1/1 1/1/1
f 1/1/1 1/1/1 1/1/1
f 1/1/1 1/1/1 1/1/1
f 1/1/1 1/1/1 1/1/1
f 1/1/1 1/1/1 1/1/1
f 1/1/1 1/1/1 1/1/1
f 1/1/1 1/1/1 1/1/1
f 1/1/1 1/1/1 1/1/1
f 1/1/1 1/1/1 1/1/1
f 1/1/1 1/1/1 1/1/1
f 1/1/1 1/1/1 1/1/1
f 1/1/1 1/1/1 1/1/1
f 1/1/1 1/1/1 1/1/1
f 1/1/1 1/1/1 1/1/1
f 1/1/1 1/1/1 1/1/1
f 1/1/1 1/1/1 1/1/1
f 1/1/1 1/1/1 1/1/1
f 1/1/1 1/1/1 1/1/1
f 1/1/1 1/1/1 1/1/1
f 1/1/1 1/1/1 1/1/1
f 1/1/1 1/1/1 1/1/1
f 1/1/1 1/1/1 1/1/1
f 1/1/1 1/1/1 1/1/1
f 1/1/1 1/1/1 1/1/1
f 1/1/1 1/1/1 1/1/1
f 1/1/1 1/1/1 1/1/1
f 1/1/1 1/1/1 1/1/1
f 1/1/1 1/1/1 1/1/1
f 1/1/1 1/1/1 1/1/1
f 1/1/1 1/1/1 1/1/1
f 1/1/1 1/1/1 1/1/1
f 1/1/1 1/1/1 1/1/1
f 1/1/1 1/1/1 1/1/1
f 1/1/1 1/1/1 1/1/1
f 1/1/1 1/1/1 1/1/1
f 1/1/1 1/1/1 1/1/1
f 1/1/1 1/1/1 1/1/1
f 1/1/1 1/1/1 1/1/1
f 1/1/1 1/1/1 1/1/1
f 1/1/1 1/1/1 1/1/1
f 1/1/1 1/1/1 1/1/1
f 1/1/1 1/1/1 1/1/1
f 1/1/1 1/1/1 1/1/1
f 1/1/1 1/1/1 1/1/1
f 1/1/1 1/1/1 1/1/1
f 1/1/1 1/1/1 1/1/1
f 1/1/1 1/1/1 1/1/1
f 1/1/1 1/1/1 1/1/1
f 1/1/1 1/1/1 1/1/1
f 1/1/1 1/1/1 1/1/1
f 1/1/1 1/1/1 1/1/1
f 1/1/1 1/1/1 1/1/1
f 1/1/1 1/1/1 1/1/1
f 1/1/1 1/1/1 1/1/1
f 1/1/1 1/1/1 1/1/1
f 1/1/1 1/1/1 1/1/1
f 1/1/1 1/1/1 1/1/1
f 1/1/1 1/1/1 1/1/1
f 1/1/1 1/1/1 1/1/1
f 1/1/1 1/1/1 1/1/1
f 1/1/1 1/1/1 1/1/1
f 1/1/1 1/1/1 1/1/1
f 1/1/1 1/1/1 1/1/1
f 1/1/1 1/1/1 1/1/1
f 1/1/1 1/1/1 1/1/1
f 1/1/1 1/1/1 1/1/1
f 1/1/1 1/1/1 1/1/1
f 1/1/1 1/1/1 1/1/1
f 1/1/1 1/1/1 1/1/1
f 1/1/1 1/1/1 1/1/1
f 1/1/1 1/1/1 1/1/1
f 1/1/1 1/1/1 1/1/1
f 1/1/1 1/1/1 1/1/1
f 1/1/1 1/1/1 1/1/1
f 1/1/1 1/1/1 1/1/1
f 1/1/1 1/1/1 1/1/1
f 1/1/1 1/1/1 1/1/1
f 1/1/1 1/1/1 1/1/1
f 1/1/1 1/1/1 1/1/1
f 1/1/1 1/1/1 1/1/1
f 1/1/1 1/1/1 1/1/1
f 1/1/1 1/1/1 1/1/1
f 1/1/1 1/1/1 1/1/1
f 1/1/1 1/1/1 1/1/1
f 1/1/1 1/1/1 1/1/1
f 1/1/1 1/1/1 1/1/1
f 1/1/1 1/1/1 1/1/1
f 1/1/1 1/1/1 1/1/1
f 1/1/1 1/1/1 1/1/1
f 1/1/1 1/1/1 1/1/1
f 1/1/1 1/1/1 1/1/1
f 1/1/1 1/1/1 1/1/1
f 1/1/1 1/1/1 1/1/1
f 1/1/1 1/1/1 1/1/1
f 1/1/1 1/1/1 1/1/1
f 1/1/1 1/1/1 1/1/1
f 1/1/1 1/1/1 1/1/1
f 1/1/1 1/1/1 1/1/1
f 1/1/1 1/1/1 1/1/1
f 1/1/1 1/1/1 1/1/1
f 1/1/1 1/1/1 1/1/1
f 1/1/1 1/1/1 1/1/1
f 1/1/1 1/1/1 1/1/1
f 1/1/1 1/1/1 1/1/1
f 1/1/1 1/1/1 1/1/1
f 1/1/1 1/1/1 1/1/1
f 1/1/1 1/1/1 1/1/1
f 1/1/1 1/1/1 1/1/1
f 1/1/1 1/1/1 1/1/1
f 1/1/1 1/1/1 1/1/1
f 1/1/1 1/1/1 1/1/1
f 1/1/1 1/1/1 1/1/1
f 1/1/1 1/1/1 1/1/1
f 1/1/1 1/1/1 1/1/1
f 1/1/1 1/1/1 1/1/1
f 1/1/1 1/1/1 1/1/1
f 1/1/1 1/1/1 1/1/1
f 1/1/1 1/1/1 1/1/1
f 1/1/1 1/1/1 1/1/1
f 1/1/1 1/1/1 1/1/1
f 1/1/1 1/1/1 1/1/1
f 1/1/1 1/1/1 1/1/1
f 1/1/1 1/1/1 1/1/1
f 1/1/1 1/1/1 1/1/1
f 1/1/1 1/1/1 1/1/1
f 1/1/1 1/1/1 1/1/1
f 1/1/1 1/1/1 1/1/1
f 1/1/1 1/1/1 1/1/1
f 1/1/1 1/1/1 1/1/1
f 1/1/1 1/1/1 1/1/1
f 1/1/1 1/1/1 1/1/1
f 1/1/1 1/1/1 1/1/1
f 1/1/1 1/1/1 1/1/1
f 1/1/1 1/1/1 1/1/1
f 1/1/1 1/1/1 1/1/1
f 1/1/1 1/1/1 1/1/1
f 1/1/1 1/1/1 1/1/1
f 1/1/1 1/1/1 1/1/1
f 1/1/1 1/1/1 1/1/1
f 1/1/1 1/1/1 1/1/1
f 1/1/1 1/1/1 1/1/1
f 1/1/1 1/1/1 1/1/1
f 1/1/1 1/1/1 1/1/1
f 1/1/1 1/1/1 1/1/1
f 1/1/1 1/1/1 1/1/1
f 1/1/1 1/1/1 1/1/1
f 1/1/1 1/1/1 1/1/1
f 1/1/1 1/1/1 1/1/1
f 1/1/1 1/1/1 1/1/1
f 1/1/1 1/1/1 1/1/1
f 1/1/1 1/1/1 1/1/1
f 1/1/1 1/1/1 1/1/1
f 1/1/1 1/1/1 1/1/1
f 1/1/1 1/1/1 1/1/1
f 1/1/1 1/1/1 1/1/1
f 1/1/1 1/1/1 1/1/1
f 1/1/1 1/1/1 1/1/1
f 1/1/1 1/1/1 1/1/1
f 1/1/1 1/1/1 1/1/1
f 1/1/1 1/1/1 1/1/1
f 1/1/1 1/1/1 1/1/1
f 1/1/1 1/1/1 1/1/1
f 1/1/1 1/1/1 1/1/1
f 1/1/1 1/1/1 1/1/1
f 1/1/1 1/1/1 1/1/1
f 1/1/1 1/1/1 1/1/1
f 1/1/1 1/1/1 1/1/1
f 1/1/1 1/1/1 1/1/1
f 1/1/1 1/1/1 1/1/1
f 1/1/1 1/1/1 1/1/1
f 1/1/1 1/1/1 1/1/1
f 1/1/1 1/1/1 1/1/1
f 1/1/1 1/1/1 1/1/1
f 1/1/1 1/1/1 1/1/1
f 1/1/1 1/1/1 1/1/1
f 1/1/1 1/1/1 1/1/1
f 1/1/1 1/1/1 1/1/1
f 1/1/1 1/1/1 1/1/1
f 1/1/1 1/1/1 1/1/1
f 1/1/1 1/1/1 1/1/1
f 1/1/1 1/1/1 1/1/1
f 1/1/1 1/1/1 1/1/1
f 1/1/1 1/1/1 1/1/1
f 1/1/1 1/1/1 1/1/1
f 1/1/1 1/1/1 1/1/1
f 1/1/1 1/1/1 1/1/1
f 1/1/1 1/1/1 1/1/1
f 1/1/1 1/1/1 1/1/1
f 1/1/1 1/1/1 1/1/1
f 1/1/1 1/1/1 1/1/1
f 1/1/1 1/1/1 1/1/1
f 1/1/1 1/1/1 1/1/1
f 1/1/1 1/1/1 1/1/1
f 1/1/1 1/1/1 1/1/1
f 1/1/1 1/1/1 1/1/1
f 1/1/1 1/1/1 1/1/1
f 1/1/1 1/1/1 1/1/1
f 1/1/1 1/1/1 1/1/1
f 1/1/1 1/1/1 1/1/1
f 1/1/1 1/1/1 1/1/1
f 1/1/1 1/1/1 1/1/1
f 1/1/1 1/1/1 1/1/1
f 1/1/1 1/1/1 1/1/1
f 1/1/1 1/1/1 1/1/1
f 1/1/1 1/1/1 1/1/1
f 1/1/1 1/1/1 1/1/1
f 1/1/1 1/1/1 1/1/1
f 1/1/1 1/1/1 1/1/1
f 1/1/1 1/1/1 1/1/1
f 1/1/1 1/1/1 1/1/1
f 1/1/1 1/1/1 1/1/1
f 1/1/1 1/1/1 1/1/1
f 1/1/1 1/1/1 1/1/1
f 1/1/1 1/1/1 1/1/1
f 1/1/1 1/1/1 1/1/1
f 1/1/1 1/1/1 1/1/1
f 1/1/1 1/1/1 1/1/1
f 1/1/1 1/1/1 1/1/1
f 1/1/1 1/1/1 1/1/1
f 1/1/1 1/1/1 1/1/1
f 1/1/1 1/1/1 1/1/1
f 1/1/1 1/1/1 1/1/1
f 1/1/1 1/1/1 1/1/1
f 1/1/1 1/1/1 1/1/1
f 1/1/1 1/1/1 1/1/1
f 1/1/1 1/1/1 1/1/1
f 1/1/1 1/1/1 1/1/1
f 1/1/1 1/1/1 1/1/1
f 1/1/1 1/1/1 1/1/1
f 1/1/1 1/1/1 1/1/1
f 1/1/1 1/1/1 1/1/1
f 1/1/1 1/1/1 1/1/1
f 1/1/1 1/1/1 1/1/1
f 1/1/1 1/1/1 1/1/1
f 1/1/1 1/1/1 1/1/1
f 1/1/1 1/1/1 1/1/1
f 1/1/1 1/1/1 1/1/1
f 1/1/1 1/1/1 1/1/1
f 1/1/1 1/1/1 1/1/1
f 1/1/1 1/1/1 1/1/1
f 1/1/1 1/1/1 1/1/1
f 1/1/1 1/1/1 1/1/1
f 1/1/1 1/1/1 1/1/1
f 1/1/1 1/1/1 1/1/1
f 1/1/1 1/1/1 1/1/1
f 1/1/1 1/1/1 1/1/1
f 1/1/1 1/1/1 1/1/1
f 1/1/1 1/1/1 1/1/1
f 1/1/1 1/1/1 1/1/1
f 1/1/1 1/1/1 1/1/1
f 1/1/1 1/1/1 1/1/1
f 1/1/1 1/1/1 1/1/1
f 1/1/1 1/1/1 1/1/1
f 1/1/1 1/1/1 1/1/1
f 1/1/1 1/1/1 1/1/1
f 1/1/1 1/1/1 1/1/1
f 1/1/1 1/1/1 1/1/1
f 1/1/1 1/1/1 1/1/1
f 1/1/1 1/1/1 1/1/1
f 1/1/1 1/1/1 1/1/1
f 1/1/1 1/1/1 1/1/1
f 1/1/1 1/1/1 1/1/1
f 1/1/1 1/1/1 1/1/1
f 1/1/1 1/1/1 1/1/1
f 1/1/1 1/1/1 1/1/1
f 1/1/1 1/1/1 1/1/1
f 1/1/1 1/1/1 1/1/1
f 1/1/1 1/1/1 1/1/1
f 1/1/1 1/1/1 1/1/1
f 1/1/1 1/1/1 1/1/1
f 1/1/1 1/1/1 1/1/1
f 1/1/1 1/1/1 1/1/1
f 1/1/1 1/1/1 1/1/1
f 1/1/1 1/1/1 1/1/1
f 1/1/1 1/1/1 1/1/1
f 1/1/1 1/1/1 1/1/1
f 1/1/1 1/1/1 1/1/1
f 1/1/1 1/1/1 1/1/1
f 1/1/1 1/1/1 1/1/1
f 1/1/1 1/1/1 1/1/1
f 1/1/1 1/1/1 1/1/1
f 1/1/1 1/1/1 1/1/1
f 1/1/1 1/1/1 1/1/1
f 1/1/1 1/1/1 1/1/1
f 1/1/1 1/1/1 1/1/1
f 1/1/1 1/1/1 1/1/1
f 1/1/1 1/1/1 1/1/1
f 1/1/1 1/1/1 1/1/1
f 1/1/1 1/1/1 1/1/1
f 1/1/1 1/1/1 1/1/1
f 1/1/1 1/1/1 1/1/1
f 1/1/1 1/1/1 1/1/1
f 1/1/1 1/1/1 1/1/1
f 1/1/1 1/1/1 1/1/1
f 1/1/1 1/1/1 1/1/1
f 1/1/1 1/1/1 1/1/1
f 1/1/1 1/1/1 1/1/1
f 1/1/1 1/1/1 1/1/1
f 1/1/1 1/1/1 1/1/1
f 1/1/1 1/1/1 1/1/1
f 1/1/1 1/1/1 1/1/1
f 1/1/1 1/1/1 1/1/1
f 1/1/1 1/1/1 1/1/1
f 1/1/1 1/1/1 1/1/1
f 1/1/1 1/1/1 1/1/1
f 1/1/1 1/1/1 1/1/1
f 1/1/1 1/1/1 1/1/1
f 1/1/1 1/1/1 1/1/1
f 1/1/1 1/1/1 1/1/1
f 1/1/1 1/1/1 1/1/1
f 1/1/1 1/1/1 1/1/1
f 1/1/1 1/1/1 1/1/1
f 1/1/1 1/1/1 1/1/1
f 1/1/1 1/1/1 1/1/1
f 1/1/1 1/1/1 1/1/1
f 1/1/1 1/1/1 1/1/1
f 1/1/1 1/1/1 1/1/1
f 1/1/1 1/1/1 1/1/1
f 1/1/1 1/1/1 1/1/1
f 1/1/1 1/1/1 1/1/1
f 1/1/1 1/1/1 1/1/1
f 1/1/1 1/1/1 1/1/1
f 1/1/1 1/1/1 1/1/1
f 1/1/1 1/1/1 1/1/1
f 1/1/1 1/1/1 1/1/1
f 1/1/1 1/1/1 1/1/1
f 1/1/1 1/1/1 1/1/1
f 1/1/1 1/1/1 1/1/1
f 1/1/1 1/1/1 1/1/1
f 1/1/1 1/1/1 1/1/1
f 1/1/1 1/1/1 1/1/1
f 1/1/1 1/1/1 1/1/1
f 1/1/1 1/1/1 1/1/1
f 1/1/1 1/1/1 1/1/1
f 1/1/1 1/1/1 1/1/1
f 1/1/1 1/1/1 1/1/1
f 1/1/1 1/1/1 1/1/1
f 1/1/1 1/1/1 1/1/1
f 1/1/1 1/1/1 1/1/1
f 1/1/1 1/1/1 1/1/1
f 1/1/1 1/1/1 1/1/1
f 1/1/1 1/1/1 1/1/1
f 1/1/1 1/1/1 1/1/1
f 1/1/1 1/1/1 1/1/1
f 1/1/1 1/1/1 1/1/1
f 1/1/1 1/1/1 1/1/1
f 1/1/1 1/1/1 1/1/1
f 1/1/1 1/1/1 1/1/1
f 1/1/1 1/1/1 1/1/1
f 1/1/1 1/1/1 1/1/1
f 1/1/1 1/1/1 1/1/1
f 1/1/1 1/1/1 1/1/1
f 1/1/1 1/1/1 1/1/1
f 1/1/1 1/1/1 1/1/1
f 1/1/1 1/1/1 1/1/1
f 1/1/1 1/1/1 1/1/1
f 1/1/1 1/1/1 1/1/1
f 1/1/1 1/1/1 1/1/1
f 1/1/1 1/1/1 1/1/1
f 1/1/1 1/1/1 1/1/1
f 1/1/1 1/1/1 1/1/1
f 1/1/1 1/1/1 1/1/1
f 1/1/1 1/1/1 1/1/1
f 1/1/1 1/1/1 1/1/1
f 1/1/1 1/1/1 1/1/1
f 1/1/1 1/1/1 1/1/1
f 1/1/1 1/1/1 1/1/1
f 1/1/1 1/1/1 1/1/1
f 1/1/1 1/1/1 1/1/1
f 1/1/1 1/1/1 1/1/1
f 1/1/1 1/1/1 1/1/1
f 1/1/1 1/1/1 1/1/1
f 1/1/1 1/1/1 1/1/1
f 1/1/1 1/1/1 1/1/1
f 1/1/1 1/1/1 1/1/1
f 1/1/1 1/1/1 1/1/1
f 1/1/1 1/1/1 1/1/1
f 1/1/1 1/1/1 1/1/1
f 1/1/1 1/1/1 1/1/1
f 1/1/1 1/1/1 1/1/1
f 1/1/1 1/1/1 1/1/1
f 1/1/1 1/1/1 1/1/1
f 1/1/1 1/1/1 1/1/1
f 1/1/1 1/1/1 1/1/1
f 1/1/1 1/1/1 1/1/1
f 1/1/1 1/1/1 1/1/1
f 1/1/1 1/1/1 1/1/1
f 1/1/1 1/1/1 1/1/1
f 1/1/1 1/1/1 1/1/1
f 1/1/1 1/1/1 1/1/1
f 1/1/1 1/1/1 1/1/1
f 1/1/1 1/1/1 1/1/1
f 1/1/1 1/1/1 1/1/1
f 1/1/1 1/1/1 1/1/1
f 1/1/1 1/1/1 1/1/1
f 1/1/1 1/1/1 1/1/1
f 1/1/1 1/1/1 1/1/1
f 1/1/1 1/1/1 1/1/1
f 1/1/1 1/1/1 1/1/1
f 1/1/1 1/1/1 1/1/1
f 1/1/1 1/1/1 1/1/1
f 1/1/1 1/1/1 1/1/1
f 1/1/1 1/1/1 1/1/1
f 1/1/1 1/1/1 1/1/1
f 1/1/1 1/1/1 1/1/1
f 1/1/1 1/1/1 1/1/1
f 1/1/1 1/1/1 1/1/1
f 1/1/1 1/1/1 1/1/1
f 1/1/1 1/1/1 1/1/1
f 1/1/1 1/1/1 1/1/1
f 1/1/1 1/1/1 1/1/1
f 1/1/1 1/1/1 1/1/1
f 1/1/1 1/1/1 1/1/1
f 1/1/1 1/1/1 1/1/1
f 1/1/1 1/1/1 1/1/1
f 1/1/1 1/1/1 1/1/1
f 1/1/1 1/1/1 1/1/1
f 1/1/1 1/1/1 1/1/1
f 1/1/1 1/1/1 1/1/1
f 1/1/1 1/1/1 1/1/1
f 1/1/1 1/1/1 1/1/1
f 1/1/1 1/1/1 1/1/1
f 1/1/1 1/1/1 1/1/1
f 1/1/1 1/1/1 1/1/1
f 1/1/1 1/1/1 1/1/1
f 1/1/1 1/1/1 1/1/1
f 1/1/1 1/1/1 1/1/1
f 1/1/1 1/1/1 1/1/1
f 1/1/1 1/1/1 1/1/1
f 1/1/1 1/1/1 1/1/1
f 1/1/1 1/1/1 1/1/1
f 1/1/1 1/1/1 1/1/1
f 1/1/1 1/1/1 1/1/1
f 1/1/1 1/1/1 1/1/1
f 1/1/1 1/1/1 1/1/1
f 1/1/1 1/1/1 1/1/1
f 1/1/1 1/1/1 1/1/1
f 1/1/1 1/1/1 1/1/1
f 1/1/1 1/1/1 1/1/1
f 1/1/1 1/1/1 1/1/1
f 1/1/1 1/1/1 1/1/1
f 1/1/1 1/1/1 1/1/1
f 1/1/1 1/1/1 1/1/1
f 1/1/1 1/1/1 1/1/1
f 1/1/1 1/1/1 1/1/1
f 1/1/1 1/1/1 1/1/1
f 1/1/1 1/1/1 1/1/1
f 1/1/1 1/1/1 1/1/1
f 1/1/1 1/1/1 1/1/1
f 1/1/1 1/1/1 1/1/1
f 1/1/1 1/1/1 1/1/1
f 1/1/1 1/1/1 1/1/1
f 1/1/1 1/1/1 1/1/1
f 1/1/1 1/1/1 1/1/1
f 1/1/1 1/1/1 1/1/1
f 1/1/1 1/1/1 1/1/1
f 1/1/1 1/1/1 1/1/1
f 1/1/1 1/1/1 1/1/1
f 1/1/1 1/1/1 1/1/1
f 1/1/1 1/1/1 1/1/1
f 1/1/1 1/1/1 1/1/1
f 1/1/1 1/1/1 1/1/1
f 1/1/1 1/1/1 1/1/1
f 1/1/1 1/1/1 1/1/1
f 1/1/1 1/1/1 1/1/1
f 1/1/1 1/1/1 1/1/1
f 1/1/1 1/1/1 1/1/1
f 1/1/1 1/1/1 1/1/1
f 1/1/1 1/1/1 1/1/1
f 1/1/1 1/1/1 1/1/1
f 1/1/1 1/1/1 1/1/1
f 1/1/1 1/1/1 1/1/1
f 1/1/1 1/1/1 1/1/1
f 1/1/1 1/1/1 1/1/1
f 1/1/1 1/1/1 1/1/1
f 1/1/1 1/1/1 1/1/1
f 1/1/1 1/1/1 1/1/1
f 1/1/1 1/1/1 1/1/1
f 1/1/1 1/1/1 1/1/1
f 1/1/1 1/1/1 1/1/1
f 1/1/1 1/1/1 1/1/1
f 1/1/1 1/1/1 1/1/1
f 1/1/1 1/1/1 1/1/1
f 1/1/1 1/1/1 1/1/1
f 1/1/1 1/1/1 1/1/1
f 1/1/1 1/1/1 1/1/1
f 1/1/1 1/1/1 1/1/1
f 1/1/1 1/1/1 1/1/1
f 1/1/1 1/1/1 1/1/1
f 1/1/1 1/1/1 1/1/1
f 1/1/1 1/1/1 1/1/1
f 1/1/1 1/1/1 1/1/1
f 1/1/1 1/1/1 1/1/1
f 1/1/1 1/1/1 1/1/1
f 1/1/1 1/1/1 1/1/1
f 1/1/1 1/1/1 1/1/1
f 1/1/1 1/1/1 1/1/1
f 1/1/1 1/1/1 1/1/1
f 1/1/1 1/1/1 1/1/1
f 1/1/1 1/1/1 1/1/1
f 1/1/1 1/1/1 1/1/1
f 1/1/1 1/1/1 1/1/1
f 1/1/1 1/1/1 1/1/1
f 1/1/1 1/1/1 1/1/1
f 1/1/1 1/1/1 1/1/1
f 1/1/1 1/1/1 1/1/1
f 1/1/1 1/1/1 1/1/1
f 1/1/1 1/1/1 1/1/1
f 1/1/1 1/1/1 1/1/1
f 1/1/1 1/1/1 1/1/1
f 1/1/1 1/1/1 1/1/1
f 1/1/1 1/1/1 1/1/1
f 1/1/1 1/1/1 1/1/1
f 1/1/1 1/1/1 1/1/1
f 1/1/1 1/1/1 1/1/1
f 1/1/1 1/1/1 1/1/1
f 1/1/1 1/1/1 1/1/1
f 1/1/1 1/1/1 1/1/1
f 1/1/1 1/1/1 1/1/1
f 1/1/1 1/1/1 1/1/1
f 1/1/1 1/1/1 1/1/1
f 1/1/1 1/1/1 1/1/1
f 1/1/1 1/1/1 1/1/1
f 1/1/1 1/1/1 1/1/1
f 1/1/1 1/1/1 1/1/1
f 1/1/1 1/1/1 1/1/1
f 1/1/1 1/1/1 1/1/1
f 1/1/1 1/1/1 1/1/1
f 1/1/1 1/1/1 1/1/1
f 1/1/1 1/1/1 1/1/1
f 1/1/1 1/1/1 1/1/1
f 1/1/1 1/1/1 1/1/1
f 1/1/1 1/1/1 1/1/1
f 1/1/1 1/1/1 1/1/1
f 1/1/1 1/1/1 1/1/1
f 1/1/1 1/1/1 1/1/1
f 1/1/1 1/1/1 1/1/1
f 1/1/1 1/1/1 1/1/1
f 1/1/1 1/1/1 1/1/1
f 1/1/1 1/1/1 1/1/1
f 1/1/1 1/1/1 1/1/1
f 1/1/1 1/1/1 1/1/1
f 1/1/1 1/1/1 1/1/1
f 1/1/1 1/1/1 1/1/1
f 1/1/1 1/1/1 1/1/1
f 1/1/1 1/1/1 1/1/1
f 1/1/1 1/1/1 1/1/1
f 1/1/1 1/1/1 1/1/1
f 1/1/1 1/1/1 1/1/1
f 1/1/1 1/1/1 1/1/1
f 1/1/1 1/1/1 1/1/1
f 1/1/1 1/1/1 1/1/1
f 1/1/1 1/1/1 1/1/1
f 1/1/1 1/1/1 1/1/1
f 1/1/1 1/1/1 1/1/1
f 1/1/1 1/1/1 1/1/1
f 1/1/1 1/1/1 1/1/1
f 1/1/1 1/1/1 1/1/1
f 1/1/1 1/1/1 1/1/1
f 1/1/1 1/1/1 1/1/1
f 1/1/1 1/1/1 1/1/1
f 1/1/1 1/1/1 1/1/1
f 1/1/1 1/1/1 1/1/1
f 1/1/1 1/1/1 1/1/1
f 1/1/1 1/1/1 1/1/1
f 1/1/1 1/1/1 1/1/1
f 1/1/1 1/1/1 1/1/1
f 1/1/1 1/1/1 1/1/1
f 1/1/1 1/1/1 1/1/1
f 1/1/1 1/1/1 1/1/1
f 1/1/1 1/1/1 1/1/1
f 1/1/1 1/1/1 1/1/1
f 1/1/1 1/1/1 1/1/1
f 1/1/1 1/1/1 1/1/1
f 1/1/1 1/1/1 1/1/1
f 1/1/1 1/1/1 1/1/1
f 1/1/1 1/1/1 1/1/1
f 1/1/1 1/1/1 1/1/1
f 1/1/1 1/1/1 1/1/1
f 1/1/1 1/1/1 1/1/1
f 1/1/1 1/1/1 1/1/1
f 1/1/1 1/1/1 1/1/1
f 1/1/1 1/1/1 1/1/1
f 1/1/1 1/1/1 1/1/1
f 1/1/1 1/1/1 1/1/1
f 1/1/1 1/1/1 1/1/1
f 1/1/1 1/1/1 1/1/1
f 1/1/1 1/1/1 1/1/1
f 1/1/1 1/1/1 1/1/1
f 1/1/1 1/1/1 1/1/1
f 1/1/1 1/1/1 1/1/1
f 1/1/1 1/1/1 1/1/1
f 1/1/1 1/1/1 1/1/1
f 1/1/1 1/1/1 1/1/1
f 1/1/1 1/1/1 1/1/1
f 1/1/1 1/1/1 1/1/1
f 1/1/1 1/1/1 1/1/1
f 1/1/1 1/1/1 1/1/1
f 1/1/1 1/1/1 1/1/1
f 1/1/1 1/1/1 1/1/1
f 1/1/1 1/1/1 1/1/1
f 1/1/1 1/1/1 1/1/1
f 1/1/1 1/1/1 1/1/1
f 1/1/1 1/1/1 1/1/1
f 1/1/1 1/1/1 1/1/1
f 1/1/1 1/1/1 1/1/1
f 1/1/1 1/1/1 1/1/1
f 1/1/1 1/1/1 1/1/1
f 1/1/1 1/1/1 1/1/1
f 1/1/1 1/1/1 1/1/1
f 1/1/1 1/1/1 1/1/1
f 1/1/1 1/1/1 1/1/1
f 1/1/1 1/1/1 1/1/1
f 1/1/1 1/1/1 1/1/1
f 1/1/1 1/1/1 1/1/1
f 1/1/1 1/1/1 1/1/1
f 1/1/1 1/1/1 1/1/1
f 1/1/1 1/1/1 1/1/1
f 1/1/1 1/1/1 1/1/1
f 1/1/1 1/1/1 1/1/1
f 1/1/1 1/1/1 1/1/1
f 1/1/1 1/1/1 1/1/1
f 1/1/1 1/1/1 1/1/1
f 1/1/1 1/1/1 1/1/1
f 1/1/1 1/1/1 1/1/1
f 1/1/1 1/1/1 1/1/1
f 1/1/1 1/1/1 1/1/1
f 1/1/1 1/1/1 1/1/1
f 1/1/1 1/1/1 1/1/1
f 1/1/1 1/1/1 1/1/1
f 1/1/1 1/1/1 1/1/1
f 1/1/1 1/1/1 1/1/1
f 1/1/1 1/1/1 1/1/1
f 1/1/1 1/1/1 1/1/1
f 1/1/1 1/1/1 1/1/1
f 1/1/1 1/1/1 1/1/1
f 1/1/1 1/1/1 1/1/1
f 1/1/1 1/1/1 1/1/1
f 1/1/1 1/1/1 1/1/1
f 1/1/1 1/1/1 1/1/1
f 1/1/1 1/1/1 1/1/1
f 1/1/1 1/1/1 1/1/1
f 1/1/1 1/1/1 1/1/1
f 1/1/1 1/1/1 1/1/1
f 1/1/1 1/1/1 1/1/1
f 1/1/1 1/1/1 1/1/1
f 1/1/1 1/1/1 1/1/1
f 1/1/1 1/1/1 1/1/1
f 1/1/1 1/1/1 1/1/1
f 1/1/1 1/1/1 1/1/1
f 1/1/1 1/1/1 1/1/1
f 1/1/1 1/1/1 1/1/1
f 1/1/1 1/1/1 1/1/1
f 1/1/1 1/1/1 1/1/1
f 1/1/1 1/1/1 1/1/1
f 1/1/1 1/1/1 1/1/1
f 1/1/1 1/1/1 1/1/1
f 1/1/1 1/1/1 1/1/1
f 1/1/1 1/1/1 1/1/1
f 1/1/1 1/1/1 1/1/1
f 1/1/1 1/1/1 1/1/1
f 1/1/1 1/1/1 1/1/1
f 1/1/1 1/1/1 1/1/1
f 1/1/1 1/1/1 1/1/1
f 1/1/1 1/1/1 1/1/1
f 1/1/1 1/1/1 1/1/1
f 1/1/1 1/1/1 1/1/1
f 1/1/1 1/1/1 1/1/1
f 1/1/1 1/1/1 1/1/1
f 1/1/1 1/1/1 1/1/1
f 1/1/1 1/1/1 1/1/1
f 1/1/1 1/1/1 1/1/1
f 1/1/1 1/1/1 1/1/1
f 1/1/1 1/1/1 1/1/1
f 1/1/1 1/1/1 1/1/1
f 1/1/1 1/1/1 1/1/1
f 1/1/1 1/1/1 1/1/1
f 1/1/1 1/1/1 1/1/1
f 1/1/1 1/1/1 1/1/1
f 1/1/1 1/1/1 1/1/1
f 1/1/1 1/1/1 1/1/1
f 1/1/1 1/1/1 1/1/1
f 1/1/1 1/1/1 1/1/1
f 1/1/1 1/1/1 1/1/1
f 1/1/1 1/1/1 1/1/1
f 1/1/1 1/1/1 1/1/1
f 1/1/1 1/1/1 1/1/1
f 1/1/1 1/1/1 1/1/1
f 1/1/1 1/1/1 1/1/1
f 1/1/1 1/1/1 1/1/1
f 1/1/1 1/1/1 1/1/1
f 1/1/1 1/1/1 1/1/1
f 1/1/1 1/1/1 1/1/1
f 1/1/1 1/1/1 1/1/1
f 1/1/1 1/1/1 1/1/1
f 1/1/1 1/1/1 1/1/1
f 1/1/1 1/1/1 1/1/1
f 1/1/1 1/1/1 1/1/1
f 1/1/1 1/1/1 1/1/1
f 1/1/1 1/1/1 1/1/1
f 1/1/1 1/1/1 1/1/1
f 1/1/1 1/1/1 1/1/1
f 1/1/1 1/1/1 1/1/1
f 1/1/1 1/1/1 1/1/1
f 1/1/1 1/1/1 1/1/1
f 1/1/1 1/1/1 1/1/1
f 1/1/1 1/1/1 1/1/1
f 1/1/1 1/1/1 1/1/1
f 1/1/1 1/1/1 1/1/1
f 1/1/1 1/1/1 1/1/1
f 1/1/1 1/1/1 1/1/1
f 1/1/1 1/1/1 1/1/1
f 1/1/1 1/1/1 1/1/1
f 1/1/1 1/1/1 1/1/1
f 1/1/1 1/1/1 1/1/1
f 1/1/1 1/1/1 1/1/1
f 1/1/1 1/1/1 1/1/1
f 1/1/1 1/1/1 1/1/1
f 1/1/1 1/1/1 1/1/1
f 1/1/1 1/1/1 1/1/1
f 1/1/1 1/1/1 1/1/1
f 1/1/1 1/1/1 1/1/1
f 1/1/1 1/1/1 1/1/1
f 1/1/1 1/1/1 1/1/1
f 1/1/1 1/1/1 1/1/1
f 1/1/1 1/1/1 1/1/1
f 1/1/1 1/1/1 1/1/1
f 1/1/1 1/1/1 1/1/1
f 1/1/1 1/1/1 1/1/1
f 1/1/1 1/1/1 1/1/1
f 1/1/1 1/1/1 1/1/1
f 1/1/1 1/1/1 1/1/1
f 1/1/1 1/1/1 1/1/1
f 1/1/1 1/1/1 1/1/1
f 1/1/1 1/1/1 1/1/1
f 1/1/1 1/1/1 1/1/1
f 1/1/1 1/1/1 1/1/1
f 1/1/1 1/1/1 1/1/1
f 1/1/1 1/1/1 1/1/1
f 1/1/1 1/1/1 1/1/1
f 1/1/1 1/1/1 1/1/1
f 1/1/1 1/1/1 1/1/1
f 1/1/1 1/1/1 1/1/1
f 1/1/1 1/1/1 1/1/1
f 1/1/1 1/1/1 1/1/1
f 1/1/1 1/1/1 1/1/1
f 1/1/1 1/1/1 1/1/1
f 1/1/1 1/1/1 1/1/1
f 1/1/1 1/1/1 1/1/1
f 1/1/1 1/1/1 1/1/1
f 1/1/1 1/1/1 1/1/1
f 1/1/1 1/1/1 1/1/1
f 1/1/1 1/1/1 1/1/1
f 1/1/1 1/1/1 1/1/1
f 1/1/1 1/1/1 1/1/1
f 1/1/1 1/1/1 1/1/1
f 1/1/1 1/1/1 1/1/1
f 1/1/1 1/1/1 1/1/1
f 1/1/1 1/1/1 1/1/1
f 1/1/1 1/1/1 1/1/1
f 1/1/1 1/1/1 1/1/1
f 1/1/1 1/1/1 1/1/1
f 1/1/1 1/1/1 1/1/1
f 1/1/1 1/1/1 1/1/1
f 1/1/1 1/1/1 1/1/1
f 1/1/1 1/1/1 1/1/1
f 1/1/1 1/1/1 1/1/1
f 1/1/1 1/1/1 1/1/1
f 1/1/1 1/1/1 1/1/1
f 1/1/1 1/1/1 1/1/1
f 1/1/1 1/1/1 1/1/1
f 1/1/1 1/1/1 1/1/1
f 1/1/1 1/1/1 1/1/1
f 1/1/1 1/1/1 1/1/1
f 1/1/1 1/1/1 1/1/1
f 1/1/1 1/1/1 1/1/1
f 1/1/1 1/1/1 1/1/1
f 1/1/1 1/1/1 1/1/1
f 1/1/1 1/1/1 1/1/1
f 1/1/1 1/1/1 1/1/1
f 1/1/1 1/1/1 1/1/1
f 1/1/1 1/1/1 1/1/1
f 1/1/1 1/1/1 1/1/1
f 1/1/1 1/1/1 1/1/1
f 1/1/1 1/1/1 1/1/1
f 1/1/1 1/1/1 1/1/1
f 1/1/1 1/1/1 1/1/1
f 1/1/1 1/1/1 1/1/1
f 1/1/1 1/1/1 1/1/1
f 1/1/1 1/1/1 1/1/1
f 1/1/1 1/1/1 1/1/1
f 1/1/1 1/1/1 1/1/1
f 1/1/1 1/1/1 1/1/1
f 1/1/1 1/1/1 1/1/1
f 1/1/1 1/1/1 1/1/1
f 1/1/1 1/1/1 1/1/1
f 1/1/1 1/1/1 1/1/1
f 1/1/1 1/1/1 1/1/1
f 1/1/1 1/1/1 1/1/1
f 1/1/1 1/1/1 1/1/1
f 1/1/1 1/1/1 1/1/1
f 1/1/1 1/1/1 1/1/1
f 1/1/1 1/1/1 1/1/1
f 1/1/1 1/1/1 1/1/1
f 1/1/1 1/1/1 1/1/1
f 1/1/1 1/1/1 1/1/1
f 1/1/1 1/1/1 1/1/1
f 1/1/1 1/1/1 1/1/1
f 1/1/1 1/1/1 1/1/1
f 1/1/1 1/1/1 1/1/1
f 1/1/1 1/1/1 1/1/1
f 1/1/1 1/1/1 1/1/1
f 1/1/1 1/1/1 1/1/1
f 1/1/1 1/1/1 1/1/1
f 1/1/1 1/1/1 1/1/1
f 1/1/1 1/1/1 1/1/1
f 1/1/1 1/1/1 1/1/1
f 1/1/1 1/1/1 1/1/1
f 1/1/1 1/1/1 1/1/1
f 1/1/1 1/1/1 1/1/1
f 1/1/1 1/1/1 1/1/1
f 1/1/1 1/1/1 1/1/1
f 1/1/1 1/1/1 1/1/1
f 1/1/1 1/1/1 1/1/1
f 1/1/1 1/1/1 1/1/1
f 1/1/1 1/1/1 1/1/1
f 1/1/1 1/1/1 1/1/1
f 1/1/1 1/1/1 1/1/1
f 1/1/1 1/1/1 1/1/1
f 1/1/1 1/1/1 1/1/1
f 1/1/1 1/1/1 1/1/1
f 1/1/1 1/1/1 1/1/1
f 1/1/1 1/1/1 1/1/1
f 1/1/1 1/1/1 1/1/1
f 1/1/1 1/1/1 1/1/1
f 1/1/1 1/1/1 1/1/1
f 1/1/1 1/1/1 1/1/1
f 1/1/1 1/1/1 1/1/1
f 1/1/1 1/1/1 1/1/1
f 1/1/1 1/1/1 1/1/1
f 1/1/1 1/1/1 1/1/1
f 1/1/1 1/1/1 1/1/1
f 1/1/1 1/1/1 1/1/1
f 1/1/1 1/1/1 1/1/1
f 1/1/1 1/1/1 1/1/1
f 1/1/1 1/1/1 1/1/1
f 1/1/1 1/1/1 1/1/1
f 1/1/1 1/1/1 1/1/1
f 1/1/1 1/1/1 1/1/1
f 1/1/1 1/1/1 1/1/1
f 1/1/1 1/1/1 1/1/1
f 1/1/1 1/1/1 1/1/1
f 1/1/1 1/1/1 1/1/1
f 1/1/1 1/1/1 1/1/1
f 1/1/1 1/1/1 1/1/1
f 1/1/1 1/1/1 1/1/1
f 1/1/1 1/1/1 1/1/1
f 1/1/1 1/1/1 1/1/1
f 1/1/1 1/1/1 1/1/1
f 1/1/1 1/1/1 1/1/1
f 1/1/1 1/1/1 1/1/1
f 1/1/1 1/1/1 1/1/1
f 1/1/1 1/1/1 1/1/1
f 1/1/1 1/1/1 1/1/1
f 1/1/1 1/1/1 1/1/1
f 1/1/1 1/1/1 1/1/1
f 1/1/1 1/1/1 1/1/1
f 1/1/1 1/1/1 1/1/1
f 1/1/1 1/1/1 1/1/1
f 1/1/1 1/1/1 1/1/1
f 1/1/1 1/1/1 1/1/1
f 1/1/1 1/1/1 1/1/1
f 1/1/1 1/1/1 1/1/1
f 1/1/1 1/1/1 1/1/1
f 1/1/1 1/1/1 1/1/1
f 1/1/1 1/1/1 1/1/1
f 1/1/1 1/1/1 1/1/1
f 1/1/1 1/1/1 1/1/1
f 1/1/1 1/1/1 1/1/1
f 1/1/1 1/1/1 1/1/1
f 1/1/1 1/1/1 1/1/1
f 1/1/1 1/1/1 1/1/1
f 1/1/1 1/1/1 1/1/1
f 1/1/1 1/1/1 1/1/1
f 1/1/1 1/1/1 1/1/1
f 1/1/1 1/1/1 1/1/1
f 1/1/1 1/1/1 1/1/1
f 1/1/1 1/1/1 1/1/1
f 1/1/1 1/1/1 1/1/1
f 1/1/1 1/1/1 1/1/1
f 1/1/1 1/1/1 1/1/1
f 1/1/1 1/1/1 1/1/1
f 1/1/1 1/1/1 1/1/1
f 1/1/1 1/1/1 1/1/1
f 1/1/1 1/1/1 1/1/1
f 1/1/1 1/1/1 1/1/1
f 1/1/1 1/1/1 1/1/1
f 1/1/1 1/1/1 1/1/1
f 1/1/1 1/1/1 1/1/1
f 1/1/1 1/1/1 1/1/1
f 1/1/1 1/1/1 1/1/1
f 1/1/1 1/1/1 1/1/1
f 1/1/1 1/1/1 1/1/1
f 1/1/1 1/1/1 1/1/1
f 1/1/1 1/1/1 1/1/1
f 1/1/1 1/1/1 1/1/1
f 1/1/1 1/1/1 1/1/1
f 1/1/1 1/1/1 1/1/1
f 1/1/1 1/1/1 1/1/1
f 1/1/1 1/1/1 1/1/1
f 1/1/1 1/1/1 1/1/1
f 1/1/1 1/1/1 1/1/1
f 1/1/1 1/1/1 1/1/1
f 1/1/1 1/1/1 1/1/1
f 1/1/1 1/1/1 1/1/1
f 1/1/1 1/1/1 1/1/1
f 1/1/1 1/1/1 1/1/1
f 1/1/1 1/1/1 1/1/1
f 1/1/1 1/1/1 1/1/1
f 1/1/1 1/1/1 1/1/1
f 1/1/1 1/1/1 1/1/1
f 1/1/1 1/1/1 1/1/1
f 1/1/1 1/1/1 1/1/1
f 1/1/1 1/1/1 1/1/1
f 1/1/1 1/1/1 1/1/1
f 1/1/1 1/1/1 1/1/1
f 1/1/1 1/1/1 1/1/1
f 1/1/1 1/1/1 1/1/1
f 1/1/1 1/1/1 1/1/1
f 1/1/1 1/1/1 1/1/1
f 1/1/1 1/1/1 1/1/1
f 1/1/1 1/1/1 1/1/1
f 1/1/1 1/1/1 1/1/1
f 1/1/1 1/1/1 1/1/1
f 1/1/1 1/1/1 1/1/1
f 1/1/1 1/1/1 1/1/1
f 1/1/1 1/1/1 1/1/1
f 1/1/1 1/1/1 1/1/1
f 1/1/1 1/1/1 1/1/1
f 1/1/1 1/1/1 1/1/1
f 1/1/1 1/1/1 1/1/1
f 1/1/1 1/1/1 1/1/1
f 1/1/1 1/1/1 1/1/1
f 1/1/1 1/1/1 1/1/1
f 1/1/1 1/1/1 1/1/1
f 1/1/1 1/1/1 1/1/1
f 1/1/1 1/1/1 1/1/1
f 1/1/1 1/1/1 1/1/1
f 1/1/1 1/1/1 1/1/1
f 1/1/1 1/1/1 1/1/1
f 1/1/1 1/1/1 1/1/1
f 1/1/1 1/1/1 1/1/1
f 1/1/1 1/1/1 1/1/1
f 1/1/1 1/1/1 1/1/1
f 1/1/1 1/1/1 1/1/1
f 1/1/1 1/1/1 1/1/1
f 1/1/1 1/1/1 1/1/1
f 1/1/1 1/1/1 1/1/1
f 1/1/1 1/1/1 1/1/1
f 1/1/1 1/1/1 1/1/1
f 1/1/1 1/1/1 1/1/1
f 1/1/1 1/1/1 1/1/1
f 1/1/1 1/1/1 1/1/1
f 1/1/1 1/1/1 1/1/1
f 1/1/1 1/1/1 1/1/1
f 1/1/1 1/1/1 1/1/1
f 1/1/1 1/1/1 1/1/1
f 1/1/1 1/1/1 1/1/1
f 1/1/1 1/1/1 1/1/1
f 1/1/1 1/1/1 1/1/1
f 1/1/1 1/1/1 1/1/1
f 1/1/1 1/1/1 1/1/1
f 1/1/1 1/1/1 1/1/1
f 1/1/1 1/1/1 1/1/1
f 1/1/1 1/1/1 1/1/1
f 1/1/1 1/1/1 1/1/1
f 1/1/1 1/1/1 1/1/1
f 1/1/1 1/1/1 1/1/1
f 1/1/1 1/1/1 1/1/1
f 1/1/1 1/1/1 1/1/1
f 1/1/1 1/1/1 1/1/1
f 1/1/1 1/1/1 1/1/1
f 1/1/1 1/1/1 1/1/1
f 1/1/1 1/1/1 1/1/1
f 1/1/1 1/1/1 1/1/1
f 1/1/1 1/1/1 1/1/1
f 1/1/1 1/1/1 1/1/1
f 1/1/1 1/1/1 1/1/1
f 1/1/1 1/1/1 1/1/1
f 1/1/1 1/1/1 1/1/1
f 1/1/1 1/1/1 1/1/1
f 1/1/1 1/1/1 1/1/1
f 1/1/1 1/1/1 1/1/1
f 1/1/1 1/1/1 1/1/1
f 1/1/1 1/1/1 1/1/1
f 1/1/1 1/1/1 1/1/1
f 1/1/1 1/1/1 1/1/1
f 1/1/1 1/1/1 1/1/1
f 1/1/1 1/1/1 1/1/1
f 1/1/1 1/1/1 1/1/1
f 1/1/1 1/1/1 1/1/1
f 1/1/1 1/1/1 1/1/1
f 1/1/1 1/1/1 1/1/1
f 1/1/1 1/1/1 1/1/1
f 1/1/1 1/1/1 1/1/1
f 1/1/1 1/1/1 1/1/1
f 1/1/1 1/1/1 1/1/1
f 1/1/1 1/1/1 1/1/1
f 1/1/1 1/1/1 1/1/1
f 1/1/1 1/1/1 1/1/1
f 1/1/1 1/1/1 1/1/1
f 1/1/1 1/1/1 1/1/1
f 1/1/1 1/1/1 1/1/1
f 1/1/1 1/1/1 1/1/1
f 1/1/1 1/1/1 1/1/1
f 1/1/1 1/1/1 1/1/1
f 1/1/1 1/1/1 1/1/1
f 1/1/1 1/1/1 1/1/1
f 1/1/1 1/1/1 1/1/1
f 1/1/1 1/1/1 1/1/1
f 1/1/1 1/1/1 1/1/1
f 1/1/1 1/1/1 1/1/1
f 1/1/1 1/1/1 1/1/1
f 1/1/1 1/1/1 1/1/1
f 1/1/1 1/1/1 1/1/1
f 1/1/1 1/1/1 1/1/1
f 1/1/1 1/1/1 1/1/1
f 1/1/1 1/1/1 1/1/1
f 1/1/1 1/1/1 1/1/1
f 1/1/1 1/1/1 1/1/1
f 1/1/1 1/1/1 1/1/1
f 1/1/1 1/1/1 1/1/1
f 1/1/1 1/1/1 1/1/1
f 1/1/1 1/1/1 1/1/1
f 1/1/1 1/1/1 1/1/1
f 1/1/1 1/1/1 1/1/1
f 1/1/1 1/1/1 1/1/1
f 1/1/1 1/1/1 1/1/1
f 1/1/1 1/1/1 1/1/1
f 1/1/1 1/1/1 1/1/1
f 1/1/1 1/1/1 1/1/1
f 1/1/1 1/1/1 1/1/1
f 1/1/1 1/1/1 1/1/1
f 1/1/1 1/1/1 1/1/1
f 1/1/1 1/1/1 1/1/1
f 1/1/1 1/1/1 1/1/1
f 1/1/1 1/1/1 1/1/1
f 1/1/1 1/1/1 1/1/1
f 1/1/1 1/1/1 1/1/1
f 1/1/1 1/1/1 1/1/1
f 1/1/1 1/1/1 1/1/1
f 1/1/1 1/1/1 1/1/1
f 1/1/1 1/1/1 1/1/1
f 1/1/1 1/1/1 1/1/1
f 1/1/1 1/1/1 1/1/1
f 1/1/1 1/1/1 1/1/1
f 1/1/1 1/1/1 1/1/1
f 1/1/1 1/1/1 1/1/1
f 1/1/1 1/1/1 1/1/1
f 1/1/1 1/1/1 1/1/1
f 1/1/1 1/1/1 1/1/1
f 1/1/1 1/1/1 1/1/1
f 1/1/1 1/1/1 1/1/1
f 1/1/1 1/1/1 1/1/1
f 1/1/1 1/1/1 1/1/1
f 1/1/1 1/1/1 1/1/1
f 1/1/1 1/1/1 1/1/1
f 1/1/1 1/1/1 1/1/1
f 1/1/1 1/1/1 1/1/1
f 1/1/1 1/1/1 1/1/1
f 1/1/1 1/1/1 1/1/1
f 1/1/1 1/1/1 1/1/1
f 1/1/1 1/1/1 1/1/1
f 1/1/1 1/1/1 1/1/1
f 1/1/1 1/1/1 1/1/1
f 1/1/1 1/1/1 1/1/1
f 1/1/1 1/1/1 1/1/1
f 1/1/1 1/1/1 1/1/1
f 1/1/1 1/1/1 1/1/1
f 1/1/1 1/1/1 1/1/1
f 1/1/1 1/1/1 1/1/1
f 1/1/1 1/1/1 1/1/1
f 1/1/1 1/1/1 1/1/1
f 1/1/1 1/1/1 1/1/1
f 1/1/1 1/1/1 1/1/1
f 1/1/1 1/1/1 1/1/1
f 1/1/1 1/1/1 1/1/1
f 1/1/1 1/1/1 1/1/1
f 1/1/1 1/1/1 1/1/1
f 1/1/1 1/1/1 1/1/1
f 1/1/1 1/1/1 1/1/1
f 1/1/1 1/1/1 1/1/1
f 1/1/1 1/1/1 1/1/1
f 1/1/1 1/1/1 1/1/1
f 1/1/1 1/1/1 1/1/1
f 1/1/1 1/1/1 1/1/1
f 1/1/1 1/1/1 1/1/1
f 1/1/1 1/1/1 1/1/1
f 1/1/1 1/1/1 1/1/1
f 1/1/1 1/1/1 1/1/1
f 1/1/1 1/1/1 1/1/1
f 1/1/1 1/1/1 1/1/1
f 1/1/1 1/1/1 1/1/1
f 1/1/1 1/1/1 1/1/1
f 1/1/1 1/1/1 1/1/1
f 1/1/1 1/1/1 1/1/1
f 1/1/1 1/1/1 1/1/1
f 1/1/1 1/1/1 1/1/1
f 1/1/1 1/1/1 1/1/1
f 1/1/1 1/1/1 1/1/1
f 1/1/1 1/1/1 1/1/1
f 1/1/1 1/1/1 1/1/1
f 1/1/1 1/1/1 1/1/1
f 1/1/1 1/1/1 1/1/1
f 1/1/1 1/1/1 1/1/1
f 1/1/1 1/1/1 1/1/1
f 1/1/1 1/1/1 1/1/1
f 1/1/1 1/1/1 1/1/1
f 1/1/1 1/1/1 1/1/1
f 1/1/1 1/1/1 1/1/1
f 1/1/1 1/1/1 1/1/1
f 1/1/1 1/1/1 1/1/1
f 1/1/1 1/1/1 1/1/1
f 1/1/1 1/1/1 1/1/1
f 1/1/1 1/1/1 1/1/1
f 1/1/1 1/1/1 1/1/1
f 1/1/1 1/1/1 1/1/1
f 1/1/1 1/1/1 1/1/1
f 1/1/1 1/1/1 1/1/1
f 1/1/1 1/1/1 1/1/1
f 1/1/1 1/1/1 1/1/1
f 1/1/1 1/1/1 1/1/1
f 1/1/1 1/1/1 1/1/1
f 1/1/1 1/1/1 1/1/1
f 1/1/1 1/1/1 1/1/1
f 1/1/1 1/1/1 1/1/1
f 1/1/1 1/1/1 1/1/1
f 1/1/1 1/1/1 1/1/1
f 1/1/1 1/1/1 1/1/1
f 1/1/1 1/1/1 1/1/1
f 1/1/1 1/1/1 1/1/1
f 1/1/1 1/1/1 1/1/1
f 1/1/1 1/1/1 1/1/1
f 1/1/1 1/1/1 1/1/1
f 1/1/1 1/1/1 1/1/1
f 1/1/1 1/1/1 1/1/1
f 1/1/1 1/1/1 1/1/1
f 1/1/1 1/1/1 1/1/1
f 1/1/1 1/1/1 1/1/1
f 1/1/1 1/1/1 1/1/1
f 1/1/1 1/1/1 1/1/1
f 1/1/1 1/1/1 1/1/1
f 1/1/1 1/1/1 1/1/1
f 1/1/1 1/1/1 1/1/1
f 1/1/1 1/1/1 1/1/1
f 1/1/1 1/1/1 1/1/1
f 1/1/1 1/1/1 1/1/1
f 1/1/1 1/1/1 1/1/1
f 1/1/1 1/1/1 1/1/1
f 1/1/1 1/1/1 1/1/1
f 1/1/1 1/1/1 1/1/1
f 1/1/1 1/1/1 1/1/1
f 1/1/1 1/1/1 1/1/1
f 1/1/1 1/1/1 1/1/1
f 1/1/1 1/1/1 1/1/1
f 1/1/1 1/1/1 1/1/1
f 1/1/1 1/1/1 1/1/1
f 1/1/1 1/1/1 1/1/1
f 1/1/1 1/1/1 1/1/1
f 1/1/1 1/1/1 1/1/1
f 1/1/1 1/1/1 1/1/1
f 1/1/1 1/1/1 1/1/1
f 1/1/1 1/1/1 1/1/1
f 1/1/1 1/1/1 1/1/1
f 1/1/1 1/1/1 1/1/1
f 1/1/1 1/1/1 1/1/1
f 1/1/1 1/1/1 1/1/1
f 1/1/1 1/1/1 1/1/1
f 1/1/1 1/1/1 1/1/1
f 1/1/1 1/1/1 1/1/1
f 1/1/1 1/1/1 1/1/1
f 1/1/1 1/1/1 1/1/1
f 1/1/1 1/1/1 1/1/1
f 1/1/1 1/1/1 1/1/1
f 1/1/1 1/1/1 1/1/1
f 1/1/1 1/1/1 1/1/1
f 1/1/1 1/1/1 1/1/1
f 1/1/1 1/1/1 1/1/1
f 1/1/1 1/1/1 1/1/1
f 1/1/1 1/1/1 1/1/1
f 1/1/1 1/1/1 1/1/1
f 1/1/1 1/1/1 1/1/1
f 1/1/1 1/1/1 1/1/1
f 1/1/1 1/1/1 1/1/1
f 1/1/1 1/1/1 1/1/1
f 1/1/1 1/1/1 1/1/1
f 1/1/1 1/1/1 1/1/1
f 1/1/1 1/1/1 1/1/1
f 1/1/1 1/1/1 1/1/1
f 1/1/1 1/1/1 1/1/1
f 1/1/1 1/1/1 1/1/1
f 1/1/1 1/1/1 1/1/1
f 1/1/1 1/1/1 1/1/1
f 1/1/1 1/1/1 1/1/1
f 1/1/1 1/1/1 1/1/1
f 1/1/1 1/1/1 1/1/1
f 1/1/1 1/1/1 1/1/1
f 1/1/1 1/1/1 1/1/1
f 1/1/1 1/1/1 1/1/1
f 1/1/1 1/1/1 1/1/1
f 1/1/1 1/1/1 1/1/1
f 1/1/1 1/1/1 1/1/1
f 1/1/1 1/1/1 1/1/1
f 1/1/1 1/1/1 1/1/1
f 1/1/1 1/1/1 1/1/1
f 1/1/1 1/1/1 1/1/1
f 1/1/1 1/1/1 1/1/1
f 1/1/1 1/1/1 1/1/1
f 1/1/1 1/1/1 1/1/1
f 1/1/1 1/1/1 1/1/1
f 1/1/1 1/1/1 1/1/1
f 1/1/1 1/1/1 1/1/1
f 1/1/1 1/1/1 1/1/1
f 1/1/1 1/1/1 1/1/1
f 1/1/1 1/1/1 1/1/1
f 1/1/1 1/1/1 1/1/1
f 1/1/1 1/1/1 1/1/1
f 1/1/1 1/1/1 1/1/1
f 1/1/1 1/1/1 1/1/1
f 1/1/1 1/1/1 1/1/1
f 1/1/1 1/1/1 1/1/1
f 1/1/1 1/1/1 1/1/1
f 1/1/1 1/1/1 1/1/1
f 1/1/1 1/1/1 1/1/1
f 1/1/1 1/1/1 1/1/1
f 1/1/1 1/1/1 1/1/1
f 1/1/1 1/1/1 1/1/1
f 1/1/1 1/1/1 1/1/1
f 1/1/1 1/1/1 1/1/1
f 1/1/1 1/1/1 1/1/1
f 1/1/1 1/1/1 1/1/1
f 1/1/1 1/1/1 1/1/1
f 1/1/1 1/1/1 1/1/1
f 1/1/1 1/1/1 1/1/1
f 1/1/1 1/1/1 1/1/1
f 1/1/1 1/1/1 1/1/1
f 1/1/1 1/1/1 1/1/1
f 1/1/1 1/1/1 1/1/1
f 1/1/1 1/1/1 1/1/1
f 1/1/1 1/1/1 1/1/1
f 1/1/1 1/1/1 1/1/1
f 1/1/1 1/1/1 1/1/1
f 1/1/1 1/1/1 1/1/1
f 1/1/1 1/1/1 1/1/1
f 1/1/1 1/1/1 1/1/1
f 1/1/1 1/1/1 1/1/1
f 1/1/1 1/1/1 1/1/1
f 1/1/1 1/1/1 1/1/1
f 1/1/1 1/1/1 1/1/1
f 1/1/1 1/1/1 1/1/1
f 1/1/1 1/1/1 1/1/1
f 1/1/1 1/1/1 1/1/1
f 1/1/1 1/1/1 1/1/1
f 1/1/1 1/1/1 1/1/1
f 1/1/1 1/1/1 1/1/1
f 1/1/1 1/1/1 1/1/1
f 1/1/1 1/1/1 1/1/1
f 1/1/1 1/1/1 1/1/1
f 1/1/1 1/1/1 1/1/1
f 1/1/1 1/1/1 1/1/1
f 1/1/1 1/1/1 1/1/1
f 1/1/1 1/1/1 1/1/1
f 1/1/1 1/1/1 1/1/1
f 1/1/1 1/1/1 1/1/1
f 1/1/1 1/1/1 1/1/1
f 1/1/1 1/1/1 1/1/1
f 1/1/1 1/1/1 1/1/1
f 1/1/1 1/1/1 1/1/1
f 1/1/1 1/1/1 1/1/1
f 1/1/1 1/1/1 1/1/1
f 1/1/1 1/1/1 1/1/1
f 1/1/1 1/1/1 1/1/1
f 1/1/1 1/1/1 1/1/1
f 1/1/1 1/1/1 1/1/1
f 1/1/1 1/1/1 1/1/1
f 1/1/1 1/1/1 1/1/1
f 1/1/1 1/1/1 1/1/1
f 1/1/1 1/1/1 1/1/1
f 1/1/1 1/1/1 1/1/1
f 1/1/1 1/1/1 1/1/1
f 1/1/1 1/1/1 1/1/1
f 1/1/1 1/1/1 1/1/1
f 1/1/1 1/1/1 1/1/1
f 1/1/1 1/1/1 1/1/1
f 1/1/1 1/1/1 1/1/1
f 1/1/1 1/1/1 1/1/1
f 1/1/1 1/1/1 1/1/1
f 1/1/1 1/1/1 1/1/1
f 1/1/1 1/1/1 1/1/1
f 1/1/1 1/1/1 1/1/1
f 1/1/1 1/1/1 1/1/1
f 1/1/1 1/1/1 1/1/1
f 1/1/1 1/1/1 1/1/1
f 1/1/1 1/1/1 1/1/1
f 1/1/1 1/1/1 1/1/1
f 1/1/1 1/1/1 1/1/1
f 1/1/1 1/1/1 1/1/1
f 1/1/1 1/1/1 1/1/1
f 1/1/1 1/1/1 1/1/1
f 1/1/1 1/1/1 1/1/1
f 1/1/1 1/1/1 1/1/1
f 1/1/1 1/1/1 1/1/1
f 1/1/1 1/1/1 1/1/1
f 1/1/1 1/1/1 1/1/1
f 1/1/1 1/1/1 1/1/1
f 1/1/1 1/1/1 1/1/1
f 1/1/1 1/1/1 1/1/1
f 1/1/1 1/1/1 1/1/1
f 1/1/1 1/1/1 1/1/1
f 1/1/1 1/1/1 1/1/1
f 1/1/1 1/1/1 1/1/1
f 1/1/1 1/1/1 1/1/1
f 1/1/1 1/1/1 1/1/1
f 1/1/1 1/1/1 1/1/1
f 1/1/1 1/1/1 1/1/1
f 1/1/1 1/1/1 1/1/1
f 1/1/1 1/1/1 1/1/1
f 1/1/1 1/1/1 1/1/1
f 1/1/1 1/1/1 1/1/1
f 1/1/1 1/1/1 1/1/1
f 1/1/1 1/1/1 1/1/1
f 1/1/1 1/1/1 1/1/1
f 1/1/1 1/1/1 1/1/1
f 1/1/1 1/1/1 1/1/1
f 1/1/1 1/1/1 1/1/1
f 1/1/1 1/1/1 1/1/1
f 1/1/1 1/1/1 1/1/1
f 1/1/1 1/1/1 1/1/1
f 1/1/1 1/1/1 1/1/1
f 1/1/1 1/1/1 1/1/1
f 1/1/1 1/1/1 1/1/1
f 1/1/1 1/1/1 1/1/1
f 1/1/1 1/1/1 1/1/1
f 1/1/1 1/1/1 1/1/1
f 1/1/1 1/1/1 1/1/1
f 1/1/1 1/1/1 1/1/1
f 1/1/1 1/1/1 1/1/1
f 1/1/1 1/1/1 1/1/1
f 1/1/1 1/1/1 1/1/1
f 1/1/1 1/1/1 1/1/1
f 1/1/1 1/1/1 1/1/1
f 1/1/1 1/1/1 1/1/1
f 1/1/1 1/1/1 1/1/1
f 1/1/1 1/1/1 1/1/1
f 1/1/1 1/1/1 1/1/1
f 1/1/1 1/1/1 1/1/1
f 1/1/1 1/1/1 1/1/1
f 1/1/1 1/1/1 1/1/1
f 1/1/1 1/1/1 1/1/1
f 1/1/1 1/1/1 1/1/1
f 1/1/1 1/1/1 1/1/1
f 1/1/1 1/1/1 1/1/1
f 1/1/1 1/1/1 1/1/1
f 1/1/1 1/1/1 1/1/1
f 1/1/1 1/1/1 1/1/1
f 1/1/1 1/1/1 1/1/1
f 1/1/1 1/1/1 1/1/1
f 1/1/1 1/1/1 1/1/1
f 1/1/1 1/1/1 1/1/1
f 1/1/1 1/1/1 1/1/1
f 1/1/1 1/1/1 1/1/1
f 1/1/1 1/1/1 1/1/1
f 1/1/1 1/1/1 1/1/1
f 1/1/1 1/1/1 1/1/1
f 1/1/1 1/1/1 1/1/1
f 1/1/1 1/1/1 1/1/1
f 1/1/1 1/1/1 1/1/1
f 1/1/1 1/1/1 1/1/1
f 1/1/1 1/1/1 1/1/1
f 1/1/1 1/1/1 1/1/1
f 1/1/1 1/1/1 1/1/1
f 1/1/1 1/1/1 1/1/1
f 1/1/1 1/1/1 1/1/1
f 1/1/1 1/1/1 1/1/1
f 1/1/1 1/1/1 1/1/1
f 1/1/1 1/1/1 1/1/1
